ISO-10303-21;
HEADER;
FILE_DESCRIPTION(('Sample STEP file for GetSampleData.com'),'2;1');
FILE_NAME('sample.step','2026-08-18T00:00:00',('GetSampleData.com'),(''),'','','');
FILE_SCHEMA(('CONFIG_CONTROL_DESIGN'));
ENDSEC;
DATA;
#1 = CARTESIAN_POINT('P0',(0.0,0.0,0.0));
#2 = CARTESIAN_POINT('P0b',(8.0,0.0,0.0));
#3 = LINE('L0',#1,#2);
#4 = CARTESIAN_POINT('P1',(10.0,0.0,0.0));
#5 = CARTESIAN_POINT('P1b',(18.0,0.0,0.0));
#6 = LINE('L1',#4,#5);
#7 = CARTESIAN_POINT('P2',(20.0,0.0,0.0));
#8 = CARTESIAN_POINT('P2b',(28.0,0.0,0.0));
#9 = LINE('L2',#7,#8);
#10 = CARTESIAN_POINT('P3',(30.0,0.0,0.0));
#11 = CARTESIAN_POINT('P3b',(38.0,0.0,0.0));
#12 = LINE('L3',#10,#11);
#13 = CARTESIAN_POINT('P4',(40.0,0.0,0.0));
#14 = CARTESIAN_POINT('P4b',(48.0,0.0,0.0));
#15 = LINE('L4',#13,#14);
#16 = CARTESIAN_POINT('P5',(50.0,0.0,0.0));
#17 = CARTESIAN_POINT('P5b',(58.0,0.0,0.0));
#18 = LINE('L5',#16,#17);
#19 = CARTESIAN_POINT('P6',(60.0,0.0,0.0));
#20 = CARTESIAN_POINT('P6b',(68.0,0.0,0.0));
#21 = LINE('L6',#19,#20);
#22 = CARTESIAN_POINT('P7',(70.0,0.0,0.0));
#23 = CARTESIAN_POINT('P7b',(78.0,0.0,0.0));
#24 = LINE('L7',#22,#23);
#25 = CARTESIAN_POINT('P8',(80.0,0.0,0.0));
#26 = CARTESIAN_POINT('P8b',(88.0,0.0,0.0));
#27 = LINE('L8',#25,#26);
#28 = CARTESIAN_POINT('P9',(90.0,0.0,0.0));
#29 = CARTESIAN_POINT('P9b',(98.0,0.0,0.0));
#30 = LINE('L9',#28,#29);
#31 = CARTESIAN_POINT('P10',(100.0,0.0,0.0));
#32 = CARTESIAN_POINT('P10b',(108.0,0.0,0.0));
#33 = LINE('L10',#31,#32);
#34 = CARTESIAN_POINT('P11',(110.0,0.0,0.0));
#35 = CARTESIAN_POINT('P11b',(118.0,0.0,0.0));
#36 = LINE('L11',#34,#35);
#37 = CARTESIAN_POINT('P12',(120.0,0.0,0.0));
#38 = CARTESIAN_POINT('P12b',(128.0,0.0,0.0));
#39 = LINE('L12',#37,#38);
#40 = CARTESIAN_POINT('P13',(130.0,0.0,0.0));
#41 = CARTESIAN_POINT('P13b',(138.0,0.0,0.0));
#42 = LINE('L13',#40,#41);
#43 = CARTESIAN_POINT('P14',(140.0,0.0,0.0));
#44 = CARTESIAN_POINT('P14b',(148.0,0.0,0.0));
#45 = LINE('L14',#43,#44);
#46 = CARTESIAN_POINT('P15',(150.0,0.0,0.0));
#47 = CARTESIAN_POINT('P15b',(158.0,0.0,0.0));
#48 = LINE('L15',#46,#47);
#49 = CARTESIAN_POINT('P16',(160.0,0.0,0.0));
#50 = CARTESIAN_POINT('P16b',(168.0,0.0,0.0));
#51 = LINE('L16',#49,#50);
#52 = CARTESIAN_POINT('P17',(170.0,0.0,0.0));
#53 = CARTESIAN_POINT('P17b',(178.0,0.0,0.0));
#54 = LINE('L17',#52,#53);
#55 = CARTESIAN_POINT('P18',(180.0,0.0,0.0));
#56 = CARTESIAN_POINT('P18b',(188.0,0.0,0.0));
#57 = LINE('L18',#55,#56);
#58 = CARTESIAN_POINT('P19',(190.0,0.0,0.0));
#59 = CARTESIAN_POINT('P19b',(198.0,0.0,0.0));
#60 = LINE('L19',#58,#59);
#61 = CARTESIAN_POINT('P20',(200.0,0.0,0.0));
#62 = CARTESIAN_POINT('P20b',(208.0,0.0,0.0));
#63 = LINE('L20',#61,#62);
#64 = CARTESIAN_POINT('P21',(210.0,0.0,0.0));
#65 = CARTESIAN_POINT('P21b',(218.0,0.0,0.0));
#66 = LINE('L21',#64,#65);
#67 = CARTESIAN_POINT('P22',(220.0,0.0,0.0));
#68 = CARTESIAN_POINT('P22b',(228.0,0.0,0.0));
#69 = LINE('L22',#67,#68);
#70 = CARTESIAN_POINT('P23',(230.0,0.0,0.0));
#71 = CARTESIAN_POINT('P23b',(238.0,0.0,0.0));
#72 = LINE('L23',#70,#71);
#73 = CARTESIAN_POINT('P24',(240.0,0.0,0.0));
#74 = CARTESIAN_POINT('P24b',(248.0,0.0,0.0));
#75 = LINE('L24',#73,#74);
#76 = CARTESIAN_POINT('P25',(250.0,0.0,0.0));
#77 = CARTESIAN_POINT('P25b',(258.0,0.0,0.0));
#78 = LINE('L25',#76,#77);
#79 = CARTESIAN_POINT('P26',(260.0,0.0,0.0));
#80 = CARTESIAN_POINT('P26b',(268.0,0.0,0.0));
#81 = LINE('L26',#79,#80);
#82 = CARTESIAN_POINT('P27',(270.0,0.0,0.0));
#83 = CARTESIAN_POINT('P27b',(278.0,0.0,0.0));
#84 = LINE('L27',#82,#83);
#85 = CARTESIAN_POINT('P28',(280.0,0.0,0.0));
#86 = CARTESIAN_POINT('P28b',(288.0,0.0,0.0));
#87 = LINE('L28',#85,#86);
#88 = CARTESIAN_POINT('P29',(290.0,0.0,0.0));
#89 = CARTESIAN_POINT('P29b',(298.0,0.0,0.0));
#90 = LINE('L29',#88,#89);
#91 = CARTESIAN_POINT('P30',(300.0,0.0,0.0));
#92 = CARTESIAN_POINT('P30b',(308.0,0.0,0.0));
#93 = LINE('L30',#91,#92);
#94 = CARTESIAN_POINT('P31',(310.0,0.0,0.0));
#95 = CARTESIAN_POINT('P31b',(318.0,0.0,0.0));
#96 = LINE('L31',#94,#95);
#97 = CARTESIAN_POINT('P32',(320.0,0.0,0.0));
#98 = CARTESIAN_POINT('P32b',(328.0,0.0,0.0));
#99 = LINE('L32',#97,#98);
#100 = CARTESIAN_POINT('P33',(330.0,0.0,0.0));
#101 = CARTESIAN_POINT('P33b',(338.0,0.0,0.0));
#102 = LINE('L33',#100,#101);
#103 = CARTESIAN_POINT('P34',(340.0,0.0,0.0));
#104 = CARTESIAN_POINT('P34b',(348.0,0.0,0.0));
#105 = LINE('L34',#103,#104);
#106 = CARTESIAN_POINT('P35',(350.0,0.0,0.0));
#107 = CARTESIAN_POINT('P35b',(358.0,0.0,0.0));
#108 = LINE('L35',#106,#107);
#109 = CARTESIAN_POINT('P36',(360.0,0.0,0.0));
#110 = CARTESIAN_POINT('P36b',(368.0,0.0,0.0));
#111 = LINE('L36',#109,#110);
#112 = CARTESIAN_POINT('P37',(370.0,0.0,0.0));
#113 = CARTESIAN_POINT('P37b',(378.0,0.0,0.0));
#114 = LINE('L37',#112,#113);
#115 = CARTESIAN_POINT('P38',(380.0,0.0,0.0));
#116 = CARTESIAN_POINT('P38b',(388.0,0.0,0.0));
#117 = LINE('L38',#115,#116);
#118 = CARTESIAN_POINT('P39',(390.0,0.0,0.0));
#119 = CARTESIAN_POINT('P39b',(398.0,0.0,0.0));
#120 = LINE('L39',#118,#119);
#121 = CARTESIAN_POINT('P40',(400.0,0.0,0.0));
#122 = CARTESIAN_POINT('P40b',(408.0,0.0,0.0));
#123 = LINE('L40',#121,#122);
#124 = CARTESIAN_POINT('P41',(410.0,0.0,0.0));
#125 = CARTESIAN_POINT('P41b',(418.0,0.0,0.0));
#126 = LINE('L41',#124,#125);
#127 = CARTESIAN_POINT('P42',(420.0,0.0,0.0));
#128 = CARTESIAN_POINT('P42b',(428.0,0.0,0.0));
#129 = LINE('L42',#127,#128);
#130 = CARTESIAN_POINT('P43',(430.0,0.0,0.0));
#131 = CARTESIAN_POINT('P43b',(438.0,0.0,0.0));
#132 = LINE('L43',#130,#131);
#133 = CARTESIAN_POINT('P44',(440.0,0.0,0.0));
#134 = CARTESIAN_POINT('P44b',(448.0,0.0,0.0));
#135 = LINE('L44',#133,#134);
#136 = CARTESIAN_POINT('P45',(450.0,0.0,0.0));
#137 = CARTESIAN_POINT('P45b',(458.0,0.0,0.0));
#138 = LINE('L45',#136,#137);
#139 = CARTESIAN_POINT('P46',(460.0,0.0,0.0));
#140 = CARTESIAN_POINT('P46b',(468.0,0.0,0.0));
#141 = LINE('L46',#139,#140);
#142 = CARTESIAN_POINT('P47',(470.0,0.0,0.0));
#143 = CARTESIAN_POINT('P47b',(478.0,0.0,0.0));
#144 = LINE('L47',#142,#143);
#145 = CARTESIAN_POINT('P48',(480.0,0.0,0.0));
#146 = CARTESIAN_POINT('P48b',(488.0,0.0,0.0));
#147 = LINE('L48',#145,#146);
#148 = CARTESIAN_POINT('P49',(490.0,0.0,0.0));
#149 = CARTESIAN_POINT('P49b',(498.0,0.0,0.0));
#150 = LINE('L49',#148,#149);
#151 = CARTESIAN_POINT('P50',(500.0,0.0,0.0));
#152 = CARTESIAN_POINT('P50b',(508.0,0.0,0.0));
#153 = LINE('L50',#151,#152);
#154 = CARTESIAN_POINT('P51',(510.0,0.0,0.0));
#155 = CARTESIAN_POINT('P51b',(518.0,0.0,0.0));
#156 = LINE('L51',#154,#155);
#157 = CARTESIAN_POINT('P52',(520.0,0.0,0.0));
#158 = CARTESIAN_POINT('P52b',(528.0,0.0,0.0));
#159 = LINE('L52',#157,#158);
#160 = CARTESIAN_POINT('P53',(530.0,0.0,0.0));
#161 = CARTESIAN_POINT('P53b',(538.0,0.0,0.0));
#162 = LINE('L53',#160,#161);
#163 = CARTESIAN_POINT('P54',(540.0,0.0,0.0));
#164 = CARTESIAN_POINT('P54b',(548.0,0.0,0.0));
#165 = LINE('L54',#163,#164);
#166 = CARTESIAN_POINT('P55',(550.0,0.0,0.0));
#167 = CARTESIAN_POINT('P55b',(558.0,0.0,0.0));
#168 = LINE('L55',#166,#167);
#169 = CARTESIAN_POINT('P56',(560.0,0.0,0.0));
#170 = CARTESIAN_POINT('P56b',(568.0,0.0,0.0));
#171 = LINE('L56',#169,#170);
#172 = CARTESIAN_POINT('P57',(570.0,0.0,0.0));
#173 = CARTESIAN_POINT('P57b',(578.0,0.0,0.0));
#174 = LINE('L57',#172,#173);
#175 = CARTESIAN_POINT('P58',(580.0,0.0,0.0));
#176 = CARTESIAN_POINT('P58b',(588.0,0.0,0.0));
#177 = LINE('L58',#175,#176);
#178 = CARTESIAN_POINT('P59',(590.0,0.0,0.0));
#179 = CARTESIAN_POINT('P59b',(598.0,0.0,0.0));
#180 = LINE('L59',#178,#179);
#181 = CARTESIAN_POINT('P60',(600.0,0.0,0.0));
#182 = CARTESIAN_POINT('P60b',(608.0,0.0,0.0));
#183 = LINE('L60',#181,#182);
#184 = CARTESIAN_POINT('P61',(610.0,0.0,0.0));
#185 = CARTESIAN_POINT('P61b',(618.0,0.0,0.0));
#186 = LINE('L61',#184,#185);
#187 = CARTESIAN_POINT('P62',(620.0,0.0,0.0));
#188 = CARTESIAN_POINT('P62b',(628.0,0.0,0.0));
#189 = LINE('L62',#187,#188);
#190 = CARTESIAN_POINT('P63',(630.0,0.0,0.0));
#191 = CARTESIAN_POINT('P63b',(638.0,0.0,0.0));
#192 = LINE('L63',#190,#191);
#193 = CARTESIAN_POINT('P64',(640.0,0.0,0.0));
#194 = CARTESIAN_POINT('P64b',(648.0,0.0,0.0));
#195 = LINE('L64',#193,#194);
#196 = CARTESIAN_POINT('P65',(650.0,0.0,0.0));
#197 = CARTESIAN_POINT('P65b',(658.0,0.0,0.0));
#198 = LINE('L65',#196,#197);
#199 = CARTESIAN_POINT('P66',(660.0,0.0,0.0));
#200 = CARTESIAN_POINT('P66b',(668.0,0.0,0.0));
#201 = LINE('L66',#199,#200);
#202 = CARTESIAN_POINT('P67',(670.0,0.0,0.0));
#203 = CARTESIAN_POINT('P67b',(678.0,0.0,0.0));
#204 = LINE('L67',#202,#203);
#205 = CARTESIAN_POINT('P68',(680.0,0.0,0.0));
#206 = CARTESIAN_POINT('P68b',(688.0,0.0,0.0));
#207 = LINE('L68',#205,#206);
#208 = CARTESIAN_POINT('P69',(690.0,0.0,0.0));
#209 = CARTESIAN_POINT('P69b',(698.0,0.0,0.0));
#210 = LINE('L69',#208,#209);
#211 = CARTESIAN_POINT('P70',(700.0,0.0,0.0));
#212 = CARTESIAN_POINT('P70b',(708.0,0.0,0.0));
#213 = LINE('L70',#211,#212);
#214 = CARTESIAN_POINT('P71',(710.0,0.0,0.0));
#215 = CARTESIAN_POINT('P71b',(718.0,0.0,0.0));
#216 = LINE('L71',#214,#215);
#217 = CARTESIAN_POINT('P72',(720.0,0.0,0.0));
#218 = CARTESIAN_POINT('P72b',(728.0,0.0,0.0));
#219 = LINE('L72',#217,#218);
#220 = CARTESIAN_POINT('P73',(730.0,0.0,0.0));
#221 = CARTESIAN_POINT('P73b',(738.0,0.0,0.0));
#222 = LINE('L73',#220,#221);
#223 = CARTESIAN_POINT('P74',(740.0,0.0,0.0));
#224 = CARTESIAN_POINT('P74b',(748.0,0.0,0.0));
#225 = LINE('L74',#223,#224);
#226 = CARTESIAN_POINT('P75',(750.0,0.0,0.0));
#227 = CARTESIAN_POINT('P75b',(758.0,0.0,0.0));
#228 = LINE('L75',#226,#227);
#229 = CARTESIAN_POINT('P76',(760.0,0.0,0.0));
#230 = CARTESIAN_POINT('P76b',(768.0,0.0,0.0));
#231 = LINE('L76',#229,#230);
#232 = CARTESIAN_POINT('P77',(770.0,0.0,0.0));
#233 = CARTESIAN_POINT('P77b',(778.0,0.0,0.0));
#234 = LINE('L77',#232,#233);
#235 = CARTESIAN_POINT('P78',(780.0,0.0,0.0));
#236 = CARTESIAN_POINT('P78b',(788.0,0.0,0.0));
#237 = LINE('L78',#235,#236);
#238 = CARTESIAN_POINT('P79',(790.0,0.0,0.0));
#239 = CARTESIAN_POINT('P79b',(798.0,0.0,0.0));
#240 = LINE('L79',#238,#239);
#241 = CARTESIAN_POINT('P80',(800.0,0.0,0.0));
#242 = CARTESIAN_POINT('P80b',(808.0,0.0,0.0));
#243 = LINE('L80',#241,#242);
#244 = CARTESIAN_POINT('P81',(810.0,0.0,0.0));
#245 = CARTESIAN_POINT('P81b',(818.0,0.0,0.0));
#246 = LINE('L81',#244,#245);
#247 = CARTESIAN_POINT('P82',(820.0,0.0,0.0));
#248 = CARTESIAN_POINT('P82b',(828.0,0.0,0.0));
#249 = LINE('L82',#247,#248);
#250 = CARTESIAN_POINT('P83',(830.0,0.0,0.0));
#251 = CARTESIAN_POINT('P83b',(838.0,0.0,0.0));
#252 = LINE('L83',#250,#251);
#253 = CARTESIAN_POINT('P84',(840.0,0.0,0.0));
#254 = CARTESIAN_POINT('P84b',(848.0,0.0,0.0));
#255 = LINE('L84',#253,#254);
#256 = CARTESIAN_POINT('P85',(850.0,0.0,0.0));
#257 = CARTESIAN_POINT('P85b',(858.0,0.0,0.0));
#258 = LINE('L85',#256,#257);
#259 = CARTESIAN_POINT('P86',(860.0,0.0,0.0));
#260 = CARTESIAN_POINT('P86b',(868.0,0.0,0.0));
#261 = LINE('L86',#259,#260);
#262 = CARTESIAN_POINT('P87',(870.0,0.0,0.0));
#263 = CARTESIAN_POINT('P87b',(878.0,0.0,0.0));
#264 = LINE('L87',#262,#263);
#265 = CARTESIAN_POINT('P88',(880.0,0.0,0.0));
#266 = CARTESIAN_POINT('P88b',(888.0,0.0,0.0));
#267 = LINE('L88',#265,#266);
#268 = CARTESIAN_POINT('P89',(890.0,0.0,0.0));
#269 = CARTESIAN_POINT('P89b',(898.0,0.0,0.0));
#270 = LINE('L89',#268,#269);
#271 = CARTESIAN_POINT('P90',(900.0,0.0,0.0));
#272 = CARTESIAN_POINT('P90b',(908.0,0.0,0.0));
#273 = LINE('L90',#271,#272);
#274 = CARTESIAN_POINT('P91',(910.0,0.0,0.0));
#275 = CARTESIAN_POINT('P91b',(918.0,0.0,0.0));
#276 = LINE('L91',#274,#275);
#277 = CARTESIAN_POINT('P92',(920.0,0.0,0.0));
#278 = CARTESIAN_POINT('P92b',(928.0,0.0,0.0));
#279 = LINE('L92',#277,#278);
#280 = CARTESIAN_POINT('P93',(930.0,0.0,0.0));
#281 = CARTESIAN_POINT('P93b',(938.0,0.0,0.0));
#282 = LINE('L93',#280,#281);
#283 = CARTESIAN_POINT('P94',(940.0,0.0,0.0));
#284 = CARTESIAN_POINT('P94b',(948.0,0.0,0.0));
#285 = LINE('L94',#283,#284);
#286 = CARTESIAN_POINT('P95',(950.0,0.0,0.0));
#287 = CARTESIAN_POINT('P95b',(958.0,0.0,0.0));
#288 = LINE('L95',#286,#287);
#289 = CARTESIAN_POINT('P96',(960.0,0.0,0.0));
#290 = CARTESIAN_POINT('P96b',(968.0,0.0,0.0));
#291 = LINE('L96',#289,#290);
#292 = CARTESIAN_POINT('P97',(970.0,0.0,0.0));
#293 = CARTESIAN_POINT('P97b',(978.0,0.0,0.0));
#294 = LINE('L97',#292,#293);
#295 = CARTESIAN_POINT('P98',(980.0,0.0,0.0));
#296 = CARTESIAN_POINT('P98b',(988.0,0.0,0.0));
#297 = LINE('L98',#295,#296);
#298 = CARTESIAN_POINT('P99',(990.0,0.0,0.0));
#299 = CARTESIAN_POINT('P99b',(998.0,0.0,0.0));
#300 = LINE('L99',#298,#299);
#301 = CARTESIAN_POINT('P100',(1000.0,0.0,0.0));
#302 = CARTESIAN_POINT('P100b',(1008.0,0.0,0.0));
#303 = LINE('L100',#301,#302);
#304 = CARTESIAN_POINT('P101',(1010.0,0.0,0.0));
#305 = CARTESIAN_POINT('P101b',(1018.0,0.0,0.0));
#306 = LINE('L101',#304,#305);
#307 = CARTESIAN_POINT('P102',(1020.0,0.0,0.0));
#308 = CARTESIAN_POINT('P102b',(1028.0,0.0,0.0));
#309 = LINE('L102',#307,#308);
#310 = CARTESIAN_POINT('P103',(1030.0,0.0,0.0));
#311 = CARTESIAN_POINT('P103b',(1038.0,0.0,0.0));
#312 = LINE('L103',#310,#311);
#313 = CARTESIAN_POINT('P104',(1040.0,0.0,0.0));
#314 = CARTESIAN_POINT('P104b',(1048.0,0.0,0.0));
#315 = LINE('L104',#313,#314);
#316 = CARTESIAN_POINT('P105',(1050.0,0.0,0.0));
#317 = CARTESIAN_POINT('P105b',(1058.0,0.0,0.0));
#318 = LINE('L105',#316,#317);
#319 = CARTESIAN_POINT('P106',(1060.0,0.0,0.0));
#320 = CARTESIAN_POINT('P106b',(1068.0,0.0,0.0));
#321 = LINE('L106',#319,#320);
#322 = CARTESIAN_POINT('P107',(1070.0,0.0,0.0));
#323 = CARTESIAN_POINT('P107b',(1078.0,0.0,0.0));
#324 = LINE('L107',#322,#323);
#325 = CARTESIAN_POINT('P108',(1080.0,0.0,0.0));
#326 = CARTESIAN_POINT('P108b',(1088.0,0.0,0.0));
#327 = LINE('L108',#325,#326);
#328 = CARTESIAN_POINT('P109',(1090.0,0.0,0.0));
#329 = CARTESIAN_POINT('P109b',(1098.0,0.0,0.0));
#330 = LINE('L109',#328,#329);
#331 = CARTESIAN_POINT('P110',(1100.0,0.0,0.0));
#332 = CARTESIAN_POINT('P110b',(1108.0,0.0,0.0));
#333 = LINE('L110',#331,#332);
#334 = CARTESIAN_POINT('P111',(1110.0,0.0,0.0));
#335 = CARTESIAN_POINT('P111b',(1118.0,0.0,0.0));
#336 = LINE('L111',#334,#335);
#337 = CARTESIAN_POINT('P112',(1120.0,0.0,0.0));
#338 = CARTESIAN_POINT('P112b',(1128.0,0.0,0.0));
#339 = LINE('L112',#337,#338);
#340 = CARTESIAN_POINT('P113',(1130.0,0.0,0.0));
#341 = CARTESIAN_POINT('P113b',(1138.0,0.0,0.0));
#342 = LINE('L113',#340,#341);
#343 = CARTESIAN_POINT('P114',(1140.0,0.0,0.0));
#344 = CARTESIAN_POINT('P114b',(1148.0,0.0,0.0));
#345 = LINE('L114',#343,#344);
#346 = CARTESIAN_POINT('P115',(1150.0,0.0,0.0));
#347 = CARTESIAN_POINT('P115b',(1158.0,0.0,0.0));
#348 = LINE('L115',#346,#347);
#349 = CARTESIAN_POINT('P116',(1160.0,0.0,0.0));
#350 = CARTESIAN_POINT('P116b',(1168.0,0.0,0.0));
#351 = LINE('L116',#349,#350);
#352 = CARTESIAN_POINT('P117',(1170.0,0.0,0.0));
#353 = CARTESIAN_POINT('P117b',(1178.0,0.0,0.0));
#354 = LINE('L117',#352,#353);
#355 = CARTESIAN_POINT('P118',(1180.0,0.0,0.0));
#356 = CARTESIAN_POINT('P118b',(1188.0,0.0,0.0));
#357 = LINE('L118',#355,#356);
#358 = CARTESIAN_POINT('P119',(1190.0,0.0,0.0));
#359 = CARTESIAN_POINT('P119b',(1198.0,0.0,0.0));
#360 = LINE('L119',#358,#359);
#361 = CARTESIAN_POINT('P120',(1200.0,0.0,0.0));
#362 = CARTESIAN_POINT('P120b',(1208.0,0.0,0.0));
#363 = LINE('L120',#361,#362);
#364 = CARTESIAN_POINT('P121',(1210.0,0.0,0.0));
#365 = CARTESIAN_POINT('P121b',(1218.0,0.0,0.0));
#366 = LINE('L121',#364,#365);
#367 = CARTESIAN_POINT('P122',(1220.0,0.0,0.0));
#368 = CARTESIAN_POINT('P122b',(1228.0,0.0,0.0));
#369 = LINE('L122',#367,#368);
#370 = CARTESIAN_POINT('P123',(1230.0,0.0,0.0));
#371 = CARTESIAN_POINT('P123b',(1238.0,0.0,0.0));
#372 = LINE('L123',#370,#371);
#373 = CARTESIAN_POINT('P124',(1240.0,0.0,0.0));
#374 = CARTESIAN_POINT('P124b',(1248.0,0.0,0.0));
#375 = LINE('L124',#373,#374);
#376 = CARTESIAN_POINT('P125',(1250.0,0.0,0.0));
#377 = CARTESIAN_POINT('P125b',(1258.0,0.0,0.0));
#378 = LINE('L125',#376,#377);
#379 = CARTESIAN_POINT('P126',(1260.0,0.0,0.0));
#380 = CARTESIAN_POINT('P126b',(1268.0,0.0,0.0));
#381 = LINE('L126',#379,#380);
#382 = CARTESIAN_POINT('P127',(1270.0,0.0,0.0));
#383 = CARTESIAN_POINT('P127b',(1278.0,0.0,0.0));
#384 = LINE('L127',#382,#383);
#385 = CARTESIAN_POINT('P128',(1280.0,0.0,0.0));
#386 = CARTESIAN_POINT('P128b',(1288.0,0.0,0.0));
#387 = LINE('L128',#385,#386);
#388 = CARTESIAN_POINT('P129',(1290.0,0.0,0.0));
#389 = CARTESIAN_POINT('P129b',(1298.0,0.0,0.0));
#390 = LINE('L129',#388,#389);
#391 = CARTESIAN_POINT('P130',(1300.0,0.0,0.0));
#392 = CARTESIAN_POINT('P130b',(1308.0,0.0,0.0));
#393 = LINE('L130',#391,#392);
#394 = CARTESIAN_POINT('P131',(1310.0,0.0,0.0));
#395 = CARTESIAN_POINT('P131b',(1318.0,0.0,0.0));
#396 = LINE('L131',#394,#395);
#397 = CARTESIAN_POINT('P132',(1320.0,0.0,0.0));
#398 = CARTESIAN_POINT('P132b',(1328.0,0.0,0.0));
#399 = LINE('L132',#397,#398);
#400 = CARTESIAN_POINT('P133',(1330.0,0.0,0.0));
#401 = CARTESIAN_POINT('P133b',(1338.0,0.0,0.0));
#402 = LINE('L133',#400,#401);
#403 = CARTESIAN_POINT('P134',(1340.0,0.0,0.0));
#404 = CARTESIAN_POINT('P134b',(1348.0,0.0,0.0));
#405 = LINE('L134',#403,#404);
#406 = CARTESIAN_POINT('P135',(1350.0,0.0,0.0));
#407 = CARTESIAN_POINT('P135b',(1358.0,0.0,0.0));
#408 = LINE('L135',#406,#407);
#409 = CARTESIAN_POINT('P136',(1360.0,0.0,0.0));
#410 = CARTESIAN_POINT('P136b',(1368.0,0.0,0.0));
#411 = LINE('L136',#409,#410);
#412 = CARTESIAN_POINT('P137',(1370.0,0.0,0.0));
#413 = CARTESIAN_POINT('P137b',(1378.0,0.0,0.0));
#414 = LINE('L137',#412,#413);
#415 = CARTESIAN_POINT('P138',(1380.0,0.0,0.0));
#416 = CARTESIAN_POINT('P138b',(1388.0,0.0,0.0));
#417 = LINE('L138',#415,#416);
#418 = CARTESIAN_POINT('P139',(1390.0,0.0,0.0));
#419 = CARTESIAN_POINT('P139b',(1398.0,0.0,0.0));
#420 = LINE('L139',#418,#419);
#421 = CARTESIAN_POINT('P140',(1400.0,0.0,0.0));
#422 = CARTESIAN_POINT('P140b',(1408.0,0.0,0.0));
#423 = LINE('L140',#421,#422);
#424 = CARTESIAN_POINT('P141',(1410.0,0.0,0.0));
#425 = CARTESIAN_POINT('P141b',(1418.0,0.0,0.0));
#426 = LINE('L141',#424,#425);
#427 = CARTESIAN_POINT('P142',(1420.0,0.0,0.0));
#428 = CARTESIAN_POINT('P142b',(1428.0,0.0,0.0));
#429 = LINE('L142',#427,#428);
#430 = CARTESIAN_POINT('P143',(1430.0,0.0,0.0));
#431 = CARTESIAN_POINT('P143b',(1438.0,0.0,0.0));
#432 = LINE('L143',#430,#431);
#433 = CARTESIAN_POINT('P144',(1440.0,0.0,0.0));
#434 = CARTESIAN_POINT('P144b',(1448.0,0.0,0.0));
#435 = LINE('L144',#433,#434);
#436 = CARTESIAN_POINT('P145',(1450.0,0.0,0.0));
#437 = CARTESIAN_POINT('P145b',(1458.0,0.0,0.0));
#438 = LINE('L145',#436,#437);
#439 = CARTESIAN_POINT('P146',(1460.0,0.0,0.0));
#440 = CARTESIAN_POINT('P146b',(1468.0,0.0,0.0));
#441 = LINE('L146',#439,#440);
#442 = CARTESIAN_POINT('P147',(1470.0,0.0,0.0));
#443 = CARTESIAN_POINT('P147b',(1478.0,0.0,0.0));
#444 = LINE('L147',#442,#443);
#445 = CARTESIAN_POINT('P148',(1480.0,0.0,0.0));
#446 = CARTESIAN_POINT('P148b',(1488.0,0.0,0.0));
#447 = LINE('L148',#445,#446);
#448 = CARTESIAN_POINT('P149',(1490.0,0.0,0.0));
#449 = CARTESIAN_POINT('P149b',(1498.0,0.0,0.0));
#450 = LINE('L149',#448,#449);
#451 = CARTESIAN_POINT('P150',(1500.0,0.0,0.0));
#452 = CARTESIAN_POINT('P150b',(1508.0,0.0,0.0));
#453 = LINE('L150',#451,#452);
#454 = CARTESIAN_POINT('P151',(1510.0,0.0,0.0));
#455 = CARTESIAN_POINT('P151b',(1518.0,0.0,0.0));
#456 = LINE('L151',#454,#455);
#457 = CARTESIAN_POINT('P152',(1520.0,0.0,0.0));
#458 = CARTESIAN_POINT('P152b',(1528.0,0.0,0.0));
#459 = LINE('L152',#457,#458);
#460 = CARTESIAN_POINT('P153',(1530.0,0.0,0.0));
#461 = CARTESIAN_POINT('P153b',(1538.0,0.0,0.0));
#462 = LINE('L153',#460,#461);
#463 = CARTESIAN_POINT('P154',(1540.0,0.0,0.0));
#464 = CARTESIAN_POINT('P154b',(1548.0,0.0,0.0));
#465 = LINE('L154',#463,#464);
#466 = CARTESIAN_POINT('P155',(1550.0,0.0,0.0));
#467 = CARTESIAN_POINT('P155b',(1558.0,0.0,0.0));
#468 = LINE('L155',#466,#467);
#469 = CARTESIAN_POINT('P156',(1560.0,0.0,0.0));
#470 = CARTESIAN_POINT('P156b',(1568.0,0.0,0.0));
#471 = LINE('L156',#469,#470);
#472 = CARTESIAN_POINT('P157',(1570.0,0.0,0.0));
#473 = CARTESIAN_POINT('P157b',(1578.0,0.0,0.0));
#474 = LINE('L157',#472,#473);
#475 = CARTESIAN_POINT('P158',(1580.0,0.0,0.0));
#476 = CARTESIAN_POINT('P158b',(1588.0,0.0,0.0));
#477 = LINE('L158',#475,#476);
#478 = CARTESIAN_POINT('P159',(1590.0,0.0,0.0));
#479 = CARTESIAN_POINT('P159b',(1598.0,0.0,0.0));
#480 = LINE('L159',#478,#479);
#481 = CARTESIAN_POINT('P160',(1600.0,0.0,0.0));
#482 = CARTESIAN_POINT('P160b',(1608.0,0.0,0.0));
#483 = LINE('L160',#481,#482);
#484 = CARTESIAN_POINT('P161',(1610.0,0.0,0.0));
#485 = CARTESIAN_POINT('P161b',(1618.0,0.0,0.0));
#486 = LINE('L161',#484,#485);
#487 = CARTESIAN_POINT('P162',(1620.0,0.0,0.0));
#488 = CARTESIAN_POINT('P162b',(1628.0,0.0,0.0));
#489 = LINE('L162',#487,#488);
#490 = CARTESIAN_POINT('P163',(1630.0,0.0,0.0));
#491 = CARTESIAN_POINT('P163b',(1638.0,0.0,0.0));
#492 = LINE('L163',#490,#491);
#493 = CARTESIAN_POINT('P164',(1640.0,0.0,0.0));
#494 = CARTESIAN_POINT('P164b',(1648.0,0.0,0.0));
#495 = LINE('L164',#493,#494);
#496 = CARTESIAN_POINT('P165',(1650.0,0.0,0.0));
#497 = CARTESIAN_POINT('P165b',(1658.0,0.0,0.0));
#498 = LINE('L165',#496,#497);
#499 = CARTESIAN_POINT('P166',(1660.0,0.0,0.0));
#500 = CARTESIAN_POINT('P166b',(1668.0,0.0,0.0));
#501 = LINE('L166',#499,#500);
#502 = CARTESIAN_POINT('P167',(1670.0,0.0,0.0));
#503 = CARTESIAN_POINT('P167b',(1678.0,0.0,0.0));
#504 = LINE('L167',#502,#503);
#505 = CARTESIAN_POINT('P168',(1680.0,0.0,0.0));
#506 = CARTESIAN_POINT('P168b',(1688.0,0.0,0.0));
#507 = LINE('L168',#505,#506);
#508 = CARTESIAN_POINT('P169',(1690.0,0.0,0.0));
#509 = CARTESIAN_POINT('P169b',(1698.0,0.0,0.0));
#510 = LINE('L169',#508,#509);
#511 = CARTESIAN_POINT('P170',(1700.0,0.0,0.0));
#512 = CARTESIAN_POINT('P170b',(1708.0,0.0,0.0));
#513 = LINE('L170',#511,#512);
#514 = CARTESIAN_POINT('P171',(1710.0,0.0,0.0));
#515 = CARTESIAN_POINT('P171b',(1718.0,0.0,0.0));
#516 = LINE('L171',#514,#515);
#517 = CARTESIAN_POINT('P172',(1720.0,0.0,0.0));
#518 = CARTESIAN_POINT('P172b',(1728.0,0.0,0.0));
#519 = LINE('L172',#517,#518);
#520 = CARTESIAN_POINT('P173',(1730.0,0.0,0.0));
#521 = CARTESIAN_POINT('P173b',(1738.0,0.0,0.0));
#522 = LINE('L173',#520,#521);
#523 = CARTESIAN_POINT('P174',(1740.0,0.0,0.0));
#524 = CARTESIAN_POINT('P174b',(1748.0,0.0,0.0));
#525 = LINE('L174',#523,#524);
#526 = CARTESIAN_POINT('P175',(1750.0,0.0,0.0));
#527 = CARTESIAN_POINT('P175b',(1758.0,0.0,0.0));
#528 = LINE('L175',#526,#527);
#529 = CARTESIAN_POINT('P176',(1760.0,0.0,0.0));
#530 = CARTESIAN_POINT('P176b',(1768.0,0.0,0.0));
#531 = LINE('L176',#529,#530);
#532 = CARTESIAN_POINT('P177',(1770.0,0.0,0.0));
#533 = CARTESIAN_POINT('P177b',(1778.0,0.0,0.0));
#534 = LINE('L177',#532,#533);
#535 = CARTESIAN_POINT('P178',(1780.0,0.0,0.0));
#536 = CARTESIAN_POINT('P178b',(1788.0,0.0,0.0));
#537 = LINE('L178',#535,#536);
#538 = CARTESIAN_POINT('P179',(1790.0,0.0,0.0));
#539 = CARTESIAN_POINT('P179b',(1798.0,0.0,0.0));
#540 = LINE('L179',#538,#539);
#541 = CARTESIAN_POINT('P180',(1800.0,0.0,0.0));
#542 = CARTESIAN_POINT('P180b',(1808.0,0.0,0.0));
#543 = LINE('L180',#541,#542);
#544 = CARTESIAN_POINT('P181',(1810.0,0.0,0.0));
#545 = CARTESIAN_POINT('P181b',(1818.0,0.0,0.0));
#546 = LINE('L181',#544,#545);
#547 = CARTESIAN_POINT('P182',(1820.0,0.0,0.0));
#548 = CARTESIAN_POINT('P182b',(1828.0,0.0,0.0));
#549 = LINE('L182',#547,#548);
#550 = CARTESIAN_POINT('P183',(1830.0,0.0,0.0));
#551 = CARTESIAN_POINT('P183b',(1838.0,0.0,0.0));
#552 = LINE('L183',#550,#551);
#553 = CARTESIAN_POINT('P184',(1840.0,0.0,0.0));
#554 = CARTESIAN_POINT('P184b',(1848.0,0.0,0.0));
#555 = LINE('L184',#553,#554);
#556 = CARTESIAN_POINT('P185',(1850.0,0.0,0.0));
#557 = CARTESIAN_POINT('P185b',(1858.0,0.0,0.0));
#558 = LINE('L185',#556,#557);
#559 = CARTESIAN_POINT('P186',(1860.0,0.0,0.0));
#560 = CARTESIAN_POINT('P186b',(1868.0,0.0,0.0));
#561 = LINE('L186',#559,#560);
#562 = CARTESIAN_POINT('P187',(1870.0,0.0,0.0));
#563 = CARTESIAN_POINT('P187b',(1878.0,0.0,0.0));
#564 = LINE('L187',#562,#563);
#565 = CARTESIAN_POINT('P188',(1880.0,0.0,0.0));
#566 = CARTESIAN_POINT('P188b',(1888.0,0.0,0.0));
#567 = LINE('L188',#565,#566);
#568 = CARTESIAN_POINT('P189',(1890.0,0.0,0.0));
#569 = CARTESIAN_POINT('P189b',(1898.0,0.0,0.0));
#570 = LINE('L189',#568,#569);
#571 = CARTESIAN_POINT('P190',(1900.0,0.0,0.0));
#572 = CARTESIAN_POINT('P190b',(1908.0,0.0,0.0));
#573 = LINE('L190',#571,#572);
#574 = CARTESIAN_POINT('P191',(1910.0,0.0,0.0));
#575 = CARTESIAN_POINT('P191b',(1918.0,0.0,0.0));
#576 = LINE('L191',#574,#575);
#577 = CARTESIAN_POINT('P192',(1920.0,0.0,0.0));
#578 = CARTESIAN_POINT('P192b',(1928.0,0.0,0.0));
#579 = LINE('L192',#577,#578);
#580 = CARTESIAN_POINT('P193',(1930.0,0.0,0.0));
#581 = CARTESIAN_POINT('P193b',(1938.0,0.0,0.0));
#582 = LINE('L193',#580,#581);
#583 = CARTESIAN_POINT('P194',(1940.0,0.0,0.0));
#584 = CARTESIAN_POINT('P194b',(1948.0,0.0,0.0));
#585 = LINE('L194',#583,#584);
#586 = CARTESIAN_POINT('P195',(1950.0,0.0,0.0));
#587 = CARTESIAN_POINT('P195b',(1958.0,0.0,0.0));
#588 = LINE('L195',#586,#587);
#589 = CARTESIAN_POINT('P196',(1960.0,0.0,0.0));
#590 = CARTESIAN_POINT('P196b',(1968.0,0.0,0.0));
#591 = LINE('L196',#589,#590);
#592 = CARTESIAN_POINT('P197',(1970.0,0.0,0.0));
#593 = CARTESIAN_POINT('P197b',(1978.0,0.0,0.0));
#594 = LINE('L197',#592,#593);
#595 = CARTESIAN_POINT('P198',(1980.0,0.0,0.0));
#596 = CARTESIAN_POINT('P198b',(1988.0,0.0,0.0));
#597 = LINE('L198',#595,#596);
#598 = CARTESIAN_POINT('P199',(1990.0,0.0,0.0));
#599 = CARTESIAN_POINT('P199b',(1998.0,0.0,0.0));
#600 = LINE('L199',#598,#599);
#601 = CARTESIAN_POINT('P200',(2000.0,0.0,0.0));
#602 = CARTESIAN_POINT('P200b',(2008.0,0.0,0.0));
#603 = LINE('L200',#601,#602);
#604 = CARTESIAN_POINT('P201',(2010.0,0.0,0.0));
#605 = CARTESIAN_POINT('P201b',(2018.0,0.0,0.0));
#606 = LINE('L201',#604,#605);
#607 = CARTESIAN_POINT('P202',(2020.0,0.0,0.0));
#608 = CARTESIAN_POINT('P202b',(2028.0,0.0,0.0));
#609 = LINE('L202',#607,#608);
#610 = CARTESIAN_POINT('P203',(2030.0,0.0,0.0));
#611 = CARTESIAN_POINT('P203b',(2038.0,0.0,0.0));
#612 = LINE('L203',#610,#611);
#613 = CARTESIAN_POINT('P204',(2040.0,0.0,0.0));
#614 = CARTESIAN_POINT('P204b',(2048.0,0.0,0.0));
#615 = LINE('L204',#613,#614);
#616 = CARTESIAN_POINT('P205',(2050.0,0.0,0.0));
#617 = CARTESIAN_POINT('P205b',(2058.0,0.0,0.0));
#618 = LINE('L205',#616,#617);
#619 = CARTESIAN_POINT('P206',(2060.0,0.0,0.0));
#620 = CARTESIAN_POINT('P206b',(2068.0,0.0,0.0));
#621 = LINE('L206',#619,#620);
#622 = CARTESIAN_POINT('P207',(2070.0,0.0,0.0));
#623 = CARTESIAN_POINT('P207b',(2078.0,0.0,0.0));
#624 = LINE('L207',#622,#623);
#625 = CARTESIAN_POINT('P208',(2080.0,0.0,0.0));
#626 = CARTESIAN_POINT('P208b',(2088.0,0.0,0.0));
#627 = LINE('L208',#625,#626);
#628 = CARTESIAN_POINT('P209',(2090.0,0.0,0.0));
#629 = CARTESIAN_POINT('P209b',(2098.0,0.0,0.0));
#630 = LINE('L209',#628,#629);
#631 = CARTESIAN_POINT('P210',(2100.0,0.0,0.0));
#632 = CARTESIAN_POINT('P210b',(2108.0,0.0,0.0));
#633 = LINE('L210',#631,#632);
#634 = CARTESIAN_POINT('P211',(2110.0,0.0,0.0));
#635 = CARTESIAN_POINT('P211b',(2118.0,0.0,0.0));
#636 = LINE('L211',#634,#635);
#637 = CARTESIAN_POINT('P212',(2120.0,0.0,0.0));
#638 = CARTESIAN_POINT('P212b',(2128.0,0.0,0.0));
#639 = LINE('L212',#637,#638);
#640 = CARTESIAN_POINT('P213',(2130.0,0.0,0.0));
#641 = CARTESIAN_POINT('P213b',(2138.0,0.0,0.0));
#642 = LINE('L213',#640,#641);
#643 = CARTESIAN_POINT('P214',(2140.0,0.0,0.0));
#644 = CARTESIAN_POINT('P214b',(2148.0,0.0,0.0));
#645 = LINE('L214',#643,#644);
#646 = CARTESIAN_POINT('P215',(2150.0,0.0,0.0));
#647 = CARTESIAN_POINT('P215b',(2158.0,0.0,0.0));
#648 = LINE('L215',#646,#647);
#649 = CARTESIAN_POINT('P216',(2160.0,0.0,0.0));
#650 = CARTESIAN_POINT('P216b',(2168.0,0.0,0.0));
#651 = LINE('L216',#649,#650);
#652 = CARTESIAN_POINT('P217',(2170.0,0.0,0.0));
#653 = CARTESIAN_POINT('P217b',(2178.0,0.0,0.0));
#654 = LINE('L217',#652,#653);
#655 = CARTESIAN_POINT('P218',(2180.0,0.0,0.0));
#656 = CARTESIAN_POINT('P218b',(2188.0,0.0,0.0));
#657 = LINE('L218',#655,#656);
#658 = CARTESIAN_POINT('P219',(2190.0,0.0,0.0));
#659 = CARTESIAN_POINT('P219b',(2198.0,0.0,0.0));
#660 = LINE('L219',#658,#659);
#661 = CARTESIAN_POINT('P220',(2200.0,0.0,0.0));
#662 = CARTESIAN_POINT('P220b',(2208.0,0.0,0.0));
#663 = LINE('L220',#661,#662);
#664 = CARTESIAN_POINT('P221',(2210.0,0.0,0.0));
#665 = CARTESIAN_POINT('P221b',(2218.0,0.0,0.0));
#666 = LINE('L221',#664,#665);
#667 = CARTESIAN_POINT('P222',(2220.0,0.0,0.0));
#668 = CARTESIAN_POINT('P222b',(2228.0,0.0,0.0));
#669 = LINE('L222',#667,#668);
#670 = CARTESIAN_POINT('P223',(2230.0,0.0,0.0));
#671 = CARTESIAN_POINT('P223b',(2238.0,0.0,0.0));
#672 = LINE('L223',#670,#671);
#673 = CARTESIAN_POINT('P224',(2240.0,0.0,0.0));
#674 = CARTESIAN_POINT('P224b',(2248.0,0.0,0.0));
#675 = LINE('L224',#673,#674);
#676 = CARTESIAN_POINT('P225',(2250.0,0.0,0.0));
#677 = CARTESIAN_POINT('P225b',(2258.0,0.0,0.0));
#678 = LINE('L225',#676,#677);
#679 = CARTESIAN_POINT('P226',(2260.0,0.0,0.0));
#680 = CARTESIAN_POINT('P226b',(2268.0,0.0,0.0));
#681 = LINE('L226',#679,#680);
#682 = CARTESIAN_POINT('P227',(2270.0,0.0,0.0));
#683 = CARTESIAN_POINT('P227b',(2278.0,0.0,0.0));
#684 = LINE('L227',#682,#683);
#685 = CARTESIAN_POINT('P228',(2280.0,0.0,0.0));
#686 = CARTESIAN_POINT('P228b',(2288.0,0.0,0.0));
#687 = LINE('L228',#685,#686);
#688 = CARTESIAN_POINT('P229',(2290.0,0.0,0.0));
#689 = CARTESIAN_POINT('P229b',(2298.0,0.0,0.0));
#690 = LINE('L229',#688,#689);
#691 = CARTESIAN_POINT('P230',(2300.0,0.0,0.0));
#692 = CARTESIAN_POINT('P230b',(2308.0,0.0,0.0));
#693 = LINE('L230',#691,#692);
#694 = CARTESIAN_POINT('P231',(2310.0,0.0,0.0));
#695 = CARTESIAN_POINT('P231b',(2318.0,0.0,0.0));
#696 = LINE('L231',#694,#695);
#697 = CARTESIAN_POINT('P232',(2320.0,0.0,0.0));
#698 = CARTESIAN_POINT('P232b',(2328.0,0.0,0.0));
#699 = LINE('L232',#697,#698);
#700 = CARTESIAN_POINT('P233',(2330.0,0.0,0.0));
#701 = CARTESIAN_POINT('P233b',(2338.0,0.0,0.0));
#702 = LINE('L233',#700,#701);
#703 = CARTESIAN_POINT('P234',(2340.0,0.0,0.0));
#704 = CARTESIAN_POINT('P234b',(2348.0,0.0,0.0));
#705 = LINE('L234',#703,#704);
#706 = CARTESIAN_POINT('P235',(2350.0,0.0,0.0));
#707 = CARTESIAN_POINT('P235b',(2358.0,0.0,0.0));
#708 = LINE('L235',#706,#707);
#709 = CARTESIAN_POINT('P236',(2360.0,0.0,0.0));
#710 = CARTESIAN_POINT('P236b',(2368.0,0.0,0.0));
#711 = LINE('L236',#709,#710);
#712 = CARTESIAN_POINT('P237',(2370.0,0.0,0.0));
#713 = CARTESIAN_POINT('P237b',(2378.0,0.0,0.0));
#714 = LINE('L237',#712,#713);
#715 = CARTESIAN_POINT('P238',(2380.0,0.0,0.0));
#716 = CARTESIAN_POINT('P238b',(2388.0,0.0,0.0));
#717 = LINE('L238',#715,#716);
#718 = CARTESIAN_POINT('P239',(2390.0,0.0,0.0));
#719 = CARTESIAN_POINT('P239b',(2398.0,0.0,0.0));
#720 = LINE('L239',#718,#719);
#721 = CARTESIAN_POINT('P240',(2400.0,0.0,0.0));
#722 = CARTESIAN_POINT('P240b',(2408.0,0.0,0.0));
#723 = LINE('L240',#721,#722);
#724 = CARTESIAN_POINT('P241',(2410.0,0.0,0.0));
#725 = CARTESIAN_POINT('P241b',(2418.0,0.0,0.0));
#726 = LINE('L241',#724,#725);
#727 = CARTESIAN_POINT('P242',(2420.0,0.0,0.0));
#728 = CARTESIAN_POINT('P242b',(2428.0,0.0,0.0));
#729 = LINE('L242',#727,#728);
#730 = CARTESIAN_POINT('P243',(2430.0,0.0,0.0));
#731 = CARTESIAN_POINT('P243b',(2438.0,0.0,0.0));
#732 = LINE('L243',#730,#731);
#733 = CARTESIAN_POINT('P244',(2440.0,0.0,0.0));
#734 = CARTESIAN_POINT('P244b',(2448.0,0.0,0.0));
#735 = LINE('L244',#733,#734);
#736 = CARTESIAN_POINT('P245',(2450.0,0.0,0.0));
#737 = CARTESIAN_POINT('P245b',(2458.0,0.0,0.0));
#738 = LINE('L245',#736,#737);
#739 = CARTESIAN_POINT('P246',(2460.0,0.0,0.0));
#740 = CARTESIAN_POINT('P246b',(2468.0,0.0,0.0));
#741 = LINE('L246',#739,#740);
#742 = CARTESIAN_POINT('P247',(2470.0,0.0,0.0));
#743 = CARTESIAN_POINT('P247b',(2478.0,0.0,0.0));
#744 = LINE('L247',#742,#743);
#745 = CARTESIAN_POINT('P248',(2480.0,0.0,0.0));
#746 = CARTESIAN_POINT('P248b',(2488.0,0.0,0.0));
#747 = LINE('L248',#745,#746);
#748 = CARTESIAN_POINT('P249',(2490.0,0.0,0.0));
#749 = CARTESIAN_POINT('P249b',(2498.0,0.0,0.0));
#750 = LINE('L249',#748,#749);
#751 = CARTESIAN_POINT('P250',(2500.0,0.0,0.0));
#752 = CARTESIAN_POINT('P250b',(2508.0,0.0,0.0));
#753 = LINE('L250',#751,#752);
#754 = CARTESIAN_POINT('P251',(2510.0,0.0,0.0));
#755 = CARTESIAN_POINT('P251b',(2518.0,0.0,0.0));
#756 = LINE('L251',#754,#755);
#757 = CARTESIAN_POINT('P252',(2520.0,0.0,0.0));
#758 = CARTESIAN_POINT('P252b',(2528.0,0.0,0.0));
#759 = LINE('L252',#757,#758);
#760 = CARTESIAN_POINT('P253',(2530.0,0.0,0.0));
#761 = CARTESIAN_POINT('P253b',(2538.0,0.0,0.0));
#762 = LINE('L253',#760,#761);
#763 = CARTESIAN_POINT('P254',(2540.0,0.0,0.0));
#764 = CARTESIAN_POINT('P254b',(2548.0,0.0,0.0));
#765 = LINE('L254',#763,#764);
#766 = CARTESIAN_POINT('P255',(2550.0,0.0,0.0));
#767 = CARTESIAN_POINT('P255b',(2558.0,0.0,0.0));
#768 = LINE('L255',#766,#767);
#769 = CARTESIAN_POINT('P256',(2560.0,0.0,0.0));
#770 = CARTESIAN_POINT('P256b',(2568.0,0.0,0.0));
#771 = LINE('L256',#769,#770);
#772 = CARTESIAN_POINT('P257',(2570.0,0.0,0.0));
#773 = CARTESIAN_POINT('P257b',(2578.0,0.0,0.0));
#774 = LINE('L257',#772,#773);
#775 = CARTESIAN_POINT('P258',(2580.0,0.0,0.0));
#776 = CARTESIAN_POINT('P258b',(2588.0,0.0,0.0));
#777 = LINE('L258',#775,#776);
#778 = CARTESIAN_POINT('P259',(2590.0,0.0,0.0));
#779 = CARTESIAN_POINT('P259b',(2598.0,0.0,0.0));
#780 = LINE('L259',#778,#779);
#781 = CARTESIAN_POINT('P260',(2600.0,0.0,0.0));
#782 = CARTESIAN_POINT('P260b',(2608.0,0.0,0.0));
#783 = LINE('L260',#781,#782);
#784 = CARTESIAN_POINT('P261',(2610.0,0.0,0.0));
#785 = CARTESIAN_POINT('P261b',(2618.0,0.0,0.0));
#786 = LINE('L261',#784,#785);
#787 = CARTESIAN_POINT('P262',(2620.0,0.0,0.0));
#788 = CARTESIAN_POINT('P262b',(2628.0,0.0,0.0));
#789 = LINE('L262',#787,#788);
#790 = CARTESIAN_POINT('P263',(2630.0,0.0,0.0));
#791 = CARTESIAN_POINT('P263b',(2638.0,0.0,0.0));
#792 = LINE('L263',#790,#791);
#793 = CARTESIAN_POINT('P264',(2640.0,0.0,0.0));
#794 = CARTESIAN_POINT('P264b',(2648.0,0.0,0.0));
#795 = LINE('L264',#793,#794);
#796 = CARTESIAN_POINT('P265',(2650.0,0.0,0.0));
#797 = CARTESIAN_POINT('P265b',(2658.0,0.0,0.0));
#798 = LINE('L265',#796,#797);
#799 = CARTESIAN_POINT('P266',(2660.0,0.0,0.0));
#800 = CARTESIAN_POINT('P266b',(2668.0,0.0,0.0));
#801 = LINE('L266',#799,#800);
#802 = CARTESIAN_POINT('P267',(2670.0,0.0,0.0));
#803 = CARTESIAN_POINT('P267b',(2678.0,0.0,0.0));
#804 = LINE('L267',#802,#803);
#805 = CARTESIAN_POINT('P268',(2680.0,0.0,0.0));
#806 = CARTESIAN_POINT('P268b',(2688.0,0.0,0.0));
#807 = LINE('L268',#805,#806);
#808 = CARTESIAN_POINT('P269',(2690.0,0.0,0.0));
#809 = CARTESIAN_POINT('P269b',(2698.0,0.0,0.0));
#810 = LINE('L269',#808,#809);
#811 = CARTESIAN_POINT('P270',(2700.0,0.0,0.0));
#812 = CARTESIAN_POINT('P270b',(2708.0,0.0,0.0));
#813 = LINE('L270',#811,#812);
#814 = CARTESIAN_POINT('P271',(2710.0,0.0,0.0));
#815 = CARTESIAN_POINT('P271b',(2718.0,0.0,0.0));
#816 = LINE('L271',#814,#815);
#817 = CARTESIAN_POINT('P272',(2720.0,0.0,0.0));
#818 = CARTESIAN_POINT('P272b',(2728.0,0.0,0.0));
#819 = LINE('L272',#817,#818);
#820 = CARTESIAN_POINT('P273',(2730.0,0.0,0.0));
#821 = CARTESIAN_POINT('P273b',(2738.0,0.0,0.0));
#822 = LINE('L273',#820,#821);
#823 = CARTESIAN_POINT('P274',(2740.0,0.0,0.0));
#824 = CARTESIAN_POINT('P274b',(2748.0,0.0,0.0));
#825 = LINE('L274',#823,#824);
#826 = CARTESIAN_POINT('P275',(2750.0,0.0,0.0));
#827 = CARTESIAN_POINT('P275b',(2758.0,0.0,0.0));
#828 = LINE('L275',#826,#827);
#829 = CARTESIAN_POINT('P276',(2760.0,0.0,0.0));
#830 = CARTESIAN_POINT('P276b',(2768.0,0.0,0.0));
#831 = LINE('L276',#829,#830);
#832 = CARTESIAN_POINT('P277',(2770.0,0.0,0.0));
#833 = CARTESIAN_POINT('P277b',(2778.0,0.0,0.0));
#834 = LINE('L277',#832,#833);
#835 = CARTESIAN_POINT('P278',(2780.0,0.0,0.0));
#836 = CARTESIAN_POINT('P278b',(2788.0,0.0,0.0));
#837 = LINE('L278',#835,#836);
#838 = CARTESIAN_POINT('P279',(2790.0,0.0,0.0));
#839 = CARTESIAN_POINT('P279b',(2798.0,0.0,0.0));
#840 = LINE('L279',#838,#839);
#841 = CARTESIAN_POINT('P280',(2800.0,0.0,0.0));
#842 = CARTESIAN_POINT('P280b',(2808.0,0.0,0.0));
#843 = LINE('L280',#841,#842);
#844 = CARTESIAN_POINT('P281',(2810.0,0.0,0.0));
#845 = CARTESIAN_POINT('P281b',(2818.0,0.0,0.0));
#846 = LINE('L281',#844,#845);
#847 = CARTESIAN_POINT('P282',(2820.0,0.0,0.0));
#848 = CARTESIAN_POINT('P282b',(2828.0,0.0,0.0));
#849 = LINE('L282',#847,#848);
#850 = CARTESIAN_POINT('P283',(2830.0,0.0,0.0));
#851 = CARTESIAN_POINT('P283b',(2838.0,0.0,0.0));
#852 = LINE('L283',#850,#851);
#853 = CARTESIAN_POINT('P284',(2840.0,0.0,0.0));
#854 = CARTESIAN_POINT('P284b',(2848.0,0.0,0.0));
#855 = LINE('L284',#853,#854);
#856 = CARTESIAN_POINT('P285',(2850.0,0.0,0.0));
#857 = CARTESIAN_POINT('P285b',(2858.0,0.0,0.0));
#858 = LINE('L285',#856,#857);
#859 = CARTESIAN_POINT('P286',(2860.0,0.0,0.0));
#860 = CARTESIAN_POINT('P286b',(2868.0,0.0,0.0));
#861 = LINE('L286',#859,#860);
#862 = CARTESIAN_POINT('P287',(2870.0,0.0,0.0));
#863 = CARTESIAN_POINT('P287b',(2878.0,0.0,0.0));
#864 = LINE('L287',#862,#863);
#865 = CARTESIAN_POINT('P288',(2880.0,0.0,0.0));
#866 = CARTESIAN_POINT('P288b',(2888.0,0.0,0.0));
#867 = LINE('L288',#865,#866);
#868 = CARTESIAN_POINT('P289',(2890.0,0.0,0.0));
#869 = CARTESIAN_POINT('P289b',(2898.0,0.0,0.0));
#870 = LINE('L289',#868,#869);
#871 = CARTESIAN_POINT('P290',(2900.0,0.0,0.0));
#872 = CARTESIAN_POINT('P290b',(2908.0,0.0,0.0));
#873 = LINE('L290',#871,#872);
#874 = CARTESIAN_POINT('P291',(2910.0,0.0,0.0));
#875 = CARTESIAN_POINT('P291b',(2918.0,0.0,0.0));
#876 = LINE('L291',#874,#875);
#877 = CARTESIAN_POINT('P292',(2920.0,0.0,0.0));
#878 = CARTESIAN_POINT('P292b',(2928.0,0.0,0.0));
#879 = LINE('L292',#877,#878);
#880 = CARTESIAN_POINT('P293',(2930.0,0.0,0.0));
#881 = CARTESIAN_POINT('P293b',(2938.0,0.0,0.0));
#882 = LINE('L293',#880,#881);
#883 = CARTESIAN_POINT('P294',(2940.0,0.0,0.0));
#884 = CARTESIAN_POINT('P294b',(2948.0,0.0,0.0));
#885 = LINE('L294',#883,#884);
#886 = CARTESIAN_POINT('P295',(2950.0,0.0,0.0));
#887 = CARTESIAN_POINT('P295b',(2958.0,0.0,0.0));
#888 = LINE('L295',#886,#887);
#889 = CARTESIAN_POINT('P296',(2960.0,0.0,0.0));
#890 = CARTESIAN_POINT('P296b',(2968.0,0.0,0.0));
#891 = LINE('L296',#889,#890);
#892 = CARTESIAN_POINT('P297',(2970.0,0.0,0.0));
#893 = CARTESIAN_POINT('P297b',(2978.0,0.0,0.0));
#894 = LINE('L297',#892,#893);
#895 = CARTESIAN_POINT('P298',(2980.0,0.0,0.0));
#896 = CARTESIAN_POINT('P298b',(2988.0,0.0,0.0));
#897 = LINE('L298',#895,#896);
#898 = CARTESIAN_POINT('P299',(2990.0,0.0,0.0));
#899 = CARTESIAN_POINT('P299b',(2998.0,0.0,0.0));
#900 = LINE('L299',#898,#899);
ENDSEC;
END-ISO-10303-21;
