ISO-10303-21;
HEADER;
FILE_DESCRIPTION(('Sample STEP file for GetSampleData.com'),'2;1');
FILE_NAME('sample.step','2026-08-18T00:00:00',('GetSampleData.com'),(''),'','','');
FILE_SCHEMA(('CONFIG_CONTROL_DESIGN'));
ENDSEC;
DATA;
#1 = CARTESIAN_POINT('P0',(0.0,0.0,0.0));
#2 = CARTESIAN_POINT('P0b',(8.0,0.0,0.0));
#3 = LINE('L0',#1,#2);
#4 = CARTESIAN_POINT('P1',(10.0,0.0,0.0));
#5 = CARTESIAN_POINT('P1b',(18.0,0.0,0.0));
#6 = LINE('L1',#4,#5);
#7 = CARTESIAN_POINT('P2',(20.0,0.0,0.0));
#8 = CARTESIAN_POINT('P2b',(28.0,0.0,0.0));
#9 = LINE('L2',#7,#8);
#10 = CARTESIAN_POINT('P3',(30.0,0.0,0.0));
#11 = CARTESIAN_POINT('P3b',(38.0,0.0,0.0));
#12 = LINE('L3',#10,#11);
#13 = CARTESIAN_POINT('P4',(40.0,0.0,0.0));
#14 = CARTESIAN_POINT('P4b',(48.0,0.0,0.0));
#15 = LINE('L4',#13,#14);
#16 = CARTESIAN_POINT('P5',(50.0,0.0,0.0));
#17 = CARTESIAN_POINT('P5b',(58.0,0.0,0.0));
#18 = LINE('L5',#16,#17);
#19 = CARTESIAN_POINT('P6',(60.0,0.0,0.0));
#20 = CARTESIAN_POINT('P6b',(68.0,0.0,0.0));
#21 = LINE('L6',#19,#20);
#22 = CARTESIAN_POINT('P7',(70.0,0.0,0.0));
#23 = CARTESIAN_POINT('P7b',(78.0,0.0,0.0));
#24 = LINE('L7',#22,#23);
#25 = CARTESIAN_POINT('P8',(80.0,0.0,0.0));
#26 = CARTESIAN_POINT('P8b',(88.0,0.0,0.0));
#27 = LINE('L8',#25,#26);
#28 = CARTESIAN_POINT('P9',(90.0,0.0,0.0));
#29 = CARTESIAN_POINT('P9b',(98.0,0.0,0.0));
#30 = LINE('L9',#28,#29);
#31 = CARTESIAN_POINT('P10',(100.0,0.0,0.0));
#32 = CARTESIAN_POINT('P10b',(108.0,0.0,0.0));
#33 = LINE('L10',#31,#32);
#34 = CARTESIAN_POINT('P11',(110.0,0.0,0.0));
#35 = CARTESIAN_POINT('P11b',(118.0,0.0,0.0));
#36 = LINE('L11',#34,#35);
#37 = CARTESIAN_POINT('P12',(120.0,0.0,0.0));
#38 = CARTESIAN_POINT('P12b',(128.0,0.0,0.0));
#39 = LINE('L12',#37,#38);
#40 = CARTESIAN_POINT('P13',(130.0,0.0,0.0));
#41 = CARTESIAN_POINT('P13b',(138.0,0.0,0.0));
#42 = LINE('L13',#40,#41);
#43 = CARTESIAN_POINT('P14',(140.0,0.0,0.0));
#44 = CARTESIAN_POINT('P14b',(148.0,0.0,0.0));
#45 = LINE('L14',#43,#44);
#46 = CARTESIAN_POINT('P15',(150.0,0.0,0.0));
#47 = CARTESIAN_POINT('P15b',(158.0,0.0,0.0));
#48 = LINE('L15',#46,#47);
#49 = CARTESIAN_POINT('P16',(160.0,0.0,0.0));
#50 = CARTESIAN_POINT('P16b',(168.0,0.0,0.0));
#51 = LINE('L16',#49,#50);
#52 = CARTESIAN_POINT('P17',(170.0,0.0,0.0));
#53 = CARTESIAN_POINT('P17b',(178.0,0.0,0.0));
#54 = LINE('L17',#52,#53);
#55 = CARTESIAN_POINT('P18',(180.0,0.0,0.0));
#56 = CARTESIAN_POINT('P18b',(188.0,0.0,0.0));
#57 = LINE('L18',#55,#56);
#58 = CARTESIAN_POINT('P19',(190.0,0.0,0.0));
#59 = CARTESIAN_POINT('P19b',(198.0,0.0,0.0));
#60 = LINE('L19',#58,#59);
ENDSEC;
END-ISO-10303-21;
