ISO-10303-21;
HEADER;
FILE_DESCRIPTION(('Sample STEP file for GetSampleData.com'),'2;1');
FILE_NAME('sample.step','2026-08-18T00:00:00',('GetSampleData.com'),(''),'','','');
FILE_SCHEMA(('CONFIG_CONTROL_DESIGN'));
ENDSEC;
DATA;
#1 = CARTESIAN_POINT('P0',(0.0,0.0,0.0));
#2 = CARTESIAN_POINT('P0b',(8.0,0.0,0.0));
#3 = LINE('L0',#1,#2);
#4 = CARTESIAN_POINT('P1',(10.0,0.0,0.0));
#5 = CARTESIAN_POINT('P1b',(18.0,0.0,0.0));
#6 = LINE('L1',#4,#5);
#7 = CARTESIAN_POINT('P2',(20.0,0.0,0.0));
#8 = CARTESIAN_POINT('P2b',(28.0,0.0,0.0));
#9 = LINE('L2',#7,#8);
#10 = CARTESIAN_POINT('P3',(30.0,0.0,0.0));
#11 = CARTESIAN_POINT('P3b',(38.0,0.0,0.0));
#12 = LINE('L3',#10,#11);
#13 = CARTESIAN_POINT('P4',(40.0,0.0,0.0));
#14 = CARTESIAN_POINT('P4b',(48.0,0.0,0.0));
#15 = LINE('L4',#13,#14);
#16 = CARTESIAN_POINT('P5',(50.0,0.0,0.0));
#17 = CARTESIAN_POINT('P5b',(58.0,0.0,0.0));
#18 = LINE('L5',#16,#17);
#19 = CARTESIAN_POINT('P6',(60.0,0.0,0.0));
#20 = CARTESIAN_POINT('P6b',(68.0,0.0,0.0));
#21 = LINE('L6',#19,#20);
#22 = CARTESIAN_POINT('P7',(70.0,0.0,0.0));
#23 = CARTESIAN_POINT('P7b',(78.0,0.0,0.0));
#24 = LINE('L7',#22,#23);
#25 = CARTESIAN_POINT('P8',(80.0,0.0,0.0));
#26 = CARTESIAN_POINT('P8b',(88.0,0.0,0.0));
#27 = LINE('L8',#25,#26);
#28 = CARTESIAN_POINT('P9',(90.0,0.0,0.0));
#29 = CARTESIAN_POINT('P9b',(98.0,0.0,0.0));
#30 = LINE('L9',#28,#29);
#31 = CARTESIAN_POINT('P10',(100.0,0.0,0.0));
#32 = CARTESIAN_POINT('P10b',(108.0,0.0,0.0));
#33 = LINE('L10',#31,#32);
#34 = CARTESIAN_POINT('P11',(110.0,0.0,0.0));
#35 = CARTESIAN_POINT('P11b',(118.0,0.0,0.0));
#36 = LINE('L11',#34,#35);
#37 = CARTESIAN_POINT('P12',(120.0,0.0,0.0));
#38 = CARTESIAN_POINT('P12b',(128.0,0.0,0.0));
#39 = LINE('L12',#37,#38);
#40 = CARTESIAN_POINT('P13',(130.0,0.0,0.0));
#41 = CARTESIAN_POINT('P13b',(138.0,0.0,0.0));
#42 = LINE('L13',#40,#41);
#43 = CARTESIAN_POINT('P14',(140.0,0.0,0.0));
#44 = CARTESIAN_POINT('P14b',(148.0,0.0,0.0));
#45 = LINE('L14',#43,#44);
#46 = CARTESIAN_POINT('P15',(150.0,0.0,0.0));
#47 = CARTESIAN_POINT('P15b',(158.0,0.0,0.0));
#48 = LINE('L15',#46,#47);
#49 = CARTESIAN_POINT('P16',(160.0,0.0,0.0));
#50 = CARTESIAN_POINT('P16b',(168.0,0.0,0.0));
#51 = LINE('L16',#49,#50);
#52 = CARTESIAN_POINT('P17',(170.0,0.0,0.0));
#53 = CARTESIAN_POINT('P17b',(178.0,0.0,0.0));
#54 = LINE('L17',#52,#53);
#55 = CARTESIAN_POINT('P18',(180.0,0.0,0.0));
#56 = CARTESIAN_POINT('P18b',(188.0,0.0,0.0));
#57 = LINE('L18',#55,#56);
#58 = CARTESIAN_POINT('P19',(190.0,0.0,0.0));
#59 = CARTESIAN_POINT('P19b',(198.0,0.0,0.0));
#60 = LINE('L19',#58,#59);
#61 = CARTESIAN_POINT('P20',(200.0,0.0,0.0));
#62 = CARTESIAN_POINT('P20b',(208.0,0.0,0.0));
#63 = LINE('L20',#61,#62);
#64 = CARTESIAN_POINT('P21',(210.0,0.0,0.0));
#65 = CARTESIAN_POINT('P21b',(218.0,0.0,0.0));
#66 = LINE('L21',#64,#65);
#67 = CARTESIAN_POINT('P22',(220.0,0.0,0.0));
#68 = CARTESIAN_POINT('P22b',(228.0,0.0,0.0));
#69 = LINE('L22',#67,#68);
#70 = CARTESIAN_POINT('P23',(230.0,0.0,0.0));
#71 = CARTESIAN_POINT('P23b',(238.0,0.0,0.0));
#72 = LINE('L23',#70,#71);
#73 = CARTESIAN_POINT('P24',(240.0,0.0,0.0));
#74 = CARTESIAN_POINT('P24b',(248.0,0.0,0.0));
#75 = LINE('L24',#73,#74);
#76 = CARTESIAN_POINT('P25',(250.0,0.0,0.0));
#77 = CARTESIAN_POINT('P25b',(258.0,0.0,0.0));
#78 = LINE('L25',#76,#77);
#79 = CARTESIAN_POINT('P26',(260.0,0.0,0.0));
#80 = CARTESIAN_POINT('P26b',(268.0,0.0,0.0));
#81 = LINE('L26',#79,#80);
#82 = CARTESIAN_POINT('P27',(270.0,0.0,0.0));
#83 = CARTESIAN_POINT('P27b',(278.0,0.0,0.0));
#84 = LINE('L27',#82,#83);
#85 = CARTESIAN_POINT('P28',(280.0,0.0,0.0));
#86 = CARTESIAN_POINT('P28b',(288.0,0.0,0.0));
#87 = LINE('L28',#85,#86);
#88 = CARTESIAN_POINT('P29',(290.0,0.0,0.0));
#89 = CARTESIAN_POINT('P29b',(298.0,0.0,0.0));
#90 = LINE('L29',#88,#89);
#91 = CARTESIAN_POINT('P30',(300.0,0.0,0.0));
#92 = CARTESIAN_POINT('P30b',(308.0,0.0,0.0));
#93 = LINE('L30',#91,#92);
#94 = CARTESIAN_POINT('P31',(310.0,0.0,0.0));
#95 = CARTESIAN_POINT('P31b',(318.0,0.0,0.0));
#96 = LINE('L31',#94,#95);
#97 = CARTESIAN_POINT('P32',(320.0,0.0,0.0));
#98 = CARTESIAN_POINT('P32b',(328.0,0.0,0.0));
#99 = LINE('L32',#97,#98);
#100 = CARTESIAN_POINT('P33',(330.0,0.0,0.0));
#101 = CARTESIAN_POINT('P33b',(338.0,0.0,0.0));
#102 = LINE('L33',#100,#101);
#103 = CARTESIAN_POINT('P34',(340.0,0.0,0.0));
#104 = CARTESIAN_POINT('P34b',(348.0,0.0,0.0));
#105 = LINE('L34',#103,#104);
#106 = CARTESIAN_POINT('P35',(350.0,0.0,0.0));
#107 = CARTESIAN_POINT('P35b',(358.0,0.0,0.0));
#108 = LINE('L35',#106,#107);
#109 = CARTESIAN_POINT('P36',(360.0,0.0,0.0));
#110 = CARTESIAN_POINT('P36b',(368.0,0.0,0.0));
#111 = LINE('L36',#109,#110);
#112 = CARTESIAN_POINT('P37',(370.0,0.0,0.0));
#113 = CARTESIAN_POINT('P37b',(378.0,0.0,0.0));
#114 = LINE('L37',#112,#113);
#115 = CARTESIAN_POINT('P38',(380.0,0.0,0.0));
#116 = CARTESIAN_POINT('P38b',(388.0,0.0,0.0));
#117 = LINE('L38',#115,#116);
#118 = CARTESIAN_POINT('P39',(390.0,0.0,0.0));
#119 = CARTESIAN_POINT('P39b',(398.0,0.0,0.0));
#120 = LINE('L39',#118,#119);
#121 = CARTESIAN_POINT('P40',(400.0,0.0,0.0));
#122 = CARTESIAN_POINT('P40b',(408.0,0.0,0.0));
#123 = LINE('L40',#121,#122);
#124 = CARTESIAN_POINT('P41',(410.0,0.0,0.0));
#125 = CARTESIAN_POINT('P41b',(418.0,0.0,0.0));
#126 = LINE('L41',#124,#125);
#127 = CARTESIAN_POINT('P42',(420.0,0.0,0.0));
#128 = CARTESIAN_POINT('P42b',(428.0,0.0,0.0));
#129 = LINE('L42',#127,#128);
#130 = CARTESIAN_POINT('P43',(430.0,0.0,0.0));
#131 = CARTESIAN_POINT('P43b',(438.0,0.0,0.0));
#132 = LINE('L43',#130,#131);
#133 = CARTESIAN_POINT('P44',(440.0,0.0,0.0));
#134 = CARTESIAN_POINT('P44b',(448.0,0.0,0.0));
#135 = LINE('L44',#133,#134);
#136 = CARTESIAN_POINT('P45',(450.0,0.0,0.0));
#137 = CARTESIAN_POINT('P45b',(458.0,0.0,0.0));
#138 = LINE('L45',#136,#137);
#139 = CARTESIAN_POINT('P46',(460.0,0.0,0.0));
#140 = CARTESIAN_POINT('P46b',(468.0,0.0,0.0));
#141 = LINE('L46',#139,#140);
#142 = CARTESIAN_POINT('P47',(470.0,0.0,0.0));
#143 = CARTESIAN_POINT('P47b',(478.0,0.0,0.0));
#144 = LINE('L47',#142,#143);
#145 = CARTESIAN_POINT('P48',(480.0,0.0,0.0));
#146 = CARTESIAN_POINT('P48b',(488.0,0.0,0.0));
#147 = LINE('L48',#145,#146);
#148 = CARTESIAN_POINT('P49',(490.0,0.0,0.0));
#149 = CARTESIAN_POINT('P49b',(498.0,0.0,0.0));
#150 = LINE('L49',#148,#149);
#151 = CARTESIAN_POINT('P50',(500.0,0.0,0.0));
#152 = CARTESIAN_POINT('P50b',(508.0,0.0,0.0));
#153 = LINE('L50',#151,#152);
#154 = CARTESIAN_POINT('P51',(510.0,0.0,0.0));
#155 = CARTESIAN_POINT('P51b',(518.0,0.0,0.0));
#156 = LINE('L51',#154,#155);
#157 = CARTESIAN_POINT('P52',(520.0,0.0,0.0));
#158 = CARTESIAN_POINT('P52b',(528.0,0.0,0.0));
#159 = LINE('L52',#157,#158);
#160 = CARTESIAN_POINT('P53',(530.0,0.0,0.0));
#161 = CARTESIAN_POINT('P53b',(538.0,0.0,0.0));
#162 = LINE('L53',#160,#161);
#163 = CARTESIAN_POINT('P54',(540.0,0.0,0.0));
#164 = CARTESIAN_POINT('P54b',(548.0,0.0,0.0));
#165 = LINE('L54',#163,#164);
#166 = CARTESIAN_POINT('P55',(550.0,0.0,0.0));
#167 = CARTESIAN_POINT('P55b',(558.0,0.0,0.0));
#168 = LINE('L55',#166,#167);
#169 = CARTESIAN_POINT('P56',(560.0,0.0,0.0));
#170 = CARTESIAN_POINT('P56b',(568.0,0.0,0.0));
#171 = LINE('L56',#169,#170);
#172 = CARTESIAN_POINT('P57',(570.0,0.0,0.0));
#173 = CARTESIAN_POINT('P57b',(578.0,0.0,0.0));
#174 = LINE('L57',#172,#173);
#175 = CARTESIAN_POINT('P58',(580.0,0.0,0.0));
#176 = CARTESIAN_POINT('P58b',(588.0,0.0,0.0));
#177 = LINE('L58',#175,#176);
#178 = CARTESIAN_POINT('P59',(590.0,0.0,0.0));
#179 = CARTESIAN_POINT('P59b',(598.0,0.0,0.0));
#180 = LINE('L59',#178,#179);
#181 = CARTESIAN_POINT('P60',(600.0,0.0,0.0));
#182 = CARTESIAN_POINT('P60b',(608.0,0.0,0.0));
#183 = LINE('L60',#181,#182);
#184 = CARTESIAN_POINT('P61',(610.0,0.0,0.0));
#185 = CARTESIAN_POINT('P61b',(618.0,0.0,0.0));
#186 = LINE('L61',#184,#185);
#187 = CARTESIAN_POINT('P62',(620.0,0.0,0.0));
#188 = CARTESIAN_POINT('P62b',(628.0,0.0,0.0));
#189 = LINE('L62',#187,#188);
#190 = CARTESIAN_POINT('P63',(630.0,0.0,0.0));
#191 = CARTESIAN_POINT('P63b',(638.0,0.0,0.0));
#192 = LINE('L63',#190,#191);
#193 = CARTESIAN_POINT('P64',(640.0,0.0,0.0));
#194 = CARTESIAN_POINT('P64b',(648.0,0.0,0.0));
#195 = LINE('L64',#193,#194);
#196 = CARTESIAN_POINT('P65',(650.0,0.0,0.0));
#197 = CARTESIAN_POINT('P65b',(658.0,0.0,0.0));
#198 = LINE('L65',#196,#197);
#199 = CARTESIAN_POINT('P66',(660.0,0.0,0.0));
#200 = CARTESIAN_POINT('P66b',(668.0,0.0,0.0));
#201 = LINE('L66',#199,#200);
#202 = CARTESIAN_POINT('P67',(670.0,0.0,0.0));
#203 = CARTESIAN_POINT('P67b',(678.0,0.0,0.0));
#204 = LINE('L67',#202,#203);
#205 = CARTESIAN_POINT('P68',(680.0,0.0,0.0));
#206 = CARTESIAN_POINT('P68b',(688.0,0.0,0.0));
#207 = LINE('L68',#205,#206);
#208 = CARTESIAN_POINT('P69',(690.0,0.0,0.0));
#209 = CARTESIAN_POINT('P69b',(698.0,0.0,0.0));
#210 = LINE('L69',#208,#209);
#211 = CARTESIAN_POINT('P70',(700.0,0.0,0.0));
#212 = CARTESIAN_POINT('P70b',(708.0,0.0,0.0));
#213 = LINE('L70',#211,#212);
#214 = CARTESIAN_POINT('P71',(710.0,0.0,0.0));
#215 = CARTESIAN_POINT('P71b',(718.0,0.0,0.0));
#216 = LINE('L71',#214,#215);
#217 = CARTESIAN_POINT('P72',(720.0,0.0,0.0));
#218 = CARTESIAN_POINT('P72b',(728.0,0.0,0.0));
#219 = LINE('L72',#217,#218);
#220 = CARTESIAN_POINT('P73',(730.0,0.0,0.0));
#221 = CARTESIAN_POINT('P73b',(738.0,0.0,0.0));
#222 = LINE('L73',#220,#221);
#223 = CARTESIAN_POINT('P74',(740.0,0.0,0.0));
#224 = CARTESIAN_POINT('P74b',(748.0,0.0,0.0));
#225 = LINE('L74',#223,#224);
#226 = CARTESIAN_POINT('P75',(750.0,0.0,0.0));
#227 = CARTESIAN_POINT('P75b',(758.0,0.0,0.0));
#228 = LINE('L75',#226,#227);
#229 = CARTESIAN_POINT('P76',(760.0,0.0,0.0));
#230 = CARTESIAN_POINT('P76b',(768.0,0.0,0.0));
#231 = LINE('L76',#229,#230);
#232 = CARTESIAN_POINT('P77',(770.0,0.0,0.0));
#233 = CARTESIAN_POINT('P77b',(778.0,0.0,0.0));
#234 = LINE('L77',#232,#233);
#235 = CARTESIAN_POINT('P78',(780.0,0.0,0.0));
#236 = CARTESIAN_POINT('P78b',(788.0,0.0,0.0));
#237 = LINE('L78',#235,#236);
#238 = CARTESIAN_POINT('P79',(790.0,0.0,0.0));
#239 = CARTESIAN_POINT('P79b',(798.0,0.0,0.0));
#240 = LINE('L79',#238,#239);
#241 = CARTESIAN_POINT('P80',(800.0,0.0,0.0));
#242 = CARTESIAN_POINT('P80b',(808.0,0.0,0.0));
#243 = LINE('L80',#241,#242);
#244 = CARTESIAN_POINT('P81',(810.0,0.0,0.0));
#245 = CARTESIAN_POINT('P81b',(818.0,0.0,0.0));
#246 = LINE('L81',#244,#245);
#247 = CARTESIAN_POINT('P82',(820.0,0.0,0.0));
#248 = CARTESIAN_POINT('P82b',(828.0,0.0,0.0));
#249 = LINE('L82',#247,#248);
#250 = CARTESIAN_POINT('P83',(830.0,0.0,0.0));
#251 = CARTESIAN_POINT('P83b',(838.0,0.0,0.0));
#252 = LINE('L83',#250,#251);
#253 = CARTESIAN_POINT('P84',(840.0,0.0,0.0));
#254 = CARTESIAN_POINT('P84b',(848.0,0.0,0.0));
#255 = LINE('L84',#253,#254);
#256 = CARTESIAN_POINT('P85',(850.0,0.0,0.0));
#257 = CARTESIAN_POINT('P85b',(858.0,0.0,0.0));
#258 = LINE('L85',#256,#257);
#259 = CARTESIAN_POINT('P86',(860.0,0.0,0.0));
#260 = CARTESIAN_POINT('P86b',(868.0,0.0,0.0));
#261 = LINE('L86',#259,#260);
#262 = CARTESIAN_POINT('P87',(870.0,0.0,0.0));
#263 = CARTESIAN_POINT('P87b',(878.0,0.0,0.0));
#264 = LINE('L87',#262,#263);
#265 = CARTESIAN_POINT('P88',(880.0,0.0,0.0));
#266 = CARTESIAN_POINT('P88b',(888.0,0.0,0.0));
#267 = LINE('L88',#265,#266);
#268 = CARTESIAN_POINT('P89',(890.0,0.0,0.0));
#269 = CARTESIAN_POINT('P89b',(898.0,0.0,0.0));
#270 = LINE('L89',#268,#269);
#271 = CARTESIAN_POINT('P90',(900.0,0.0,0.0));
#272 = CARTESIAN_POINT('P90b',(908.0,0.0,0.0));
#273 = LINE('L90',#271,#272);
#274 = CARTESIAN_POINT('P91',(910.0,0.0,0.0));
#275 = CARTESIAN_POINT('P91b',(918.0,0.0,0.0));
#276 = LINE('L91',#274,#275);
#277 = CARTESIAN_POINT('P92',(920.0,0.0,0.0));
#278 = CARTESIAN_POINT('P92b',(928.0,0.0,0.0));
#279 = LINE('L92',#277,#278);
#280 = CARTESIAN_POINT('P93',(930.0,0.0,0.0));
#281 = CARTESIAN_POINT('P93b',(938.0,0.0,0.0));
#282 = LINE('L93',#280,#281);
#283 = CARTESIAN_POINT('P94',(940.0,0.0,0.0));
#284 = CARTESIAN_POINT('P94b',(948.0,0.0,0.0));
#285 = LINE('L94',#283,#284);
#286 = CARTESIAN_POINT('P95',(950.0,0.0,0.0));
#287 = CARTESIAN_POINT('P95b',(958.0,0.0,0.0));
#288 = LINE('L95',#286,#287);
#289 = CARTESIAN_POINT('P96',(960.0,0.0,0.0));
#290 = CARTESIAN_POINT('P96b',(968.0,0.0,0.0));
#291 = LINE('L96',#289,#290);
#292 = CARTESIAN_POINT('P97',(970.0,0.0,0.0));
#293 = CARTESIAN_POINT('P97b',(978.0,0.0,0.0));
#294 = LINE('L97',#292,#293);
#295 = CARTESIAN_POINT('P98',(980.0,0.0,0.0));
#296 = CARTESIAN_POINT('P98b',(988.0,0.0,0.0));
#297 = LINE('L98',#295,#296);
#298 = CARTESIAN_POINT('P99',(990.0,0.0,0.0));
#299 = CARTESIAN_POINT('P99b',(998.0,0.0,0.0));
#300 = LINE('L99',#298,#299);
#301 = CARTESIAN_POINT('P100',(1000.0,0.0,0.0));
#302 = CARTESIAN_POINT('P100b',(1008.0,0.0,0.0));
#303 = LINE('L100',#301,#302);
#304 = CARTESIAN_POINT('P101',(1010.0,0.0,0.0));
#305 = CARTESIAN_POINT('P101b',(1018.0,0.0,0.0));
#306 = LINE('L101',#304,#305);
#307 = CARTESIAN_POINT('P102',(1020.0,0.0,0.0));
#308 = CARTESIAN_POINT('P102b',(1028.0,0.0,0.0));
#309 = LINE('L102',#307,#308);
#310 = CARTESIAN_POINT('P103',(1030.0,0.0,0.0));
#311 = CARTESIAN_POINT('P103b',(1038.0,0.0,0.0));
#312 = LINE('L103',#310,#311);
#313 = CARTESIAN_POINT('P104',(1040.0,0.0,0.0));
#314 = CARTESIAN_POINT('P104b',(1048.0,0.0,0.0));
#315 = LINE('L104',#313,#314);
#316 = CARTESIAN_POINT('P105',(1050.0,0.0,0.0));
#317 = CARTESIAN_POINT('P105b',(1058.0,0.0,0.0));
#318 = LINE('L105',#316,#317);
#319 = CARTESIAN_POINT('P106',(1060.0,0.0,0.0));
#320 = CARTESIAN_POINT('P106b',(1068.0,0.0,0.0));
#321 = LINE('L106',#319,#320);
#322 = CARTESIAN_POINT('P107',(1070.0,0.0,0.0));
#323 = CARTESIAN_POINT('P107b',(1078.0,0.0,0.0));
#324 = LINE('L107',#322,#323);
#325 = CARTESIAN_POINT('P108',(1080.0,0.0,0.0));
#326 = CARTESIAN_POINT('P108b',(1088.0,0.0,0.0));
#327 = LINE('L108',#325,#326);
#328 = CARTESIAN_POINT('P109',(1090.0,0.0,0.0));
#329 = CARTESIAN_POINT('P109b',(1098.0,0.0,0.0));
#330 = LINE('L109',#328,#329);
#331 = CARTESIAN_POINT('P110',(1100.0,0.0,0.0));
#332 = CARTESIAN_POINT('P110b',(1108.0,0.0,0.0));
#333 = LINE('L110',#331,#332);
#334 = CARTESIAN_POINT('P111',(1110.0,0.0,0.0));
#335 = CARTESIAN_POINT('P111b',(1118.0,0.0,0.0));
#336 = LINE('L111',#334,#335);
#337 = CARTESIAN_POINT('P112',(1120.0,0.0,0.0));
#338 = CARTESIAN_POINT('P112b',(1128.0,0.0,0.0));
#339 = LINE('L112',#337,#338);
#340 = CARTESIAN_POINT('P113',(1130.0,0.0,0.0));
#341 = CARTESIAN_POINT('P113b',(1138.0,0.0,0.0));
#342 = LINE('L113',#340,#341);
#343 = CARTESIAN_POINT('P114',(1140.0,0.0,0.0));
#344 = CARTESIAN_POINT('P114b',(1148.0,0.0,0.0));
#345 = LINE('L114',#343,#344);
#346 = CARTESIAN_POINT('P115',(1150.0,0.0,0.0));
#347 = CARTESIAN_POINT('P115b',(1158.0,0.0,0.0));
#348 = LINE('L115',#346,#347);
#349 = CARTESIAN_POINT('P116',(1160.0,0.0,0.0));
#350 = CARTESIAN_POINT('P116b',(1168.0,0.0,0.0));
#351 = LINE('L116',#349,#350);
#352 = CARTESIAN_POINT('P117',(1170.0,0.0,0.0));
#353 = CARTESIAN_POINT('P117b',(1178.0,0.0,0.0));
#354 = LINE('L117',#352,#353);
#355 = CARTESIAN_POINT('P118',(1180.0,0.0,0.0));
#356 = CARTESIAN_POINT('P118b',(1188.0,0.0,0.0));
#357 = LINE('L118',#355,#356);
#358 = CARTESIAN_POINT('P119',(1190.0,0.0,0.0));
#359 = CARTESIAN_POINT('P119b',(1198.0,0.0,0.0));
#360 = LINE('L119',#358,#359);
ENDSEC;
END-ISO-10303-21;
