ISO-10303-21;
HEADER;
FILE_DESCRIPTION(('Sample STEP file for GetSampleData.com'),'2;1');
FILE_NAME('sample.step','2026-08-18T00:00:00',('GetSampleData.com'),(''),'','','');
FILE_SCHEMA(('CONFIG_CONTROL_DESIGN'));
ENDSEC;
DATA;
#1 = CARTESIAN_POINT('P0',(0.0,0.0,0.0));
#2 = CARTESIAN_POINT('P0b',(8.0,0.0,0.0));
#3 = LINE('L0',#1,#2);
#4 = CARTESIAN_POINT('P1',(10.0,0.0,0.0));
#5 = CARTESIAN_POINT('P1b',(18.0,0.0,0.0));
#6 = LINE('L1',#4,#5);
#7 = CARTESIAN_POINT('P2',(20.0,0.0,0.0));
#8 = CARTESIAN_POINT('P2b',(28.0,0.0,0.0));
#9 = LINE('L2',#7,#8);
#10 = CARTESIAN_POINT('P3',(30.0,0.0,0.0));
#11 = CARTESIAN_POINT('P3b',(38.0,0.0,0.0));
#12 = LINE('L3',#10,#11);
#13 = CARTESIAN_POINT('P4',(40.0,0.0,0.0));
#14 = CARTESIAN_POINT('P4b',(48.0,0.0,0.0));
#15 = LINE('L4',#13,#14);
#16 = CARTESIAN_POINT('P5',(50.0,0.0,0.0));
#17 = CARTESIAN_POINT('P5b',(58.0,0.0,0.0));
#18 = LINE('L5',#16,#17);
#19 = CARTESIAN_POINT('P6',(60.0,0.0,0.0));
#20 = CARTESIAN_POINT('P6b',(68.0,0.0,0.0));
#21 = LINE('L6',#19,#20);
#22 = CARTESIAN_POINT('P7',(70.0,0.0,0.0));
#23 = CARTESIAN_POINT('P7b',(78.0,0.0,0.0));
#24 = LINE('L7',#22,#23);
#25 = CARTESIAN_POINT('P8',(80.0,0.0,0.0));
#26 = CARTESIAN_POINT('P8b',(88.0,0.0,0.0));
#27 = LINE('L8',#25,#26);
#28 = CARTESIAN_POINT('P9',(90.0,0.0,0.0));
#29 = CARTESIAN_POINT('P9b',(98.0,0.0,0.0));
#30 = LINE('L9',#28,#29);
#31 = CARTESIAN_POINT('P10',(100.0,0.0,0.0));
#32 = CARTESIAN_POINT('P10b',(108.0,0.0,0.0));
#33 = LINE('L10',#31,#32);
#34 = CARTESIAN_POINT('P11',(110.0,0.0,0.0));
#35 = CARTESIAN_POINT('P11b',(118.0,0.0,0.0));
#36 = LINE('L11',#34,#35);
#37 = CARTESIAN_POINT('P12',(120.0,0.0,0.0));
#38 = CARTESIAN_POINT('P12b',(128.0,0.0,0.0));
#39 = LINE('L12',#37,#38);
#40 = CARTESIAN_POINT('P13',(130.0,0.0,0.0));
#41 = CARTESIAN_POINT('P13b',(138.0,0.0,0.0));
#42 = LINE('L13',#40,#41);
#43 = CARTESIAN_POINT('P14',(140.0,0.0,0.0));
#44 = CARTESIAN_POINT('P14b',(148.0,0.0,0.0));
#45 = LINE('L14',#43,#44);
#46 = CARTESIAN_POINT('P15',(150.0,0.0,0.0));
#47 = CARTESIAN_POINT('P15b',(158.0,0.0,0.0));
#48 = LINE('L15',#46,#47);
#49 = CARTESIAN_POINT('P16',(160.0,0.0,0.0));
#50 = CARTESIAN_POINT('P16b',(168.0,0.0,0.0));
#51 = LINE('L16',#49,#50);
#52 = CARTESIAN_POINT('P17',(170.0,0.0,0.0));
#53 = CARTESIAN_POINT('P17b',(178.0,0.0,0.0));
#54 = LINE('L17',#52,#53);
#55 = CARTESIAN_POINT('P18',(180.0,0.0,0.0));
#56 = CARTESIAN_POINT('P18b',(188.0,0.0,0.0));
#57 = LINE('L18',#55,#56);
#58 = CARTESIAN_POINT('P19',(190.0,0.0,0.0));
#59 = CARTESIAN_POINT('P19b',(198.0,0.0,0.0));
#60 = LINE('L19',#58,#59);
#61 = CARTESIAN_POINT('P20',(200.0,0.0,0.0));
#62 = CARTESIAN_POINT('P20b',(208.0,0.0,0.0));
#63 = LINE('L20',#61,#62);
#64 = CARTESIAN_POINT('P21',(210.0,0.0,0.0));
#65 = CARTESIAN_POINT('P21b',(218.0,0.0,0.0));
#66 = LINE('L21',#64,#65);
#67 = CARTESIAN_POINT('P22',(220.0,0.0,0.0));
#68 = CARTESIAN_POINT('P22b',(228.0,0.0,0.0));
#69 = LINE('L22',#67,#68);
#70 = CARTESIAN_POINT('P23',(230.0,0.0,0.0));
#71 = CARTESIAN_POINT('P23b',(238.0,0.0,0.0));
#72 = LINE('L23',#70,#71);
#73 = CARTESIAN_POINT('P24',(240.0,0.0,0.0));
#74 = CARTESIAN_POINT('P24b',(248.0,0.0,0.0));
#75 = LINE('L24',#73,#74);
#76 = CARTESIAN_POINT('P25',(250.0,0.0,0.0));
#77 = CARTESIAN_POINT('P25b',(258.0,0.0,0.0));
#78 = LINE('L25',#76,#77);
#79 = CARTESIAN_POINT('P26',(260.0,0.0,0.0));
#80 = CARTESIAN_POINT('P26b',(268.0,0.0,0.0));
#81 = LINE('L26',#79,#80);
#82 = CARTESIAN_POINT('P27',(270.0,0.0,0.0));
#83 = CARTESIAN_POINT('P27b',(278.0,0.0,0.0));
#84 = LINE('L27',#82,#83);
#85 = CARTESIAN_POINT('P28',(280.0,0.0,0.0));
#86 = CARTESIAN_POINT('P28b',(288.0,0.0,0.0));
#87 = LINE('L28',#85,#86);
#88 = CARTESIAN_POINT('P29',(290.0,0.0,0.0));
#89 = CARTESIAN_POINT('P29b',(298.0,0.0,0.0));
#90 = LINE('L29',#88,#89);
#91 = CARTESIAN_POINT('P30',(300.0,0.0,0.0));
#92 = CARTESIAN_POINT('P30b',(308.0,0.0,0.0));
#93 = LINE('L30',#91,#92);
#94 = CARTESIAN_POINT('P31',(310.0,0.0,0.0));
#95 = CARTESIAN_POINT('P31b',(318.0,0.0,0.0));
#96 = LINE('L31',#94,#95);
#97 = CARTESIAN_POINT('P32',(320.0,0.0,0.0));
#98 = CARTESIAN_POINT('P32b',(328.0,0.0,0.0));
#99 = LINE('L32',#97,#98);
#100 = CARTESIAN_POINT('P33',(330.0,0.0,0.0));
#101 = CARTESIAN_POINT('P33b',(338.0,0.0,0.0));
#102 = LINE('L33',#100,#101);
#103 = CARTESIAN_POINT('P34',(340.0,0.0,0.0));
#104 = CARTESIAN_POINT('P34b',(348.0,0.0,0.0));
#105 = LINE('L34',#103,#104);
#106 = CARTESIAN_POINT('P35',(350.0,0.0,0.0));
#107 = CARTESIAN_POINT('P35b',(358.0,0.0,0.0));
#108 = LINE('L35',#106,#107);
#109 = CARTESIAN_POINT('P36',(360.0,0.0,0.0));
#110 = CARTESIAN_POINT('P36b',(368.0,0.0,0.0));
#111 = LINE('L36',#109,#110);
#112 = CARTESIAN_POINT('P37',(370.0,0.0,0.0));
#113 = CARTESIAN_POINT('P37b',(378.0,0.0,0.0));
#114 = LINE('L37',#112,#113);
#115 = CARTESIAN_POINT('P38',(380.0,0.0,0.0));
#116 = CARTESIAN_POINT('P38b',(388.0,0.0,0.0));
#117 = LINE('L38',#115,#116);
#118 = CARTESIAN_POINT('P39',(390.0,0.0,0.0));
#119 = CARTESIAN_POINT('P39b',(398.0,0.0,0.0));
#120 = LINE('L39',#118,#119);
#121 = CARTESIAN_POINT('P40',(400.0,0.0,0.0));
#122 = CARTESIAN_POINT('P40b',(408.0,0.0,0.0));
#123 = LINE('L40',#121,#122);
#124 = CARTESIAN_POINT('P41',(410.0,0.0,0.0));
#125 = CARTESIAN_POINT('P41b',(418.0,0.0,0.0));
#126 = LINE('L41',#124,#125);
#127 = CARTESIAN_POINT('P42',(420.0,0.0,0.0));
#128 = CARTESIAN_POINT('P42b',(428.0,0.0,0.0));
#129 = LINE('L42',#127,#128);
#130 = CARTESIAN_POINT('P43',(430.0,0.0,0.0));
#131 = CARTESIAN_POINT('P43b',(438.0,0.0,0.0));
#132 = LINE('L43',#130,#131);
#133 = CARTESIAN_POINT('P44',(440.0,0.0,0.0));
#134 = CARTESIAN_POINT('P44b',(448.0,0.0,0.0));
#135 = LINE('L44',#133,#134);
#136 = CARTESIAN_POINT('P45',(450.0,0.0,0.0));
#137 = CARTESIAN_POINT('P45b',(458.0,0.0,0.0));
#138 = LINE('L45',#136,#137);
#139 = CARTESIAN_POINT('P46',(460.0,0.0,0.0));
#140 = CARTESIAN_POINT('P46b',(468.0,0.0,0.0));
#141 = LINE('L46',#139,#140);
#142 = CARTESIAN_POINT('P47',(470.0,0.0,0.0));
#143 = CARTESIAN_POINT('P47b',(478.0,0.0,0.0));
#144 = LINE('L47',#142,#143);
#145 = CARTESIAN_POINT('P48',(480.0,0.0,0.0));
#146 = CARTESIAN_POINT('P48b',(488.0,0.0,0.0));
#147 = LINE('L48',#145,#146);
#148 = CARTESIAN_POINT('P49',(490.0,0.0,0.0));
#149 = CARTESIAN_POINT('P49b',(498.0,0.0,0.0));
#150 = LINE('L49',#148,#149);
ENDSEC;
END-ISO-10303-21;
