ISO-10303-21;
HEADER;
FILE_DESCRIPTION(('Sample STEP file for GetSampleData.com'),'2;1');
FILE_NAME('sample.step','2026-08-18T00:00:00',('GetSampleData.com'),(''),'','','');
FILE_SCHEMA(('CONFIG_CONTROL_DESIGN'));
ENDSEC;
DATA;
#1 = CARTESIAN_POINT('P0',(0.0,0.0,0.0));
#2 = CARTESIAN_POINT('P0b',(8.0,0.0,0.0));
#3 = LINE('L0',#1,#2);
#4 = CARTESIAN_POINT('P1',(10.0,0.0,0.0));
#5 = CARTESIAN_POINT('P1b',(18.0,0.0,0.0));
#6 = LINE('L1',#4,#5);
#7 = CARTESIAN_POINT('P2',(20.0,0.0,0.0));
#8 = CARTESIAN_POINT('P2b',(28.0,0.0,0.0));
#9 = LINE('L2',#7,#8);
#10 = CARTESIAN_POINT('P3',(30.0,0.0,0.0));
#11 = CARTESIAN_POINT('P3b',(38.0,0.0,0.0));
#12 = LINE('L3',#10,#11);
#13 = CARTESIAN_POINT('P4',(40.0,0.0,0.0));
#14 = CARTESIAN_POINT('P4b',(48.0,0.0,0.0));
#15 = LINE('L4',#13,#14);
#16 = CARTESIAN_POINT('P5',(50.0,0.0,0.0));
#17 = CARTESIAN_POINT('P5b',(58.0,0.0,0.0));
#18 = LINE('L5',#16,#17);
#19 = CARTESIAN_POINT('P6',(60.0,0.0,0.0));
#20 = CARTESIAN_POINT('P6b',(68.0,0.0,0.0));
#21 = LINE('L6',#19,#20);
#22 = CARTESIAN_POINT('P7',(70.0,0.0,0.0));
#23 = CARTESIAN_POINT('P7b',(78.0,0.0,0.0));
#24 = LINE('L7',#22,#23);
#25 = CARTESIAN_POINT('P8',(80.0,0.0,0.0));
#26 = CARTESIAN_POINT('P8b',(88.0,0.0,0.0));
#27 = LINE('L8',#25,#26);
#28 = CARTESIAN_POINT('P9',(90.0,0.0,0.0));
#29 = CARTESIAN_POINT('P9b',(98.0,0.0,0.0));
#30 = LINE('L9',#28,#29);
#31 = CARTESIAN_POINT('P10',(100.0,0.0,0.0));
#32 = CARTESIAN_POINT('P10b',(108.0,0.0,0.0));
#33 = LINE('L10',#31,#32);
#34 = CARTESIAN_POINT('P11',(110.0,0.0,0.0));
#35 = CARTESIAN_POINT('P11b',(118.0,0.0,0.0));
#36 = LINE('L11',#34,#35);
#37 = CARTESIAN_POINT('P12',(120.0,0.0,0.0));
#38 = CARTESIAN_POINT('P12b',(128.0,0.0,0.0));
#39 = LINE('L12',#37,#38);
#40 = CARTESIAN_POINT('P13',(130.0,0.0,0.0));
#41 = CARTESIAN_POINT('P13b',(138.0,0.0,0.0));
#42 = LINE('L13',#40,#41);
#43 = CARTESIAN_POINT('P14',(140.0,0.0,0.0));
#44 = CARTESIAN_POINT('P14b',(148.0,0.0,0.0));
#45 = LINE('L14',#43,#44);
#46 = CARTESIAN_POINT('P15',(150.0,0.0,0.0));
#47 = CARTESIAN_POINT('P15b',(158.0,0.0,0.0));
#48 = LINE('L15',#46,#47);
#49 = CARTESIAN_POINT('P16',(160.0,0.0,0.0));
#50 = CARTESIAN_POINT('P16b',(168.0,0.0,0.0));
#51 = LINE('L16',#49,#50);
#52 = CARTESIAN_POINT('P17',(170.0,0.0,0.0));
#53 = CARTESIAN_POINT('P17b',(178.0,0.0,0.0));
#54 = LINE('L17',#52,#53);
#55 = CARTESIAN_POINT('P18',(180.0,0.0,0.0));
#56 = CARTESIAN_POINT('P18b',(188.0,0.0,0.0));
#57 = LINE('L18',#55,#56);
#58 = CARTESIAN_POINT('P19',(190.0,0.0,0.0));
#59 = CARTESIAN_POINT('P19b',(198.0,0.0,0.0));
#60 = LINE('L19',#58,#59);
#61 = CARTESIAN_POINT('P20',(200.0,0.0,0.0));
#62 = CARTESIAN_POINT('P20b',(208.0,0.0,0.0));
#63 = LINE('L20',#61,#62);
#64 = CARTESIAN_POINT('P21',(210.0,0.0,0.0));
#65 = CARTESIAN_POINT('P21b',(218.0,0.0,0.0));
#66 = LINE('L21',#64,#65);
#67 = CARTESIAN_POINT('P22',(220.0,0.0,0.0));
#68 = CARTESIAN_POINT('P22b',(228.0,0.0,0.0));
#69 = LINE('L22',#67,#68);
#70 = CARTESIAN_POINT('P23',(230.0,0.0,0.0));
#71 = CARTESIAN_POINT('P23b',(238.0,0.0,0.0));
#72 = LINE('L23',#70,#71);
#73 = CARTESIAN_POINT('P24',(240.0,0.0,0.0));
#74 = CARTESIAN_POINT('P24b',(248.0,0.0,0.0));
#75 = LINE('L24',#73,#74);
#76 = CARTESIAN_POINT('P25',(250.0,0.0,0.0));
#77 = CARTESIAN_POINT('P25b',(258.0,0.0,0.0));
#78 = LINE('L25',#76,#77);
#79 = CARTESIAN_POINT('P26',(260.0,0.0,0.0));
#80 = CARTESIAN_POINT('P26b',(268.0,0.0,0.0));
#81 = LINE('L26',#79,#80);
#82 = CARTESIAN_POINT('P27',(270.0,0.0,0.0));
#83 = CARTESIAN_POINT('P27b',(278.0,0.0,0.0));
#84 = LINE('L27',#82,#83);
#85 = CARTESIAN_POINT('P28',(280.0,0.0,0.0));
#86 = CARTESIAN_POINT('P28b',(288.0,0.0,0.0));
#87 = LINE('L28',#85,#86);
#88 = CARTESIAN_POINT('P29',(290.0,0.0,0.0));
#89 = CARTESIAN_POINT('P29b',(298.0,0.0,0.0));
#90 = LINE('L29',#88,#89);
#91 = CARTESIAN_POINT('P30',(300.0,0.0,0.0));
#92 = CARTESIAN_POINT('P30b',(308.0,0.0,0.0));
#93 = LINE('L30',#91,#92);
#94 = CARTESIAN_POINT('P31',(310.0,0.0,0.0));
#95 = CARTESIAN_POINT('P31b',(318.0,0.0,0.0));
#96 = LINE('L31',#94,#95);
#97 = CARTESIAN_POINT('P32',(320.0,0.0,0.0));
#98 = CARTESIAN_POINT('P32b',(328.0,0.0,0.0));
#99 = LINE('L32',#97,#98);
#100 = CARTESIAN_POINT('P33',(330.0,0.0,0.0));
#101 = CARTESIAN_POINT('P33b',(338.0,0.0,0.0));
#102 = LINE('L33',#100,#101);
#103 = CARTESIAN_POINT('P34',(340.0,0.0,0.0));
#104 = CARTESIAN_POINT('P34b',(348.0,0.0,0.0));
#105 = LINE('L34',#103,#104);
#106 = CARTESIAN_POINT('P35',(350.0,0.0,0.0));
#107 = CARTESIAN_POINT('P35b',(358.0,0.0,0.0));
#108 = LINE('L35',#106,#107);
#109 = CARTESIAN_POINT('P36',(360.0,0.0,0.0));
#110 = CARTESIAN_POINT('P36b',(368.0,0.0,0.0));
#111 = LINE('L36',#109,#110);
#112 = CARTESIAN_POINT('P37',(370.0,0.0,0.0));
#113 = CARTESIAN_POINT('P37b',(378.0,0.0,0.0));
#114 = LINE('L37',#112,#113);
#115 = CARTESIAN_POINT('P38',(380.0,0.0,0.0));
#116 = CARTESIAN_POINT('P38b',(388.0,0.0,0.0));
#117 = LINE('L38',#115,#116);
#118 = CARTESIAN_POINT('P39',(390.0,0.0,0.0));
#119 = CARTESIAN_POINT('P39b',(398.0,0.0,0.0));
#120 = LINE('L39',#118,#119);
#121 = CARTESIAN_POINT('P40',(400.0,0.0,0.0));
#122 = CARTESIAN_POINT('P40b',(408.0,0.0,0.0));
#123 = LINE('L40',#121,#122);
#124 = CARTESIAN_POINT('P41',(410.0,0.0,0.0));
#125 = CARTESIAN_POINT('P41b',(418.0,0.0,0.0));
#126 = LINE('L41',#124,#125);
#127 = CARTESIAN_POINT('P42',(420.0,0.0,0.0));
#128 = CARTESIAN_POINT('P42b',(428.0,0.0,0.0));
#129 = LINE('L42',#127,#128);
#130 = CARTESIAN_POINT('P43',(430.0,0.0,0.0));
#131 = CARTESIAN_POINT('P43b',(438.0,0.0,0.0));
#132 = LINE('L43',#130,#131);
#133 = CARTESIAN_POINT('P44',(440.0,0.0,0.0));
#134 = CARTESIAN_POINT('P44b',(448.0,0.0,0.0));
#135 = LINE('L44',#133,#134);
#136 = CARTESIAN_POINT('P45',(450.0,0.0,0.0));
#137 = CARTESIAN_POINT('P45b',(458.0,0.0,0.0));
#138 = LINE('L45',#136,#137);
#139 = CARTESIAN_POINT('P46',(460.0,0.0,0.0));
#140 = CARTESIAN_POINT('P46b',(468.0,0.0,0.0));
#141 = LINE('L46',#139,#140);
#142 = CARTESIAN_POINT('P47',(470.0,0.0,0.0));
#143 = CARTESIAN_POINT('P47b',(478.0,0.0,0.0));
#144 = LINE('L47',#142,#143);
#145 = CARTESIAN_POINT('P48',(480.0,0.0,0.0));
#146 = CARTESIAN_POINT('P48b',(488.0,0.0,0.0));
#147 = LINE('L48',#145,#146);
#148 = CARTESIAN_POINT('P49',(490.0,0.0,0.0));
#149 = CARTESIAN_POINT('P49b',(498.0,0.0,0.0));
#150 = LINE('L49',#148,#149);
#151 = CARTESIAN_POINT('P50',(500.0,0.0,0.0));
#152 = CARTESIAN_POINT('P50b',(508.0,0.0,0.0));
#153 = LINE('L50',#151,#152);
#154 = CARTESIAN_POINT('P51',(510.0,0.0,0.0));
#155 = CARTESIAN_POINT('P51b',(518.0,0.0,0.0));
#156 = LINE('L51',#154,#155);
#157 = CARTESIAN_POINT('P52',(520.0,0.0,0.0));
#158 = CARTESIAN_POINT('P52b',(528.0,0.0,0.0));
#159 = LINE('L52',#157,#158);
#160 = CARTESIAN_POINT('P53',(530.0,0.0,0.0));
#161 = CARTESIAN_POINT('P53b',(538.0,0.0,0.0));
#162 = LINE('L53',#160,#161);
#163 = CARTESIAN_POINT('P54',(540.0,0.0,0.0));
#164 = CARTESIAN_POINT('P54b',(548.0,0.0,0.0));
#165 = LINE('L54',#163,#164);
#166 = CARTESIAN_POINT('P55',(550.0,0.0,0.0));
#167 = CARTESIAN_POINT('P55b',(558.0,0.0,0.0));
#168 = LINE('L55',#166,#167);
#169 = CARTESIAN_POINT('P56',(560.0,0.0,0.0));
#170 = CARTESIAN_POINT('P56b',(568.0,0.0,0.0));
#171 = LINE('L56',#169,#170);
#172 = CARTESIAN_POINT('P57',(570.0,0.0,0.0));
#173 = CARTESIAN_POINT('P57b',(578.0,0.0,0.0));
#174 = LINE('L57',#172,#173);
#175 = CARTESIAN_POINT('P58',(580.0,0.0,0.0));
#176 = CARTESIAN_POINT('P58b',(588.0,0.0,0.0));
#177 = LINE('L58',#175,#176);
#178 = CARTESIAN_POINT('P59',(590.0,0.0,0.0));
#179 = CARTESIAN_POINT('P59b',(598.0,0.0,0.0));
#180 = LINE('L59',#178,#179);
#181 = CARTESIAN_POINT('P60',(600.0,0.0,0.0));
#182 = CARTESIAN_POINT('P60b',(608.0,0.0,0.0));
#183 = LINE('L60',#181,#182);
#184 = CARTESIAN_POINT('P61',(610.0,0.0,0.0));
#185 = CARTESIAN_POINT('P61b',(618.0,0.0,0.0));
#186 = LINE('L61',#184,#185);
#187 = CARTESIAN_POINT('P62',(620.0,0.0,0.0));
#188 = CARTESIAN_POINT('P62b',(628.0,0.0,0.0));
#189 = LINE('L62',#187,#188);
#190 = CARTESIAN_POINT('P63',(630.0,0.0,0.0));
#191 = CARTESIAN_POINT('P63b',(638.0,0.0,0.0));
#192 = LINE('L63',#190,#191);
#193 = CARTESIAN_POINT('P64',(640.0,0.0,0.0));
#194 = CARTESIAN_POINT('P64b',(648.0,0.0,0.0));
#195 = LINE('L64',#193,#194);
#196 = CARTESIAN_POINT('P65',(650.0,0.0,0.0));
#197 = CARTESIAN_POINT('P65b',(658.0,0.0,0.0));
#198 = LINE('L65',#196,#197);
#199 = CARTESIAN_POINT('P66',(660.0,0.0,0.0));
#200 = CARTESIAN_POINT('P66b',(668.0,0.0,0.0));
#201 = LINE('L66',#199,#200);
#202 = CARTESIAN_POINT('P67',(670.0,0.0,0.0));
#203 = CARTESIAN_POINT('P67b',(678.0,0.0,0.0));
#204 = LINE('L67',#202,#203);
#205 = CARTESIAN_POINT('P68',(680.0,0.0,0.0));
#206 = CARTESIAN_POINT('P68b',(688.0,0.0,0.0));
#207 = LINE('L68',#205,#206);
#208 = CARTESIAN_POINT('P69',(690.0,0.0,0.0));
#209 = CARTESIAN_POINT('P69b',(698.0,0.0,0.0));
#210 = LINE('L69',#208,#209);
#211 = CARTESIAN_POINT('P70',(700.0,0.0,0.0));
#212 = CARTESIAN_POINT('P70b',(708.0,0.0,0.0));
#213 = LINE('L70',#211,#212);
#214 = CARTESIAN_POINT('P71',(710.0,0.0,0.0));
#215 = CARTESIAN_POINT('P71b',(718.0,0.0,0.0));
#216 = LINE('L71',#214,#215);
#217 = CARTESIAN_POINT('P72',(720.0,0.0,0.0));
#218 = CARTESIAN_POINT('P72b',(728.0,0.0,0.0));
#219 = LINE('L72',#217,#218);
#220 = CARTESIAN_POINT('P73',(730.0,0.0,0.0));
#221 = CARTESIAN_POINT('P73b',(738.0,0.0,0.0));
#222 = LINE('L73',#220,#221);
#223 = CARTESIAN_POINT('P74',(740.0,0.0,0.0));
#224 = CARTESIAN_POINT('P74b',(748.0,0.0,0.0));
#225 = LINE('L74',#223,#224);
#226 = CARTESIAN_POINT('P75',(750.0,0.0,0.0));
#227 = CARTESIAN_POINT('P75b',(758.0,0.0,0.0));
#228 = LINE('L75',#226,#227);
#229 = CARTESIAN_POINT('P76',(760.0,0.0,0.0));
#230 = CARTESIAN_POINT('P76b',(768.0,0.0,0.0));
#231 = LINE('L76',#229,#230);
#232 = CARTESIAN_POINT('P77',(770.0,0.0,0.0));
#233 = CARTESIAN_POINT('P77b',(778.0,0.0,0.0));
#234 = LINE('L77',#232,#233);
#235 = CARTESIAN_POINT('P78',(780.0,0.0,0.0));
#236 = CARTESIAN_POINT('P78b',(788.0,0.0,0.0));
#237 = LINE('L78',#235,#236);
#238 = CARTESIAN_POINT('P79',(790.0,0.0,0.0));
#239 = CARTESIAN_POINT('P79b',(798.0,0.0,0.0));
#240 = LINE('L79',#238,#239);
#241 = CARTESIAN_POINT('P80',(800.0,0.0,0.0));
#242 = CARTESIAN_POINT('P80b',(808.0,0.0,0.0));
#243 = LINE('L80',#241,#242);
#244 = CARTESIAN_POINT('P81',(810.0,0.0,0.0));
#245 = CARTESIAN_POINT('P81b',(818.0,0.0,0.0));
#246 = LINE('L81',#244,#245);
#247 = CARTESIAN_POINT('P82',(820.0,0.0,0.0));
#248 = CARTESIAN_POINT('P82b',(828.0,0.0,0.0));
#249 = LINE('L82',#247,#248);
#250 = CARTESIAN_POINT('P83',(830.0,0.0,0.0));
#251 = CARTESIAN_POINT('P83b',(838.0,0.0,0.0));
#252 = LINE('L83',#250,#251);
#253 = CARTESIAN_POINT('P84',(840.0,0.0,0.0));
#254 = CARTESIAN_POINT('P84b',(848.0,0.0,0.0));
#255 = LINE('L84',#253,#254);
#256 = CARTESIAN_POINT('P85',(850.0,0.0,0.0));
#257 = CARTESIAN_POINT('P85b',(858.0,0.0,0.0));
#258 = LINE('L85',#256,#257);
#259 = CARTESIAN_POINT('P86',(860.0,0.0,0.0));
#260 = CARTESIAN_POINT('P86b',(868.0,0.0,0.0));
#261 = LINE('L86',#259,#260);
#262 = CARTESIAN_POINT('P87',(870.0,0.0,0.0));
#263 = CARTESIAN_POINT('P87b',(878.0,0.0,0.0));
#264 = LINE('L87',#262,#263);
#265 = CARTESIAN_POINT('P88',(880.0,0.0,0.0));
#266 = CARTESIAN_POINT('P88b',(888.0,0.0,0.0));
#267 = LINE('L88',#265,#266);
#268 = CARTESIAN_POINT('P89',(890.0,0.0,0.0));
#269 = CARTESIAN_POINT('P89b',(898.0,0.0,0.0));
#270 = LINE('L89',#268,#269);
#271 = CARTESIAN_POINT('P90',(900.0,0.0,0.0));
#272 = CARTESIAN_POINT('P90b',(908.0,0.0,0.0));
#273 = LINE('L90',#271,#272);
#274 = CARTESIAN_POINT('P91',(910.0,0.0,0.0));
#275 = CARTESIAN_POINT('P91b',(918.0,0.0,0.0));
#276 = LINE('L91',#274,#275);
#277 = CARTESIAN_POINT('P92',(920.0,0.0,0.0));
#278 = CARTESIAN_POINT('P92b',(928.0,0.0,0.0));
#279 = LINE('L92',#277,#278);
#280 = CARTESIAN_POINT('P93',(930.0,0.0,0.0));
#281 = CARTESIAN_POINT('P93b',(938.0,0.0,0.0));
#282 = LINE('L93',#280,#281);
#283 = CARTESIAN_POINT('P94',(940.0,0.0,0.0));
#284 = CARTESIAN_POINT('P94b',(948.0,0.0,0.0));
#285 = LINE('L94',#283,#284);
#286 = CARTESIAN_POINT('P95',(950.0,0.0,0.0));
#287 = CARTESIAN_POINT('P95b',(958.0,0.0,0.0));
#288 = LINE('L95',#286,#287);
#289 = CARTESIAN_POINT('P96',(960.0,0.0,0.0));
#290 = CARTESIAN_POINT('P96b',(968.0,0.0,0.0));
#291 = LINE('L96',#289,#290);
#292 = CARTESIAN_POINT('P97',(970.0,0.0,0.0));
#293 = CARTESIAN_POINT('P97b',(978.0,0.0,0.0));
#294 = LINE('L97',#292,#293);
#295 = CARTESIAN_POINT('P98',(980.0,0.0,0.0));
#296 = CARTESIAN_POINT('P98b',(988.0,0.0,0.0));
#297 = LINE('L98',#295,#296);
#298 = CARTESIAN_POINT('P99',(990.0,0.0,0.0));
#299 = CARTESIAN_POINT('P99b',(998.0,0.0,0.0));
#300 = LINE('L99',#298,#299);
#301 = CARTESIAN_POINT('P100',(1000.0,0.0,0.0));
#302 = CARTESIAN_POINT('P100b',(1008.0,0.0,0.0));
#303 = LINE('L100',#301,#302);
#304 = CARTESIAN_POINT('P101',(1010.0,0.0,0.0));
#305 = CARTESIAN_POINT('P101b',(1018.0,0.0,0.0));
#306 = LINE('L101',#304,#305);
#307 = CARTESIAN_POINT('P102',(1020.0,0.0,0.0));
#308 = CARTESIAN_POINT('P102b',(1028.0,0.0,0.0));
#309 = LINE('L102',#307,#308);
#310 = CARTESIAN_POINT('P103',(1030.0,0.0,0.0));
#311 = CARTESIAN_POINT('P103b',(1038.0,0.0,0.0));
#312 = LINE('L103',#310,#311);
#313 = CARTESIAN_POINT('P104',(1040.0,0.0,0.0));
#314 = CARTESIAN_POINT('P104b',(1048.0,0.0,0.0));
#315 = LINE('L104',#313,#314);
#316 = CARTESIAN_POINT('P105',(1050.0,0.0,0.0));
#317 = CARTESIAN_POINT('P105b',(1058.0,0.0,0.0));
#318 = LINE('L105',#316,#317);
#319 = CARTESIAN_POINT('P106',(1060.0,0.0,0.0));
#320 = CARTESIAN_POINT('P106b',(1068.0,0.0,0.0));
#321 = LINE('L106',#319,#320);
#322 = CARTESIAN_POINT('P107',(1070.0,0.0,0.0));
#323 = CARTESIAN_POINT('P107b',(1078.0,0.0,0.0));
#324 = LINE('L107',#322,#323);
#325 = CARTESIAN_POINT('P108',(1080.0,0.0,0.0));
#326 = CARTESIAN_POINT('P108b',(1088.0,0.0,0.0));
#327 = LINE('L108',#325,#326);
#328 = CARTESIAN_POINT('P109',(1090.0,0.0,0.0));
#329 = CARTESIAN_POINT('P109b',(1098.0,0.0,0.0));
#330 = LINE('L109',#328,#329);
#331 = CARTESIAN_POINT('P110',(1100.0,0.0,0.0));
#332 = CARTESIAN_POINT('P110b',(1108.0,0.0,0.0));
#333 = LINE('L110',#331,#332);
#334 = CARTESIAN_POINT('P111',(1110.0,0.0,0.0));
#335 = CARTESIAN_POINT('P111b',(1118.0,0.0,0.0));
#336 = LINE('L111',#334,#335);
#337 = CARTESIAN_POINT('P112',(1120.0,0.0,0.0));
#338 = CARTESIAN_POINT('P112b',(1128.0,0.0,0.0));
#339 = LINE('L112',#337,#338);
#340 = CARTESIAN_POINT('P113',(1130.0,0.0,0.0));
#341 = CARTESIAN_POINT('P113b',(1138.0,0.0,0.0));
#342 = LINE('L113',#340,#341);
#343 = CARTESIAN_POINT('P114',(1140.0,0.0,0.0));
#344 = CARTESIAN_POINT('P114b',(1148.0,0.0,0.0));
#345 = LINE('L114',#343,#344);
#346 = CARTESIAN_POINT('P115',(1150.0,0.0,0.0));
#347 = CARTESIAN_POINT('P115b',(1158.0,0.0,0.0));
#348 = LINE('L115',#346,#347);
#349 = CARTESIAN_POINT('P116',(1160.0,0.0,0.0));
#350 = CARTESIAN_POINT('P116b',(1168.0,0.0,0.0));
#351 = LINE('L116',#349,#350);
#352 = CARTESIAN_POINT('P117',(1170.0,0.0,0.0));
#353 = CARTESIAN_POINT('P117b',(1178.0,0.0,0.0));
#354 = LINE('L117',#352,#353);
#355 = CARTESIAN_POINT('P118',(1180.0,0.0,0.0));
#356 = CARTESIAN_POINT('P118b',(1188.0,0.0,0.0));
#357 = LINE('L118',#355,#356);
#358 = CARTESIAN_POINT('P119',(1190.0,0.0,0.0));
#359 = CARTESIAN_POINT('P119b',(1198.0,0.0,0.0));
#360 = LINE('L119',#358,#359);
#361 = CARTESIAN_POINT('P120',(1200.0,0.0,0.0));
#362 = CARTESIAN_POINT('P120b',(1208.0,0.0,0.0));
#363 = LINE('L120',#361,#362);
#364 = CARTESIAN_POINT('P121',(1210.0,0.0,0.0));
#365 = CARTESIAN_POINT('P121b',(1218.0,0.0,0.0));
#366 = LINE('L121',#364,#365);
#367 = CARTESIAN_POINT('P122',(1220.0,0.0,0.0));
#368 = CARTESIAN_POINT('P122b',(1228.0,0.0,0.0));
#369 = LINE('L122',#367,#368);
#370 = CARTESIAN_POINT('P123',(1230.0,0.0,0.0));
#371 = CARTESIAN_POINT('P123b',(1238.0,0.0,0.0));
#372 = LINE('L123',#370,#371);
#373 = CARTESIAN_POINT('P124',(1240.0,0.0,0.0));
#374 = CARTESIAN_POINT('P124b',(1248.0,0.0,0.0));
#375 = LINE('L124',#373,#374);
#376 = CARTESIAN_POINT('P125',(1250.0,0.0,0.0));
#377 = CARTESIAN_POINT('P125b',(1258.0,0.0,0.0));
#378 = LINE('L125',#376,#377);
#379 = CARTESIAN_POINT('P126',(1260.0,0.0,0.0));
#380 = CARTESIAN_POINT('P126b',(1268.0,0.0,0.0));
#381 = LINE('L126',#379,#380);
#382 = CARTESIAN_POINT('P127',(1270.0,0.0,0.0));
#383 = CARTESIAN_POINT('P127b',(1278.0,0.0,0.0));
#384 = LINE('L127',#382,#383);
#385 = CARTESIAN_POINT('P128',(1280.0,0.0,0.0));
#386 = CARTESIAN_POINT('P128b',(1288.0,0.0,0.0));
#387 = LINE('L128',#385,#386);
#388 = CARTESIAN_POINT('P129',(1290.0,0.0,0.0));
#389 = CARTESIAN_POINT('P129b',(1298.0,0.0,0.0));
#390 = LINE('L129',#388,#389);
#391 = CARTESIAN_POINT('P130',(1300.0,0.0,0.0));
#392 = CARTESIAN_POINT('P130b',(1308.0,0.0,0.0));
#393 = LINE('L130',#391,#392);
#394 = CARTESIAN_POINT('P131',(1310.0,0.0,0.0));
#395 = CARTESIAN_POINT('P131b',(1318.0,0.0,0.0));
#396 = LINE('L131',#394,#395);
#397 = CARTESIAN_POINT('P132',(1320.0,0.0,0.0));
#398 = CARTESIAN_POINT('P132b',(1328.0,0.0,0.0));
#399 = LINE('L132',#397,#398);
#400 = CARTESIAN_POINT('P133',(1330.0,0.0,0.0));
#401 = CARTESIAN_POINT('P133b',(1338.0,0.0,0.0));
#402 = LINE('L133',#400,#401);
#403 = CARTESIAN_POINT('P134',(1340.0,0.0,0.0));
#404 = CARTESIAN_POINT('P134b',(1348.0,0.0,0.0));
#405 = LINE('L134',#403,#404);
#406 = CARTESIAN_POINT('P135',(1350.0,0.0,0.0));
#407 = CARTESIAN_POINT('P135b',(1358.0,0.0,0.0));
#408 = LINE('L135',#406,#407);
#409 = CARTESIAN_POINT('P136',(1360.0,0.0,0.0));
#410 = CARTESIAN_POINT('P136b',(1368.0,0.0,0.0));
#411 = LINE('L136',#409,#410);
#412 = CARTESIAN_POINT('P137',(1370.0,0.0,0.0));
#413 = CARTESIAN_POINT('P137b',(1378.0,0.0,0.0));
#414 = LINE('L137',#412,#413);
#415 = CARTESIAN_POINT('P138',(1380.0,0.0,0.0));
#416 = CARTESIAN_POINT('P138b',(1388.0,0.0,0.0));
#417 = LINE('L138',#415,#416);
#418 = CARTESIAN_POINT('P139',(1390.0,0.0,0.0));
#419 = CARTESIAN_POINT('P139b',(1398.0,0.0,0.0));
#420 = LINE('L139',#418,#419);
#421 = CARTESIAN_POINT('P140',(1400.0,0.0,0.0));
#422 = CARTESIAN_POINT('P140b',(1408.0,0.0,0.0));
#423 = LINE('L140',#421,#422);
#424 = CARTESIAN_POINT('P141',(1410.0,0.0,0.0));
#425 = CARTESIAN_POINT('P141b',(1418.0,0.0,0.0));
#426 = LINE('L141',#424,#425);
#427 = CARTESIAN_POINT('P142',(1420.0,0.0,0.0));
#428 = CARTESIAN_POINT('P142b',(1428.0,0.0,0.0));
#429 = LINE('L142',#427,#428);
#430 = CARTESIAN_POINT('P143',(1430.0,0.0,0.0));
#431 = CARTESIAN_POINT('P143b',(1438.0,0.0,0.0));
#432 = LINE('L143',#430,#431);
#433 = CARTESIAN_POINT('P144',(1440.0,0.0,0.0));
#434 = CARTESIAN_POINT('P144b',(1448.0,0.0,0.0));
#435 = LINE('L144',#433,#434);
#436 = CARTESIAN_POINT('P145',(1450.0,0.0,0.0));
#437 = CARTESIAN_POINT('P145b',(1458.0,0.0,0.0));
#438 = LINE('L145',#436,#437);
#439 = CARTESIAN_POINT('P146',(1460.0,0.0,0.0));
#440 = CARTESIAN_POINT('P146b',(1468.0,0.0,0.0));
#441 = LINE('L146',#439,#440);
#442 = CARTESIAN_POINT('P147',(1470.0,0.0,0.0));
#443 = CARTESIAN_POINT('P147b',(1478.0,0.0,0.0));
#444 = LINE('L147',#442,#443);
#445 = CARTESIAN_POINT('P148',(1480.0,0.0,0.0));
#446 = CARTESIAN_POINT('P148b',(1488.0,0.0,0.0));
#447 = LINE('L148',#445,#446);
#448 = CARTESIAN_POINT('P149',(1490.0,0.0,0.0));
#449 = CARTESIAN_POINT('P149b',(1498.0,0.0,0.0));
#450 = LINE('L149',#448,#449);
#451 = CARTESIAN_POINT('P150',(1500.0,0.0,0.0));
#452 = CARTESIAN_POINT('P150b',(1508.0,0.0,0.0));
#453 = LINE('L150',#451,#452);
#454 = CARTESIAN_POINT('P151',(1510.0,0.0,0.0));
#455 = CARTESIAN_POINT('P151b',(1518.0,0.0,0.0));
#456 = LINE('L151',#454,#455);
#457 = CARTESIAN_POINT('P152',(1520.0,0.0,0.0));
#458 = CARTESIAN_POINT('P152b',(1528.0,0.0,0.0));
#459 = LINE('L152',#457,#458);
#460 = CARTESIAN_POINT('P153',(1530.0,0.0,0.0));
#461 = CARTESIAN_POINT('P153b',(1538.0,0.0,0.0));
#462 = LINE('L153',#460,#461);
#463 = CARTESIAN_POINT('P154',(1540.0,0.0,0.0));
#464 = CARTESIAN_POINT('P154b',(1548.0,0.0,0.0));
#465 = LINE('L154',#463,#464);
#466 = CARTESIAN_POINT('P155',(1550.0,0.0,0.0));
#467 = CARTESIAN_POINT('P155b',(1558.0,0.0,0.0));
#468 = LINE('L155',#466,#467);
#469 = CARTESIAN_POINT('P156',(1560.0,0.0,0.0));
#470 = CARTESIAN_POINT('P156b',(1568.0,0.0,0.0));
#471 = LINE('L156',#469,#470);
#472 = CARTESIAN_POINT('P157',(1570.0,0.0,0.0));
#473 = CARTESIAN_POINT('P157b',(1578.0,0.0,0.0));
#474 = LINE('L157',#472,#473);
#475 = CARTESIAN_POINT('P158',(1580.0,0.0,0.0));
#476 = CARTESIAN_POINT('P158b',(1588.0,0.0,0.0));
#477 = LINE('L158',#475,#476);
#478 = CARTESIAN_POINT('P159',(1590.0,0.0,0.0));
#479 = CARTESIAN_POINT('P159b',(1598.0,0.0,0.0));
#480 = LINE('L159',#478,#479);
#481 = CARTESIAN_POINT('P160',(1600.0,0.0,0.0));
#482 = CARTESIAN_POINT('P160b',(1608.0,0.0,0.0));
#483 = LINE('L160',#481,#482);
#484 = CARTESIAN_POINT('P161',(1610.0,0.0,0.0));
#485 = CARTESIAN_POINT('P161b',(1618.0,0.0,0.0));
#486 = LINE('L161',#484,#485);
#487 = CARTESIAN_POINT('P162',(1620.0,0.0,0.0));
#488 = CARTESIAN_POINT('P162b',(1628.0,0.0,0.0));
#489 = LINE('L162',#487,#488);
#490 = CARTESIAN_POINT('P163',(1630.0,0.0,0.0));
#491 = CARTESIAN_POINT('P163b',(1638.0,0.0,0.0));
#492 = LINE('L163',#490,#491);
#493 = CARTESIAN_POINT('P164',(1640.0,0.0,0.0));
#494 = CARTESIAN_POINT('P164b',(1648.0,0.0,0.0));
#495 = LINE('L164',#493,#494);
#496 = CARTESIAN_POINT('P165',(1650.0,0.0,0.0));
#497 = CARTESIAN_POINT('P165b',(1658.0,0.0,0.0));
#498 = LINE('L165',#496,#497);
#499 = CARTESIAN_POINT('P166',(1660.0,0.0,0.0));
#500 = CARTESIAN_POINT('P166b',(1668.0,0.0,0.0));
#501 = LINE('L166',#499,#500);
#502 = CARTESIAN_POINT('P167',(1670.0,0.0,0.0));
#503 = CARTESIAN_POINT('P167b',(1678.0,0.0,0.0));
#504 = LINE('L167',#502,#503);
#505 = CARTESIAN_POINT('P168',(1680.0,0.0,0.0));
#506 = CARTESIAN_POINT('P168b',(1688.0,0.0,0.0));
#507 = LINE('L168',#505,#506);
#508 = CARTESIAN_POINT('P169',(1690.0,0.0,0.0));
#509 = CARTESIAN_POINT('P169b',(1698.0,0.0,0.0));
#510 = LINE('L169',#508,#509);
#511 = CARTESIAN_POINT('P170',(1700.0,0.0,0.0));
#512 = CARTESIAN_POINT('P170b',(1708.0,0.0,0.0));
#513 = LINE('L170',#511,#512);
#514 = CARTESIAN_POINT('P171',(1710.0,0.0,0.0));
#515 = CARTESIAN_POINT('P171b',(1718.0,0.0,0.0));
#516 = LINE('L171',#514,#515);
#517 = CARTESIAN_POINT('P172',(1720.0,0.0,0.0));
#518 = CARTESIAN_POINT('P172b',(1728.0,0.0,0.0));
#519 = LINE('L172',#517,#518);
#520 = CARTESIAN_POINT('P173',(1730.0,0.0,0.0));
#521 = CARTESIAN_POINT('P173b',(1738.0,0.0,0.0));
#522 = LINE('L173',#520,#521);
#523 = CARTESIAN_POINT('P174',(1740.0,0.0,0.0));
#524 = CARTESIAN_POINT('P174b',(1748.0,0.0,0.0));
#525 = LINE('L174',#523,#524);
#526 = CARTESIAN_POINT('P175',(1750.0,0.0,0.0));
#527 = CARTESIAN_POINT('P175b',(1758.0,0.0,0.0));
#528 = LINE('L175',#526,#527);
#529 = CARTESIAN_POINT('P176',(1760.0,0.0,0.0));
#530 = CARTESIAN_POINT('P176b',(1768.0,0.0,0.0));
#531 = LINE('L176',#529,#530);
#532 = CARTESIAN_POINT('P177',(1770.0,0.0,0.0));
#533 = CARTESIAN_POINT('P177b',(1778.0,0.0,0.0));
#534 = LINE('L177',#532,#533);
#535 = CARTESIAN_POINT('P178',(1780.0,0.0,0.0));
#536 = CARTESIAN_POINT('P178b',(1788.0,0.0,0.0));
#537 = LINE('L178',#535,#536);
#538 = CARTESIAN_POINT('P179',(1790.0,0.0,0.0));
#539 = CARTESIAN_POINT('P179b',(1798.0,0.0,0.0));
#540 = LINE('L179',#538,#539);
#541 = CARTESIAN_POINT('P180',(1800.0,0.0,0.0));
#542 = CARTESIAN_POINT('P180b',(1808.0,0.0,0.0));
#543 = LINE('L180',#541,#542);
#544 = CARTESIAN_POINT('P181',(1810.0,0.0,0.0));
#545 = CARTESIAN_POINT('P181b',(1818.0,0.0,0.0));
#546 = LINE('L181',#544,#545);
#547 = CARTESIAN_POINT('P182',(1820.0,0.0,0.0));
#548 = CARTESIAN_POINT('P182b',(1828.0,0.0,0.0));
#549 = LINE('L182',#547,#548);
#550 = CARTESIAN_POINT('P183',(1830.0,0.0,0.0));
#551 = CARTESIAN_POINT('P183b',(1838.0,0.0,0.0));
#552 = LINE('L183',#550,#551);
#553 = CARTESIAN_POINT('P184',(1840.0,0.0,0.0));
#554 = CARTESIAN_POINT('P184b',(1848.0,0.0,0.0));
#555 = LINE('L184',#553,#554);
#556 = CARTESIAN_POINT('P185',(1850.0,0.0,0.0));
#557 = CARTESIAN_POINT('P185b',(1858.0,0.0,0.0));
#558 = LINE('L185',#556,#557);
#559 = CARTESIAN_POINT('P186',(1860.0,0.0,0.0));
#560 = CARTESIAN_POINT('P186b',(1868.0,0.0,0.0));
#561 = LINE('L186',#559,#560);
#562 = CARTESIAN_POINT('P187',(1870.0,0.0,0.0));
#563 = CARTESIAN_POINT('P187b',(1878.0,0.0,0.0));
#564 = LINE('L187',#562,#563);
#565 = CARTESIAN_POINT('P188',(1880.0,0.0,0.0));
#566 = CARTESIAN_POINT('P188b',(1888.0,0.0,0.0));
#567 = LINE('L188',#565,#566);
#568 = CARTESIAN_POINT('P189',(1890.0,0.0,0.0));
#569 = CARTESIAN_POINT('P189b',(1898.0,0.0,0.0));
#570 = LINE('L189',#568,#569);
#571 = CARTESIAN_POINT('P190',(1900.0,0.0,0.0));
#572 = CARTESIAN_POINT('P190b',(1908.0,0.0,0.0));
#573 = LINE('L190',#571,#572);
#574 = CARTESIAN_POINT('P191',(1910.0,0.0,0.0));
#575 = CARTESIAN_POINT('P191b',(1918.0,0.0,0.0));
#576 = LINE('L191',#574,#575);
#577 = CARTESIAN_POINT('P192',(1920.0,0.0,0.0));
#578 = CARTESIAN_POINT('P192b',(1928.0,0.0,0.0));
#579 = LINE('L192',#577,#578);
#580 = CARTESIAN_POINT('P193',(1930.0,0.0,0.0));
#581 = CARTESIAN_POINT('P193b',(1938.0,0.0,0.0));
#582 = LINE('L193',#580,#581);
#583 = CARTESIAN_POINT('P194',(1940.0,0.0,0.0));
#584 = CARTESIAN_POINT('P194b',(1948.0,0.0,0.0));
#585 = LINE('L194',#583,#584);
#586 = CARTESIAN_POINT('P195',(1950.0,0.0,0.0));
#587 = CARTESIAN_POINT('P195b',(1958.0,0.0,0.0));
#588 = LINE('L195',#586,#587);
#589 = CARTESIAN_POINT('P196',(1960.0,0.0,0.0));
#590 = CARTESIAN_POINT('P196b',(1968.0,0.0,0.0));
#591 = LINE('L196',#589,#590);
#592 = CARTESIAN_POINT('P197',(1970.0,0.0,0.0));
#593 = CARTESIAN_POINT('P197b',(1978.0,0.0,0.0));
#594 = LINE('L197',#592,#593);
#595 = CARTESIAN_POINT('P198',(1980.0,0.0,0.0));
#596 = CARTESIAN_POINT('P198b',(1988.0,0.0,0.0));
#597 = LINE('L198',#595,#596);
#598 = CARTESIAN_POINT('P199',(1990.0,0.0,0.0));
#599 = CARTESIAN_POINT('P199b',(1998.0,0.0,0.0));
#600 = LINE('L199',#598,#599);
#601 = CARTESIAN_POINT('P200',(2000.0,0.0,0.0));
#602 = CARTESIAN_POINT('P200b',(2008.0,0.0,0.0));
#603 = LINE('L200',#601,#602);
#604 = CARTESIAN_POINT('P201',(2010.0,0.0,0.0));
#605 = CARTESIAN_POINT('P201b',(2018.0,0.0,0.0));
#606 = LINE('L201',#604,#605);
#607 = CARTESIAN_POINT('P202',(2020.0,0.0,0.0));
#608 = CARTESIAN_POINT('P202b',(2028.0,0.0,0.0));
#609 = LINE('L202',#607,#608);
#610 = CARTESIAN_POINT('P203',(2030.0,0.0,0.0));
#611 = CARTESIAN_POINT('P203b',(2038.0,0.0,0.0));
#612 = LINE('L203',#610,#611);
#613 = CARTESIAN_POINT('P204',(2040.0,0.0,0.0));
#614 = CARTESIAN_POINT('P204b',(2048.0,0.0,0.0));
#615 = LINE('L204',#613,#614);
#616 = CARTESIAN_POINT('P205',(2050.0,0.0,0.0));
#617 = CARTESIAN_POINT('P205b',(2058.0,0.0,0.0));
#618 = LINE('L205',#616,#617);
#619 = CARTESIAN_POINT('P206',(2060.0,0.0,0.0));
#620 = CARTESIAN_POINT('P206b',(2068.0,0.0,0.0));
#621 = LINE('L206',#619,#620);
#622 = CARTESIAN_POINT('P207',(2070.0,0.0,0.0));
#623 = CARTESIAN_POINT('P207b',(2078.0,0.0,0.0));
#624 = LINE('L207',#622,#623);
#625 = CARTESIAN_POINT('P208',(2080.0,0.0,0.0));
#626 = CARTESIAN_POINT('P208b',(2088.0,0.0,0.0));
#627 = LINE('L208',#625,#626);
#628 = CARTESIAN_POINT('P209',(2090.0,0.0,0.0));
#629 = CARTESIAN_POINT('P209b',(2098.0,0.0,0.0));
#630 = LINE('L209',#628,#629);
#631 = CARTESIAN_POINT('P210',(2100.0,0.0,0.0));
#632 = CARTESIAN_POINT('P210b',(2108.0,0.0,0.0));
#633 = LINE('L210',#631,#632);
#634 = CARTESIAN_POINT('P211',(2110.0,0.0,0.0));
#635 = CARTESIAN_POINT('P211b',(2118.0,0.0,0.0));
#636 = LINE('L211',#634,#635);
#637 = CARTESIAN_POINT('P212',(2120.0,0.0,0.0));
#638 = CARTESIAN_POINT('P212b',(2128.0,0.0,0.0));
#639 = LINE('L212',#637,#638);
#640 = CARTESIAN_POINT('P213',(2130.0,0.0,0.0));
#641 = CARTESIAN_POINT('P213b',(2138.0,0.0,0.0));
#642 = LINE('L213',#640,#641);
#643 = CARTESIAN_POINT('P214',(2140.0,0.0,0.0));
#644 = CARTESIAN_POINT('P214b',(2148.0,0.0,0.0));
#645 = LINE('L214',#643,#644);
#646 = CARTESIAN_POINT('P215',(2150.0,0.0,0.0));
#647 = CARTESIAN_POINT('P215b',(2158.0,0.0,0.0));
#648 = LINE('L215',#646,#647);
#649 = CARTESIAN_POINT('P216',(2160.0,0.0,0.0));
#650 = CARTESIAN_POINT('P216b',(2168.0,0.0,0.0));
#651 = LINE('L216',#649,#650);
#652 = CARTESIAN_POINT('P217',(2170.0,0.0,0.0));
#653 = CARTESIAN_POINT('P217b',(2178.0,0.0,0.0));
#654 = LINE('L217',#652,#653);
#655 = CARTESIAN_POINT('P218',(2180.0,0.0,0.0));
#656 = CARTESIAN_POINT('P218b',(2188.0,0.0,0.0));
#657 = LINE('L218',#655,#656);
#658 = CARTESIAN_POINT('P219',(2190.0,0.0,0.0));
#659 = CARTESIAN_POINT('P219b',(2198.0,0.0,0.0));
#660 = LINE('L219',#658,#659);
#661 = CARTESIAN_POINT('P220',(2200.0,0.0,0.0));
#662 = CARTESIAN_POINT('P220b',(2208.0,0.0,0.0));
#663 = LINE('L220',#661,#662);
#664 = CARTESIAN_POINT('P221',(2210.0,0.0,0.0));
#665 = CARTESIAN_POINT('P221b',(2218.0,0.0,0.0));
#666 = LINE('L221',#664,#665);
#667 = CARTESIAN_POINT('P222',(2220.0,0.0,0.0));
#668 = CARTESIAN_POINT('P222b',(2228.0,0.0,0.0));
#669 = LINE('L222',#667,#668);
#670 = CARTESIAN_POINT('P223',(2230.0,0.0,0.0));
#671 = CARTESIAN_POINT('P223b',(2238.0,0.0,0.0));
#672 = LINE('L223',#670,#671);
#673 = CARTESIAN_POINT('P224',(2240.0,0.0,0.0));
#674 = CARTESIAN_POINT('P224b',(2248.0,0.0,0.0));
#675 = LINE('L224',#673,#674);
#676 = CARTESIAN_POINT('P225',(2250.0,0.0,0.0));
#677 = CARTESIAN_POINT('P225b',(2258.0,0.0,0.0));
#678 = LINE('L225',#676,#677);
#679 = CARTESIAN_POINT('P226',(2260.0,0.0,0.0));
#680 = CARTESIAN_POINT('P226b',(2268.0,0.0,0.0));
#681 = LINE('L226',#679,#680);
#682 = CARTESIAN_POINT('P227',(2270.0,0.0,0.0));
#683 = CARTESIAN_POINT('P227b',(2278.0,0.0,0.0));
#684 = LINE('L227',#682,#683);
#685 = CARTESIAN_POINT('P228',(2280.0,0.0,0.0));
#686 = CARTESIAN_POINT('P228b',(2288.0,0.0,0.0));
#687 = LINE('L228',#685,#686);
#688 = CARTESIAN_POINT('P229',(2290.0,0.0,0.0));
#689 = CARTESIAN_POINT('P229b',(2298.0,0.0,0.0));
#690 = LINE('L229',#688,#689);
#691 = CARTESIAN_POINT('P230',(2300.0,0.0,0.0));
#692 = CARTESIAN_POINT('P230b',(2308.0,0.0,0.0));
#693 = LINE('L230',#691,#692);
#694 = CARTESIAN_POINT('P231',(2310.0,0.0,0.0));
#695 = CARTESIAN_POINT('P231b',(2318.0,0.0,0.0));
#696 = LINE('L231',#694,#695);
#697 = CARTESIAN_POINT('P232',(2320.0,0.0,0.0));
#698 = CARTESIAN_POINT('P232b',(2328.0,0.0,0.0));
#699 = LINE('L232',#697,#698);
#700 = CARTESIAN_POINT('P233',(2330.0,0.0,0.0));
#701 = CARTESIAN_POINT('P233b',(2338.0,0.0,0.0));
#702 = LINE('L233',#700,#701);
#703 = CARTESIAN_POINT('P234',(2340.0,0.0,0.0));
#704 = CARTESIAN_POINT('P234b',(2348.0,0.0,0.0));
#705 = LINE('L234',#703,#704);
#706 = CARTESIAN_POINT('P235',(2350.0,0.0,0.0));
#707 = CARTESIAN_POINT('P235b',(2358.0,0.0,0.0));
#708 = LINE('L235',#706,#707);
#709 = CARTESIAN_POINT('P236',(2360.0,0.0,0.0));
#710 = CARTESIAN_POINT('P236b',(2368.0,0.0,0.0));
#711 = LINE('L236',#709,#710);
#712 = CARTESIAN_POINT('P237',(2370.0,0.0,0.0));
#713 = CARTESIAN_POINT('P237b',(2378.0,0.0,0.0));
#714 = LINE('L237',#712,#713);
#715 = CARTESIAN_POINT('P238',(2380.0,0.0,0.0));
#716 = CARTESIAN_POINT('P238b',(2388.0,0.0,0.0));
#717 = LINE('L238',#715,#716);
#718 = CARTESIAN_POINT('P239',(2390.0,0.0,0.0));
#719 = CARTESIAN_POINT('P239b',(2398.0,0.0,0.0));
#720 = LINE('L239',#718,#719);
#721 = CARTESIAN_POINT('P240',(2400.0,0.0,0.0));
#722 = CARTESIAN_POINT('P240b',(2408.0,0.0,0.0));
#723 = LINE('L240',#721,#722);
#724 = CARTESIAN_POINT('P241',(2410.0,0.0,0.0));
#725 = CARTESIAN_POINT('P241b',(2418.0,0.0,0.0));
#726 = LINE('L241',#724,#725);
#727 = CARTESIAN_POINT('P242',(2420.0,0.0,0.0));
#728 = CARTESIAN_POINT('P242b',(2428.0,0.0,0.0));
#729 = LINE('L242',#727,#728);
#730 = CARTESIAN_POINT('P243',(2430.0,0.0,0.0));
#731 = CARTESIAN_POINT('P243b',(2438.0,0.0,0.0));
#732 = LINE('L243',#730,#731);
#733 = CARTESIAN_POINT('P244',(2440.0,0.0,0.0));
#734 = CARTESIAN_POINT('P244b',(2448.0,0.0,0.0));
#735 = LINE('L244',#733,#734);
#736 = CARTESIAN_POINT('P245',(2450.0,0.0,0.0));
#737 = CARTESIAN_POINT('P245b',(2458.0,0.0,0.0));
#738 = LINE('L245',#736,#737);
#739 = CARTESIAN_POINT('P246',(2460.0,0.0,0.0));
#740 = CARTESIAN_POINT('P246b',(2468.0,0.0,0.0));
#741 = LINE('L246',#739,#740);
#742 = CARTESIAN_POINT('P247',(2470.0,0.0,0.0));
#743 = CARTESIAN_POINT('P247b',(2478.0,0.0,0.0));
#744 = LINE('L247',#742,#743);
#745 = CARTESIAN_POINT('P248',(2480.0,0.0,0.0));
#746 = CARTESIAN_POINT('P248b',(2488.0,0.0,0.0));
#747 = LINE('L248',#745,#746);
#748 = CARTESIAN_POINT('P249',(2490.0,0.0,0.0));
#749 = CARTESIAN_POINT('P249b',(2498.0,0.0,0.0));
#750 = LINE('L249',#748,#749);
#751 = CARTESIAN_POINT('P250',(2500.0,0.0,0.0));
#752 = CARTESIAN_POINT('P250b',(2508.0,0.0,0.0));
#753 = LINE('L250',#751,#752);
#754 = CARTESIAN_POINT('P251',(2510.0,0.0,0.0));
#755 = CARTESIAN_POINT('P251b',(2518.0,0.0,0.0));
#756 = LINE('L251',#754,#755);
#757 = CARTESIAN_POINT('P252',(2520.0,0.0,0.0));
#758 = CARTESIAN_POINT('P252b',(2528.0,0.0,0.0));
#759 = LINE('L252',#757,#758);
#760 = CARTESIAN_POINT('P253',(2530.0,0.0,0.0));
#761 = CARTESIAN_POINT('P253b',(2538.0,0.0,0.0));
#762 = LINE('L253',#760,#761);
#763 = CARTESIAN_POINT('P254',(2540.0,0.0,0.0));
#764 = CARTESIAN_POINT('P254b',(2548.0,0.0,0.0));
#765 = LINE('L254',#763,#764);
#766 = CARTESIAN_POINT('P255',(2550.0,0.0,0.0));
#767 = CARTESIAN_POINT('P255b',(2558.0,0.0,0.0));
#768 = LINE('L255',#766,#767);
#769 = CARTESIAN_POINT('P256',(2560.0,0.0,0.0));
#770 = CARTESIAN_POINT('P256b',(2568.0,0.0,0.0));
#771 = LINE('L256',#769,#770);
#772 = CARTESIAN_POINT('P257',(2570.0,0.0,0.0));
#773 = CARTESIAN_POINT('P257b',(2578.0,0.0,0.0));
#774 = LINE('L257',#772,#773);
#775 = CARTESIAN_POINT('P258',(2580.0,0.0,0.0));
#776 = CARTESIAN_POINT('P258b',(2588.0,0.0,0.0));
#777 = LINE('L258',#775,#776);
#778 = CARTESIAN_POINT('P259',(2590.0,0.0,0.0));
#779 = CARTESIAN_POINT('P259b',(2598.0,0.0,0.0));
#780 = LINE('L259',#778,#779);
#781 = CARTESIAN_POINT('P260',(2600.0,0.0,0.0));
#782 = CARTESIAN_POINT('P260b',(2608.0,0.0,0.0));
#783 = LINE('L260',#781,#782);
#784 = CARTESIAN_POINT('P261',(2610.0,0.0,0.0));
#785 = CARTESIAN_POINT('P261b',(2618.0,0.0,0.0));
#786 = LINE('L261',#784,#785);
#787 = CARTESIAN_POINT('P262',(2620.0,0.0,0.0));
#788 = CARTESIAN_POINT('P262b',(2628.0,0.0,0.0));
#789 = LINE('L262',#787,#788);
#790 = CARTESIAN_POINT('P263',(2630.0,0.0,0.0));
#791 = CARTESIAN_POINT('P263b',(2638.0,0.0,0.0));
#792 = LINE('L263',#790,#791);
#793 = CARTESIAN_POINT('P264',(2640.0,0.0,0.0));
#794 = CARTESIAN_POINT('P264b',(2648.0,0.0,0.0));
#795 = LINE('L264',#793,#794);
#796 = CARTESIAN_POINT('P265',(2650.0,0.0,0.0));
#797 = CARTESIAN_POINT('P265b',(2658.0,0.0,0.0));
#798 = LINE('L265',#796,#797);
#799 = CARTESIAN_POINT('P266',(2660.0,0.0,0.0));
#800 = CARTESIAN_POINT('P266b',(2668.0,0.0,0.0));
#801 = LINE('L266',#799,#800);
#802 = CARTESIAN_POINT('P267',(2670.0,0.0,0.0));
#803 = CARTESIAN_POINT('P267b',(2678.0,0.0,0.0));
#804 = LINE('L267',#802,#803);
#805 = CARTESIAN_POINT('P268',(2680.0,0.0,0.0));
#806 = CARTESIAN_POINT('P268b',(2688.0,0.0,0.0));
#807 = LINE('L268',#805,#806);
#808 = CARTESIAN_POINT('P269',(2690.0,0.0,0.0));
#809 = CARTESIAN_POINT('P269b',(2698.0,0.0,0.0));
#810 = LINE('L269',#808,#809);
#811 = CARTESIAN_POINT('P270',(2700.0,0.0,0.0));
#812 = CARTESIAN_POINT('P270b',(2708.0,0.0,0.0));
#813 = LINE('L270',#811,#812);
#814 = CARTESIAN_POINT('P271',(2710.0,0.0,0.0));
#815 = CARTESIAN_POINT('P271b',(2718.0,0.0,0.0));
#816 = LINE('L271',#814,#815);
#817 = CARTESIAN_POINT('P272',(2720.0,0.0,0.0));
#818 = CARTESIAN_POINT('P272b',(2728.0,0.0,0.0));
#819 = LINE('L272',#817,#818);
#820 = CARTESIAN_POINT('P273',(2730.0,0.0,0.0));
#821 = CARTESIAN_POINT('P273b',(2738.0,0.0,0.0));
#822 = LINE('L273',#820,#821);
#823 = CARTESIAN_POINT('P274',(2740.0,0.0,0.0));
#824 = CARTESIAN_POINT('P274b',(2748.0,0.0,0.0));
#825 = LINE('L274',#823,#824);
#826 = CARTESIAN_POINT('P275',(2750.0,0.0,0.0));
#827 = CARTESIAN_POINT('P275b',(2758.0,0.0,0.0));
#828 = LINE('L275',#826,#827);
#829 = CARTESIAN_POINT('P276',(2760.0,0.0,0.0));
#830 = CARTESIAN_POINT('P276b',(2768.0,0.0,0.0));
#831 = LINE('L276',#829,#830);
#832 = CARTESIAN_POINT('P277',(2770.0,0.0,0.0));
#833 = CARTESIAN_POINT('P277b',(2778.0,0.0,0.0));
#834 = LINE('L277',#832,#833);
#835 = CARTESIAN_POINT('P278',(2780.0,0.0,0.0));
#836 = CARTESIAN_POINT('P278b',(2788.0,0.0,0.0));
#837 = LINE('L278',#835,#836);
#838 = CARTESIAN_POINT('P279',(2790.0,0.0,0.0));
#839 = CARTESIAN_POINT('P279b',(2798.0,0.0,0.0));
#840 = LINE('L279',#838,#839);
#841 = CARTESIAN_POINT('P280',(2800.0,0.0,0.0));
#842 = CARTESIAN_POINT('P280b',(2808.0,0.0,0.0));
#843 = LINE('L280',#841,#842);
#844 = CARTESIAN_POINT('P281',(2810.0,0.0,0.0));
#845 = CARTESIAN_POINT('P281b',(2818.0,0.0,0.0));
#846 = LINE('L281',#844,#845);
#847 = CARTESIAN_POINT('P282',(2820.0,0.0,0.0));
#848 = CARTESIAN_POINT('P282b',(2828.0,0.0,0.0));
#849 = LINE('L282',#847,#848);
#850 = CARTESIAN_POINT('P283',(2830.0,0.0,0.0));
#851 = CARTESIAN_POINT('P283b',(2838.0,0.0,0.0));
#852 = LINE('L283',#850,#851);
#853 = CARTESIAN_POINT('P284',(2840.0,0.0,0.0));
#854 = CARTESIAN_POINT('P284b',(2848.0,0.0,0.0));
#855 = LINE('L284',#853,#854);
#856 = CARTESIAN_POINT('P285',(2850.0,0.0,0.0));
#857 = CARTESIAN_POINT('P285b',(2858.0,0.0,0.0));
#858 = LINE('L285',#856,#857);
#859 = CARTESIAN_POINT('P286',(2860.0,0.0,0.0));
#860 = CARTESIAN_POINT('P286b',(2868.0,0.0,0.0));
#861 = LINE('L286',#859,#860);
#862 = CARTESIAN_POINT('P287',(2870.0,0.0,0.0));
#863 = CARTESIAN_POINT('P287b',(2878.0,0.0,0.0));
#864 = LINE('L287',#862,#863);
#865 = CARTESIAN_POINT('P288',(2880.0,0.0,0.0));
#866 = CARTESIAN_POINT('P288b',(2888.0,0.0,0.0));
#867 = LINE('L288',#865,#866);
#868 = CARTESIAN_POINT('P289',(2890.0,0.0,0.0));
#869 = CARTESIAN_POINT('P289b',(2898.0,0.0,0.0));
#870 = LINE('L289',#868,#869);
#871 = CARTESIAN_POINT('P290',(2900.0,0.0,0.0));
#872 = CARTESIAN_POINT('P290b',(2908.0,0.0,0.0));
#873 = LINE('L290',#871,#872);
#874 = CARTESIAN_POINT('P291',(2910.0,0.0,0.0));
#875 = CARTESIAN_POINT('P291b',(2918.0,0.0,0.0));
#876 = LINE('L291',#874,#875);
#877 = CARTESIAN_POINT('P292',(2920.0,0.0,0.0));
#878 = CARTESIAN_POINT('P292b',(2928.0,0.0,0.0));
#879 = LINE('L292',#877,#878);
#880 = CARTESIAN_POINT('P293',(2930.0,0.0,0.0));
#881 = CARTESIAN_POINT('P293b',(2938.0,0.0,0.0));
#882 = LINE('L293',#880,#881);
#883 = CARTESIAN_POINT('P294',(2940.0,0.0,0.0));
#884 = CARTESIAN_POINT('P294b',(2948.0,0.0,0.0));
#885 = LINE('L294',#883,#884);
#886 = CARTESIAN_POINT('P295',(2950.0,0.0,0.0));
#887 = CARTESIAN_POINT('P295b',(2958.0,0.0,0.0));
#888 = LINE('L295',#886,#887);
#889 = CARTESIAN_POINT('P296',(2960.0,0.0,0.0));
#890 = CARTESIAN_POINT('P296b',(2968.0,0.0,0.0));
#891 = LINE('L296',#889,#890);
#892 = CARTESIAN_POINT('P297',(2970.0,0.0,0.0));
#893 = CARTESIAN_POINT('P297b',(2978.0,0.0,0.0));
#894 = LINE('L297',#892,#893);
#895 = CARTESIAN_POINT('P298',(2980.0,0.0,0.0));
#896 = CARTESIAN_POINT('P298b',(2988.0,0.0,0.0));
#897 = LINE('L298',#895,#896);
#898 = CARTESIAN_POINT('P299',(2990.0,0.0,0.0));
#899 = CARTESIAN_POINT('P299b',(2998.0,0.0,0.0));
#900 = LINE('L299',#898,#899);
#901 = CARTESIAN_POINT('P300',(3000.0,0.0,0.0));
#902 = CARTESIAN_POINT('P300b',(3008.0,0.0,0.0));
#903 = LINE('L300',#901,#902);
#904 = CARTESIAN_POINT('P301',(3010.0,0.0,0.0));
#905 = CARTESIAN_POINT('P301b',(3018.0,0.0,0.0));
#906 = LINE('L301',#904,#905);
#907 = CARTESIAN_POINT('P302',(3020.0,0.0,0.0));
#908 = CARTESIAN_POINT('P302b',(3028.0,0.0,0.0));
#909 = LINE('L302',#907,#908);
#910 = CARTESIAN_POINT('P303',(3030.0,0.0,0.0));
#911 = CARTESIAN_POINT('P303b',(3038.0,0.0,0.0));
#912 = LINE('L303',#910,#911);
#913 = CARTESIAN_POINT('P304',(3040.0,0.0,0.0));
#914 = CARTESIAN_POINT('P304b',(3048.0,0.0,0.0));
#915 = LINE('L304',#913,#914);
#916 = CARTESIAN_POINT('P305',(3050.0,0.0,0.0));
#917 = CARTESIAN_POINT('P305b',(3058.0,0.0,0.0));
#918 = LINE('L305',#916,#917);
#919 = CARTESIAN_POINT('P306',(3060.0,0.0,0.0));
#920 = CARTESIAN_POINT('P306b',(3068.0,0.0,0.0));
#921 = LINE('L306',#919,#920);
#922 = CARTESIAN_POINT('P307',(3070.0,0.0,0.0));
#923 = CARTESIAN_POINT('P307b',(3078.0,0.0,0.0));
#924 = LINE('L307',#922,#923);
#925 = CARTESIAN_POINT('P308',(3080.0,0.0,0.0));
#926 = CARTESIAN_POINT('P308b',(3088.0,0.0,0.0));
#927 = LINE('L308',#925,#926);
#928 = CARTESIAN_POINT('P309',(3090.0,0.0,0.0));
#929 = CARTESIAN_POINT('P309b',(3098.0,0.0,0.0));
#930 = LINE('L309',#928,#929);
#931 = CARTESIAN_POINT('P310',(3100.0,0.0,0.0));
#932 = CARTESIAN_POINT('P310b',(3108.0,0.0,0.0));
#933 = LINE('L310',#931,#932);
#934 = CARTESIAN_POINT('P311',(3110.0,0.0,0.0));
#935 = CARTESIAN_POINT('P311b',(3118.0,0.0,0.0));
#936 = LINE('L311',#934,#935);
#937 = CARTESIAN_POINT('P312',(3120.0,0.0,0.0));
#938 = CARTESIAN_POINT('P312b',(3128.0,0.0,0.0));
#939 = LINE('L312',#937,#938);
#940 = CARTESIAN_POINT('P313',(3130.0,0.0,0.0));
#941 = CARTESIAN_POINT('P313b',(3138.0,0.0,0.0));
#942 = LINE('L313',#940,#941);
#943 = CARTESIAN_POINT('P314',(3140.0,0.0,0.0));
#944 = CARTESIAN_POINT('P314b',(3148.0,0.0,0.0));
#945 = LINE('L314',#943,#944);
#946 = CARTESIAN_POINT('P315',(3150.0,0.0,0.0));
#947 = CARTESIAN_POINT('P315b',(3158.0,0.0,0.0));
#948 = LINE('L315',#946,#947);
#949 = CARTESIAN_POINT('P316',(3160.0,0.0,0.0));
#950 = CARTESIAN_POINT('P316b',(3168.0,0.0,0.0));
#951 = LINE('L316',#949,#950);
#952 = CARTESIAN_POINT('P317',(3170.0,0.0,0.0));
#953 = CARTESIAN_POINT('P317b',(3178.0,0.0,0.0));
#954 = LINE('L317',#952,#953);
#955 = CARTESIAN_POINT('P318',(3180.0,0.0,0.0));
#956 = CARTESIAN_POINT('P318b',(3188.0,0.0,0.0));
#957 = LINE('L318',#955,#956);
#958 = CARTESIAN_POINT('P319',(3190.0,0.0,0.0));
#959 = CARTESIAN_POINT('P319b',(3198.0,0.0,0.0));
#960 = LINE('L319',#958,#959);
#961 = CARTESIAN_POINT('P320',(3200.0,0.0,0.0));
#962 = CARTESIAN_POINT('P320b',(3208.0,0.0,0.0));
#963 = LINE('L320',#961,#962);
#964 = CARTESIAN_POINT('P321',(3210.0,0.0,0.0));
#965 = CARTESIAN_POINT('P321b',(3218.0,0.0,0.0));
#966 = LINE('L321',#964,#965);
#967 = CARTESIAN_POINT('P322',(3220.0,0.0,0.0));
#968 = CARTESIAN_POINT('P322b',(3228.0,0.0,0.0));
#969 = LINE('L322',#967,#968);
#970 = CARTESIAN_POINT('P323',(3230.0,0.0,0.0));
#971 = CARTESIAN_POINT('P323b',(3238.0,0.0,0.0));
#972 = LINE('L323',#970,#971);
#973 = CARTESIAN_POINT('P324',(3240.0,0.0,0.0));
#974 = CARTESIAN_POINT('P324b',(3248.0,0.0,0.0));
#975 = LINE('L324',#973,#974);
#976 = CARTESIAN_POINT('P325',(3250.0,0.0,0.0));
#977 = CARTESIAN_POINT('P325b',(3258.0,0.0,0.0));
#978 = LINE('L325',#976,#977);
#979 = CARTESIAN_POINT('P326',(3260.0,0.0,0.0));
#980 = CARTESIAN_POINT('P326b',(3268.0,0.0,0.0));
#981 = LINE('L326',#979,#980);
#982 = CARTESIAN_POINT('P327',(3270.0,0.0,0.0));
#983 = CARTESIAN_POINT('P327b',(3278.0,0.0,0.0));
#984 = LINE('L327',#982,#983);
#985 = CARTESIAN_POINT('P328',(3280.0,0.0,0.0));
#986 = CARTESIAN_POINT('P328b',(3288.0,0.0,0.0));
#987 = LINE('L328',#985,#986);
#988 = CARTESIAN_POINT('P329',(3290.0,0.0,0.0));
#989 = CARTESIAN_POINT('P329b',(3298.0,0.0,0.0));
#990 = LINE('L329',#988,#989);
#991 = CARTESIAN_POINT('P330',(3300.0,0.0,0.0));
#992 = CARTESIAN_POINT('P330b',(3308.0,0.0,0.0));
#993 = LINE('L330',#991,#992);
#994 = CARTESIAN_POINT('P331',(3310.0,0.0,0.0));
#995 = CARTESIAN_POINT('P331b',(3318.0,0.0,0.0));
#996 = LINE('L331',#994,#995);
#997 = CARTESIAN_POINT('P332',(3320.0,0.0,0.0));
#998 = CARTESIAN_POINT('P332b',(3328.0,0.0,0.0));
#999 = LINE('L332',#997,#998);
#1000 = CARTESIAN_POINT('P333',(3330.0,0.0,0.0));
#1001 = CARTESIAN_POINT('P333b',(3338.0,0.0,0.0));
#1002 = LINE('L333',#1000,#1001);
#1003 = CARTESIAN_POINT('P334',(3340.0,0.0,0.0));
#1004 = CARTESIAN_POINT('P334b',(3348.0,0.0,0.0));
#1005 = LINE('L334',#1003,#1004);
#1006 = CARTESIAN_POINT('P335',(3350.0,0.0,0.0));
#1007 = CARTESIAN_POINT('P335b',(3358.0,0.0,0.0));
#1008 = LINE('L335',#1006,#1007);
#1009 = CARTESIAN_POINT('P336',(3360.0,0.0,0.0));
#1010 = CARTESIAN_POINT('P336b',(3368.0,0.0,0.0));
#1011 = LINE('L336',#1009,#1010);
#1012 = CARTESIAN_POINT('P337',(3370.0,0.0,0.0));
#1013 = CARTESIAN_POINT('P337b',(3378.0,0.0,0.0));
#1014 = LINE('L337',#1012,#1013);
#1015 = CARTESIAN_POINT('P338',(3380.0,0.0,0.0));
#1016 = CARTESIAN_POINT('P338b',(3388.0,0.0,0.0));
#1017 = LINE('L338',#1015,#1016);
#1018 = CARTESIAN_POINT('P339',(3390.0,0.0,0.0));
#1019 = CARTESIAN_POINT('P339b',(3398.0,0.0,0.0));
#1020 = LINE('L339',#1018,#1019);
#1021 = CARTESIAN_POINT('P340',(3400.0,0.0,0.0));
#1022 = CARTESIAN_POINT('P340b',(3408.0,0.0,0.0));
#1023 = LINE('L340',#1021,#1022);
#1024 = CARTESIAN_POINT('P341',(3410.0,0.0,0.0));
#1025 = CARTESIAN_POINT('P341b',(3418.0,0.0,0.0));
#1026 = LINE('L341',#1024,#1025);
#1027 = CARTESIAN_POINT('P342',(3420.0,0.0,0.0));
#1028 = CARTESIAN_POINT('P342b',(3428.0,0.0,0.0));
#1029 = LINE('L342',#1027,#1028);
#1030 = CARTESIAN_POINT('P343',(3430.0,0.0,0.0));
#1031 = CARTESIAN_POINT('P343b',(3438.0,0.0,0.0));
#1032 = LINE('L343',#1030,#1031);
#1033 = CARTESIAN_POINT('P344',(3440.0,0.0,0.0));
#1034 = CARTESIAN_POINT('P344b',(3448.0,0.0,0.0));
#1035 = LINE('L344',#1033,#1034);
#1036 = CARTESIAN_POINT('P345',(3450.0,0.0,0.0));
#1037 = CARTESIAN_POINT('P345b',(3458.0,0.0,0.0));
#1038 = LINE('L345',#1036,#1037);
#1039 = CARTESIAN_POINT('P346',(3460.0,0.0,0.0));
#1040 = CARTESIAN_POINT('P346b',(3468.0,0.0,0.0));
#1041 = LINE('L346',#1039,#1040);
#1042 = CARTESIAN_POINT('P347',(3470.0,0.0,0.0));
#1043 = CARTESIAN_POINT('P347b',(3478.0,0.0,0.0));
#1044 = LINE('L347',#1042,#1043);
#1045 = CARTESIAN_POINT('P348',(3480.0,0.0,0.0));
#1046 = CARTESIAN_POINT('P348b',(3488.0,0.0,0.0));
#1047 = LINE('L348',#1045,#1046);
#1048 = CARTESIAN_POINT('P349',(3490.0,0.0,0.0));
#1049 = CARTESIAN_POINT('P349b',(3498.0,0.0,0.0));
#1050 = LINE('L349',#1048,#1049);
#1051 = CARTESIAN_POINT('P350',(3500.0,0.0,0.0));
#1052 = CARTESIAN_POINT('P350b',(3508.0,0.0,0.0));
#1053 = LINE('L350',#1051,#1052);
#1054 = CARTESIAN_POINT('P351',(3510.0,0.0,0.0));
#1055 = CARTESIAN_POINT('P351b',(3518.0,0.0,0.0));
#1056 = LINE('L351',#1054,#1055);
#1057 = CARTESIAN_POINT('P352',(3520.0,0.0,0.0));
#1058 = CARTESIAN_POINT('P352b',(3528.0,0.0,0.0));
#1059 = LINE('L352',#1057,#1058);
#1060 = CARTESIAN_POINT('P353',(3530.0,0.0,0.0));
#1061 = CARTESIAN_POINT('P353b',(3538.0,0.0,0.0));
#1062 = LINE('L353',#1060,#1061);
#1063 = CARTESIAN_POINT('P354',(3540.0,0.0,0.0));
#1064 = CARTESIAN_POINT('P354b',(3548.0,0.0,0.0));
#1065 = LINE('L354',#1063,#1064);
#1066 = CARTESIAN_POINT('P355',(3550.0,0.0,0.0));
#1067 = CARTESIAN_POINT('P355b',(3558.0,0.0,0.0));
#1068 = LINE('L355',#1066,#1067);
#1069 = CARTESIAN_POINT('P356',(3560.0,0.0,0.0));
#1070 = CARTESIAN_POINT('P356b',(3568.0,0.0,0.0));
#1071 = LINE('L356',#1069,#1070);
#1072 = CARTESIAN_POINT('P357',(3570.0,0.0,0.0));
#1073 = CARTESIAN_POINT('P357b',(3578.0,0.0,0.0));
#1074 = LINE('L357',#1072,#1073);
#1075 = CARTESIAN_POINT('P358',(3580.0,0.0,0.0));
#1076 = CARTESIAN_POINT('P358b',(3588.0,0.0,0.0));
#1077 = LINE('L358',#1075,#1076);
#1078 = CARTESIAN_POINT('P359',(3590.0,0.0,0.0));
#1079 = CARTESIAN_POINT('P359b',(3598.0,0.0,0.0));
#1080 = LINE('L359',#1078,#1079);
#1081 = CARTESIAN_POINT('P360',(3600.0,0.0,0.0));
#1082 = CARTESIAN_POINT('P360b',(3608.0,0.0,0.0));
#1083 = LINE('L360',#1081,#1082);
#1084 = CARTESIAN_POINT('P361',(3610.0,0.0,0.0));
#1085 = CARTESIAN_POINT('P361b',(3618.0,0.0,0.0));
#1086 = LINE('L361',#1084,#1085);
#1087 = CARTESIAN_POINT('P362',(3620.0,0.0,0.0));
#1088 = CARTESIAN_POINT('P362b',(3628.0,0.0,0.0));
#1089 = LINE('L362',#1087,#1088);
#1090 = CARTESIAN_POINT('P363',(3630.0,0.0,0.0));
#1091 = CARTESIAN_POINT('P363b',(3638.0,0.0,0.0));
#1092 = LINE('L363',#1090,#1091);
#1093 = CARTESIAN_POINT('P364',(3640.0,0.0,0.0));
#1094 = CARTESIAN_POINT('P364b',(3648.0,0.0,0.0));
#1095 = LINE('L364',#1093,#1094);
#1096 = CARTESIAN_POINT('P365',(3650.0,0.0,0.0));
#1097 = CARTESIAN_POINT('P365b',(3658.0,0.0,0.0));
#1098 = LINE('L365',#1096,#1097);
#1099 = CARTESIAN_POINT('P366',(3660.0,0.0,0.0));
#1100 = CARTESIAN_POINT('P366b',(3668.0,0.0,0.0));
#1101 = LINE('L366',#1099,#1100);
#1102 = CARTESIAN_POINT('P367',(3670.0,0.0,0.0));
#1103 = CARTESIAN_POINT('P367b',(3678.0,0.0,0.0));
#1104 = LINE('L367',#1102,#1103);
#1105 = CARTESIAN_POINT('P368',(3680.0,0.0,0.0));
#1106 = CARTESIAN_POINT('P368b',(3688.0,0.0,0.0));
#1107 = LINE('L368',#1105,#1106);
#1108 = CARTESIAN_POINT('P369',(3690.0,0.0,0.0));
#1109 = CARTESIAN_POINT('P369b',(3698.0,0.0,0.0));
#1110 = LINE('L369',#1108,#1109);
#1111 = CARTESIAN_POINT('P370',(3700.0,0.0,0.0));
#1112 = CARTESIAN_POINT('P370b',(3708.0,0.0,0.0));
#1113 = LINE('L370',#1111,#1112);
#1114 = CARTESIAN_POINT('P371',(3710.0,0.0,0.0));
#1115 = CARTESIAN_POINT('P371b',(3718.0,0.0,0.0));
#1116 = LINE('L371',#1114,#1115);
#1117 = CARTESIAN_POINT('P372',(3720.0,0.0,0.0));
#1118 = CARTESIAN_POINT('P372b',(3728.0,0.0,0.0));
#1119 = LINE('L372',#1117,#1118);
#1120 = CARTESIAN_POINT('P373',(3730.0,0.0,0.0));
#1121 = CARTESIAN_POINT('P373b',(3738.0,0.0,0.0));
#1122 = LINE('L373',#1120,#1121);
#1123 = CARTESIAN_POINT('P374',(3740.0,0.0,0.0));
#1124 = CARTESIAN_POINT('P374b',(3748.0,0.0,0.0));
#1125 = LINE('L374',#1123,#1124);
#1126 = CARTESIAN_POINT('P375',(3750.0,0.0,0.0));
#1127 = CARTESIAN_POINT('P375b',(3758.0,0.0,0.0));
#1128 = LINE('L375',#1126,#1127);
#1129 = CARTESIAN_POINT('P376',(3760.0,0.0,0.0));
#1130 = CARTESIAN_POINT('P376b',(3768.0,0.0,0.0));
#1131 = LINE('L376',#1129,#1130);
#1132 = CARTESIAN_POINT('P377',(3770.0,0.0,0.0));
#1133 = CARTESIAN_POINT('P377b',(3778.0,0.0,0.0));
#1134 = LINE('L377',#1132,#1133);
#1135 = CARTESIAN_POINT('P378',(3780.0,0.0,0.0));
#1136 = CARTESIAN_POINT('P378b',(3788.0,0.0,0.0));
#1137 = LINE('L378',#1135,#1136);
#1138 = CARTESIAN_POINT('P379',(3790.0,0.0,0.0));
#1139 = CARTESIAN_POINT('P379b',(3798.0,0.0,0.0));
#1140 = LINE('L379',#1138,#1139);
#1141 = CARTESIAN_POINT('P380',(3800.0,0.0,0.0));
#1142 = CARTESIAN_POINT('P380b',(3808.0,0.0,0.0));
#1143 = LINE('L380',#1141,#1142);
#1144 = CARTESIAN_POINT('P381',(3810.0,0.0,0.0));
#1145 = CARTESIAN_POINT('P381b',(3818.0,0.0,0.0));
#1146 = LINE('L381',#1144,#1145);
#1147 = CARTESIAN_POINT('P382',(3820.0,0.0,0.0));
#1148 = CARTESIAN_POINT('P382b',(3828.0,0.0,0.0));
#1149 = LINE('L382',#1147,#1148);
#1150 = CARTESIAN_POINT('P383',(3830.0,0.0,0.0));
#1151 = CARTESIAN_POINT('P383b',(3838.0,0.0,0.0));
#1152 = LINE('L383',#1150,#1151);
#1153 = CARTESIAN_POINT('P384',(3840.0,0.0,0.0));
#1154 = CARTESIAN_POINT('P384b',(3848.0,0.0,0.0));
#1155 = LINE('L384',#1153,#1154);
#1156 = CARTESIAN_POINT('P385',(3850.0,0.0,0.0));
#1157 = CARTESIAN_POINT('P385b',(3858.0,0.0,0.0));
#1158 = LINE('L385',#1156,#1157);
#1159 = CARTESIAN_POINT('P386',(3860.0,0.0,0.0));
#1160 = CARTESIAN_POINT('P386b',(3868.0,0.0,0.0));
#1161 = LINE('L386',#1159,#1160);
#1162 = CARTESIAN_POINT('P387',(3870.0,0.0,0.0));
#1163 = CARTESIAN_POINT('P387b',(3878.0,0.0,0.0));
#1164 = LINE('L387',#1162,#1163);
#1165 = CARTESIAN_POINT('P388',(3880.0,0.0,0.0));
#1166 = CARTESIAN_POINT('P388b',(3888.0,0.0,0.0));
#1167 = LINE('L388',#1165,#1166);
#1168 = CARTESIAN_POINT('P389',(3890.0,0.0,0.0));
#1169 = CARTESIAN_POINT('P389b',(3898.0,0.0,0.0));
#1170 = LINE('L389',#1168,#1169);
#1171 = CARTESIAN_POINT('P390',(3900.0,0.0,0.0));
#1172 = CARTESIAN_POINT('P390b',(3908.0,0.0,0.0));
#1173 = LINE('L390',#1171,#1172);
#1174 = CARTESIAN_POINT('P391',(3910.0,0.0,0.0));
#1175 = CARTESIAN_POINT('P391b',(3918.0,0.0,0.0));
#1176 = LINE('L391',#1174,#1175);
#1177 = CARTESIAN_POINT('P392',(3920.0,0.0,0.0));
#1178 = CARTESIAN_POINT('P392b',(3928.0,0.0,0.0));
#1179 = LINE('L392',#1177,#1178);
#1180 = CARTESIAN_POINT('P393',(3930.0,0.0,0.0));
#1181 = CARTESIAN_POINT('P393b',(3938.0,0.0,0.0));
#1182 = LINE('L393',#1180,#1181);
#1183 = CARTESIAN_POINT('P394',(3940.0,0.0,0.0));
#1184 = CARTESIAN_POINT('P394b',(3948.0,0.0,0.0));
#1185 = LINE('L394',#1183,#1184);
#1186 = CARTESIAN_POINT('P395',(3950.0,0.0,0.0));
#1187 = CARTESIAN_POINT('P395b',(3958.0,0.0,0.0));
#1188 = LINE('L395',#1186,#1187);
#1189 = CARTESIAN_POINT('P396',(3960.0,0.0,0.0));
#1190 = CARTESIAN_POINT('P396b',(3968.0,0.0,0.0));
#1191 = LINE('L396',#1189,#1190);
#1192 = CARTESIAN_POINT('P397',(3970.0,0.0,0.0));
#1193 = CARTESIAN_POINT('P397b',(3978.0,0.0,0.0));
#1194 = LINE('L397',#1192,#1193);
#1195 = CARTESIAN_POINT('P398',(3980.0,0.0,0.0));
#1196 = CARTESIAN_POINT('P398b',(3988.0,0.0,0.0));
#1197 = LINE('L398',#1195,#1196);
#1198 = CARTESIAN_POINT('P399',(3990.0,0.0,0.0));
#1199 = CARTESIAN_POINT('P399b',(3998.0,0.0,0.0));
#1200 = LINE('L399',#1198,#1199);
#1201 = CARTESIAN_POINT('P400',(4000.0,0.0,0.0));
#1202 = CARTESIAN_POINT('P400b',(4008.0,0.0,0.0));
#1203 = LINE('L400',#1201,#1202);
#1204 = CARTESIAN_POINT('P401',(4010.0,0.0,0.0));
#1205 = CARTESIAN_POINT('P401b',(4018.0,0.0,0.0));
#1206 = LINE('L401',#1204,#1205);
#1207 = CARTESIAN_POINT('P402',(4020.0,0.0,0.0));
#1208 = CARTESIAN_POINT('P402b',(4028.0,0.0,0.0));
#1209 = LINE('L402',#1207,#1208);
#1210 = CARTESIAN_POINT('P403',(4030.0,0.0,0.0));
#1211 = CARTESIAN_POINT('P403b',(4038.0,0.0,0.0));
#1212 = LINE('L403',#1210,#1211);
#1213 = CARTESIAN_POINT('P404',(4040.0,0.0,0.0));
#1214 = CARTESIAN_POINT('P404b',(4048.0,0.0,0.0));
#1215 = LINE('L404',#1213,#1214);
#1216 = CARTESIAN_POINT('P405',(4050.0,0.0,0.0));
#1217 = CARTESIAN_POINT('P405b',(4058.0,0.0,0.0));
#1218 = LINE('L405',#1216,#1217);
#1219 = CARTESIAN_POINT('P406',(4060.0,0.0,0.0));
#1220 = CARTESIAN_POINT('P406b',(4068.0,0.0,0.0));
#1221 = LINE('L406',#1219,#1220);
#1222 = CARTESIAN_POINT('P407',(4070.0,0.0,0.0));
#1223 = CARTESIAN_POINT('P407b',(4078.0,0.0,0.0));
#1224 = LINE('L407',#1222,#1223);
#1225 = CARTESIAN_POINT('P408',(4080.0,0.0,0.0));
#1226 = CARTESIAN_POINT('P408b',(4088.0,0.0,0.0));
#1227 = LINE('L408',#1225,#1226);
#1228 = CARTESIAN_POINT('P409',(4090.0,0.0,0.0));
#1229 = CARTESIAN_POINT('P409b',(4098.0,0.0,0.0));
#1230 = LINE('L409',#1228,#1229);
#1231 = CARTESIAN_POINT('P410',(4100.0,0.0,0.0));
#1232 = CARTESIAN_POINT('P410b',(4108.0,0.0,0.0));
#1233 = LINE('L410',#1231,#1232);
#1234 = CARTESIAN_POINT('P411',(4110.0,0.0,0.0));
#1235 = CARTESIAN_POINT('P411b',(4118.0,0.0,0.0));
#1236 = LINE('L411',#1234,#1235);
#1237 = CARTESIAN_POINT('P412',(4120.0,0.0,0.0));
#1238 = CARTESIAN_POINT('P412b',(4128.0,0.0,0.0));
#1239 = LINE('L412',#1237,#1238);
#1240 = CARTESIAN_POINT('P413',(4130.0,0.0,0.0));
#1241 = CARTESIAN_POINT('P413b',(4138.0,0.0,0.0));
#1242 = LINE('L413',#1240,#1241);
#1243 = CARTESIAN_POINT('P414',(4140.0,0.0,0.0));
#1244 = CARTESIAN_POINT('P414b',(4148.0,0.0,0.0));
#1245 = LINE('L414',#1243,#1244);
#1246 = CARTESIAN_POINT('P415',(4150.0,0.0,0.0));
#1247 = CARTESIAN_POINT('P415b',(4158.0,0.0,0.0));
#1248 = LINE('L415',#1246,#1247);
#1249 = CARTESIAN_POINT('P416',(4160.0,0.0,0.0));
#1250 = CARTESIAN_POINT('P416b',(4168.0,0.0,0.0));
#1251 = LINE('L416',#1249,#1250);
#1252 = CARTESIAN_POINT('P417',(4170.0,0.0,0.0));
#1253 = CARTESIAN_POINT('P417b',(4178.0,0.0,0.0));
#1254 = LINE('L417',#1252,#1253);
#1255 = CARTESIAN_POINT('P418',(4180.0,0.0,0.0));
#1256 = CARTESIAN_POINT('P418b',(4188.0,0.0,0.0));
#1257 = LINE('L418',#1255,#1256);
#1258 = CARTESIAN_POINT('P419',(4190.0,0.0,0.0));
#1259 = CARTESIAN_POINT('P419b',(4198.0,0.0,0.0));
#1260 = LINE('L419',#1258,#1259);
#1261 = CARTESIAN_POINT('P420',(4200.0,0.0,0.0));
#1262 = CARTESIAN_POINT('P420b',(4208.0,0.0,0.0));
#1263 = LINE('L420',#1261,#1262);
#1264 = CARTESIAN_POINT('P421',(4210.0,0.0,0.0));
#1265 = CARTESIAN_POINT('P421b',(4218.0,0.0,0.0));
#1266 = LINE('L421',#1264,#1265);
#1267 = CARTESIAN_POINT('P422',(4220.0,0.0,0.0));
#1268 = CARTESIAN_POINT('P422b',(4228.0,0.0,0.0));
#1269 = LINE('L422',#1267,#1268);
#1270 = CARTESIAN_POINT('P423',(4230.0,0.0,0.0));
#1271 = CARTESIAN_POINT('P423b',(4238.0,0.0,0.0));
#1272 = LINE('L423',#1270,#1271);
#1273 = CARTESIAN_POINT('P424',(4240.0,0.0,0.0));
#1274 = CARTESIAN_POINT('P424b',(4248.0,0.0,0.0));
#1275 = LINE('L424',#1273,#1274);
#1276 = CARTESIAN_POINT('P425',(4250.0,0.0,0.0));
#1277 = CARTESIAN_POINT('P425b',(4258.0,0.0,0.0));
#1278 = LINE('L425',#1276,#1277);
#1279 = CARTESIAN_POINT('P426',(4260.0,0.0,0.0));
#1280 = CARTESIAN_POINT('P426b',(4268.0,0.0,0.0));
#1281 = LINE('L426',#1279,#1280);
#1282 = CARTESIAN_POINT('P427',(4270.0,0.0,0.0));
#1283 = CARTESIAN_POINT('P427b',(4278.0,0.0,0.0));
#1284 = LINE('L427',#1282,#1283);
#1285 = CARTESIAN_POINT('P428',(4280.0,0.0,0.0));
#1286 = CARTESIAN_POINT('P428b',(4288.0,0.0,0.0));
#1287 = LINE('L428',#1285,#1286);
#1288 = CARTESIAN_POINT('P429',(4290.0,0.0,0.0));
#1289 = CARTESIAN_POINT('P429b',(4298.0,0.0,0.0));
#1290 = LINE('L429',#1288,#1289);
#1291 = CARTESIAN_POINT('P430',(4300.0,0.0,0.0));
#1292 = CARTESIAN_POINT('P430b',(4308.0,0.0,0.0));
#1293 = LINE('L430',#1291,#1292);
#1294 = CARTESIAN_POINT('P431',(4310.0,0.0,0.0));
#1295 = CARTESIAN_POINT('P431b',(4318.0,0.0,0.0));
#1296 = LINE('L431',#1294,#1295);
#1297 = CARTESIAN_POINT('P432',(4320.0,0.0,0.0));
#1298 = CARTESIAN_POINT('P432b',(4328.0,0.0,0.0));
#1299 = LINE('L432',#1297,#1298);
#1300 = CARTESIAN_POINT('P433',(4330.0,0.0,0.0));
#1301 = CARTESIAN_POINT('P433b',(4338.0,0.0,0.0));
#1302 = LINE('L433',#1300,#1301);
#1303 = CARTESIAN_POINT('P434',(4340.0,0.0,0.0));
#1304 = CARTESIAN_POINT('P434b',(4348.0,0.0,0.0));
#1305 = LINE('L434',#1303,#1304);
#1306 = CARTESIAN_POINT('P435',(4350.0,0.0,0.0));
#1307 = CARTESIAN_POINT('P435b',(4358.0,0.0,0.0));
#1308 = LINE('L435',#1306,#1307);
#1309 = CARTESIAN_POINT('P436',(4360.0,0.0,0.0));
#1310 = CARTESIAN_POINT('P436b',(4368.0,0.0,0.0));
#1311 = LINE('L436',#1309,#1310);
#1312 = CARTESIAN_POINT('P437',(4370.0,0.0,0.0));
#1313 = CARTESIAN_POINT('P437b',(4378.0,0.0,0.0));
#1314 = LINE('L437',#1312,#1313);
#1315 = CARTESIAN_POINT('P438',(4380.0,0.0,0.0));
#1316 = CARTESIAN_POINT('P438b',(4388.0,0.0,0.0));
#1317 = LINE('L438',#1315,#1316);
#1318 = CARTESIAN_POINT('P439',(4390.0,0.0,0.0));
#1319 = CARTESIAN_POINT('P439b',(4398.0,0.0,0.0));
#1320 = LINE('L439',#1318,#1319);
#1321 = CARTESIAN_POINT('P440',(4400.0,0.0,0.0));
#1322 = CARTESIAN_POINT('P440b',(4408.0,0.0,0.0));
#1323 = LINE('L440',#1321,#1322);
#1324 = CARTESIAN_POINT('P441',(4410.0,0.0,0.0));
#1325 = CARTESIAN_POINT('P441b',(4418.0,0.0,0.0));
#1326 = LINE('L441',#1324,#1325);
#1327 = CARTESIAN_POINT('P442',(4420.0,0.0,0.0));
#1328 = CARTESIAN_POINT('P442b',(4428.0,0.0,0.0));
#1329 = LINE('L442',#1327,#1328);
#1330 = CARTESIAN_POINT('P443',(4430.0,0.0,0.0));
#1331 = CARTESIAN_POINT('P443b',(4438.0,0.0,0.0));
#1332 = LINE('L443',#1330,#1331);
#1333 = CARTESIAN_POINT('P444',(4440.0,0.0,0.0));
#1334 = CARTESIAN_POINT('P444b',(4448.0,0.0,0.0));
#1335 = LINE('L444',#1333,#1334);
#1336 = CARTESIAN_POINT('P445',(4450.0,0.0,0.0));
#1337 = CARTESIAN_POINT('P445b',(4458.0,0.0,0.0));
#1338 = LINE('L445',#1336,#1337);
#1339 = CARTESIAN_POINT('P446',(4460.0,0.0,0.0));
#1340 = CARTESIAN_POINT('P446b',(4468.0,0.0,0.0));
#1341 = LINE('L446',#1339,#1340);
#1342 = CARTESIAN_POINT('P447',(4470.0,0.0,0.0));
#1343 = CARTESIAN_POINT('P447b',(4478.0,0.0,0.0));
#1344 = LINE('L447',#1342,#1343);
#1345 = CARTESIAN_POINT('P448',(4480.0,0.0,0.0));
#1346 = CARTESIAN_POINT('P448b',(4488.0,0.0,0.0));
#1347 = LINE('L448',#1345,#1346);
#1348 = CARTESIAN_POINT('P449',(4490.0,0.0,0.0));
#1349 = CARTESIAN_POINT('P449b',(4498.0,0.0,0.0));
#1350 = LINE('L449',#1348,#1349);
#1351 = CARTESIAN_POINT('P450',(4500.0,0.0,0.0));
#1352 = CARTESIAN_POINT('P450b',(4508.0,0.0,0.0));
#1353 = LINE('L450',#1351,#1352);
#1354 = CARTESIAN_POINT('P451',(4510.0,0.0,0.0));
#1355 = CARTESIAN_POINT('P451b',(4518.0,0.0,0.0));
#1356 = LINE('L451',#1354,#1355);
#1357 = CARTESIAN_POINT('P452',(4520.0,0.0,0.0));
#1358 = CARTESIAN_POINT('P452b',(4528.0,0.0,0.0));
#1359 = LINE('L452',#1357,#1358);
#1360 = CARTESIAN_POINT('P453',(4530.0,0.0,0.0));
#1361 = CARTESIAN_POINT('P453b',(4538.0,0.0,0.0));
#1362 = LINE('L453',#1360,#1361);
#1363 = CARTESIAN_POINT('P454',(4540.0,0.0,0.0));
#1364 = CARTESIAN_POINT('P454b',(4548.0,0.0,0.0));
#1365 = LINE('L454',#1363,#1364);
#1366 = CARTESIAN_POINT('P455',(4550.0,0.0,0.0));
#1367 = CARTESIAN_POINT('P455b',(4558.0,0.0,0.0));
#1368 = LINE('L455',#1366,#1367);
#1369 = CARTESIAN_POINT('P456',(4560.0,0.0,0.0));
#1370 = CARTESIAN_POINT('P456b',(4568.0,0.0,0.0));
#1371 = LINE('L456',#1369,#1370);
#1372 = CARTESIAN_POINT('P457',(4570.0,0.0,0.0));
#1373 = CARTESIAN_POINT('P457b',(4578.0,0.0,0.0));
#1374 = LINE('L457',#1372,#1373);
#1375 = CARTESIAN_POINT('P458',(4580.0,0.0,0.0));
#1376 = CARTESIAN_POINT('P458b',(4588.0,0.0,0.0));
#1377 = LINE('L458',#1375,#1376);
#1378 = CARTESIAN_POINT('P459',(4590.0,0.0,0.0));
#1379 = CARTESIAN_POINT('P459b',(4598.0,0.0,0.0));
#1380 = LINE('L459',#1378,#1379);
#1381 = CARTESIAN_POINT('P460',(4600.0,0.0,0.0));
#1382 = CARTESIAN_POINT('P460b',(4608.0,0.0,0.0));
#1383 = LINE('L460',#1381,#1382);
#1384 = CARTESIAN_POINT('P461',(4610.0,0.0,0.0));
#1385 = CARTESIAN_POINT('P461b',(4618.0,0.0,0.0));
#1386 = LINE('L461',#1384,#1385);
#1387 = CARTESIAN_POINT('P462',(4620.0,0.0,0.0));
#1388 = CARTESIAN_POINT('P462b',(4628.0,0.0,0.0));
#1389 = LINE('L462',#1387,#1388);
#1390 = CARTESIAN_POINT('P463',(4630.0,0.0,0.0));
#1391 = CARTESIAN_POINT('P463b',(4638.0,0.0,0.0));
#1392 = LINE('L463',#1390,#1391);
#1393 = CARTESIAN_POINT('P464',(4640.0,0.0,0.0));
#1394 = CARTESIAN_POINT('P464b',(4648.0,0.0,0.0));
#1395 = LINE('L464',#1393,#1394);
#1396 = CARTESIAN_POINT('P465',(4650.0,0.0,0.0));
#1397 = CARTESIAN_POINT('P465b',(4658.0,0.0,0.0));
#1398 = LINE('L465',#1396,#1397);
#1399 = CARTESIAN_POINT('P466',(4660.0,0.0,0.0));
#1400 = CARTESIAN_POINT('P466b',(4668.0,0.0,0.0));
#1401 = LINE('L466',#1399,#1400);
#1402 = CARTESIAN_POINT('P467',(4670.0,0.0,0.0));
#1403 = CARTESIAN_POINT('P467b',(4678.0,0.0,0.0));
#1404 = LINE('L467',#1402,#1403);
#1405 = CARTESIAN_POINT('P468',(4680.0,0.0,0.0));
#1406 = CARTESIAN_POINT('P468b',(4688.0,0.0,0.0));
#1407 = LINE('L468',#1405,#1406);
#1408 = CARTESIAN_POINT('P469',(4690.0,0.0,0.0));
#1409 = CARTESIAN_POINT('P469b',(4698.0,0.0,0.0));
#1410 = LINE('L469',#1408,#1409);
#1411 = CARTESIAN_POINT('P470',(4700.0,0.0,0.0));
#1412 = CARTESIAN_POINT('P470b',(4708.0,0.0,0.0));
#1413 = LINE('L470',#1411,#1412);
#1414 = CARTESIAN_POINT('P471',(4710.0,0.0,0.0));
#1415 = CARTESIAN_POINT('P471b',(4718.0,0.0,0.0));
#1416 = LINE('L471',#1414,#1415);
#1417 = CARTESIAN_POINT('P472',(4720.0,0.0,0.0));
#1418 = CARTESIAN_POINT('P472b',(4728.0,0.0,0.0));
#1419 = LINE('L472',#1417,#1418);
#1420 = CARTESIAN_POINT('P473',(4730.0,0.0,0.0));
#1421 = CARTESIAN_POINT('P473b',(4738.0,0.0,0.0));
#1422 = LINE('L473',#1420,#1421);
#1423 = CARTESIAN_POINT('P474',(4740.0,0.0,0.0));
#1424 = CARTESIAN_POINT('P474b',(4748.0,0.0,0.0));
#1425 = LINE('L474',#1423,#1424);
#1426 = CARTESIAN_POINT('P475',(4750.0,0.0,0.0));
#1427 = CARTESIAN_POINT('P475b',(4758.0,0.0,0.0));
#1428 = LINE('L475',#1426,#1427);
#1429 = CARTESIAN_POINT('P476',(4760.0,0.0,0.0));
#1430 = CARTESIAN_POINT('P476b',(4768.0,0.0,0.0));
#1431 = LINE('L476',#1429,#1430);
#1432 = CARTESIAN_POINT('P477',(4770.0,0.0,0.0));
#1433 = CARTESIAN_POINT('P477b',(4778.0,0.0,0.0));
#1434 = LINE('L477',#1432,#1433);
#1435 = CARTESIAN_POINT('P478',(4780.0,0.0,0.0));
#1436 = CARTESIAN_POINT('P478b',(4788.0,0.0,0.0));
#1437 = LINE('L478',#1435,#1436);
#1438 = CARTESIAN_POINT('P479',(4790.0,0.0,0.0));
#1439 = CARTESIAN_POINT('P479b',(4798.0,0.0,0.0));
#1440 = LINE('L479',#1438,#1439);
#1441 = CARTESIAN_POINT('P480',(4800.0,0.0,0.0));
#1442 = CARTESIAN_POINT('P480b',(4808.0,0.0,0.0));
#1443 = LINE('L480',#1441,#1442);
#1444 = CARTESIAN_POINT('P481',(4810.0,0.0,0.0));
#1445 = CARTESIAN_POINT('P481b',(4818.0,0.0,0.0));
#1446 = LINE('L481',#1444,#1445);
#1447 = CARTESIAN_POINT('P482',(4820.0,0.0,0.0));
#1448 = CARTESIAN_POINT('P482b',(4828.0,0.0,0.0));
#1449 = LINE('L482',#1447,#1448);
#1450 = CARTESIAN_POINT('P483',(4830.0,0.0,0.0));
#1451 = CARTESIAN_POINT('P483b',(4838.0,0.0,0.0));
#1452 = LINE('L483',#1450,#1451);
#1453 = CARTESIAN_POINT('P484',(4840.0,0.0,0.0));
#1454 = CARTESIAN_POINT('P484b',(4848.0,0.0,0.0));
#1455 = LINE('L484',#1453,#1454);
#1456 = CARTESIAN_POINT('P485',(4850.0,0.0,0.0));
#1457 = CARTESIAN_POINT('P485b',(4858.0,0.0,0.0));
#1458 = LINE('L485',#1456,#1457);
#1459 = CARTESIAN_POINT('P486',(4860.0,0.0,0.0));
#1460 = CARTESIAN_POINT('P486b',(4868.0,0.0,0.0));
#1461 = LINE('L486',#1459,#1460);
#1462 = CARTESIAN_POINT('P487',(4870.0,0.0,0.0));
#1463 = CARTESIAN_POINT('P487b',(4878.0,0.0,0.0));
#1464 = LINE('L487',#1462,#1463);
#1465 = CARTESIAN_POINT('P488',(4880.0,0.0,0.0));
#1466 = CARTESIAN_POINT('P488b',(4888.0,0.0,0.0));
#1467 = LINE('L488',#1465,#1466);
#1468 = CARTESIAN_POINT('P489',(4890.0,0.0,0.0));
#1469 = CARTESIAN_POINT('P489b',(4898.0,0.0,0.0));
#1470 = LINE('L489',#1468,#1469);
#1471 = CARTESIAN_POINT('P490',(4900.0,0.0,0.0));
#1472 = CARTESIAN_POINT('P490b',(4908.0,0.0,0.0));
#1473 = LINE('L490',#1471,#1472);
#1474 = CARTESIAN_POINT('P491',(4910.0,0.0,0.0));
#1475 = CARTESIAN_POINT('P491b',(4918.0,0.0,0.0));
#1476 = LINE('L491',#1474,#1475);
#1477 = CARTESIAN_POINT('P492',(4920.0,0.0,0.0));
#1478 = CARTESIAN_POINT('P492b',(4928.0,0.0,0.0));
#1479 = LINE('L492',#1477,#1478);
#1480 = CARTESIAN_POINT('P493',(4930.0,0.0,0.0));
#1481 = CARTESIAN_POINT('P493b',(4938.0,0.0,0.0));
#1482 = LINE('L493',#1480,#1481);
#1483 = CARTESIAN_POINT('P494',(4940.0,0.0,0.0));
#1484 = CARTESIAN_POINT('P494b',(4948.0,0.0,0.0));
#1485 = LINE('L494',#1483,#1484);
#1486 = CARTESIAN_POINT('P495',(4950.0,0.0,0.0));
#1487 = CARTESIAN_POINT('P495b',(4958.0,0.0,0.0));
#1488 = LINE('L495',#1486,#1487);
#1489 = CARTESIAN_POINT('P496',(4960.0,0.0,0.0));
#1490 = CARTESIAN_POINT('P496b',(4968.0,0.0,0.0));
#1491 = LINE('L496',#1489,#1490);
#1492 = CARTESIAN_POINT('P497',(4970.0,0.0,0.0));
#1493 = CARTESIAN_POINT('P497b',(4978.0,0.0,0.0));
#1494 = LINE('L497',#1492,#1493);
#1495 = CARTESIAN_POINT('P498',(4980.0,0.0,0.0));
#1496 = CARTESIAN_POINT('P498b',(4988.0,0.0,0.0));
#1497 = LINE('L498',#1495,#1496);
#1498 = CARTESIAN_POINT('P499',(4990.0,0.0,0.0));
#1499 = CARTESIAN_POINT('P499b',(4998.0,0.0,0.0));
#1500 = LINE('L499',#1498,#1499);
#1501 = CARTESIAN_POINT('P500',(5000.0,0.0,0.0));
#1502 = CARTESIAN_POINT('P500b',(5008.0,0.0,0.0));
#1503 = LINE('L500',#1501,#1502);
#1504 = CARTESIAN_POINT('P501',(5010.0,0.0,0.0));
#1505 = CARTESIAN_POINT('P501b',(5018.0,0.0,0.0));
#1506 = LINE('L501',#1504,#1505);
#1507 = CARTESIAN_POINT('P502',(5020.0,0.0,0.0));
#1508 = CARTESIAN_POINT('P502b',(5028.0,0.0,0.0));
#1509 = LINE('L502',#1507,#1508);
#1510 = CARTESIAN_POINT('P503',(5030.0,0.0,0.0));
#1511 = CARTESIAN_POINT('P503b',(5038.0,0.0,0.0));
#1512 = LINE('L503',#1510,#1511);
#1513 = CARTESIAN_POINT('P504',(5040.0,0.0,0.0));
#1514 = CARTESIAN_POINT('P504b',(5048.0,0.0,0.0));
#1515 = LINE('L504',#1513,#1514);
#1516 = CARTESIAN_POINT('P505',(5050.0,0.0,0.0));
#1517 = CARTESIAN_POINT('P505b',(5058.0,0.0,0.0));
#1518 = LINE('L505',#1516,#1517);
#1519 = CARTESIAN_POINT('P506',(5060.0,0.0,0.0));
#1520 = CARTESIAN_POINT('P506b',(5068.0,0.0,0.0));
#1521 = LINE('L506',#1519,#1520);
#1522 = CARTESIAN_POINT('P507',(5070.0,0.0,0.0));
#1523 = CARTESIAN_POINT('P507b',(5078.0,0.0,0.0));
#1524 = LINE('L507',#1522,#1523);
#1525 = CARTESIAN_POINT('P508',(5080.0,0.0,0.0));
#1526 = CARTESIAN_POINT('P508b',(5088.0,0.0,0.0));
#1527 = LINE('L508',#1525,#1526);
#1528 = CARTESIAN_POINT('P509',(5090.0,0.0,0.0));
#1529 = CARTESIAN_POINT('P509b',(5098.0,0.0,0.0));
#1530 = LINE('L509',#1528,#1529);
#1531 = CARTESIAN_POINT('P510',(5100.0,0.0,0.0));
#1532 = CARTESIAN_POINT('P510b',(5108.0,0.0,0.0));
#1533 = LINE('L510',#1531,#1532);
#1534 = CARTESIAN_POINT('P511',(5110.0,0.0,0.0));
#1535 = CARTESIAN_POINT('P511b',(5118.0,0.0,0.0));
#1536 = LINE('L511',#1534,#1535);
#1537 = CARTESIAN_POINT('P512',(5120.0,0.0,0.0));
#1538 = CARTESIAN_POINT('P512b',(5128.0,0.0,0.0));
#1539 = LINE('L512',#1537,#1538);
#1540 = CARTESIAN_POINT('P513',(5130.0,0.0,0.0));
#1541 = CARTESIAN_POINT('P513b',(5138.0,0.0,0.0));
#1542 = LINE('L513',#1540,#1541);
#1543 = CARTESIAN_POINT('P514',(5140.0,0.0,0.0));
#1544 = CARTESIAN_POINT('P514b',(5148.0,0.0,0.0));
#1545 = LINE('L514',#1543,#1544);
#1546 = CARTESIAN_POINT('P515',(5150.0,0.0,0.0));
#1547 = CARTESIAN_POINT('P515b',(5158.0,0.0,0.0));
#1548 = LINE('L515',#1546,#1547);
#1549 = CARTESIAN_POINT('P516',(5160.0,0.0,0.0));
#1550 = CARTESIAN_POINT('P516b',(5168.0,0.0,0.0));
#1551 = LINE('L516',#1549,#1550);
#1552 = CARTESIAN_POINT('P517',(5170.0,0.0,0.0));
#1553 = CARTESIAN_POINT('P517b',(5178.0,0.0,0.0));
#1554 = LINE('L517',#1552,#1553);
#1555 = CARTESIAN_POINT('P518',(5180.0,0.0,0.0));
#1556 = CARTESIAN_POINT('P518b',(5188.0,0.0,0.0));
#1557 = LINE('L518',#1555,#1556);
#1558 = CARTESIAN_POINT('P519',(5190.0,0.0,0.0));
#1559 = CARTESIAN_POINT('P519b',(5198.0,0.0,0.0));
#1560 = LINE('L519',#1558,#1559);
#1561 = CARTESIAN_POINT('P520',(5200.0,0.0,0.0));
#1562 = CARTESIAN_POINT('P520b',(5208.0,0.0,0.0));
#1563 = LINE('L520',#1561,#1562);
#1564 = CARTESIAN_POINT('P521',(5210.0,0.0,0.0));
#1565 = CARTESIAN_POINT('P521b',(5218.0,0.0,0.0));
#1566 = LINE('L521',#1564,#1565);
#1567 = CARTESIAN_POINT('P522',(5220.0,0.0,0.0));
#1568 = CARTESIAN_POINT('P522b',(5228.0,0.0,0.0));
#1569 = LINE('L522',#1567,#1568);
#1570 = CARTESIAN_POINT('P523',(5230.0,0.0,0.0));
#1571 = CARTESIAN_POINT('P523b',(5238.0,0.0,0.0));
#1572 = LINE('L523',#1570,#1571);
#1573 = CARTESIAN_POINT('P524',(5240.0,0.0,0.0));
#1574 = CARTESIAN_POINT('P524b',(5248.0,0.0,0.0));
#1575 = LINE('L524',#1573,#1574);
#1576 = CARTESIAN_POINT('P525',(5250.0,0.0,0.0));
#1577 = CARTESIAN_POINT('P525b',(5258.0,0.0,0.0));
#1578 = LINE('L525',#1576,#1577);
#1579 = CARTESIAN_POINT('P526',(5260.0,0.0,0.0));
#1580 = CARTESIAN_POINT('P526b',(5268.0,0.0,0.0));
#1581 = LINE('L526',#1579,#1580);
#1582 = CARTESIAN_POINT('P527',(5270.0,0.0,0.0));
#1583 = CARTESIAN_POINT('P527b',(5278.0,0.0,0.0));
#1584 = LINE('L527',#1582,#1583);
#1585 = CARTESIAN_POINT('P528',(5280.0,0.0,0.0));
#1586 = CARTESIAN_POINT('P528b',(5288.0,0.0,0.0));
#1587 = LINE('L528',#1585,#1586);
#1588 = CARTESIAN_POINT('P529',(5290.0,0.0,0.0));
#1589 = CARTESIAN_POINT('P529b',(5298.0,0.0,0.0));
#1590 = LINE('L529',#1588,#1589);
#1591 = CARTESIAN_POINT('P530',(5300.0,0.0,0.0));
#1592 = CARTESIAN_POINT('P530b',(5308.0,0.0,0.0));
#1593 = LINE('L530',#1591,#1592);
#1594 = CARTESIAN_POINT('P531',(5310.0,0.0,0.0));
#1595 = CARTESIAN_POINT('P531b',(5318.0,0.0,0.0));
#1596 = LINE('L531',#1594,#1595);
#1597 = CARTESIAN_POINT('P532',(5320.0,0.0,0.0));
#1598 = CARTESIAN_POINT('P532b',(5328.0,0.0,0.0));
#1599 = LINE('L532',#1597,#1598);
#1600 = CARTESIAN_POINT('P533',(5330.0,0.0,0.0));
#1601 = CARTESIAN_POINT('P533b',(5338.0,0.0,0.0));
#1602 = LINE('L533',#1600,#1601);
#1603 = CARTESIAN_POINT('P534',(5340.0,0.0,0.0));
#1604 = CARTESIAN_POINT('P534b',(5348.0,0.0,0.0));
#1605 = LINE('L534',#1603,#1604);
#1606 = CARTESIAN_POINT('P535',(5350.0,0.0,0.0));
#1607 = CARTESIAN_POINT('P535b',(5358.0,0.0,0.0));
#1608 = LINE('L535',#1606,#1607);
#1609 = CARTESIAN_POINT('P536',(5360.0,0.0,0.0));
#1610 = CARTESIAN_POINT('P536b',(5368.0,0.0,0.0));
#1611 = LINE('L536',#1609,#1610);
#1612 = CARTESIAN_POINT('P537',(5370.0,0.0,0.0));
#1613 = CARTESIAN_POINT('P537b',(5378.0,0.0,0.0));
#1614 = LINE('L537',#1612,#1613);
#1615 = CARTESIAN_POINT('P538',(5380.0,0.0,0.0));
#1616 = CARTESIAN_POINT('P538b',(5388.0,0.0,0.0));
#1617 = LINE('L538',#1615,#1616);
#1618 = CARTESIAN_POINT('P539',(5390.0,0.0,0.0));
#1619 = CARTESIAN_POINT('P539b',(5398.0,0.0,0.0));
#1620 = LINE('L539',#1618,#1619);
#1621 = CARTESIAN_POINT('P540',(5400.0,0.0,0.0));
#1622 = CARTESIAN_POINT('P540b',(5408.0,0.0,0.0));
#1623 = LINE('L540',#1621,#1622);
#1624 = CARTESIAN_POINT('P541',(5410.0,0.0,0.0));
#1625 = CARTESIAN_POINT('P541b',(5418.0,0.0,0.0));
#1626 = LINE('L541',#1624,#1625);
#1627 = CARTESIAN_POINT('P542',(5420.0,0.0,0.0));
#1628 = CARTESIAN_POINT('P542b',(5428.0,0.0,0.0));
#1629 = LINE('L542',#1627,#1628);
#1630 = CARTESIAN_POINT('P543',(5430.0,0.0,0.0));
#1631 = CARTESIAN_POINT('P543b',(5438.0,0.0,0.0));
#1632 = LINE('L543',#1630,#1631);
#1633 = CARTESIAN_POINT('P544',(5440.0,0.0,0.0));
#1634 = CARTESIAN_POINT('P544b',(5448.0,0.0,0.0));
#1635 = LINE('L544',#1633,#1634);
#1636 = CARTESIAN_POINT('P545',(5450.0,0.0,0.0));
#1637 = CARTESIAN_POINT('P545b',(5458.0,0.0,0.0));
#1638 = LINE('L545',#1636,#1637);
#1639 = CARTESIAN_POINT('P546',(5460.0,0.0,0.0));
#1640 = CARTESIAN_POINT('P546b',(5468.0,0.0,0.0));
#1641 = LINE('L546',#1639,#1640);
#1642 = CARTESIAN_POINT('P547',(5470.0,0.0,0.0));
#1643 = CARTESIAN_POINT('P547b',(5478.0,0.0,0.0));
#1644 = LINE('L547',#1642,#1643);
#1645 = CARTESIAN_POINT('P548',(5480.0,0.0,0.0));
#1646 = CARTESIAN_POINT('P548b',(5488.0,0.0,0.0));
#1647 = LINE('L548',#1645,#1646);
#1648 = CARTESIAN_POINT('P549',(5490.0,0.0,0.0));
#1649 = CARTESIAN_POINT('P549b',(5498.0,0.0,0.0));
#1650 = LINE('L549',#1648,#1649);
#1651 = CARTESIAN_POINT('P550',(5500.0,0.0,0.0));
#1652 = CARTESIAN_POINT('P550b',(5508.0,0.0,0.0));
#1653 = LINE('L550',#1651,#1652);
#1654 = CARTESIAN_POINT('P551',(5510.0,0.0,0.0));
#1655 = CARTESIAN_POINT('P551b',(5518.0,0.0,0.0));
#1656 = LINE('L551',#1654,#1655);
#1657 = CARTESIAN_POINT('P552',(5520.0,0.0,0.0));
#1658 = CARTESIAN_POINT('P552b',(5528.0,0.0,0.0));
#1659 = LINE('L552',#1657,#1658);
#1660 = CARTESIAN_POINT('P553',(5530.0,0.0,0.0));
#1661 = CARTESIAN_POINT('P553b',(5538.0,0.0,0.0));
#1662 = LINE('L553',#1660,#1661);
#1663 = CARTESIAN_POINT('P554',(5540.0,0.0,0.0));
#1664 = CARTESIAN_POINT('P554b',(5548.0,0.0,0.0));
#1665 = LINE('L554',#1663,#1664);
#1666 = CARTESIAN_POINT('P555',(5550.0,0.0,0.0));
#1667 = CARTESIAN_POINT('P555b',(5558.0,0.0,0.0));
#1668 = LINE('L555',#1666,#1667);
#1669 = CARTESIAN_POINT('P556',(5560.0,0.0,0.0));
#1670 = CARTESIAN_POINT('P556b',(5568.0,0.0,0.0));
#1671 = LINE('L556',#1669,#1670);
#1672 = CARTESIAN_POINT('P557',(5570.0,0.0,0.0));
#1673 = CARTESIAN_POINT('P557b',(5578.0,0.0,0.0));
#1674 = LINE('L557',#1672,#1673);
#1675 = CARTESIAN_POINT('P558',(5580.0,0.0,0.0));
#1676 = CARTESIAN_POINT('P558b',(5588.0,0.0,0.0));
#1677 = LINE('L558',#1675,#1676);
#1678 = CARTESIAN_POINT('P559',(5590.0,0.0,0.0));
#1679 = CARTESIAN_POINT('P559b',(5598.0,0.0,0.0));
#1680 = LINE('L559',#1678,#1679);
#1681 = CARTESIAN_POINT('P560',(5600.0,0.0,0.0));
#1682 = CARTESIAN_POINT('P560b',(5608.0,0.0,0.0));
#1683 = LINE('L560',#1681,#1682);
#1684 = CARTESIAN_POINT('P561',(5610.0,0.0,0.0));
#1685 = CARTESIAN_POINT('P561b',(5618.0,0.0,0.0));
#1686 = LINE('L561',#1684,#1685);
#1687 = CARTESIAN_POINT('P562',(5620.0,0.0,0.0));
#1688 = CARTESIAN_POINT('P562b',(5628.0,0.0,0.0));
#1689 = LINE('L562',#1687,#1688);
#1690 = CARTESIAN_POINT('P563',(5630.0,0.0,0.0));
#1691 = CARTESIAN_POINT('P563b',(5638.0,0.0,0.0));
#1692 = LINE('L563',#1690,#1691);
#1693 = CARTESIAN_POINT('P564',(5640.0,0.0,0.0));
#1694 = CARTESIAN_POINT('P564b',(5648.0,0.0,0.0));
#1695 = LINE('L564',#1693,#1694);
#1696 = CARTESIAN_POINT('P565',(5650.0,0.0,0.0));
#1697 = CARTESIAN_POINT('P565b',(5658.0,0.0,0.0));
#1698 = LINE('L565',#1696,#1697);
#1699 = CARTESIAN_POINT('P566',(5660.0,0.0,0.0));
#1700 = CARTESIAN_POINT('P566b',(5668.0,0.0,0.0));
#1701 = LINE('L566',#1699,#1700);
#1702 = CARTESIAN_POINT('P567',(5670.0,0.0,0.0));
#1703 = CARTESIAN_POINT('P567b',(5678.0,0.0,0.0));
#1704 = LINE('L567',#1702,#1703);
#1705 = CARTESIAN_POINT('P568',(5680.0,0.0,0.0));
#1706 = CARTESIAN_POINT('P568b',(5688.0,0.0,0.0));
#1707 = LINE('L568',#1705,#1706);
#1708 = CARTESIAN_POINT('P569',(5690.0,0.0,0.0));
#1709 = CARTESIAN_POINT('P569b',(5698.0,0.0,0.0));
#1710 = LINE('L569',#1708,#1709);
#1711 = CARTESIAN_POINT('P570',(5700.0,0.0,0.0));
#1712 = CARTESIAN_POINT('P570b',(5708.0,0.0,0.0));
#1713 = LINE('L570',#1711,#1712);
#1714 = CARTESIAN_POINT('P571',(5710.0,0.0,0.0));
#1715 = CARTESIAN_POINT('P571b',(5718.0,0.0,0.0));
#1716 = LINE('L571',#1714,#1715);
#1717 = CARTESIAN_POINT('P572',(5720.0,0.0,0.0));
#1718 = CARTESIAN_POINT('P572b',(5728.0,0.0,0.0));
#1719 = LINE('L572',#1717,#1718);
#1720 = CARTESIAN_POINT('P573',(5730.0,0.0,0.0));
#1721 = CARTESIAN_POINT('P573b',(5738.0,0.0,0.0));
#1722 = LINE('L573',#1720,#1721);
#1723 = CARTESIAN_POINT('P574',(5740.0,0.0,0.0));
#1724 = CARTESIAN_POINT('P574b',(5748.0,0.0,0.0));
#1725 = LINE('L574',#1723,#1724);
#1726 = CARTESIAN_POINT('P575',(5750.0,0.0,0.0));
#1727 = CARTESIAN_POINT('P575b',(5758.0,0.0,0.0));
#1728 = LINE('L575',#1726,#1727);
#1729 = CARTESIAN_POINT('P576',(5760.0,0.0,0.0));
#1730 = CARTESIAN_POINT('P576b',(5768.0,0.0,0.0));
#1731 = LINE('L576',#1729,#1730);
#1732 = CARTESIAN_POINT('P577',(5770.0,0.0,0.0));
#1733 = CARTESIAN_POINT('P577b',(5778.0,0.0,0.0));
#1734 = LINE('L577',#1732,#1733);
#1735 = CARTESIAN_POINT('P578',(5780.0,0.0,0.0));
#1736 = CARTESIAN_POINT('P578b',(5788.0,0.0,0.0));
#1737 = LINE('L578',#1735,#1736);
#1738 = CARTESIAN_POINT('P579',(5790.0,0.0,0.0));
#1739 = CARTESIAN_POINT('P579b',(5798.0,0.0,0.0));
#1740 = LINE('L579',#1738,#1739);
#1741 = CARTESIAN_POINT('P580',(5800.0,0.0,0.0));
#1742 = CARTESIAN_POINT('P580b',(5808.0,0.0,0.0));
#1743 = LINE('L580',#1741,#1742);
#1744 = CARTESIAN_POINT('P581',(5810.0,0.0,0.0));
#1745 = CARTESIAN_POINT('P581b',(5818.0,0.0,0.0));
#1746 = LINE('L581',#1744,#1745);
#1747 = CARTESIAN_POINT('P582',(5820.0,0.0,0.0));
#1748 = CARTESIAN_POINT('P582b',(5828.0,0.0,0.0));
#1749 = LINE('L582',#1747,#1748);
#1750 = CARTESIAN_POINT('P583',(5830.0,0.0,0.0));
#1751 = CARTESIAN_POINT('P583b',(5838.0,0.0,0.0));
#1752 = LINE('L583',#1750,#1751);
#1753 = CARTESIAN_POINT('P584',(5840.0,0.0,0.0));
#1754 = CARTESIAN_POINT('P584b',(5848.0,0.0,0.0));
#1755 = LINE('L584',#1753,#1754);
#1756 = CARTESIAN_POINT('P585',(5850.0,0.0,0.0));
#1757 = CARTESIAN_POINT('P585b',(5858.0,0.0,0.0));
#1758 = LINE('L585',#1756,#1757);
#1759 = CARTESIAN_POINT('P586',(5860.0,0.0,0.0));
#1760 = CARTESIAN_POINT('P586b',(5868.0,0.0,0.0));
#1761 = LINE('L586',#1759,#1760);
#1762 = CARTESIAN_POINT('P587',(5870.0,0.0,0.0));
#1763 = CARTESIAN_POINT('P587b',(5878.0,0.0,0.0));
#1764 = LINE('L587',#1762,#1763);
#1765 = CARTESIAN_POINT('P588',(5880.0,0.0,0.0));
#1766 = CARTESIAN_POINT('P588b',(5888.0,0.0,0.0));
#1767 = LINE('L588',#1765,#1766);
#1768 = CARTESIAN_POINT('P589',(5890.0,0.0,0.0));
#1769 = CARTESIAN_POINT('P589b',(5898.0,0.0,0.0));
#1770 = LINE('L589',#1768,#1769);
#1771 = CARTESIAN_POINT('P590',(5900.0,0.0,0.0));
#1772 = CARTESIAN_POINT('P590b',(5908.0,0.0,0.0));
#1773 = LINE('L590',#1771,#1772);
#1774 = CARTESIAN_POINT('P591',(5910.0,0.0,0.0));
#1775 = CARTESIAN_POINT('P591b',(5918.0,0.0,0.0));
#1776 = LINE('L591',#1774,#1775);
#1777 = CARTESIAN_POINT('P592',(5920.0,0.0,0.0));
#1778 = CARTESIAN_POINT('P592b',(5928.0,0.0,0.0));
#1779 = LINE('L592',#1777,#1778);
#1780 = CARTESIAN_POINT('P593',(5930.0,0.0,0.0));
#1781 = CARTESIAN_POINT('P593b',(5938.0,0.0,0.0));
#1782 = LINE('L593',#1780,#1781);
#1783 = CARTESIAN_POINT('P594',(5940.0,0.0,0.0));
#1784 = CARTESIAN_POINT('P594b',(5948.0,0.0,0.0));
#1785 = LINE('L594',#1783,#1784);
#1786 = CARTESIAN_POINT('P595',(5950.0,0.0,0.0));
#1787 = CARTESIAN_POINT('P595b',(5958.0,0.0,0.0));
#1788 = LINE('L595',#1786,#1787);
#1789 = CARTESIAN_POINT('P596',(5960.0,0.0,0.0));
#1790 = CARTESIAN_POINT('P596b',(5968.0,0.0,0.0));
#1791 = LINE('L596',#1789,#1790);
#1792 = CARTESIAN_POINT('P597',(5970.0,0.0,0.0));
#1793 = CARTESIAN_POINT('P597b',(5978.0,0.0,0.0));
#1794 = LINE('L597',#1792,#1793);
#1795 = CARTESIAN_POINT('P598',(5980.0,0.0,0.0));
#1796 = CARTESIAN_POINT('P598b',(5988.0,0.0,0.0));
#1797 = LINE('L598',#1795,#1796);
#1798 = CARTESIAN_POINT('P599',(5990.0,0.0,0.0));
#1799 = CARTESIAN_POINT('P599b',(5998.0,0.0,0.0));
#1800 = LINE('L599',#1798,#1799);
#1801 = CARTESIAN_POINT('P600',(6000.0,0.0,0.0));
#1802 = CARTESIAN_POINT('P600b',(6008.0,0.0,0.0));
#1803 = LINE('L600',#1801,#1802);
#1804 = CARTESIAN_POINT('P601',(6010.0,0.0,0.0));
#1805 = CARTESIAN_POINT('P601b',(6018.0,0.0,0.0));
#1806 = LINE('L601',#1804,#1805);
#1807 = CARTESIAN_POINT('P602',(6020.0,0.0,0.0));
#1808 = CARTESIAN_POINT('P602b',(6028.0,0.0,0.0));
#1809 = LINE('L602',#1807,#1808);
#1810 = CARTESIAN_POINT('P603',(6030.0,0.0,0.0));
#1811 = CARTESIAN_POINT('P603b',(6038.0,0.0,0.0));
#1812 = LINE('L603',#1810,#1811);
#1813 = CARTESIAN_POINT('P604',(6040.0,0.0,0.0));
#1814 = CARTESIAN_POINT('P604b',(6048.0,0.0,0.0));
#1815 = LINE('L604',#1813,#1814);
#1816 = CARTESIAN_POINT('P605',(6050.0,0.0,0.0));
#1817 = CARTESIAN_POINT('P605b',(6058.0,0.0,0.0));
#1818 = LINE('L605',#1816,#1817);
#1819 = CARTESIAN_POINT('P606',(6060.0,0.0,0.0));
#1820 = CARTESIAN_POINT('P606b',(6068.0,0.0,0.0));
#1821 = LINE('L606',#1819,#1820);
#1822 = CARTESIAN_POINT('P607',(6070.0,0.0,0.0));
#1823 = CARTESIAN_POINT('P607b',(6078.0,0.0,0.0));
#1824 = LINE('L607',#1822,#1823);
#1825 = CARTESIAN_POINT('P608',(6080.0,0.0,0.0));
#1826 = CARTESIAN_POINT('P608b',(6088.0,0.0,0.0));
#1827 = LINE('L608',#1825,#1826);
#1828 = CARTESIAN_POINT('P609',(6090.0,0.0,0.0));
#1829 = CARTESIAN_POINT('P609b',(6098.0,0.0,0.0));
#1830 = LINE('L609',#1828,#1829);
#1831 = CARTESIAN_POINT('P610',(6100.0,0.0,0.0));
#1832 = CARTESIAN_POINT('P610b',(6108.0,0.0,0.0));
#1833 = LINE('L610',#1831,#1832);
#1834 = CARTESIAN_POINT('P611',(6110.0,0.0,0.0));
#1835 = CARTESIAN_POINT('P611b',(6118.0,0.0,0.0));
#1836 = LINE('L611',#1834,#1835);
#1837 = CARTESIAN_POINT('P612',(6120.0,0.0,0.0));
#1838 = CARTESIAN_POINT('P612b',(6128.0,0.0,0.0));
#1839 = LINE('L612',#1837,#1838);
#1840 = CARTESIAN_POINT('P613',(6130.0,0.0,0.0));
#1841 = CARTESIAN_POINT('P613b',(6138.0,0.0,0.0));
#1842 = LINE('L613',#1840,#1841);
#1843 = CARTESIAN_POINT('P614',(6140.0,0.0,0.0));
#1844 = CARTESIAN_POINT('P614b',(6148.0,0.0,0.0));
#1845 = LINE('L614',#1843,#1844);
#1846 = CARTESIAN_POINT('P615',(6150.0,0.0,0.0));
#1847 = CARTESIAN_POINT('P615b',(6158.0,0.0,0.0));
#1848 = LINE('L615',#1846,#1847);
#1849 = CARTESIAN_POINT('P616',(6160.0,0.0,0.0));
#1850 = CARTESIAN_POINT('P616b',(6168.0,0.0,0.0));
#1851 = LINE('L616',#1849,#1850);
#1852 = CARTESIAN_POINT('P617',(6170.0,0.0,0.0));
#1853 = CARTESIAN_POINT('P617b',(6178.0,0.0,0.0));
#1854 = LINE('L617',#1852,#1853);
#1855 = CARTESIAN_POINT('P618',(6180.0,0.0,0.0));
#1856 = CARTESIAN_POINT('P618b',(6188.0,0.0,0.0));
#1857 = LINE('L618',#1855,#1856);
#1858 = CARTESIAN_POINT('P619',(6190.0,0.0,0.0));
#1859 = CARTESIAN_POINT('P619b',(6198.0,0.0,0.0));
#1860 = LINE('L619',#1858,#1859);
#1861 = CARTESIAN_POINT('P620',(6200.0,0.0,0.0));
#1862 = CARTESIAN_POINT('P620b',(6208.0,0.0,0.0));
#1863 = LINE('L620',#1861,#1862);
#1864 = CARTESIAN_POINT('P621',(6210.0,0.0,0.0));
#1865 = CARTESIAN_POINT('P621b',(6218.0,0.0,0.0));
#1866 = LINE('L621',#1864,#1865);
#1867 = CARTESIAN_POINT('P622',(6220.0,0.0,0.0));
#1868 = CARTESIAN_POINT('P622b',(6228.0,0.0,0.0));
#1869 = LINE('L622',#1867,#1868);
#1870 = CARTESIAN_POINT('P623',(6230.0,0.0,0.0));
#1871 = CARTESIAN_POINT('P623b',(6238.0,0.0,0.0));
#1872 = LINE('L623',#1870,#1871);
#1873 = CARTESIAN_POINT('P624',(6240.0,0.0,0.0));
#1874 = CARTESIAN_POINT('P624b',(6248.0,0.0,0.0));
#1875 = LINE('L624',#1873,#1874);
#1876 = CARTESIAN_POINT('P625',(6250.0,0.0,0.0));
#1877 = CARTESIAN_POINT('P625b',(6258.0,0.0,0.0));
#1878 = LINE('L625',#1876,#1877);
#1879 = CARTESIAN_POINT('P626',(6260.0,0.0,0.0));
#1880 = CARTESIAN_POINT('P626b',(6268.0,0.0,0.0));
#1881 = LINE('L626',#1879,#1880);
#1882 = CARTESIAN_POINT('P627',(6270.0,0.0,0.0));
#1883 = CARTESIAN_POINT('P627b',(6278.0,0.0,0.0));
#1884 = LINE('L627',#1882,#1883);
#1885 = CARTESIAN_POINT('P628',(6280.0,0.0,0.0));
#1886 = CARTESIAN_POINT('P628b',(6288.0,0.0,0.0));
#1887 = LINE('L628',#1885,#1886);
#1888 = CARTESIAN_POINT('P629',(6290.0,0.0,0.0));
#1889 = CARTESIAN_POINT('P629b',(6298.0,0.0,0.0));
#1890 = LINE('L629',#1888,#1889);
#1891 = CARTESIAN_POINT('P630',(6300.0,0.0,0.0));
#1892 = CARTESIAN_POINT('P630b',(6308.0,0.0,0.0));
#1893 = LINE('L630',#1891,#1892);
#1894 = CARTESIAN_POINT('P631',(6310.0,0.0,0.0));
#1895 = CARTESIAN_POINT('P631b',(6318.0,0.0,0.0));
#1896 = LINE('L631',#1894,#1895);
#1897 = CARTESIAN_POINT('P632',(6320.0,0.0,0.0));
#1898 = CARTESIAN_POINT('P632b',(6328.0,0.0,0.0));
#1899 = LINE('L632',#1897,#1898);
#1900 = CARTESIAN_POINT('P633',(6330.0,0.0,0.0));
#1901 = CARTESIAN_POINT('P633b',(6338.0,0.0,0.0));
#1902 = LINE('L633',#1900,#1901);
#1903 = CARTESIAN_POINT('P634',(6340.0,0.0,0.0));
#1904 = CARTESIAN_POINT('P634b',(6348.0,0.0,0.0));
#1905 = LINE('L634',#1903,#1904);
#1906 = CARTESIAN_POINT('P635',(6350.0,0.0,0.0));
#1907 = CARTESIAN_POINT('P635b',(6358.0,0.0,0.0));
#1908 = LINE('L635',#1906,#1907);
#1909 = CARTESIAN_POINT('P636',(6360.0,0.0,0.0));
#1910 = CARTESIAN_POINT('P636b',(6368.0,0.0,0.0));
#1911 = LINE('L636',#1909,#1910);
#1912 = CARTESIAN_POINT('P637',(6370.0,0.0,0.0));
#1913 = CARTESIAN_POINT('P637b',(6378.0,0.0,0.0));
#1914 = LINE('L637',#1912,#1913);
#1915 = CARTESIAN_POINT('P638',(6380.0,0.0,0.0));
#1916 = CARTESIAN_POINT('P638b',(6388.0,0.0,0.0));
#1917 = LINE('L638',#1915,#1916);
#1918 = CARTESIAN_POINT('P639',(6390.0,0.0,0.0));
#1919 = CARTESIAN_POINT('P639b',(6398.0,0.0,0.0));
#1920 = LINE('L639',#1918,#1919);
#1921 = CARTESIAN_POINT('P640',(6400.0,0.0,0.0));
#1922 = CARTESIAN_POINT('P640b',(6408.0,0.0,0.0));
#1923 = LINE('L640',#1921,#1922);
#1924 = CARTESIAN_POINT('P641',(6410.0,0.0,0.0));
#1925 = CARTESIAN_POINT('P641b',(6418.0,0.0,0.0));
#1926 = LINE('L641',#1924,#1925);
#1927 = CARTESIAN_POINT('P642',(6420.0,0.0,0.0));
#1928 = CARTESIAN_POINT('P642b',(6428.0,0.0,0.0));
#1929 = LINE('L642',#1927,#1928);
#1930 = CARTESIAN_POINT('P643',(6430.0,0.0,0.0));
#1931 = CARTESIAN_POINT('P643b',(6438.0,0.0,0.0));
#1932 = LINE('L643',#1930,#1931);
#1933 = CARTESIAN_POINT('P644',(6440.0,0.0,0.0));
#1934 = CARTESIAN_POINT('P644b',(6448.0,0.0,0.0));
#1935 = LINE('L644',#1933,#1934);
#1936 = CARTESIAN_POINT('P645',(6450.0,0.0,0.0));
#1937 = CARTESIAN_POINT('P645b',(6458.0,0.0,0.0));
#1938 = LINE('L645',#1936,#1937);
#1939 = CARTESIAN_POINT('P646',(6460.0,0.0,0.0));
#1940 = CARTESIAN_POINT('P646b',(6468.0,0.0,0.0));
#1941 = LINE('L646',#1939,#1940);
#1942 = CARTESIAN_POINT('P647',(6470.0,0.0,0.0));
#1943 = CARTESIAN_POINT('P647b',(6478.0,0.0,0.0));
#1944 = LINE('L647',#1942,#1943);
#1945 = CARTESIAN_POINT('P648',(6480.0,0.0,0.0));
#1946 = CARTESIAN_POINT('P648b',(6488.0,0.0,0.0));
#1947 = LINE('L648',#1945,#1946);
#1948 = CARTESIAN_POINT('P649',(6490.0,0.0,0.0));
#1949 = CARTESIAN_POINT('P649b',(6498.0,0.0,0.0));
#1950 = LINE('L649',#1948,#1949);
#1951 = CARTESIAN_POINT('P650',(6500.0,0.0,0.0));
#1952 = CARTESIAN_POINT('P650b',(6508.0,0.0,0.0));
#1953 = LINE('L650',#1951,#1952);
#1954 = CARTESIAN_POINT('P651',(6510.0,0.0,0.0));
#1955 = CARTESIAN_POINT('P651b',(6518.0,0.0,0.0));
#1956 = LINE('L651',#1954,#1955);
#1957 = CARTESIAN_POINT('P652',(6520.0,0.0,0.0));
#1958 = CARTESIAN_POINT('P652b',(6528.0,0.0,0.0));
#1959 = LINE('L652',#1957,#1958);
#1960 = CARTESIAN_POINT('P653',(6530.0,0.0,0.0));
#1961 = CARTESIAN_POINT('P653b',(6538.0,0.0,0.0));
#1962 = LINE('L653',#1960,#1961);
#1963 = CARTESIAN_POINT('P654',(6540.0,0.0,0.0));
#1964 = CARTESIAN_POINT('P654b',(6548.0,0.0,0.0));
#1965 = LINE('L654',#1963,#1964);
#1966 = CARTESIAN_POINT('P655',(6550.0,0.0,0.0));
#1967 = CARTESIAN_POINT('P655b',(6558.0,0.0,0.0));
#1968 = LINE('L655',#1966,#1967);
#1969 = CARTESIAN_POINT('P656',(6560.0,0.0,0.0));
#1970 = CARTESIAN_POINT('P656b',(6568.0,0.0,0.0));
#1971 = LINE('L656',#1969,#1970);
#1972 = CARTESIAN_POINT('P657',(6570.0,0.0,0.0));
#1973 = CARTESIAN_POINT('P657b',(6578.0,0.0,0.0));
#1974 = LINE('L657',#1972,#1973);
#1975 = CARTESIAN_POINT('P658',(6580.0,0.0,0.0));
#1976 = CARTESIAN_POINT('P658b',(6588.0,0.0,0.0));
#1977 = LINE('L658',#1975,#1976);
#1978 = CARTESIAN_POINT('P659',(6590.0,0.0,0.0));
#1979 = CARTESIAN_POINT('P659b',(6598.0,0.0,0.0));
#1980 = LINE('L659',#1978,#1979);
#1981 = CARTESIAN_POINT('P660',(6600.0,0.0,0.0));
#1982 = CARTESIAN_POINT('P660b',(6608.0,0.0,0.0));
#1983 = LINE('L660',#1981,#1982);
#1984 = CARTESIAN_POINT('P661',(6610.0,0.0,0.0));
#1985 = CARTESIAN_POINT('P661b',(6618.0,0.0,0.0));
#1986 = LINE('L661',#1984,#1985);
#1987 = CARTESIAN_POINT('P662',(6620.0,0.0,0.0));
#1988 = CARTESIAN_POINT('P662b',(6628.0,0.0,0.0));
#1989 = LINE('L662',#1987,#1988);
#1990 = CARTESIAN_POINT('P663',(6630.0,0.0,0.0));
#1991 = CARTESIAN_POINT('P663b',(6638.0,0.0,0.0));
#1992 = LINE('L663',#1990,#1991);
#1993 = CARTESIAN_POINT('P664',(6640.0,0.0,0.0));
#1994 = CARTESIAN_POINT('P664b',(6648.0,0.0,0.0));
#1995 = LINE('L664',#1993,#1994);
#1996 = CARTESIAN_POINT('P665',(6650.0,0.0,0.0));
#1997 = CARTESIAN_POINT('P665b',(6658.0,0.0,0.0));
#1998 = LINE('L665',#1996,#1997);
#1999 = CARTESIAN_POINT('P666',(6660.0,0.0,0.0));
#2000 = CARTESIAN_POINT('P666b',(6668.0,0.0,0.0));
#2001 = LINE('L666',#1999,#2000);
#2002 = CARTESIAN_POINT('P667',(6670.0,0.0,0.0));
#2003 = CARTESIAN_POINT('P667b',(6678.0,0.0,0.0));
#2004 = LINE('L667',#2002,#2003);
#2005 = CARTESIAN_POINT('P668',(6680.0,0.0,0.0));
#2006 = CARTESIAN_POINT('P668b',(6688.0,0.0,0.0));
#2007 = LINE('L668',#2005,#2006);
#2008 = CARTESIAN_POINT('P669',(6690.0,0.0,0.0));
#2009 = CARTESIAN_POINT('P669b',(6698.0,0.0,0.0));
#2010 = LINE('L669',#2008,#2009);
#2011 = CARTESIAN_POINT('P670',(6700.0,0.0,0.0));
#2012 = CARTESIAN_POINT('P670b',(6708.0,0.0,0.0));
#2013 = LINE('L670',#2011,#2012);
#2014 = CARTESIAN_POINT('P671',(6710.0,0.0,0.0));
#2015 = CARTESIAN_POINT('P671b',(6718.0,0.0,0.0));
#2016 = LINE('L671',#2014,#2015);
#2017 = CARTESIAN_POINT('P672',(6720.0,0.0,0.0));
#2018 = CARTESIAN_POINT('P672b',(6728.0,0.0,0.0));
#2019 = LINE('L672',#2017,#2018);
#2020 = CARTESIAN_POINT('P673',(6730.0,0.0,0.0));
#2021 = CARTESIAN_POINT('P673b',(6738.0,0.0,0.0));
#2022 = LINE('L673',#2020,#2021);
#2023 = CARTESIAN_POINT('P674',(6740.0,0.0,0.0));
#2024 = CARTESIAN_POINT('P674b',(6748.0,0.0,0.0));
#2025 = LINE('L674',#2023,#2024);
#2026 = CARTESIAN_POINT('P675',(6750.0,0.0,0.0));
#2027 = CARTESIAN_POINT('P675b',(6758.0,0.0,0.0));
#2028 = LINE('L675',#2026,#2027);
#2029 = CARTESIAN_POINT('P676',(6760.0,0.0,0.0));
#2030 = CARTESIAN_POINT('P676b',(6768.0,0.0,0.0));
#2031 = LINE('L676',#2029,#2030);
#2032 = CARTESIAN_POINT('P677',(6770.0,0.0,0.0));
#2033 = CARTESIAN_POINT('P677b',(6778.0,0.0,0.0));
#2034 = LINE('L677',#2032,#2033);
#2035 = CARTESIAN_POINT('P678',(6780.0,0.0,0.0));
#2036 = CARTESIAN_POINT('P678b',(6788.0,0.0,0.0));
#2037 = LINE('L678',#2035,#2036);
#2038 = CARTESIAN_POINT('P679',(6790.0,0.0,0.0));
#2039 = CARTESIAN_POINT('P679b',(6798.0,0.0,0.0));
#2040 = LINE('L679',#2038,#2039);
#2041 = CARTESIAN_POINT('P680',(6800.0,0.0,0.0));
#2042 = CARTESIAN_POINT('P680b',(6808.0,0.0,0.0));
#2043 = LINE('L680',#2041,#2042);
#2044 = CARTESIAN_POINT('P681',(6810.0,0.0,0.0));
#2045 = CARTESIAN_POINT('P681b',(6818.0,0.0,0.0));
#2046 = LINE('L681',#2044,#2045);
#2047 = CARTESIAN_POINT('P682',(6820.0,0.0,0.0));
#2048 = CARTESIAN_POINT('P682b',(6828.0,0.0,0.0));
#2049 = LINE('L682',#2047,#2048);
#2050 = CARTESIAN_POINT('P683',(6830.0,0.0,0.0));
#2051 = CARTESIAN_POINT('P683b',(6838.0,0.0,0.0));
#2052 = LINE('L683',#2050,#2051);
#2053 = CARTESIAN_POINT('P684',(6840.0,0.0,0.0));
#2054 = CARTESIAN_POINT('P684b',(6848.0,0.0,0.0));
#2055 = LINE('L684',#2053,#2054);
#2056 = CARTESIAN_POINT('P685',(6850.0,0.0,0.0));
#2057 = CARTESIAN_POINT('P685b',(6858.0,0.0,0.0));
#2058 = LINE('L685',#2056,#2057);
#2059 = CARTESIAN_POINT('P686',(6860.0,0.0,0.0));
#2060 = CARTESIAN_POINT('P686b',(6868.0,0.0,0.0));
#2061 = LINE('L686',#2059,#2060);
#2062 = CARTESIAN_POINT('P687',(6870.0,0.0,0.0));
#2063 = CARTESIAN_POINT('P687b',(6878.0,0.0,0.0));
#2064 = LINE('L687',#2062,#2063);
#2065 = CARTESIAN_POINT('P688',(6880.0,0.0,0.0));
#2066 = CARTESIAN_POINT('P688b',(6888.0,0.0,0.0));
#2067 = LINE('L688',#2065,#2066);
#2068 = CARTESIAN_POINT('P689',(6890.0,0.0,0.0));
#2069 = CARTESIAN_POINT('P689b',(6898.0,0.0,0.0));
#2070 = LINE('L689',#2068,#2069);
#2071 = CARTESIAN_POINT('P690',(6900.0,0.0,0.0));
#2072 = CARTESIAN_POINT('P690b',(6908.0,0.0,0.0));
#2073 = LINE('L690',#2071,#2072);
#2074 = CARTESIAN_POINT('P691',(6910.0,0.0,0.0));
#2075 = CARTESIAN_POINT('P691b',(6918.0,0.0,0.0));
#2076 = LINE('L691',#2074,#2075);
#2077 = CARTESIAN_POINT('P692',(6920.0,0.0,0.0));
#2078 = CARTESIAN_POINT('P692b',(6928.0,0.0,0.0));
#2079 = LINE('L692',#2077,#2078);
#2080 = CARTESIAN_POINT('P693',(6930.0,0.0,0.0));
#2081 = CARTESIAN_POINT('P693b',(6938.0,0.0,0.0));
#2082 = LINE('L693',#2080,#2081);
#2083 = CARTESIAN_POINT('P694',(6940.0,0.0,0.0));
#2084 = CARTESIAN_POINT('P694b',(6948.0,0.0,0.0));
#2085 = LINE('L694',#2083,#2084);
#2086 = CARTESIAN_POINT('P695',(6950.0,0.0,0.0));
#2087 = CARTESIAN_POINT('P695b',(6958.0,0.0,0.0));
#2088 = LINE('L695',#2086,#2087);
#2089 = CARTESIAN_POINT('P696',(6960.0,0.0,0.0));
#2090 = CARTESIAN_POINT('P696b',(6968.0,0.0,0.0));
#2091 = LINE('L696',#2089,#2090);
#2092 = CARTESIAN_POINT('P697',(6970.0,0.0,0.0));
#2093 = CARTESIAN_POINT('P697b',(6978.0,0.0,0.0));
#2094 = LINE('L697',#2092,#2093);
#2095 = CARTESIAN_POINT('P698',(6980.0,0.0,0.0));
#2096 = CARTESIAN_POINT('P698b',(6988.0,0.0,0.0));
#2097 = LINE('L698',#2095,#2096);
#2098 = CARTESIAN_POINT('P699',(6990.0,0.0,0.0));
#2099 = CARTESIAN_POINT('P699b',(6998.0,0.0,0.0));
#2100 = LINE('L699',#2098,#2099);
ENDSEC;
END-ISO-10303-21;
