0
SECTION
2
ENTITIES
0
LINE
8
0
10
0.0
20
0.0
30
0.0
11
8.0
21
8.0
31
0.0
0
LINE
8
0
10
10.0
20
0.0
30
0.0
11
18.0
21
8.0
31
0.0
0
LINE
8
0
10
20.0
20
0.0
30
0.0
11
28.0
21
8.0
31
0.0
0
LINE
8
0
10
30.0
20
0.0
30
0.0
11
38.0
21
8.0
31
0.0
0
LINE
8
0
10
40.0
20
0.0
30
0.0
11
48.0
21
8.0
31
0.0
0
LINE
8
0
10
50.0
20
0.0
30
0.0
11
58.0
21
8.0
31
0.0
0
LINE
8
0
10
60.0
20
0.0
30
0.0
11
68.0
21
8.0
31
0.0
0
LINE
8
0
10
70.0
20
0.0
30
0.0
11
78.0
21
8.0
31
0.0
0
LINE
8
0
10
80.0
20
0.0
30
0.0
11
88.0
21
8.0
31
0.0
0
LINE
8
0
10
90.0
20
0.0
30
0.0
11
98.0
21
8.0
31
0.0
0
LINE
8
0
10
100.0
20
0.0
30
0.0
11
108.0
21
8.0
31
0.0
0
LINE
8
0
10
110.0
20
0.0
30
0.0
11
118.0
21
8.0
31
0.0
0
LINE
8
0
10
120.0
20
0.0
30
0.0
11
128.0
21
8.0
31
0.0
0
LINE
8
0
10
130.0
20
0.0
30
0.0
11
138.0
21
8.0
31
0.0
0
LINE
8
0
10
140.0
20
0.0
30
0.0
11
148.0
21
8.0
31
0.0
0
LINE
8
0
10
150.0
20
0.0
30
0.0
11
158.0
21
8.0
31
0.0
0
LINE
8
0
10
160.0
20
0.0
30
0.0
11
168.0
21
8.0
31
0.0
0
LINE
8
0
10
170.0
20
0.0
30
0.0
11
178.0
21
8.0
31
0.0
0
LINE
8
0
10
180.0
20
0.0
30
0.0
11
188.0
21
8.0
31
0.0
0
LINE
8
0
10
190.0
20
0.0
30
0.0
11
198.0
21
8.0
31
0.0
0
LINE
8
0
10
0.0
20
10.0
30
0.0
11
8.0
21
18.0
31
0.0
0
LINE
8
0
10
10.0
20
10.0
30
0.0
11
18.0
21
18.0
31
0.0
0
LINE
8
0
10
20.0
20
10.0
30
0.0
11
28.0
21
18.0
31
0.0
0
LINE
8
0
10
30.0
20
10.0
30
0.0
11
38.0
21
18.0
31
0.0
0
LINE
8
0
10
40.0
20
10.0
30
0.0
11
48.0
21
18.0
31
0.0
0
LINE
8
0
10
50.0
20
10.0
30
0.0
11
58.0
21
18.0
31
0.0
0
LINE
8
0
10
60.0
20
10.0
30
0.0
11
68.0
21
18.0
31
0.0
0
LINE
8
0
10
70.0
20
10.0
30
0.0
11
78.0
21
18.0
31
0.0
0
LINE
8
0
10
80.0
20
10.0
30
0.0
11
88.0
21
18.0
31
0.0
0
LINE
8
0
10
90.0
20
10.0
30
0.0
11
98.0
21
18.0
31
0.0
0
LINE
8
0
10
100.0
20
10.0
30
0.0
11
108.0
21
18.0
31
0.0
0
LINE
8
0
10
110.0
20
10.0
30
0.0
11
118.0
21
18.0
31
0.0
0
LINE
8
0
10
120.0
20
10.0
30
0.0
11
128.0
21
18.0
31
0.0
0
LINE
8
0
10
130.0
20
10.0
30
0.0
11
138.0
21
18.0
31
0.0
0
LINE
8
0
10
140.0
20
10.0
30
0.0
11
148.0
21
18.0
31
0.0
0
LINE
8
0
10
150.0
20
10.0
30
0.0
11
158.0
21
18.0
31
0.0
0
LINE
8
0
10
160.0
20
10.0
30
0.0
11
168.0
21
18.0
31
0.0
0
LINE
8
0
10
170.0
20
10.0
30
0.0
11
178.0
21
18.0
31
0.0
0
LINE
8
0
10
180.0
20
10.0
30
0.0
11
188.0
21
18.0
31
0.0
0
LINE
8
0
10
190.0
20
10.0
30
0.0
11
198.0
21
18.0
31
0.0
0
LINE
8
0
10
0.0
20
20.0
30
0.0
11
8.0
21
28.0
31
0.0
0
LINE
8
0
10
10.0
20
20.0
30
0.0
11
18.0
21
28.0
31
0.0
0
LINE
8
0
10
20.0
20
20.0
30
0.0
11
28.0
21
28.0
31
0.0
0
LINE
8
0
10
30.0
20
20.0
30
0.0
11
38.0
21
28.0
31
0.0
0
LINE
8
0
10
40.0
20
20.0
30
0.0
11
48.0
21
28.0
31
0.0
0
LINE
8
0
10
50.0
20
20.0
30
0.0
11
58.0
21
28.0
31
0.0
0
LINE
8
0
10
60.0
20
20.0
30
0.0
11
68.0
21
28.0
31
0.0
0
LINE
8
0
10
70.0
20
20.0
30
0.0
11
78.0
21
28.0
31
0.0
0
LINE
8
0
10
80.0
20
20.0
30
0.0
11
88.0
21
28.0
31
0.0
0
LINE
8
0
10
90.0
20
20.0
30
0.0
11
98.0
21
28.0
31
0.0
0
ENDSEC
0
EOF
