0
SECTION
2
ENTITIES
0
LINE
8
0
10
0.0
20
0.0
30
0.0
11
8.0
21
8.0
31
0.0
0
LINE
8
0
10
10.0
20
0.0
30
0.0
11
18.0
21
8.0
31
0.0
0
LINE
8
0
10
20.0
20
0.0
30
0.0
11
28.0
21
8.0
31
0.0
0
LINE
8
0
10
30.0
20
0.0
30
0.0
11
38.0
21
8.0
31
0.0
0
LINE
8
0
10
40.0
20
0.0
30
0.0
11
48.0
21
8.0
31
0.0
0
LINE
8
0
10
50.0
20
0.0
30
0.0
11
58.0
21
8.0
31
0.0
0
LINE
8
0
10
60.0
20
0.0
30
0.0
11
68.0
21
8.0
31
0.0
0
LINE
8
0
10
70.0
20
0.0
30
0.0
11
78.0
21
8.0
31
0.0
0
LINE
8
0
10
80.0
20
0.0
30
0.0
11
88.0
21
8.0
31
0.0
0
LINE
8
0
10
90.0
20
0.0
30
0.0
11
98.0
21
8.0
31
0.0
0
LINE
8
0
10
100.0
20
0.0
30
0.0
11
108.0
21
8.0
31
0.0
0
LINE
8
0
10
110.0
20
0.0
30
0.0
11
118.0
21
8.0
31
0.0
0
LINE
8
0
10
120.0
20
0.0
30
0.0
11
128.0
21
8.0
31
0.0
0
LINE
8
0
10
130.0
20
0.0
30
0.0
11
138.0
21
8.0
31
0.0
0
LINE
8
0
10
140.0
20
0.0
30
0.0
11
148.0
21
8.0
31
0.0
0
LINE
8
0
10
150.0
20
0.0
30
0.0
11
158.0
21
8.0
31
0.0
0
LINE
8
0
10
160.0
20
0.0
30
0.0
11
168.0
21
8.0
31
0.0
0
LINE
8
0
10
170.0
20
0.0
30
0.0
11
178.0
21
8.0
31
0.0
0
LINE
8
0
10
180.0
20
0.0
30
0.0
11
188.0
21
8.0
31
0.0
0
LINE
8
0
10
190.0
20
0.0
30
0.0
11
198.0
21
8.0
31
0.0
0
LINE
8
0
10
0.0
20
10.0
30
0.0
11
8.0
21
18.0
31
0.0
0
LINE
8
0
10
10.0
20
10.0
30
0.0
11
18.0
21
18.0
31
0.0
0
LINE
8
0
10
20.0
20
10.0
30
0.0
11
28.0
21
18.0
31
0.0
0
LINE
8
0
10
30.0
20
10.0
30
0.0
11
38.0
21
18.0
31
0.0
0
LINE
8
0
10
40.0
20
10.0
30
0.0
11
48.0
21
18.0
31
0.0
0
LINE
8
0
10
50.0
20
10.0
30
0.0
11
58.0
21
18.0
31
0.0
0
LINE
8
0
10
60.0
20
10.0
30
0.0
11
68.0
21
18.0
31
0.0
0
LINE
8
0
10
70.0
20
10.0
30
0.0
11
78.0
21
18.0
31
0.0
0
LINE
8
0
10
80.0
20
10.0
30
0.0
11
88.0
21
18.0
31
0.0
0
LINE
8
0
10
90.0
20
10.0
30
0.0
11
98.0
21
18.0
31
0.0
0
LINE
8
0
10
100.0
20
10.0
30
0.0
11
108.0
21
18.0
31
0.0
0
LINE
8
0
10
110.0
20
10.0
30
0.0
11
118.0
21
18.0
31
0.0
0
LINE
8
0
10
120.0
20
10.0
30
0.0
11
128.0
21
18.0
31
0.0
0
LINE
8
0
10
130.0
20
10.0
30
0.0
11
138.0
21
18.0
31
0.0
0
LINE
8
0
10
140.0
20
10.0
30
0.0
11
148.0
21
18.0
31
0.0
0
LINE
8
0
10
150.0
20
10.0
30
0.0
11
158.0
21
18.0
31
0.0
0
LINE
8
0
10
160.0
20
10.0
30
0.0
11
168.0
21
18.0
31
0.0
0
LINE
8
0
10
170.0
20
10.0
30
0.0
11
178.0
21
18.0
31
0.0
0
LINE
8
0
10
180.0
20
10.0
30
0.0
11
188.0
21
18.0
31
0.0
0
LINE
8
0
10
190.0
20
10.0
30
0.0
11
198.0
21
18.0
31
0.0
0
LINE
8
0
10
0.0
20
20.0
30
0.0
11
8.0
21
28.0
31
0.0
0
LINE
8
0
10
10.0
20
20.0
30
0.0
11
18.0
21
28.0
31
0.0
0
LINE
8
0
10
20.0
20
20.0
30
0.0
11
28.0
21
28.0
31
0.0
0
LINE
8
0
10
30.0
20
20.0
30
0.0
11
38.0
21
28.0
31
0.0
0
LINE
8
0
10
40.0
20
20.0
30
0.0
11
48.0
21
28.0
31
0.0
0
LINE
8
0
10
50.0
20
20.0
30
0.0
11
58.0
21
28.0
31
0.0
0
LINE
8
0
10
60.0
20
20.0
30
0.0
11
68.0
21
28.0
31
0.0
0
LINE
8
0
10
70.0
20
20.0
30
0.0
11
78.0
21
28.0
31
0.0
0
LINE
8
0
10
80.0
20
20.0
30
0.0
11
88.0
21
28.0
31
0.0
0
LINE
8
0
10
90.0
20
20.0
30
0.0
11
98.0
21
28.0
31
0.0
0
LINE
8
0
10
100.0
20
20.0
30
0.0
11
108.0
21
28.0
31
0.0
0
LINE
8
0
10
110.0
20
20.0
30
0.0
11
118.0
21
28.0
31
0.0
0
LINE
8
0
10
120.0
20
20.0
30
0.0
11
128.0
21
28.0
31
0.0
0
LINE
8
0
10
130.0
20
20.0
30
0.0
11
138.0
21
28.0
31
0.0
0
LINE
8
0
10
140.0
20
20.0
30
0.0
11
148.0
21
28.0
31
0.0
0
LINE
8
0
10
150.0
20
20.0
30
0.0
11
158.0
21
28.0
31
0.0
0
LINE
8
0
10
160.0
20
20.0
30
0.0
11
168.0
21
28.0
31
0.0
0
LINE
8
0
10
170.0
20
20.0
30
0.0
11
178.0
21
28.0
31
0.0
0
LINE
8
0
10
180.0
20
20.0
30
0.0
11
188.0
21
28.0
31
0.0
0
LINE
8
0
10
190.0
20
20.0
30
0.0
11
198.0
21
28.0
31
0.0
0
LINE
8
0
10
0.0
20
30.0
30
0.0
11
8.0
21
38.0
31
0.0
0
LINE
8
0
10
10.0
20
30.0
30
0.0
11
18.0
21
38.0
31
0.0
0
LINE
8
0
10
20.0
20
30.0
30
0.0
11
28.0
21
38.0
31
0.0
0
LINE
8
0
10
30.0
20
30.0
30
0.0
11
38.0
21
38.0
31
0.0
0
LINE
8
0
10
40.0
20
30.0
30
0.0
11
48.0
21
38.0
31
0.0
0
LINE
8
0
10
50.0
20
30.0
30
0.0
11
58.0
21
38.0
31
0.0
0
LINE
8
0
10
60.0
20
30.0
30
0.0
11
68.0
21
38.0
31
0.0
0
LINE
8
0
10
70.0
20
30.0
30
0.0
11
78.0
21
38.0
31
0.0
0
LINE
8
0
10
80.0
20
30.0
30
0.0
11
88.0
21
38.0
31
0.0
0
LINE
8
0
10
90.0
20
30.0
30
0.0
11
98.0
21
38.0
31
0.0
0
LINE
8
0
10
100.0
20
30.0
30
0.0
11
108.0
21
38.0
31
0.0
0
LINE
8
0
10
110.0
20
30.0
30
0.0
11
118.0
21
38.0
31
0.0
0
LINE
8
0
10
120.0
20
30.0
30
0.0
11
128.0
21
38.0
31
0.0
0
LINE
8
0
10
130.0
20
30.0
30
0.0
11
138.0
21
38.0
31
0.0
0
LINE
8
0
10
140.0
20
30.0
30
0.0
11
148.0
21
38.0
31
0.0
0
LINE
8
0
10
150.0
20
30.0
30
0.0
11
158.0
21
38.0
31
0.0
0
LINE
8
0
10
160.0
20
30.0
30
0.0
11
168.0
21
38.0
31
0.0
0
LINE
8
0
10
170.0
20
30.0
30
0.0
11
178.0
21
38.0
31
0.0
0
LINE
8
0
10
180.0
20
30.0
30
0.0
11
188.0
21
38.0
31
0.0
0
LINE
8
0
10
190.0
20
30.0
30
0.0
11
198.0
21
38.0
31
0.0
0
LINE
8
0
10
0.0
20
40.0
30
0.0
11
8.0
21
48.0
31
0.0
0
LINE
8
0
10
10.0
20
40.0
30
0.0
11
18.0
21
48.0
31
0.0
0
LINE
8
0
10
20.0
20
40.0
30
0.0
11
28.0
21
48.0
31
0.0
0
LINE
8
0
10
30.0
20
40.0
30
0.0
11
38.0
21
48.0
31
0.0
0
LINE
8
0
10
40.0
20
40.0
30
0.0
11
48.0
21
48.0
31
0.0
0
LINE
8
0
10
50.0
20
40.0
30
0.0
11
58.0
21
48.0
31
0.0
0
LINE
8
0
10
60.0
20
40.0
30
0.0
11
68.0
21
48.0
31
0.0
0
LINE
8
0
10
70.0
20
40.0
30
0.0
11
78.0
21
48.0
31
0.0
0
LINE
8
0
10
80.0
20
40.0
30
0.0
11
88.0
21
48.0
31
0.0
0
LINE
8
0
10
90.0
20
40.0
30
0.0
11
98.0
21
48.0
31
0.0
0
LINE
8
0
10
100.0
20
40.0
30
0.0
11
108.0
21
48.0
31
0.0
0
LINE
8
0
10
110.0
20
40.0
30
0.0
11
118.0
21
48.0
31
0.0
0
LINE
8
0
10
120.0
20
40.0
30
0.0
11
128.0
21
48.0
31
0.0
0
LINE
8
0
10
130.0
20
40.0
30
0.0
11
138.0
21
48.0
31
0.0
0
LINE
8
0
10
140.0
20
40.0
30
0.0
11
148.0
21
48.0
31
0.0
0
LINE
8
0
10
150.0
20
40.0
30
0.0
11
158.0
21
48.0
31
0.0
0
LINE
8
0
10
160.0
20
40.0
30
0.0
11
168.0
21
48.0
31
0.0
0
LINE
8
0
10
170.0
20
40.0
30
0.0
11
178.0
21
48.0
31
0.0
0
LINE
8
0
10
180.0
20
40.0
30
0.0
11
188.0
21
48.0
31
0.0
0
LINE
8
0
10
190.0
20
40.0
30
0.0
11
198.0
21
48.0
31
0.0
0
LINE
8
0
10
0.0
20
50.0
30
0.0
11
8.0
21
58.0
31
0.0
0
LINE
8
0
10
10.0
20
50.0
30
0.0
11
18.0
21
58.0
31
0.0
0
LINE
8
0
10
20.0
20
50.0
30
0.0
11
28.0
21
58.0
31
0.0
0
LINE
8
0
10
30.0
20
50.0
30
0.0
11
38.0
21
58.0
31
0.0
0
LINE
8
0
10
40.0
20
50.0
30
0.0
11
48.0
21
58.0
31
0.0
0
LINE
8
0
10
50.0
20
50.0
30
0.0
11
58.0
21
58.0
31
0.0
0
LINE
8
0
10
60.0
20
50.0
30
0.0
11
68.0
21
58.0
31
0.0
0
LINE
8
0
10
70.0
20
50.0
30
0.0
11
78.0
21
58.0
31
0.0
0
LINE
8
0
10
80.0
20
50.0
30
0.0
11
88.0
21
58.0
31
0.0
0
LINE
8
0
10
90.0
20
50.0
30
0.0
11
98.0
21
58.0
31
0.0
0
LINE
8
0
10
100.0
20
50.0
30
0.0
11
108.0
21
58.0
31
0.0
0
LINE
8
0
10
110.0
20
50.0
30
0.0
11
118.0
21
58.0
31
0.0
0
LINE
8
0
10
120.0
20
50.0
30
0.0
11
128.0
21
58.0
31
0.0
0
LINE
8
0
10
130.0
20
50.0
30
0.0
11
138.0
21
58.0
31
0.0
0
LINE
8
0
10
140.0
20
50.0
30
0.0
11
148.0
21
58.0
31
0.0
0
LINE
8
0
10
150.0
20
50.0
30
0.0
11
158.0
21
58.0
31
0.0
0
LINE
8
0
10
160.0
20
50.0
30
0.0
11
168.0
21
58.0
31
0.0
0
LINE
8
0
10
170.0
20
50.0
30
0.0
11
178.0
21
58.0
31
0.0
0
LINE
8
0
10
180.0
20
50.0
30
0.0
11
188.0
21
58.0
31
0.0
0
LINE
8
0
10
190.0
20
50.0
30
0.0
11
198.0
21
58.0
31
0.0
0
LINE
8
0
10
0.0
20
60.0
30
0.0
11
8.0
21
68.0
31
0.0
0
LINE
8
0
10
10.0
20
60.0
30
0.0
11
18.0
21
68.0
31
0.0
0
LINE
8
0
10
20.0
20
60.0
30
0.0
11
28.0
21
68.0
31
0.0
0
LINE
8
0
10
30.0
20
60.0
30
0.0
11
38.0
21
68.0
31
0.0
0
LINE
8
0
10
40.0
20
60.0
30
0.0
11
48.0
21
68.0
31
0.0
0
LINE
8
0
10
50.0
20
60.0
30
0.0
11
58.0
21
68.0
31
0.0
0
LINE
8
0
10
60.0
20
60.0
30
0.0
11
68.0
21
68.0
31
0.0
0
LINE
8
0
10
70.0
20
60.0
30
0.0
11
78.0
21
68.0
31
0.0
0
LINE
8
0
10
80.0
20
60.0
30
0.0
11
88.0
21
68.0
31
0.0
0
LINE
8
0
10
90.0
20
60.0
30
0.0
11
98.0
21
68.0
31
0.0
0
LINE
8
0
10
100.0
20
60.0
30
0.0
11
108.0
21
68.0
31
0.0
0
LINE
8
0
10
110.0
20
60.0
30
0.0
11
118.0
21
68.0
31
0.0
0
LINE
8
0
10
120.0
20
60.0
30
0.0
11
128.0
21
68.0
31
0.0
0
LINE
8
0
10
130.0
20
60.0
30
0.0
11
138.0
21
68.0
31
0.0
0
LINE
8
0
10
140.0
20
60.0
30
0.0
11
148.0
21
68.0
31
0.0
0
LINE
8
0
10
150.0
20
60.0
30
0.0
11
158.0
21
68.0
31
0.0
0
LINE
8
0
10
160.0
20
60.0
30
0.0
11
168.0
21
68.0
31
0.0
0
LINE
8
0
10
170.0
20
60.0
30
0.0
11
178.0
21
68.0
31
0.0
0
LINE
8
0
10
180.0
20
60.0
30
0.0
11
188.0
21
68.0
31
0.0
0
LINE
8
0
10
190.0
20
60.0
30
0.0
11
198.0
21
68.0
31
0.0
0
LINE
8
0
10
0.0
20
70.0
30
0.0
11
8.0
21
78.0
31
0.0
0
LINE
8
0
10
10.0
20
70.0
30
0.0
11
18.0
21
78.0
31
0.0
0
LINE
8
0
10
20.0
20
70.0
30
0.0
11
28.0
21
78.0
31
0.0
0
LINE
8
0
10
30.0
20
70.0
30
0.0
11
38.0
21
78.0
31
0.0
0
LINE
8
0
10
40.0
20
70.0
30
0.0
11
48.0
21
78.0
31
0.0
0
LINE
8
0
10
50.0
20
70.0
30
0.0
11
58.0
21
78.0
31
0.0
0
LINE
8
0
10
60.0
20
70.0
30
0.0
11
68.0
21
78.0
31
0.0
0
LINE
8
0
10
70.0
20
70.0
30
0.0
11
78.0
21
78.0
31
0.0
0
LINE
8
0
10
80.0
20
70.0
30
0.0
11
88.0
21
78.0
31
0.0
0
LINE
8
0
10
90.0
20
70.0
30
0.0
11
98.0
21
78.0
31
0.0
0
LINE
8
0
10
100.0
20
70.0
30
0.0
11
108.0
21
78.0
31
0.0
0
LINE
8
0
10
110.0
20
70.0
30
0.0
11
118.0
21
78.0
31
0.0
0
LINE
8
0
10
120.0
20
70.0
30
0.0
11
128.0
21
78.0
31
0.0
0
LINE
8
0
10
130.0
20
70.0
30
0.0
11
138.0
21
78.0
31
0.0
0
LINE
8
0
10
140.0
20
70.0
30
0.0
11
148.0
21
78.0
31
0.0
0
LINE
8
0
10
150.0
20
70.0
30
0.0
11
158.0
21
78.0
31
0.0
0
LINE
8
0
10
160.0
20
70.0
30
0.0
11
168.0
21
78.0
31
0.0
0
LINE
8
0
10
170.0
20
70.0
30
0.0
11
178.0
21
78.0
31
0.0
0
LINE
8
0
10
180.0
20
70.0
30
0.0
11
188.0
21
78.0
31
0.0
0
LINE
8
0
10
190.0
20
70.0
30
0.0
11
198.0
21
78.0
31
0.0
0
LINE
8
0
10
0.0
20
80.0
30
0.0
11
8.0
21
88.0
31
0.0
0
LINE
8
0
10
10.0
20
80.0
30
0.0
11
18.0
21
88.0
31
0.0
0
LINE
8
0
10
20.0
20
80.0
30
0.0
11
28.0
21
88.0
31
0.0
0
LINE
8
0
10
30.0
20
80.0
30
0.0
11
38.0
21
88.0
31
0.0
0
LINE
8
0
10
40.0
20
80.0
30
0.0
11
48.0
21
88.0
31
0.0
0
LINE
8
0
10
50.0
20
80.0
30
0.0
11
58.0
21
88.0
31
0.0
0
LINE
8
0
10
60.0
20
80.0
30
0.0
11
68.0
21
88.0
31
0.0
0
LINE
8
0
10
70.0
20
80.0
30
0.0
11
78.0
21
88.0
31
0.0
0
LINE
8
0
10
80.0
20
80.0
30
0.0
11
88.0
21
88.0
31
0.0
0
LINE
8
0
10
90.0
20
80.0
30
0.0
11
98.0
21
88.0
31
0.0
0
LINE
8
0
10
100.0
20
80.0
30
0.0
11
108.0
21
88.0
31
0.0
0
LINE
8
0
10
110.0
20
80.0
30
0.0
11
118.0
21
88.0
31
0.0
0
LINE
8
0
10
120.0
20
80.0
30
0.0
11
128.0
21
88.0
31
0.0
0
LINE
8
0
10
130.0
20
80.0
30
0.0
11
138.0
21
88.0
31
0.0
0
LINE
8
0
10
140.0
20
80.0
30
0.0
11
148.0
21
88.0
31
0.0
0
LINE
8
0
10
150.0
20
80.0
30
0.0
11
158.0
21
88.0
31
0.0
0
LINE
8
0
10
160.0
20
80.0
30
0.0
11
168.0
21
88.0
31
0.0
0
LINE
8
0
10
170.0
20
80.0
30
0.0
11
178.0
21
88.0
31
0.0
0
LINE
8
0
10
180.0
20
80.0
30
0.0
11
188.0
21
88.0
31
0.0
0
LINE
8
0
10
190.0
20
80.0
30
0.0
11
198.0
21
88.0
31
0.0
0
LINE
8
0
10
0.0
20
90.0
30
0.0
11
8.0
21
98.0
31
0.0
0
LINE
8
0
10
10.0
20
90.0
30
0.0
11
18.0
21
98.0
31
0.0
0
LINE
8
0
10
20.0
20
90.0
30
0.0
11
28.0
21
98.0
31
0.0
0
LINE
8
0
10
30.0
20
90.0
30
0.0
11
38.0
21
98.0
31
0.0
0
LINE
8
0
10
40.0
20
90.0
30
0.0
11
48.0
21
98.0
31
0.0
0
LINE
8
0
10
50.0
20
90.0
30
0.0
11
58.0
21
98.0
31
0.0
0
LINE
8
0
10
60.0
20
90.0
30
0.0
11
68.0
21
98.0
31
0.0
0
LINE
8
0
10
70.0
20
90.0
30
0.0
11
78.0
21
98.0
31
0.0
0
LINE
8
0
10
80.0
20
90.0
30
0.0
11
88.0
21
98.0
31
0.0
0
LINE
8
0
10
90.0
20
90.0
30
0.0
11
98.0
21
98.0
31
0.0
0
LINE
8
0
10
100.0
20
90.0
30
0.0
11
108.0
21
98.0
31
0.0
0
LINE
8
0
10
110.0
20
90.0
30
0.0
11
118.0
21
98.0
31
0.0
0
LINE
8
0
10
120.0
20
90.0
30
0.0
11
128.0
21
98.0
31
0.0
0
LINE
8
0
10
130.0
20
90.0
30
0.0
11
138.0
21
98.0
31
0.0
0
LINE
8
0
10
140.0
20
90.0
30
0.0
11
148.0
21
98.0
31
0.0
0
LINE
8
0
10
150.0
20
90.0
30
0.0
11
158.0
21
98.0
31
0.0
0
LINE
8
0
10
160.0
20
90.0
30
0.0
11
168.0
21
98.0
31
0.0
0
LINE
8
0
10
170.0
20
90.0
30
0.0
11
178.0
21
98.0
31
0.0
0
LINE
8
0
10
180.0
20
90.0
30
0.0
11
188.0
21
98.0
31
0.0
0
LINE
8
0
10
190.0
20
90.0
30
0.0
11
198.0
21
98.0
31
0.0
0
LINE
8
0
10
0.0
20
100.0
30
0.0
11
8.0
21
108.0
31
0.0
0
LINE
8
0
10
10.0
20
100.0
30
0.0
11
18.0
21
108.0
31
0.0
0
LINE
8
0
10
20.0
20
100.0
30
0.0
11
28.0
21
108.0
31
0.0
0
LINE
8
0
10
30.0
20
100.0
30
0.0
11
38.0
21
108.0
31
0.0
0
LINE
8
0
10
40.0
20
100.0
30
0.0
11
48.0
21
108.0
31
0.0
0
LINE
8
0
10
50.0
20
100.0
30
0.0
11
58.0
21
108.0
31
0.0
0
LINE
8
0
10
60.0
20
100.0
30
0.0
11
68.0
21
108.0
31
0.0
0
LINE
8
0
10
70.0
20
100.0
30
0.0
11
78.0
21
108.0
31
0.0
0
LINE
8
0
10
80.0
20
100.0
30
0.0
11
88.0
21
108.0
31
0.0
0
LINE
8
0
10
90.0
20
100.0
30
0.0
11
98.0
21
108.0
31
0.0
0
LINE
8
0
10
100.0
20
100.0
30
0.0
11
108.0
21
108.0
31
0.0
0
LINE
8
0
10
110.0
20
100.0
30
0.0
11
118.0
21
108.0
31
0.0
0
LINE
8
0
10
120.0
20
100.0
30
0.0
11
128.0
21
108.0
31
0.0
0
LINE
8
0
10
130.0
20
100.0
30
0.0
11
138.0
21
108.0
31
0.0
0
LINE
8
0
10
140.0
20
100.0
30
0.0
11
148.0
21
108.0
31
0.0
0
LINE
8
0
10
150.0
20
100.0
30
0.0
11
158.0
21
108.0
31
0.0
0
LINE
8
0
10
160.0
20
100.0
30
0.0
11
168.0
21
108.0
31
0.0
0
LINE
8
0
10
170.0
20
100.0
30
0.0
11
178.0
21
108.0
31
0.0
0
LINE
8
0
10
180.0
20
100.0
30
0.0
11
188.0
21
108.0
31
0.0
0
LINE
8
0
10
190.0
20
100.0
30
0.0
11
198.0
21
108.0
31
0.0
0
LINE
8
0
10
0.0
20
110.0
30
0.0
11
8.0
21
118.0
31
0.0
0
LINE
8
0
10
10.0
20
110.0
30
0.0
11
18.0
21
118.0
31
0.0
0
LINE
8
0
10
20.0
20
110.0
30
0.0
11
28.0
21
118.0
31
0.0
0
LINE
8
0
10
30.0
20
110.0
30
0.0
11
38.0
21
118.0
31
0.0
0
LINE
8
0
10
40.0
20
110.0
30
0.0
11
48.0
21
118.0
31
0.0
0
LINE
8
0
10
50.0
20
110.0
30
0.0
11
58.0
21
118.0
31
0.0
0
LINE
8
0
10
60.0
20
110.0
30
0.0
11
68.0
21
118.0
31
0.0
0
LINE
8
0
10
70.0
20
110.0
30
0.0
11
78.0
21
118.0
31
0.0
0
LINE
8
0
10
80.0
20
110.0
30
0.0
11
88.0
21
118.0
31
0.0
0
LINE
8
0
10
90.0
20
110.0
30
0.0
11
98.0
21
118.0
31
0.0
0
LINE
8
0
10
100.0
20
110.0
30
0.0
11
108.0
21
118.0
31
0.0
0
LINE
8
0
10
110.0
20
110.0
30
0.0
11
118.0
21
118.0
31
0.0
0
LINE
8
0
10
120.0
20
110.0
30
0.0
11
128.0
21
118.0
31
0.0
0
LINE
8
0
10
130.0
20
110.0
30
0.0
11
138.0
21
118.0
31
0.0
0
LINE
8
0
10
140.0
20
110.0
30
0.0
11
148.0
21
118.0
31
0.0
0
LINE
8
0
10
150.0
20
110.0
30
0.0
11
158.0
21
118.0
31
0.0
0
LINE
8
0
10
160.0
20
110.0
30
0.0
11
168.0
21
118.0
31
0.0
0
LINE
8
0
10
170.0
20
110.0
30
0.0
11
178.0
21
118.0
31
0.0
0
LINE
8
0
10
180.0
20
110.0
30
0.0
11
188.0
21
118.0
31
0.0
0
LINE
8
0
10
190.0
20
110.0
30
0.0
11
198.0
21
118.0
31
0.0
0
LINE
8
0
10
0.0
20
120.0
30
0.0
11
8.0
21
128.0
31
0.0
0
LINE
8
0
10
10.0
20
120.0
30
0.0
11
18.0
21
128.0
31
0.0
0
LINE
8
0
10
20.0
20
120.0
30
0.0
11
28.0
21
128.0
31
0.0
0
LINE
8
0
10
30.0
20
120.0
30
0.0
11
38.0
21
128.0
31
0.0
0
LINE
8
0
10
40.0
20
120.0
30
0.0
11
48.0
21
128.0
31
0.0
0
LINE
8
0
10
50.0
20
120.0
30
0.0
11
58.0
21
128.0
31
0.0
0
LINE
8
0
10
60.0
20
120.0
30
0.0
11
68.0
21
128.0
31
0.0
0
LINE
8
0
10
70.0
20
120.0
30
0.0
11
78.0
21
128.0
31
0.0
0
LINE
8
0
10
80.0
20
120.0
30
0.0
11
88.0
21
128.0
31
0.0
0
LINE
8
0
10
90.0
20
120.0
30
0.0
11
98.0
21
128.0
31
0.0
0
LINE
8
0
10
100.0
20
120.0
30
0.0
11
108.0
21
128.0
31
0.0
0
LINE
8
0
10
110.0
20
120.0
30
0.0
11
118.0
21
128.0
31
0.0
0
LINE
8
0
10
120.0
20
120.0
30
0.0
11
128.0
21
128.0
31
0.0
0
LINE
8
0
10
130.0
20
120.0
30
0.0
11
138.0
21
128.0
31
0.0
0
LINE
8
0
10
140.0
20
120.0
30
0.0
11
148.0
21
128.0
31
0.0
0
LINE
8
0
10
150.0
20
120.0
30
0.0
11
158.0
21
128.0
31
0.0
0
LINE
8
0
10
160.0
20
120.0
30
0.0
11
168.0
21
128.0
31
0.0
0
LINE
8
0
10
170.0
20
120.0
30
0.0
11
178.0
21
128.0
31
0.0
0
LINE
8
0
10
180.0
20
120.0
30
0.0
11
188.0
21
128.0
31
0.0
0
LINE
8
0
10
190.0
20
120.0
30
0.0
11
198.0
21
128.0
31
0.0
0
LINE
8
0
10
0.0
20
130.0
30
0.0
11
8.0
21
138.0
31
0.0
0
LINE
8
0
10
10.0
20
130.0
30
0.0
11
18.0
21
138.0
31
0.0
0
LINE
8
0
10
20.0
20
130.0
30
0.0
11
28.0
21
138.0
31
0.0
0
LINE
8
0
10
30.0
20
130.0
30
0.0
11
38.0
21
138.0
31
0.0
0
LINE
8
0
10
40.0
20
130.0
30
0.0
11
48.0
21
138.0
31
0.0
0
LINE
8
0
10
50.0
20
130.0
30
0.0
11
58.0
21
138.0
31
0.0
0
LINE
8
0
10
60.0
20
130.0
30
0.0
11
68.0
21
138.0
31
0.0
0
LINE
8
0
10
70.0
20
130.0
30
0.0
11
78.0
21
138.0
31
0.0
0
LINE
8
0
10
80.0
20
130.0
30
0.0
11
88.0
21
138.0
31
0.0
0
LINE
8
0
10
90.0
20
130.0
30
0.0
11
98.0
21
138.0
31
0.0
0
LINE
8
0
10
100.0
20
130.0
30
0.0
11
108.0
21
138.0
31
0.0
0
LINE
8
0
10
110.0
20
130.0
30
0.0
11
118.0
21
138.0
31
0.0
0
LINE
8
0
10
120.0
20
130.0
30
0.0
11
128.0
21
138.0
31
0.0
0
LINE
8
0
10
130.0
20
130.0
30
0.0
11
138.0
21
138.0
31
0.0
0
LINE
8
0
10
140.0
20
130.0
30
0.0
11
148.0
21
138.0
31
0.0
0
LINE
8
0
10
150.0
20
130.0
30
0.0
11
158.0
21
138.0
31
0.0
0
LINE
8
0
10
160.0
20
130.0
30
0.0
11
168.0
21
138.0
31
0.0
0
LINE
8
0
10
170.0
20
130.0
30
0.0
11
178.0
21
138.0
31
0.0
0
LINE
8
0
10
180.0
20
130.0
30
0.0
11
188.0
21
138.0
31
0.0
0
LINE
8
0
10
190.0
20
130.0
30
0.0
11
198.0
21
138.0
31
0.0
0
LINE
8
0
10
0.0
20
140.0
30
0.0
11
8.0
21
148.0
31
0.0
0
LINE
8
0
10
10.0
20
140.0
30
0.0
11
18.0
21
148.0
31
0.0
0
LINE
8
0
10
20.0
20
140.0
30
0.0
11
28.0
21
148.0
31
0.0
0
LINE
8
0
10
30.0
20
140.0
30
0.0
11
38.0
21
148.0
31
0.0
0
LINE
8
0
10
40.0
20
140.0
30
0.0
11
48.0
21
148.0
31
0.0
0
LINE
8
0
10
50.0
20
140.0
30
0.0
11
58.0
21
148.0
31
0.0
0
LINE
8
0
10
60.0
20
140.0
30
0.0
11
68.0
21
148.0
31
0.0
0
LINE
8
0
10
70.0
20
140.0
30
0.0
11
78.0
21
148.0
31
0.0
0
LINE
8
0
10
80.0
20
140.0
30
0.0
11
88.0
21
148.0
31
0.0
0
LINE
8
0
10
90.0
20
140.0
30
0.0
11
98.0
21
148.0
31
0.0
0
LINE
8
0
10
100.0
20
140.0
30
0.0
11
108.0
21
148.0
31
0.0
0
LINE
8
0
10
110.0
20
140.0
30
0.0
11
118.0
21
148.0
31
0.0
0
LINE
8
0
10
120.0
20
140.0
30
0.0
11
128.0
21
148.0
31
0.0
0
LINE
8
0
10
130.0
20
140.0
30
0.0
11
138.0
21
148.0
31
0.0
0
LINE
8
0
10
140.0
20
140.0
30
0.0
11
148.0
21
148.0
31
0.0
0
LINE
8
0
10
150.0
20
140.0
30
0.0
11
158.0
21
148.0
31
0.0
0
LINE
8
0
10
160.0
20
140.0
30
0.0
11
168.0
21
148.0
31
0.0
0
LINE
8
0
10
170.0
20
140.0
30
0.0
11
178.0
21
148.0
31
0.0
0
LINE
8
0
10
180.0
20
140.0
30
0.0
11
188.0
21
148.0
31
0.0
0
LINE
8
0
10
190.0
20
140.0
30
0.0
11
198.0
21
148.0
31
0.0
0
LINE
8
0
10
0.0
20
150.0
30
0.0
11
8.0
21
158.0
31
0.0
0
LINE
8
0
10
10.0
20
150.0
30
0.0
11
18.0
21
158.0
31
0.0
0
LINE
8
0
10
20.0
20
150.0
30
0.0
11
28.0
21
158.0
31
0.0
0
LINE
8
0
10
30.0
20
150.0
30
0.0
11
38.0
21
158.0
31
0.0
0
LINE
8
0
10
40.0
20
150.0
30
0.0
11
48.0
21
158.0
31
0.0
0
LINE
8
0
10
50.0
20
150.0
30
0.0
11
58.0
21
158.0
31
0.0
0
LINE
8
0
10
60.0
20
150.0
30
0.0
11
68.0
21
158.0
31
0.0
0
LINE
8
0
10
70.0
20
150.0
30
0.0
11
78.0
21
158.0
31
0.0
0
LINE
8
0
10
80.0
20
150.0
30
0.0
11
88.0
21
158.0
31
0.0
0
LINE
8
0
10
90.0
20
150.0
30
0.0
11
98.0
21
158.0
31
0.0
0
LINE
8
0
10
100.0
20
150.0
30
0.0
11
108.0
21
158.0
31
0.0
0
LINE
8
0
10
110.0
20
150.0
30
0.0
11
118.0
21
158.0
31
0.0
0
LINE
8
0
10
120.0
20
150.0
30
0.0
11
128.0
21
158.0
31
0.0
0
LINE
8
0
10
130.0
20
150.0
30
0.0
11
138.0
21
158.0
31
0.0
0
LINE
8
0
10
140.0
20
150.0
30
0.0
11
148.0
21
158.0
31
0.0
0
LINE
8
0
10
150.0
20
150.0
30
0.0
11
158.0
21
158.0
31
0.0
0
LINE
8
0
10
160.0
20
150.0
30
0.0
11
168.0
21
158.0
31
0.0
0
LINE
8
0
10
170.0
20
150.0
30
0.0
11
178.0
21
158.0
31
0.0
0
LINE
8
0
10
180.0
20
150.0
30
0.0
11
188.0
21
158.0
31
0.0
0
LINE
8
0
10
190.0
20
150.0
30
0.0
11
198.0
21
158.0
31
0.0
0
LINE
8
0
10
0.0
20
160.0
30
0.0
11
8.0
21
168.0
31
0.0
0
LINE
8
0
10
10.0
20
160.0
30
0.0
11
18.0
21
168.0
31
0.0
0
LINE
8
0
10
20.0
20
160.0
30
0.0
11
28.0
21
168.0
31
0.0
0
LINE
8
0
10
30.0
20
160.0
30
0.0
11
38.0
21
168.0
31
0.0
0
LINE
8
0
10
40.0
20
160.0
30
0.0
11
48.0
21
168.0
31
0.0
0
LINE
8
0
10
50.0
20
160.0
30
0.0
11
58.0
21
168.0
31
0.0
0
LINE
8
0
10
60.0
20
160.0
30
0.0
11
68.0
21
168.0
31
0.0
0
LINE
8
0
10
70.0
20
160.0
30
0.0
11
78.0
21
168.0
31
0.0
0
LINE
8
0
10
80.0
20
160.0
30
0.0
11
88.0
21
168.0
31
0.0
0
LINE
8
0
10
90.0
20
160.0
30
0.0
11
98.0
21
168.0
31
0.0
0
LINE
8
0
10
100.0
20
160.0
30
0.0
11
108.0
21
168.0
31
0.0
0
LINE
8
0
10
110.0
20
160.0
30
0.0
11
118.0
21
168.0
31
0.0
0
LINE
8
0
10
120.0
20
160.0
30
0.0
11
128.0
21
168.0
31
0.0
0
LINE
8
0
10
130.0
20
160.0
30
0.0
11
138.0
21
168.0
31
0.0
0
LINE
8
0
10
140.0
20
160.0
30
0.0
11
148.0
21
168.0
31
0.0
0
LINE
8
0
10
150.0
20
160.0
30
0.0
11
158.0
21
168.0
31
0.0
0
LINE
8
0
10
160.0
20
160.0
30
0.0
11
168.0
21
168.0
31
0.0
0
LINE
8
0
10
170.0
20
160.0
30
0.0
11
178.0
21
168.0
31
0.0
0
LINE
8
0
10
180.0
20
160.0
30
0.0
11
188.0
21
168.0
31
0.0
0
LINE
8
0
10
190.0
20
160.0
30
0.0
11
198.0
21
168.0
31
0.0
0
LINE
8
0
10
0.0
20
170.0
30
0.0
11
8.0
21
178.0
31
0.0
0
LINE
8
0
10
10.0
20
170.0
30
0.0
11
18.0
21
178.0
31
0.0
0
LINE
8
0
10
20.0
20
170.0
30
0.0
11
28.0
21
178.0
31
0.0
0
LINE
8
0
10
30.0
20
170.0
30
0.0
11
38.0
21
178.0
31
0.0
0
LINE
8
0
10
40.0
20
170.0
30
0.0
11
48.0
21
178.0
31
0.0
0
LINE
8
0
10
50.0
20
170.0
30
0.0
11
58.0
21
178.0
31
0.0
0
LINE
8
0
10
60.0
20
170.0
30
0.0
11
68.0
21
178.0
31
0.0
0
LINE
8
0
10
70.0
20
170.0
30
0.0
11
78.0
21
178.0
31
0.0
0
LINE
8
0
10
80.0
20
170.0
30
0.0
11
88.0
21
178.0
31
0.0
0
LINE
8
0
10
90.0
20
170.0
30
0.0
11
98.0
21
178.0
31
0.0
0
LINE
8
0
10
100.0
20
170.0
30
0.0
11
108.0
21
178.0
31
0.0
0
LINE
8
0
10
110.0
20
170.0
30
0.0
11
118.0
21
178.0
31
0.0
0
LINE
8
0
10
120.0
20
170.0
30
0.0
11
128.0
21
178.0
31
0.0
0
LINE
8
0
10
130.0
20
170.0
30
0.0
11
138.0
21
178.0
31
0.0
0
LINE
8
0
10
140.0
20
170.0
30
0.0
11
148.0
21
178.0
31
0.0
0
LINE
8
0
10
150.0
20
170.0
30
0.0
11
158.0
21
178.0
31
0.0
0
LINE
8
0
10
160.0
20
170.0
30
0.0
11
168.0
21
178.0
31
0.0
0
LINE
8
0
10
170.0
20
170.0
30
0.0
11
178.0
21
178.0
31
0.0
0
LINE
8
0
10
180.0
20
170.0
30
0.0
11
188.0
21
178.0
31
0.0
0
LINE
8
0
10
190.0
20
170.0
30
0.0
11
198.0
21
178.0
31
0.0
0
LINE
8
0
10
0.0
20
180.0
30
0.0
11
8.0
21
188.0
31
0.0
0
LINE
8
0
10
10.0
20
180.0
30
0.0
11
18.0
21
188.0
31
0.0
0
LINE
8
0
10
20.0
20
180.0
30
0.0
11
28.0
21
188.0
31
0.0
0
LINE
8
0
10
30.0
20
180.0
30
0.0
11
38.0
21
188.0
31
0.0
0
LINE
8
0
10
40.0
20
180.0
30
0.0
11
48.0
21
188.0
31
0.0
0
LINE
8
0
10
50.0
20
180.0
30
0.0
11
58.0
21
188.0
31
0.0
0
LINE
8
0
10
60.0
20
180.0
30
0.0
11
68.0
21
188.0
31
0.0
0
LINE
8
0
10
70.0
20
180.0
30
0.0
11
78.0
21
188.0
31
0.0
0
LINE
8
0
10
80.0
20
180.0
30
0.0
11
88.0
21
188.0
31
0.0
0
LINE
8
0
10
90.0
20
180.0
30
0.0
11
98.0
21
188.0
31
0.0
0
LINE
8
0
10
100.0
20
180.0
30
0.0
11
108.0
21
188.0
31
0.0
0
LINE
8
0
10
110.0
20
180.0
30
0.0
11
118.0
21
188.0
31
0.0
0
LINE
8
0
10
120.0
20
180.0
30
0.0
11
128.0
21
188.0
31
0.0
0
LINE
8
0
10
130.0
20
180.0
30
0.0
11
138.0
21
188.0
31
0.0
0
LINE
8
0
10
140.0
20
180.0
30
0.0
11
148.0
21
188.0
31
0.0
0
LINE
8
0
10
150.0
20
180.0
30
0.0
11
158.0
21
188.0
31
0.0
0
LINE
8
0
10
160.0
20
180.0
30
0.0
11
168.0
21
188.0
31
0.0
0
LINE
8
0
10
170.0
20
180.0
30
0.0
11
178.0
21
188.0
31
0.0
0
LINE
8
0
10
180.0
20
180.0
30
0.0
11
188.0
21
188.0
31
0.0
0
LINE
8
0
10
190.0
20
180.0
30
0.0
11
198.0
21
188.0
31
0.0
0
LINE
8
0
10
0.0
20
190.0
30
0.0
11
8.0
21
198.0
31
0.0
0
LINE
8
0
10
10.0
20
190.0
30
0.0
11
18.0
21
198.0
31
0.0
0
LINE
8
0
10
20.0
20
190.0
30
0.0
11
28.0
21
198.0
31
0.0
0
LINE
8
0
10
30.0
20
190.0
30
0.0
11
38.0
21
198.0
31
0.0
0
LINE
8
0
10
40.0
20
190.0
30
0.0
11
48.0
21
198.0
31
0.0
0
LINE
8
0
10
50.0
20
190.0
30
0.0
11
58.0
21
198.0
31
0.0
0
LINE
8
0
10
60.0
20
190.0
30
0.0
11
68.0
21
198.0
31
0.0
0
LINE
8
0
10
70.0
20
190.0
30
0.0
11
78.0
21
198.0
31
0.0
0
LINE
8
0
10
80.0
20
190.0
30
0.0
11
88.0
21
198.0
31
0.0
0
LINE
8
0
10
90.0
20
190.0
30
0.0
11
98.0
21
198.0
31
0.0
0
LINE
8
0
10
100.0
20
190.0
30
0.0
11
108.0
21
198.0
31
0.0
0
LINE
8
0
10
110.0
20
190.0
30
0.0
11
118.0
21
198.0
31
0.0
0
LINE
8
0
10
120.0
20
190.0
30
0.0
11
128.0
21
198.0
31
0.0
0
LINE
8
0
10
130.0
20
190.0
30
0.0
11
138.0
21
198.0
31
0.0
0
LINE
8
0
10
140.0
20
190.0
30
0.0
11
148.0
21
198.0
31
0.0
0
LINE
8
0
10
150.0
20
190.0
30
0.0
11
158.0
21
198.0
31
0.0
0
LINE
8
0
10
160.0
20
190.0
30
0.0
11
168.0
21
198.0
31
0.0
0
LINE
8
0
10
170.0
20
190.0
30
0.0
11
178.0
21
198.0
31
0.0
0
LINE
8
0
10
180.0
20
190.0
30
0.0
11
188.0
21
198.0
31
0.0
0
LINE
8
0
10
190.0
20
190.0
30
0.0
11
198.0
21
198.0
31
0.0
0
LINE
8
0
10
0.0
20
200.0
30
0.0
11
8.0
21
208.0
31
0.0
0
LINE
8
0
10
10.0
20
200.0
30
0.0
11
18.0
21
208.0
31
0.0
0
LINE
8
0
10
20.0
20
200.0
30
0.0
11
28.0
21
208.0
31
0.0
0
LINE
8
0
10
30.0
20
200.0
30
0.0
11
38.0
21
208.0
31
0.0
0
LINE
8
0
10
40.0
20
200.0
30
0.0
11
48.0
21
208.0
31
0.0
0
LINE
8
0
10
50.0
20
200.0
30
0.0
11
58.0
21
208.0
31
0.0
0
LINE
8
0
10
60.0
20
200.0
30
0.0
11
68.0
21
208.0
31
0.0
0
LINE
8
0
10
70.0
20
200.0
30
0.0
11
78.0
21
208.0
31
0.0
0
LINE
8
0
10
80.0
20
200.0
30
0.0
11
88.0
21
208.0
31
0.0
0
LINE
8
0
10
90.0
20
200.0
30
0.0
11
98.0
21
208.0
31
0.0
0
LINE
8
0
10
100.0
20
200.0
30
0.0
11
108.0
21
208.0
31
0.0
0
LINE
8
0
10
110.0
20
200.0
30
0.0
11
118.0
21
208.0
31
0.0
0
LINE
8
0
10
120.0
20
200.0
30
0.0
11
128.0
21
208.0
31
0.0
0
LINE
8
0
10
130.0
20
200.0
30
0.0
11
138.0
21
208.0
31
0.0
0
LINE
8
0
10
140.0
20
200.0
30
0.0
11
148.0
21
208.0
31
0.0
0
LINE
8
0
10
150.0
20
200.0
30
0.0
11
158.0
21
208.0
31
0.0
0
LINE
8
0
10
160.0
20
200.0
30
0.0
11
168.0
21
208.0
31
0.0
0
LINE
8
0
10
170.0
20
200.0
30
0.0
11
178.0
21
208.0
31
0.0
0
LINE
8
0
10
180.0
20
200.0
30
0.0
11
188.0
21
208.0
31
0.0
0
LINE
8
0
10
190.0
20
200.0
30
0.0
11
198.0
21
208.0
31
0.0
0
LINE
8
0
10
0.0
20
210.0
30
0.0
11
8.0
21
218.0
31
0.0
0
LINE
8
0
10
10.0
20
210.0
30
0.0
11
18.0
21
218.0
31
0.0
0
LINE
8
0
10
20.0
20
210.0
30
0.0
11
28.0
21
218.0
31
0.0
0
LINE
8
0
10
30.0
20
210.0
30
0.0
11
38.0
21
218.0
31
0.0
0
LINE
8
0
10
40.0
20
210.0
30
0.0
11
48.0
21
218.0
31
0.0
0
LINE
8
0
10
50.0
20
210.0
30
0.0
11
58.0
21
218.0
31
0.0
0
LINE
8
0
10
60.0
20
210.0
30
0.0
11
68.0
21
218.0
31
0.0
0
LINE
8
0
10
70.0
20
210.0
30
0.0
11
78.0
21
218.0
31
0.0
0
LINE
8
0
10
80.0
20
210.0
30
0.0
11
88.0
21
218.0
31
0.0
0
LINE
8
0
10
90.0
20
210.0
30
0.0
11
98.0
21
218.0
31
0.0
0
LINE
8
0
10
100.0
20
210.0
30
0.0
11
108.0
21
218.0
31
0.0
0
LINE
8
0
10
110.0
20
210.0
30
0.0
11
118.0
21
218.0
31
0.0
0
LINE
8
0
10
120.0
20
210.0
30
0.0
11
128.0
21
218.0
31
0.0
0
LINE
8
0
10
130.0
20
210.0
30
0.0
11
138.0
21
218.0
31
0.0
0
LINE
8
0
10
140.0
20
210.0
30
0.0
11
148.0
21
218.0
31
0.0
0
LINE
8
0
10
150.0
20
210.0
30
0.0
11
158.0
21
218.0
31
0.0
0
LINE
8
0
10
160.0
20
210.0
30
0.0
11
168.0
21
218.0
31
0.0
0
LINE
8
0
10
170.0
20
210.0
30
0.0
11
178.0
21
218.0
31
0.0
0
LINE
8
0
10
180.0
20
210.0
30
0.0
11
188.0
21
218.0
31
0.0
0
LINE
8
0
10
190.0
20
210.0
30
0.0
11
198.0
21
218.0
31
0.0
0
LINE
8
0
10
0.0
20
220.0
30
0.0
11
8.0
21
228.0
31
0.0
0
LINE
8
0
10
10.0
20
220.0
30
0.0
11
18.0
21
228.0
31
0.0
0
LINE
8
0
10
20.0
20
220.0
30
0.0
11
28.0
21
228.0
31
0.0
0
LINE
8
0
10
30.0
20
220.0
30
0.0
11
38.0
21
228.0
31
0.0
0
LINE
8
0
10
40.0
20
220.0
30
0.0
11
48.0
21
228.0
31
0.0
0
LINE
8
0
10
50.0
20
220.0
30
0.0
11
58.0
21
228.0
31
0.0
0
LINE
8
0
10
60.0
20
220.0
30
0.0
11
68.0
21
228.0
31
0.0
0
LINE
8
0
10
70.0
20
220.0
30
0.0
11
78.0
21
228.0
31
0.0
0
LINE
8
0
10
80.0
20
220.0
30
0.0
11
88.0
21
228.0
31
0.0
0
LINE
8
0
10
90.0
20
220.0
30
0.0
11
98.0
21
228.0
31
0.0
0
LINE
8
0
10
100.0
20
220.0
30
0.0
11
108.0
21
228.0
31
0.0
0
LINE
8
0
10
110.0
20
220.0
30
0.0
11
118.0
21
228.0
31
0.0
0
LINE
8
0
10
120.0
20
220.0
30
0.0
11
128.0
21
228.0
31
0.0
0
LINE
8
0
10
130.0
20
220.0
30
0.0
11
138.0
21
228.0
31
0.0
0
LINE
8
0
10
140.0
20
220.0
30
0.0
11
148.0
21
228.0
31
0.0
0
LINE
8
0
10
150.0
20
220.0
30
0.0
11
158.0
21
228.0
31
0.0
0
LINE
8
0
10
160.0
20
220.0
30
0.0
11
168.0
21
228.0
31
0.0
0
LINE
8
0
10
170.0
20
220.0
30
0.0
11
178.0
21
228.0
31
0.0
0
LINE
8
0
10
180.0
20
220.0
30
0.0
11
188.0
21
228.0
31
0.0
0
LINE
8
0
10
190.0
20
220.0
30
0.0
11
198.0
21
228.0
31
0.0
0
LINE
8
0
10
0.0
20
230.0
30
0.0
11
8.0
21
238.0
31
0.0
0
LINE
8
0
10
10.0
20
230.0
30
0.0
11
18.0
21
238.0
31
0.0
0
LINE
8
0
10
20.0
20
230.0
30
0.0
11
28.0
21
238.0
31
0.0
0
LINE
8
0
10
30.0
20
230.0
30
0.0
11
38.0
21
238.0
31
0.0
0
LINE
8
0
10
40.0
20
230.0
30
0.0
11
48.0
21
238.0
31
0.0
0
LINE
8
0
10
50.0
20
230.0
30
0.0
11
58.0
21
238.0
31
0.0
0
LINE
8
0
10
60.0
20
230.0
30
0.0
11
68.0
21
238.0
31
0.0
0
LINE
8
0
10
70.0
20
230.0
30
0.0
11
78.0
21
238.0
31
0.0
0
LINE
8
0
10
80.0
20
230.0
30
0.0
11
88.0
21
238.0
31
0.0
0
LINE
8
0
10
90.0
20
230.0
30
0.0
11
98.0
21
238.0
31
0.0
0
LINE
8
0
10
100.0
20
230.0
30
0.0
11
108.0
21
238.0
31
0.0
0
LINE
8
0
10
110.0
20
230.0
30
0.0
11
118.0
21
238.0
31
0.0
0
LINE
8
0
10
120.0
20
230.0
30
0.0
11
128.0
21
238.0
31
0.0
0
LINE
8
0
10
130.0
20
230.0
30
0.0
11
138.0
21
238.0
31
0.0
0
LINE
8
0
10
140.0
20
230.0
30
0.0
11
148.0
21
238.0
31
0.0
0
LINE
8
0
10
150.0
20
230.0
30
0.0
11
158.0
21
238.0
31
0.0
0
LINE
8
0
10
160.0
20
230.0
30
0.0
11
168.0
21
238.0
31
0.0
0
LINE
8
0
10
170.0
20
230.0
30
0.0
11
178.0
21
238.0
31
0.0
0
LINE
8
0
10
180.0
20
230.0
30
0.0
11
188.0
21
238.0
31
0.0
0
LINE
8
0
10
190.0
20
230.0
30
0.0
11
198.0
21
238.0
31
0.0
0
LINE
8
0
10
0.0
20
240.0
30
0.0
11
8.0
21
248.0
31
0.0
0
LINE
8
0
10
10.0
20
240.0
30
0.0
11
18.0
21
248.0
31
0.0
0
LINE
8
0
10
20.0
20
240.0
30
0.0
11
28.0
21
248.0
31
0.0
0
LINE
8
0
10
30.0
20
240.0
30
0.0
11
38.0
21
248.0
31
0.0
0
LINE
8
0
10
40.0
20
240.0
30
0.0
11
48.0
21
248.0
31
0.0
0
LINE
8
0
10
50.0
20
240.0
30
0.0
11
58.0
21
248.0
31
0.0
0
LINE
8
0
10
60.0
20
240.0
30
0.0
11
68.0
21
248.0
31
0.0
0
LINE
8
0
10
70.0
20
240.0
30
0.0
11
78.0
21
248.0
31
0.0
0
LINE
8
0
10
80.0
20
240.0
30
0.0
11
88.0
21
248.0
31
0.0
0
LINE
8
0
10
90.0
20
240.0
30
0.0
11
98.0
21
248.0
31
0.0
0
LINE
8
0
10
100.0
20
240.0
30
0.0
11
108.0
21
248.0
31
0.0
0
LINE
8
0
10
110.0
20
240.0
30
0.0
11
118.0
21
248.0
31
0.0
0
LINE
8
0
10
120.0
20
240.0
30
0.0
11
128.0
21
248.0
31
0.0
0
LINE
8
0
10
130.0
20
240.0
30
0.0
11
138.0
21
248.0
31
0.0
0
LINE
8
0
10
140.0
20
240.0
30
0.0
11
148.0
21
248.0
31
0.0
0
LINE
8
0
10
150.0
20
240.0
30
0.0
11
158.0
21
248.0
31
0.0
0
LINE
8
0
10
160.0
20
240.0
30
0.0
11
168.0
21
248.0
31
0.0
0
LINE
8
0
10
170.0
20
240.0
30
0.0
11
178.0
21
248.0
31
0.0
0
LINE
8
0
10
180.0
20
240.0
30
0.0
11
188.0
21
248.0
31
0.0
0
LINE
8
0
10
190.0
20
240.0
30
0.0
11
198.0
21
248.0
31
0.0
0
LINE
8
0
10
0.0
20
250.0
30
0.0
11
8.0
21
258.0
31
0.0
0
LINE
8
0
10
10.0
20
250.0
30
0.0
11
18.0
21
258.0
31
0.0
0
LINE
8
0
10
20.0
20
250.0
30
0.0
11
28.0
21
258.0
31
0.0
0
LINE
8
0
10
30.0
20
250.0
30
0.0
11
38.0
21
258.0
31
0.0
0
LINE
8
0
10
40.0
20
250.0
30
0.0
11
48.0
21
258.0
31
0.0
0
LINE
8
0
10
50.0
20
250.0
30
0.0
11
58.0
21
258.0
31
0.0
0
LINE
8
0
10
60.0
20
250.0
30
0.0
11
68.0
21
258.0
31
0.0
0
LINE
8
0
10
70.0
20
250.0
30
0.0
11
78.0
21
258.0
31
0.0
0
LINE
8
0
10
80.0
20
250.0
30
0.0
11
88.0
21
258.0
31
0.0
0
LINE
8
0
10
90.0
20
250.0
30
0.0
11
98.0
21
258.0
31
0.0
0
LINE
8
0
10
100.0
20
250.0
30
0.0
11
108.0
21
258.0
31
0.0
0
LINE
8
0
10
110.0
20
250.0
30
0.0
11
118.0
21
258.0
31
0.0
0
LINE
8
0
10
120.0
20
250.0
30
0.0
11
128.0
21
258.0
31
0.0
0
LINE
8
0
10
130.0
20
250.0
30
0.0
11
138.0
21
258.0
31
0.0
0
LINE
8
0
10
140.0
20
250.0
30
0.0
11
148.0
21
258.0
31
0.0
0
LINE
8
0
10
150.0
20
250.0
30
0.0
11
158.0
21
258.0
31
0.0
0
LINE
8
0
10
160.0
20
250.0
30
0.0
11
168.0
21
258.0
31
0.0
0
LINE
8
0
10
170.0
20
250.0
30
0.0
11
178.0
21
258.0
31
0.0
0
LINE
8
0
10
180.0
20
250.0
30
0.0
11
188.0
21
258.0
31
0.0
0
LINE
8
0
10
190.0
20
250.0
30
0.0
11
198.0
21
258.0
31
0.0
0
LINE
8
0
10
0.0
20
260.0
30
0.0
11
8.0
21
268.0
31
0.0
0
LINE
8
0
10
10.0
20
260.0
30
0.0
11
18.0
21
268.0
31
0.0
0
LINE
8
0
10
20.0
20
260.0
30
0.0
11
28.0
21
268.0
31
0.0
0
LINE
8
0
10
30.0
20
260.0
30
0.0
11
38.0
21
268.0
31
0.0
0
LINE
8
0
10
40.0
20
260.0
30
0.0
11
48.0
21
268.0
31
0.0
0
LINE
8
0
10
50.0
20
260.0
30
0.0
11
58.0
21
268.0
31
0.0
0
LINE
8
0
10
60.0
20
260.0
30
0.0
11
68.0
21
268.0
31
0.0
0
LINE
8
0
10
70.0
20
260.0
30
0.0
11
78.0
21
268.0
31
0.0
0
LINE
8
0
10
80.0
20
260.0
30
0.0
11
88.0
21
268.0
31
0.0
0
LINE
8
0
10
90.0
20
260.0
30
0.0
11
98.0
21
268.0
31
0.0
0
LINE
8
0
10
100.0
20
260.0
30
0.0
11
108.0
21
268.0
31
0.0
0
LINE
8
0
10
110.0
20
260.0
30
0.0
11
118.0
21
268.0
31
0.0
0
LINE
8
0
10
120.0
20
260.0
30
0.0
11
128.0
21
268.0
31
0.0
0
LINE
8
0
10
130.0
20
260.0
30
0.0
11
138.0
21
268.0
31
0.0
0
LINE
8
0
10
140.0
20
260.0
30
0.0
11
148.0
21
268.0
31
0.0
0
LINE
8
0
10
150.0
20
260.0
30
0.0
11
158.0
21
268.0
31
0.0
0
LINE
8
0
10
160.0
20
260.0
30
0.0
11
168.0
21
268.0
31
0.0
0
LINE
8
0
10
170.0
20
260.0
30
0.0
11
178.0
21
268.0
31
0.0
0
LINE
8
0
10
180.0
20
260.0
30
0.0
11
188.0
21
268.0
31
0.0
0
LINE
8
0
10
190.0
20
260.0
30
0.0
11
198.0
21
268.0
31
0.0
0
LINE
8
0
10
0.0
20
270.0
30
0.0
11
8.0
21
278.0
31
0.0
0
LINE
8
0
10
10.0
20
270.0
30
0.0
11
18.0
21
278.0
31
0.0
0
LINE
8
0
10
20.0
20
270.0
30
0.0
11
28.0
21
278.0
31
0.0
0
LINE
8
0
10
30.0
20
270.0
30
0.0
11
38.0
21
278.0
31
0.0
0
LINE
8
0
10
40.0
20
270.0
30
0.0
11
48.0
21
278.0
31
0.0
0
LINE
8
0
10
50.0
20
270.0
30
0.0
11
58.0
21
278.0
31
0.0
0
LINE
8
0
10
60.0
20
270.0
30
0.0
11
68.0
21
278.0
31
0.0
0
LINE
8
0
10
70.0
20
270.0
30
0.0
11
78.0
21
278.0
31
0.0
0
LINE
8
0
10
80.0
20
270.0
30
0.0
11
88.0
21
278.0
31
0.0
0
LINE
8
0
10
90.0
20
270.0
30
0.0
11
98.0
21
278.0
31
0.0
0
LINE
8
0
10
100.0
20
270.0
30
0.0
11
108.0
21
278.0
31
0.0
0
LINE
8
0
10
110.0
20
270.0
30
0.0
11
118.0
21
278.0
31
0.0
0
LINE
8
0
10
120.0
20
270.0
30
0.0
11
128.0
21
278.0
31
0.0
0
LINE
8
0
10
130.0
20
270.0
30
0.0
11
138.0
21
278.0
31
0.0
0
LINE
8
0
10
140.0
20
270.0
30
0.0
11
148.0
21
278.0
31
0.0
0
LINE
8
0
10
150.0
20
270.0
30
0.0
11
158.0
21
278.0
31
0.0
0
LINE
8
0
10
160.0
20
270.0
30
0.0
11
168.0
21
278.0
31
0.0
0
LINE
8
0
10
170.0
20
270.0
30
0.0
11
178.0
21
278.0
31
0.0
0
LINE
8
0
10
180.0
20
270.0
30
0.0
11
188.0
21
278.0
31
0.0
0
LINE
8
0
10
190.0
20
270.0
30
0.0
11
198.0
21
278.0
31
0.0
0
LINE
8
0
10
0.0
20
280.0
30
0.0
11
8.0
21
288.0
31
0.0
0
LINE
8
0
10
10.0
20
280.0
30
0.0
11
18.0
21
288.0
31
0.0
0
LINE
8
0
10
20.0
20
280.0
30
0.0
11
28.0
21
288.0
31
0.0
0
LINE
8
0
10
30.0
20
280.0
30
0.0
11
38.0
21
288.0
31
0.0
0
LINE
8
0
10
40.0
20
280.0
30
0.0
11
48.0
21
288.0
31
0.0
0
LINE
8
0
10
50.0
20
280.0
30
0.0
11
58.0
21
288.0
31
0.0
0
LINE
8
0
10
60.0
20
280.0
30
0.0
11
68.0
21
288.0
31
0.0
0
LINE
8
0
10
70.0
20
280.0
30
0.0
11
78.0
21
288.0
31
0.0
0
LINE
8
0
10
80.0
20
280.0
30
0.0
11
88.0
21
288.0
31
0.0
0
LINE
8
0
10
90.0
20
280.0
30
0.0
11
98.0
21
288.0
31
0.0
0
LINE
8
0
10
100.0
20
280.0
30
0.0
11
108.0
21
288.0
31
0.0
0
LINE
8
0
10
110.0
20
280.0
30
0.0
11
118.0
21
288.0
31
0.0
0
LINE
8
0
10
120.0
20
280.0
30
0.0
11
128.0
21
288.0
31
0.0
0
LINE
8
0
10
130.0
20
280.0
30
0.0
11
138.0
21
288.0
31
0.0
0
LINE
8
0
10
140.0
20
280.0
30
0.0
11
148.0
21
288.0
31
0.0
0
LINE
8
0
10
150.0
20
280.0
30
0.0
11
158.0
21
288.0
31
0.0
0
LINE
8
0
10
160.0
20
280.0
30
0.0
11
168.0
21
288.0
31
0.0
0
LINE
8
0
10
170.0
20
280.0
30
0.0
11
178.0
21
288.0
31
0.0
0
LINE
8
0
10
180.0
20
280.0
30
0.0
11
188.0
21
288.0
31
0.0
0
LINE
8
0
10
190.0
20
280.0
30
0.0
11
198.0
21
288.0
31
0.0
0
LINE
8
0
10
0.0
20
290.0
30
0.0
11
8.0
21
298.0
31
0.0
0
LINE
8
0
10
10.0
20
290.0
30
0.0
11
18.0
21
298.0
31
0.0
0
LINE
8
0
10
20.0
20
290.0
30
0.0
11
28.0
21
298.0
31
0.0
0
LINE
8
0
10
30.0
20
290.0
30
0.0
11
38.0
21
298.0
31
0.0
0
LINE
8
0
10
40.0
20
290.0
30
0.0
11
48.0
21
298.0
31
0.0
0
LINE
8
0
10
50.0
20
290.0
30
0.0
11
58.0
21
298.0
31
0.0
0
LINE
8
0
10
60.0
20
290.0
30
0.0
11
68.0
21
298.0
31
0.0
0
LINE
8
0
10
70.0
20
290.0
30
0.0
11
78.0
21
298.0
31
0.0
0
LINE
8
0
10
80.0
20
290.0
30
0.0
11
88.0
21
298.0
31
0.0
0
LINE
8
0
10
90.0
20
290.0
30
0.0
11
98.0
21
298.0
31
0.0
0
LINE
8
0
10
100.0
20
290.0
30
0.0
11
108.0
21
298.0
31
0.0
0
LINE
8
0
10
110.0
20
290.0
30
0.0
11
118.0
21
298.0
31
0.0
0
LINE
8
0
10
120.0
20
290.0
30
0.0
11
128.0
21
298.0
31
0.0
0
LINE
8
0
10
130.0
20
290.0
30
0.0
11
138.0
21
298.0
31
0.0
0
LINE
8
0
10
140.0
20
290.0
30
0.0
11
148.0
21
298.0
31
0.0
0
LINE
8
0
10
150.0
20
290.0
30
0.0
11
158.0
21
298.0
31
0.0
0
LINE
8
0
10
160.0
20
290.0
30
0.0
11
168.0
21
298.0
31
0.0
0
LINE
8
0
10
170.0
20
290.0
30
0.0
11
178.0
21
298.0
31
0.0
0
LINE
8
0
10
180.0
20
290.0
30
0.0
11
188.0
21
298.0
31
0.0
0
LINE
8
0
10
190.0
20
290.0
30
0.0
11
198.0
21
298.0
31
0.0
0
LINE
8
0
10
0.0
20
300.0
30
0.0
11
8.0
21
308.0
31
0.0
0
LINE
8
0
10
10.0
20
300.0
30
0.0
11
18.0
21
308.0
31
0.0
0
LINE
8
0
10
20.0
20
300.0
30
0.0
11
28.0
21
308.0
31
0.0
0
LINE
8
0
10
30.0
20
300.0
30
0.0
11
38.0
21
308.0
31
0.0
0
LINE
8
0
10
40.0
20
300.0
30
0.0
11
48.0
21
308.0
31
0.0
0
LINE
8
0
10
50.0
20
300.0
30
0.0
11
58.0
21
308.0
31
0.0
0
LINE
8
0
10
60.0
20
300.0
30
0.0
11
68.0
21
308.0
31
0.0
0
LINE
8
0
10
70.0
20
300.0
30
0.0
11
78.0
21
308.0
31
0.0
0
LINE
8
0
10
80.0
20
300.0
30
0.0
11
88.0
21
308.0
31
0.0
0
LINE
8
0
10
90.0
20
300.0
30
0.0
11
98.0
21
308.0
31
0.0
0
LINE
8
0
10
100.0
20
300.0
30
0.0
11
108.0
21
308.0
31
0.0
0
LINE
8
0
10
110.0
20
300.0
30
0.0
11
118.0
21
308.0
31
0.0
0
LINE
8
0
10
120.0
20
300.0
30
0.0
11
128.0
21
308.0
31
0.0
0
LINE
8
0
10
130.0
20
300.0
30
0.0
11
138.0
21
308.0
31
0.0
0
LINE
8
0
10
140.0
20
300.0
30
0.0
11
148.0
21
308.0
31
0.0
0
LINE
8
0
10
150.0
20
300.0
30
0.0
11
158.0
21
308.0
31
0.0
0
LINE
8
0
10
160.0
20
300.0
30
0.0
11
168.0
21
308.0
31
0.0
0
LINE
8
0
10
170.0
20
300.0
30
0.0
11
178.0
21
308.0
31
0.0
0
LINE
8
0
10
180.0
20
300.0
30
0.0
11
188.0
21
308.0
31
0.0
0
LINE
8
0
10
190.0
20
300.0
30
0.0
11
198.0
21
308.0
31
0.0
0
LINE
8
0
10
0.0
20
310.0
30
0.0
11
8.0
21
318.0
31
0.0
0
LINE
8
0
10
10.0
20
310.0
30
0.0
11
18.0
21
318.0
31
0.0
0
LINE
8
0
10
20.0
20
310.0
30
0.0
11
28.0
21
318.0
31
0.0
0
LINE
8
0
10
30.0
20
310.0
30
0.0
11
38.0
21
318.0
31
0.0
0
LINE
8
0
10
40.0
20
310.0
30
0.0
11
48.0
21
318.0
31
0.0
0
LINE
8
0
10
50.0
20
310.0
30
0.0
11
58.0
21
318.0
31
0.0
0
LINE
8
0
10
60.0
20
310.0
30
0.0
11
68.0
21
318.0
31
0.0
0
LINE
8
0
10
70.0
20
310.0
30
0.0
11
78.0
21
318.0
31
0.0
0
LINE
8
0
10
80.0
20
310.0
30
0.0
11
88.0
21
318.0
31
0.0
0
LINE
8
0
10
90.0
20
310.0
30
0.0
11
98.0
21
318.0
31
0.0
0
LINE
8
0
10
100.0
20
310.0
30
0.0
11
108.0
21
318.0
31
0.0
0
LINE
8
0
10
110.0
20
310.0
30
0.0
11
118.0
21
318.0
31
0.0
0
LINE
8
0
10
120.0
20
310.0
30
0.0
11
128.0
21
318.0
31
0.0
0
LINE
8
0
10
130.0
20
310.0
30
0.0
11
138.0
21
318.0
31
0.0
0
LINE
8
0
10
140.0
20
310.0
30
0.0
11
148.0
21
318.0
31
0.0
0
LINE
8
0
10
150.0
20
310.0
30
0.0
11
158.0
21
318.0
31
0.0
0
LINE
8
0
10
160.0
20
310.0
30
0.0
11
168.0
21
318.0
31
0.0
0
LINE
8
0
10
170.0
20
310.0
30
0.0
11
178.0
21
318.0
31
0.0
0
LINE
8
0
10
180.0
20
310.0
30
0.0
11
188.0
21
318.0
31
0.0
0
LINE
8
0
10
190.0
20
310.0
30
0.0
11
198.0
21
318.0
31
0.0
0
LINE
8
0
10
0.0
20
320.0
30
0.0
11
8.0
21
328.0
31
0.0
0
LINE
8
0
10
10.0
20
320.0
30
0.0
11
18.0
21
328.0
31
0.0
0
LINE
8
0
10
20.0
20
320.0
30
0.0
11
28.0
21
328.0
31
0.0
0
LINE
8
0
10
30.0
20
320.0
30
0.0
11
38.0
21
328.0
31
0.0
0
LINE
8
0
10
40.0
20
320.0
30
0.0
11
48.0
21
328.0
31
0.0
0
LINE
8
0
10
50.0
20
320.0
30
0.0
11
58.0
21
328.0
31
0.0
0
LINE
8
0
10
60.0
20
320.0
30
0.0
11
68.0
21
328.0
31
0.0
0
LINE
8
0
10
70.0
20
320.0
30
0.0
11
78.0
21
328.0
31
0.0
0
LINE
8
0
10
80.0
20
320.0
30
0.0
11
88.0
21
328.0
31
0.0
0
LINE
8
0
10
90.0
20
320.0
30
0.0
11
98.0
21
328.0
31
0.0
0
LINE
8
0
10
100.0
20
320.0
30
0.0
11
108.0
21
328.0
31
0.0
0
LINE
8
0
10
110.0
20
320.0
30
0.0
11
118.0
21
328.0
31
0.0
0
LINE
8
0
10
120.0
20
320.0
30
0.0
11
128.0
21
328.0
31
0.0
0
LINE
8
0
10
130.0
20
320.0
30
0.0
11
138.0
21
328.0
31
0.0
0
LINE
8
0
10
140.0
20
320.0
30
0.0
11
148.0
21
328.0
31
0.0
0
LINE
8
0
10
150.0
20
320.0
30
0.0
11
158.0
21
328.0
31
0.0
0
LINE
8
0
10
160.0
20
320.0
30
0.0
11
168.0
21
328.0
31
0.0
0
LINE
8
0
10
170.0
20
320.0
30
0.0
11
178.0
21
328.0
31
0.0
0
LINE
8
0
10
180.0
20
320.0
30
0.0
11
188.0
21
328.0
31
0.0
0
LINE
8
0
10
190.0
20
320.0
30
0.0
11
198.0
21
328.0
31
0.0
0
LINE
8
0
10
0.0
20
330.0
30
0.0
11
8.0
21
338.0
31
0.0
0
LINE
8
0
10
10.0
20
330.0
30
0.0
11
18.0
21
338.0
31
0.0
0
LINE
8
0
10
20.0
20
330.0
30
0.0
11
28.0
21
338.0
31
0.0
0
LINE
8
0
10
30.0
20
330.0
30
0.0
11
38.0
21
338.0
31
0.0
0
LINE
8
0
10
40.0
20
330.0
30
0.0
11
48.0
21
338.0
31
0.0
0
LINE
8
0
10
50.0
20
330.0
30
0.0
11
58.0
21
338.0
31
0.0
0
LINE
8
0
10
60.0
20
330.0
30
0.0
11
68.0
21
338.0
31
0.0
0
LINE
8
0
10
70.0
20
330.0
30
0.0
11
78.0
21
338.0
31
0.0
0
LINE
8
0
10
80.0
20
330.0
30
0.0
11
88.0
21
338.0
31
0.0
0
LINE
8
0
10
90.0
20
330.0
30
0.0
11
98.0
21
338.0
31
0.0
0
LINE
8
0
10
100.0
20
330.0
30
0.0
11
108.0
21
338.0
31
0.0
0
LINE
8
0
10
110.0
20
330.0
30
0.0
11
118.0
21
338.0
31
0.0
0
LINE
8
0
10
120.0
20
330.0
30
0.0
11
128.0
21
338.0
31
0.0
0
LINE
8
0
10
130.0
20
330.0
30
0.0
11
138.0
21
338.0
31
0.0
0
LINE
8
0
10
140.0
20
330.0
30
0.0
11
148.0
21
338.0
31
0.0
0
LINE
8
0
10
150.0
20
330.0
30
0.0
11
158.0
21
338.0
31
0.0
0
LINE
8
0
10
160.0
20
330.0
30
0.0
11
168.0
21
338.0
31
0.0
0
LINE
8
0
10
170.0
20
330.0
30
0.0
11
178.0
21
338.0
31
0.0
0
LINE
8
0
10
180.0
20
330.0
30
0.0
11
188.0
21
338.0
31
0.0
0
LINE
8
0
10
190.0
20
330.0
30
0.0
11
198.0
21
338.0
31
0.0
0
LINE
8
0
10
0.0
20
340.0
30
0.0
11
8.0
21
348.0
31
0.0
0
LINE
8
0
10
10.0
20
340.0
30
0.0
11
18.0
21
348.0
31
0.0
0
LINE
8
0
10
20.0
20
340.0
30
0.0
11
28.0
21
348.0
31
0.0
0
LINE
8
0
10
30.0
20
340.0
30
0.0
11
38.0
21
348.0
31
0.0
0
LINE
8
0
10
40.0
20
340.0
30
0.0
11
48.0
21
348.0
31
0.0
0
LINE
8
0
10
50.0
20
340.0
30
0.0
11
58.0
21
348.0
31
0.0
0
LINE
8
0
10
60.0
20
340.0
30
0.0
11
68.0
21
348.0
31
0.0
0
LINE
8
0
10
70.0
20
340.0
30
0.0
11
78.0
21
348.0
31
0.0
0
LINE
8
0
10
80.0
20
340.0
30
0.0
11
88.0
21
348.0
31
0.0
0
LINE
8
0
10
90.0
20
340.0
30
0.0
11
98.0
21
348.0
31
0.0
0
LINE
8
0
10
100.0
20
340.0
30
0.0
11
108.0
21
348.0
31
0.0
0
LINE
8
0
10
110.0
20
340.0
30
0.0
11
118.0
21
348.0
31
0.0
0
LINE
8
0
10
120.0
20
340.0
30
0.0
11
128.0
21
348.0
31
0.0
0
LINE
8
0
10
130.0
20
340.0
30
0.0
11
138.0
21
348.0
31
0.0
0
LINE
8
0
10
140.0
20
340.0
30
0.0
11
148.0
21
348.0
31
0.0
0
LINE
8
0
10
150.0
20
340.0
30
0.0
11
158.0
21
348.0
31
0.0
0
LINE
8
0
10
160.0
20
340.0
30
0.0
11
168.0
21
348.0
31
0.0
0
LINE
8
0
10
170.0
20
340.0
30
0.0
11
178.0
21
348.0
31
0.0
0
LINE
8
0
10
180.0
20
340.0
30
0.0
11
188.0
21
348.0
31
0.0
0
LINE
8
0
10
190.0
20
340.0
30
0.0
11
198.0
21
348.0
31
0.0
0
ENDSEC
0
EOF
