<?xml version="1.0" encoding="UTF-8"?>
<X3D profile="Interchange" version="3.3">
  <Scene>
    <Shape>
      <Appearance><Material diffuseColor="0.2 0.4 0.8"/></Appearance>
      <IndexedFaceSet coordIndex="1 0 24 -1 1 24 2 -1 2 24 25 -1 2 25 3 -1 3 25 26 -1 3 26 4 -1 4 26 27 -1 4 27 5 -1 5 27 28 -1 5 28 6 -1 6 28 29 -1 6 29 7 -1 7 29 30 -1 7 30 8 -1 8 30 31 -1 8 31 9 -1 9 31 32 -1 9 32 10 -1 10 32 33 -1 10 33 11 -1 11 33 34 -1 11 34 12 -1 12 34 35 -1 12 35 13 -1 13 35 36 -1 13 36 14 -1 14 36 37 -1 14 37 15 -1 15 37 38 -1 15 38 16 -1 16 38 39 -1 16 39 17 -1 17 39 40 -1 17 40 18 -1 18 40 41 -1 18 41 19 -1 19 41 42 -1 19 42 20 -1 20 42 43 -1 20 43 21 -1 21 43 44 -1 21 44 22 -1 22 44 45 -1 22 45 23 -1 24 0 46 -1 24 46 25 -1 25 46 47 -1 25 47 26 -1 26 47 48 -1 26 48 27 -1 27 48 49 -1 27 49 28 -1 28 49 50 -1 28 50 29 -1 29 50 51 -1 29 51 30 -1 30 51 52 -1 30 52 31 -1 31 52 53 -1 31 53 32 -1 32 53 54 -1 32 54 33 -1 33 54 55 -1 33 55 34 -1 34 55 56 -1 34 56 35 -1 35 56 57 -1 35 57 36 -1 36 57 58 -1 36 58 37 -1 37 58 59 -1 37 59 38 -1 38 59 60 -1 38 60 39 -1 39 60 61 -1 39 61 40 -1 40 61 62 -1 40 62 41 -1 41 62 63 -1 41 63 42 -1 42 63 64 -1 42 64 43 -1 43 64 65 -1 43 65 44 -1 44 65 66 -1 44 66 45 -1 45 66 67 -1 45 67 23 -1 46 0 68 -1 46 68 47 -1 47 68 69 -1 47 69 48 -1 48 69 70 -1 48 70 49 -1 49 70 71 -1 49 71 50 -1 50 71 72 -1 50 72 51 -1 51 72 73 -1 51 73 52 -1 52 73 74 -1 52 74 53 -1 53 74 75 -1 53 75 54 -1 54 75 76 -1 54 76 55 -1 55 76 77 -1 55 77 56 -1 56 77 78 -1 56 78 57 -1 57 78 79 -1 57 79 58 -1 58 79 80 -1 58 80 59 -1 59 80 81 -1 59 81 60 -1 60 81 82 -1 60 82 61 -1 61 82 83 -1 61 83 62 -1 62 83 84 -1 62 84 63 -1 63 84 85 -1 63 85 64 -1 64 85 86 -1 64 86 65 -1 65 86 87 -1 65 87 66 -1 66 87 88 -1 66 88 67 -1 67 88 89 -1 67 89 23 -1 68 0 90 -1 68 90 69 -1 69 90 91 -1 69 91 70 -1 70 91 92 -1 70 92 71 -1 71 92 93 -1 71 93 72 -1 72 93 94 -1 72 94 73 -1 73 94 95 -1 73 95 74 -1 74 95 96 -1 74 96 75 -1 75 96 97 -1 75 97 76 -1 76 97 98 -1 76 98 77 -1 77 98 99 -1 77 99 78 -1 78 99 100 -1 78 100 79 -1 79 100 101 -1 79 101 80 -1 80 101 102 -1 80 102 81 -1 81 102 103 -1 81 103 82 -1 82 103 104 -1 82 104 83 -1 83 104 105 -1 83 105 84 -1 84 105 106 -1 84 106 85 -1 85 106 107 -1 85 107 86 -1 86 107 108 -1 86 108 87 -1 87 108 109 -1 87 109 88 -1 88 109 110 -1 88 110 89 -1 89 110 111 -1 89 111 23 -1 90 0 112 -1 90 112 91 -1 91 112 113 -1 91 113 92 -1 92 113 114 -1 92 114 93 -1 93 114 115 -1 93 115 94 -1 94 115 116 -1 94 116 95 -1 95 116 117 -1 95 117 96 -1 96 117 118 -1 96 118 97 -1 97 118 119 -1 97 119 98 -1 98 119 120 -1 98 120 99 -1 99 120 121 -1 99 121 100 -1 100 121 122 -1 100 122 101 -1 101 122 123 -1 101 123 102 -1 102 123 124 -1 102 124 103 -1 103 124 125 -1 103 125 104 -1 104 125 126 -1 104 126 105 -1 105 126 127 -1 105 127 106 -1 106 127 128 -1 106 128 107 -1 107 128 129 -1 107 129 108 -1 108 129 130 -1 108 130 109 -1 109 130 131 -1 109 131 110 -1 110 131 132 -1 110 132 111 -1 111 132 133 -1 111 133 23 -1 112 0 134 -1 112 134 113 -1 113 134 135 -1 113 135 114 -1 114 135 136 -1 114 136 115 -1 115 136 137 -1 115 137 116 -1 116 137 138 -1 116 138 117 -1 117 138 139 -1 117 139 118 -1 118 139 140 -1 118 140 119 -1 119 140 141 -1 119 141 120 -1 120 141 142 -1 120 142 121 -1 121 142 143 -1 121 143 122 -1 122 143 144 -1 122 144 123 -1 123 144 145 -1 123 145 124 -1 124 145 146 -1 124 146 125 -1 125 146 147 -1 125 147 126 -1 126 147 148 -1 126 148 127 -1 127 148 149 -1 127 149 128 -1 128 149 150 -1 128 150 129 -1 129 150 151 -1 129 151 130 -1 130 151 152 -1 130 152 131 -1 131 152 153 -1 131 153 132 -1 132 153 154 -1 132 154 133 -1 133 154 155 -1 133 155 23 -1 134 0 156 -1 134 156 135 -1 135 156 157 -1 135 157 136 -1 136 157 158 -1 136 158 137 -1 137 158 159 -1 137 159 138 -1 138 159 160 -1 138 160 139 -1 139 160 161 -1 139 161 140 -1 140 161 162 -1 140 162 141 -1 141 162 163 -1 141 163 142 -1 142 163 164 -1 142 164 143 -1 143 164 165 -1 143 165 144 -1 144 165 166 -1 144 166 145 -1 145 166 167 -1 145 167 146 -1 146 167 168 -1 146 168 147 -1 147 168 169 -1 147 169 148 -1 148 169 170 -1 148 170 149 -1 149 170 171 -1 149 171 150 -1 150 171 172 -1 150 172 151 -1 151 172 173 -1 151 173 152 -1 152 173 174 -1 152 174 153 -1 153 174 175 -1 153 175 154 -1 154 175 176 -1 154 176 155 -1 155 176 177 -1 155 177 23 -1 156 0 178 -1 156 178 157 -1 157 178 179 -1 157 179 158 -1 158 179 180 -1 158 180 159 -1 159 180 181 -1 159 181 160 -1 160 181 182 -1 160 182 161 -1 161 182 183 -1 161 183 162 -1 162 183 184 -1 162 184 163 -1 163 184 185 -1 163 185 164 -1 164 185 186 -1 164 186 165 -1 165 186 187 -1 165 187 166 -1 166 187 188 -1 166 188 167 -1 167 188 189 -1 167 189 168 -1 168 189 190 -1 168 190 169 -1 169 190 191 -1 169 191 170 -1 170 191 192 -1 170 192 171 -1 171 192 193 -1 171 193 172 -1 172 193 194 -1 172 194 173 -1 173 194 195 -1 173 195 174 -1 174 195 196 -1 174 196 175 -1 175 196 197 -1 175 197 176 -1 176 197 198 -1 176 198 177 -1 177 198 199 -1 177 199 23 -1 178 0 200 -1 178 200 179 -1 179 200 201 -1 179 201 180 -1 180 201 202 -1 180 202 181 -1 181 202 203 -1 181 203 182 -1 182 203 204 -1 182 204 183 -1 183 204 205 -1 183 205 184 -1 184 205 206 -1 184 206 185 -1 185 206 207 -1 185 207 186 -1 186 207 208 -1 186 208 187 -1 187 208 209 -1 187 209 188 -1 188 209 210 -1 188 210 189 -1 189 210 211 -1 189 211 190 -1 190 211 212 -1 190 212 191 -1 191 212 213 -1 191 213 192 -1 192 213 214 -1 192 214 193 -1 193 214 215 -1 193 215 194 -1 194 215 216 -1 194 216 195 -1 195 216 217 -1 195 217 196 -1 196 217 218 -1 196 218 197 -1 197 218 219 -1 197 219 198 -1 198 219 220 -1 198 220 199 -1 199 220 221 -1 199 221 23 -1 200 0 222 -1 200 222 201 -1 201 222 223 -1 201 223 202 -1 202 223 224 -1 202 224 203 -1 203 224 225 -1 203 225 204 -1 204 225 226 -1 204 226 205 -1 205 226 227 -1 205 227 206 -1 206 227 228 -1 206 228 207 -1 207 228 229 -1 207 229 208 -1 208 229 230 -1 208 230 209 -1 209 230 231 -1 209 231 210 -1 210 231 232 -1 210 232 211 -1 211 232 233 -1 211 233 212 -1 212 233 234 -1 212 234 213 -1 213 234 235 -1 213 235 214 -1 214 235 236 -1 214 236 215 -1 215 236 237 -1 215 237 216 -1 216 237 238 -1 216 238 217 -1 217 238 239 -1 217 239 218 -1 218 239 240 -1 218 240 219 -1 219 240 241 -1 219 241 220 -1 220 241 242 -1 220 242 221 -1 221 242 243 -1 221 243 23 -1 222 0 244 -1 222 244 223 -1 223 244 245 -1 223 245 224 -1 224 245 246 -1 224 246 225 -1 225 246 247 -1 225 247 226 -1 226 247 248 -1 226 248 227 -1 227 248 249 -1 227 249 228 -1 228 249 250 -1 228 250 229 -1 229 250 251 -1 229 251 230 -1 230 251 252 -1 230 252 231 -1 231 252 253 -1 231 253 232 -1 232 253 254 -1 232 254 233 -1 233 254 255 -1 233 255 234 -1 234 255 256 -1 234 256 235 -1 235 256 257 -1 235 257 236 -1 236 257 258 -1 236 258 237 -1 237 258 259 -1 237 259 238 -1 238 259 260 -1 238 260 239 -1 239 260 261 -1 239 261 240 -1 240 261 262 -1 240 262 241 -1 241 262 263 -1 241 263 242 -1 242 263 264 -1 242 264 243 -1 243 264 265 -1 243 265 23 -1 244 0 266 -1 244 266 245 -1 245 266 267 -1 245 267 246 -1 246 267 268 -1 246 268 247 -1 247 268 269 -1 247 269 248 -1 248 269 270 -1 248 270 249 -1 249 270 271 -1 249 271 250 -1 250 271 272 -1 250 272 251 -1 251 272 273 -1 251 273 252 -1 252 273 274 -1 252 274 253 -1 253 274 275 -1 253 275 254 -1 254 275 276 -1 254 276 255 -1 255 276 277 -1 255 277 256 -1 256 277 278 -1 256 278 257 -1 257 278 279 -1 257 279 258 -1 258 279 280 -1 258 280 259 -1 259 280 281 -1 259 281 260 -1 260 281 282 -1 260 282 261 -1 261 282 283 -1 261 283 262 -1 262 283 284 -1 262 284 263 -1 263 284 285 -1 263 285 264 -1 264 285 286 -1 264 286 265 -1 265 286 287 -1 265 287 23 -1 266 0 288 -1 266 288 267 -1 267 288 289 -1 267 289 268 -1 268 289 290 -1 268 290 269 -1 269 290 291 -1 269 291 270 -1 270 291 292 -1 270 292 271 -1 271 292 293 -1 271 293 272 -1 272 293 294 -1 272 294 273 -1 273 294 295 -1 273 295 274 -1 274 295 296 -1 274 296 275 -1 275 296 297 -1 275 297 276 -1 276 297 298 -1 276 298 277 -1 277 298 299 -1 277 299 278 -1 278 299 300 -1 278 300 279 -1 279 300 301 -1 279 301 280 -1 280 301 302 -1 280 302 281 -1 281 302 303 -1 281 303 282 -1 282 303 304 -1 282 304 283 -1 283 304 305 -1 283 305 284 -1 284 305 306 -1 284 306 285 -1 285 306 307 -1 285 307 286 -1 286 307 308 -1 286 308 287 -1 287 308 309 -1 287 309 23 -1 288 0 310 -1 288 310 289 -1 289 310 311 -1 289 311 290 -1 290 311 312 -1 290 312 291 -1 291 312 313 -1 291 313 292 -1 292 313 314 -1 292 314 293 -1 293 314 315 -1 293 315 294 -1 294 315 316 -1 294 316 295 -1 295 316 317 -1 295 317 296 -1 296 317 318 -1 296 318 297 -1 297 318 319 -1 297 319 298 -1 298 319 320 -1 298 320 299 -1 299 320 321 -1 299 321 300 -1 300 321 322 -1 300 322 301 -1 301 322 323 -1 301 323 302 -1 302 323 324 -1 302 324 303 -1 303 324 325 -1 303 325 304 -1 304 325 326 -1 304 326 305 -1 305 326 327 -1 305 327 306 -1 306 327 328 -1 306 328 307 -1 307 328 329 -1 307 329 308 -1 308 329 330 -1 308 330 309 -1 309 330 331 -1 309 331 23 -1 310 0 332 -1 310 332 311 -1 311 332 333 -1 311 333 312 -1 312 333 334 -1 312 334 313 -1 313 334 335 -1 313 335 314 -1 314 335 336 -1 314 336 315 -1 315 336 337 -1 315 337 316 -1 316 337 338 -1 316 338 317 -1 317 338 339 -1 317 339 318 -1 318 339 340 -1 318 340 319 -1 319 340 341 -1 319 341 320 -1 320 341 342 -1 320 342 321 -1 321 342 343 -1 321 343 322 -1 322 343 344 -1 322 344 323 -1 323 344 345 -1 323 345 324 -1 324 345 346 -1 324 346 325 -1 325 346 347 -1 325 347 326 -1 326 347 348 -1 326 348 327 -1 327 348 349 -1 327 349 328 -1 328 349 350 -1 328 350 329 -1 329 350 351 -1 329 351 330 -1 330 351 352 -1 330 352 331 -1 331 352 353 -1 331 353 23 -1 332 0 354 -1 332 354 333 -1 333 354 355 -1 333 355 334 -1 334 355 356 -1 334 356 335 -1 335 356 357 -1 335 357 336 -1 336 357 358 -1 336 358 337 -1 337 358 359 -1 337 359 338 -1 338 359 360 -1 338 360 339 -1 339 360 361 -1 339 361 340 -1 340 361 362 -1 340 362 341 -1 341 362 363 -1 341 363 342 -1 342 363 364 -1 342 364 343 -1 343 364 365 -1 343 365 344 -1 344 365 366 -1 344 366 345 -1 345 366 367 -1 345 367 346 -1 346 367 368 -1 346 368 347 -1 347 368 369 -1 347 369 348 -1 348 369 370 -1 348 370 349 -1 349 370 371 -1 349 371 350 -1 350 371 372 -1 350 372 351 -1 351 372 373 -1 351 373 352 -1 352 373 374 -1 352 374 353 -1 353 374 375 -1 353 375 23 -1 354 0 376 -1 354 376 355 -1 355 376 377 -1 355 377 356 -1 356 377 378 -1 356 378 357 -1 357 378 379 -1 357 379 358 -1 358 379 380 -1 358 380 359 -1 359 380 381 -1 359 381 360 -1 360 381 382 -1 360 382 361 -1 361 382 383 -1 361 383 362 -1 362 383 384 -1 362 384 363 -1 363 384 385 -1 363 385 364 -1 364 385 386 -1 364 386 365 -1 365 386 387 -1 365 387 366 -1 366 387 388 -1 366 388 367 -1 367 388 389 -1 367 389 368 -1 368 389 390 -1 368 390 369 -1 369 390 391 -1 369 391 370 -1 370 391 392 -1 370 392 371 -1 371 392 393 -1 371 393 372 -1 372 393 394 -1 372 394 373 -1 373 394 395 -1 373 395 374 -1 374 395 396 -1 374 396 375 -1 375 396 397 -1 375 397 23 -1 376 0 398 -1 376 398 377 -1 377 398 399 -1 377 399 378 -1 378 399 400 -1 378 400 379 -1 379 400 401 -1 379 401 380 -1 380 401 402 -1 380 402 381 -1 381 402 403 -1 381 403 382 -1 382 403 404 -1 382 404 383 -1 383 404 405 -1 383 405 384 -1 384 405 406 -1 384 406 385 -1 385 406 407 -1 385 407 386 -1 386 407 408 -1 386 408 387 -1 387 408 409 -1 387 409 388 -1 388 409 410 -1 388 410 389 -1 389 410 411 -1 389 411 390 -1 390 411 412 -1 390 412 391 -1 391 412 413 -1 391 413 392 -1 392 413 414 -1 392 414 393 -1 393 414 415 -1 393 415 394 -1 394 415 416 -1 394 416 395 -1 395 416 417 -1 395 417 396 -1 396 417 418 -1 396 418 397 -1 397 418 419 -1 397 419 23 -1 398 0 420 -1 398 420 399 -1 399 420 421 -1 399 421 400 -1 400 421 422 -1 400 422 401 -1 401 422 423 -1 401 423 402 -1 402 423 424 -1 402 424 403 -1 403 424 425 -1 403 425 404 -1 404 425 426 -1 404 426 405 -1 405 426 427 -1 405 427 406 -1 406 427 428 -1 406 428 407 -1 407 428 429 -1 407 429 408 -1 408 429 430 -1 408 430 409 -1 409 430 431 -1 409 431 410 -1 410 431 432 -1 410 432 411 -1 411 432 433 -1 411 433 412 -1 412 433 434 -1 412 434 413 -1 413 434 435 -1 413 435 414 -1 414 435 436 -1 414 436 415 -1 415 436 437 -1 415 437 416 -1 416 437 438 -1 416 438 417 -1 417 438 439 -1 417 439 418 -1 418 439 440 -1 418 440 419 -1 419 440 441 -1 419 441 23 -1 420 0 442 -1 420 442 421 -1 421 442 443 -1 421 443 422 -1 422 443 444 -1 422 444 423 -1 423 444 445 -1 423 445 424 -1 424 445 446 -1 424 446 425 -1 425 446 447 -1 425 447 426 -1 426 447 448 -1 426 448 427 -1 427 448 449 -1 427 449 428 -1 428 449 450 -1 428 450 429 -1 429 450 451 -1 429 451 430 -1 430 451 452 -1 430 452 431 -1 431 452 453 -1 431 453 432 -1 432 453 454 -1 432 454 433 -1 433 454 455 -1 433 455 434 -1 434 455 456 -1 434 456 435 -1 435 456 457 -1 435 457 436 -1 436 457 458 -1 436 458 437 -1 437 458 459 -1 437 459 438 -1 438 459 460 -1 438 460 439 -1 439 460 461 -1 439 461 440 -1 440 461 462 -1 440 462 441 -1 441 462 463 -1 441 463 23 -1 442 0 464 -1 442 464 443 -1 443 464 465 -1 443 465 444 -1 444 465 466 -1 444 466 445 -1 445 466 467 -1 445 467 446 -1 446 467 468 -1 446 468 447 -1 447 468 469 -1 447 469 448 -1 448 469 470 -1 448 470 449 -1 449 470 471 -1 449 471 450 -1 450 471 472 -1 450 472 451 -1 451 472 473 -1 451 473 452 -1 452 473 474 -1 452 474 453 -1 453 474 475 -1 453 475 454 -1 454 475 476 -1 454 476 455 -1 455 476 477 -1 455 477 456 -1 456 477 478 -1 456 478 457 -1 457 478 479 -1 457 479 458 -1 458 479 480 -1 458 480 459 -1 459 480 481 -1 459 481 460 -1 460 481 482 -1 460 482 461 -1 461 482 483 -1 461 483 462 -1 462 483 484 -1 462 484 463 -1 463 484 485 -1 463 485 23 -1 464 0 486 -1 464 486 465 -1 465 486 487 -1 465 487 466 -1 466 487 488 -1 466 488 467 -1 467 488 489 -1 467 489 468 -1 468 489 490 -1 468 490 469 -1 469 490 491 -1 469 491 470 -1 470 491 492 -1 470 492 471 -1 471 492 493 -1 471 493 472 -1 472 493 494 -1 472 494 473 -1 473 494 495 -1 473 495 474 -1 474 495 496 -1 474 496 475 -1 475 496 497 -1 475 497 476 -1 476 497 498 -1 476 498 477 -1 477 498 499 -1 477 499 478 -1 478 499 500 -1 478 500 479 -1 479 500 501 -1 479 501 480 -1 480 501 502 -1 480 502 481 -1 481 502 503 -1 481 503 482 -1 482 503 504 -1 482 504 483 -1 483 504 505 -1 483 505 484 -1 484 505 506 -1 484 506 485 -1 485 506 507 -1 485 507 23 -1 486 0 508 -1 486 508 487 -1 487 508 509 -1 487 509 488 -1 488 509 510 -1 488 510 489 -1 489 510 511 -1 489 511 490 -1 490 511 512 -1 490 512 491 -1 491 512 513 -1 491 513 492 -1 492 513 514 -1 492 514 493 -1 493 514 515 -1 493 515 494 -1 494 515 516 -1 494 516 495 -1 495 516 517 -1 495 517 496 -1 496 517 518 -1 496 518 497 -1 497 518 519 -1 497 519 498 -1 498 519 520 -1 498 520 499 -1 499 520 521 -1 499 521 500 -1 500 521 522 -1 500 522 501 -1 501 522 523 -1 501 523 502 -1 502 523 524 -1 502 524 503 -1 503 524 525 -1 503 525 504 -1 504 525 526 -1 504 526 505 -1 505 526 527 -1 505 527 506 -1 506 527 528 -1 506 528 507 -1 507 528 529 -1 507 529 23 -1 508 0 530 -1 508 530 509 -1 509 530 531 -1 509 531 510 -1 510 531 532 -1 510 532 511 -1 511 532 533 -1 511 533 512 -1 512 533 534 -1 512 534 513 -1 513 534 535 -1 513 535 514 -1 514 535 536 -1 514 536 515 -1 515 536 537 -1 515 537 516 -1 516 537 538 -1 516 538 517 -1 517 538 539 -1 517 539 518 -1 518 539 540 -1 518 540 519 -1 519 540 541 -1 519 541 520 -1 520 541 542 -1 520 542 521 -1 521 542 543 -1 521 543 522 -1 522 543 544 -1 522 544 523 -1 523 544 545 -1 523 545 524 -1 524 545 546 -1 524 546 525 -1 525 546 547 -1 525 547 526 -1 526 547 548 -1 526 548 527 -1 527 548 549 -1 527 549 528 -1 528 549 550 -1 528 550 529 -1 529 550 551 -1 529 551 23 -1 530 0 552 -1 530 552 531 -1 531 552 553 -1 531 553 532 -1 532 553 554 -1 532 554 533 -1 533 554 555 -1 533 555 534 -1 534 555 556 -1 534 556 535 -1 535 556 557 -1 535 557 536 -1 536 557 558 -1 536 558 537 -1 537 558 559 -1 537 559 538 -1 538 559 560 -1 538 560 539 -1 539 560 561 -1 539 561 540 -1 540 561 562 -1 540 562 541 -1 541 562 563 -1 541 563 542 -1 542 563 564 -1 542 564 543 -1 543 564 565 -1 543 565 544 -1 544 565 566 -1 544 566 545 -1 545 566 567 -1 545 567 546 -1 546 567 568 -1 546 568 547 -1 547 568 569 -1 547 569 548 -1 548 569 570 -1 548 570 549 -1 549 570 571 -1 549 571 550 -1 550 571 572 -1 550 572 551 -1 551 572 573 -1 551 573 23 -1 552 0 574 -1 552 574 553 -1 553 574 575 -1 553 575 554 -1 554 575 576 -1 554 576 555 -1 555 576 577 -1 555 577 556 -1 556 577 578 -1 556 578 557 -1 557 578 579 -1 557 579 558 -1 558 579 580 -1 558 580 559 -1 559 580 581 -1 559 581 560 -1 560 581 582 -1 560 582 561 -1 561 582 583 -1 561 583 562 -1 562 583 584 -1 562 584 563 -1 563 584 585 -1 563 585 564 -1 564 585 586 -1 564 586 565 -1 565 586 587 -1 565 587 566 -1 566 587 588 -1 566 588 567 -1 567 588 589 -1 567 589 568 -1 568 589 590 -1 568 590 569 -1 569 590 591 -1 569 591 570 -1 570 591 592 -1 570 592 571 -1 571 592 593 -1 571 593 572 -1 572 593 594 -1 572 594 573 -1 573 594 595 -1 573 595 23 -1 574 0 596 -1 574 596 575 -1 575 596 597 -1 575 597 576 -1 576 597 598 -1 576 598 577 -1 577 598 599 -1 577 599 578 -1 578 599 600 -1 578 600 579 -1 579 600 601 -1 579 601 580 -1 580 601 602 -1 580 602 581 -1 581 602 603 -1 581 603 582 -1 582 603 604 -1 582 604 583 -1 583 604 605 -1 583 605 584 -1 584 605 606 -1 584 606 585 -1 585 606 607 -1 585 607 586 -1 586 607 608 -1 586 608 587 -1 587 608 609 -1 587 609 588 -1 588 609 610 -1 588 610 589 -1 589 610 611 -1 589 611 590 -1 590 611 612 -1 590 612 591 -1 591 612 613 -1 591 613 592 -1 592 613 614 -1 592 614 593 -1 593 614 615 -1 593 615 594 -1 594 615 616 -1 594 616 595 -1 595 616 617 -1 595 617 23 -1 596 0 618 -1 596 618 597 -1 597 618 619 -1 597 619 598 -1 598 619 620 -1 598 620 599 -1 599 620 621 -1 599 621 600 -1 600 621 622 -1 600 622 601 -1 601 622 623 -1 601 623 602 -1 602 623 624 -1 602 624 603 -1 603 624 625 -1 603 625 604 -1 604 625 626 -1 604 626 605 -1 605 626 627 -1 605 627 606 -1 606 627 628 -1 606 628 607 -1 607 628 629 -1 607 629 608 -1 608 629 630 -1 608 630 609 -1 609 630 631 -1 609 631 610 -1 610 631 632 -1 610 632 611 -1 611 632 633 -1 611 633 612 -1 612 633 634 -1 612 634 613 -1 613 634 635 -1 613 635 614 -1 614 635 636 -1 614 636 615 -1 615 636 637 -1 615 637 616 -1 616 637 638 -1 616 638 617 -1 617 638 639 -1 617 639 23 -1 618 0 640 -1 618 640 619 -1 619 640 641 -1 619 641 620 -1 620 641 642 -1 620 642 621 -1 621 642 643 -1 621 643 622 -1 622 643 644 -1 622 644 623 -1 623 644 645 -1 623 645 624 -1 624 645 646 -1 624 646 625 -1 625 646 647 -1 625 647 626 -1 626 647 648 -1 626 648 627 -1 627 648 649 -1 627 649 628 -1 628 649 650 -1 628 650 629 -1 629 650 651 -1 629 651 630 -1 630 651 652 -1 630 652 631 -1 631 652 653 -1 631 653 632 -1 632 653 654 -1 632 654 633 -1 633 654 655 -1 633 655 634 -1 634 655 656 -1 634 656 635 -1 635 656 657 -1 635 657 636 -1 636 657 658 -1 636 658 637 -1 637 658 659 -1 637 659 638 -1 638 659 660 -1 638 660 639 -1 639 660 661 -1 639 661 23 -1 640 0 662 -1 640 662 641 -1 641 662 663 -1 641 663 642 -1 642 663 664 -1 642 664 643 -1 643 664 665 -1 643 665 644 -1 644 665 666 -1 644 666 645 -1 645 666 667 -1 645 667 646 -1 646 667 668 -1 646 668 647 -1 647 668 669 -1 647 669 648 -1 648 669 670 -1 648 670 649 -1 649 670 671 -1 649 671 650 -1 650 671 672 -1 650 672 651 -1 651 672 673 -1 651 673 652 -1 652 673 674 -1 652 674 653 -1 653 674 675 -1 653 675 654 -1 654 675 676 -1 654 676 655 -1 655 676 677 -1 655 677 656 -1 656 677 678 -1 656 678 657 -1 657 678 679 -1 657 679 658 -1 658 679 680 -1 658 680 659 -1 659 680 681 -1 659 681 660 -1 660 681 682 -1 660 682 661 -1 661 682 683 -1 661 683 23 -1 662 0 684 -1 662 684 663 -1 663 684 685 -1 663 685 664 -1 664 685 686 -1 664 686 665 -1 665 686 687 -1 665 687 666 -1 666 687 688 -1 666 688 667 -1 667 688 689 -1 667 689 668 -1 668 689 690 -1 668 690 669 -1 669 690 691 -1 669 691 670 -1 670 691 692 -1 670 692 671 -1 671 692 693 -1 671 693 672 -1 672 693 694 -1 672 694 673 -1 673 694 695 -1 673 695 674 -1 674 695 696 -1 674 696 675 -1 675 696 697 -1 675 697 676 -1 676 697 698 -1 676 698 677 -1 677 698 699 -1 677 699 678 -1 678 699 700 -1 678 700 679 -1 679 700 701 -1 679 701 680 -1 680 701 702 -1 680 702 681 -1 681 702 703 -1 681 703 682 -1 682 703 704 -1 682 704 683 -1 683 704 705 -1 683 705 23 -1 684 0 706 -1 684 706 685 -1 685 706 707 -1 685 707 686 -1 686 707 708 -1 686 708 687 -1 687 708 709 -1 687 709 688 -1 688 709 710 -1 688 710 689 -1 689 710 711 -1 689 711 690 -1 690 711 712 -1 690 712 691 -1 691 712 713 -1 691 713 692 -1 692 713 714 -1 692 714 693 -1 693 714 715 -1 693 715 694 -1 694 715 716 -1 694 716 695 -1 695 716 717 -1 695 717 696 -1 696 717 718 -1 696 718 697 -1 697 718 719 -1 697 719 698 -1 698 719 720 -1 698 720 699 -1 699 720 721 -1 699 721 700 -1 700 721 722 -1 700 722 701 -1 701 722 723 -1 701 723 702 -1 702 723 724 -1 702 724 703 -1 703 724 725 -1 703 725 704 -1 704 725 726 -1 704 726 705 -1 705 726 727 -1 705 727 23 -1 706 0 728 -1 706 728 707 -1 707 728 729 -1 707 729 708 -1 708 729 730 -1 708 730 709 -1 709 730 731 -1 709 731 710 -1 710 731 732 -1 710 732 711 -1 711 732 733 -1 711 733 712 -1 712 733 734 -1 712 734 713 -1 713 734 735 -1 713 735 714 -1 714 735 736 -1 714 736 715 -1 715 736 737 -1 715 737 716 -1 716 737 738 -1 716 738 717 -1 717 738 739 -1 717 739 718 -1 718 739 740 -1 718 740 719 -1 719 740 741 -1 719 741 720 -1 720 741 742 -1 720 742 721 -1 721 742 743 -1 721 743 722 -1 722 743 744 -1 722 744 723 -1 723 744 745 -1 723 745 724 -1 724 745 746 -1 724 746 725 -1 725 746 747 -1 725 747 726 -1 726 747 748 -1 726 748 727 -1 727 748 749 -1 727 749 23 -1 728 0 750 -1 728 750 729 -1 729 750 751 -1 729 751 730 -1 730 751 752 -1 730 752 731 -1 731 752 753 -1 731 753 732 -1 732 753 754 -1 732 754 733 -1 733 754 755 -1 733 755 734 -1 734 755 756 -1 734 756 735 -1 735 756 757 -1 735 757 736 -1 736 757 758 -1 736 758 737 -1 737 758 759 -1 737 759 738 -1 738 759 760 -1 738 760 739 -1 739 760 761 -1 739 761 740 -1 740 761 762 -1 740 762 741 -1 741 762 763 -1 741 763 742 -1 742 763 764 -1 742 764 743 -1 743 764 765 -1 743 765 744 -1 744 765 766 -1 744 766 745 -1 745 766 767 -1 745 767 746 -1 746 767 768 -1 746 768 747 -1 747 768 769 -1 747 769 748 -1 748 769 770 -1 748 770 749 -1 749 770 771 -1 749 771 23 -1 750 0 772 -1 750 772 751 -1 751 772 773 -1 751 773 752 -1 752 773 774 -1 752 774 753 -1 753 774 775 -1 753 775 754 -1 754 775 776 -1 754 776 755 -1 755 776 777 -1 755 777 756 -1 756 777 778 -1 756 778 757 -1 757 778 779 -1 757 779 758 -1 758 779 780 -1 758 780 759 -1 759 780 781 -1 759 781 760 -1 760 781 782 -1 760 782 761 -1 761 782 783 -1 761 783 762 -1 762 783 784 -1 762 784 763 -1 763 784 785 -1 763 785 764 -1 764 785 786 -1 764 786 765 -1 765 786 787 -1 765 787 766 -1 766 787 788 -1 766 788 767 -1 767 788 789 -1 767 789 768 -1 768 789 790 -1 768 790 769 -1 769 790 791 -1 769 791 770 -1 770 791 792 -1 770 792 771 -1 771 792 793 -1 771 793 23 -1 772 0 794 -1 772 794 773 -1 773 794 795 -1 773 795 774 -1 774 795 796 -1 774 796 775 -1 775 796 797 -1 775 797 776 -1 776 797 798 -1 776 798 777 -1 777 798 799 -1 777 799 778 -1 778 799 800 -1 778 800 779 -1 779 800 801 -1 779 801 780 -1 780 801 802 -1 780 802 781 -1 781 802 803 -1 781 803 782 -1 782 803 804 -1 782 804 783 -1 783 804 805 -1 783 805 784 -1 784 805 806 -1 784 806 785 -1 785 806 807 -1 785 807 786 -1 786 807 808 -1 786 808 787 -1 787 808 809 -1 787 809 788 -1 788 809 810 -1 788 810 789 -1 789 810 811 -1 789 811 790 -1 790 811 812 -1 790 812 791 -1 791 812 813 -1 791 813 792 -1 792 813 814 -1 792 814 793 -1 793 814 815 -1 793 815 23 -1 794 0 816 -1 794 816 795 -1 795 816 817 -1 795 817 796 -1 796 817 818 -1 796 818 797 -1 797 818 819 -1 797 819 798 -1 798 819 820 -1 798 820 799 -1 799 820 821 -1 799 821 800 -1 800 821 822 -1 800 822 801 -1 801 822 823 -1 801 823 802 -1 802 823 824 -1 802 824 803 -1 803 824 825 -1 803 825 804 -1 804 825 826 -1 804 826 805 -1 805 826 827 -1 805 827 806 -1 806 827 828 -1 806 828 807 -1 807 828 829 -1 807 829 808 -1 808 829 830 -1 808 830 809 -1 809 830 831 -1 809 831 810 -1 810 831 832 -1 810 832 811 -1 811 832 833 -1 811 833 812 -1 812 833 834 -1 812 834 813 -1 813 834 835 -1 813 835 814 -1 814 835 836 -1 814 836 815 -1 815 836 837 -1 815 837 23 -1 816 0 838 -1 816 838 817 -1 817 838 839 -1 817 839 818 -1 818 839 840 -1 818 840 819 -1 819 840 841 -1 819 841 820 -1 820 841 842 -1 820 842 821 -1 821 842 843 -1 821 843 822 -1 822 843 844 -1 822 844 823 -1 823 844 845 -1 823 845 824 -1 824 845 846 -1 824 846 825 -1 825 846 847 -1 825 847 826 -1 826 847 848 -1 826 848 827 -1 827 848 849 -1 827 849 828 -1 828 849 850 -1 828 850 829 -1 829 850 851 -1 829 851 830 -1 830 851 852 -1 830 852 831 -1 831 852 853 -1 831 853 832 -1 832 853 854 -1 832 854 833 -1 833 854 855 -1 833 855 834 -1 834 855 856 -1 834 856 835 -1 835 856 857 -1 835 857 836 -1 836 857 858 -1 836 858 837 -1 837 858 859 -1 837 859 23 -1 838 0 860 -1 838 860 839 -1 839 860 861 -1 839 861 840 -1 840 861 862 -1 840 862 841 -1 841 862 863 -1 841 863 842 -1 842 863 864 -1 842 864 843 -1 843 864 865 -1 843 865 844 -1 844 865 866 -1 844 866 845 -1 845 866 867 -1 845 867 846 -1 846 867 868 -1 846 868 847 -1 847 868 869 -1 847 869 848 -1 848 869 870 -1 848 870 849 -1 849 870 871 -1 849 871 850 -1 850 871 872 -1 850 872 851 -1 851 872 873 -1 851 873 852 -1 852 873 874 -1 852 874 853 -1 853 874 875 -1 853 875 854 -1 854 875 876 -1 854 876 855 -1 855 876 877 -1 855 877 856 -1 856 877 878 -1 856 878 857 -1 857 878 879 -1 857 879 858 -1 858 879 880 -1 858 880 859 -1 859 880 881 -1 859 881 23 -1 860 0 882 -1 860 882 861 -1 861 882 883 -1 861 883 862 -1 862 883 884 -1 862 884 863 -1 863 884 885 -1 863 885 864 -1 864 885 886 -1 864 886 865 -1 865 886 887 -1 865 887 866 -1 866 887 888 -1 866 888 867 -1 867 888 889 -1 867 889 868 -1 868 889 890 -1 868 890 869 -1 869 890 891 -1 869 891 870 -1 870 891 892 -1 870 892 871 -1 871 892 893 -1 871 893 872 -1 872 893 894 -1 872 894 873 -1 873 894 895 -1 873 895 874 -1 874 895 896 -1 874 896 875 -1 875 896 897 -1 875 897 876 -1 876 897 898 -1 876 898 877 -1 877 898 899 -1 877 899 878 -1 878 899 900 -1 878 900 879 -1 879 900 901 -1 879 901 880 -1 880 901 902 -1 880 902 881 -1 881 902 903 -1 881 903 23 -1 882 0 904 -1 882 904 883 -1 883 904 905 -1 883 905 884 -1 884 905 906 -1 884 906 885 -1 885 906 907 -1 885 907 886 -1 886 907 908 -1 886 908 887 -1 887 908 909 -1 887 909 888 -1 888 909 910 -1 888 910 889 -1 889 910 911 -1 889 911 890 -1 890 911 912 -1 890 912 891 -1 891 912 913 -1 891 913 892 -1 892 913 914 -1 892 914 893 -1 893 914 915 -1 893 915 894 -1 894 915 916 -1 894 916 895 -1 895 916 917 -1 895 917 896 -1 896 917 918 -1 896 918 897 -1 897 918 919 -1 897 919 898 -1 898 919 920 -1 898 920 899 -1 899 920 921 -1 899 921 900 -1 900 921 922 -1 900 922 901 -1 901 922 923 -1 901 923 902 -1 902 923 924 -1 902 924 903 -1 903 924 925 -1 903 925 23 -1 904 0 926 -1 904 926 905 -1 905 926 927 -1 905 927 906 -1 906 927 928 -1 906 928 907 -1 907 928 929 -1 907 929 908 -1 908 929 930 -1 908 930 909 -1 909 930 931 -1 909 931 910 -1 910 931 932 -1 910 932 911 -1 911 932 933 -1 911 933 912 -1 912 933 934 -1 912 934 913 -1 913 934 935 -1 913 935 914 -1 914 935 936 -1 914 936 915 -1 915 936 937 -1 915 937 916 -1 916 937 938 -1 916 938 917 -1 917 938 939 -1 917 939 918 -1 918 939 940 -1 918 940 919 -1 919 940 941 -1 919 941 920 -1 920 941 942 -1 920 942 921 -1 921 942 943 -1 921 943 922 -1 922 943 944 -1 922 944 923 -1 923 944 945 -1 923 945 924 -1 924 945 946 -1 924 946 925 -1 925 946 947 -1 925 947 23 -1 926 0 948 -1 926 948 927 -1 927 948 949 -1 927 949 928 -1 928 949 950 -1 928 950 929 -1 929 950 951 -1 929 951 930 -1 930 951 952 -1 930 952 931 -1 931 952 953 -1 931 953 932 -1 932 953 954 -1 932 954 933 -1 933 954 955 -1 933 955 934 -1 934 955 956 -1 934 956 935 -1 935 956 957 -1 935 957 936 -1 936 957 958 -1 936 958 937 -1 937 958 959 -1 937 959 938 -1 938 959 960 -1 938 960 939 -1 939 960 961 -1 939 961 940 -1 940 961 962 -1 940 962 941 -1 941 962 963 -1 941 963 942 -1 942 963 964 -1 942 964 943 -1 943 964 965 -1 943 965 944 -1 944 965 966 -1 944 966 945 -1 945 966 967 -1 945 967 946 -1 946 967 968 -1 946 968 947 -1 947 968 969 -1 947 969 23 -1 948 0 970 -1 948 970 949 -1 949 970 971 -1 949 971 950 -1 950 971 972 -1 950 972 951 -1 951 972 973 -1 951 973 952 -1 952 973 974 -1 952 974 953 -1 953 974 975 -1 953 975 954 -1 954 975 976 -1 954 976 955 -1 955 976 977 -1 955 977 956 -1 956 977 978 -1 956 978 957 -1 957 978 979 -1 957 979 958 -1 958 979 980 -1 958 980 959 -1 959 980 981 -1 959 981 960 -1 960 981 982 -1 960 982 961 -1 961 982 983 -1 961 983 962 -1 962 983 984 -1 962 984 963 -1 963 984 985 -1 963 985 964 -1 964 985 986 -1 964 986 965 -1 965 986 987 -1 965 987 966 -1 966 987 988 -1 966 988 967 -1 967 988 989 -1 967 989 968 -1 968 989 990 -1 968 990 969 -1 969 990 991 -1 969 991 23 -1 970 0 992 -1 970 992 971 -1 971 992 993 -1 971 993 972 -1 972 993 994 -1 972 994 973 -1 973 994 995 -1 973 995 974 -1 974 995 996 -1 974 996 975 -1 975 996 997 -1 975 997 976 -1 976 997 998 -1 976 998 977 -1 977 998 999 -1 977 999 978 -1 978 999 1000 -1 978 1000 979 -1 979 1000 1001 -1 979 1001 980 -1 980 1001 1002 -1 980 1002 981 -1 981 1002 1003 -1 981 1003 982 -1 982 1003 1004 -1 982 1004 983 -1 983 1004 1005 -1 983 1005 984 -1 984 1005 1006 -1 984 1006 985 -1 985 1006 1007 -1 985 1007 986 -1 986 1007 1008 -1 986 1008 987 -1 987 1008 1009 -1 987 1009 988 -1 988 1009 1010 -1 988 1010 989 -1 989 1010 1011 -1 989 1011 990 -1 990 1011 1012 -1 990 1012 991 -1 991 1012 1013 -1 991 1013 23 -1 992 0 1014 -1 992 1014 993 -1 993 1014 1015 -1 993 1015 994 -1 994 1015 1016 -1 994 1016 995 -1 995 1016 1017 -1 995 1017 996 -1 996 1017 1018 -1 996 1018 997 -1 997 1018 1019 -1 997 1019 998 -1 998 1019 1020 -1 998 1020 999 -1 999 1020 1021 -1 999 1021 1000 -1 1000 1021 1022 -1 1000 1022 1001 -1 1001 1022 1023 -1 1001 1023 1002 -1 1002 1023 1024 -1 1002 1024 1003 -1 1003 1024 1025 -1 1003 1025 1004 -1 1004 1025 1026 -1 1004 1026 1005 -1 1005 1026 1027 -1 1005 1027 1006 -1 1006 1027 1028 -1 1006 1028 1007 -1 1007 1028 1029 -1 1007 1029 1008 -1 1008 1029 1030 -1 1008 1030 1009 -1 1009 1030 1031 -1 1009 1031 1010 -1 1010 1031 1032 -1 1010 1032 1011 -1 1011 1032 1033 -1 1011 1033 1012 -1 1012 1033 1034 -1 1012 1034 1013 -1 1013 1034 1035 -1 1013 1035 23 -1 1014 0 1036 -1 1014 1036 1015 -1 1015 1036 1037 -1 1015 1037 1016 -1 1016 1037 1038 -1 1016 1038 1017 -1 1017 1038 1039 -1 1017 1039 1018 -1 1018 1039 1040 -1 1018 1040 1019 -1 1019 1040 1041 -1 1019 1041 1020 -1 1020 1041 1042 -1 1020 1042 1021 -1 1021 1042 1043 -1 1021 1043 1022 -1 1022 1043 1044 -1 1022 1044 1023 -1 1023 1044 1045 -1 1023 1045 1024 -1 1024 1045 1046 -1 1024 1046 1025 -1 1025 1046 1047 -1 1025 1047 1026 -1 1026 1047 1048 -1 1026 1048 1027 -1 1027 1048 1049 -1 1027 1049 1028 -1 1028 1049 1050 -1 1028 1050 1029 -1 1029 1050 1051 -1 1029 1051 1030 -1 1030 1051 1052 -1 1030 1052 1031 -1 1031 1052 1053 -1 1031 1053 1032 -1 1032 1053 1054 -1 1032 1054 1033 -1 1033 1054 1055 -1 1033 1055 1034 -1 1034 1055 1056 -1 1034 1056 1035 -1 1035 1056 1057 -1 1035 1057 23 -1 1036 0 1 -1 1036 1 1037 -1 1037 1 2 -1 1037 2 1038 -1 1038 2 3 -1 1038 3 1039 -1 1039 3 4 -1 1039 4 1040 -1 1040 4 5 -1 1040 5 1041 -1 1041 5 6 -1 1041 6 1042 -1 1042 6 7 -1 1042 7 1043 -1 1043 7 8 -1 1043 8 1044 -1 1044 8 9 -1 1044 9 1045 -1 1045 9 10 -1 1045 10 1046 -1 1046 10 11 -1 1046 11 1047 -1 1047 11 12 -1 1047 12 1048 -1 1048 12 13 -1 1048 13 1049 -1 1049 13 14 -1 1049 14 1050 -1 1050 14 15 -1 1050 15 1051 -1 1051 15 16 -1 1051 16 1052 -1 1052 16 17 -1 1052 17 1053 -1 1053 17 18 -1 1053 18 1054 -1 1054 18 19 -1 1054 19 1055 -1 1055 19 20 -1 1055 20 1056 -1 1056 20 21 -1 1056 21 1057 -1 1057 21 22 -1 1057 22 23 -1">
        <Coordinate point="0.0000 0.0000 -1.0000 0.1362 0.0000 -0.9907 0.2698 0.0000 -0.9629 0.3984 0.0000 -0.9172 0.5196 0.0000 -0.8544 0.6311 0.0000 -0.7757 0.7308 0.0000 -0.6826 0.8170 0.0000 -0.5767 0.8879 0.0000 -0.4601 0.9423 0.0000 -0.3349 0.9791 0.0000 -0.2035 0.9977 0.0000 -0.0682 0.9977 0.0000 0.0682 0.9791 0.0000 0.2035 0.9423 0.0000 0.3349 0.8879 0.0000 0.4601 0.8170 0.0000 0.5767 0.7308 0.0000 0.6826 0.6311 0.0000 0.7757 0.5196 0.0000 0.8544 0.3984 0.0000 0.9172 0.2698 0.0000 0.9629 0.1362 0.0000 0.9907 0.0000 0.0000 1.0000 0.1350 0.0178 -0.9907 0.2675 0.0352 -0.9629 0.3950 0.0520 -0.9172 0.5151 0.0678 -0.8544 0.6257 0.0824 -0.7757 0.7246 0.0954 -0.6826 0.8100 0.1066 -0.5767 0.8803 0.1159 -0.4601 0.9342 0.1230 -0.3349 0.9707 0.1278 -0.2035 0.9891 0.1302 -0.0682 0.9891 0.1302 0.0682 0.9707 0.1278 0.2035 0.9342 0.1230 0.3349 0.8803 0.1159 0.4601 0.8100 0.1066 0.5767 0.7246 0.0954 0.6826 0.6257 0.0824 0.7757 0.5151 0.0678 0.8544 0.3950 0.0520 0.9172 0.2675 0.0352 0.9629 0.1350 0.0178 0.9907 0.1315 0.0352 -0.9907 0.2606 0.0698 -0.9629 0.3848 0.1031 -0.9172 0.5019 0.1345 -0.8544 0.6096 0.1633 -0.7757 0.7059 0.1892 -0.6826 0.7891 0.2114 -0.5767 0.8576 0.2298 -0.4601 0.9102 0.2439 -0.3349 0.9457 0.2534 -0.2035 0.9637 0.2582 -0.0682 0.9637 0.2582 0.0682 0.9457 0.2534 0.2035 0.9102 0.2439 0.3349 0.8576 0.2298 0.4601 0.7891 0.2114 0.5767 0.7059 0.1892 0.6826 0.6096 0.1633 0.7757 0.5019 0.1345 0.8544 0.3848 0.1031 0.9172 0.2606 0.0698 0.9629 0.1315 0.0352 0.9907 0.1258 0.0521 -0.9907 0.2493 0.1032 -0.9629 0.3681 0.1525 -0.9172 0.4800 0.1988 -0.8544 0.5830 0.2415 -0.7757 0.6752 0.2797 -0.6826 0.7548 0.3126 -0.5767 0.8203 0.3398 -0.4601 0.8705 0.3606 -0.3349 0.9046 0.3747 -0.2035 0.9217 0.3818 -0.0682 0.9217 0.3818 0.0682 0.9046 0.3747 0.2035 0.8705 0.3606 0.3349 0.8203 0.3398 0.4601 0.7548 0.3126 0.5767 0.6752 0.2797 0.6826 0.5830 0.2415 0.7757 0.4800 0.1988 0.8544 0.3681 0.1525 0.9172 0.2493 0.1032 0.9629 0.1258 0.0521 0.9907 0.1179 0.0681 -0.9907 0.2337 0.1349 -0.9629 0.3450 0.1992 -0.9172 0.4500 0.2598 -0.8544 0.5465 0.3155 -0.7757 0.6329 0.3654 -0.6826 0.7075 0.4085 -0.5767 0.7689 0.4439 -0.4601 0.8160 0.4711 -0.3349 0.8479 0.4895 -0.2035 0.8640 0.4988 -0.0682 0.8640 0.4988 0.0682 0.8479 0.4895 0.2035 0.8160 0.4711 0.3349 0.7689 0.4439 0.4601 0.7075 0.4085 0.5767 0.6329 0.3654 0.6826 0.5465 0.3155 0.7757 0.4500 0.2598 0.8544 0.3450 0.1992 0.9172 0.2337 0.1349 0.9629 0.1179 0.0681 0.9907 0.1080 0.0829 -0.9907 0.2140 0.1642 -0.9629 0.3161 0.2425 -0.9172 0.4122 0.3163 -0.8544 0.5007 0.3842 -0.7757 0.5798 0.4449 -0.6826 0.6481 0.4973 -0.5767 0.7044 0.5405 -0.4601 0.7475 0.5736 -0.3349 0.7768 0.5960 -0.2035 0.7915 0.6073 -0.0682 0.7915 0.6073 0.0682 0.7768 0.5960 0.2035 0.7475 0.5736 0.3349 0.7044 0.5405 0.4601 0.6481 0.4973 0.5767 0.5798 0.4449 0.6826 0.5007 0.3842 0.7757 0.4122 0.3163 0.8544 0.3161 0.2425 0.9172 0.2140 0.1642 0.9629 0.1080 0.0829 0.9907 0.0963 0.0963 -0.9907 0.1908 0.1908 -0.9629 0.2817 0.2817 -0.9172 0.3674 0.3674 -0.8544 0.4462 0.4462 -0.7757 0.5168 0.5168 -0.6826 0.5777 0.5777 -0.5767 0.6278 0.6278 -0.4601 0.6663 0.6663 -0.3349 0.6923 0.6923 -0.2035 0.7055 0.7055 -0.0682 0.7055 0.7055 0.0682 0.6923 0.6923 0.2035 0.6663 0.6663 0.3349 0.6278 0.6278 0.4601 0.5777 0.5777 0.5767 0.5168 0.5168 0.6826 0.4462 0.4462 0.7757 0.3674 0.3674 0.8544 0.2817 0.2817 0.9172 0.1908 0.1908 0.9629 0.0963 0.0963 0.9907 0.0829 0.1080 -0.9907 0.1642 0.2140 -0.9629 0.2425 0.3161 -0.9172 0.3163 0.4122 -0.8544 0.3842 0.5007 -0.7757 0.4449 0.5798 -0.6826 0.4973 0.6481 -0.5767 0.5405 0.7044 -0.4601 0.5736 0.7475 -0.3349 0.5960 0.7768 -0.2035 0.6073 0.7915 -0.0682 0.6073 0.7915 0.0682 0.5960 0.7768 0.2035 0.5736 0.7475 0.3349 0.5405 0.7044 0.4601 0.4973 0.6481 0.5767 0.4449 0.5798 0.6826 0.3842 0.5007 0.7757 0.3163 0.4122 0.8544 0.2425 0.3161 0.9172 0.1642 0.2140 0.9629 0.0829 0.1080 0.9907 0.0681 0.1179 -0.9907 0.1349 0.2337 -0.9629 0.1992 0.3450 -0.9172 0.2598 0.4500 -0.8544 0.3155 0.5465 -0.7757 0.3654 0.6329 -0.6826 0.4085 0.7075 -0.5767 0.4439 0.7689 -0.4601 0.4711 0.8160 -0.3349 0.4895 0.8479 -0.2035 0.4988 0.8640 -0.0682 0.4988 0.8640 0.0682 0.4895 0.8479 0.2035 0.4711 0.8160 0.3349 0.4439 0.7689 0.4601 0.4085 0.7075 0.5767 0.3654 0.6329 0.6826 0.3155 0.5465 0.7757 0.2598 0.4500 0.8544 0.1992 0.3450 0.9172 0.1349 0.2337 0.9629 0.0681 0.1179 0.9907 0.0521 0.1258 -0.9907 0.1032 0.2493 -0.9629 0.1525 0.3681 -0.9172 0.1988 0.4800 -0.8544 0.2415 0.5830 -0.7757 0.2797 0.6752 -0.6826 0.3126 0.7548 -0.5767 0.3398 0.8203 -0.4601 0.3606 0.8705 -0.3349 0.3747 0.9046 -0.2035 0.3818 0.9217 -0.0682 0.3818 0.9217 0.0682 0.3747 0.9046 0.2035 0.3606 0.8705 0.3349 0.3398 0.8203 0.4601 0.3126 0.7548 0.5767 0.2797 0.6752 0.6826 0.2415 0.5830 0.7757 0.1988 0.4800 0.8544 0.1525 0.3681 0.9172 0.1032 0.2493 0.9629 0.0521 0.1258 0.9907 0.0352 0.1315 -0.9907 0.0698 0.2606 -0.9629 0.1031 0.3848 -0.9172 0.1345 0.5019 -0.8544 0.1633 0.6096 -0.7757 0.1892 0.7059 -0.6826 0.2114 0.7891 -0.5767 0.2298 0.8576 -0.4601 0.2439 0.9102 -0.3349 0.2534 0.9457 -0.2035 0.2582 0.9637 -0.0682 0.2582 0.9637 0.0682 0.2534 0.9457 0.2035 0.2439 0.9102 0.3349 0.2298 0.8576 0.4601 0.2114 0.7891 0.5767 0.1892 0.7059 0.6826 0.1633 0.6096 0.7757 0.1345 0.5019 0.8544 0.1031 0.3848 0.9172 0.0698 0.2606 0.9629 0.0352 0.1315 0.9907 0.0178 0.1350 -0.9907 0.0352 0.2675 -0.9629 0.0520 0.3950 -0.9172 0.0678 0.5151 -0.8544 0.0824 0.6257 -0.7757 0.0954 0.7246 -0.6826 0.1066 0.8100 -0.5767 0.1159 0.8803 -0.4601 0.1230 0.9342 -0.3349 0.1278 0.9707 -0.2035 0.1302 0.9891 -0.0682 0.1302 0.9891 0.0682 0.1278 0.9707 0.2035 0.1230 0.9342 0.3349 0.1159 0.8803 0.4601 0.1066 0.8100 0.5767 0.0954 0.7246 0.6826 0.0824 0.6257 0.7757 0.0678 0.5151 0.8544 0.0520 0.3950 0.9172 0.0352 0.2675 0.9629 0.0178 0.1350 0.9907 0.0000 0.1362 -0.9907 0.0000 0.2698 -0.9629 0.0000 0.3984 -0.9172 0.0000 0.5196 -0.8544 0.0000 0.6311 -0.7757 0.0000 0.7308 -0.6826 0.0000 0.8170 -0.5767 0.0000 0.8879 -0.4601 0.0000 0.9423 -0.3349 0.0000 0.9791 -0.2035 0.0000 0.9977 -0.0682 0.0000 0.9977 0.0682 0.0000 0.9791 0.2035 0.0000 0.9423 0.3349 0.0000 0.8879 0.4601 0.0000 0.8170 0.5767 0.0000 0.7308 0.6826 0.0000 0.6311 0.7757 0.0000 0.5196 0.8544 0.0000 0.3984 0.9172 0.0000 0.2698 0.9629 0.0000 0.1362 0.9907 -0.0178 0.1350 -0.9907 -0.0352 0.2675 -0.9629 -0.0520 0.3950 -0.9172 -0.0678 0.5151 -0.8544 -0.0824 0.6257 -0.7757 -0.0954 0.7246 -0.6826 -0.1066 0.8100 -0.5767 -0.1159 0.8803 -0.4601 -0.1230 0.9342 -0.3349 -0.1278 0.9707 -0.2035 -0.1302 0.9891 -0.0682 -0.1302 0.9891 0.0682 -0.1278 0.9707 0.2035 -0.1230 0.9342 0.3349 -0.1159 0.8803 0.4601 -0.1066 0.8100 0.5767 -0.0954 0.7246 0.6826 -0.0824 0.6257 0.7757 -0.0678 0.5151 0.8544 -0.0520 0.3950 0.9172 -0.0352 0.2675 0.9629 -0.0178 0.1350 0.9907 -0.0352 0.1315 -0.9907 -0.0698 0.2606 -0.9629 -0.1031 0.3848 -0.9172 -0.1345 0.5019 -0.8544 -0.1633 0.6096 -0.7757 -0.1892 0.7059 -0.6826 -0.2114 0.7891 -0.5767 -0.2298 0.8576 -0.4601 -0.2439 0.9102 -0.3349 -0.2534 0.9457 -0.2035 -0.2582 0.9637 -0.0682 -0.2582 0.9637 0.0682 -0.2534 0.9457 0.2035 -0.2439 0.9102 0.3349 -0.2298 0.8576 0.4601 -0.2114 0.7891 0.5767 -0.1892 0.7059 0.6826 -0.1633 0.6096 0.7757 -0.1345 0.5019 0.8544 -0.1031 0.3848 0.9172 -0.0698 0.2606 0.9629 -0.0352 0.1315 0.9907 -0.0521 0.1258 -0.9907 -0.1032 0.2493 -0.9629 -0.1525 0.3681 -0.9172 -0.1988 0.4800 -0.8544 -0.2415 0.5830 -0.7757 -0.2797 0.6752 -0.6826 -0.3126 0.7548 -0.5767 -0.3398 0.8203 -0.4601 -0.3606 0.8705 -0.3349 -0.3747 0.9046 -0.2035 -0.3818 0.9217 -0.0682 -0.3818 0.9217 0.0682 -0.3747 0.9046 0.2035 -0.3606 0.8705 0.3349 -0.3398 0.8203 0.4601 -0.3126 0.7548 0.5767 -0.2797 0.6752 0.6826 -0.2415 0.5830 0.7757 -0.1988 0.4800 0.8544 -0.1525 0.3681 0.9172 -0.1032 0.2493 0.9629 -0.0521 0.1258 0.9907 -0.0681 0.1179 -0.9907 -0.1349 0.2337 -0.9629 -0.1992 0.3450 -0.9172 -0.2598 0.4500 -0.8544 -0.3155 0.5465 -0.7757 -0.3654 0.6329 -0.6826 -0.4085 0.7075 -0.5767 -0.4439 0.7689 -0.4601 -0.4711 0.8160 -0.3349 -0.4895 0.8479 -0.2035 -0.4988 0.8640 -0.0682 -0.4988 0.8640 0.0682 -0.4895 0.8479 0.2035 -0.4711 0.8160 0.3349 -0.4439 0.7689 0.4601 -0.4085 0.7075 0.5767 -0.3654 0.6329 0.6826 -0.3155 0.5465 0.7757 -0.2598 0.4500 0.8544 -0.1992 0.3450 0.9172 -0.1349 0.2337 0.9629 -0.0681 0.1179 0.9907 -0.0829 0.1080 -0.9907 -0.1642 0.2140 -0.9629 -0.2425 0.3161 -0.9172 -0.3163 0.4122 -0.8544 -0.3842 0.5007 -0.7757 -0.4449 0.5798 -0.6826 -0.4973 0.6481 -0.5767 -0.5405 0.7044 -0.4601 -0.5736 0.7475 -0.3349 -0.5960 0.7768 -0.2035 -0.6073 0.7915 -0.0682 -0.6073 0.7915 0.0682 -0.5960 0.7768 0.2035 -0.5736 0.7475 0.3349 -0.5405 0.7044 0.4601 -0.4973 0.6481 0.5767 -0.4449 0.5798 0.6826 -0.3842 0.5007 0.7757 -0.3163 0.4122 0.8544 -0.2425 0.3161 0.9172 -0.1642 0.2140 0.9629 -0.0829 0.1080 0.9907 -0.0963 0.0963 -0.9907 -0.1908 0.1908 -0.9629 -0.2817 0.2817 -0.9172 -0.3674 0.3674 -0.8544 -0.4462 0.4462 -0.7757 -0.5168 0.5168 -0.6826 -0.5777 0.5777 -0.5767 -0.6278 0.6278 -0.4601 -0.6663 0.6663 -0.3349 -0.6923 0.6923 -0.2035 -0.7055 0.7055 -0.0682 -0.7055 0.7055 0.0682 -0.6923 0.6923 0.2035 -0.6663 0.6663 0.3349 -0.6278 0.6278 0.4601 -0.5777 0.5777 0.5767 -0.5168 0.5168 0.6826 -0.4462 0.4462 0.7757 -0.3674 0.3674 0.8544 -0.2817 0.2817 0.9172 -0.1908 0.1908 0.9629 -0.0963 0.0963 0.9907 -0.1080 0.0829 -0.9907 -0.2140 0.1642 -0.9629 -0.3161 0.2425 -0.9172 -0.4122 0.3163 -0.8544 -0.5007 0.3842 -0.7757 -0.5798 0.4449 -0.6826 -0.6481 0.4973 -0.5767 -0.7044 0.5405 -0.4601 -0.7475 0.5736 -0.3349 -0.7768 0.5960 -0.2035 -0.7915 0.6073 -0.0682 -0.7915 0.6073 0.0682 -0.7768 0.5960 0.2035 -0.7475 0.5736 0.3349 -0.7044 0.5405 0.4601 -0.6481 0.4973 0.5767 -0.5798 0.4449 0.6826 -0.5007 0.3842 0.7757 -0.4122 0.3163 0.8544 -0.3161 0.2425 0.9172 -0.2140 0.1642 0.9629 -0.1080 0.0829 0.9907 -0.1179 0.0681 -0.9907 -0.2337 0.1349 -0.9629 -0.3450 0.1992 -0.9172 -0.4500 0.2598 -0.8544 -0.5465 0.3155 -0.7757 -0.6329 0.3654 -0.6826 -0.7075 0.4085 -0.5767 -0.7689 0.4439 -0.4601 -0.8160 0.4711 -0.3349 -0.8479 0.4895 -0.2035 -0.8640 0.4988 -0.0682 -0.8640 0.4988 0.0682 -0.8479 0.4895 0.2035 -0.8160 0.4711 0.3349 -0.7689 0.4439 0.4601 -0.7075 0.4085 0.5767 -0.6329 0.3654 0.6826 -0.5465 0.3155 0.7757 -0.4500 0.2598 0.8544 -0.3450 0.1992 0.9172 -0.2337 0.1349 0.9629 -0.1179 0.0681 0.9907 -0.1258 0.0521 -0.9907 -0.2493 0.1032 -0.9629 -0.3681 0.1525 -0.9172 -0.4800 0.1988 -0.8544 -0.5830 0.2415 -0.7757 -0.6752 0.2797 -0.6826 -0.7548 0.3126 -0.5767 -0.8203 0.3398 -0.4601 -0.8705 0.3606 -0.3349 -0.9046 0.3747 -0.2035 -0.9217 0.3818 -0.0682 -0.9217 0.3818 0.0682 -0.9046 0.3747 0.2035 -0.8705 0.3606 0.3349 -0.8203 0.3398 0.4601 -0.7548 0.3126 0.5767 -0.6752 0.2797 0.6826 -0.5830 0.2415 0.7757 -0.4800 0.1988 0.8544 -0.3681 0.1525 0.9172 -0.2493 0.1032 0.9629 -0.1258 0.0521 0.9907 -0.1315 0.0352 -0.9907 -0.2606 0.0698 -0.9629 -0.3848 0.1031 -0.9172 -0.5019 0.1345 -0.8544 -0.6096 0.1633 -0.7757 -0.7059 0.1892 -0.6826 -0.7891 0.2114 -0.5767 -0.8576 0.2298 -0.4601 -0.9102 0.2439 -0.3349 -0.9457 0.2534 -0.2035 -0.9637 0.2582 -0.0682 -0.9637 0.2582 0.0682 -0.9457 0.2534 0.2035 -0.9102 0.2439 0.3349 -0.8576 0.2298 0.4601 -0.7891 0.2114 0.5767 -0.7059 0.1892 0.6826 -0.6096 0.1633 0.7757 -0.5019 0.1345 0.8544 -0.3848 0.1031 0.9172 -0.2606 0.0698 0.9629 -0.1315 0.0352 0.9907 -0.1350 0.0178 -0.9907 -0.2675 0.0352 -0.9629 -0.3950 0.0520 -0.9172 -0.5151 0.0678 -0.8544 -0.6257 0.0824 -0.7757 -0.7246 0.0954 -0.6826 -0.8100 0.1066 -0.5767 -0.8803 0.1159 -0.4601 -0.9342 0.1230 -0.3349 -0.9707 0.1278 -0.2035 -0.9891 0.1302 -0.0682 -0.9891 0.1302 0.0682 -0.9707 0.1278 0.2035 -0.9342 0.1230 0.3349 -0.8803 0.1159 0.4601 -0.8100 0.1066 0.5767 -0.7246 0.0954 0.6826 -0.6257 0.0824 0.7757 -0.5151 0.0678 0.8544 -0.3950 0.0520 0.9172 -0.2675 0.0352 0.9629 -0.1350 0.0178 0.9907 -0.1362 0.0000 -0.9907 -0.2698 0.0000 -0.9629 -0.3984 0.0000 -0.9172 -0.5196 0.0000 -0.8544 -0.6311 0.0000 -0.7757 -0.7308 0.0000 -0.6826 -0.8170 0.0000 -0.5767 -0.8879 0.0000 -0.4601 -0.9423 0.0000 -0.3349 -0.9791 0.0000 -0.2035 -0.9977 0.0000 -0.0682 -0.9977 0.0000 0.0682 -0.9791 0.0000 0.2035 -0.9423 0.0000 0.3349 -0.8879 0.0000 0.4601 -0.8170 0.0000 0.5767 -0.7308 0.0000 0.6826 -0.6311 0.0000 0.7757 -0.5196 0.0000 0.8544 -0.3984 0.0000 0.9172 -0.2698 0.0000 0.9629 -0.1362 0.0000 0.9907 -0.1350 -0.0178 -0.9907 -0.2675 -0.0352 -0.9629 -0.3950 -0.0520 -0.9172 -0.5151 -0.0678 -0.8544 -0.6257 -0.0824 -0.7757 -0.7246 -0.0954 -0.6826 -0.8100 -0.1066 -0.5767 -0.8803 -0.1159 -0.4601 -0.9342 -0.1230 -0.3349 -0.9707 -0.1278 -0.2035 -0.9891 -0.1302 -0.0682 -0.9891 -0.1302 0.0682 -0.9707 -0.1278 0.2035 -0.9342 -0.1230 0.3349 -0.8803 -0.1159 0.4601 -0.8100 -0.1066 0.5767 -0.7246 -0.0954 0.6826 -0.6257 -0.0824 0.7757 -0.5151 -0.0678 0.8544 -0.3950 -0.0520 0.9172 -0.2675 -0.0352 0.9629 -0.1350 -0.0178 0.9907 -0.1315 -0.0352 -0.9907 -0.2606 -0.0698 -0.9629 -0.3848 -0.1031 -0.9172 -0.5019 -0.1345 -0.8544 -0.6096 -0.1633 -0.7757 -0.7059 -0.1892 -0.6826 -0.7891 -0.2114 -0.5767 -0.8576 -0.2298 -0.4601 -0.9102 -0.2439 -0.3349 -0.9457 -0.2534 -0.2035 -0.9637 -0.2582 -0.0682 -0.9637 -0.2582 0.0682 -0.9457 -0.2534 0.2035 -0.9102 -0.2439 0.3349 -0.8576 -0.2298 0.4601 -0.7891 -0.2114 0.5767 -0.7059 -0.1892 0.6826 -0.6096 -0.1633 0.7757 -0.5019 -0.1345 0.8544 -0.3848 -0.1031 0.9172 -0.2606 -0.0698 0.9629 -0.1315 -0.0352 0.9907 -0.1258 -0.0521 -0.9907 -0.2493 -0.1032 -0.9629 -0.3681 -0.1525 -0.9172 -0.4800 -0.1988 -0.8544 -0.5830 -0.2415 -0.7757 -0.6752 -0.2797 -0.6826 -0.7548 -0.3126 -0.5767 -0.8203 -0.3398 -0.4601 -0.8705 -0.3606 -0.3349 -0.9046 -0.3747 -0.2035 -0.9217 -0.3818 -0.0682 -0.9217 -0.3818 0.0682 -0.9046 -0.3747 0.2035 -0.8705 -0.3606 0.3349 -0.8203 -0.3398 0.4601 -0.7548 -0.3126 0.5767 -0.6752 -0.2797 0.6826 -0.5830 -0.2415 0.7757 -0.4800 -0.1988 0.8544 -0.3681 -0.1525 0.9172 -0.2493 -0.1032 0.9629 -0.1258 -0.0521 0.9907 -0.1179 -0.0681 -0.9907 -0.2337 -0.1349 -0.9629 -0.3450 -0.1992 -0.9172 -0.4500 -0.2598 -0.8544 -0.5465 -0.3155 -0.7757 -0.6329 -0.3654 -0.6826 -0.7075 -0.4085 -0.5767 -0.7689 -0.4439 -0.4601 -0.8160 -0.4711 -0.3349 -0.8479 -0.4895 -0.2035 -0.8640 -0.4988 -0.0682 -0.8640 -0.4988 0.0682 -0.8479 -0.4895 0.2035 -0.8160 -0.4711 0.3349 -0.7689 -0.4439 0.4601 -0.7075 -0.4085 0.5767 -0.6329 -0.3654 0.6826 -0.5465 -0.3155 0.7757 -0.4500 -0.2598 0.8544 -0.3450 -0.1992 0.9172 -0.2337 -0.1349 0.9629 -0.1179 -0.0681 0.9907 -0.1080 -0.0829 -0.9907 -0.2140 -0.1642 -0.9629 -0.3161 -0.2425 -0.9172 -0.4122 -0.3163 -0.8544 -0.5007 -0.3842 -0.7757 -0.5798 -0.4449 -0.6826 -0.6481 -0.4973 -0.5767 -0.7044 -0.5405 -0.4601 -0.7475 -0.5736 -0.3349 -0.7768 -0.5960 -0.2035 -0.7915 -0.6073 -0.0682 -0.7915 -0.6073 0.0682 -0.7768 -0.5960 0.2035 -0.7475 -0.5736 0.3349 -0.7044 -0.5405 0.4601 -0.6481 -0.4973 0.5767 -0.5798 -0.4449 0.6826 -0.5007 -0.3842 0.7757 -0.4122 -0.3163 0.8544 -0.3161 -0.2425 0.9172 -0.2140 -0.1642 0.9629 -0.1080 -0.0829 0.9907 -0.0963 -0.0963 -0.9907 -0.1908 -0.1908 -0.9629 -0.2817 -0.2817 -0.9172 -0.3674 -0.3674 -0.8544 -0.4462 -0.4462 -0.7757 -0.5168 -0.5168 -0.6826 -0.5777 -0.5777 -0.5767 -0.6278 -0.6278 -0.4601 -0.6663 -0.6663 -0.3349 -0.6923 -0.6923 -0.2035 -0.7055 -0.7055 -0.0682 -0.7055 -0.7055 0.0682 -0.6923 -0.6923 0.2035 -0.6663 -0.6663 0.3349 -0.6278 -0.6278 0.4601 -0.5777 -0.5777 0.5767 -0.5168 -0.5168 0.6826 -0.4462 -0.4462 0.7757 -0.3674 -0.3674 0.8544 -0.2817 -0.2817 0.9172 -0.1908 -0.1908 0.9629 -0.0963 -0.0963 0.9907 -0.0829 -0.1080 -0.9907 -0.1642 -0.2140 -0.9629 -0.2425 -0.3161 -0.9172 -0.3163 -0.4122 -0.8544 -0.3842 -0.5007 -0.7757 -0.4449 -0.5798 -0.6826 -0.4973 -0.6481 -0.5767 -0.5405 -0.7044 -0.4601 -0.5736 -0.7475 -0.3349 -0.5960 -0.7768 -0.2035 -0.6073 -0.7915 -0.0682 -0.6073 -0.7915 0.0682 -0.5960 -0.7768 0.2035 -0.5736 -0.7475 0.3349 -0.5405 -0.7044 0.4601 -0.4973 -0.6481 0.5767 -0.4449 -0.5798 0.6826 -0.3842 -0.5007 0.7757 -0.3163 -0.4122 0.8544 -0.2425 -0.3161 0.9172 -0.1642 -0.2140 0.9629 -0.0829 -0.1080 0.9907 -0.0681 -0.1179 -0.9907 -0.1349 -0.2337 -0.9629 -0.1992 -0.3450 -0.9172 -0.2598 -0.4500 -0.8544 -0.3155 -0.5465 -0.7757 -0.3654 -0.6329 -0.6826 -0.4085 -0.7075 -0.5767 -0.4439 -0.7689 -0.4601 -0.4711 -0.8160 -0.3349 -0.4895 -0.8479 -0.2035 -0.4988 -0.8640 -0.0682 -0.4988 -0.8640 0.0682 -0.4895 -0.8479 0.2035 -0.4711 -0.8160 0.3349 -0.4439 -0.7689 0.4601 -0.4085 -0.7075 0.5767 -0.3654 -0.6329 0.6826 -0.3155 -0.5465 0.7757 -0.2598 -0.4500 0.8544 -0.1992 -0.3450 0.9172 -0.1349 -0.2337 0.9629 -0.0681 -0.1179 0.9907 -0.0521 -0.1258 -0.9907 -0.1032 -0.2493 -0.9629 -0.1525 -0.3681 -0.9172 -0.1988 -0.4800 -0.8544 -0.2415 -0.5830 -0.7757 -0.2797 -0.6752 -0.6826 -0.3126 -0.7548 -0.5767 -0.3398 -0.8203 -0.4601 -0.3606 -0.8705 -0.3349 -0.3747 -0.9046 -0.2035 -0.3818 -0.9217 -0.0682 -0.3818 -0.9217 0.0682 -0.3747 -0.9046 0.2035 -0.3606 -0.8705 0.3349 -0.3398 -0.8203 0.4601 -0.3126 -0.7548 0.5767 -0.2797 -0.6752 0.6826 -0.2415 -0.5830 0.7757 -0.1988 -0.4800 0.8544 -0.1525 -0.3681 0.9172 -0.1032 -0.2493 0.9629 -0.0521 -0.1258 0.9907 -0.0352 -0.1315 -0.9907 -0.0698 -0.2606 -0.9629 -0.1031 -0.3848 -0.9172 -0.1345 -0.5019 -0.8544 -0.1633 -0.6096 -0.7757 -0.1892 -0.7059 -0.6826 -0.2114 -0.7891 -0.5767 -0.2298 -0.8576 -0.4601 -0.2439 -0.9102 -0.3349 -0.2534 -0.9457 -0.2035 -0.2582 -0.9637 -0.0682 -0.2582 -0.9637 0.0682 -0.2534 -0.9457 0.2035 -0.2439 -0.9102 0.3349 -0.2298 -0.8576 0.4601 -0.2114 -0.7891 0.5767 -0.1892 -0.7059 0.6826 -0.1633 -0.6096 0.7757 -0.1345 -0.5019 0.8544 -0.1031 -0.3848 0.9172 -0.0698 -0.2606 0.9629 -0.0352 -0.1315 0.9907 -0.0178 -0.1350 -0.9907 -0.0352 -0.2675 -0.9629 -0.0520 -0.3950 -0.9172 -0.0678 -0.5151 -0.8544 -0.0824 -0.6257 -0.7757 -0.0954 -0.7246 -0.6826 -0.1066 -0.8100 -0.5767 -0.1159 -0.8803 -0.4601 -0.1230 -0.9342 -0.3349 -0.1278 -0.9707 -0.2035 -0.1302 -0.9891 -0.0682 -0.1302 -0.9891 0.0682 -0.1278 -0.9707 0.2035 -0.1230 -0.9342 0.3349 -0.1159 -0.8803 0.4601 -0.1066 -0.8100 0.5767 -0.0954 -0.7246 0.6826 -0.0824 -0.6257 0.7757 -0.0678 -0.5151 0.8544 -0.0520 -0.3950 0.9172 -0.0352 -0.2675 0.9629 -0.0178 -0.1350 0.9907 -0.0000 -0.1362 -0.9907 -0.0000 -0.2698 -0.9629 -0.0000 -0.3984 -0.9172 -0.0000 -0.5196 -0.8544 -0.0000 -0.6311 -0.7757 -0.0000 -0.7308 -0.6826 -0.0000 -0.8170 -0.5767 -0.0000 -0.8879 -0.4601 -0.0000 -0.9423 -0.3349 -0.0000 -0.9791 -0.2035 -0.0000 -0.9977 -0.0682 -0.0000 -0.9977 0.0682 -0.0000 -0.9791 0.2035 -0.0000 -0.9423 0.3349 -0.0000 -0.8879 0.4601 -0.0000 -0.8170 0.5767 -0.0000 -0.7308 0.6826 -0.0000 -0.6311 0.7757 -0.0000 -0.5196 0.8544 -0.0000 -0.3984 0.9172 -0.0000 -0.2698 0.9629 -0.0000 -0.1362 0.9907 0.0178 -0.1350 -0.9907 0.0352 -0.2675 -0.9629 0.0520 -0.3950 -0.9172 0.0678 -0.5151 -0.8544 0.0824 -0.6257 -0.7757 0.0954 -0.7246 -0.6826 0.1066 -0.8100 -0.5767 0.1159 -0.8803 -0.4601 0.1230 -0.9342 -0.3349 0.1278 -0.9707 -0.2035 0.1302 -0.9891 -0.0682 0.1302 -0.9891 0.0682 0.1278 -0.9707 0.2035 0.1230 -0.9342 0.3349 0.1159 -0.8803 0.4601 0.1066 -0.8100 0.5767 0.0954 -0.7246 0.6826 0.0824 -0.6257 0.7757 0.0678 -0.5151 0.8544 0.0520 -0.3950 0.9172 0.0352 -0.2675 0.9629 0.0178 -0.1350 0.9907 0.0352 -0.1315 -0.9907 0.0698 -0.2606 -0.9629 0.1031 -0.3848 -0.9172 0.1345 -0.5019 -0.8544 0.1633 -0.6096 -0.7757 0.1892 -0.7059 -0.6826 0.2114 -0.7891 -0.5767 0.2298 -0.8576 -0.4601 0.2439 -0.9102 -0.3349 0.2534 -0.9457 -0.2035 0.2582 -0.9637 -0.0682 0.2582 -0.9637 0.0682 0.2534 -0.9457 0.2035 0.2439 -0.9102 0.3349 0.2298 -0.8576 0.4601 0.2114 -0.7891 0.5767 0.1892 -0.7059 0.6826 0.1633 -0.6096 0.7757 0.1345 -0.5019 0.8544 0.1031 -0.3848 0.9172 0.0698 -0.2606 0.9629 0.0352 -0.1315 0.9907 0.0521 -0.1258 -0.9907 0.1032 -0.2493 -0.9629 0.1525 -0.3681 -0.9172 0.1988 -0.4800 -0.8544 0.2415 -0.5830 -0.7757 0.2797 -0.6752 -0.6826 0.3126 -0.7548 -0.5767 0.3398 -0.8203 -0.4601 0.3606 -0.8705 -0.3349 0.3747 -0.9046 -0.2035 0.3818 -0.9217 -0.0682 0.3818 -0.9217 0.0682 0.3747 -0.9046 0.2035 0.3606 -0.8705 0.3349 0.3398 -0.8203 0.4601 0.3126 -0.7548 0.5767 0.2797 -0.6752 0.6826 0.2415 -0.5830 0.7757 0.1988 -0.4800 0.8544 0.1525 -0.3681 0.9172 0.1032 -0.2493 0.9629 0.0521 -0.1258 0.9907 0.0681 -0.1179 -0.9907 0.1349 -0.2337 -0.9629 0.1992 -0.3450 -0.9172 0.2598 -0.4500 -0.8544 0.3155 -0.5465 -0.7757 0.3654 -0.6329 -0.6826 0.4085 -0.7075 -0.5767 0.4439 -0.7689 -0.4601 0.4711 -0.8160 -0.3349 0.4895 -0.8479 -0.2035 0.4988 -0.8640 -0.0682 0.4988 -0.8640 0.0682 0.4895 -0.8479 0.2035 0.4711 -0.8160 0.3349 0.4439 -0.7689 0.4601 0.4085 -0.7075 0.5767 0.3654 -0.6329 0.6826 0.3155 -0.5465 0.7757 0.2598 -0.4500 0.8544 0.1992 -0.3450 0.9172 0.1349 -0.2337 0.9629 0.0681 -0.1179 0.9907 0.0829 -0.1080 -0.9907 0.1642 -0.2140 -0.9629 0.2425 -0.3161 -0.9172 0.3163 -0.4122 -0.8544 0.3842 -0.5007 -0.7757 0.4449 -0.5798 -0.6826 0.4973 -0.6481 -0.5767 0.5405 -0.7044 -0.4601 0.5736 -0.7475 -0.3349 0.5960 -0.7768 -0.2035 0.6073 -0.7915 -0.0682 0.6073 -0.7915 0.0682 0.5960 -0.7768 0.2035 0.5736 -0.7475 0.3349 0.5405 -0.7044 0.4601 0.4973 -0.6481 0.5767 0.4449 -0.5798 0.6826 0.3842 -0.5007 0.7757 0.3163 -0.4122 0.8544 0.2425 -0.3161 0.9172 0.1642 -0.2140 0.9629 0.0829 -0.1080 0.9907 0.0963 -0.0963 -0.9907 0.1908 -0.1908 -0.9629 0.2817 -0.2817 -0.9172 0.3674 -0.3674 -0.8544 0.4462 -0.4462 -0.7757 0.5168 -0.5168 -0.6826 0.5777 -0.5777 -0.5767 0.6278 -0.6278 -0.4601 0.6663 -0.6663 -0.3349 0.6923 -0.6923 -0.2035 0.7055 -0.7055 -0.0682 0.7055 -0.7055 0.0682 0.6923 -0.6923 0.2035 0.6663 -0.6663 0.3349 0.6278 -0.6278 0.4601 0.5777 -0.5777 0.5767 0.5168 -0.5168 0.6826 0.4462 -0.4462 0.7757 0.3674 -0.3674 0.8544 0.2817 -0.2817 0.9172 0.1908 -0.1908 0.9629 0.0963 -0.0963 0.9907 0.1080 -0.0829 -0.9907 0.2140 -0.1642 -0.9629 0.3161 -0.2425 -0.9172 0.4122 -0.3163 -0.8544 0.5007 -0.3842 -0.7757 0.5798 -0.4449 -0.6826 0.6481 -0.4973 -0.5767 0.7044 -0.5405 -0.4601 0.7475 -0.5736 -0.3349 0.7768 -0.5960 -0.2035 0.7915 -0.6073 -0.0682 0.7915 -0.6073 0.0682 0.7768 -0.5960 0.2035 0.7475 -0.5736 0.3349 0.7044 -0.5405 0.4601 0.6481 -0.4973 0.5767 0.5798 -0.4449 0.6826 0.5007 -0.3842 0.7757 0.4122 -0.3163 0.8544 0.3161 -0.2425 0.9172 0.2140 -0.1642 0.9629 0.1080 -0.0829 0.9907 0.1179 -0.0681 -0.9907 0.2337 -0.1349 -0.9629 0.3450 -0.1992 -0.9172 0.4500 -0.2598 -0.8544 0.5465 -0.3155 -0.7757 0.6329 -0.3654 -0.6826 0.7075 -0.4085 -0.5767 0.7689 -0.4439 -0.4601 0.8160 -0.4711 -0.3349 0.8479 -0.4895 -0.2035 0.8640 -0.4988 -0.0682 0.8640 -0.4988 0.0682 0.8479 -0.4895 0.2035 0.8160 -0.4711 0.3349 0.7689 -0.4439 0.4601 0.7075 -0.4085 0.5767 0.6329 -0.3654 0.6826 0.5465 -0.3155 0.7757 0.4500 -0.2598 0.8544 0.3450 -0.1992 0.9172 0.2337 -0.1349 0.9629 0.1179 -0.0681 0.9907 0.1258 -0.0521 -0.9907 0.2493 -0.1032 -0.9629 0.3681 -0.1525 -0.9172 0.4800 -0.1988 -0.8544 0.5830 -0.2415 -0.7757 0.6752 -0.2797 -0.6826 0.7548 -0.3126 -0.5767 0.8203 -0.3398 -0.4601 0.8705 -0.3606 -0.3349 0.9046 -0.3747 -0.2035 0.9217 -0.3818 -0.0682 0.9217 -0.3818 0.0682 0.9046 -0.3747 0.2035 0.8705 -0.3606 0.3349 0.8203 -0.3398 0.4601 0.7548 -0.3126 0.5767 0.6752 -0.2797 0.6826 0.5830 -0.2415 0.7757 0.4800 -0.1988 0.8544 0.3681 -0.1525 0.9172 0.2493 -0.1032 0.9629 0.1258 -0.0521 0.9907 0.1315 -0.0352 -0.9907 0.2606 -0.0698 -0.9629 0.3848 -0.1031 -0.9172 0.5019 -0.1345 -0.8544 0.6096 -0.1633 -0.7757 0.7059 -0.1892 -0.6826 0.7891 -0.2114 -0.5767 0.8576 -0.2298 -0.4601 0.9102 -0.2439 -0.3349 0.9457 -0.2534 -0.2035 0.9637 -0.2582 -0.0682 0.9637 -0.2582 0.0682 0.9457 -0.2534 0.2035 0.9102 -0.2439 0.3349 0.8576 -0.2298 0.4601 0.7891 -0.2114 0.5767 0.7059 -0.1892 0.6826 0.6096 -0.1633 0.7757 0.5019 -0.1345 0.8544 0.3848 -0.1031 0.9172 0.2606 -0.0698 0.9629 0.1315 -0.0352 0.9907 0.1350 -0.0178 -0.9907 0.2675 -0.0352 -0.9629 0.3950 -0.0520 -0.9172 0.5151 -0.0678 -0.8544 0.6257 -0.0824 -0.7757 0.7246 -0.0954 -0.6826 0.8100 -0.1066 -0.5767 0.8803 -0.1159 -0.4601 0.9342 -0.1230 -0.3349 0.9707 -0.1278 -0.2035 0.9891 -0.1302 -0.0682 0.9891 -0.1302 0.0682 0.9707 -0.1278 0.2035 0.9342 -0.1230 0.3349 0.8803 -0.1159 0.4601 0.8100 -0.1066 0.5767 0.7246 -0.0954 0.6826 0.6257 -0.0824 0.7757 0.5151 -0.0678 0.8544 0.3950 -0.0520 0.9172 0.2675 -0.0352 0.9629 0.1350 -0.0178 0.9907"/>
      </IndexedFaceSet>
    </Shape>
  </Scene>
</X3D>
