<?xml version="1.0" encoding="UTF-8"?>
<X3D profile="Interchange" version="3.3">
  <Scene>
    <Shape>
      <Appearance><Material diffuseColor="0.2 0.4 0.8"/></Appearance>
      <IndexedFaceSet coordIndex="1 0 8 -1 1 8 2 -1 2 8 9 -1 2 9 3 -1 3 9 10 -1 3 10 4 -1 4 10 11 -1 4 11 5 -1 5 11 12 -1 5 12 6 -1 6 12 13 -1 6 13 7 -1 8 0 14 -1 8 14 9 -1 9 14 15 -1 9 15 10 -1 10 15 16 -1 10 16 11 -1 11 16 17 -1 11 17 12 -1 12 17 18 -1 12 18 13 -1 13 18 19 -1 13 19 7 -1 14 0 20 -1 14 20 15 -1 15 20 21 -1 15 21 16 -1 16 21 22 -1 16 22 17 -1 17 22 23 -1 17 23 18 -1 18 23 24 -1 18 24 19 -1 19 24 25 -1 19 25 7 -1 20 0 26 -1 20 26 21 -1 21 26 27 -1 21 27 22 -1 22 27 28 -1 22 28 23 -1 23 28 29 -1 23 29 24 -1 24 29 30 -1 24 30 25 -1 25 30 31 -1 25 31 7 -1 26 0 32 -1 26 32 27 -1 27 32 33 -1 27 33 28 -1 28 33 34 -1 28 34 29 -1 29 34 35 -1 29 35 30 -1 30 35 36 -1 30 36 31 -1 31 36 37 -1 31 37 7 -1 32 0 38 -1 32 38 33 -1 33 38 39 -1 33 39 34 -1 34 39 40 -1 34 40 35 -1 35 40 41 -1 35 41 36 -1 36 41 42 -1 36 42 37 -1 37 42 43 -1 37 43 7 -1 38 0 44 -1 38 44 39 -1 39 44 45 -1 39 45 40 -1 40 45 46 -1 40 46 41 -1 41 46 47 -1 41 47 42 -1 42 47 48 -1 42 48 43 -1 43 48 49 -1 43 49 7 -1 44 0 50 -1 44 50 45 -1 45 50 51 -1 45 51 46 -1 46 51 52 -1 46 52 47 -1 47 52 53 -1 47 53 48 -1 48 53 54 -1 48 54 49 -1 49 54 55 -1 49 55 7 -1 50 0 56 -1 50 56 51 -1 51 56 57 -1 51 57 52 -1 52 57 58 -1 52 58 53 -1 53 58 59 -1 53 59 54 -1 54 59 60 -1 54 60 55 -1 55 60 61 -1 55 61 7 -1 56 0 62 -1 56 62 57 -1 57 62 63 -1 57 63 58 -1 58 63 64 -1 58 64 59 -1 59 64 65 -1 59 65 60 -1 60 65 66 -1 60 66 61 -1 61 66 67 -1 61 67 7 -1 62 0 68 -1 62 68 63 -1 63 68 69 -1 63 69 64 -1 64 69 70 -1 64 70 65 -1 65 70 71 -1 65 71 66 -1 66 71 72 -1 66 72 67 -1 67 72 73 -1 67 73 7 -1 68 0 74 -1 68 74 69 -1 69 74 75 -1 69 75 70 -1 70 75 76 -1 70 76 71 -1 71 76 77 -1 71 77 72 -1 72 77 78 -1 72 78 73 -1 73 78 79 -1 73 79 7 -1 74 0 80 -1 74 80 75 -1 75 80 81 -1 75 81 76 -1 76 81 82 -1 76 82 77 -1 77 82 83 -1 77 83 78 -1 78 83 84 -1 78 84 79 -1 79 84 85 -1 79 85 7 -1 80 0 86 -1 80 86 81 -1 81 86 87 -1 81 87 82 -1 82 87 88 -1 82 88 83 -1 83 88 89 -1 83 89 84 -1 84 89 90 -1 84 90 85 -1 85 90 91 -1 85 91 7 -1 86 0 92 -1 86 92 87 -1 87 92 93 -1 87 93 88 -1 88 93 94 -1 88 94 89 -1 89 94 95 -1 89 95 90 -1 90 95 96 -1 90 96 91 -1 91 96 97 -1 91 97 7 -1 92 0 1 -1 92 1 93 -1 93 1 2 -1 93 2 94 -1 94 2 3 -1 94 3 95 -1 95 3 4 -1 95 4 96 -1 96 4 5 -1 96 5 97 -1 97 5 6 -1 97 6 7 -1">
        <Coordinate point="0.0000 0.0000 -1.0000 0.4339 0.0000 -0.9010 0.7818 0.0000 -0.6235 0.9749 0.0000 -0.2225 0.9749 0.0000 0.2225 0.7818 0.0000 0.6235 0.4339 0.0000 0.9010 0.0000 0.0000 1.0000 0.4009 0.1660 -0.9010 0.7223 0.2992 -0.6235 0.9007 0.3731 -0.2225 0.9007 0.3731 0.2225 0.7223 0.2992 0.6235 0.4009 0.1660 0.9010 0.3068 0.3068 -0.9010 0.5528 0.5528 -0.6235 0.6894 0.6894 -0.2225 0.6894 0.6894 0.2225 0.5528 0.5528 0.6235 0.3068 0.3068 0.9010 0.1660 0.4009 -0.9010 0.2992 0.7223 -0.6235 0.3731 0.9007 -0.2225 0.3731 0.9007 0.2225 0.2992 0.7223 0.6235 0.1660 0.4009 0.9010 0.0000 0.4339 -0.9010 0.0000 0.7818 -0.6235 0.0000 0.9749 -0.2225 0.0000 0.9749 0.2225 0.0000 0.7818 0.6235 0.0000 0.4339 0.9010 -0.1660 0.4009 -0.9010 -0.2992 0.7223 -0.6235 -0.3731 0.9007 -0.2225 -0.3731 0.9007 0.2225 -0.2992 0.7223 0.6235 -0.1660 0.4009 0.9010 -0.3068 0.3068 -0.9010 -0.5528 0.5528 -0.6235 -0.6894 0.6894 -0.2225 -0.6894 0.6894 0.2225 -0.5528 0.5528 0.6235 -0.3068 0.3068 0.9010 -0.4009 0.1660 -0.9010 -0.7223 0.2992 -0.6235 -0.9007 0.3731 -0.2225 -0.9007 0.3731 0.2225 -0.7223 0.2992 0.6235 -0.4009 0.1660 0.9010 -0.4339 0.0000 -0.9010 -0.7818 0.0000 -0.6235 -0.9749 0.0000 -0.2225 -0.9749 0.0000 0.2225 -0.7818 0.0000 0.6235 -0.4339 0.0000 0.9010 -0.4009 -0.1660 -0.9010 -0.7223 -0.2992 -0.6235 -0.9007 -0.3731 -0.2225 -0.9007 -0.3731 0.2225 -0.7223 -0.2992 0.6235 -0.4009 -0.1660 0.9010 -0.3068 -0.3068 -0.9010 -0.5528 -0.5528 -0.6235 -0.6894 -0.6894 -0.2225 -0.6894 -0.6894 0.2225 -0.5528 -0.5528 0.6235 -0.3068 -0.3068 0.9010 -0.1660 -0.4009 -0.9010 -0.2992 -0.7223 -0.6235 -0.3731 -0.9007 -0.2225 -0.3731 -0.9007 0.2225 -0.2992 -0.7223 0.6235 -0.1660 -0.4009 0.9010 -0.0000 -0.4339 -0.9010 -0.0000 -0.7818 -0.6235 -0.0000 -0.9749 -0.2225 -0.0000 -0.9749 0.2225 -0.0000 -0.7818 0.6235 -0.0000 -0.4339 0.9010 0.1660 -0.4009 -0.9010 0.2992 -0.7223 -0.6235 0.3731 -0.9007 -0.2225 0.3731 -0.9007 0.2225 0.2992 -0.7223 0.6235 0.1660 -0.4009 0.9010 0.3068 -0.3068 -0.9010 0.5528 -0.5528 -0.6235 0.6894 -0.6894 -0.2225 0.6894 -0.6894 0.2225 0.5528 -0.5528 0.6235 0.3068 -0.3068 0.9010 0.4009 -0.1660 -0.9010 0.7223 -0.2992 -0.6235 0.9007 -0.3731 -0.2225 0.9007 -0.3731 0.2225 0.7223 -0.2992 0.6235 0.4009 -0.1660 0.9010"/>
      </IndexedFaceSet>
    </Shape>
  </Scene>
</X3D>
