<?xml version="1.0" encoding="UTF-8"?>
<X3D profile="Interchange" version="3.3">
  <Scene>
    <Shape>
      <Appearance><Material diffuseColor="0.2 0.4 0.8"/></Appearance>
      <IndexedFaceSet coordIndex="1 0 12 -1 1 12 2 -1 2 12 13 -1 2 13 3 -1 3 13 14 -1 3 14 4 -1 4 14 15 -1 4 15 5 -1 5 15 16 -1 5 16 6 -1 6 16 17 -1 6 17 7 -1 7 17 18 -1 7 18 8 -1 8 18 19 -1 8 19 9 -1 9 19 20 -1 9 20 10 -1 10 20 21 -1 10 21 11 -1 12 0 22 -1 12 22 13 -1 13 22 23 -1 13 23 14 -1 14 23 24 -1 14 24 15 -1 15 24 25 -1 15 25 16 -1 16 25 26 -1 16 26 17 -1 17 26 27 -1 17 27 18 -1 18 27 28 -1 18 28 19 -1 19 28 29 -1 19 29 20 -1 20 29 30 -1 20 30 21 -1 21 30 31 -1 21 31 11 -1 22 0 32 -1 22 32 23 -1 23 32 33 -1 23 33 24 -1 24 33 34 -1 24 34 25 -1 25 34 35 -1 25 35 26 -1 26 35 36 -1 26 36 27 -1 27 36 37 -1 27 37 28 -1 28 37 38 -1 28 38 29 -1 29 38 39 -1 29 39 30 -1 30 39 40 -1 30 40 31 -1 31 40 41 -1 31 41 11 -1 32 0 42 -1 32 42 33 -1 33 42 43 -1 33 43 34 -1 34 43 44 -1 34 44 35 -1 35 44 45 -1 35 45 36 -1 36 45 46 -1 36 46 37 -1 37 46 47 -1 37 47 38 -1 38 47 48 -1 38 48 39 -1 39 48 49 -1 39 49 40 -1 40 49 50 -1 40 50 41 -1 41 50 51 -1 41 51 11 -1 42 0 52 -1 42 52 43 -1 43 52 53 -1 43 53 44 -1 44 53 54 -1 44 54 45 -1 45 54 55 -1 45 55 46 -1 46 55 56 -1 46 56 47 -1 47 56 57 -1 47 57 48 -1 48 57 58 -1 48 58 49 -1 49 58 59 -1 49 59 50 -1 50 59 60 -1 50 60 51 -1 51 60 61 -1 51 61 11 -1 52 0 62 -1 52 62 53 -1 53 62 63 -1 53 63 54 -1 54 63 64 -1 54 64 55 -1 55 64 65 -1 55 65 56 -1 56 65 66 -1 56 66 57 -1 57 66 67 -1 57 67 58 -1 58 67 68 -1 58 68 59 -1 59 68 69 -1 59 69 60 -1 60 69 70 -1 60 70 61 -1 61 70 71 -1 61 71 11 -1 62 0 72 -1 62 72 63 -1 63 72 73 -1 63 73 64 -1 64 73 74 -1 64 74 65 -1 65 74 75 -1 65 75 66 -1 66 75 76 -1 66 76 67 -1 67 76 77 -1 67 77 68 -1 68 77 78 -1 68 78 69 -1 69 78 79 -1 69 79 70 -1 70 79 80 -1 70 80 71 -1 71 80 81 -1 71 81 11 -1 72 0 82 -1 72 82 73 -1 73 82 83 -1 73 83 74 -1 74 83 84 -1 74 84 75 -1 75 84 85 -1 75 85 76 -1 76 85 86 -1 76 86 77 -1 77 86 87 -1 77 87 78 -1 78 87 88 -1 78 88 79 -1 79 88 89 -1 79 89 80 -1 80 89 90 -1 80 90 81 -1 81 90 91 -1 81 91 11 -1 82 0 92 -1 82 92 83 -1 83 92 93 -1 83 93 84 -1 84 93 94 -1 84 94 85 -1 85 94 95 -1 85 95 86 -1 86 95 96 -1 86 96 87 -1 87 96 97 -1 87 97 88 -1 88 97 98 -1 88 98 89 -1 89 98 99 -1 89 99 90 -1 90 99 100 -1 90 100 91 -1 91 100 101 -1 91 101 11 -1 92 0 102 -1 92 102 93 -1 93 102 103 -1 93 103 94 -1 94 103 104 -1 94 104 95 -1 95 104 105 -1 95 105 96 -1 96 105 106 -1 96 106 97 -1 97 106 107 -1 97 107 98 -1 98 107 108 -1 98 108 99 -1 99 108 109 -1 99 109 100 -1 100 109 110 -1 100 110 101 -1 101 110 111 -1 101 111 11 -1 102 0 112 -1 102 112 103 -1 103 112 113 -1 103 113 104 -1 104 113 114 -1 104 114 105 -1 105 114 115 -1 105 115 106 -1 106 115 116 -1 106 116 107 -1 107 116 117 -1 107 117 108 -1 108 117 118 -1 108 118 109 -1 109 118 119 -1 109 119 110 -1 110 119 120 -1 110 120 111 -1 111 120 121 -1 111 121 11 -1 112 0 122 -1 112 122 113 -1 113 122 123 -1 113 123 114 -1 114 123 124 -1 114 124 115 -1 115 124 125 -1 115 125 116 -1 116 125 126 -1 116 126 117 -1 117 126 127 -1 117 127 118 -1 118 127 128 -1 118 128 119 -1 119 128 129 -1 119 129 120 -1 120 129 130 -1 120 130 121 -1 121 130 131 -1 121 131 11 -1 122 0 132 -1 122 132 123 -1 123 132 133 -1 123 133 124 -1 124 133 134 -1 124 134 125 -1 125 134 135 -1 125 135 126 -1 126 135 136 -1 126 136 127 -1 127 136 137 -1 127 137 128 -1 128 137 138 -1 128 138 129 -1 129 138 139 -1 129 139 130 -1 130 139 140 -1 130 140 131 -1 131 140 141 -1 131 141 11 -1 132 0 142 -1 132 142 133 -1 133 142 143 -1 133 143 134 -1 134 143 144 -1 134 144 135 -1 135 144 145 -1 135 145 136 -1 136 145 146 -1 136 146 137 -1 137 146 147 -1 137 147 138 -1 138 147 148 -1 138 148 139 -1 139 148 149 -1 139 149 140 -1 140 149 150 -1 140 150 141 -1 141 150 151 -1 141 151 11 -1 142 0 152 -1 142 152 143 -1 143 152 153 -1 143 153 144 -1 144 153 154 -1 144 154 145 -1 145 154 155 -1 145 155 146 -1 146 155 156 -1 146 156 147 -1 147 156 157 -1 147 157 148 -1 148 157 158 -1 148 158 149 -1 149 158 159 -1 149 159 150 -1 150 159 160 -1 150 160 151 -1 151 160 161 -1 151 161 11 -1 152 0 162 -1 152 162 153 -1 153 162 163 -1 153 163 154 -1 154 163 164 -1 154 164 155 -1 155 164 165 -1 155 165 156 -1 156 165 166 -1 156 166 157 -1 157 166 167 -1 157 167 158 -1 158 167 168 -1 158 168 159 -1 159 168 169 -1 159 169 160 -1 160 169 170 -1 160 170 161 -1 161 170 171 -1 161 171 11 -1 162 0 172 -1 162 172 163 -1 163 172 173 -1 163 173 164 -1 164 173 174 -1 164 174 165 -1 165 174 175 -1 165 175 166 -1 166 175 176 -1 166 176 167 -1 167 176 177 -1 167 177 168 -1 168 177 178 -1 168 178 169 -1 169 178 179 -1 169 179 170 -1 170 179 180 -1 170 180 171 -1 171 180 181 -1 171 181 11 -1 172 0 182 -1 172 182 173 -1 173 182 183 -1 173 183 174 -1 174 183 184 -1 174 184 175 -1 175 184 185 -1 175 185 176 -1 176 185 186 -1 176 186 177 -1 177 186 187 -1 177 187 178 -1 178 187 188 -1 178 188 179 -1 179 188 189 -1 179 189 180 -1 180 189 190 -1 180 190 181 -1 181 190 191 -1 181 191 11 -1 182 0 192 -1 182 192 183 -1 183 192 193 -1 183 193 184 -1 184 193 194 -1 184 194 185 -1 185 194 195 -1 185 195 186 -1 186 195 196 -1 186 196 187 -1 187 196 197 -1 187 197 188 -1 188 197 198 -1 188 198 189 -1 189 198 199 -1 189 199 190 -1 190 199 200 -1 190 200 191 -1 191 200 201 -1 191 201 11 -1 192 0 202 -1 192 202 193 -1 193 202 203 -1 193 203 194 -1 194 203 204 -1 194 204 195 -1 195 204 205 -1 195 205 196 -1 196 205 206 -1 196 206 197 -1 197 206 207 -1 197 207 198 -1 198 207 208 -1 198 208 199 -1 199 208 209 -1 199 209 200 -1 200 209 210 -1 200 210 201 -1 201 210 211 -1 201 211 11 -1 202 0 212 -1 202 212 203 -1 203 212 213 -1 203 213 204 -1 204 213 214 -1 204 214 205 -1 205 214 215 -1 205 215 206 -1 206 215 216 -1 206 216 207 -1 207 216 217 -1 207 217 208 -1 208 217 218 -1 208 218 209 -1 209 218 219 -1 209 219 210 -1 210 219 220 -1 210 220 211 -1 211 220 221 -1 211 221 11 -1 212 0 222 -1 212 222 213 -1 213 222 223 -1 213 223 214 -1 214 223 224 -1 214 224 215 -1 215 224 225 -1 215 225 216 -1 216 225 226 -1 216 226 217 -1 217 226 227 -1 217 227 218 -1 218 227 228 -1 218 228 219 -1 219 228 229 -1 219 229 220 -1 220 229 230 -1 220 230 221 -1 221 230 231 -1 221 231 11 -1 222 0 232 -1 222 232 223 -1 223 232 233 -1 223 233 224 -1 224 233 234 -1 224 234 225 -1 225 234 235 -1 225 235 226 -1 226 235 236 -1 226 236 227 -1 227 236 237 -1 227 237 228 -1 228 237 238 -1 228 238 229 -1 229 238 239 -1 229 239 230 -1 230 239 240 -1 230 240 231 -1 231 240 241 -1 231 241 11 -1 232 0 1 -1 232 1 233 -1 233 1 2 -1 233 2 234 -1 234 2 3 -1 234 3 235 -1 235 3 4 -1 235 4 236 -1 236 4 5 -1 236 5 237 -1 237 5 6 -1 237 6 238 -1 238 6 7 -1 238 7 239 -1 239 7 8 -1 239 8 240 -1 240 8 9 -1 240 9 241 -1 241 9 10 -1 241 10 11 -1">
        <Coordinate point="0.0000 0.0000 -1.0000 0.2817 0.0000 -0.9595 0.5406 0.0000 -0.8413 0.7557 0.0000 -0.6549 0.9096 0.0000 -0.4154 0.9898 0.0000 -0.1423 0.9898 0.0000 0.1423 0.9096 0.0000 0.4154 0.7557 0.0000 0.6549 0.5406 0.0000 0.8413 0.2817 0.0000 0.9595 0.0000 0.0000 1.0000 0.2721 0.0729 -0.9595 0.5222 0.1399 -0.8413 0.7300 0.1956 -0.6549 0.8786 0.2354 -0.4154 0.9561 0.2562 -0.1423 0.9561 0.2562 0.1423 0.8786 0.2354 0.4154 0.7300 0.1956 0.6549 0.5222 0.1399 0.8413 0.2721 0.0729 0.9595 0.2440 0.1409 -0.9595 0.4682 0.2703 -0.8413 0.6545 0.3779 -0.6549 0.7878 0.4548 -0.4154 0.8572 0.4949 -0.1423 0.8572 0.4949 0.1423 0.7878 0.4548 0.4154 0.6545 0.3779 0.6549 0.4682 0.2703 0.8413 0.2440 0.1409 0.9595 0.1992 0.1992 -0.9595 0.3823 0.3823 -0.8413 0.5344 0.5344 -0.6549 0.6432 0.6432 -0.4154 0.6999 0.6999 -0.1423 0.6999 0.6999 0.1423 0.6432 0.6432 0.4154 0.5344 0.5344 0.6549 0.3823 0.3823 0.8413 0.1992 0.1992 0.9595 0.1409 0.2440 -0.9595 0.2703 0.4682 -0.8413 0.3779 0.6545 -0.6549 0.4548 0.7878 -0.4154 0.4949 0.8572 -0.1423 0.4949 0.8572 0.1423 0.4548 0.7878 0.4154 0.3779 0.6545 0.6549 0.2703 0.4682 0.8413 0.1409 0.2440 0.9595 0.0729 0.2721 -0.9595 0.1399 0.5222 -0.8413 0.1956 0.7300 -0.6549 0.2354 0.8786 -0.4154 0.2562 0.9561 -0.1423 0.2562 0.9561 0.1423 0.2354 0.8786 0.4154 0.1956 0.7300 0.6549 0.1399 0.5222 0.8413 0.0729 0.2721 0.9595 0.0000 0.2817 -0.9595 0.0000 0.5406 -0.8413 0.0000 0.7557 -0.6549 0.0000 0.9096 -0.4154 0.0000 0.9898 -0.1423 0.0000 0.9898 0.1423 0.0000 0.9096 0.4154 0.0000 0.7557 0.6549 0.0000 0.5406 0.8413 0.0000 0.2817 0.9595 -0.0729 0.2721 -0.9595 -0.1399 0.5222 -0.8413 -0.1956 0.7300 -0.6549 -0.2354 0.8786 -0.4154 -0.2562 0.9561 -0.1423 -0.2562 0.9561 0.1423 -0.2354 0.8786 0.4154 -0.1956 0.7300 0.6549 -0.1399 0.5222 0.8413 -0.0729 0.2721 0.9595 -0.1409 0.2440 -0.9595 -0.2703 0.4682 -0.8413 -0.3779 0.6545 -0.6549 -0.4548 0.7878 -0.4154 -0.4949 0.8572 -0.1423 -0.4949 0.8572 0.1423 -0.4548 0.7878 0.4154 -0.3779 0.6545 0.6549 -0.2703 0.4682 0.8413 -0.1409 0.2440 0.9595 -0.1992 0.1992 -0.9595 -0.3823 0.3823 -0.8413 -0.5344 0.5344 -0.6549 -0.6432 0.6432 -0.4154 -0.6999 0.6999 -0.1423 -0.6999 0.6999 0.1423 -0.6432 0.6432 0.4154 -0.5344 0.5344 0.6549 -0.3823 0.3823 0.8413 -0.1992 0.1992 0.9595 -0.2440 0.1409 -0.9595 -0.4682 0.2703 -0.8413 -0.6545 0.3779 -0.6549 -0.7878 0.4548 -0.4154 -0.8572 0.4949 -0.1423 -0.8572 0.4949 0.1423 -0.7878 0.4548 0.4154 -0.6545 0.3779 0.6549 -0.4682 0.2703 0.8413 -0.2440 0.1409 0.9595 -0.2721 0.0729 -0.9595 -0.5222 0.1399 -0.8413 -0.7300 0.1956 -0.6549 -0.8786 0.2354 -0.4154 -0.9561 0.2562 -0.1423 -0.9561 0.2562 0.1423 -0.8786 0.2354 0.4154 -0.7300 0.1956 0.6549 -0.5222 0.1399 0.8413 -0.2721 0.0729 0.9595 -0.2817 0.0000 -0.9595 -0.5406 0.0000 -0.8413 -0.7557 0.0000 -0.6549 -0.9096 0.0000 -0.4154 -0.9898 0.0000 -0.1423 -0.9898 0.0000 0.1423 -0.9096 0.0000 0.4154 -0.7557 0.0000 0.6549 -0.5406 0.0000 0.8413 -0.2817 0.0000 0.9595 -0.2721 -0.0729 -0.9595 -0.5222 -0.1399 -0.8413 -0.7300 -0.1956 -0.6549 -0.8786 -0.2354 -0.4154 -0.9561 -0.2562 -0.1423 -0.9561 -0.2562 0.1423 -0.8786 -0.2354 0.4154 -0.7300 -0.1956 0.6549 -0.5222 -0.1399 0.8413 -0.2721 -0.0729 0.9595 -0.2440 -0.1409 -0.9595 -0.4682 -0.2703 -0.8413 -0.6545 -0.3779 -0.6549 -0.7878 -0.4548 -0.4154 -0.8572 -0.4949 -0.1423 -0.8572 -0.4949 0.1423 -0.7878 -0.4548 0.4154 -0.6545 -0.3779 0.6549 -0.4682 -0.2703 0.8413 -0.2440 -0.1409 0.9595 -0.1992 -0.1992 -0.9595 -0.3823 -0.3823 -0.8413 -0.5344 -0.5344 -0.6549 -0.6432 -0.6432 -0.4154 -0.6999 -0.6999 -0.1423 -0.6999 -0.6999 0.1423 -0.6432 -0.6432 0.4154 -0.5344 -0.5344 0.6549 -0.3823 -0.3823 0.8413 -0.1992 -0.1992 0.9595 -0.1409 -0.2440 -0.9595 -0.2703 -0.4682 -0.8413 -0.3779 -0.6545 -0.6549 -0.4548 -0.7878 -0.4154 -0.4949 -0.8572 -0.1423 -0.4949 -0.8572 0.1423 -0.4548 -0.7878 0.4154 -0.3779 -0.6545 0.6549 -0.2703 -0.4682 0.8413 -0.1409 -0.2440 0.9595 -0.0729 -0.2721 -0.9595 -0.1399 -0.5222 -0.8413 -0.1956 -0.7300 -0.6549 -0.2354 -0.8786 -0.4154 -0.2562 -0.9561 -0.1423 -0.2562 -0.9561 0.1423 -0.2354 -0.8786 0.4154 -0.1956 -0.7300 0.6549 -0.1399 -0.5222 0.8413 -0.0729 -0.2721 0.9595 -0.0000 -0.2817 -0.9595 -0.0000 -0.5406 -0.8413 -0.0000 -0.7557 -0.6549 -0.0000 -0.9096 -0.4154 -0.0000 -0.9898 -0.1423 -0.0000 -0.9898 0.1423 -0.0000 -0.9096 0.4154 -0.0000 -0.7557 0.6549 -0.0000 -0.5406 0.8413 -0.0000 -0.2817 0.9595 0.0729 -0.2721 -0.9595 0.1399 -0.5222 -0.8413 0.1956 -0.7300 -0.6549 0.2354 -0.8786 -0.4154 0.2562 -0.9561 -0.1423 0.2562 -0.9561 0.1423 0.2354 -0.8786 0.4154 0.1956 -0.7300 0.6549 0.1399 -0.5222 0.8413 0.0729 -0.2721 0.9595 0.1409 -0.2440 -0.9595 0.2703 -0.4682 -0.8413 0.3779 -0.6545 -0.6549 0.4548 -0.7878 -0.4154 0.4949 -0.8572 -0.1423 0.4949 -0.8572 0.1423 0.4548 -0.7878 0.4154 0.3779 -0.6545 0.6549 0.2703 -0.4682 0.8413 0.1409 -0.2440 0.9595 0.1992 -0.1992 -0.9595 0.3823 -0.3823 -0.8413 0.5344 -0.5344 -0.6549 0.6432 -0.6432 -0.4154 0.6999 -0.6999 -0.1423 0.6999 -0.6999 0.1423 0.6432 -0.6432 0.4154 0.5344 -0.5344 0.6549 0.3823 -0.3823 0.8413 0.1992 -0.1992 0.9595 0.2440 -0.1409 -0.9595 0.4682 -0.2703 -0.8413 0.6545 -0.3779 -0.6549 0.7878 -0.4548 -0.4154 0.8572 -0.4949 -0.1423 0.8572 -0.4949 0.1423 0.7878 -0.4548 0.4154 0.6545 -0.3779 0.6549 0.4682 -0.2703 0.8413 0.2440 -0.1409 0.9595 0.2721 -0.0729 -0.9595 0.5222 -0.1399 -0.8413 0.7300 -0.1956 -0.6549 0.8786 -0.2354 -0.4154 0.9561 -0.2562 -0.1423 0.9561 -0.2562 0.1423 0.8786 -0.2354 0.4154 0.7300 -0.1956 0.6549 0.5222 -0.1399 0.8413 0.2721 -0.0729 0.9595"/>
      </IndexedFaceSet>
    </Shape>
  </Scene>
</X3D>
