<?xml version="1.0" encoding="UTF-8"?>
<X3D profile="Interchange" version="3.3">
  <Scene>
    <Shape>
      <Appearance><Material diffuseColor="0.2 0.4 0.8"/></Appearance>
      <IndexedFaceSet coordIndex="1 0 16 -1 1 16 2 -1 2 16 17 -1 2 17 3 -1 3 17 18 -1 3 18 4 -1 4 18 19 -1 4 19 5 -1 5 19 20 -1 5 20 6 -1 6 20 21 -1 6 21 7 -1 7 21 22 -1 7 22 8 -1 8 22 23 -1 8 23 9 -1 9 23 24 -1 9 24 10 -1 10 24 25 -1 10 25 11 -1 11 25 26 -1 11 26 12 -1 12 26 27 -1 12 27 13 -1 13 27 28 -1 13 28 14 -1 14 28 29 -1 14 29 15 -1 16 0 30 -1 16 30 17 -1 17 30 31 -1 17 31 18 -1 18 31 32 -1 18 32 19 -1 19 32 33 -1 19 33 20 -1 20 33 34 -1 20 34 21 -1 21 34 35 -1 21 35 22 -1 22 35 36 -1 22 36 23 -1 23 36 37 -1 23 37 24 -1 24 37 38 -1 24 38 25 -1 25 38 39 -1 25 39 26 -1 26 39 40 -1 26 40 27 -1 27 40 41 -1 27 41 28 -1 28 41 42 -1 28 42 29 -1 29 42 43 -1 29 43 15 -1 30 0 44 -1 30 44 31 -1 31 44 45 -1 31 45 32 -1 32 45 46 -1 32 46 33 -1 33 46 47 -1 33 47 34 -1 34 47 48 -1 34 48 35 -1 35 48 49 -1 35 49 36 -1 36 49 50 -1 36 50 37 -1 37 50 51 -1 37 51 38 -1 38 51 52 -1 38 52 39 -1 39 52 53 -1 39 53 40 -1 40 53 54 -1 40 54 41 -1 41 54 55 -1 41 55 42 -1 42 55 56 -1 42 56 43 -1 43 56 57 -1 43 57 15 -1 44 0 58 -1 44 58 45 -1 45 58 59 -1 45 59 46 -1 46 59 60 -1 46 60 47 -1 47 60 61 -1 47 61 48 -1 48 61 62 -1 48 62 49 -1 49 62 63 -1 49 63 50 -1 50 63 64 -1 50 64 51 -1 51 64 65 -1 51 65 52 -1 52 65 66 -1 52 66 53 -1 53 66 67 -1 53 67 54 -1 54 67 68 -1 54 68 55 -1 55 68 69 -1 55 69 56 -1 56 69 70 -1 56 70 57 -1 57 70 71 -1 57 71 15 -1 58 0 72 -1 58 72 59 -1 59 72 73 -1 59 73 60 -1 60 73 74 -1 60 74 61 -1 61 74 75 -1 61 75 62 -1 62 75 76 -1 62 76 63 -1 63 76 77 -1 63 77 64 -1 64 77 78 -1 64 78 65 -1 65 78 79 -1 65 79 66 -1 66 79 80 -1 66 80 67 -1 67 80 81 -1 67 81 68 -1 68 81 82 -1 68 82 69 -1 69 82 83 -1 69 83 70 -1 70 83 84 -1 70 84 71 -1 71 84 85 -1 71 85 15 -1 72 0 86 -1 72 86 73 -1 73 86 87 -1 73 87 74 -1 74 87 88 -1 74 88 75 -1 75 88 89 -1 75 89 76 -1 76 89 90 -1 76 90 77 -1 77 90 91 -1 77 91 78 -1 78 91 92 -1 78 92 79 -1 79 92 93 -1 79 93 80 -1 80 93 94 -1 80 94 81 -1 81 94 95 -1 81 95 82 -1 82 95 96 -1 82 96 83 -1 83 96 97 -1 83 97 84 -1 84 97 98 -1 84 98 85 -1 85 98 99 -1 85 99 15 -1 86 0 100 -1 86 100 87 -1 87 100 101 -1 87 101 88 -1 88 101 102 -1 88 102 89 -1 89 102 103 -1 89 103 90 -1 90 103 104 -1 90 104 91 -1 91 104 105 -1 91 105 92 -1 92 105 106 -1 92 106 93 -1 93 106 107 -1 93 107 94 -1 94 107 108 -1 94 108 95 -1 95 108 109 -1 95 109 96 -1 96 109 110 -1 96 110 97 -1 97 110 111 -1 97 111 98 -1 98 111 112 -1 98 112 99 -1 99 112 113 -1 99 113 15 -1 100 0 114 -1 100 114 101 -1 101 114 115 -1 101 115 102 -1 102 115 116 -1 102 116 103 -1 103 116 117 -1 103 117 104 -1 104 117 118 -1 104 118 105 -1 105 118 119 -1 105 119 106 -1 106 119 120 -1 106 120 107 -1 107 120 121 -1 107 121 108 -1 108 121 122 -1 108 122 109 -1 109 122 123 -1 109 123 110 -1 110 123 124 -1 110 124 111 -1 111 124 125 -1 111 125 112 -1 112 125 126 -1 112 126 113 -1 113 126 127 -1 113 127 15 -1 114 0 128 -1 114 128 115 -1 115 128 129 -1 115 129 116 -1 116 129 130 -1 116 130 117 -1 117 130 131 -1 117 131 118 -1 118 131 132 -1 118 132 119 -1 119 132 133 -1 119 133 120 -1 120 133 134 -1 120 134 121 -1 121 134 135 -1 121 135 122 -1 122 135 136 -1 122 136 123 -1 123 136 137 -1 123 137 124 -1 124 137 138 -1 124 138 125 -1 125 138 139 -1 125 139 126 -1 126 139 140 -1 126 140 127 -1 127 140 141 -1 127 141 15 -1 128 0 142 -1 128 142 129 -1 129 142 143 -1 129 143 130 -1 130 143 144 -1 130 144 131 -1 131 144 145 -1 131 145 132 -1 132 145 146 -1 132 146 133 -1 133 146 147 -1 133 147 134 -1 134 147 148 -1 134 148 135 -1 135 148 149 -1 135 149 136 -1 136 149 150 -1 136 150 137 -1 137 150 151 -1 137 151 138 -1 138 151 152 -1 138 152 139 -1 139 152 153 -1 139 153 140 -1 140 153 154 -1 140 154 141 -1 141 154 155 -1 141 155 15 -1 142 0 156 -1 142 156 143 -1 143 156 157 -1 143 157 144 -1 144 157 158 -1 144 158 145 -1 145 158 159 -1 145 159 146 -1 146 159 160 -1 146 160 147 -1 147 160 161 -1 147 161 148 -1 148 161 162 -1 148 162 149 -1 149 162 163 -1 149 163 150 -1 150 163 164 -1 150 164 151 -1 151 164 165 -1 151 165 152 -1 152 165 166 -1 152 166 153 -1 153 166 167 -1 153 167 154 -1 154 167 168 -1 154 168 155 -1 155 168 169 -1 155 169 15 -1 156 0 170 -1 156 170 157 -1 157 170 171 -1 157 171 158 -1 158 171 172 -1 158 172 159 -1 159 172 173 -1 159 173 160 -1 160 173 174 -1 160 174 161 -1 161 174 175 -1 161 175 162 -1 162 175 176 -1 162 176 163 -1 163 176 177 -1 163 177 164 -1 164 177 178 -1 164 178 165 -1 165 178 179 -1 165 179 166 -1 166 179 180 -1 166 180 167 -1 167 180 181 -1 167 181 168 -1 168 181 182 -1 168 182 169 -1 169 182 183 -1 169 183 15 -1 170 0 184 -1 170 184 171 -1 171 184 185 -1 171 185 172 -1 172 185 186 -1 172 186 173 -1 173 186 187 -1 173 187 174 -1 174 187 188 -1 174 188 175 -1 175 188 189 -1 175 189 176 -1 176 189 190 -1 176 190 177 -1 177 190 191 -1 177 191 178 -1 178 191 192 -1 178 192 179 -1 179 192 193 -1 179 193 180 -1 180 193 194 -1 180 194 181 -1 181 194 195 -1 181 195 182 -1 182 195 196 -1 182 196 183 -1 183 196 197 -1 183 197 15 -1 184 0 198 -1 184 198 185 -1 185 198 199 -1 185 199 186 -1 186 199 200 -1 186 200 187 -1 187 200 201 -1 187 201 188 -1 188 201 202 -1 188 202 189 -1 189 202 203 -1 189 203 190 -1 190 203 204 -1 190 204 191 -1 191 204 205 -1 191 205 192 -1 192 205 206 -1 192 206 193 -1 193 206 207 -1 193 207 194 -1 194 207 208 -1 194 208 195 -1 195 208 209 -1 195 209 196 -1 196 209 210 -1 196 210 197 -1 197 210 211 -1 197 211 15 -1 198 0 212 -1 198 212 199 -1 199 212 213 -1 199 213 200 -1 200 213 214 -1 200 214 201 -1 201 214 215 -1 201 215 202 -1 202 215 216 -1 202 216 203 -1 203 216 217 -1 203 217 204 -1 204 217 218 -1 204 218 205 -1 205 218 219 -1 205 219 206 -1 206 219 220 -1 206 220 207 -1 207 220 221 -1 207 221 208 -1 208 221 222 -1 208 222 209 -1 209 222 223 -1 209 223 210 -1 210 223 224 -1 210 224 211 -1 211 224 225 -1 211 225 15 -1 212 0 226 -1 212 226 213 -1 213 226 227 -1 213 227 214 -1 214 227 228 -1 214 228 215 -1 215 228 229 -1 215 229 216 -1 216 229 230 -1 216 230 217 -1 217 230 231 -1 217 231 218 -1 218 231 232 -1 218 232 219 -1 219 232 233 -1 219 233 220 -1 220 233 234 -1 220 234 221 -1 221 234 235 -1 221 235 222 -1 222 235 236 -1 222 236 223 -1 223 236 237 -1 223 237 224 -1 224 237 238 -1 224 238 225 -1 225 238 239 -1 225 239 15 -1 226 0 240 -1 226 240 227 -1 227 240 241 -1 227 241 228 -1 228 241 242 -1 228 242 229 -1 229 242 243 -1 229 243 230 -1 230 243 244 -1 230 244 231 -1 231 244 245 -1 231 245 232 -1 232 245 246 -1 232 246 233 -1 233 246 247 -1 233 247 234 -1 234 247 248 -1 234 248 235 -1 235 248 249 -1 235 249 236 -1 236 249 250 -1 236 250 237 -1 237 250 251 -1 237 251 238 -1 238 251 252 -1 238 252 239 -1 239 252 253 -1 239 253 15 -1 240 0 254 -1 240 254 241 -1 241 254 255 -1 241 255 242 -1 242 255 256 -1 242 256 243 -1 243 256 257 -1 243 257 244 -1 244 257 258 -1 244 258 245 -1 245 258 259 -1 245 259 246 -1 246 259 260 -1 246 260 247 -1 247 260 261 -1 247 261 248 -1 248 261 262 -1 248 262 249 -1 249 262 263 -1 249 263 250 -1 250 263 264 -1 250 264 251 -1 251 264 265 -1 251 265 252 -1 252 265 266 -1 252 266 253 -1 253 266 267 -1 253 267 15 -1 254 0 268 -1 254 268 255 -1 255 268 269 -1 255 269 256 -1 256 269 270 -1 256 270 257 -1 257 270 271 -1 257 271 258 -1 258 271 272 -1 258 272 259 -1 259 272 273 -1 259 273 260 -1 260 273 274 -1 260 274 261 -1 261 274 275 -1 261 275 262 -1 262 275 276 -1 262 276 263 -1 263 276 277 -1 263 277 264 -1 264 277 278 -1 264 278 265 -1 265 278 279 -1 265 279 266 -1 266 279 280 -1 266 280 267 -1 267 280 281 -1 267 281 15 -1 268 0 282 -1 268 282 269 -1 269 282 283 -1 269 283 270 -1 270 283 284 -1 270 284 271 -1 271 284 285 -1 271 285 272 -1 272 285 286 -1 272 286 273 -1 273 286 287 -1 273 287 274 -1 274 287 288 -1 274 288 275 -1 275 288 289 -1 275 289 276 -1 276 289 290 -1 276 290 277 -1 277 290 291 -1 277 291 278 -1 278 291 292 -1 278 292 279 -1 279 292 293 -1 279 293 280 -1 280 293 294 -1 280 294 281 -1 281 294 295 -1 281 295 15 -1 282 0 296 -1 282 296 283 -1 283 296 297 -1 283 297 284 -1 284 297 298 -1 284 298 285 -1 285 298 299 -1 285 299 286 -1 286 299 300 -1 286 300 287 -1 287 300 301 -1 287 301 288 -1 288 301 302 -1 288 302 289 -1 289 302 303 -1 289 303 290 -1 290 303 304 -1 290 304 291 -1 291 304 305 -1 291 305 292 -1 292 305 306 -1 292 306 293 -1 293 306 307 -1 293 307 294 -1 294 307 308 -1 294 308 295 -1 295 308 309 -1 295 309 15 -1 296 0 310 -1 296 310 297 -1 297 310 311 -1 297 311 298 -1 298 311 312 -1 298 312 299 -1 299 312 313 -1 299 313 300 -1 300 313 314 -1 300 314 301 -1 301 314 315 -1 301 315 302 -1 302 315 316 -1 302 316 303 -1 303 316 317 -1 303 317 304 -1 304 317 318 -1 304 318 305 -1 305 318 319 -1 305 319 306 -1 306 319 320 -1 306 320 307 -1 307 320 321 -1 307 321 308 -1 308 321 322 -1 308 322 309 -1 309 322 323 -1 309 323 15 -1 310 0 324 -1 310 324 311 -1 311 324 325 -1 311 325 312 -1 312 325 326 -1 312 326 313 -1 313 326 327 -1 313 327 314 -1 314 327 328 -1 314 328 315 -1 315 328 329 -1 315 329 316 -1 316 329 330 -1 316 330 317 -1 317 330 331 -1 317 331 318 -1 318 331 332 -1 318 332 319 -1 319 332 333 -1 319 333 320 -1 320 333 334 -1 320 334 321 -1 321 334 335 -1 321 335 322 -1 322 335 336 -1 322 336 323 -1 323 336 337 -1 323 337 15 -1 324 0 338 -1 324 338 325 -1 325 338 339 -1 325 339 326 -1 326 339 340 -1 326 340 327 -1 327 340 341 -1 327 341 328 -1 328 341 342 -1 328 342 329 -1 329 342 343 -1 329 343 330 -1 330 343 344 -1 330 344 331 -1 331 344 345 -1 331 345 332 -1 332 345 346 -1 332 346 333 -1 333 346 347 -1 333 347 334 -1 334 347 348 -1 334 348 335 -1 335 348 349 -1 335 349 336 -1 336 349 350 -1 336 350 337 -1 337 350 351 -1 337 351 15 -1 338 0 352 -1 338 352 339 -1 339 352 353 -1 339 353 340 -1 340 353 354 -1 340 354 341 -1 341 354 355 -1 341 355 342 -1 342 355 356 -1 342 356 343 -1 343 356 357 -1 343 357 344 -1 344 357 358 -1 344 358 345 -1 345 358 359 -1 345 359 346 -1 346 359 360 -1 346 360 347 -1 347 360 361 -1 347 361 348 -1 348 361 362 -1 348 362 349 -1 349 362 363 -1 349 363 350 -1 350 363 364 -1 350 364 351 -1 351 364 365 -1 351 365 15 -1 352 0 366 -1 352 366 353 -1 353 366 367 -1 353 367 354 -1 354 367 368 -1 354 368 355 -1 355 368 369 -1 355 369 356 -1 356 369 370 -1 356 370 357 -1 357 370 371 -1 357 371 358 -1 358 371 372 -1 358 372 359 -1 359 372 373 -1 359 373 360 -1 360 373 374 -1 360 374 361 -1 361 374 375 -1 361 375 362 -1 362 375 376 -1 362 376 363 -1 363 376 377 -1 363 377 364 -1 364 377 378 -1 364 378 365 -1 365 378 379 -1 365 379 15 -1 366 0 380 -1 366 380 367 -1 367 380 381 -1 367 381 368 -1 368 381 382 -1 368 382 369 -1 369 382 383 -1 369 383 370 -1 370 383 384 -1 370 384 371 -1 371 384 385 -1 371 385 372 -1 372 385 386 -1 372 386 373 -1 373 386 387 -1 373 387 374 -1 374 387 388 -1 374 388 375 -1 375 388 389 -1 375 389 376 -1 376 389 390 -1 376 390 377 -1 377 390 391 -1 377 391 378 -1 378 391 392 -1 378 392 379 -1 379 392 393 -1 379 393 15 -1 380 0 394 -1 380 394 381 -1 381 394 395 -1 381 395 382 -1 382 395 396 -1 382 396 383 -1 383 396 397 -1 383 397 384 -1 384 397 398 -1 384 398 385 -1 385 398 399 -1 385 399 386 -1 386 399 400 -1 386 400 387 -1 387 400 401 -1 387 401 388 -1 388 401 402 -1 388 402 389 -1 389 402 403 -1 389 403 390 -1 390 403 404 -1 390 404 391 -1 391 404 405 -1 391 405 392 -1 392 405 406 -1 392 406 393 -1 393 406 407 -1 393 407 15 -1 394 0 408 -1 394 408 395 -1 395 408 409 -1 395 409 396 -1 396 409 410 -1 396 410 397 -1 397 410 411 -1 397 411 398 -1 398 411 412 -1 398 412 399 -1 399 412 413 -1 399 413 400 -1 400 413 414 -1 400 414 401 -1 401 414 415 -1 401 415 402 -1 402 415 416 -1 402 416 403 -1 403 416 417 -1 403 417 404 -1 404 417 418 -1 404 418 405 -1 405 418 419 -1 405 419 406 -1 406 419 420 -1 406 420 407 -1 407 420 421 -1 407 421 15 -1 408 0 422 -1 408 422 409 -1 409 422 423 -1 409 423 410 -1 410 423 424 -1 410 424 411 -1 411 424 425 -1 411 425 412 -1 412 425 426 -1 412 426 413 -1 413 426 427 -1 413 427 414 -1 414 427 428 -1 414 428 415 -1 415 428 429 -1 415 429 416 -1 416 429 430 -1 416 430 417 -1 417 430 431 -1 417 431 418 -1 418 431 432 -1 418 432 419 -1 419 432 433 -1 419 433 420 -1 420 433 434 -1 420 434 421 -1 421 434 435 -1 421 435 15 -1 422 0 436 -1 422 436 423 -1 423 436 437 -1 423 437 424 -1 424 437 438 -1 424 438 425 -1 425 438 439 -1 425 439 426 -1 426 439 440 -1 426 440 427 -1 427 440 441 -1 427 441 428 -1 428 441 442 -1 428 442 429 -1 429 442 443 -1 429 443 430 -1 430 443 444 -1 430 444 431 -1 431 444 445 -1 431 445 432 -1 432 445 446 -1 432 446 433 -1 433 446 447 -1 433 447 434 -1 434 447 448 -1 434 448 435 -1 435 448 449 -1 435 449 15 -1 436 0 1 -1 436 1 437 -1 437 1 2 -1 437 2 438 -1 438 2 3 -1 438 3 439 -1 439 3 4 -1 439 4 440 -1 440 4 5 -1 440 5 441 -1 441 5 6 -1 441 6 442 -1 442 6 7 -1 442 7 443 -1 443 7 8 -1 443 8 444 -1 444 8 9 -1 444 9 445 -1 445 9 10 -1 445 10 446 -1 446 10 11 -1 446 11 447 -1 447 11 12 -1 447 12 448 -1 448 12 13 -1 448 13 449 -1 449 13 14 -1 449 14 15 -1">
        <Coordinate point="0.0000 0.0000 -1.0000 0.2079 0.0000 -0.9781 0.4067 0.0000 -0.9135 0.5878 0.0000 -0.8090 0.7431 0.0000 -0.6691 0.8660 0.0000 -0.5000 0.9511 0.0000 -0.3090 0.9945 0.0000 -0.1045 0.9945 0.0000 0.1045 0.9511 0.0000 0.3090 0.8660 0.0000 0.5000 0.7431 0.0000 0.6691 0.5878 0.0000 0.8090 0.4067 0.0000 0.9135 0.2079 0.0000 0.9781 0.0000 0.0000 1.0000 0.2039 0.0406 -0.9781 0.3989 0.0794 -0.9135 0.5765 0.1147 -0.8090 0.7289 0.1450 -0.6691 0.8494 0.1690 -0.5000 0.9328 0.1855 -0.3090 0.9754 0.1940 -0.1045 0.9754 0.1940 0.1045 0.9328 0.1855 0.3090 0.8494 0.1690 0.5000 0.7289 0.1450 0.6691 0.5765 0.1147 0.8090 0.3989 0.0794 0.9135 0.2039 0.0406 0.9781 0.1921 0.0796 -0.9781 0.3758 0.1557 -0.9135 0.5430 0.2249 -0.8090 0.6866 0.2844 -0.6691 0.8001 0.3314 -0.5000 0.8787 0.3640 -0.3090 0.9188 0.3806 -0.1045 0.9188 0.3806 0.1045 0.8787 0.3640 0.3090 0.8001 0.3314 0.5000 0.6866 0.2844 0.6691 0.5430 0.2249 0.8090 0.3758 0.1557 0.9135 0.1921 0.0796 0.9781 0.1729 0.1155 -0.9781 0.3382 0.2260 -0.9135 0.4887 0.3266 -0.8090 0.6179 0.4129 -0.6691 0.7201 0.4811 -0.5000 0.7908 0.5284 -0.3090 0.8269 0.5525 -0.1045 0.8269 0.5525 0.1045 0.7908 0.5284 0.3090 0.7201 0.4811 0.5000 0.6179 0.4129 0.6691 0.4887 0.3266 0.8090 0.3382 0.2260 0.9135 0.1729 0.1155 0.9781 0.1470 0.1470 -0.9781 0.2876 0.2876 -0.9135 0.4156 0.4156 -0.8090 0.5255 0.5255 -0.6691 0.6124 0.6124 -0.5000 0.6725 0.6725 -0.3090 0.7032 0.7032 -0.1045 0.7032 0.7032 0.1045 0.6725 0.6725 0.3090 0.6124 0.6124 0.5000 0.5255 0.5255 0.6691 0.4156 0.4156 0.8090 0.2876 0.2876 0.9135 0.1470 0.1470 0.9781 0.1155 0.1729 -0.9781 0.2260 0.3382 -0.9135 0.3266 0.4887 -0.8090 0.4129 0.6179 -0.6691 0.4811 0.7201 -0.5000 0.5284 0.7908 -0.3090 0.5525 0.8269 -0.1045 0.5525 0.8269 0.1045 0.5284 0.7908 0.3090 0.4811 0.7201 0.5000 0.4129 0.6179 0.6691 0.3266 0.4887 0.8090 0.2260 0.3382 0.9135 0.1155 0.1729 0.9781 0.0796 0.1921 -0.9781 0.1557 0.3758 -0.9135 0.2249 0.5430 -0.8090 0.2844 0.6866 -0.6691 0.3314 0.8001 -0.5000 0.3640 0.8787 -0.3090 0.3806 0.9188 -0.1045 0.3806 0.9188 0.1045 0.3640 0.8787 0.3090 0.3314 0.8001 0.5000 0.2844 0.6866 0.6691 0.2249 0.5430 0.8090 0.1557 0.3758 0.9135 0.0796 0.1921 0.9781 0.0406 0.2039 -0.9781 0.0794 0.3989 -0.9135 0.1147 0.5765 -0.8090 0.1450 0.7289 -0.6691 0.1690 0.8494 -0.5000 0.1855 0.9328 -0.3090 0.1940 0.9754 -0.1045 0.1940 0.9754 0.1045 0.1855 0.9328 0.3090 0.1690 0.8494 0.5000 0.1450 0.7289 0.6691 0.1147 0.5765 0.8090 0.0794 0.3989 0.9135 0.0406 0.2039 0.9781 0.0000 0.2079 -0.9781 0.0000 0.4067 -0.9135 0.0000 0.5878 -0.8090 0.0000 0.7431 -0.6691 0.0000 0.8660 -0.5000 0.0000 0.9511 -0.3090 0.0000 0.9945 -0.1045 0.0000 0.9945 0.1045 0.0000 0.9511 0.3090 0.0000 0.8660 0.5000 0.0000 0.7431 0.6691 0.0000 0.5878 0.8090 0.0000 0.4067 0.9135 0.0000 0.2079 0.9781 -0.0406 0.2039 -0.9781 -0.0794 0.3989 -0.9135 -0.1147 0.5765 -0.8090 -0.1450 0.7289 -0.6691 -0.1690 0.8494 -0.5000 -0.1855 0.9328 -0.3090 -0.1940 0.9754 -0.1045 -0.1940 0.9754 0.1045 -0.1855 0.9328 0.3090 -0.1690 0.8494 0.5000 -0.1450 0.7289 0.6691 -0.1147 0.5765 0.8090 -0.0794 0.3989 0.9135 -0.0406 0.2039 0.9781 -0.0796 0.1921 -0.9781 -0.1557 0.3758 -0.9135 -0.2249 0.5430 -0.8090 -0.2844 0.6866 -0.6691 -0.3314 0.8001 -0.5000 -0.3640 0.8787 -0.3090 -0.3806 0.9188 -0.1045 -0.3806 0.9188 0.1045 -0.3640 0.8787 0.3090 -0.3314 0.8001 0.5000 -0.2844 0.6866 0.6691 -0.2249 0.5430 0.8090 -0.1557 0.3758 0.9135 -0.0796 0.1921 0.9781 -0.1155 0.1729 -0.9781 -0.2260 0.3382 -0.9135 -0.3266 0.4887 -0.8090 -0.4129 0.6179 -0.6691 -0.4811 0.7201 -0.5000 -0.5284 0.7908 -0.3090 -0.5525 0.8269 -0.1045 -0.5525 0.8269 0.1045 -0.5284 0.7908 0.3090 -0.4811 0.7201 0.5000 -0.4129 0.6179 0.6691 -0.3266 0.4887 0.8090 -0.2260 0.3382 0.9135 -0.1155 0.1729 0.9781 -0.1470 0.1470 -0.9781 -0.2876 0.2876 -0.9135 -0.4156 0.4156 -0.8090 -0.5255 0.5255 -0.6691 -0.6124 0.6124 -0.5000 -0.6725 0.6725 -0.3090 -0.7032 0.7032 -0.1045 -0.7032 0.7032 0.1045 -0.6725 0.6725 0.3090 -0.6124 0.6124 0.5000 -0.5255 0.5255 0.6691 -0.4156 0.4156 0.8090 -0.2876 0.2876 0.9135 -0.1470 0.1470 0.9781 -0.1729 0.1155 -0.9781 -0.3382 0.2260 -0.9135 -0.4887 0.3266 -0.8090 -0.6179 0.4129 -0.6691 -0.7201 0.4811 -0.5000 -0.7908 0.5284 -0.3090 -0.8269 0.5525 -0.1045 -0.8269 0.5525 0.1045 -0.7908 0.5284 0.3090 -0.7201 0.4811 0.5000 -0.6179 0.4129 0.6691 -0.4887 0.3266 0.8090 -0.3382 0.2260 0.9135 -0.1729 0.1155 0.9781 -0.1921 0.0796 -0.9781 -0.3758 0.1557 -0.9135 -0.5430 0.2249 -0.8090 -0.6866 0.2844 -0.6691 -0.8001 0.3314 -0.5000 -0.8787 0.3640 -0.3090 -0.9188 0.3806 -0.1045 -0.9188 0.3806 0.1045 -0.8787 0.3640 0.3090 -0.8001 0.3314 0.5000 -0.6866 0.2844 0.6691 -0.5430 0.2249 0.8090 -0.3758 0.1557 0.9135 -0.1921 0.0796 0.9781 -0.2039 0.0406 -0.9781 -0.3989 0.0794 -0.9135 -0.5765 0.1147 -0.8090 -0.7289 0.1450 -0.6691 -0.8494 0.1690 -0.5000 -0.9328 0.1855 -0.3090 -0.9754 0.1940 -0.1045 -0.9754 0.1940 0.1045 -0.9328 0.1855 0.3090 -0.8494 0.1690 0.5000 -0.7289 0.1450 0.6691 -0.5765 0.1147 0.8090 -0.3989 0.0794 0.9135 -0.2039 0.0406 0.9781 -0.2079 0.0000 -0.9781 -0.4067 0.0000 -0.9135 -0.5878 0.0000 -0.8090 -0.7431 0.0000 -0.6691 -0.8660 0.0000 -0.5000 -0.9511 0.0000 -0.3090 -0.9945 0.0000 -0.1045 -0.9945 0.0000 0.1045 -0.9511 0.0000 0.3090 -0.8660 0.0000 0.5000 -0.7431 0.0000 0.6691 -0.5878 0.0000 0.8090 -0.4067 0.0000 0.9135 -0.2079 0.0000 0.9781 -0.2039 -0.0406 -0.9781 -0.3989 -0.0794 -0.9135 -0.5765 -0.1147 -0.8090 -0.7289 -0.1450 -0.6691 -0.8494 -0.1690 -0.5000 -0.9328 -0.1855 -0.3090 -0.9754 -0.1940 -0.1045 -0.9754 -0.1940 0.1045 -0.9328 -0.1855 0.3090 -0.8494 -0.1690 0.5000 -0.7289 -0.1450 0.6691 -0.5765 -0.1147 0.8090 -0.3989 -0.0794 0.9135 -0.2039 -0.0406 0.9781 -0.1921 -0.0796 -0.9781 -0.3758 -0.1557 -0.9135 -0.5430 -0.2249 -0.8090 -0.6866 -0.2844 -0.6691 -0.8001 -0.3314 -0.5000 -0.8787 -0.3640 -0.3090 -0.9188 -0.3806 -0.1045 -0.9188 -0.3806 0.1045 -0.8787 -0.3640 0.3090 -0.8001 -0.3314 0.5000 -0.6866 -0.2844 0.6691 -0.5430 -0.2249 0.8090 -0.3758 -0.1557 0.9135 -0.1921 -0.0796 0.9781 -0.1729 -0.1155 -0.9781 -0.3382 -0.2260 -0.9135 -0.4887 -0.3266 -0.8090 -0.6179 -0.4129 -0.6691 -0.7201 -0.4811 -0.5000 -0.7908 -0.5284 -0.3090 -0.8269 -0.5525 -0.1045 -0.8269 -0.5525 0.1045 -0.7908 -0.5284 0.3090 -0.7201 -0.4811 0.5000 -0.6179 -0.4129 0.6691 -0.4887 -0.3266 0.8090 -0.3382 -0.2260 0.9135 -0.1729 -0.1155 0.9781 -0.1470 -0.1470 -0.9781 -0.2876 -0.2876 -0.9135 -0.4156 -0.4156 -0.8090 -0.5255 -0.5255 -0.6691 -0.6124 -0.6124 -0.5000 -0.6725 -0.6725 -0.3090 -0.7032 -0.7032 -0.1045 -0.7032 -0.7032 0.1045 -0.6725 -0.6725 0.3090 -0.6124 -0.6124 0.5000 -0.5255 -0.5255 0.6691 -0.4156 -0.4156 0.8090 -0.2876 -0.2876 0.9135 -0.1470 -0.1470 0.9781 -0.1155 -0.1729 -0.9781 -0.2260 -0.3382 -0.9135 -0.3266 -0.4887 -0.8090 -0.4129 -0.6179 -0.6691 -0.4811 -0.7201 -0.5000 -0.5284 -0.7908 -0.3090 -0.5525 -0.8269 -0.1045 -0.5525 -0.8269 0.1045 -0.5284 -0.7908 0.3090 -0.4811 -0.7201 0.5000 -0.4129 -0.6179 0.6691 -0.3266 -0.4887 0.8090 -0.2260 -0.3382 0.9135 -0.1155 -0.1729 0.9781 -0.0796 -0.1921 -0.9781 -0.1557 -0.3758 -0.9135 -0.2249 -0.5430 -0.8090 -0.2844 -0.6866 -0.6691 -0.3314 -0.8001 -0.5000 -0.3640 -0.8787 -0.3090 -0.3806 -0.9188 -0.1045 -0.3806 -0.9188 0.1045 -0.3640 -0.8787 0.3090 -0.3314 -0.8001 0.5000 -0.2844 -0.6866 0.6691 -0.2249 -0.5430 0.8090 -0.1557 -0.3758 0.9135 -0.0796 -0.1921 0.9781 -0.0406 -0.2039 -0.9781 -0.0794 -0.3989 -0.9135 -0.1147 -0.5765 -0.8090 -0.1450 -0.7289 -0.6691 -0.1690 -0.8494 -0.5000 -0.1855 -0.9328 -0.3090 -0.1940 -0.9754 -0.1045 -0.1940 -0.9754 0.1045 -0.1855 -0.9328 0.3090 -0.1690 -0.8494 0.5000 -0.1450 -0.7289 0.6691 -0.1147 -0.5765 0.8090 -0.0794 -0.3989 0.9135 -0.0406 -0.2039 0.9781 -0.0000 -0.2079 -0.9781 -0.0000 -0.4067 -0.9135 -0.0000 -0.5878 -0.8090 -0.0000 -0.7431 -0.6691 -0.0000 -0.8660 -0.5000 -0.0000 -0.9511 -0.3090 -0.0000 -0.9945 -0.1045 -0.0000 -0.9945 0.1045 -0.0000 -0.9511 0.3090 -0.0000 -0.8660 0.5000 -0.0000 -0.7431 0.6691 -0.0000 -0.5878 0.8090 -0.0000 -0.4067 0.9135 -0.0000 -0.2079 0.9781 0.0406 -0.2039 -0.9781 0.0794 -0.3989 -0.9135 0.1147 -0.5765 -0.8090 0.1450 -0.7289 -0.6691 0.1690 -0.8494 -0.5000 0.1855 -0.9328 -0.3090 0.1940 -0.9754 -0.1045 0.1940 -0.9754 0.1045 0.1855 -0.9328 0.3090 0.1690 -0.8494 0.5000 0.1450 -0.7289 0.6691 0.1147 -0.5765 0.8090 0.0794 -0.3989 0.9135 0.0406 -0.2039 0.9781 0.0796 -0.1921 -0.9781 0.1557 -0.3758 -0.9135 0.2249 -0.5430 -0.8090 0.2844 -0.6866 -0.6691 0.3314 -0.8001 -0.5000 0.3640 -0.8787 -0.3090 0.3806 -0.9188 -0.1045 0.3806 -0.9188 0.1045 0.3640 -0.8787 0.3090 0.3314 -0.8001 0.5000 0.2844 -0.6866 0.6691 0.2249 -0.5430 0.8090 0.1557 -0.3758 0.9135 0.0796 -0.1921 0.9781 0.1155 -0.1729 -0.9781 0.2260 -0.3382 -0.9135 0.3266 -0.4887 -0.8090 0.4129 -0.6179 -0.6691 0.4811 -0.7201 -0.5000 0.5284 -0.7908 -0.3090 0.5525 -0.8269 -0.1045 0.5525 -0.8269 0.1045 0.5284 -0.7908 0.3090 0.4811 -0.7201 0.5000 0.4129 -0.6179 0.6691 0.3266 -0.4887 0.8090 0.2260 -0.3382 0.9135 0.1155 -0.1729 0.9781 0.1470 -0.1470 -0.9781 0.2876 -0.2876 -0.9135 0.4156 -0.4156 -0.8090 0.5255 -0.5255 -0.6691 0.6124 -0.6124 -0.5000 0.6725 -0.6725 -0.3090 0.7032 -0.7032 -0.1045 0.7032 -0.7032 0.1045 0.6725 -0.6725 0.3090 0.6124 -0.6124 0.5000 0.5255 -0.5255 0.6691 0.4156 -0.4156 0.8090 0.2876 -0.2876 0.9135 0.1470 -0.1470 0.9781 0.1729 -0.1155 -0.9781 0.3382 -0.2260 -0.9135 0.4887 -0.3266 -0.8090 0.6179 -0.4129 -0.6691 0.7201 -0.4811 -0.5000 0.7908 -0.5284 -0.3090 0.8269 -0.5525 -0.1045 0.8269 -0.5525 0.1045 0.7908 -0.5284 0.3090 0.7201 -0.4811 0.5000 0.6179 -0.4129 0.6691 0.4887 -0.3266 0.8090 0.3382 -0.2260 0.9135 0.1729 -0.1155 0.9781 0.1921 -0.0796 -0.9781 0.3758 -0.1557 -0.9135 0.5430 -0.2249 -0.8090 0.6866 -0.2844 -0.6691 0.8001 -0.3314 -0.5000 0.8787 -0.3640 -0.3090 0.9188 -0.3806 -0.1045 0.9188 -0.3806 0.1045 0.8787 -0.3640 0.3090 0.8001 -0.3314 0.5000 0.6866 -0.2844 0.6691 0.5430 -0.2249 0.8090 0.3758 -0.1557 0.9135 0.1921 -0.0796 0.9781 0.2039 -0.0406 -0.9781 0.3989 -0.0794 -0.9135 0.5765 -0.1147 -0.8090 0.7289 -0.1450 -0.6691 0.8494 -0.1690 -0.5000 0.9328 -0.1855 -0.3090 0.9754 -0.1940 -0.1045 0.9754 -0.1940 0.1045 0.9328 -0.1855 0.3090 0.8494 -0.1690 0.5000 0.7289 -0.1450 0.6691 0.5765 -0.1147 0.8090 0.3989 -0.0794 0.9135 0.2039 -0.0406 0.9781"/>
      </IndexedFaceSet>
    </Shape>
  </Scene>
</X3D>
