# https://github.com/mikedh/trimesh
v 0.00000000 0.00000000 -1.00000000
v 0.28173256 0.00000000 -0.95949297
v 0.54064082 0.00000000 -0.84125353
v 0.75574957 0.00000000 -0.65486073
v 0.90963200 0.00000000 -0.41541501
v 0.98982144 0.00000000 -0.14231484
v 0.98982144 0.00000000 0.14231484
v 0.90963200 0.00000000 0.41541501
v 0.75574957 0.00000000 0.65486073
v 0.54064082 0.00000000 0.84125353
v 0.28173256 0.00000000 0.95949297
v 0.00000000 0.00000000 1.00000000
v 0.27213275 0.07291775 -0.95949297
v 0.52221893 0.13992814 -0.84125353
v 0.72999803 0.19560238 -0.65486073
v 0.87863704 0.23543008 -0.41541501
v 0.95609409 0.25618464 -0.14231484
v 0.95609409 0.25618464 0.14231484
v 0.87863704 0.23543008 0.41541501
v 0.72999803 0.19560238 0.65486073
v 0.52221893 0.13992814 0.84125353
v 0.27213275 0.07291775 0.95949297
v 0.24398755 0.14086628 -0.95949297
v 0.46820868 0.27032041 -0.84125353
v 0.65449833 0.37787479 -0.65486073
v 0.78776442 0.45481600 -0.41541501
v 0.85721051 0.49491072 -0.14231484
v 0.85721051 0.49491072 0.14231484
v 0.78776442 0.45481600 0.41541501
v 0.65449833 0.37787479 0.65486073
v 0.46820868 0.27032041 0.84125353
v 0.24398755 0.14086628 0.95949297
v 0.19921500 0.19921500 -0.95949297
v 0.38229079 0.38229079 -0.84125353
v 0.53439565 0.53439565 -0.65486073
v 0.64320695 0.64320695 -0.41541501
v 0.69990945 0.69990945 -0.14231484
v 0.69990945 0.69990945 0.14231484
v 0.64320695 0.64320695 0.41541501
v 0.53439565 0.53439565 0.65486073
v 0.38229079 0.38229079 0.84125353
v 0.19921500 0.19921500 0.95949297
v 0.14086628 0.24398755 -0.95949297
v 0.27032041 0.46820868 -0.84125353
v 0.37787479 0.65449833 -0.65486073
v 0.45481600 0.78776442 -0.41541501
v 0.49491072 0.85721051 -0.14231484
v 0.49491072 0.85721051 0.14231484
v 0.45481600 0.78776442 0.41541501
v 0.37787479 0.65449833 0.65486073
v 0.27032041 0.46820868 0.84125353
v 0.14086628 0.24398755 0.95949297
v 0.07291775 0.27213275 -0.95949297
v 0.13992814 0.52221893 -0.84125353
v 0.19560238 0.72999803 -0.65486073
v 0.23543008 0.87863704 -0.41541501
v 0.25618464 0.95609409 -0.14231484
v 0.25618464 0.95609409 0.14231484
v 0.23543008 0.87863704 0.41541501
v 0.19560238 0.72999803 0.65486073
v 0.13992814 0.52221893 0.84125353
v 0.07291775 0.27213275 0.95949297
v 0.00000000 0.28173256 -0.95949297
v 0.00000000 0.54064082 -0.84125353
v 0.00000000 0.75574957 -0.65486073
v 0.00000000 0.90963200 -0.41541501
v 0.00000000 0.98982144 -0.14231484
v 0.00000000 0.98982144 0.14231484
v 0.00000000 0.90963200 0.41541501
v 0.00000000 0.75574957 0.65486073
v 0.00000000 0.54064082 0.84125353
v 0.00000000 0.28173256 0.95949297
v -0.07291775 0.27213275 -0.95949297
v -0.13992814 0.52221893 -0.84125353
v -0.19560238 0.72999803 -0.65486073
v -0.23543008 0.87863704 -0.41541501
v -0.25618464 0.95609409 -0.14231484
v -0.25618464 0.95609409 0.14231484
v -0.23543008 0.87863704 0.41541501
v -0.19560238 0.72999803 0.65486073
v -0.13992814 0.52221893 0.84125353
v -0.07291775 0.27213275 0.95949297
v -0.14086628 0.24398755 -0.95949297
v -0.27032041 0.46820868 -0.84125353
v -0.37787479 0.65449833 -0.65486073
v -0.45481600 0.78776442 -0.41541501
v -0.49491072 0.85721051 -0.14231484
v -0.49491072 0.85721051 0.14231484
v -0.45481600 0.78776442 0.41541501
v -0.37787479 0.65449833 0.65486073
v -0.27032041 0.46820868 0.84125353
v -0.14086628 0.24398755 0.95949297
v -0.19921500 0.19921500 -0.95949297
v -0.38229079 0.38229079 -0.84125353
v -0.53439565 0.53439565 -0.65486073
v -0.64320695 0.64320695 -0.41541501
v -0.69990945 0.69990945 -0.14231484
v -0.69990945 0.69990945 0.14231484
v -0.64320695 0.64320695 0.41541501
v -0.53439565 0.53439565 0.65486073
v -0.38229079 0.38229079 0.84125353
v -0.19921500 0.19921500 0.95949297
v -0.24398755 0.14086628 -0.95949297
v -0.46820868 0.27032041 -0.84125353
v -0.65449833 0.37787479 -0.65486073
v -0.78776442 0.45481600 -0.41541501
v -0.85721051 0.49491072 -0.14231484
v -0.85721051 0.49491072 0.14231484
v -0.78776442 0.45481600 0.41541501
v -0.65449833 0.37787479 0.65486073
v -0.46820868 0.27032041 0.84125353
v -0.24398755 0.14086628 0.95949297
v -0.27213275 0.07291775 -0.95949297
v -0.52221893 0.13992814 -0.84125353
v -0.72999803 0.19560238 -0.65486073
v -0.87863704 0.23543008 -0.41541501
v -0.95609409 0.25618464 -0.14231484
v -0.95609409 0.25618464 0.14231484
v -0.87863704 0.23543008 0.41541501
v -0.72999803 0.19560238 0.65486073
v -0.52221893 0.13992814 0.84125353
v -0.27213275 0.07291775 0.95949297
v -0.28173256 0.00000000 -0.95949297
v -0.54064082 0.00000000 -0.84125353
v -0.75574957 0.00000000 -0.65486073
v -0.90963200 0.00000000 -0.41541501
v -0.98982144 0.00000000 -0.14231484
v -0.98982144 0.00000000 0.14231484
v -0.90963200 0.00000000 0.41541501
v -0.75574957 0.00000000 0.65486073
v -0.54064082 0.00000000 0.84125353
v -0.28173256 0.00000000 0.95949297
v -0.27213275 -0.07291775 -0.95949297
v -0.52221893 -0.13992814 -0.84125353
v -0.72999803 -0.19560238 -0.65486073
v -0.87863704 -0.23543008 -0.41541501
v -0.95609409 -0.25618464 -0.14231484
v -0.95609409 -0.25618464 0.14231484
v -0.87863704 -0.23543008 0.41541501
v -0.72999803 -0.19560238 0.65486073
v -0.52221893 -0.13992814 0.84125353
v -0.27213275 -0.07291775 0.95949297
v -0.24398755 -0.14086628 -0.95949297
v -0.46820868 -0.27032041 -0.84125353
v -0.65449833 -0.37787479 -0.65486073
v -0.78776442 -0.45481600 -0.41541501
v -0.85721051 -0.49491072 -0.14231484
v -0.85721051 -0.49491072 0.14231484
v -0.78776442 -0.45481600 0.41541501
v -0.65449833 -0.37787479 0.65486073
v -0.46820868 -0.27032041 0.84125353
v -0.24398755 -0.14086628 0.95949297
v -0.19921500 -0.19921500 -0.95949297
v -0.38229079 -0.38229079 -0.84125353
v -0.53439565 -0.53439565 -0.65486073
v -0.64320695 -0.64320695 -0.41541501
v -0.69990945 -0.69990945 -0.14231484
v -0.69990945 -0.69990945 0.14231484
v -0.64320695 -0.64320695 0.41541501
v -0.53439565 -0.53439565 0.65486073
v -0.38229079 -0.38229079 0.84125353
v -0.19921500 -0.19921500 0.95949297
v -0.14086628 -0.24398755 -0.95949297
v -0.27032041 -0.46820868 -0.84125353
v -0.37787479 -0.65449833 -0.65486073
v -0.45481600 -0.78776442 -0.41541501
v -0.49491072 -0.85721051 -0.14231484
v -0.49491072 -0.85721051 0.14231484
v -0.45481600 -0.78776442 0.41541501
v -0.37787479 -0.65449833 0.65486073
v -0.27032041 -0.46820868 0.84125353
v -0.14086628 -0.24398755 0.95949297
v -0.07291775 -0.27213275 -0.95949297
v -0.13992814 -0.52221893 -0.84125353
v -0.19560238 -0.72999803 -0.65486073
v -0.23543008 -0.87863704 -0.41541501
v -0.25618464 -0.95609409 -0.14231484
v -0.25618464 -0.95609409 0.14231484
v -0.23543008 -0.87863704 0.41541501
v -0.19560238 -0.72999803 0.65486073
v -0.13992814 -0.52221893 0.84125353
v -0.07291775 -0.27213275 0.95949297
v -0.00000000 -0.28173256 -0.95949297
v -0.00000000 -0.54064082 -0.84125353
v -0.00000000 -0.75574957 -0.65486073
v -0.00000000 -0.90963200 -0.41541501
v -0.00000000 -0.98982144 -0.14231484
v -0.00000000 -0.98982144 0.14231484
v -0.00000000 -0.90963200 0.41541501
v -0.00000000 -0.75574957 0.65486073
v -0.00000000 -0.54064082 0.84125353
v -0.00000000 -0.28173256 0.95949297
v 0.07291775 -0.27213275 -0.95949297
v 0.13992814 -0.52221893 -0.84125353
v 0.19560238 -0.72999803 -0.65486073
v 0.23543008 -0.87863704 -0.41541501
v 0.25618464 -0.95609409 -0.14231484
v 0.25618464 -0.95609409 0.14231484
v 0.23543008 -0.87863704 0.41541501
v 0.19560238 -0.72999803 0.65486073
v 0.13992814 -0.52221893 0.84125353
v 0.07291775 -0.27213275 0.95949297
v 0.14086628 -0.24398755 -0.95949297
v 0.27032041 -0.46820868 -0.84125353
v 0.37787479 -0.65449833 -0.65486073
v 0.45481600 -0.78776442 -0.41541501
v 0.49491072 -0.85721051 -0.14231484
v 0.49491072 -0.85721051 0.14231484
v 0.45481600 -0.78776442 0.41541501
v 0.37787479 -0.65449833 0.65486073
v 0.27032041 -0.46820868 0.84125353
v 0.14086628 -0.24398755 0.95949297
v 0.19921500 -0.19921500 -0.95949297
v 0.38229079 -0.38229079 -0.84125353
v 0.53439565 -0.53439565 -0.65486073
v 0.64320695 -0.64320695 -0.41541501
v 0.69990945 -0.69990945 -0.14231484
v 0.69990945 -0.69990945 0.14231484
v 0.64320695 -0.64320695 0.41541501
v 0.53439565 -0.53439565 0.65486073
v 0.38229079 -0.38229079 0.84125353
v 0.19921500 -0.19921500 0.95949297
v 0.24398755 -0.14086628 -0.95949297
v 0.46820868 -0.27032041 -0.84125353
v 0.65449833 -0.37787479 -0.65486073
v 0.78776442 -0.45481600 -0.41541501
v 0.85721051 -0.49491072 -0.14231484
v 0.85721051 -0.49491072 0.14231484
v 0.78776442 -0.45481600 0.41541501
v 0.65449833 -0.37787479 0.65486073
v 0.46820868 -0.27032041 0.84125353
v 0.24398755 -0.14086628 0.95949297
v 0.27213275 -0.07291775 -0.95949297
v 0.52221893 -0.13992814 -0.84125353
v 0.72999803 -0.19560238 -0.65486073
v 0.87863704 -0.23543008 -0.41541501
v 0.95609409 -0.25618464 -0.14231484
v 0.95609409 -0.25618464 0.14231484
v 0.87863704 -0.23543008 0.41541501
v 0.72999803 -0.19560238 0.65486073
v 0.52221893 -0.13992814 0.84125353
v 0.27213275 -0.07291775 0.95949297
f 2 1 13
f 2 13 3
f 3 13 14
f 3 14 4
f 4 14 15
f 4 15 5
f 5 15 16
f 5 16 6
f 6 16 17
f 6 17 7
f 7 17 18
f 7 18 8
f 8 18 19
f 8 19 9
f 9 19 20
f 9 20 10
f 10 20 21
f 10 21 11
f 11 21 22
f 11 22 12
f 13 1 23
f 13 23 14
f 14 23 24
f 14 24 15
f 15 24 25
f 15 25 16
f 16 25 26
f 16 26 17
f 17 26 27
f 17 27 18
f 18 27 28
f 18 28 19
f 19 28 29
f 19 29 20
f 20 29 30
f 20 30 21
f 21 30 31
f 21 31 22
f 22 31 32
f 22 32 12
f 23 1 33
f 23 33 24
f 24 33 34
f 24 34 25
f 25 34 35
f 25 35 26
f 26 35 36
f 26 36 27
f 27 36 37
f 27 37 28
f 28 37 38
f 28 38 29
f 29 38 39
f 29 39 30
f 30 39 40
f 30 40 31
f 31 40 41
f 31 41 32
f 32 41 42
f 32 42 12
f 33 1 43
f 33 43 34
f 34 43 44
f 34 44 35
f 35 44 45
f 35 45 36
f 36 45 46
f 36 46 37
f 37 46 47
f 37 47 38
f 38 47 48
f 38 48 39
f 39 48 49
f 39 49 40
f 40 49 50
f 40 50 41
f 41 50 51
f 41 51 42
f 42 51 52
f 42 52 12
f 43 1 53
f 43 53 44
f 44 53 54
f 44 54 45
f 45 54 55
f 45 55 46
f 46 55 56
f 46 56 47
f 47 56 57
f 47 57 48
f 48 57 58
f 48 58 49
f 49 58 59
f 49 59 50
f 50 59 60
f 50 60 51
f 51 60 61
f 51 61 52
f 52 61 62
f 52 62 12
f 53 1 63
f 53 63 54
f 54 63 64
f 54 64 55
f 55 64 65
f 55 65 56
f 56 65 66
f 56 66 57
f 57 66 67
f 57 67 58
f 58 67 68
f 58 68 59
f 59 68 69
f 59 69 60
f 60 69 70
f 60 70 61
f 61 70 71
f 61 71 62
f 62 71 72
f 62 72 12
f 63 1 73
f 63 73 64
f 64 73 74
f 64 74 65
f 65 74 75
f 65 75 66
f 66 75 76
f 66 76 67
f 67 76 77
f 67 77 68
f 68 77 78
f 68 78 69
f 69 78 79
f 69 79 70
f 70 79 80
f 70 80 71
f 71 80 81
f 71 81 72
f 72 81 82
f 72 82 12
f 73 1 83
f 73 83 74
f 74 83 84
f 74 84 75
f 75 84 85
f 75 85 76
f 76 85 86
f 76 86 77
f 77 86 87
f 77 87 78
f 78 87 88
f 78 88 79
f 79 88 89
f 79 89 80
f 80 89 90
f 80 90 81
f 81 90 91
f 81 91 82
f 82 91 92
f 82 92 12
f 83 1 93
f 83 93 84
f 84 93 94
f 84 94 85
f 85 94 95
f 85 95 86
f 86 95 96
f 86 96 87
f 87 96 97
f 87 97 88
f 88 97 98
f 88 98 89
f 89 98 99
f 89 99 90
f 90 99 100
f 90 100 91
f 91 100 101
f 91 101 92
f 92 101 102
f 92 102 12
f 93 1 103
f 93 103 94
f 94 103 104
f 94 104 95
f 95 104 105
f 95 105 96
f 96 105 106
f 96 106 97
f 97 106 107
f 97 107 98
f 98 107 108
f 98 108 99
f 99 108 109
f 99 109 100
f 100 109 110
f 100 110 101
f 101 110 111
f 101 111 102
f 102 111 112
f 102 112 12
f 103 1 113
f 103 113 104
f 104 113 114
f 104 114 105
f 105 114 115
f 105 115 106
f 106 115 116
f 106 116 107
f 107 116 117
f 107 117 108
f 108 117 118
f 108 118 109
f 109 118 119
f 109 119 110
f 110 119 120
f 110 120 111
f 111 120 121
f 111 121 112
f 112 121 122
f 112 122 12
f 113 1 123
f 113 123 114
f 114 123 124
f 114 124 115
f 115 124 125
f 115 125 116
f 116 125 126
f 116 126 117
f 117 126 127
f 117 127 118
f 118 127 128
f 118 128 119
f 119 128 129
f 119 129 120
f 120 129 130
f 120 130 121
f 121 130 131
f 121 131 122
f 122 131 132
f 122 132 12
f 123 1 133
f 123 133 124
f 124 133 134
f 124 134 125
f 125 134 135
f 125 135 126
f 126 135 136
f 126 136 127
f 127 136 137
f 127 137 128
f 128 137 138
f 128 138 129
f 129 138 139
f 129 139 130
f 130 139 140
f 130 140 131
f 131 140 141
f 131 141 132
f 132 141 142
f 132 142 12
f 133 1 143
f 133 143 134
f 134 143 144
f 134 144 135
f 135 144 145
f 135 145 136
f 136 145 146
f 136 146 137
f 137 146 147
f 137 147 138
f 138 147 148
f 138 148 139
f 139 148 149
f 139 149 140
f 140 149 150
f 140 150 141
f 141 150 151
f 141 151 142
f 142 151 152
f 142 152 12
f 143 1 153
f 143 153 144
f 144 153 154
f 144 154 145
f 145 154 155
f 145 155 146
f 146 155 156
f 146 156 147
f 147 156 157
f 147 157 148
f 148 157 158
f 148 158 149
f 149 158 159
f 149 159 150
f 150 159 160
f 150 160 151
f 151 160 161
f 151 161 152
f 152 161 162
f 152 162 12
f 153 1 163
f 153 163 154
f 154 163 164
f 154 164 155
f 155 164 165
f 155 165 156
f 156 165 166
f 156 166 157
f 157 166 167
f 157 167 158
f 158 167 168
f 158 168 159
f 159 168 169
f 159 169 160
f 160 169 170
f 160 170 161
f 161 170 171
f 161 171 162
f 162 171 172
f 162 172 12
f 163 1 173
f 163 173 164
f 164 173 174
f 164 174 165
f 165 174 175
f 165 175 166
f 166 175 176
f 166 176 167
f 167 176 177
f 167 177 168
f 168 177 178
f 168 178 169
f 169 178 179
f 169 179 170
f 170 179 180
f 170 180 171
f 171 180 181
f 171 181 172
f 172 181 182
f 172 182 12
f 173 1 183
f 173 183 174
f 174 183 184
f 174 184 175
f 175 184 185
f 175 185 176
f 176 185 186
f 176 186 177
f 177 186 187
f 177 187 178
f 178 187 188
f 178 188 179
f 179 188 189
f 179 189 180
f 180 189 190
f 180 190 181
f 181 190 191
f 181 191 182
f 182 191 192
f 182 192 12
f 183 1 193
f 183 193 184
f 184 193 194
f 184 194 185
f 185 194 195
f 185 195 186
f 186 195 196
f 186 196 187
f 187 196 197
f 187 197 188
f 188 197 198
f 188 198 189
f 189 198 199
f 189 199 190
f 190 199 200
f 190 200 191
f 191 200 201
f 191 201 192
f 192 201 202
f 192 202 12
f 193 1 203
f 193 203 194
f 194 203 204
f 194 204 195
f 195 204 205
f 195 205 196
f 196 205 206
f 196 206 197
f 197 206 207
f 197 207 198
f 198 207 208
f 198 208 199
f 199 208 209
f 199 209 200
f 200 209 210
f 200 210 201
f 201 210 211
f 201 211 202
f 202 211 212
f 202 212 12
f 203 1 213
f 203 213 204
f 204 213 214
f 204 214 205
f 205 214 215
f 205 215 206
f 206 215 216
f 206 216 207
f 207 216 217
f 207 217 208
f 208 217 218
f 208 218 209
f 209 218 219
f 209 219 210
f 210 219 220
f 210 220 211
f 211 220 221
f 211 221 212
f 212 221 222
f 212 222 12
f 213 1 223
f 213 223 214
f 214 223 224
f 214 224 215
f 215 224 225
f 215 225 216
f 216 225 226
f 216 226 217
f 217 226 227
f 217 227 218
f 218 227 228
f 218 228 219
f 219 228 229
f 219 229 220
f 220 229 230
f 220 230 221
f 221 230 231
f 221 231 222
f 222 231 232
f 222 232 12
f 223 1 233
f 223 233 224
f 224 233 234
f 224 234 225
f 225 234 235
f 225 235 226
f 226 235 236
f 226 236 227
f 227 236 237
f 227 237 228
f 228 237 238
f 228 238 229
f 229 238 239
f 229 239 230
f 230 239 240
f 230 240 231
f 231 240 241
f 231 241 232
f 232 241 242
f 232 242 12
f 233 1 2
f 233 2 234
f 234 2 3
f 234 3 235
f 235 3 4
f 235 4 236
f 236 4 5
f 236 5 237
f 237 5 6
f 237 6 238
f 238 6 7
f 238 7 239
f 239 7 8
f 239 8 240
f 240 8 9
f 240 9 241
f 241 9 10
f 241 10 242
f 242 10 11
f 242 11 12

