# https://github.com/mikedh/trimesh
v 0.00000000 0.00000000 -1.00000000
v 0.13616665 0.00000000 -0.99068595
v 0.26979677 0.00000000 -0.96291729
v 0.39840109 0.00000000 -0.91721130
v 0.51958395 0.00000000 -0.85441940
v 0.63108794 0.00000000 -0.77571129
v 0.73083596 0.00000000 -0.68255314
v 0.81696989 0.00000000 -0.57668032
v 0.88788522 0.00000000 -0.46006504
v 0.94226092 0.00000000 -0.33487961
v 0.97908409 0.00000000 -0.20345601
v 0.99766877 0.00000000 -0.06824241
v 0.99766877 0.00000000 0.06824241
v 0.97908409 0.00000000 0.20345601
v 0.94226092 0.00000000 0.33487961
v 0.88788522 0.00000000 0.46006504
v 0.81696989 0.00000000 0.57668032
v 0.73083596 0.00000000 0.68255314
v 0.63108794 0.00000000 0.77571129
v 0.51958395 0.00000000 0.85441940
v 0.39840109 0.00000000 0.91721130
v 0.26979677 0.00000000 0.96291729
v 0.13616665 0.00000000 0.99068595
v 0.00000000 0.00000000 1.00000000
v 0.13500172 0.01777331 -0.99068595
v 0.26748862 0.03521555 -0.96291729
v 0.39499271 0.05200178 -0.91721130
v 0.51513884 0.06781931 -0.85441940
v 0.62568890 0.08237351 -0.77571129
v 0.72458356 0.09539324 -0.68255314
v 0.80998060 0.10663597 -0.57668032
v 0.88028924 0.11589228 -0.46006504
v 0.93419975 0.12298973 -0.33487961
v 0.97070789 0.12779612 -0.20345601
v 0.98913357 0.13022191 -0.06824241
v 0.98913357 0.13022191 0.06824241
v 0.97070789 0.12779612 0.20345601
v 0.93419975 0.12298973 0.33487961
v 0.88028924 0.11589228 0.46006504
v 0.80998060 0.10663597 0.57668032
v 0.72458356 0.09539324 0.68255314
v 0.62568890 0.08237351 0.77571129
v 0.51513884 0.06781931 0.85441940
v 0.39499271 0.05200178 0.91721130
v 0.26748862 0.03521555 0.96291729
v 0.13500172 0.01777331 0.99068595
v 0.13152688 0.03524252 -0.99068595
v 0.26060367 0.06982854 -0.96291729
v 0.38482590 0.10311379 -0.91721130
v 0.50187956 0.13447822 -0.85441940
v 0.60958414 0.16333758 -0.77571129
v 0.70593333 0.18915427 -0.68255314
v 0.78913232 0.21144737 -0.57668032
v 0.85763126 0.22980160 -0.46006504
v 0.91015416 0.24387507 -0.33487961
v 0.94572261 0.25340561 -0.20345601
v 0.96367403 0.25821568 -0.06824241
v 0.96367403 0.25821568 0.06824241
v 0.94572261 0.25340561 0.20345601
v 0.91015416 0.24387507 0.33487961
v 0.85763126 0.22980160 0.46006504
v 0.78913232 0.21144737 0.57668032
v 0.70593333 0.18915427 0.68255314
v 0.60958414 0.16333758 0.77571129
v 0.50187956 0.13447822 0.85441940
v 0.38482590 0.10311379 0.91721130
v 0.26060367 0.06982854 0.96291729
v 0.13152688 0.03524252 0.99068595
v 0.12580158 0.05210872 -0.99068595
v 0.24925971 0.10324675 -0.96291729
v 0.36807461 0.15246150 -0.91721130
v 0.48003298 0.19883617 -0.85441940
v 0.58304923 0.24150690 -0.77571129
v 0.67520439 0.27967882 -0.68255314
v 0.75478176 0.31264084 -0.57668032
v 0.82029898 0.33977896 -0.46006504
v 0.87053558 0.36058764 -0.33487961
v 0.90455575 0.37467926 -0.20345601
v 0.92172576 0.38179131 -0.06824241
v 0.92172576 0.38179131 0.06824241
v 0.90455575 0.37467926 0.20345601
v 0.87053558 0.36058764 0.33487961
v 0.82029898 0.33977896 0.46006504
v 0.75478176 0.31264084 0.57668032
v 0.67520439 0.27967882 0.68255314
v 0.58304923 0.24150690 0.77571129
v 0.48003298 0.19883617 0.85441940
v 0.36807461 0.15246150 0.91721130
v 0.24925971 0.10324675 0.96291729
v 0.12580158 0.05210872 0.99068595
v 0.11792378 0.06808332 -0.99068595
v 0.23365086 0.13489839 -0.96291729
v 0.34502546 0.19920054 -0.91721130
v 0.44997290 0.25979198 -0.85441940
v 0.54653819 0.31554397 -0.77571129
v 0.63292251 0.36541798 -0.68255314
v 0.70751668 0.40848495 -0.57668032
v 0.76893115 0.44394261 -0.46006504
v 0.81602190 0.47113046 -0.33487961
v 0.84791169 0.48954204 -0.20345601
v 0.86400650 0.49883438 -0.06824241
v 0.86400650 0.49883438 0.06824241
v 0.84791169 0.48954204 0.20345601
v 0.81602190 0.47113046 0.33487961
v 0.76893115 0.44394261 0.46006504
v 0.70751668 0.40848495 0.57668032
v 0.63292251 0.36541798 0.68255314
v 0.54653819 0.31554397 0.77571129
v 0.44997290 0.25979198 0.85441940
v 0.34502546 0.19920054 0.91721130
v 0.23365086 0.13489839 0.96291729
v 0.11792378 0.06808332 0.99068595
v 0.10802827 0.08289300 -0.99068595
v 0.21404417 0.16424187 -0.96291729
v 0.31607284 0.24253122 -0.91721130
v 0.41221366 0.31630267 -0.85441940
v 0.50067573 0.38418200 -0.77571129
v 0.57981115 0.44490475 -0.68255314
v 0.64814579 0.49733976 -0.57668032
v 0.70440670 0.54051027 -0.46006504
v 0.74754585 0.57361211 -0.33487961
v 0.77675963 0.59602863 -0.20345601
v 0.79150385 0.60734227 -0.06824241
v 0.79150385 0.60734227 0.06824241
v 0.77675963 0.59602863 0.20345601
v 0.74754585 0.57361211 0.33487961
v 0.70440670 0.54051027 0.46006504
v 0.64814579 0.49733976 0.57668032
v 0.57981115 0.44490475 0.68255314
v 0.50067573 0.38418200 0.77571129
v 0.41221366 0.31630267 0.85441940
v 0.31607284 0.24253122 0.91721130
v 0.21404417 0.16424187 0.96291729
v 0.10802827 0.08289300 0.99068595
v 0.09628436 0.09628436 -0.99068595
v 0.19077513 0.19077513 -0.96291729
v 0.28171211 0.28171211 -0.91721130
v 0.36740133 0.36740133 -0.85441940
v 0.44624656 0.44624656 -0.77571129
v 0.51677907 0.51677907 -0.68255314
v 0.57768495 0.57768495 -0.57668032
v 0.62782966 0.62782966 -0.46006504
v 0.66627909 0.66627909 -0.33487961
v 0.69231700 0.69231700 -0.20345601
v 0.70545835 0.70545835 -0.06824241
v 0.70545835 0.70545835 0.06824241
v 0.69231700 0.69231700 0.20345601
v 0.66627909 0.66627909 0.33487961
v 0.62782966 0.62782966 0.46006504
v 0.57768495 0.57768495 0.57668032
v 0.51677907 0.51677907 0.68255314
v 0.44624656 0.44624656 0.77571129
v 0.36740133 0.36740133 0.85441940
v 0.28171211 0.28171211 0.91721130
v 0.19077513 0.19077513 0.96291729
v 0.09628436 0.09628436 0.99068595
v 0.08289300 0.10802827 -0.99068595
v 0.16424187 0.21404417 -0.96291729
v 0.24253122 0.31607284 -0.91721130
v 0.31630267 0.41221366 -0.85441940
v 0.38418200 0.50067573 -0.77571129
v 0.44490475 0.57981115 -0.68255314
v 0.49733976 0.64814579 -0.57668032
v 0.54051027 0.70440670 -0.46006504
v 0.57361211 0.74754585 -0.33487961
v 0.59602863 0.77675963 -0.20345601
v 0.60734227 0.79150385 -0.06824241
v 0.60734227 0.79150385 0.06824241
v 0.59602863 0.77675963 0.20345601
v 0.57361211 0.74754585 0.33487961
v 0.54051027 0.70440670 0.46006504
v 0.49733976 0.64814579 0.57668032
v 0.44490475 0.57981115 0.68255314
v 0.38418200 0.50067573 0.77571129
v 0.31630267 0.41221366 0.85441940
v 0.24253122 0.31607284 0.91721130
v 0.16424187 0.21404417 0.96291729
v 0.08289300 0.10802827 0.99068595
v 0.06808332 0.11792378 -0.99068595
v 0.13489839 0.23365086 -0.96291729
v 0.19920054 0.34502546 -0.91721130
v 0.25979198 0.44997290 -0.85441940
v 0.31554397 0.54653819 -0.77571129
v 0.36541798 0.63292251 -0.68255314
v 0.40848495 0.70751668 -0.57668032
v 0.44394261 0.76893115 -0.46006504
v 0.47113046 0.81602190 -0.33487961
v 0.48954204 0.84791169 -0.20345601
v 0.49883438 0.86400650 -0.06824241
v 0.49883438 0.86400650 0.06824241
v 0.48954204 0.84791169 0.20345601
v 0.47113046 0.81602190 0.33487961
v 0.44394261 0.76893115 0.46006504
v 0.40848495 0.70751668 0.57668032
v 0.36541798 0.63292251 0.68255314
v 0.31554397 0.54653819 0.77571129
v 0.25979198 0.44997290 0.85441940
v 0.19920054 0.34502546 0.91721130
v 0.13489839 0.23365086 0.96291729
v 0.06808332 0.11792378 0.99068595
v 0.05210872 0.12580158 -0.99068595
v 0.10324675 0.24925971 -0.96291729
v 0.15246150 0.36807461 -0.91721130
v 0.19883617 0.48003298 -0.85441940
v 0.24150690 0.58304923 -0.77571129
v 0.27967882 0.67520439 -0.68255314
v 0.31264084 0.75478176 -0.57668032
v 0.33977896 0.82029898 -0.46006504
v 0.36058764 0.87053558 -0.33487961
v 0.37467926 0.90455575 -0.20345601
v 0.38179131 0.92172576 -0.06824241
v 0.38179131 0.92172576 0.06824241
v 0.37467926 0.90455575 0.20345601
v 0.36058764 0.87053558 0.33487961
v 0.33977896 0.82029898 0.46006504
v 0.31264084 0.75478176 0.57668032
v 0.27967882 0.67520439 0.68255314
v 0.24150690 0.58304923 0.77571129
v 0.19883617 0.48003298 0.85441940
v 0.15246150 0.36807461 0.91721130
v 0.10324675 0.24925971 0.96291729
v 0.05210872 0.12580158 0.99068595
v 0.03524252 0.13152688 -0.99068595
v 0.06982854 0.26060367 -0.96291729
v 0.10311379 0.38482590 -0.91721130
v 0.13447822 0.50187956 -0.85441940
v 0.16333758 0.60958414 -0.77571129
v 0.18915427 0.70593333 -0.68255314
v 0.21144737 0.78913232 -0.57668032
v 0.22980160 0.85763126 -0.46006504
v 0.24387507 0.91015416 -0.33487961
v 0.25340561 0.94572261 -0.20345601
v 0.25821568 0.96367403 -0.06824241
v 0.25821568 0.96367403 0.06824241
v 0.25340561 0.94572261 0.20345601
v 0.24387507 0.91015416 0.33487961
v 0.22980160 0.85763126 0.46006504
v 0.21144737 0.78913232 0.57668032
v 0.18915427 0.70593333 0.68255314
v 0.16333758 0.60958414 0.77571129
v 0.13447822 0.50187956 0.85441940
v 0.10311379 0.38482590 0.91721130
v 0.06982854 0.26060367 0.96291729
v 0.03524252 0.13152688 0.99068595
v 0.01777331 0.13500172 -0.99068595
v 0.03521555 0.26748862 -0.96291729
v 0.05200178 0.39499271 -0.91721130
v 0.06781931 0.51513884 -0.85441940
v 0.08237351 0.62568890 -0.77571129
v 0.09539324 0.72458356 -0.68255314
v 0.10663597 0.80998060 -0.57668032
v 0.11589228 0.88028924 -0.46006504
v 0.12298973 0.93419975 -0.33487961
v 0.12779612 0.97070789 -0.20345601
v 0.13022191 0.98913357 -0.06824241
v 0.13022191 0.98913357 0.06824241
v 0.12779612 0.97070789 0.20345601
v 0.12298973 0.93419975 0.33487961
v 0.11589228 0.88028924 0.46006504
v 0.10663597 0.80998060 0.57668032
v 0.09539324 0.72458356 0.68255314
v 0.08237351 0.62568890 0.77571129
v 0.06781931 0.51513884 0.85441940
v 0.05200178 0.39499271 0.91721130
v 0.03521555 0.26748862 0.96291729
v 0.01777331 0.13500172 0.99068595
v 0.00000000 0.13616665 -0.99068595
v 0.00000000 0.26979677 -0.96291729
v 0.00000000 0.39840109 -0.91721130
v 0.00000000 0.51958395 -0.85441940
v 0.00000000 0.63108794 -0.77571129
v 0.00000000 0.73083596 -0.68255314
v 0.00000000 0.81696989 -0.57668032
v 0.00000000 0.88788522 -0.46006504
v 0.00000000 0.94226092 -0.33487961
v 0.00000000 0.97908409 -0.20345601
v 0.00000000 0.99766877 -0.06824241
v 0.00000000 0.99766877 0.06824241
v 0.00000000 0.97908409 0.20345601
v 0.00000000 0.94226092 0.33487961
v 0.00000000 0.88788522 0.46006504
v 0.00000000 0.81696989 0.57668032
v 0.00000000 0.73083596 0.68255314
v 0.00000000 0.63108794 0.77571129
v 0.00000000 0.51958395 0.85441940
v 0.00000000 0.39840109 0.91721130
v 0.00000000 0.26979677 0.96291729
v 0.00000000 0.13616665 0.99068595
v -0.01777331 0.13500172 -0.99068595
v -0.03521555 0.26748862 -0.96291729
v -0.05200178 0.39499271 -0.91721130
v -0.06781931 0.51513884 -0.85441940
v -0.08237351 0.62568890 -0.77571129
v -0.09539324 0.72458356 -0.68255314
v -0.10663597 0.80998060 -0.57668032
v -0.11589228 0.88028924 -0.46006504
v -0.12298973 0.93419975 -0.33487961
v -0.12779612 0.97070789 -0.20345601
v -0.13022191 0.98913357 -0.06824241
v -0.13022191 0.98913357 0.06824241
v -0.12779612 0.97070789 0.20345601
v -0.12298973 0.93419975 0.33487961
v -0.11589228 0.88028924 0.46006504
v -0.10663597 0.80998060 0.57668032
v -0.09539324 0.72458356 0.68255314
v -0.08237351 0.62568890 0.77571129
v -0.06781931 0.51513884 0.85441940
v -0.05200178 0.39499271 0.91721130
v -0.03521555 0.26748862 0.96291729
v -0.01777331 0.13500172 0.99068595
v -0.03524252 0.13152688 -0.99068595
v -0.06982854 0.26060367 -0.96291729
v -0.10311379 0.38482590 -0.91721130
v -0.13447822 0.50187956 -0.85441940
v -0.16333758 0.60958414 -0.77571129
v -0.18915427 0.70593333 -0.68255314
v -0.21144737 0.78913232 -0.57668032
v -0.22980160 0.85763126 -0.46006504
v -0.24387507 0.91015416 -0.33487961
v -0.25340561 0.94572261 -0.20345601
v -0.25821568 0.96367403 -0.06824241
v -0.25821568 0.96367403 0.06824241
v -0.25340561 0.94572261 0.20345601
v -0.24387507 0.91015416 0.33487961
v -0.22980160 0.85763126 0.46006504
v -0.21144737 0.78913232 0.57668032
v -0.18915427 0.70593333 0.68255314
v -0.16333758 0.60958414 0.77571129
v -0.13447822 0.50187956 0.85441940
v -0.10311379 0.38482590 0.91721130
v -0.06982854 0.26060367 0.96291729
v -0.03524252 0.13152688 0.99068595
v -0.05210872 0.12580158 -0.99068595
v -0.10324675 0.24925971 -0.96291729
v -0.15246150 0.36807461 -0.91721130
v -0.19883617 0.48003298 -0.85441940
v -0.24150690 0.58304923 -0.77571129
v -0.27967882 0.67520439 -0.68255314
v -0.31264084 0.75478176 -0.57668032
v -0.33977896 0.82029898 -0.46006504
v -0.36058764 0.87053558 -0.33487961
v -0.37467926 0.90455575 -0.20345601
v -0.38179131 0.92172576 -0.06824241
v -0.38179131 0.92172576 0.06824241
v -0.37467926 0.90455575 0.20345601
v -0.36058764 0.87053558 0.33487961
v -0.33977896 0.82029898 0.46006504
v -0.31264084 0.75478176 0.57668032
v -0.27967882 0.67520439 0.68255314
v -0.24150690 0.58304923 0.77571129
v -0.19883617 0.48003298 0.85441940
v -0.15246150 0.36807461 0.91721130
v -0.10324675 0.24925971 0.96291729
v -0.05210872 0.12580158 0.99068595
v -0.06808332 0.11792378 -0.99068595
v -0.13489839 0.23365086 -0.96291729
v -0.19920054 0.34502546 -0.91721130
v -0.25979198 0.44997290 -0.85441940
v -0.31554397 0.54653819 -0.77571129
v -0.36541798 0.63292251 -0.68255314
v -0.40848495 0.70751668 -0.57668032
v -0.44394261 0.76893115 -0.46006504
v -0.47113046 0.81602190 -0.33487961
v -0.48954204 0.84791169 -0.20345601
v -0.49883438 0.86400650 -0.06824241
v -0.49883438 0.86400650 0.06824241
v -0.48954204 0.84791169 0.20345601
v -0.47113046 0.81602190 0.33487961
v -0.44394261 0.76893115 0.46006504
v -0.40848495 0.70751668 0.57668032
v -0.36541798 0.63292251 0.68255314
v -0.31554397 0.54653819 0.77571129
v -0.25979198 0.44997290 0.85441940
v -0.19920054 0.34502546 0.91721130
v -0.13489839 0.23365086 0.96291729
v -0.06808332 0.11792378 0.99068595
v -0.08289300 0.10802827 -0.99068595
v -0.16424187 0.21404417 -0.96291729
v -0.24253122 0.31607284 -0.91721130
v -0.31630267 0.41221366 -0.85441940
v -0.38418200 0.50067573 -0.77571129
v -0.44490475 0.57981115 -0.68255314
v -0.49733976 0.64814579 -0.57668032
v -0.54051027 0.70440670 -0.46006504
v -0.57361211 0.74754585 -0.33487961
v -0.59602863 0.77675963 -0.20345601
v -0.60734227 0.79150385 -0.06824241
v -0.60734227 0.79150385 0.06824241
v -0.59602863 0.77675963 0.20345601
v -0.57361211 0.74754585 0.33487961
v -0.54051027 0.70440670 0.46006504
v -0.49733976 0.64814579 0.57668032
v -0.44490475 0.57981115 0.68255314
v -0.38418200 0.50067573 0.77571129
v -0.31630267 0.41221366 0.85441940
v -0.24253122 0.31607284 0.91721130
v -0.16424187 0.21404417 0.96291729
v -0.08289300 0.10802827 0.99068595
v -0.09628436 0.09628436 -0.99068595
v -0.19077513 0.19077513 -0.96291729
v -0.28171211 0.28171211 -0.91721130
v -0.36740133 0.36740133 -0.85441940
v -0.44624656 0.44624656 -0.77571129
v -0.51677907 0.51677907 -0.68255314
v -0.57768495 0.57768495 -0.57668032
v -0.62782966 0.62782966 -0.46006504
v -0.66627909 0.66627909 -0.33487961
v -0.69231700 0.69231700 -0.20345601
v -0.70545835 0.70545835 -0.06824241
v -0.70545835 0.70545835 0.06824241
v -0.69231700 0.69231700 0.20345601
v -0.66627909 0.66627909 0.33487961
v -0.62782966 0.62782966 0.46006504
v -0.57768495 0.57768495 0.57668032
v -0.51677907 0.51677907 0.68255314
v -0.44624656 0.44624656 0.77571129
v -0.36740133 0.36740133 0.85441940
v -0.28171211 0.28171211 0.91721130
v -0.19077513 0.19077513 0.96291729
v -0.09628436 0.09628436 0.99068595
v -0.10802827 0.08289300 -0.99068595
v -0.21404417 0.16424187 -0.96291729
v -0.31607284 0.24253122 -0.91721130
v -0.41221366 0.31630267 -0.85441940
v -0.50067573 0.38418200 -0.77571129
v -0.57981115 0.44490475 -0.68255314
v -0.64814579 0.49733976 -0.57668032
v -0.70440670 0.54051027 -0.46006504
v -0.74754585 0.57361211 -0.33487961
v -0.77675963 0.59602863 -0.20345601
v -0.79150385 0.60734227 -0.06824241
v -0.79150385 0.60734227 0.06824241
v -0.77675963 0.59602863 0.20345601
v -0.74754585 0.57361211 0.33487961
v -0.70440670 0.54051027 0.46006504
v -0.64814579 0.49733976 0.57668032
v -0.57981115 0.44490475 0.68255314
v -0.50067573 0.38418200 0.77571129
v -0.41221366 0.31630267 0.85441940
v -0.31607284 0.24253122 0.91721130
v -0.21404417 0.16424187 0.96291729
v -0.10802827 0.08289300 0.99068595
v -0.11792378 0.06808332 -0.99068595
v -0.23365086 0.13489839 -0.96291729
v -0.34502546 0.19920054 -0.91721130
v -0.44997290 0.25979198 -0.85441940
v -0.54653819 0.31554397 -0.77571129
v -0.63292251 0.36541798 -0.68255314
v -0.70751668 0.40848495 -0.57668032
v -0.76893115 0.44394261 -0.46006504
v -0.81602190 0.47113046 -0.33487961
v -0.84791169 0.48954204 -0.20345601
v -0.86400650 0.49883438 -0.06824241
v -0.86400650 0.49883438 0.06824241
v -0.84791169 0.48954204 0.20345601
v -0.81602190 0.47113046 0.33487961
v -0.76893115 0.44394261 0.46006504
v -0.70751668 0.40848495 0.57668032
v -0.63292251 0.36541798 0.68255314
v -0.54653819 0.31554397 0.77571129
v -0.44997290 0.25979198 0.85441940
v -0.34502546 0.19920054 0.91721130
v -0.23365086 0.13489839 0.96291729
v -0.11792378 0.06808332 0.99068595
v -0.12580158 0.05210872 -0.99068595
v -0.24925971 0.10324675 -0.96291729
v -0.36807461 0.15246150 -0.91721130
v -0.48003298 0.19883617 -0.85441940
v -0.58304923 0.24150690 -0.77571129
v -0.67520439 0.27967882 -0.68255314
v -0.75478176 0.31264084 -0.57668032
v -0.82029898 0.33977896 -0.46006504
v -0.87053558 0.36058764 -0.33487961
v -0.90455575 0.37467926 -0.20345601
v -0.92172576 0.38179131 -0.06824241
v -0.92172576 0.38179131 0.06824241
v -0.90455575 0.37467926 0.20345601
v -0.87053558 0.36058764 0.33487961
v -0.82029898 0.33977896 0.46006504
v -0.75478176 0.31264084 0.57668032
v -0.67520439 0.27967882 0.68255314
v -0.58304923 0.24150690 0.77571129
v -0.48003298 0.19883617 0.85441940
v -0.36807461 0.15246150 0.91721130
v -0.24925971 0.10324675 0.96291729
v -0.12580158 0.05210872 0.99068595
v -0.13152688 0.03524252 -0.99068595
v -0.26060367 0.06982854 -0.96291729
v -0.38482590 0.10311379 -0.91721130
v -0.50187956 0.13447822 -0.85441940
v -0.60958414 0.16333758 -0.77571129
v -0.70593333 0.18915427 -0.68255314
v -0.78913232 0.21144737 -0.57668032
v -0.85763126 0.22980160 -0.46006504
v -0.91015416 0.24387507 -0.33487961
v -0.94572261 0.25340561 -0.20345601
v -0.96367403 0.25821568 -0.06824241
v -0.96367403 0.25821568 0.06824241
v -0.94572261 0.25340561 0.20345601
v -0.91015416 0.24387507 0.33487961
v -0.85763126 0.22980160 0.46006504
v -0.78913232 0.21144737 0.57668032
v -0.70593333 0.18915427 0.68255314
v -0.60958414 0.16333758 0.77571129
v -0.50187956 0.13447822 0.85441940
v -0.38482590 0.10311379 0.91721130
v -0.26060367 0.06982854 0.96291729
v -0.13152688 0.03524252 0.99068595
v -0.13500172 0.01777331 -0.99068595
v -0.26748862 0.03521555 -0.96291729
v -0.39499271 0.05200178 -0.91721130
v -0.51513884 0.06781931 -0.85441940
v -0.62568890 0.08237351 -0.77571129
v -0.72458356 0.09539324 -0.68255314
v -0.80998060 0.10663597 -0.57668032
v -0.88028924 0.11589228 -0.46006504
v -0.93419975 0.12298973 -0.33487961
v -0.97070789 0.12779612 -0.20345601
v -0.98913357 0.13022191 -0.06824241
v -0.98913357 0.13022191 0.06824241
v -0.97070789 0.12779612 0.20345601
v -0.93419975 0.12298973 0.33487961
v -0.88028924 0.11589228 0.46006504
v -0.80998060 0.10663597 0.57668032
v -0.72458356 0.09539324 0.68255314
v -0.62568890 0.08237351 0.77571129
v -0.51513884 0.06781931 0.85441940
v -0.39499271 0.05200178 0.91721130
v -0.26748862 0.03521555 0.96291729
v -0.13500172 0.01777331 0.99068595
v -0.13616665 0.00000000 -0.99068595
v -0.26979677 0.00000000 -0.96291729
v -0.39840109 0.00000000 -0.91721130
v -0.51958395 0.00000000 -0.85441940
v -0.63108794 0.00000000 -0.77571129
v -0.73083596 0.00000000 -0.68255314
v -0.81696989 0.00000000 -0.57668032
v -0.88788522 0.00000000 -0.46006504
v -0.94226092 0.00000000 -0.33487961
v -0.97908409 0.00000000 -0.20345601
v -0.99766877 0.00000000 -0.06824241
v -0.99766877 0.00000000 0.06824241
v -0.97908409 0.00000000 0.20345601
v -0.94226092 0.00000000 0.33487961
v -0.88788522 0.00000000 0.46006504
v -0.81696989 0.00000000 0.57668032
v -0.73083596 0.00000000 0.68255314
v -0.63108794 0.00000000 0.77571129
v -0.51958395 0.00000000 0.85441940
v -0.39840109 0.00000000 0.91721130
v -0.26979677 0.00000000 0.96291729
v -0.13616665 0.00000000 0.99068595
v -0.13500172 -0.01777331 -0.99068595
v -0.26748862 -0.03521555 -0.96291729
v -0.39499271 -0.05200178 -0.91721130
v -0.51513884 -0.06781931 -0.85441940
v -0.62568890 -0.08237351 -0.77571129
v -0.72458356 -0.09539324 -0.68255314
v -0.80998060 -0.10663597 -0.57668032
v -0.88028924 -0.11589228 -0.46006504
v -0.93419975 -0.12298973 -0.33487961
v -0.97070789 -0.12779612 -0.20345601
v -0.98913357 -0.13022191 -0.06824241
v -0.98913357 -0.13022191 0.06824241
v -0.97070789 -0.12779612 0.20345601
v -0.93419975 -0.12298973 0.33487961
v -0.88028924 -0.11589228 0.46006504
v -0.80998060 -0.10663597 0.57668032
v -0.72458356 -0.09539324 0.68255314
v -0.62568890 -0.08237351 0.77571129
v -0.51513884 -0.06781931 0.85441940
v -0.39499271 -0.05200178 0.91721130
v -0.26748862 -0.03521555 0.96291729
v -0.13500172 -0.01777331 0.99068595
v -0.13152688 -0.03524252 -0.99068595
v -0.26060367 -0.06982854 -0.96291729
v -0.38482590 -0.10311379 -0.91721130
v -0.50187956 -0.13447822 -0.85441940
v -0.60958414 -0.16333758 -0.77571129
v -0.70593333 -0.18915427 -0.68255314
v -0.78913232 -0.21144737 -0.57668032
v -0.85763126 -0.22980160 -0.46006504
v -0.91015416 -0.24387507 -0.33487961
v -0.94572261 -0.25340561 -0.20345601
v -0.96367403 -0.25821568 -0.06824241
v -0.96367403 -0.25821568 0.06824241
v -0.94572261 -0.25340561 0.20345601
v -0.91015416 -0.24387507 0.33487961
v -0.85763126 -0.22980160 0.46006504
v -0.78913232 -0.21144737 0.57668032
v -0.70593333 -0.18915427 0.68255314
v -0.60958414 -0.16333758 0.77571129
v -0.50187956 -0.13447822 0.85441940
v -0.38482590 -0.10311379 0.91721130
v -0.26060367 -0.06982854 0.96291729
v -0.13152688 -0.03524252 0.99068595
v -0.12580158 -0.05210872 -0.99068595
v -0.24925971 -0.10324675 -0.96291729
v -0.36807461 -0.15246150 -0.91721130
v -0.48003298 -0.19883617 -0.85441940
v -0.58304923 -0.24150690 -0.77571129
v -0.67520439 -0.27967882 -0.68255314
v -0.75478176 -0.31264084 -0.57668032
v -0.82029898 -0.33977896 -0.46006504
v -0.87053558 -0.36058764 -0.33487961
v -0.90455575 -0.37467926 -0.20345601
v -0.92172576 -0.38179131 -0.06824241
v -0.92172576 -0.38179131 0.06824241
v -0.90455575 -0.37467926 0.20345601
v -0.87053558 -0.36058764 0.33487961
v -0.82029898 -0.33977896 0.46006504
v -0.75478176 -0.31264084 0.57668032
v -0.67520439 -0.27967882 0.68255314
v -0.58304923 -0.24150690 0.77571129
v -0.48003298 -0.19883617 0.85441940
v -0.36807461 -0.15246150 0.91721130
v -0.24925971 -0.10324675 0.96291729
v -0.12580158 -0.05210872 0.99068595
v -0.11792378 -0.06808332 -0.99068595
v -0.23365086 -0.13489839 -0.96291729
v -0.34502546 -0.19920054 -0.91721130
v -0.44997290 -0.25979198 -0.85441940
v -0.54653819 -0.31554397 -0.77571129
v -0.63292251 -0.36541798 -0.68255314
v -0.70751668 -0.40848495 -0.57668032
v -0.76893115 -0.44394261 -0.46006504
v -0.81602190 -0.47113046 -0.33487961
v -0.84791169 -0.48954204 -0.20345601
v -0.86400650 -0.49883438 -0.06824241
v -0.86400650 -0.49883438 0.06824241
v -0.84791169 -0.48954204 0.20345601
v -0.81602190 -0.47113046 0.33487961
v -0.76893115 -0.44394261 0.46006504
v -0.70751668 -0.40848495 0.57668032
v -0.63292251 -0.36541798 0.68255314
v -0.54653819 -0.31554397 0.77571129
v -0.44997290 -0.25979198 0.85441940
v -0.34502546 -0.19920054 0.91721130
v -0.23365086 -0.13489839 0.96291729
v -0.11792378 -0.06808332 0.99068595
v -0.10802827 -0.08289300 -0.99068595
v -0.21404417 -0.16424187 -0.96291729
v -0.31607284 -0.24253122 -0.91721130
v -0.41221366 -0.31630267 -0.85441940
v -0.50067573 -0.38418200 -0.77571129
v -0.57981115 -0.44490475 -0.68255314
v -0.64814579 -0.49733976 -0.57668032
v -0.70440670 -0.54051027 -0.46006504
v -0.74754585 -0.57361211 -0.33487961
v -0.77675963 -0.59602863 -0.20345601
v -0.79150385 -0.60734227 -0.06824241
v -0.79150385 -0.60734227 0.06824241
v -0.77675963 -0.59602863 0.20345601
v -0.74754585 -0.57361211 0.33487961
v -0.70440670 -0.54051027 0.46006504
v -0.64814579 -0.49733976 0.57668032
v -0.57981115 -0.44490475 0.68255314
v -0.50067573 -0.38418200 0.77571129
v -0.41221366 -0.31630267 0.85441940
v -0.31607284 -0.24253122 0.91721130
v -0.21404417 -0.16424187 0.96291729
v -0.10802827 -0.08289300 0.99068595
v -0.09628436 -0.09628436 -0.99068595
v -0.19077513 -0.19077513 -0.96291729
v -0.28171211 -0.28171211 -0.91721130
v -0.36740133 -0.36740133 -0.85441940
v -0.44624656 -0.44624656 -0.77571129
v -0.51677907 -0.51677907 -0.68255314
v -0.57768495 -0.57768495 -0.57668032
v -0.62782966 -0.62782966 -0.46006504
v -0.66627909 -0.66627909 -0.33487961
v -0.69231700 -0.69231700 -0.20345601
v -0.70545835 -0.70545835 -0.06824241
v -0.70545835 -0.70545835 0.06824241
v -0.69231700 -0.69231700 0.20345601
v -0.66627909 -0.66627909 0.33487961
v -0.62782966 -0.62782966 0.46006504
v -0.57768495 -0.57768495 0.57668032
v -0.51677907 -0.51677907 0.68255314
v -0.44624656 -0.44624656 0.77571129
v -0.36740133 -0.36740133 0.85441940
v -0.28171211 -0.28171211 0.91721130
v -0.19077513 -0.19077513 0.96291729
v -0.09628436 -0.09628436 0.99068595
v -0.08289300 -0.10802827 -0.99068595
v -0.16424187 -0.21404417 -0.96291729
v -0.24253122 -0.31607284 -0.91721130
v -0.31630267 -0.41221366 -0.85441940
v -0.38418200 -0.50067573 -0.77571129
v -0.44490475 -0.57981115 -0.68255314
v -0.49733976 -0.64814579 -0.57668032
v -0.54051027 -0.70440670 -0.46006504
v -0.57361211 -0.74754585 -0.33487961
v -0.59602863 -0.77675963 -0.20345601
v -0.60734227 -0.79150385 -0.06824241
v -0.60734227 -0.79150385 0.06824241
v -0.59602863 -0.77675963 0.20345601
v -0.57361211 -0.74754585 0.33487961
v -0.54051027 -0.70440670 0.46006504
v -0.49733976 -0.64814579 0.57668032
v -0.44490475 -0.57981115 0.68255314
v -0.38418200 -0.50067573 0.77571129
v -0.31630267 -0.41221366 0.85441940
v -0.24253122 -0.31607284 0.91721130
v -0.16424187 -0.21404417 0.96291729
v -0.08289300 -0.10802827 0.99068595
v -0.06808332 -0.11792378 -0.99068595
v -0.13489839 -0.23365086 -0.96291729
v -0.19920054 -0.34502546 -0.91721130
v -0.25979198 -0.44997290 -0.85441940
v -0.31554397 -0.54653819 -0.77571129
v -0.36541798 -0.63292251 -0.68255314
v -0.40848495 -0.70751668 -0.57668032
v -0.44394261 -0.76893115 -0.46006504
v -0.47113046 -0.81602190 -0.33487961
v -0.48954204 -0.84791169 -0.20345601
v -0.49883438 -0.86400650 -0.06824241
v -0.49883438 -0.86400650 0.06824241
v -0.48954204 -0.84791169 0.20345601
v -0.47113046 -0.81602190 0.33487961
v -0.44394261 -0.76893115 0.46006504
v -0.40848495 -0.70751668 0.57668032
v -0.36541798 -0.63292251 0.68255314
v -0.31554397 -0.54653819 0.77571129
v -0.25979198 -0.44997290 0.85441940
v -0.19920054 -0.34502546 0.91721130
v -0.13489839 -0.23365086 0.96291729
v -0.06808332 -0.11792378 0.99068595
v -0.05210872 -0.12580158 -0.99068595
v -0.10324675 -0.24925971 -0.96291729
v -0.15246150 -0.36807461 -0.91721130
v -0.19883617 -0.48003298 -0.85441940
v -0.24150690 -0.58304923 -0.77571129
v -0.27967882 -0.67520439 -0.68255314
v -0.31264084 -0.75478176 -0.57668032
v -0.33977896 -0.82029898 -0.46006504
v -0.36058764 -0.87053558 -0.33487961
v -0.37467926 -0.90455575 -0.20345601
v -0.38179131 -0.92172576 -0.06824241
v -0.38179131 -0.92172576 0.06824241
v -0.37467926 -0.90455575 0.20345601
v -0.36058764 -0.87053558 0.33487961
v -0.33977896 -0.82029898 0.46006504
v -0.31264084 -0.75478176 0.57668032
v -0.27967882 -0.67520439 0.68255314
v -0.24150690 -0.58304923 0.77571129
v -0.19883617 -0.48003298 0.85441940
v -0.15246150 -0.36807461 0.91721130
v -0.10324675 -0.24925971 0.96291729
v -0.05210872 -0.12580158 0.99068595
v -0.03524252 -0.13152688 -0.99068595
v -0.06982854 -0.26060367 -0.96291729
v -0.10311379 -0.38482590 -0.91721130
v -0.13447822 -0.50187956 -0.85441940
v -0.16333758 -0.60958414 -0.77571129
v -0.18915427 -0.70593333 -0.68255314
v -0.21144737 -0.78913232 -0.57668032
v -0.22980160 -0.85763126 -0.46006504
v -0.24387507 -0.91015416 -0.33487961
v -0.25340561 -0.94572261 -0.20345601
v -0.25821568 -0.96367403 -0.06824241
v -0.25821568 -0.96367403 0.06824241
v -0.25340561 -0.94572261 0.20345601
v -0.24387507 -0.91015416 0.33487961
v -0.22980160 -0.85763126 0.46006504
v -0.21144737 -0.78913232 0.57668032
v -0.18915427 -0.70593333 0.68255314
v -0.16333758 -0.60958414 0.77571129
v -0.13447822 -0.50187956 0.85441940
v -0.10311379 -0.38482590 0.91721130
v -0.06982854 -0.26060367 0.96291729
v -0.03524252 -0.13152688 0.99068595
v -0.01777331 -0.13500172 -0.99068595
v -0.03521555 -0.26748862 -0.96291729
v -0.05200178 -0.39499271 -0.91721130
v -0.06781931 -0.51513884 -0.85441940
v -0.08237351 -0.62568890 -0.77571129
v -0.09539324 -0.72458356 -0.68255314
v -0.10663597 -0.80998060 -0.57668032
v -0.11589228 -0.88028924 -0.46006504
v -0.12298973 -0.93419975 -0.33487961
v -0.12779612 -0.97070789 -0.20345601
v -0.13022191 -0.98913357 -0.06824241
v -0.13022191 -0.98913357 0.06824241
v -0.12779612 -0.97070789 0.20345601
v -0.12298973 -0.93419975 0.33487961
v -0.11589228 -0.88028924 0.46006504
v -0.10663597 -0.80998060 0.57668032
v -0.09539324 -0.72458356 0.68255314
v -0.08237351 -0.62568890 0.77571129
v -0.06781931 -0.51513884 0.85441940
v -0.05200178 -0.39499271 0.91721130
v -0.03521555 -0.26748862 0.96291729
v -0.01777331 -0.13500172 0.99068595
v -0.00000000 -0.13616665 -0.99068595
v -0.00000000 -0.26979677 -0.96291729
v -0.00000000 -0.39840109 -0.91721130
v -0.00000000 -0.51958395 -0.85441940
v -0.00000000 -0.63108794 -0.77571129
v -0.00000000 -0.73083596 -0.68255314
v -0.00000000 -0.81696989 -0.57668032
v -0.00000000 -0.88788522 -0.46006504
v -0.00000000 -0.94226092 -0.33487961
v -0.00000000 -0.97908409 -0.20345601
v -0.00000000 -0.99766877 -0.06824241
v -0.00000000 -0.99766877 0.06824241
v -0.00000000 -0.97908409 0.20345601
v -0.00000000 -0.94226092 0.33487961
v -0.00000000 -0.88788522 0.46006504
v -0.00000000 -0.81696989 0.57668032
v -0.00000000 -0.73083596 0.68255314
v -0.00000000 -0.63108794 0.77571129
v -0.00000000 -0.51958395 0.85441940
v -0.00000000 -0.39840109 0.91721130
v -0.00000000 -0.26979677 0.96291729
v -0.00000000 -0.13616665 0.99068595
v 0.01777331 -0.13500172 -0.99068595
v 0.03521555 -0.26748862 -0.96291729
v 0.05200178 -0.39499271 -0.91721130
v 0.06781931 -0.51513884 -0.85441940
v 0.08237351 -0.62568890 -0.77571129
v 0.09539324 -0.72458356 -0.68255314
v 0.10663597 -0.80998060 -0.57668032
v 0.11589228 -0.88028924 -0.46006504
v 0.12298973 -0.93419975 -0.33487961
v 0.12779612 -0.97070789 -0.20345601
v 0.13022191 -0.98913357 -0.06824241
v 0.13022191 -0.98913357 0.06824241
v 0.12779612 -0.97070789 0.20345601
v 0.12298973 -0.93419975 0.33487961
v 0.11589228 -0.88028924 0.46006504
v 0.10663597 -0.80998060 0.57668032
v 0.09539324 -0.72458356 0.68255314
v 0.08237351 -0.62568890 0.77571129
v 0.06781931 -0.51513884 0.85441940
v 0.05200178 -0.39499271 0.91721130
v 0.03521555 -0.26748862 0.96291729
v 0.01777331 -0.13500172 0.99068595
v 0.03524252 -0.13152688 -0.99068595
v 0.06982854 -0.26060367 -0.96291729
v 0.10311379 -0.38482590 -0.91721130
v 0.13447822 -0.50187956 -0.85441940
v 0.16333758 -0.60958414 -0.77571129
v 0.18915427 -0.70593333 -0.68255314
v 0.21144737 -0.78913232 -0.57668032
v 0.22980160 -0.85763126 -0.46006504
v 0.24387507 -0.91015416 -0.33487961
v 0.25340561 -0.94572261 -0.20345601
v 0.25821568 -0.96367403 -0.06824241
v 0.25821568 -0.96367403 0.06824241
v 0.25340561 -0.94572261 0.20345601
v 0.24387507 -0.91015416 0.33487961
v 0.22980160 -0.85763126 0.46006504
v 0.21144737 -0.78913232 0.57668032
v 0.18915427 -0.70593333 0.68255314
v 0.16333758 -0.60958414 0.77571129
v 0.13447822 -0.50187956 0.85441940
v 0.10311379 -0.38482590 0.91721130
v 0.06982854 -0.26060367 0.96291729
v 0.03524252 -0.13152688 0.99068595
v 0.05210872 -0.12580158 -0.99068595
v 0.10324675 -0.24925971 -0.96291729
v 0.15246150 -0.36807461 -0.91721130
v 0.19883617 -0.48003298 -0.85441940
v 0.24150690 -0.58304923 -0.77571129
v 0.27967882 -0.67520439 -0.68255314
v 0.31264084 -0.75478176 -0.57668032
v 0.33977896 -0.82029898 -0.46006504
v 0.36058764 -0.87053558 -0.33487961
v 0.37467926 -0.90455575 -0.20345601
v 0.38179131 -0.92172576 -0.06824241
v 0.38179131 -0.92172576 0.06824241
v 0.37467926 -0.90455575 0.20345601
v 0.36058764 -0.87053558 0.33487961
v 0.33977896 -0.82029898 0.46006504
v 0.31264084 -0.75478176 0.57668032
v 0.27967882 -0.67520439 0.68255314
v 0.24150690 -0.58304923 0.77571129
v 0.19883617 -0.48003298 0.85441940
v 0.15246150 -0.36807461 0.91721130
v 0.10324675 -0.24925971 0.96291729
v 0.05210872 -0.12580158 0.99068595
v 0.06808332 -0.11792378 -0.99068595
v 0.13489839 -0.23365086 -0.96291729
v 0.19920054 -0.34502546 -0.91721130
v 0.25979198 -0.44997290 -0.85441940
v 0.31554397 -0.54653819 -0.77571129
v 0.36541798 -0.63292251 -0.68255314
v 0.40848495 -0.70751668 -0.57668032
v 0.44394261 -0.76893115 -0.46006504
v 0.47113046 -0.81602190 -0.33487961
v 0.48954204 -0.84791169 -0.20345601
v 0.49883438 -0.86400650 -0.06824241
v 0.49883438 -0.86400650 0.06824241
v 0.48954204 -0.84791169 0.20345601
v 0.47113046 -0.81602190 0.33487961
v 0.44394261 -0.76893115 0.46006504
v 0.40848495 -0.70751668 0.57668032
v 0.36541798 -0.63292251 0.68255314
v 0.31554397 -0.54653819 0.77571129
v 0.25979198 -0.44997290 0.85441940
v 0.19920054 -0.34502546 0.91721130
v 0.13489839 -0.23365086 0.96291729
v 0.06808332 -0.11792378 0.99068595
v 0.08289300 -0.10802827 -0.99068595
v 0.16424187 -0.21404417 -0.96291729
v 0.24253122 -0.31607284 -0.91721130
v 0.31630267 -0.41221366 -0.85441940
v 0.38418200 -0.50067573 -0.77571129
v 0.44490475 -0.57981115 -0.68255314
v 0.49733976 -0.64814579 -0.57668032
v 0.54051027 -0.70440670 -0.46006504
v 0.57361211 -0.74754585 -0.33487961
v 0.59602863 -0.77675963 -0.20345601
v 0.60734227 -0.79150385 -0.06824241
v 0.60734227 -0.79150385 0.06824241
v 0.59602863 -0.77675963 0.20345601
v 0.57361211 -0.74754585 0.33487961
v 0.54051027 -0.70440670 0.46006504
v 0.49733976 -0.64814579 0.57668032
v 0.44490475 -0.57981115 0.68255314
v 0.38418200 -0.50067573 0.77571129
v 0.31630267 -0.41221366 0.85441940
v 0.24253122 -0.31607284 0.91721130
v 0.16424187 -0.21404417 0.96291729
v 0.08289300 -0.10802827 0.99068595
v 0.09628436 -0.09628436 -0.99068595
v 0.19077513 -0.19077513 -0.96291729
v 0.28171211 -0.28171211 -0.91721130
v 0.36740133 -0.36740133 -0.85441940
v 0.44624656 -0.44624656 -0.77571129
v 0.51677907 -0.51677907 -0.68255314
v 0.57768495 -0.57768495 -0.57668032
v 0.62782966 -0.62782966 -0.46006504
v 0.66627909 -0.66627909 -0.33487961
v 0.69231700 -0.69231700 -0.20345601
v 0.70545835 -0.70545835 -0.06824241
v 0.70545835 -0.70545835 0.06824241
v 0.69231700 -0.69231700 0.20345601
v 0.66627909 -0.66627909 0.33487961
v 0.62782966 -0.62782966 0.46006504
v 0.57768495 -0.57768495 0.57668032
v 0.51677907 -0.51677907 0.68255314
v 0.44624656 -0.44624656 0.77571129
v 0.36740133 -0.36740133 0.85441940
v 0.28171211 -0.28171211 0.91721130
v 0.19077513 -0.19077513 0.96291729
v 0.09628436 -0.09628436 0.99068595
v 0.10802827 -0.08289300 -0.99068595
v 0.21404417 -0.16424187 -0.96291729
v 0.31607284 -0.24253122 -0.91721130
v 0.41221366 -0.31630267 -0.85441940
v 0.50067573 -0.38418200 -0.77571129
v 0.57981115 -0.44490475 -0.68255314
v 0.64814579 -0.49733976 -0.57668032
v 0.70440670 -0.54051027 -0.46006504
v 0.74754585 -0.57361211 -0.33487961
v 0.77675963 -0.59602863 -0.20345601
v 0.79150385 -0.60734227 -0.06824241
v 0.79150385 -0.60734227 0.06824241
v 0.77675963 -0.59602863 0.20345601
v 0.74754585 -0.57361211 0.33487961
v 0.70440670 -0.54051027 0.46006504
v 0.64814579 -0.49733976 0.57668032
v 0.57981115 -0.44490475 0.68255314
v 0.50067573 -0.38418200 0.77571129
v 0.41221366 -0.31630267 0.85441940
v 0.31607284 -0.24253122 0.91721130
v 0.21404417 -0.16424187 0.96291729
v 0.10802827 -0.08289300 0.99068595
v 0.11792378 -0.06808332 -0.99068595
v 0.23365086 -0.13489839 -0.96291729
v 0.34502546 -0.19920054 -0.91721130
v 0.44997290 -0.25979198 -0.85441940
v 0.54653819 -0.31554397 -0.77571129
v 0.63292251 -0.36541798 -0.68255314
v 0.70751668 -0.40848495 -0.57668032
v 0.76893115 -0.44394261 -0.46006504
v 0.81602190 -0.47113046 -0.33487961
v 0.84791169 -0.48954204 -0.20345601
v 0.86400650 -0.49883438 -0.06824241
v 0.86400650 -0.49883438 0.06824241
v 0.84791169 -0.48954204 0.20345601
v 0.81602190 -0.47113046 0.33487961
v 0.76893115 -0.44394261 0.46006504
v 0.70751668 -0.40848495 0.57668032
v 0.63292251 -0.36541798 0.68255314
v 0.54653819 -0.31554397 0.77571129
v 0.44997290 -0.25979198 0.85441940
v 0.34502546 -0.19920054 0.91721130
v 0.23365086 -0.13489839 0.96291729
v 0.11792378 -0.06808332 0.99068595
v 0.12580158 -0.05210872 -0.99068595
v 0.24925971 -0.10324675 -0.96291729
v 0.36807461 -0.15246150 -0.91721130
v 0.48003298 -0.19883617 -0.85441940
v 0.58304923 -0.24150690 -0.77571129
v 0.67520439 -0.27967882 -0.68255314
v 0.75478176 -0.31264084 -0.57668032
v 0.82029898 -0.33977896 -0.46006504
v 0.87053558 -0.36058764 -0.33487961
v 0.90455575 -0.37467926 -0.20345601
v 0.92172576 -0.38179131 -0.06824241
v 0.92172576 -0.38179131 0.06824241
v 0.90455575 -0.37467926 0.20345601
v 0.87053558 -0.36058764 0.33487961
v 0.82029898 -0.33977896 0.46006504
v 0.75478176 -0.31264084 0.57668032
v 0.67520439 -0.27967882 0.68255314
v 0.58304923 -0.24150690 0.77571129
v 0.48003298 -0.19883617 0.85441940
v 0.36807461 -0.15246150 0.91721130
v 0.24925971 -0.10324675 0.96291729
v 0.12580158 -0.05210872 0.99068595
v 0.13152688 -0.03524252 -0.99068595
v 0.26060367 -0.06982854 -0.96291729
v 0.38482590 -0.10311379 -0.91721130
v 0.50187956 -0.13447822 -0.85441940
v 0.60958414 -0.16333758 -0.77571129
v 0.70593333 -0.18915427 -0.68255314
v 0.78913232 -0.21144737 -0.57668032
v 0.85763126 -0.22980160 -0.46006504
v 0.91015416 -0.24387507 -0.33487961
v 0.94572261 -0.25340561 -0.20345601
v 0.96367403 -0.25821568 -0.06824241
v 0.96367403 -0.25821568 0.06824241
v 0.94572261 -0.25340561 0.20345601
v 0.91015416 -0.24387507 0.33487961
v 0.85763126 -0.22980160 0.46006504
v 0.78913232 -0.21144737 0.57668032
v 0.70593333 -0.18915427 0.68255314
v 0.60958414 -0.16333758 0.77571129
v 0.50187956 -0.13447822 0.85441940
v 0.38482590 -0.10311379 0.91721130
v 0.26060367 -0.06982854 0.96291729
v 0.13152688 -0.03524252 0.99068595
v 0.13500172 -0.01777331 -0.99068595
v 0.26748862 -0.03521555 -0.96291729
v 0.39499271 -0.05200178 -0.91721130
v 0.51513884 -0.06781931 -0.85441940
v 0.62568890 -0.08237351 -0.77571129
v 0.72458356 -0.09539324 -0.68255314
v 0.80998060 -0.10663597 -0.57668032
v 0.88028924 -0.11589228 -0.46006504
v 0.93419975 -0.12298973 -0.33487961
v 0.97070789 -0.12779612 -0.20345601
v 0.98913357 -0.13022191 -0.06824241
v 0.98913357 -0.13022191 0.06824241
v 0.97070789 -0.12779612 0.20345601
v 0.93419975 -0.12298973 0.33487961
v 0.88028924 -0.11589228 0.46006504
v 0.80998060 -0.10663597 0.57668032
v 0.72458356 -0.09539324 0.68255314
v 0.62568890 -0.08237351 0.77571129
v 0.51513884 -0.06781931 0.85441940
v 0.39499271 -0.05200178 0.91721130
v 0.26748862 -0.03521555 0.96291729
v 0.13500172 -0.01777331 0.99068595
f 2 1 25
f 2 25 3
f 3 25 26
f 3 26 4
f 4 26 27
f 4 27 5
f 5 27 28
f 5 28 6
f 6 28 29
f 6 29 7
f 7 29 30
f 7 30 8
f 8 30 31
f 8 31 9
f 9 31 32
f 9 32 10
f 10 32 33
f 10 33 11
f 11 33 34
f 11 34 12
f 12 34 35
f 12 35 13
f 13 35 36
f 13 36 14
f 14 36 37
f 14 37 15
f 15 37 38
f 15 38 16
f 16 38 39
f 16 39 17
f 17 39 40
f 17 40 18
f 18 40 41
f 18 41 19
f 19 41 42
f 19 42 20
f 20 42 43
f 20 43 21
f 21 43 44
f 21 44 22
f 22 44 45
f 22 45 23
f 23 45 46
f 23 46 24
f 25 1 47
f 25 47 26
f 26 47 48
f 26 48 27
f 27 48 49
f 27 49 28
f 28 49 50
f 28 50 29
f 29 50 51
f 29 51 30
f 30 51 52
f 30 52 31
f 31 52 53
f 31 53 32
f 32 53 54
f 32 54 33
f 33 54 55
f 33 55 34
f 34 55 56
f 34 56 35
f 35 56 57
f 35 57 36
f 36 57 58
f 36 58 37
f 37 58 59
f 37 59 38
f 38 59 60
f 38 60 39
f 39 60 61
f 39 61 40
f 40 61 62
f 40 62 41
f 41 62 63
f 41 63 42
f 42 63 64
f 42 64 43
f 43 64 65
f 43 65 44
f 44 65 66
f 44 66 45
f 45 66 67
f 45 67 46
f 46 67 68
f 46 68 24
f 47 1 69
f 47 69 48
f 48 69 70
f 48 70 49
f 49 70 71
f 49 71 50
f 50 71 72
f 50 72 51
f 51 72 73
f 51 73 52
f 52 73 74
f 52 74 53
f 53 74 75
f 53 75 54
f 54 75 76
f 54 76 55
f 55 76 77
f 55 77 56
f 56 77 78
f 56 78 57
f 57 78 79
f 57 79 58
f 58 79 80
f 58 80 59
f 59 80 81
f 59 81 60
f 60 81 82
f 60 82 61
f 61 82 83
f 61 83 62
f 62 83 84
f 62 84 63
f 63 84 85
f 63 85 64
f 64 85 86
f 64 86 65
f 65 86 87
f 65 87 66
f 66 87 88
f 66 88 67
f 67 88 89
f 67 89 68
f 68 89 90
f 68 90 24
f 69 1 91
f 69 91 70
f 70 91 92
f 70 92 71
f 71 92 93
f 71 93 72
f 72 93 94
f 72 94 73
f 73 94 95
f 73 95 74
f 74 95 96
f 74 96 75
f 75 96 97
f 75 97 76
f 76 97 98
f 76 98 77
f 77 98 99
f 77 99 78
f 78 99 100
f 78 100 79
f 79 100 101
f 79 101 80
f 80 101 102
f 80 102 81
f 81 102 103
f 81 103 82
f 82 103 104
f 82 104 83
f 83 104 105
f 83 105 84
f 84 105 106
f 84 106 85
f 85 106 107
f 85 107 86
f 86 107 108
f 86 108 87
f 87 108 109
f 87 109 88
f 88 109 110
f 88 110 89
f 89 110 111
f 89 111 90
f 90 111 112
f 90 112 24
f 91 1 113
f 91 113 92
f 92 113 114
f 92 114 93
f 93 114 115
f 93 115 94
f 94 115 116
f 94 116 95
f 95 116 117
f 95 117 96
f 96 117 118
f 96 118 97
f 97 118 119
f 97 119 98
f 98 119 120
f 98 120 99
f 99 120 121
f 99 121 100
f 100 121 122
f 100 122 101
f 101 122 123
f 101 123 102
f 102 123 124
f 102 124 103
f 103 124 125
f 103 125 104
f 104 125 126
f 104 126 105
f 105 126 127
f 105 127 106
f 106 127 128
f 106 128 107
f 107 128 129
f 107 129 108
f 108 129 130
f 108 130 109
f 109 130 131
f 109 131 110
f 110 131 132
f 110 132 111
f 111 132 133
f 111 133 112
f 112 133 134
f 112 134 24
f 113 1 135
f 113 135 114
f 114 135 136
f 114 136 115
f 115 136 137
f 115 137 116
f 116 137 138
f 116 138 117
f 117 138 139
f 117 139 118
f 118 139 140
f 118 140 119
f 119 140 141
f 119 141 120
f 120 141 142
f 120 142 121
f 121 142 143
f 121 143 122
f 122 143 144
f 122 144 123
f 123 144 145
f 123 145 124
f 124 145 146
f 124 146 125
f 125 146 147
f 125 147 126
f 126 147 148
f 126 148 127
f 127 148 149
f 127 149 128
f 128 149 150
f 128 150 129
f 129 150 151
f 129 151 130
f 130 151 152
f 130 152 131
f 131 152 153
f 131 153 132
f 132 153 154
f 132 154 133
f 133 154 155
f 133 155 134
f 134 155 156
f 134 156 24
f 135 1 157
f 135 157 136
f 136 157 158
f 136 158 137
f 137 158 159
f 137 159 138
f 138 159 160
f 138 160 139
f 139 160 161
f 139 161 140
f 140 161 162
f 140 162 141
f 141 162 163
f 141 163 142
f 142 163 164
f 142 164 143
f 143 164 165
f 143 165 144
f 144 165 166
f 144 166 145
f 145 166 167
f 145 167 146
f 146 167 168
f 146 168 147
f 147 168 169
f 147 169 148
f 148 169 170
f 148 170 149
f 149 170 171
f 149 171 150
f 150 171 172
f 150 172 151
f 151 172 173
f 151 173 152
f 152 173 174
f 152 174 153
f 153 174 175
f 153 175 154
f 154 175 176
f 154 176 155
f 155 176 177
f 155 177 156
f 156 177 178
f 156 178 24
f 157 1 179
f 157 179 158
f 158 179 180
f 158 180 159
f 159 180 181
f 159 181 160
f 160 181 182
f 160 182 161
f 161 182 183
f 161 183 162
f 162 183 184
f 162 184 163
f 163 184 185
f 163 185 164
f 164 185 186
f 164 186 165
f 165 186 187
f 165 187 166
f 166 187 188
f 166 188 167
f 167 188 189
f 167 189 168
f 168 189 190
f 168 190 169
f 169 190 191
f 169 191 170
f 170 191 192
f 170 192 171
f 171 192 193
f 171 193 172
f 172 193 194
f 172 194 173
f 173 194 195
f 173 195 174
f 174 195 196
f 174 196 175
f 175 196 197
f 175 197 176
f 176 197 198
f 176 198 177
f 177 198 199
f 177 199 178
f 178 199 200
f 178 200 24
f 179 1 201
f 179 201 180
f 180 201 202
f 180 202 181
f 181 202 203
f 181 203 182
f 182 203 204
f 182 204 183
f 183 204 205
f 183 205 184
f 184 205 206
f 184 206 185
f 185 206 207
f 185 207 186
f 186 207 208
f 186 208 187
f 187 208 209
f 187 209 188
f 188 209 210
f 188 210 189
f 189 210 211
f 189 211 190
f 190 211 212
f 190 212 191
f 191 212 213
f 191 213 192
f 192 213 214
f 192 214 193
f 193 214 215
f 193 215 194
f 194 215 216
f 194 216 195
f 195 216 217
f 195 217 196
f 196 217 218
f 196 218 197
f 197 218 219
f 197 219 198
f 198 219 220
f 198 220 199
f 199 220 221
f 199 221 200
f 200 221 222
f 200 222 24
f 201 1 223
f 201 223 202
f 202 223 224
f 202 224 203
f 203 224 225
f 203 225 204
f 204 225 226
f 204 226 205
f 205 226 227
f 205 227 206
f 206 227 228
f 206 228 207
f 207 228 229
f 207 229 208
f 208 229 230
f 208 230 209
f 209 230 231
f 209 231 210
f 210 231 232
f 210 232 211
f 211 232 233
f 211 233 212
f 212 233 234
f 212 234 213
f 213 234 235
f 213 235 214
f 214 235 236
f 214 236 215
f 215 236 237
f 215 237 216
f 216 237 238
f 216 238 217
f 217 238 239
f 217 239 218
f 218 239 240
f 218 240 219
f 219 240 241
f 219 241 220
f 220 241 242
f 220 242 221
f 221 242 243
f 221 243 222
f 222 243 244
f 222 244 24
f 223 1 245
f 223 245 224
f 224 245 246
f 224 246 225
f 225 246 247
f 225 247 226
f 226 247 248
f 226 248 227
f 227 248 249
f 227 249 228
f 228 249 250
f 228 250 229
f 229 250 251
f 229 251 230
f 230 251 252
f 230 252 231
f 231 252 253
f 231 253 232
f 232 253 254
f 232 254 233
f 233 254 255
f 233 255 234
f 234 255 256
f 234 256 235
f 235 256 257
f 235 257 236
f 236 257 258
f 236 258 237
f 237 258 259
f 237 259 238
f 238 259 260
f 238 260 239
f 239 260 261
f 239 261 240
f 240 261 262
f 240 262 241
f 241 262 263
f 241 263 242
f 242 263 264
f 242 264 243
f 243 264 265
f 243 265 244
f 244 265 266
f 244 266 24
f 245 1 267
f 245 267 246
f 246 267 268
f 246 268 247
f 247 268 269
f 247 269 248
f 248 269 270
f 248 270 249
f 249 270 271
f 249 271 250
f 250 271 272
f 250 272 251
f 251 272 273
f 251 273 252
f 252 273 274
f 252 274 253
f 253 274 275
f 253 275 254
f 254 275 276
f 254 276 255
f 255 276 277
f 255 277 256
f 256 277 278
f 256 278 257
f 257 278 279
f 257 279 258
f 258 279 280
f 258 280 259
f 259 280 281
f 259 281 260
f 260 281 282
f 260 282 261
f 261 282 283
f 261 283 262
f 262 283 284
f 262 284 263
f 263 284 285
f 263 285 264
f 264 285 286
f 264 286 265
f 265 286 287
f 265 287 266
f 266 287 288
f 266 288 24
f 267 1 289
f 267 289 268
f 268 289 290
f 268 290 269
f 269 290 291
f 269 291 270
f 270 291 292
f 270 292 271
f 271 292 293
f 271 293 272
f 272 293 294
f 272 294 273
f 273 294 295
f 273 295 274
f 274 295 296
f 274 296 275
f 275 296 297
f 275 297 276
f 276 297 298
f 276 298 277
f 277 298 299
f 277 299 278
f 278 299 300
f 278 300 279
f 279 300 301
f 279 301 280
f 280 301 302
f 280 302 281
f 281 302 303
f 281 303 282
f 282 303 304
f 282 304 283
f 283 304 305
f 283 305 284
f 284 305 306
f 284 306 285
f 285 306 307
f 285 307 286
f 286 307 308
f 286 308 287
f 287 308 309
f 287 309 288
f 288 309 310
f 288 310 24
f 289 1 311
f 289 311 290
f 290 311 312
f 290 312 291
f 291 312 313
f 291 313 292
f 292 313 314
f 292 314 293
f 293 314 315
f 293 315 294
f 294 315 316
f 294 316 295
f 295 316 317
f 295 317 296
f 296 317 318
f 296 318 297
f 297 318 319
f 297 319 298
f 298 319 320
f 298 320 299
f 299 320 321
f 299 321 300
f 300 321 322
f 300 322 301
f 301 322 323
f 301 323 302
f 302 323 324
f 302 324 303
f 303 324 325
f 303 325 304
f 304 325 326
f 304 326 305
f 305 326 327
f 305 327 306
f 306 327 328
f 306 328 307
f 307 328 329
f 307 329 308
f 308 329 330
f 308 330 309
f 309 330 331
f 309 331 310
f 310 331 332
f 310 332 24
f 311 1 333
f 311 333 312
f 312 333 334
f 312 334 313
f 313 334 335
f 313 335 314
f 314 335 336
f 314 336 315
f 315 336 337
f 315 337 316
f 316 337 338
f 316 338 317
f 317 338 339
f 317 339 318
f 318 339 340
f 318 340 319
f 319 340 341
f 319 341 320
f 320 341 342
f 320 342 321
f 321 342 343
f 321 343 322
f 322 343 344
f 322 344 323
f 323 344 345
f 323 345 324
f 324 345 346
f 324 346 325
f 325 346 347
f 325 347 326
f 326 347 348
f 326 348 327
f 327 348 349
f 327 349 328
f 328 349 350
f 328 350 329
f 329 350 351
f 329 351 330
f 330 351 352
f 330 352 331
f 331 352 353
f 331 353 332
f 332 353 354
f 332 354 24
f 333 1 355
f 333 355 334
f 334 355 356
f 334 356 335
f 335 356 357
f 335 357 336
f 336 357 358
f 336 358 337
f 337 358 359
f 337 359 338
f 338 359 360
f 338 360 339
f 339 360 361
f 339 361 340
f 340 361 362
f 340 362 341
f 341 362 363
f 341 363 342
f 342 363 364
f 342 364 343
f 343 364 365
f 343 365 344
f 344 365 366
f 344 366 345
f 345 366 367
f 345 367 346
f 346 367 368
f 346 368 347
f 347 368 369
f 347 369 348
f 348 369 370
f 348 370 349
f 349 370 371
f 349 371 350
f 350 371 372
f 350 372 351
f 351 372 373
f 351 373 352
f 352 373 374
f 352 374 353
f 353 374 375
f 353 375 354
f 354 375 376
f 354 376 24
f 355 1 377
f 355 377 356
f 356 377 378
f 356 378 357
f 357 378 379
f 357 379 358
f 358 379 380
f 358 380 359
f 359 380 381
f 359 381 360
f 360 381 382
f 360 382 361
f 361 382 383
f 361 383 362
f 362 383 384
f 362 384 363
f 363 384 385
f 363 385 364
f 364 385 386
f 364 386 365
f 365 386 387
f 365 387 366
f 366 387 388
f 366 388 367
f 367 388 389
f 367 389 368
f 368 389 390
f 368 390 369
f 369 390 391
f 369 391 370
f 370 391 392
f 370 392 371
f 371 392 393
f 371 393 372
f 372 393 394
f 372 394 373
f 373 394 395
f 373 395 374
f 374 395 396
f 374 396 375
f 375 396 397
f 375 397 376
f 376 397 398
f 376 398 24
f 377 1 399
f 377 399 378
f 378 399 400
f 378 400 379
f 379 400 401
f 379 401 380
f 380 401 402
f 380 402 381
f 381 402 403
f 381 403 382
f 382 403 404
f 382 404 383
f 383 404 405
f 383 405 384
f 384 405 406
f 384 406 385
f 385 406 407
f 385 407 386
f 386 407 408
f 386 408 387
f 387 408 409
f 387 409 388
f 388 409 410
f 388 410 389
f 389 410 411
f 389 411 390
f 390 411 412
f 390 412 391
f 391 412 413
f 391 413 392
f 392 413 414
f 392 414 393
f 393 414 415
f 393 415 394
f 394 415 416
f 394 416 395
f 395 416 417
f 395 417 396
f 396 417 418
f 396 418 397
f 397 418 419
f 397 419 398
f 398 419 420
f 398 420 24
f 399 1 421
f 399 421 400
f 400 421 422
f 400 422 401
f 401 422 423
f 401 423 402
f 402 423 424
f 402 424 403
f 403 424 425
f 403 425 404
f 404 425 426
f 404 426 405
f 405 426 427
f 405 427 406
f 406 427 428
f 406 428 407
f 407 428 429
f 407 429 408
f 408 429 430
f 408 430 409
f 409 430 431
f 409 431 410
f 410 431 432
f 410 432 411
f 411 432 433
f 411 433 412
f 412 433 434
f 412 434 413
f 413 434 435
f 413 435 414
f 414 435 436
f 414 436 415
f 415 436 437
f 415 437 416
f 416 437 438
f 416 438 417
f 417 438 439
f 417 439 418
f 418 439 440
f 418 440 419
f 419 440 441
f 419 441 420
f 420 441 442
f 420 442 24
f 421 1 443
f 421 443 422
f 422 443 444
f 422 444 423
f 423 444 445
f 423 445 424
f 424 445 446
f 424 446 425
f 425 446 447
f 425 447 426
f 426 447 448
f 426 448 427
f 427 448 449
f 427 449 428
f 428 449 450
f 428 450 429
f 429 450 451
f 429 451 430
f 430 451 452
f 430 452 431
f 431 452 453
f 431 453 432
f 432 453 454
f 432 454 433
f 433 454 455
f 433 455 434
f 434 455 456
f 434 456 435
f 435 456 457
f 435 457 436
f 436 457 458
f 436 458 437
f 437 458 459
f 437 459 438
f 438 459 460
f 438 460 439
f 439 460 461
f 439 461 440
f 440 461 462
f 440 462 441
f 441 462 463
f 441 463 442
f 442 463 464
f 442 464 24
f 443 1 465
f 443 465 444
f 444 465 466
f 444 466 445
f 445 466 467
f 445 467 446
f 446 467 468
f 446 468 447
f 447 468 469
f 447 469 448
f 448 469 470
f 448 470 449
f 449 470 471
f 449 471 450
f 450 471 472
f 450 472 451
f 451 472 473
f 451 473 452
f 452 473 474
f 452 474 453
f 453 474 475
f 453 475 454
f 454 475 476
f 454 476 455
f 455 476 477
f 455 477 456
f 456 477 478
f 456 478 457
f 457 478 479
f 457 479 458
f 458 479 480
f 458 480 459
f 459 480 481
f 459 481 460
f 460 481 482
f 460 482 461
f 461 482 483
f 461 483 462
f 462 483 484
f 462 484 463
f 463 484 485
f 463 485 464
f 464 485 486
f 464 486 24
f 465 1 487
f 465 487 466
f 466 487 488
f 466 488 467
f 467 488 489
f 467 489 468
f 468 489 490
f 468 490 469
f 469 490 491
f 469 491 470
f 470 491 492
f 470 492 471
f 471 492 493
f 471 493 472
f 472 493 494
f 472 494 473
f 473 494 495
f 473 495 474
f 474 495 496
f 474 496 475
f 475 496 497
f 475 497 476
f 476 497 498
f 476 498 477
f 477 498 499
f 477 499 478
f 478 499 500
f 478 500 479
f 479 500 501
f 479 501 480
f 480 501 502
f 480 502 481
f 481 502 503
f 481 503 482
f 482 503 504
f 482 504 483
f 483 504 505
f 483 505 484
f 484 505 506
f 484 506 485
f 485 506 507
f 485 507 486
f 486 507 508
f 486 508 24
f 487 1 509
f 487 509 488
f 488 509 510
f 488 510 489
f 489 510 511
f 489 511 490
f 490 511 512
f 490 512 491
f 491 512 513
f 491 513 492
f 492 513 514
f 492 514 493
f 493 514 515
f 493 515 494
f 494 515 516
f 494 516 495
f 495 516 517
f 495 517 496
f 496 517 518
f 496 518 497
f 497 518 519
f 497 519 498
f 498 519 520
f 498 520 499
f 499 520 521
f 499 521 500
f 500 521 522
f 500 522 501
f 501 522 523
f 501 523 502
f 502 523 524
f 502 524 503
f 503 524 525
f 503 525 504
f 504 525 526
f 504 526 505
f 505 526 527
f 505 527 506
f 506 527 528
f 506 528 507
f 507 528 529
f 507 529 508
f 508 529 530
f 508 530 24
f 509 1 531
f 509 531 510
f 510 531 532
f 510 532 511
f 511 532 533
f 511 533 512
f 512 533 534
f 512 534 513
f 513 534 535
f 513 535 514
f 514 535 536
f 514 536 515
f 515 536 537
f 515 537 516
f 516 537 538
f 516 538 517
f 517 538 539
f 517 539 518
f 518 539 540
f 518 540 519
f 519 540 541
f 519 541 520
f 520 541 542
f 520 542 521
f 521 542 543
f 521 543 522
f 522 543 544
f 522 544 523
f 523 544 545
f 523 545 524
f 524 545 546
f 524 546 525
f 525 546 547
f 525 547 526
f 526 547 548
f 526 548 527
f 527 548 549
f 527 549 528
f 528 549 550
f 528 550 529
f 529 550 551
f 529 551 530
f 530 551 552
f 530 552 24
f 531 1 553
f 531 553 532
f 532 553 554
f 532 554 533
f 533 554 555
f 533 555 534
f 534 555 556
f 534 556 535
f 535 556 557
f 535 557 536
f 536 557 558
f 536 558 537
f 537 558 559
f 537 559 538
f 538 559 560
f 538 560 539
f 539 560 561
f 539 561 540
f 540 561 562
f 540 562 541
f 541 562 563
f 541 563 542
f 542 563 564
f 542 564 543
f 543 564 565
f 543 565 544
f 544 565 566
f 544 566 545
f 545 566 567
f 545 567 546
f 546 567 568
f 546 568 547
f 547 568 569
f 547 569 548
f 548 569 570
f 548 570 549
f 549 570 571
f 549 571 550
f 550 571 572
f 550 572 551
f 551 572 573
f 551 573 552
f 552 573 574
f 552 574 24
f 553 1 575
f 553 575 554
f 554 575 576
f 554 576 555
f 555 576 577
f 555 577 556
f 556 577 578
f 556 578 557
f 557 578 579
f 557 579 558
f 558 579 580
f 558 580 559
f 559 580 581
f 559 581 560
f 560 581 582
f 560 582 561
f 561 582 583
f 561 583 562
f 562 583 584
f 562 584 563
f 563 584 585
f 563 585 564
f 564 585 586
f 564 586 565
f 565 586 587
f 565 587 566
f 566 587 588
f 566 588 567
f 567 588 589
f 567 589 568
f 568 589 590
f 568 590 569
f 569 590 591
f 569 591 570
f 570 591 592
f 570 592 571
f 571 592 593
f 571 593 572
f 572 593 594
f 572 594 573
f 573 594 595
f 573 595 574
f 574 595 596
f 574 596 24
f 575 1 597
f 575 597 576
f 576 597 598
f 576 598 577
f 577 598 599
f 577 599 578
f 578 599 600
f 578 600 579
f 579 600 601
f 579 601 580
f 580 601 602
f 580 602 581
f 581 602 603
f 581 603 582
f 582 603 604
f 582 604 583
f 583 604 605
f 583 605 584
f 584 605 606
f 584 606 585
f 585 606 607
f 585 607 586
f 586 607 608
f 586 608 587
f 587 608 609
f 587 609 588
f 588 609 610
f 588 610 589
f 589 610 611
f 589 611 590
f 590 611 612
f 590 612 591
f 591 612 613
f 591 613 592
f 592 613 614
f 592 614 593
f 593 614 615
f 593 615 594
f 594 615 616
f 594 616 595
f 595 616 617
f 595 617 596
f 596 617 618
f 596 618 24
f 597 1 619
f 597 619 598
f 598 619 620
f 598 620 599
f 599 620 621
f 599 621 600
f 600 621 622
f 600 622 601
f 601 622 623
f 601 623 602
f 602 623 624
f 602 624 603
f 603 624 625
f 603 625 604
f 604 625 626
f 604 626 605
f 605 626 627
f 605 627 606
f 606 627 628
f 606 628 607
f 607 628 629
f 607 629 608
f 608 629 630
f 608 630 609
f 609 630 631
f 609 631 610
f 610 631 632
f 610 632 611
f 611 632 633
f 611 633 612
f 612 633 634
f 612 634 613
f 613 634 635
f 613 635 614
f 614 635 636
f 614 636 615
f 615 636 637
f 615 637 616
f 616 637 638
f 616 638 617
f 617 638 639
f 617 639 618
f 618 639 640
f 618 640 24
f 619 1 641
f 619 641 620
f 620 641 642
f 620 642 621
f 621 642 643
f 621 643 622
f 622 643 644
f 622 644 623
f 623 644 645
f 623 645 624
f 624 645 646
f 624 646 625
f 625 646 647
f 625 647 626
f 626 647 648
f 626 648 627
f 627 648 649
f 627 649 628
f 628 649 650
f 628 650 629
f 629 650 651
f 629 651 630
f 630 651 652
f 630 652 631
f 631 652 653
f 631 653 632
f 632 653 654
f 632 654 633
f 633 654 655
f 633 655 634
f 634 655 656
f 634 656 635
f 635 656 657
f 635 657 636
f 636 657 658
f 636 658 637
f 637 658 659
f 637 659 638
f 638 659 660
f 638 660 639
f 639 660 661
f 639 661 640
f 640 661 662
f 640 662 24
f 641 1 663
f 641 663 642
f 642 663 664
f 642 664 643
f 643 664 665
f 643 665 644
f 644 665 666
f 644 666 645
f 645 666 667
f 645 667 646
f 646 667 668
f 646 668 647
f 647 668 669
f 647 669 648
f 648 669 670
f 648 670 649
f 649 670 671
f 649 671 650
f 650 671 672
f 650 672 651
f 651 672 673
f 651 673 652
f 652 673 674
f 652 674 653
f 653 674 675
f 653 675 654
f 654 675 676
f 654 676 655
f 655 676 677
f 655 677 656
f 656 677 678
f 656 678 657
f 657 678 679
f 657 679 658
f 658 679 680
f 658 680 659
f 659 680 681
f 659 681 660
f 660 681 682
f 660 682 661
f 661 682 683
f 661 683 662
f 662 683 684
f 662 684 24
f 663 1 685
f 663 685 664
f 664 685 686
f 664 686 665
f 665 686 687
f 665 687 666
f 666 687 688
f 666 688 667
f 667 688 689
f 667 689 668
f 668 689 690
f 668 690 669
f 669 690 691
f 669 691 670
f 670 691 692
f 670 692 671
f 671 692 693
f 671 693 672
f 672 693 694
f 672 694 673
f 673 694 695
f 673 695 674
f 674 695 696
f 674 696 675
f 675 696 697
f 675 697 676
f 676 697 698
f 676 698 677
f 677 698 699
f 677 699 678
f 678 699 700
f 678 700 679
f 679 700 701
f 679 701 680
f 680 701 702
f 680 702 681
f 681 702 703
f 681 703 682
f 682 703 704
f 682 704 683
f 683 704 705
f 683 705 684
f 684 705 706
f 684 706 24
f 685 1 707
f 685 707 686
f 686 707 708
f 686 708 687
f 687 708 709
f 687 709 688
f 688 709 710
f 688 710 689
f 689 710 711
f 689 711 690
f 690 711 712
f 690 712 691
f 691 712 713
f 691 713 692
f 692 713 714
f 692 714 693
f 693 714 715
f 693 715 694
f 694 715 716
f 694 716 695
f 695 716 717
f 695 717 696
f 696 717 718
f 696 718 697
f 697 718 719
f 697 719 698
f 698 719 720
f 698 720 699
f 699 720 721
f 699 721 700
f 700 721 722
f 700 722 701
f 701 722 723
f 701 723 702
f 702 723 724
f 702 724 703
f 703 724 725
f 703 725 704
f 704 725 726
f 704 726 705
f 705 726 727
f 705 727 706
f 706 727 728
f 706 728 24
f 707 1 729
f 707 729 708
f 708 729 730
f 708 730 709
f 709 730 731
f 709 731 710
f 710 731 732
f 710 732 711
f 711 732 733
f 711 733 712
f 712 733 734
f 712 734 713
f 713 734 735
f 713 735 714
f 714 735 736
f 714 736 715
f 715 736 737
f 715 737 716
f 716 737 738
f 716 738 717
f 717 738 739
f 717 739 718
f 718 739 740
f 718 740 719
f 719 740 741
f 719 741 720
f 720 741 742
f 720 742 721
f 721 742 743
f 721 743 722
f 722 743 744
f 722 744 723
f 723 744 745
f 723 745 724
f 724 745 746
f 724 746 725
f 725 746 747
f 725 747 726
f 726 747 748
f 726 748 727
f 727 748 749
f 727 749 728
f 728 749 750
f 728 750 24
f 729 1 751
f 729 751 730
f 730 751 752
f 730 752 731
f 731 752 753
f 731 753 732
f 732 753 754
f 732 754 733
f 733 754 755
f 733 755 734
f 734 755 756
f 734 756 735
f 735 756 757
f 735 757 736
f 736 757 758
f 736 758 737
f 737 758 759
f 737 759 738
f 738 759 760
f 738 760 739
f 739 760 761
f 739 761 740
f 740 761 762
f 740 762 741
f 741 762 763
f 741 763 742
f 742 763 764
f 742 764 743
f 743 764 765
f 743 765 744
f 744 765 766
f 744 766 745
f 745 766 767
f 745 767 746
f 746 767 768
f 746 768 747
f 747 768 769
f 747 769 748
f 748 769 770
f 748 770 749
f 749 770 771
f 749 771 750
f 750 771 772
f 750 772 24
f 751 1 773
f 751 773 752
f 752 773 774
f 752 774 753
f 753 774 775
f 753 775 754
f 754 775 776
f 754 776 755
f 755 776 777
f 755 777 756
f 756 777 778
f 756 778 757
f 757 778 779
f 757 779 758
f 758 779 780
f 758 780 759
f 759 780 781
f 759 781 760
f 760 781 782
f 760 782 761
f 761 782 783
f 761 783 762
f 762 783 784
f 762 784 763
f 763 784 785
f 763 785 764
f 764 785 786
f 764 786 765
f 765 786 787
f 765 787 766
f 766 787 788
f 766 788 767
f 767 788 789
f 767 789 768
f 768 789 790
f 768 790 769
f 769 790 791
f 769 791 770
f 770 791 792
f 770 792 771
f 771 792 793
f 771 793 772
f 772 793 794
f 772 794 24
f 773 1 795
f 773 795 774
f 774 795 796
f 774 796 775
f 775 796 797
f 775 797 776
f 776 797 798
f 776 798 777
f 777 798 799
f 777 799 778
f 778 799 800
f 778 800 779
f 779 800 801
f 779 801 780
f 780 801 802
f 780 802 781
f 781 802 803
f 781 803 782
f 782 803 804
f 782 804 783
f 783 804 805
f 783 805 784
f 784 805 806
f 784 806 785
f 785 806 807
f 785 807 786
f 786 807 808
f 786 808 787
f 787 808 809
f 787 809 788
f 788 809 810
f 788 810 789
f 789 810 811
f 789 811 790
f 790 811 812
f 790 812 791
f 791 812 813
f 791 813 792
f 792 813 814
f 792 814 793
f 793 814 815
f 793 815 794
f 794 815 816
f 794 816 24
f 795 1 817
f 795 817 796
f 796 817 818
f 796 818 797
f 797 818 819
f 797 819 798
f 798 819 820
f 798 820 799
f 799 820 821
f 799 821 800
f 800 821 822
f 800 822 801
f 801 822 823
f 801 823 802
f 802 823 824
f 802 824 803
f 803 824 825
f 803 825 804
f 804 825 826
f 804 826 805
f 805 826 827
f 805 827 806
f 806 827 828
f 806 828 807
f 807 828 829
f 807 829 808
f 808 829 830
f 808 830 809
f 809 830 831
f 809 831 810
f 810 831 832
f 810 832 811
f 811 832 833
f 811 833 812
f 812 833 834
f 812 834 813
f 813 834 835
f 813 835 814
f 814 835 836
f 814 836 815
f 815 836 837
f 815 837 816
f 816 837 838
f 816 838 24
f 817 1 839
f 817 839 818
f 818 839 840
f 818 840 819
f 819 840 841
f 819 841 820
f 820 841 842
f 820 842 821
f 821 842 843
f 821 843 822
f 822 843 844
f 822 844 823
f 823 844 845
f 823 845 824
f 824 845 846
f 824 846 825
f 825 846 847
f 825 847 826
f 826 847 848
f 826 848 827
f 827 848 849
f 827 849 828
f 828 849 850
f 828 850 829
f 829 850 851
f 829 851 830
f 830 851 852
f 830 852 831
f 831 852 853
f 831 853 832
f 832 853 854
f 832 854 833
f 833 854 855
f 833 855 834
f 834 855 856
f 834 856 835
f 835 856 857
f 835 857 836
f 836 857 858
f 836 858 837
f 837 858 859
f 837 859 838
f 838 859 860
f 838 860 24
f 839 1 861
f 839 861 840
f 840 861 862
f 840 862 841
f 841 862 863
f 841 863 842
f 842 863 864
f 842 864 843
f 843 864 865
f 843 865 844
f 844 865 866
f 844 866 845
f 845 866 867
f 845 867 846
f 846 867 868
f 846 868 847
f 847 868 869
f 847 869 848
f 848 869 870
f 848 870 849
f 849 870 871
f 849 871 850
f 850 871 872
f 850 872 851
f 851 872 873
f 851 873 852
f 852 873 874
f 852 874 853
f 853 874 875
f 853 875 854
f 854 875 876
f 854 876 855
f 855 876 877
f 855 877 856
f 856 877 878
f 856 878 857
f 857 878 879
f 857 879 858
f 858 879 880
f 858 880 859
f 859 880 881
f 859 881 860
f 860 881 882
f 860 882 24
f 861 1 883
f 861 883 862
f 862 883 884
f 862 884 863
f 863 884 885
f 863 885 864
f 864 885 886
f 864 886 865
f 865 886 887
f 865 887 866
f 866 887 888
f 866 888 867
f 867 888 889
f 867 889 868
f 868 889 890
f 868 890 869
f 869 890 891
f 869 891 870
f 870 891 892
f 870 892 871
f 871 892 893
f 871 893 872
f 872 893 894
f 872 894 873
f 873 894 895
f 873 895 874
f 874 895 896
f 874 896 875
f 875 896 897
f 875 897 876
f 876 897 898
f 876 898 877
f 877 898 899
f 877 899 878
f 878 899 900
f 878 900 879
f 879 900 901
f 879 901 880
f 880 901 902
f 880 902 881
f 881 902 903
f 881 903 882
f 882 903 904
f 882 904 24
f 883 1 905
f 883 905 884
f 884 905 906
f 884 906 885
f 885 906 907
f 885 907 886
f 886 907 908
f 886 908 887
f 887 908 909
f 887 909 888
f 888 909 910
f 888 910 889
f 889 910 911
f 889 911 890
f 890 911 912
f 890 912 891
f 891 912 913
f 891 913 892
f 892 913 914
f 892 914 893
f 893 914 915
f 893 915 894
f 894 915 916
f 894 916 895
f 895 916 917
f 895 917 896
f 896 917 918
f 896 918 897
f 897 918 919
f 897 919 898
f 898 919 920
f 898 920 899
f 899 920 921
f 899 921 900
f 900 921 922
f 900 922 901
f 901 922 923
f 901 923 902
f 902 923 924
f 902 924 903
f 903 924 925
f 903 925 904
f 904 925 926
f 904 926 24
f 905 1 927
f 905 927 906
f 906 927 928
f 906 928 907
f 907 928 929
f 907 929 908
f 908 929 930
f 908 930 909
f 909 930 931
f 909 931 910
f 910 931 932
f 910 932 911
f 911 932 933
f 911 933 912
f 912 933 934
f 912 934 913
f 913 934 935
f 913 935 914
f 914 935 936
f 914 936 915
f 915 936 937
f 915 937 916
f 916 937 938
f 916 938 917
f 917 938 939
f 917 939 918
f 918 939 940
f 918 940 919
f 919 940 941
f 919 941 920
f 920 941 942
f 920 942 921
f 921 942 943
f 921 943 922
f 922 943 944
f 922 944 923
f 923 944 945
f 923 945 924
f 924 945 946
f 924 946 925
f 925 946 947
f 925 947 926
f 926 947 948
f 926 948 24
f 927 1 949
f 927 949 928
f 928 949 950
f 928 950 929
f 929 950 951
f 929 951 930
f 930 951 952
f 930 952 931
f 931 952 953
f 931 953 932
f 932 953 954
f 932 954 933
f 933 954 955
f 933 955 934
f 934 955 956
f 934 956 935
f 935 956 957
f 935 957 936
f 936 957 958
f 936 958 937
f 937 958 959
f 937 959 938
f 938 959 960
f 938 960 939
f 939 960 961
f 939 961 940
f 940 961 962
f 940 962 941
f 941 962 963
f 941 963 942
f 942 963 964
f 942 964 943
f 943 964 965
f 943 965 944
f 944 965 966
f 944 966 945
f 945 966 967
f 945 967 946
f 946 967 968
f 946 968 947
f 947 968 969
f 947 969 948
f 948 969 970
f 948 970 24
f 949 1 971
f 949 971 950
f 950 971 972
f 950 972 951
f 951 972 973
f 951 973 952
f 952 973 974
f 952 974 953
f 953 974 975
f 953 975 954
f 954 975 976
f 954 976 955
f 955 976 977
f 955 977 956
f 956 977 978
f 956 978 957
f 957 978 979
f 957 979 958
f 958 979 980
f 958 980 959
f 959 980 981
f 959 981 960
f 960 981 982
f 960 982 961
f 961 982 983
f 961 983 962
f 962 983 984
f 962 984 963
f 963 984 985
f 963 985 964
f 964 985 986
f 964 986 965
f 965 986 987
f 965 987 966
f 966 987 988
f 966 988 967
f 967 988 989
f 967 989 968
f 968 989 990
f 968 990 969
f 969 990 991
f 969 991 970
f 970 991 992
f 970 992 24
f 971 1 993
f 971 993 972
f 972 993 994
f 972 994 973
f 973 994 995
f 973 995 974
f 974 995 996
f 974 996 975
f 975 996 997
f 975 997 976
f 976 997 998
f 976 998 977
f 977 998 999
f 977 999 978
f 978 999 1000
f 978 1000 979
f 979 1000 1001
f 979 1001 980
f 980 1001 1002
f 980 1002 981
f 981 1002 1003
f 981 1003 982
f 982 1003 1004
f 982 1004 983
f 983 1004 1005
f 983 1005 984
f 984 1005 1006
f 984 1006 985
f 985 1006 1007
f 985 1007 986
f 986 1007 1008
f 986 1008 987
f 987 1008 1009
f 987 1009 988
f 988 1009 1010
f 988 1010 989
f 989 1010 1011
f 989 1011 990
f 990 1011 1012
f 990 1012 991
f 991 1012 1013
f 991 1013 992
f 992 1013 1014
f 992 1014 24
f 993 1 1015
f 993 1015 994
f 994 1015 1016
f 994 1016 995
f 995 1016 1017
f 995 1017 996
f 996 1017 1018
f 996 1018 997
f 997 1018 1019
f 997 1019 998
f 998 1019 1020
f 998 1020 999
f 999 1020 1021
f 999 1021 1000
f 1000 1021 1022
f 1000 1022 1001
f 1001 1022 1023
f 1001 1023 1002
f 1002 1023 1024
f 1002 1024 1003
f 1003 1024 1025
f 1003 1025 1004
f 1004 1025 1026
f 1004 1026 1005
f 1005 1026 1027
f 1005 1027 1006
f 1006 1027 1028
f 1006 1028 1007
f 1007 1028 1029
f 1007 1029 1008
f 1008 1029 1030
f 1008 1030 1009
f 1009 1030 1031
f 1009 1031 1010
f 1010 1031 1032
f 1010 1032 1011
f 1011 1032 1033
f 1011 1033 1012
f 1012 1033 1034
f 1012 1034 1013
f 1013 1034 1035
f 1013 1035 1014
f 1014 1035 1036
f 1014 1036 24
f 1015 1 1037
f 1015 1037 1016
f 1016 1037 1038
f 1016 1038 1017
f 1017 1038 1039
f 1017 1039 1018
f 1018 1039 1040
f 1018 1040 1019
f 1019 1040 1041
f 1019 1041 1020
f 1020 1041 1042
f 1020 1042 1021
f 1021 1042 1043
f 1021 1043 1022
f 1022 1043 1044
f 1022 1044 1023
f 1023 1044 1045
f 1023 1045 1024
f 1024 1045 1046
f 1024 1046 1025
f 1025 1046 1047
f 1025 1047 1026
f 1026 1047 1048
f 1026 1048 1027
f 1027 1048 1049
f 1027 1049 1028
f 1028 1049 1050
f 1028 1050 1029
f 1029 1050 1051
f 1029 1051 1030
f 1030 1051 1052
f 1030 1052 1031
f 1031 1052 1053
f 1031 1053 1032
f 1032 1053 1054
f 1032 1054 1033
f 1033 1054 1055
f 1033 1055 1034
f 1034 1055 1056
f 1034 1056 1035
f 1035 1056 1057
f 1035 1057 1036
f 1036 1057 1058
f 1036 1058 24
f 1037 1 2
f 1037 2 1038
f 1038 2 3
f 1038 3 1039
f 1039 3 4
f 1039 4 1040
f 1040 4 5
f 1040 5 1041
f 1041 5 6
f 1041 6 1042
f 1042 6 7
f 1042 7 1043
f 1043 7 8
f 1043 8 1044
f 1044 8 9
f 1044 9 1045
f 1045 9 10
f 1045 10 1046
f 1046 10 11
f 1046 11 1047
f 1047 11 12
f 1047 12 1048
f 1048 12 13
f 1048 13 1049
f 1049 13 14
f 1049 14 1050
f 1050 14 15
f 1050 15 1051
f 1051 15 16
f 1051 16 1052
f 1052 16 17
f 1052 17 1053
f 1053 17 18
f 1053 18 1054
f 1054 18 19
f 1054 19 1055
f 1055 19 20
f 1055 20 1056
f 1056 20 21
f 1056 21 1057
f 1057 21 22
f 1057 22 1058
f 1058 22 23
f 1058 23 24

