# https://github.com/mikedh/trimesh
v 0.00000000 0.00000000 -1.00000000
v 0.20791169 0.00000000 -0.97814760
v 0.40673664 0.00000000 -0.91354546
v 0.58778525 0.00000000 -0.80901699
v 0.74314483 0.00000000 -0.66913061
v 0.86602540 0.00000000 -0.50000000
v 0.95105652 0.00000000 -0.30901699
v 0.99452190 0.00000000 -0.10452846
v 0.99452190 0.00000000 0.10452846
v 0.95105652 0.00000000 0.30901699
v 0.86602540 0.00000000 0.50000000
v 0.74314483 0.00000000 0.66913061
v 0.58778525 0.00000000 0.80901699
v 0.40673664 0.00000000 0.91354546
v 0.20791169 0.00000000 0.97814760
v 0.00000000 0.00000000 1.00000000
v 0.20391673 0.04056156 -0.97814760
v 0.39892131 0.07935038 -0.91354546
v 0.57649112 0.11467121 -0.80901699
v 0.72886551 0.14498036 -0.66913061
v 0.84938497 0.16895317 -0.50000000
v 0.93278223 0.18554192 -0.30901699
v 0.97541244 0.19402160 -0.10452846
v 0.97541244 0.19402160 0.10452846
v 0.93278223 0.18554192 0.30901699
v 0.84938497 0.16895317 0.50000000
v 0.72886551 0.14498036 0.66913061
v 0.57649112 0.11467121 0.80901699
v 0.39892131 0.07935038 0.91354546
v 0.20391673 0.04056156 0.97814760
v 0.19208536 0.07956436 -0.97814760
v 0.37577566 0.15565137 -0.91354546
v 0.54304276 0.22493568 -0.80901699
v 0.68657629 0.28438921 -0.66913061
v 0.80010315 0.33141357 -0.50000000
v 0.87866165 0.36395357 -0.30901699
v 0.91881842 0.38058705 -0.10452846
v 0.91881842 0.38058705 0.10452846
v 0.87866165 0.36395357 0.30901699
v 0.80010315 0.33141357 0.50000000
v 0.68657629 0.28438921 0.66913061
v 0.54304276 0.22493568 0.80901699
v 0.37577566 0.15565137 0.91354546
v 0.19208536 0.07956436 0.97814760
v 0.17287225 0.11550955 -0.97814760
v 0.33818916 0.22597077 -0.91354546
v 0.48872558 0.32655599 -0.80901699
v 0.61790234 0.41286914 -0.66913061
v 0.72007381 0.48113794 -0.50000000
v 0.79077459 0.52837869 -0.30901699
v 0.82691473 0.55252676 -0.10452846
v 0.82691473 0.55252676 0.10452846
v 0.79077459 0.52837869 0.30901699
v 0.72007381 0.48113794 0.50000000
v 0.61790234 0.41286914 0.66913061
v 0.48872558 0.32655599 0.80901699
v 0.33818916 0.22597077 0.91354546
v 0.17287225 0.11550955 0.97814760
v 0.14701577 0.14701577 -0.97814760
v 0.28760624 0.28760624 -0.91354546
v 0.41562694 0.41562694 -0.80901699
v 0.52548275 0.52548275 -0.66913061
v 0.61237244 0.61237244 -0.50000000
v 0.67249851 0.67249851 -0.30901699
v 0.70323318 0.70323318 -0.10452846
v 0.70323318 0.70323318 0.10452846
v 0.67249851 0.67249851 0.30901699
v 0.61237244 0.61237244 0.50000000
v 0.52548275 0.52548275 0.66913061
v 0.41562694 0.41562694 0.80901699
v 0.28760624 0.28760624 0.91354546
v 0.14701577 0.14701577 0.97814760
v 0.11550955 0.17287225 -0.97814760
v 0.22597077 0.33818916 -0.91354546
v 0.32655599 0.48872558 -0.80901699
v 0.41286914 0.61790234 -0.66913061
v 0.48113794 0.72007381 -0.50000000
v 0.52837869 0.79077459 -0.30901699
v 0.55252676 0.82691473 -0.10452846
v 0.55252676 0.82691473 0.10452846
v 0.52837869 0.79077459 0.30901699
v 0.48113794 0.72007381 0.50000000
v 0.41286914 0.61790234 0.66913061
v 0.32655599 0.48872558 0.80901699
v 0.22597077 0.33818916 0.91354546
v 0.11550955 0.17287225 0.97814760
v 0.07956436 0.19208536 -0.97814760
v 0.15565137 0.37577566 -0.91354546
v 0.22493568 0.54304276 -0.80901699
v 0.28438921 0.68657629 -0.66913061
v 0.33141357 0.80010315 -0.50000000
v 0.36395357 0.87866165 -0.30901699
v 0.38058705 0.91881842 -0.10452846
v 0.38058705 0.91881842 0.10452846
v 0.36395357 0.87866165 0.30901699
v 0.33141357 0.80010315 0.50000000
v 0.28438921 0.68657629 0.66913061
v 0.22493568 0.54304276 0.80901699
v 0.15565137 0.37577566 0.91354546
v 0.07956436 0.19208536 0.97814760
v 0.04056156 0.20391673 -0.97814760
v 0.07935038 0.39892131 -0.91354546
v 0.11467121 0.57649112 -0.80901699
v 0.14498036 0.72886551 -0.66913061
v 0.16895317 0.84938497 -0.50000000
v 0.18554192 0.93278223 -0.30901699
v 0.19402160 0.97541244 -0.10452846
v 0.19402160 0.97541244 0.10452846
v 0.18554192 0.93278223 0.30901699
v 0.16895317 0.84938497 0.50000000
v 0.14498036 0.72886551 0.66913061
v 0.11467121 0.57649112 0.80901699
v 0.07935038 0.39892131 0.91354546
v 0.04056156 0.20391673 0.97814760
v 0.00000000 0.20791169 -0.97814760
v 0.00000000 0.40673664 -0.91354546
v 0.00000000 0.58778525 -0.80901699
v 0.00000000 0.74314483 -0.66913061
v 0.00000000 0.86602540 -0.50000000
v 0.00000000 0.95105652 -0.30901699
v 0.00000000 0.99452190 -0.10452846
v 0.00000000 0.99452190 0.10452846
v 0.00000000 0.95105652 0.30901699
v 0.00000000 0.86602540 0.50000000
v 0.00000000 0.74314483 0.66913061
v 0.00000000 0.58778525 0.80901699
v 0.00000000 0.40673664 0.91354546
v 0.00000000 0.20791169 0.97814760
v -0.04056156 0.20391673 -0.97814760
v -0.07935038 0.39892131 -0.91354546
v -0.11467121 0.57649112 -0.80901699
v -0.14498036 0.72886551 -0.66913061
v -0.16895317 0.84938497 -0.50000000
v -0.18554192 0.93278223 -0.30901699
v -0.19402160 0.97541244 -0.10452846
v -0.19402160 0.97541244 0.10452846
v -0.18554192 0.93278223 0.30901699
v -0.16895317 0.84938497 0.50000000
v -0.14498036 0.72886551 0.66913061
v -0.11467121 0.57649112 0.80901699
v -0.07935038 0.39892131 0.91354546
v -0.04056156 0.20391673 0.97814760
v -0.07956436 0.19208536 -0.97814760
v -0.15565137 0.37577566 -0.91354546
v -0.22493568 0.54304276 -0.80901699
v -0.28438921 0.68657629 -0.66913061
v -0.33141357 0.80010315 -0.50000000
v -0.36395357 0.87866165 -0.30901699
v -0.38058705 0.91881842 -0.10452846
v -0.38058705 0.91881842 0.10452846
v -0.36395357 0.87866165 0.30901699
v -0.33141357 0.80010315 0.50000000
v -0.28438921 0.68657629 0.66913061
v -0.22493568 0.54304276 0.80901699
v -0.15565137 0.37577566 0.91354546
v -0.07956436 0.19208536 0.97814760
v -0.11550955 0.17287225 -0.97814760
v -0.22597077 0.33818916 -0.91354546
v -0.32655599 0.48872558 -0.80901699
v -0.41286914 0.61790234 -0.66913061
v -0.48113794 0.72007381 -0.50000000
v -0.52837869 0.79077459 -0.30901699
v -0.55252676 0.82691473 -0.10452846
v -0.55252676 0.82691473 0.10452846
v -0.52837869 0.79077459 0.30901699
v -0.48113794 0.72007381 0.50000000
v -0.41286914 0.61790234 0.66913061
v -0.32655599 0.48872558 0.80901699
v -0.22597077 0.33818916 0.91354546
v -0.11550955 0.17287225 0.97814760
v -0.14701577 0.14701577 -0.97814760
v -0.28760624 0.28760624 -0.91354546
v -0.41562694 0.41562694 -0.80901699
v -0.52548275 0.52548275 -0.66913061
v -0.61237244 0.61237244 -0.50000000
v -0.67249851 0.67249851 -0.30901699
v -0.70323318 0.70323318 -0.10452846
v -0.70323318 0.70323318 0.10452846
v -0.67249851 0.67249851 0.30901699
v -0.61237244 0.61237244 0.50000000
v -0.52548275 0.52548275 0.66913061
v -0.41562694 0.41562694 0.80901699
v -0.28760624 0.28760624 0.91354546
v -0.14701577 0.14701577 0.97814760
v -0.17287225 0.11550955 -0.97814760
v -0.33818916 0.22597077 -0.91354546
v -0.48872558 0.32655599 -0.80901699
v -0.61790234 0.41286914 -0.66913061
v -0.72007381 0.48113794 -0.50000000
v -0.79077459 0.52837869 -0.30901699
v -0.82691473 0.55252676 -0.10452846
v -0.82691473 0.55252676 0.10452846
v -0.79077459 0.52837869 0.30901699
v -0.72007381 0.48113794 0.50000000
v -0.61790234 0.41286914 0.66913061
v -0.48872558 0.32655599 0.80901699
v -0.33818916 0.22597077 0.91354546
v -0.17287225 0.11550955 0.97814760
v -0.19208536 0.07956436 -0.97814760
v -0.37577566 0.15565137 -0.91354546
v -0.54304276 0.22493568 -0.80901699
v -0.68657629 0.28438921 -0.66913061
v -0.80010315 0.33141357 -0.50000000
v -0.87866165 0.36395357 -0.30901699
v -0.91881842 0.38058705 -0.10452846
v -0.91881842 0.38058705 0.10452846
v -0.87866165 0.36395357 0.30901699
v -0.80010315 0.33141357 0.50000000
v -0.68657629 0.28438921 0.66913061
v -0.54304276 0.22493568 0.80901699
v -0.37577566 0.15565137 0.91354546
v -0.19208536 0.07956436 0.97814760
v -0.20391673 0.04056156 -0.97814760
v -0.39892131 0.07935038 -0.91354546
v -0.57649112 0.11467121 -0.80901699
v -0.72886551 0.14498036 -0.66913061
v -0.84938497 0.16895317 -0.50000000
v -0.93278223 0.18554192 -0.30901699
v -0.97541244 0.19402160 -0.10452846
v -0.97541244 0.19402160 0.10452846
v -0.93278223 0.18554192 0.30901699
v -0.84938497 0.16895317 0.50000000
v -0.72886551 0.14498036 0.66913061
v -0.57649112 0.11467121 0.80901699
v -0.39892131 0.07935038 0.91354546
v -0.20391673 0.04056156 0.97814760
v -0.20791169 0.00000000 -0.97814760
v -0.40673664 0.00000000 -0.91354546
v -0.58778525 0.00000000 -0.80901699
v -0.74314483 0.00000000 -0.66913061
v -0.86602540 0.00000000 -0.50000000
v -0.95105652 0.00000000 -0.30901699
v -0.99452190 0.00000000 -0.10452846
v -0.99452190 0.00000000 0.10452846
v -0.95105652 0.00000000 0.30901699
v -0.86602540 0.00000000 0.50000000
v -0.74314483 0.00000000 0.66913061
v -0.58778525 0.00000000 0.80901699
v -0.40673664 0.00000000 0.91354546
v -0.20791169 0.00000000 0.97814760
v -0.20391673 -0.04056156 -0.97814760
v -0.39892131 -0.07935038 -0.91354546
v -0.57649112 -0.11467121 -0.80901699
v -0.72886551 -0.14498036 -0.66913061
v -0.84938497 -0.16895317 -0.50000000
v -0.93278223 -0.18554192 -0.30901699
v -0.97541244 -0.19402160 -0.10452846
v -0.97541244 -0.19402160 0.10452846
v -0.93278223 -0.18554192 0.30901699
v -0.84938497 -0.16895317 0.50000000
v -0.72886551 -0.14498036 0.66913061
v -0.57649112 -0.11467121 0.80901699
v -0.39892131 -0.07935038 0.91354546
v -0.20391673 -0.04056156 0.97814760
v -0.19208536 -0.07956436 -0.97814760
v -0.37577566 -0.15565137 -0.91354546
v -0.54304276 -0.22493568 -0.80901699
v -0.68657629 -0.28438921 -0.66913061
v -0.80010315 -0.33141357 -0.50000000
v -0.87866165 -0.36395357 -0.30901699
v -0.91881842 -0.38058705 -0.10452846
v -0.91881842 -0.38058705 0.10452846
v -0.87866165 -0.36395357 0.30901699
v -0.80010315 -0.33141357 0.50000000
v -0.68657629 -0.28438921 0.66913061
v -0.54304276 -0.22493568 0.80901699
v -0.37577566 -0.15565137 0.91354546
v -0.19208536 -0.07956436 0.97814760
v -0.17287225 -0.11550955 -0.97814760
v -0.33818916 -0.22597077 -0.91354546
v -0.48872558 -0.32655599 -0.80901699
v -0.61790234 -0.41286914 -0.66913061
v -0.72007381 -0.48113794 -0.50000000
v -0.79077459 -0.52837869 -0.30901699
v -0.82691473 -0.55252676 -0.10452846
v -0.82691473 -0.55252676 0.10452846
v -0.79077459 -0.52837869 0.30901699
v -0.72007381 -0.48113794 0.50000000
v -0.61790234 -0.41286914 0.66913061
v -0.48872558 -0.32655599 0.80901699
v -0.33818916 -0.22597077 0.91354546
v -0.17287225 -0.11550955 0.97814760
v -0.14701577 -0.14701577 -0.97814760
v -0.28760624 -0.28760624 -0.91354546
v -0.41562694 -0.41562694 -0.80901699
v -0.52548275 -0.52548275 -0.66913061
v -0.61237244 -0.61237244 -0.50000000
v -0.67249851 -0.67249851 -0.30901699
v -0.70323318 -0.70323318 -0.10452846
v -0.70323318 -0.70323318 0.10452846
v -0.67249851 -0.67249851 0.30901699
v -0.61237244 -0.61237244 0.50000000
v -0.52548275 -0.52548275 0.66913061
v -0.41562694 -0.41562694 0.80901699
v -0.28760624 -0.28760624 0.91354546
v -0.14701577 -0.14701577 0.97814760
v -0.11550955 -0.17287225 -0.97814760
v -0.22597077 -0.33818916 -0.91354546
v -0.32655599 -0.48872558 -0.80901699
v -0.41286914 -0.61790234 -0.66913061
v -0.48113794 -0.72007381 -0.50000000
v -0.52837869 -0.79077459 -0.30901699
v -0.55252676 -0.82691473 -0.10452846
v -0.55252676 -0.82691473 0.10452846
v -0.52837869 -0.79077459 0.30901699
v -0.48113794 -0.72007381 0.50000000
v -0.41286914 -0.61790234 0.66913061
v -0.32655599 -0.48872558 0.80901699
v -0.22597077 -0.33818916 0.91354546
v -0.11550955 -0.17287225 0.97814760
v -0.07956436 -0.19208536 -0.97814760
v -0.15565137 -0.37577566 -0.91354546
v -0.22493568 -0.54304276 -0.80901699
v -0.28438921 -0.68657629 -0.66913061
v -0.33141357 -0.80010315 -0.50000000
v -0.36395357 -0.87866165 -0.30901699
v -0.38058705 -0.91881842 -0.10452846
v -0.38058705 -0.91881842 0.10452846
v -0.36395357 -0.87866165 0.30901699
v -0.33141357 -0.80010315 0.50000000
v -0.28438921 -0.68657629 0.66913061
v -0.22493568 -0.54304276 0.80901699
v -0.15565137 -0.37577566 0.91354546
v -0.07956436 -0.19208536 0.97814760
v -0.04056156 -0.20391673 -0.97814760
v -0.07935038 -0.39892131 -0.91354546
v -0.11467121 -0.57649112 -0.80901699
v -0.14498036 -0.72886551 -0.66913061
v -0.16895317 -0.84938497 -0.50000000
v -0.18554192 -0.93278223 -0.30901699
v -0.19402160 -0.97541244 -0.10452846
v -0.19402160 -0.97541244 0.10452846
v -0.18554192 -0.93278223 0.30901699
v -0.16895317 -0.84938497 0.50000000
v -0.14498036 -0.72886551 0.66913061
v -0.11467121 -0.57649112 0.80901699
v -0.07935038 -0.39892131 0.91354546
v -0.04056156 -0.20391673 0.97814760
v -0.00000000 -0.20791169 -0.97814760
v -0.00000000 -0.40673664 -0.91354546
v -0.00000000 -0.58778525 -0.80901699
v -0.00000000 -0.74314483 -0.66913061
v -0.00000000 -0.86602540 -0.50000000
v -0.00000000 -0.95105652 -0.30901699
v -0.00000000 -0.99452190 -0.10452846
v -0.00000000 -0.99452190 0.10452846
v -0.00000000 -0.95105652 0.30901699
v -0.00000000 -0.86602540 0.50000000
v -0.00000000 -0.74314483 0.66913061
v -0.00000000 -0.58778525 0.80901699
v -0.00000000 -0.40673664 0.91354546
v -0.00000000 -0.20791169 0.97814760
v 0.04056156 -0.20391673 -0.97814760
v 0.07935038 -0.39892131 -0.91354546
v 0.11467121 -0.57649112 -0.80901699
v 0.14498036 -0.72886551 -0.66913061
v 0.16895317 -0.84938497 -0.50000000
v 0.18554192 -0.93278223 -0.30901699
v 0.19402160 -0.97541244 -0.10452846
v 0.19402160 -0.97541244 0.10452846
v 0.18554192 -0.93278223 0.30901699
v 0.16895317 -0.84938497 0.50000000
v 0.14498036 -0.72886551 0.66913061
v 0.11467121 -0.57649112 0.80901699
v 0.07935038 -0.39892131 0.91354546
v 0.04056156 -0.20391673 0.97814760
v 0.07956436 -0.19208536 -0.97814760
v 0.15565137 -0.37577566 -0.91354546
v 0.22493568 -0.54304276 -0.80901699
v 0.28438921 -0.68657629 -0.66913061
v 0.33141357 -0.80010315 -0.50000000
v 0.36395357 -0.87866165 -0.30901699
v 0.38058705 -0.91881842 -0.10452846
v 0.38058705 -0.91881842 0.10452846
v 0.36395357 -0.87866165 0.30901699
v 0.33141357 -0.80010315 0.50000000
v 0.28438921 -0.68657629 0.66913061
v 0.22493568 -0.54304276 0.80901699
v 0.15565137 -0.37577566 0.91354546
v 0.07956436 -0.19208536 0.97814760
v 0.11550955 -0.17287225 -0.97814760
v 0.22597077 -0.33818916 -0.91354546
v 0.32655599 -0.48872558 -0.80901699
v 0.41286914 -0.61790234 -0.66913061
v 0.48113794 -0.72007381 -0.50000000
v 0.52837869 -0.79077459 -0.30901699
v 0.55252676 -0.82691473 -0.10452846
v 0.55252676 -0.82691473 0.10452846
v 0.52837869 -0.79077459 0.30901699
v 0.48113794 -0.72007381 0.50000000
v 0.41286914 -0.61790234 0.66913061
v 0.32655599 -0.48872558 0.80901699
v 0.22597077 -0.33818916 0.91354546
v 0.11550955 -0.17287225 0.97814760
v 0.14701577 -0.14701577 -0.97814760
v 0.28760624 -0.28760624 -0.91354546
v 0.41562694 -0.41562694 -0.80901699
v 0.52548275 -0.52548275 -0.66913061
v 0.61237244 -0.61237244 -0.50000000
v 0.67249851 -0.67249851 -0.30901699
v 0.70323318 -0.70323318 -0.10452846
v 0.70323318 -0.70323318 0.10452846
v 0.67249851 -0.67249851 0.30901699
v 0.61237244 -0.61237244 0.50000000
v 0.52548275 -0.52548275 0.66913061
v 0.41562694 -0.41562694 0.80901699
v 0.28760624 -0.28760624 0.91354546
v 0.14701577 -0.14701577 0.97814760
v 0.17287225 -0.11550955 -0.97814760
v 0.33818916 -0.22597077 -0.91354546
v 0.48872558 -0.32655599 -0.80901699
v 0.61790234 -0.41286914 -0.66913061
v 0.72007381 -0.48113794 -0.50000000
v 0.79077459 -0.52837869 -0.30901699
v 0.82691473 -0.55252676 -0.10452846
v 0.82691473 -0.55252676 0.10452846
v 0.79077459 -0.52837869 0.30901699
v 0.72007381 -0.48113794 0.50000000
v 0.61790234 -0.41286914 0.66913061
v 0.48872558 -0.32655599 0.80901699
v 0.33818916 -0.22597077 0.91354546
v 0.17287225 -0.11550955 0.97814760
v 0.19208536 -0.07956436 -0.97814760
v 0.37577566 -0.15565137 -0.91354546
v 0.54304276 -0.22493568 -0.80901699
v 0.68657629 -0.28438921 -0.66913061
v 0.80010315 -0.33141357 -0.50000000
v 0.87866165 -0.36395357 -0.30901699
v 0.91881842 -0.38058705 -0.10452846
v 0.91881842 -0.38058705 0.10452846
v 0.87866165 -0.36395357 0.30901699
v 0.80010315 -0.33141357 0.50000000
v 0.68657629 -0.28438921 0.66913061
v 0.54304276 -0.22493568 0.80901699
v 0.37577566 -0.15565137 0.91354546
v 0.19208536 -0.07956436 0.97814760
v 0.20391673 -0.04056156 -0.97814760
v 0.39892131 -0.07935038 -0.91354546
v 0.57649112 -0.11467121 -0.80901699
v 0.72886551 -0.14498036 -0.66913061
v 0.84938497 -0.16895317 -0.50000000
v 0.93278223 -0.18554192 -0.30901699
v 0.97541244 -0.19402160 -0.10452846
v 0.97541244 -0.19402160 0.10452846
v 0.93278223 -0.18554192 0.30901699
v 0.84938497 -0.16895317 0.50000000
v 0.72886551 -0.14498036 0.66913061
v 0.57649112 -0.11467121 0.80901699
v 0.39892131 -0.07935038 0.91354546
v 0.20391673 -0.04056156 0.97814760
f 2 1 17
f 2 17 3
f 3 17 18
f 3 18 4
f 4 18 19
f 4 19 5
f 5 19 20
f 5 20 6
f 6 20 21
f 6 21 7
f 7 21 22
f 7 22 8
f 8 22 23
f 8 23 9
f 9 23 24
f 9 24 10
f 10 24 25
f 10 25 11
f 11 25 26
f 11 26 12
f 12 26 27
f 12 27 13
f 13 27 28
f 13 28 14
f 14 28 29
f 14 29 15
f 15 29 30
f 15 30 16
f 17 1 31
f 17 31 18
f 18 31 32
f 18 32 19
f 19 32 33
f 19 33 20
f 20 33 34
f 20 34 21
f 21 34 35
f 21 35 22
f 22 35 36
f 22 36 23
f 23 36 37
f 23 37 24
f 24 37 38
f 24 38 25
f 25 38 39
f 25 39 26
f 26 39 40
f 26 40 27
f 27 40 41
f 27 41 28
f 28 41 42
f 28 42 29
f 29 42 43
f 29 43 30
f 30 43 44
f 30 44 16
f 31 1 45
f 31 45 32
f 32 45 46
f 32 46 33
f 33 46 47
f 33 47 34
f 34 47 48
f 34 48 35
f 35 48 49
f 35 49 36
f 36 49 50
f 36 50 37
f 37 50 51
f 37 51 38
f 38 51 52
f 38 52 39
f 39 52 53
f 39 53 40
f 40 53 54
f 40 54 41
f 41 54 55
f 41 55 42
f 42 55 56
f 42 56 43
f 43 56 57
f 43 57 44
f 44 57 58
f 44 58 16
f 45 1 59
f 45 59 46
f 46 59 60
f 46 60 47
f 47 60 61
f 47 61 48
f 48 61 62
f 48 62 49
f 49 62 63
f 49 63 50
f 50 63 64
f 50 64 51
f 51 64 65
f 51 65 52
f 52 65 66
f 52 66 53
f 53 66 67
f 53 67 54
f 54 67 68
f 54 68 55
f 55 68 69
f 55 69 56
f 56 69 70
f 56 70 57
f 57 70 71
f 57 71 58
f 58 71 72
f 58 72 16
f 59 1 73
f 59 73 60
f 60 73 74
f 60 74 61
f 61 74 75
f 61 75 62
f 62 75 76
f 62 76 63
f 63 76 77
f 63 77 64
f 64 77 78
f 64 78 65
f 65 78 79
f 65 79 66
f 66 79 80
f 66 80 67
f 67 80 81
f 67 81 68
f 68 81 82
f 68 82 69
f 69 82 83
f 69 83 70
f 70 83 84
f 70 84 71
f 71 84 85
f 71 85 72
f 72 85 86
f 72 86 16
f 73 1 87
f 73 87 74
f 74 87 88
f 74 88 75
f 75 88 89
f 75 89 76
f 76 89 90
f 76 90 77
f 77 90 91
f 77 91 78
f 78 91 92
f 78 92 79
f 79 92 93
f 79 93 80
f 80 93 94
f 80 94 81
f 81 94 95
f 81 95 82
f 82 95 96
f 82 96 83
f 83 96 97
f 83 97 84
f 84 97 98
f 84 98 85
f 85 98 99
f 85 99 86
f 86 99 100
f 86 100 16
f 87 1 101
f 87 101 88
f 88 101 102
f 88 102 89
f 89 102 103
f 89 103 90
f 90 103 104
f 90 104 91
f 91 104 105
f 91 105 92
f 92 105 106
f 92 106 93
f 93 106 107
f 93 107 94
f 94 107 108
f 94 108 95
f 95 108 109
f 95 109 96
f 96 109 110
f 96 110 97
f 97 110 111
f 97 111 98
f 98 111 112
f 98 112 99
f 99 112 113
f 99 113 100
f 100 113 114
f 100 114 16
f 101 1 115
f 101 115 102
f 102 115 116
f 102 116 103
f 103 116 117
f 103 117 104
f 104 117 118
f 104 118 105
f 105 118 119
f 105 119 106
f 106 119 120
f 106 120 107
f 107 120 121
f 107 121 108
f 108 121 122
f 108 122 109
f 109 122 123
f 109 123 110
f 110 123 124
f 110 124 111
f 111 124 125
f 111 125 112
f 112 125 126
f 112 126 113
f 113 126 127
f 113 127 114
f 114 127 128
f 114 128 16
f 115 1 129
f 115 129 116
f 116 129 130
f 116 130 117
f 117 130 131
f 117 131 118
f 118 131 132
f 118 132 119
f 119 132 133
f 119 133 120
f 120 133 134
f 120 134 121
f 121 134 135
f 121 135 122
f 122 135 136
f 122 136 123
f 123 136 137
f 123 137 124
f 124 137 138
f 124 138 125
f 125 138 139
f 125 139 126
f 126 139 140
f 126 140 127
f 127 140 141
f 127 141 128
f 128 141 142
f 128 142 16
f 129 1 143
f 129 143 130
f 130 143 144
f 130 144 131
f 131 144 145
f 131 145 132
f 132 145 146
f 132 146 133
f 133 146 147
f 133 147 134
f 134 147 148
f 134 148 135
f 135 148 149
f 135 149 136
f 136 149 150
f 136 150 137
f 137 150 151
f 137 151 138
f 138 151 152
f 138 152 139
f 139 152 153
f 139 153 140
f 140 153 154
f 140 154 141
f 141 154 155
f 141 155 142
f 142 155 156
f 142 156 16
f 143 1 157
f 143 157 144
f 144 157 158
f 144 158 145
f 145 158 159
f 145 159 146
f 146 159 160
f 146 160 147
f 147 160 161
f 147 161 148
f 148 161 162
f 148 162 149
f 149 162 163
f 149 163 150
f 150 163 164
f 150 164 151
f 151 164 165
f 151 165 152
f 152 165 166
f 152 166 153
f 153 166 167
f 153 167 154
f 154 167 168
f 154 168 155
f 155 168 169
f 155 169 156
f 156 169 170
f 156 170 16
f 157 1 171
f 157 171 158
f 158 171 172
f 158 172 159
f 159 172 173
f 159 173 160
f 160 173 174
f 160 174 161
f 161 174 175
f 161 175 162
f 162 175 176
f 162 176 163
f 163 176 177
f 163 177 164
f 164 177 178
f 164 178 165
f 165 178 179
f 165 179 166
f 166 179 180
f 166 180 167
f 167 180 181
f 167 181 168
f 168 181 182
f 168 182 169
f 169 182 183
f 169 183 170
f 170 183 184
f 170 184 16
f 171 1 185
f 171 185 172
f 172 185 186
f 172 186 173
f 173 186 187
f 173 187 174
f 174 187 188
f 174 188 175
f 175 188 189
f 175 189 176
f 176 189 190
f 176 190 177
f 177 190 191
f 177 191 178
f 178 191 192
f 178 192 179
f 179 192 193
f 179 193 180
f 180 193 194
f 180 194 181
f 181 194 195
f 181 195 182
f 182 195 196
f 182 196 183
f 183 196 197
f 183 197 184
f 184 197 198
f 184 198 16
f 185 1 199
f 185 199 186
f 186 199 200
f 186 200 187
f 187 200 201
f 187 201 188
f 188 201 202
f 188 202 189
f 189 202 203
f 189 203 190
f 190 203 204
f 190 204 191
f 191 204 205
f 191 205 192
f 192 205 206
f 192 206 193
f 193 206 207
f 193 207 194
f 194 207 208
f 194 208 195
f 195 208 209
f 195 209 196
f 196 209 210
f 196 210 197
f 197 210 211
f 197 211 198
f 198 211 212
f 198 212 16
f 199 1 213
f 199 213 200
f 200 213 214
f 200 214 201
f 201 214 215
f 201 215 202
f 202 215 216
f 202 216 203
f 203 216 217
f 203 217 204
f 204 217 218
f 204 218 205
f 205 218 219
f 205 219 206
f 206 219 220
f 206 220 207
f 207 220 221
f 207 221 208
f 208 221 222
f 208 222 209
f 209 222 223
f 209 223 210
f 210 223 224
f 210 224 211
f 211 224 225
f 211 225 212
f 212 225 226
f 212 226 16
f 213 1 227
f 213 227 214
f 214 227 228
f 214 228 215
f 215 228 229
f 215 229 216
f 216 229 230
f 216 230 217
f 217 230 231
f 217 231 218
f 218 231 232
f 218 232 219
f 219 232 233
f 219 233 220
f 220 233 234
f 220 234 221
f 221 234 235
f 221 235 222
f 222 235 236
f 222 236 223
f 223 236 237
f 223 237 224
f 224 237 238
f 224 238 225
f 225 238 239
f 225 239 226
f 226 239 240
f 226 240 16
f 227 1 241
f 227 241 228
f 228 241 242
f 228 242 229
f 229 242 243
f 229 243 230
f 230 243 244
f 230 244 231
f 231 244 245
f 231 245 232
f 232 245 246
f 232 246 233
f 233 246 247
f 233 247 234
f 234 247 248
f 234 248 235
f 235 248 249
f 235 249 236
f 236 249 250
f 236 250 237
f 237 250 251
f 237 251 238
f 238 251 252
f 238 252 239
f 239 252 253
f 239 253 240
f 240 253 254
f 240 254 16
f 241 1 255
f 241 255 242
f 242 255 256
f 242 256 243
f 243 256 257
f 243 257 244
f 244 257 258
f 244 258 245
f 245 258 259
f 245 259 246
f 246 259 260
f 246 260 247
f 247 260 261
f 247 261 248
f 248 261 262
f 248 262 249
f 249 262 263
f 249 263 250
f 250 263 264
f 250 264 251
f 251 264 265
f 251 265 252
f 252 265 266
f 252 266 253
f 253 266 267
f 253 267 254
f 254 267 268
f 254 268 16
f 255 1 269
f 255 269 256
f 256 269 270
f 256 270 257
f 257 270 271
f 257 271 258
f 258 271 272
f 258 272 259
f 259 272 273
f 259 273 260
f 260 273 274
f 260 274 261
f 261 274 275
f 261 275 262
f 262 275 276
f 262 276 263
f 263 276 277
f 263 277 264
f 264 277 278
f 264 278 265
f 265 278 279
f 265 279 266
f 266 279 280
f 266 280 267
f 267 280 281
f 267 281 268
f 268 281 282
f 268 282 16
f 269 1 283
f 269 283 270
f 270 283 284
f 270 284 271
f 271 284 285
f 271 285 272
f 272 285 286
f 272 286 273
f 273 286 287
f 273 287 274
f 274 287 288
f 274 288 275
f 275 288 289
f 275 289 276
f 276 289 290
f 276 290 277
f 277 290 291
f 277 291 278
f 278 291 292
f 278 292 279
f 279 292 293
f 279 293 280
f 280 293 294
f 280 294 281
f 281 294 295
f 281 295 282
f 282 295 296
f 282 296 16
f 283 1 297
f 283 297 284
f 284 297 298
f 284 298 285
f 285 298 299
f 285 299 286
f 286 299 300
f 286 300 287
f 287 300 301
f 287 301 288
f 288 301 302
f 288 302 289
f 289 302 303
f 289 303 290
f 290 303 304
f 290 304 291
f 291 304 305
f 291 305 292
f 292 305 306
f 292 306 293
f 293 306 307
f 293 307 294
f 294 307 308
f 294 308 295
f 295 308 309
f 295 309 296
f 296 309 310
f 296 310 16
f 297 1 311
f 297 311 298
f 298 311 312
f 298 312 299
f 299 312 313
f 299 313 300
f 300 313 314
f 300 314 301
f 301 314 315
f 301 315 302
f 302 315 316
f 302 316 303
f 303 316 317
f 303 317 304
f 304 317 318
f 304 318 305
f 305 318 319
f 305 319 306
f 306 319 320
f 306 320 307
f 307 320 321
f 307 321 308
f 308 321 322
f 308 322 309
f 309 322 323
f 309 323 310
f 310 323 324
f 310 324 16
f 311 1 325
f 311 325 312
f 312 325 326
f 312 326 313
f 313 326 327
f 313 327 314
f 314 327 328
f 314 328 315
f 315 328 329
f 315 329 316
f 316 329 330
f 316 330 317
f 317 330 331
f 317 331 318
f 318 331 332
f 318 332 319
f 319 332 333
f 319 333 320
f 320 333 334
f 320 334 321
f 321 334 335
f 321 335 322
f 322 335 336
f 322 336 323
f 323 336 337
f 323 337 324
f 324 337 338
f 324 338 16
f 325 1 339
f 325 339 326
f 326 339 340
f 326 340 327
f 327 340 341
f 327 341 328
f 328 341 342
f 328 342 329
f 329 342 343
f 329 343 330
f 330 343 344
f 330 344 331
f 331 344 345
f 331 345 332
f 332 345 346
f 332 346 333
f 333 346 347
f 333 347 334
f 334 347 348
f 334 348 335
f 335 348 349
f 335 349 336
f 336 349 350
f 336 350 337
f 337 350 351
f 337 351 338
f 338 351 352
f 338 352 16
f 339 1 353
f 339 353 340
f 340 353 354
f 340 354 341
f 341 354 355
f 341 355 342
f 342 355 356
f 342 356 343
f 343 356 357
f 343 357 344
f 344 357 358
f 344 358 345
f 345 358 359
f 345 359 346
f 346 359 360
f 346 360 347
f 347 360 361
f 347 361 348
f 348 361 362
f 348 362 349
f 349 362 363
f 349 363 350
f 350 363 364
f 350 364 351
f 351 364 365
f 351 365 352
f 352 365 366
f 352 366 16
f 353 1 367
f 353 367 354
f 354 367 368
f 354 368 355
f 355 368 369
f 355 369 356
f 356 369 370
f 356 370 357
f 357 370 371
f 357 371 358
f 358 371 372
f 358 372 359
f 359 372 373
f 359 373 360
f 360 373 374
f 360 374 361
f 361 374 375
f 361 375 362
f 362 375 376
f 362 376 363
f 363 376 377
f 363 377 364
f 364 377 378
f 364 378 365
f 365 378 379
f 365 379 366
f 366 379 380
f 366 380 16
f 367 1 381
f 367 381 368
f 368 381 382
f 368 382 369
f 369 382 383
f 369 383 370
f 370 383 384
f 370 384 371
f 371 384 385
f 371 385 372
f 372 385 386
f 372 386 373
f 373 386 387
f 373 387 374
f 374 387 388
f 374 388 375
f 375 388 389
f 375 389 376
f 376 389 390
f 376 390 377
f 377 390 391
f 377 391 378
f 378 391 392
f 378 392 379
f 379 392 393
f 379 393 380
f 380 393 394
f 380 394 16
f 381 1 395
f 381 395 382
f 382 395 396
f 382 396 383
f 383 396 397
f 383 397 384
f 384 397 398
f 384 398 385
f 385 398 399
f 385 399 386
f 386 399 400
f 386 400 387
f 387 400 401
f 387 401 388
f 388 401 402
f 388 402 389
f 389 402 403
f 389 403 390
f 390 403 404
f 390 404 391
f 391 404 405
f 391 405 392
f 392 405 406
f 392 406 393
f 393 406 407
f 393 407 394
f 394 407 408
f 394 408 16
f 395 1 409
f 395 409 396
f 396 409 410
f 396 410 397
f 397 410 411
f 397 411 398
f 398 411 412
f 398 412 399
f 399 412 413
f 399 413 400
f 400 413 414
f 400 414 401
f 401 414 415
f 401 415 402
f 402 415 416
f 402 416 403
f 403 416 417
f 403 417 404
f 404 417 418
f 404 418 405
f 405 418 419
f 405 419 406
f 406 419 420
f 406 420 407
f 407 420 421
f 407 421 408
f 408 421 422
f 408 422 16
f 409 1 423
f 409 423 410
f 410 423 424
f 410 424 411
f 411 424 425
f 411 425 412
f 412 425 426
f 412 426 413
f 413 426 427
f 413 427 414
f 414 427 428
f 414 428 415
f 415 428 429
f 415 429 416
f 416 429 430
f 416 430 417
f 417 430 431
f 417 431 418
f 418 431 432
f 418 432 419
f 419 432 433
f 419 433 420
f 420 433 434
f 420 434 421
f 421 434 435
f 421 435 422
f 422 435 436
f 422 436 16
f 423 1 437
f 423 437 424
f 424 437 438
f 424 438 425
f 425 438 439
f 425 439 426
f 426 439 440
f 426 440 427
f 427 440 441
f 427 441 428
f 428 441 442
f 428 442 429
f 429 442 443
f 429 443 430
f 430 443 444
f 430 444 431
f 431 444 445
f 431 445 432
f 432 445 446
f 432 446 433
f 433 446 447
f 433 447 434
f 434 447 448
f 434 448 435
f 435 448 449
f 435 449 436
f 436 449 450
f 436 450 16
f 437 1 2
f 437 2 438
f 438 2 3
f 438 3 439
f 439 3 4
f 439 4 440
f 440 4 5
f 440 5 441
f 441 5 6
f 441 6 442
f 442 6 7
f 442 7 443
f 443 7 8
f 443 8 444
f 444 8 9
f 444 9 445
f 445 9 10
f 445 10 446
f 446 10 11
f 446 11 447
f 447 11 12
f 447 12 448
f 448 12 13
f 448 13 449
f 449 13 14
f 449 14 450
f 450 14 15
f 450 15 16

