# https://github.com/mikedh/trimesh
v 0.00000000 0.00000000 -1.00000000
v 0.43388374 0.00000000 -0.90096887
v 0.78183148 0.00000000 -0.62348980
v 0.97492791 0.00000000 -0.22252093
v 0.97492791 0.00000000 0.22252093
v 0.78183148 0.00000000 0.62348980
v 0.43388374 0.00000000 0.90096887
v 0.00000000 0.00000000 1.00000000
v 0.40085631 0.16604012 -0.90096887
v 0.72231810 0.29919396 -0.62348980
v 0.90071594 0.37308876 -0.22252093
v 0.90071594 0.37308876 0.22252093
v 0.72231810 0.29919396 0.62348980
v 0.40085631 0.16604012 0.90096887
v 0.30680213 0.30680213 -0.90096887
v 0.55283834 0.55283834 -0.62348980
v 0.68937814 0.68937814 -0.22252093
v 0.68937814 0.68937814 0.22252093
v 0.55283834 0.55283834 0.62348980
v 0.30680213 0.30680213 0.90096887
v 0.16604012 0.40085631 -0.90096887
v 0.29919396 0.72231810 -0.62348980
v 0.37308876 0.90071594 -0.22252093
v 0.37308876 0.90071594 0.22252093
v 0.29919396 0.72231810 0.62348980
v 0.16604012 0.40085631 0.90096887
v 0.00000000 0.43388374 -0.90096887
v 0.00000000 0.78183148 -0.62348980
v 0.00000000 0.97492791 -0.22252093
v 0.00000000 0.97492791 0.22252093
v 0.00000000 0.78183148 0.62348980
v 0.00000000 0.43388374 0.90096887
v -0.16604012 0.40085631 -0.90096887
v -0.29919396 0.72231810 -0.62348980
v -0.37308876 0.90071594 -0.22252093
v -0.37308876 0.90071594 0.22252093
v -0.29919396 0.72231810 0.62348980
v -0.16604012 0.40085631 0.90096887
v -0.30680213 0.30680213 -0.90096887
v -0.55283834 0.55283834 -0.62348980
v -0.68937814 0.68937814 -0.22252093
v -0.68937814 0.68937814 0.22252093
v -0.55283834 0.55283834 0.62348980
v -0.30680213 0.30680213 0.90096887
v -0.40085631 0.16604012 -0.90096887
v -0.72231810 0.29919396 -0.62348980
v -0.90071594 0.37308876 -0.22252093
v -0.90071594 0.37308876 0.22252093
v -0.72231810 0.29919396 0.62348980
v -0.40085631 0.16604012 0.90096887
v -0.43388374 0.00000000 -0.90096887
v -0.78183148 0.00000000 -0.62348980
v -0.97492791 0.00000000 -0.22252093
v -0.97492791 0.00000000 0.22252093
v -0.78183148 0.00000000 0.62348980
v -0.43388374 0.00000000 0.90096887
v -0.40085631 -0.16604012 -0.90096887
v -0.72231810 -0.29919396 -0.62348980
v -0.90071594 -0.37308876 -0.22252093
v -0.90071594 -0.37308876 0.22252093
v -0.72231810 -0.29919396 0.62348980
v -0.40085631 -0.16604012 0.90096887
v -0.30680213 -0.30680213 -0.90096887
v -0.55283834 -0.55283834 -0.62348980
v -0.68937814 -0.68937814 -0.22252093
v -0.68937814 -0.68937814 0.22252093
v -0.55283834 -0.55283834 0.62348980
v -0.30680213 -0.30680213 0.90096887
v -0.16604012 -0.40085631 -0.90096887
v -0.29919396 -0.72231810 -0.62348980
v -0.37308876 -0.90071594 -0.22252093
v -0.37308876 -0.90071594 0.22252093
v -0.29919396 -0.72231810 0.62348980
v -0.16604012 -0.40085631 0.90096887
v -0.00000000 -0.43388374 -0.90096887
v -0.00000000 -0.78183148 -0.62348980
v -0.00000000 -0.97492791 -0.22252093
v -0.00000000 -0.97492791 0.22252093
v -0.00000000 -0.78183148 0.62348980
v -0.00000000 -0.43388374 0.90096887
v 0.16604012 -0.40085631 -0.90096887
v 0.29919396 -0.72231810 -0.62348980
v 0.37308876 -0.90071594 -0.22252093
v 0.37308876 -0.90071594 0.22252093
v 0.29919396 -0.72231810 0.62348980
v 0.16604012 -0.40085631 0.90096887
v 0.30680213 -0.30680213 -0.90096887
v 0.55283834 -0.55283834 -0.62348980
v 0.68937814 -0.68937814 -0.22252093
v 0.68937814 -0.68937814 0.22252093
v 0.55283834 -0.55283834 0.62348980
v 0.30680213 -0.30680213 0.90096887
v 0.40085631 -0.16604012 -0.90096887
v 0.72231810 -0.29919396 -0.62348980
v 0.90071594 -0.37308876 -0.22252093
v 0.90071594 -0.37308876 0.22252093
v 0.72231810 -0.29919396 0.62348980
v 0.40085631 -0.16604012 0.90096887
f 2 1 9
f 2 9 3
f 3 9 10
f 3 10 4
f 4 10 11
f 4 11 5
f 5 11 12
f 5 12 6
f 6 12 13
f 6 13 7
f 7 13 14
f 7 14 8
f 9 1 15
f 9 15 10
f 10 15 16
f 10 16 11
f 11 16 17
f 11 17 12
f 12 17 18
f 12 18 13
f 13 18 19
f 13 19 14
f 14 19 20
f 14 20 8
f 15 1 21
f 15 21 16
f 16 21 22
f 16 22 17
f 17 22 23
f 17 23 18
f 18 23 24
f 18 24 19
f 19 24 25
f 19 25 20
f 20 25 26
f 20 26 8
f 21 1 27
f 21 27 22
f 22 27 28
f 22 28 23
f 23 28 29
f 23 29 24
f 24 29 30
f 24 30 25
f 25 30 31
f 25 31 26
f 26 31 32
f 26 32 8
f 27 1 33
f 27 33 28
f 28 33 34
f 28 34 29
f 29 34 35
f 29 35 30
f 30 35 36
f 30 36 31
f 31 36 37
f 31 37 32
f 32 37 38
f 32 38 8
f 33 1 39
f 33 39 34
f 34 39 40
f 34 40 35
f 35 40 41
f 35 41 36
f 36 41 42
f 36 42 37
f 37 42 43
f 37 43 38
f 38 43 44
f 38 44 8
f 39 1 45
f 39 45 40
f 40 45 46
f 40 46 41
f 41 46 47
f 41 47 42
f 42 47 48
f 42 48 43
f 43 48 49
f 43 49 44
f 44 49 50
f 44 50 8
f 45 1 51
f 45 51 46
f 46 51 52
f 46 52 47
f 47 52 53
f 47 53 48
f 48 53 54
f 48 54 49
f 49 54 55
f 49 55 50
f 50 55 56
f 50 56 8
f 51 1 57
f 51 57 52
f 52 57 58
f 52 58 53
f 53 58 59
f 53 59 54
f 54 59 60
f 54 60 55
f 55 60 61
f 55 61 56
f 56 61 62
f 56 62 8
f 57 1 63
f 57 63 58
f 58 63 64
f 58 64 59
f 59 64 65
f 59 65 60
f 60 65 66
f 60 66 61
f 61 66 67
f 61 67 62
f 62 67 68
f 62 68 8
f 63 1 69
f 63 69 64
f 64 69 70
f 64 70 65
f 65 70 71
f 65 71 66
f 66 71 72
f 66 72 67
f 67 72 73
f 67 73 68
f 68 73 74
f 68 74 8
f 69 1 75
f 69 75 70
f 70 75 76
f 70 76 71
f 71 76 77
f 71 77 72
f 72 77 78
f 72 78 73
f 73 78 79
f 73 79 74
f 74 79 80
f 74 80 8
f 75 1 81
f 75 81 76
f 76 81 82
f 76 82 77
f 77 82 83
f 77 83 78
f 78 83 84
f 78 84 79
f 79 84 85
f 79 85 80
f 80 85 86
f 80 86 8
f 81 1 87
f 81 87 82
f 82 87 88
f 82 88 83
f 83 88 89
f 83 89 84
f 84 89 90
f 84 90 85
f 85 90 91
f 85 91 86
f 86 91 92
f 86 92 8
f 87 1 93
f 87 93 88
f 88 93 94
f 88 94 89
f 89 94 95
f 89 95 90
f 90 95 96
f 90 96 91
f 91 96 97
f 91 97 92
f 92 97 98
f 92 98 8
f 93 1 2
f 93 2 94
f 94 2 3
f 94 3 95
f 95 3 4
f 95 4 96
f 96 4 5
f 96 5 97
f 97 5 6
f 97 6 98
f 98 6 7
f 98 7 8

