<COLLADA xmlns="http://www.collada.org/2005/11/COLLADASchema" version="1.4.1">
  <asset>
    <created>2026-08-18T14:34:48.584725</created>
    <modified>2026-08-18T14:34:48.584729</modified>
    <up_axis>Y_UP</up_axis>
  </asset>
  <library_effects>
    <effect id="4a0c13ee69224c43a820bf2d05dc0139" name="4a0c13ee69224c43a820bf2d05dc0139">
      <profile_COMMON>
        <technique sid="common">
          <phong>
            <emission>
              <color>0.0 0.0 0.0 1.0</color>
            </emission>
            <ambient>
              <color>0.0 0.0 0.0 1.0</color>
            </ambient>
            <diffuse>
              <color>0.0 0.0 0.0 1.0</color>
            </diffuse>
            <specular>
              <color>0.0 0.0 0.0 1.0</color>
            </specular>
            <shininess>
              <float>0.0</float>
            </shininess>
            <reflective>
              <color>0.0 0.0 0.0 1.0</color>
            </reflective>
            <reflectivity>
              <float>0.0</float>
            </reflectivity>
            <transparent>
              <color>0.0 0.0 0.0 1.0</color>
            </transparent>
            <transparency>
              <float>1.0</float>
            </transparency>
          </phong>
        </technique>
        <extra>
          <technique profile="GOOGLEEARTH">
            <double_sided>0</double_sided>
          </technique>
        </extra>
      </profile_COMMON>
    </effect>
  </library_effects>
  <library_geometries>
    <geometry id="882763ce70ff480ba95ed7b3fd2625ce" name="6a93350367d047b3b433b2c44d0c0547">
      <mesh>
        <source id="verts-array">
          <float_array count="726" id="verts-array-array">0 0 -1 0.2817326 0 -0.959493 0.5406408 0 -0.8412535 0.7557496 0 -0.6548607 0.909632 0 -0.415415 0.9898214 0 -0.1423148 0.9898214 0 0.1423148 0.909632 0 0.415415 0.7557496 0 0.6548607 0.5406408 0 0.8412535 0.2817326 0 0.959493 1.224647e-16 0 1 0.2721328 0.07291775 -0.959493 0.5222189 0.1399281 -0.8412535 0.729998 0.1956024 -0.6548607 0.878637 0.2354301 -0.415415 0.9560941 0.2561846 -0.1423148 0.9560941 0.2561846 0.1423148 0.878637 0.2354301 0.415415 0.729998 0.1956024 0.6548607 0.5222189 0.1399281 0.8412535 0.2721328 0.07291775 0.959493 0.2439876 0.1408663 -0.959493 0.4682087 0.2703204 -0.8412535 0.6544983 0.3778748 -0.6548607 0.7877644 0.454816 -0.415415 0.8572105 0.4949107 -0.1423148 0.8572105 0.4949107 0.1423148 0.7877644 0.454816 0.415415 0.6544983 0.3778748 0.6548607 0.4682087 0.2703204 0.8412535 0.2439876 0.1408663 0.959493 0.199215 0.199215 -0.959493 0.3822908 0.3822908 -0.8412535 0.5343956 0.5343956 -0.6548607 0.643207 0.643207 -0.415415 0.6999095 0.6999095 -0.1423148 0.6999095 0.6999095 0.1423148 0.643207 0.643207 0.415415 0.5343956 0.5343956 0.6548607 0.3822908 0.3822908 0.8412535 0.199215 0.199215 0.959493 0.1408663 0.2439876 -0.959493 0.2703204 0.4682087 -0.8412535 0.3778748 0.6544983 -0.6548607 0.454816 0.7877644 -0.415415 0.4949107 0.8572105 -0.1423148 0.4949107 0.8572105 0.1423148 0.454816 0.7877644 0.415415 0.3778748 0.6544983 0.6548607 0.2703204 0.4682087 0.8412535 0.1408663 0.2439876 0.959493 0.07291775 0.2721328 -0.959493 0.1399281 0.5222189 -0.8412535 0.1956024 0.729998 -0.6548607 0.2354301 0.878637 -0.415415 0.2561846 0.9560941 -0.1423148 0.2561846 0.9560941 0.1423148 0.2354301 0.878637 0.415415 0.1956024 0.729998 0.6548607 0.1399281 0.5222189 0.8412535 0.07291775 0.2721328 0.959493 1.725114e-17 0.2817326 -0.959493 3.31047e-17 0.5406408 -0.8412535 4.627631e-17 0.7557496 -0.6548607 5.56989e-17 0.909632 -0.415415 6.060908e-17 0.9898214 -0.1423148 6.060908e-17 0.9898214 0.1423148 5.56989e-17 0.909632 0.415415 4.627631e-17 0.7557496 0.6548607 3.31047e-17 0.5406408 0.8412535 1.725114e-17 0.2817326 0.959493 -0.07291775 0.2721328 -0.959493 -0.1399281 0.5222189 -0.8412535 -0.1956024 0.729998 -0.6548607 -0.2354301 0.878637 -0.415415 -0.2561846 0.9560941 -0.1423148 -0.2561846 0.9560941 0.1423148 -0.2354301 0.878637 0.415415 -0.1956024 0.729998 0.6548607 -0.1399281 0.5222189 0.8412535 -0.07291775 0.2721328 0.959493 -0.1408663 0.2439876 -0.959493 -0.2703204 0.4682087 -0.8412535 -0.3778748 0.6544983 -0.6548607 -0.454816 0.7877644 -0.415415 -0.4949107 0.8572105 -0.1423148 -0.4949107 0.8572105 0.1423148 -0.454816 0.7877644 0.415415 -0.3778748 0.6544983 0.6548607 -0.2703204 0.4682087 0.8412535 -0.1408663 0.2439876 0.959493 -0.199215 0.199215 -0.959493 -0.3822908 0.3822908 -0.8412535 -0.5343956 0.5343956 -0.6548607 -0.643207 0.643207 -0.415415 -0.6999095 0.6999095 -0.1423148 -0.6999095 0.6999095 0.1423148 -0.643207 0.643207 0.415415 -0.5343956 0.5343956 0.6548607 -0.3822908 0.3822908 0.8412535 -0.199215 0.199215 0.959493 -0.2439876 0.1408663 -0.959493 -0.4682087 0.2703204 -0.8412535 -0.6544983 0.3778748 -0.6548607 -0.7877644 0.454816 -0.415415 -0.8572105 0.4949107 -0.1423148 -0.8572105 0.4949107 0.1423148 -0.7877644 0.454816 0.415415 -0.6544983 0.3778748 0.6548607 -0.4682087 0.2703204 0.8412535 -0.2439876 0.1408663 0.959493 -0.2721328 0.07291775 -0.959493 -0.5222189 0.1399281 -0.8412535 -0.729998 0.1956024 -0.6548607 -0.878637 0.2354301 -0.415415 -0.9560941 0.2561846 -0.1423148 -0.9560941 0.2561846 0.1423148 -0.878637 0.2354301 0.415415 -0.729998 0.1956024 0.6548607 -0.5222189 0.1399281 0.8412535 -0.2721328 0.07291775 0.959493 -0.2817326 3.450229e-17 -0.959493 -0.5406408 6.62094e-17 -0.8412535 -0.7557496 9.255263e-17 -0.6548607 -0.909632 1.113978e-16 -0.415415 -0.9898214 1.212182e-16 -0.1423148 -0.9898214 1.212182e-16 0.1423148 -0.909632 1.113978e-16 0.415415 -0.7557496 9.255263e-17 0.6548607 -0.5406408 6.62094e-17 0.8412535 -0.2817326 3.450229e-17 0.959493 -0.2721328 -0.07291775 -0.959493 -0.5222189 -0.1399281 -0.8412535 -0.729998 -0.1956024 -0.6548607 -0.878637 -0.2354301 -0.415415 -0.9560941 -0.2561846 -0.1423148 -0.9560941 -0.2561846 0.1423148 -0.878637 -0.2354301 0.415415 -0.729998 -0.1956024 0.6548607 -0.5222189 -0.1399281 0.8412535 -0.2721328 -0.07291775 0.959493 -0.2439876 -0.1408663 -0.959493 -0.4682087 -0.2703204 -0.8412535 -0.6544983 -0.3778748 -0.6548607 -0.7877644 -0.454816 -0.415415 -0.8572105 -0.4949107 -0.1423148 -0.8572105 -0.4949107 0.1423148 -0.7877644 -0.454816 0.415415 -0.6544983 -0.3778748 0.6548607 -0.4682087 -0.2703204 0.8412535 -0.2439876 -0.1408663 0.959493 -0.199215 -0.199215 -0.959493 -0.3822908 -0.3822908 -0.8412535 -0.5343956 -0.5343956 -0.6548607 -0.643207 -0.643207 -0.415415 -0.6999095 -0.6999095 -0.1423148 -0.6999095 -0.6999095 0.1423148 -0.643207 -0.643207 0.415415 -0.5343956 -0.5343956 0.6548607 -0.3822908 -0.3822908 0.8412535 -0.199215 -0.199215 0.959493 -0.1408663 -0.2439876 -0.959493 -0.2703204 -0.4682087 -0.8412535 -0.3778748 -0.6544983 -0.6548607 -0.454816 -0.7877644 -0.415415 -0.4949107 -0.8572105 -0.1423148 -0.4949107 -0.8572105 0.1423148 -0.454816 -0.7877644 0.415415 -0.3778748 -0.6544983 0.6548607 -0.2703204 -0.4682087 0.8412535 -0.1408663 -0.2439876 0.959493 -0.07291775 -0.2721328 -0.959493 -0.1399281 -0.5222189 -0.8412535 -0.1956024 -0.729998 -0.6548607 -0.2354301 -0.878637 -0.415415 -0.2561846 -0.9560941 -0.1423148 -0.2561846 -0.9560941 0.1423148 -0.2354301 -0.878637 0.415415 -0.1956024 -0.729998 0.6548607 -0.1399281 -0.5222189 0.8412535 -0.07291775 -0.2721328 0.959493 -5.175343e-17 -0.2817326 -0.959493 -9.931411e-17 -0.5406408 -0.8412535 -1.388289e-16 -0.7557496 -0.6548607 -1.670967e-16 -0.909632 -0.415415 -1.818272e-16 -0.9898214 -0.1423148 -1.818272e-16 -0.9898214 0.1423148 -1.670967e-16 -0.909632 0.415415 -1.388289e-16 -0.7557496 0.6548607 -9.931411e-17 -0.5406408 0.8412535 -5.175343e-17 -0.2817326 0.959493 0.07291775 -0.2721328 -0.959493 0.1399281 -0.5222189 -0.8412535 0.1956024 -0.729998 -0.6548607 0.2354301 -0.878637 -0.415415 0.2561846 -0.9560941 -0.1423148 0.2561846 -0.9560941 0.1423148 0.2354301 -0.878637 0.415415 0.1956024 -0.729998 0.6548607 0.1399281 -0.5222189 0.8412535 0.07291775 -0.2721328 0.959493 0.1408663 -0.2439876 -0.959493 0.2703204 -0.4682087 -0.8412535 0.3778748 -0.6544983 -0.6548607 0.454816 -0.7877644 -0.415415 0.4949107 -0.8572105 -0.1423148 0.4949107 -0.8572105 0.1423148 0.454816 -0.7877644 0.415415 0.3778748 -0.6544983 0.6548607 0.2703204 -0.4682087 0.8412535 0.1408663 -0.2439876 0.959493 0.199215 -0.199215 -0.959493 0.3822908 -0.3822908 -0.8412535 0.5343956 -0.5343956 -0.6548607 0.643207 -0.643207 -0.415415 0.6999095 -0.6999095 -0.1423148 0.6999095 -0.6999095 0.1423148 0.643207 -0.643207 0.415415 0.5343956 -0.5343956 0.6548607 0.3822908 -0.3822908 0.8412535 0.199215 -0.199215 0.959493 0.2439876 -0.1408663 -0.959493 0.4682087 -0.2703204 -0.8412535 0.6544983 -0.3778748 -0.6548607 0.7877644 -0.454816 -0.415415 0.8572105 -0.4949107 -0.1423148 0.8572105 -0.4949107 0.1423148 0.7877644 -0.454816 0.415415 0.6544983 -0.3778748 0.6548607 0.4682087 -0.2703204 0.8412535 0.2439876 -0.1408663 0.959493 0.2721328 -0.07291775 -0.959493 0.5222189 -0.1399281 -0.8412535 0.729998 -0.1956024 -0.6548607 0.878637 -0.2354301 -0.415415 0.9560941 -0.2561846 -0.1423148 0.9560941 -0.2561846 0.1423148 0.878637 -0.2354301 0.415415 0.729998 -0.1956024 0.6548607 0.5222189 -0.1399281 0.8412535 0.2721328 -0.07291775 0.959493</float_array>
          <technique_common>
            <accessor count="242" source="#verts-array-array" stride="3">
              <param type="float" name="X"/>
              <param type="float" name="Y"/>
              <param type="float" name="Z"/>
            </accessor>
          </technique_common>
        </source>
        <source id="normals-array">
          <float_array count="726" id="normals-array-array">4.622554e-17 -1.916669e-17 -1 0.2925756 -5.714017e-17 -0.9562424 0.5489215 -8.556767e-17 -0.8358739 0.7607389 -6.335744e-17 -0.6490581 0.9116313 -1.771875e-16 -0.4110089 0.9900556 -2.026161e-16 -0.1406768 0.9900556 -2.13999e-16 0.1406768 0.9116313 -2.430649e-16 0.4110089 0.7607389 -9.729892e-17 0.6490581 0.5489215 -9.96413e-17 0.8358739 0.2925756 -7.730729e-17 0.9562424 6.426478e-17 -1.83211e-17 1 0.2826063 0.07572413 -0.9562424 0.5302175 0.1420713 -0.8358739 0.7348173 0.1968937 -0.6490581 0.8805682 0.2359475 -0.4110089 0.9563202 0.2562452 -0.1406768 0.9563202 0.2562452 0.1406768 0.8805682 0.2359475 0.4110089 0.7348173 0.1968937 0.6490581 0.5302175 0.1420713 0.8358739 0.2826063 0.07572413 0.9562424 0.2533779 0.1462878 -0.9562424 0.47538 0.2744608 -0.8358739 0.6588192 0.3803694 -0.6490581 0.7894959 0.4558157 -0.4110089 0.8574133 0.4950278 -0.1406768 0.8574133 0.4950278 0.1406768 0.7894959 0.4558157 0.4110089 0.6588192 0.3803694 0.6490581 0.47538 0.2744608 0.8358739 0.2533779 0.1462878 0.9562424 0.2068822 0.2068822 -0.9562424 0.3881461 0.3881461 -0.8358739 0.5379236 0.5379236 -0.6490581 0.6446207 0.6446207 -0.4110089 0.700075 0.700075 -0.1406768 0.700075 0.700075 0.1406768 0.6446207 0.6446207 0.4110089 0.5379236 0.5379236 0.6490581 0.3881461 0.3881461 0.8358739 0.2068822 0.2068822 0.9562424 0.1462878 0.2533779 -0.9562424 0.2744608 0.47538 -0.8358739 0.3803694 0.6588192 -0.6490581 0.4558157 0.7894959 -0.4110089 0.4950278 0.8574133 -0.1406768 0.4950278 0.8574133 0.1406768 0.4558157 0.7894959 0.4110089 0.3803694 0.6588192 0.6490581 0.2744608 0.47538 0.8358739 0.1462878 0.2533779 0.9562424 0.07572413 0.2826063 -0.9562424 0.1420713 0.5302175 -0.8358739 0.1968937 0.7348173 -0.6490581 0.2359475 0.8805682 -0.4110089 0.2562452 0.9563202 -0.1406768 0.2562452 0.9563202 0.1406768 0.2359475 0.8805682 0.4110089 0.1968937 0.7348173 0.6490581 0.1420713 0.5302175 0.8358739 0.07572413 0.2826063 0.9562424 8.066847e-17 0.2925756 -0.9562424 -2.251781e-17 0.5489215 -0.8358739 -4.525531e-18 0.7607389 -0.6490581 1.408413e-16 0.9116313 -0.4110089 1.274888e-16 0.9900556 -0.1406768 1.730205e-16 0.9900556 0.1406768 1.362981e-16 0.9116313 0.4110089 4.525531e-18 0.7607389 0.6490581 -2.702137e-17 0.5489215 0.8358739 1.260445e-16 0.2925756 0.9562424 -0.07572413 0.2826063 -0.9562424 -0.1420713 0.5302175 -0.8358739 -0.1968937 0.7348173 -0.6490581 -0.2359475 0.8805682 -0.4110089 -0.2562452 0.9563202 -0.1406768 -0.2562452 0.9563202 0.1406768 -0.2359475 0.8805682 0.4110089 -0.1968937 0.7348173 0.6490581 -0.1420713 0.5302175 0.8358739 -0.07572413 0.2826063 0.9562424 -0.1462878 0.2533779 -0.9562424 -0.2744608 0.47538 -0.8358739 -0.3803694 0.6588192 -0.6490581 -0.4558157 0.7894959 -0.4110089 -0.4950278 0.8574133 -0.1406768 -0.4950278 0.8574133 0.1406768 -0.4558157 0.7894959 0.4110089 -0.3803694 0.6588192 0.6490581 -0.2744608 0.47538 0.8358739 -0.1462878 0.2533779 0.9562424 -0.2068822 0.2068822 -0.9562424 -0.3881461 0.3881461 -0.8358739 -0.5379236 0.5379236 -0.6490581 -0.6446207 0.6446207 -0.4110089 -0.700075 0.700075 -0.1406768 -0.700075 0.700075 0.1406768 -0.6446207 0.6446207 0.4110089 -0.5379236 0.5379236 0.6490581 -0.3881461 0.3881461 0.8358739 -0.2068822 0.2068822 0.9562424 -0.2533779 0.1462878 -0.9562424 -0.47538 0.2744608 -0.8358739 -0.6588192 0.3803694 -0.6490581 -0.7894959 0.4558157 -0.4110089 -0.8574133 0.4950278 -0.1406768 -0.8574133 0.4950278 0.1406768 -0.7894959 0.4558157 0.4110089 -0.6588192 0.3803694 0.6490581 -0.47538 0.2744608 0.8358739 -0.2533779 0.1462878 0.9562424 -0.2826063 0.07572413 -0.9562424 -0.5302175 0.1420713 -0.8358739 -0.7348173 0.1968937 -0.6490581 -0.8805682 0.2359475 -0.4110089 -0.9563202 0.2562452 -0.1406768 -0.9563202 0.2562452 0.1406768 -0.8805682 0.2359475 0.4110089 -0.7348173 0.1968937 0.6490581 -0.5302175 0.1420713 0.8358739 -0.2826063 0.07572413 0.9562424 -0.2925756 5.601977e-17 -0.9562424 -0.5489215 1.621282e-16 -0.8358739 -0.7607389 1.764957e-16 -0.6490581 -0.9116313 2.86226e-16 -0.4110089 -0.9900556 2.959561e-16 -0.1406768 -0.9900556 3.278282e-16 0.1406768 -0.9116313 3.04399e-16 0.4110089 -0.7607389 1.312404e-16 0.6490581 -0.5489215 1.418622e-16 0.8358739 -0.2925756 1.036366e-16 0.9562424 -0.2826063 -0.07572413 -0.9562424 -0.5302175 -0.1420713 -0.8358739 -0.7348173 -0.1968937 -0.6490581 -0.8805682 -0.2359475 -0.4110089 -0.9563202 -0.2562452 -0.1406768 -0.9563202 -0.2562452 0.1406768 -0.8805682 -0.2359475 0.4110089 -0.7348173 -0.1968937 0.6490581 -0.5302175 -0.1420713 0.8358739 -0.2826063 -0.07572413 0.9562424 -0.2533779 -0.1462878 -0.9562424 -0.47538 -0.2744608 -0.8358739 -0.6588192 -0.3803694 -0.6490581 -0.7894959 -0.4558157 -0.4110089 -0.8574133 -0.4950278 -0.1406768 -0.8574133 -0.4950278 0.1406768 -0.7894959 -0.4558157 0.4110089 -0.6588192 -0.3803694 0.6490581 -0.47538 -0.2744608 0.8358739 -0.2533779 -0.1462878 0.9562424 -0.2068822 -0.2068822 -0.9562424 -0.3881461 -0.3881461 -0.8358739 -0.5379236 -0.5379236 -0.6490581 -0.6446207 -0.6446207 -0.4110089 -0.700075 -0.700075 -0.1406768 -0.700075 -0.700075 0.1406768 -0.6446207 -0.6446207 0.4110089 -0.5379236 -0.5379236 0.6490581 -0.3881461 -0.3881461 0.8358739 -0.2068822 -0.2068822 0.9562424 -0.1462878 -0.2533779 -0.9562424 -0.2744608 -0.47538 -0.8358739 -0.3803694 -0.6588192 -0.6490581 -0.4558157 -0.7894959 -0.4110089 -0.4950278 -0.8574133 -0.1406768 -0.4950278 -0.8574133 0.1406768 -0.4558157 -0.7894959 0.4110089 -0.3803694 -0.6588192 0.6490581 -0.2744608 -0.47538 0.8358739 -0.1462878 -0.2533779 0.9562424 -0.07572413 -0.2826063 -0.9562424 -0.1420713 -0.5302175 -0.8358739 -0.1968937 -0.7348173 -0.6490581 -0.2359475 -0.8805682 -0.4110089 -0.2562452 -0.9563202 -0.1406768 -0.2562452 -0.9563202 0.1406768 -0.2359475 -0.8805682 0.4110089 -0.1968937 -0.7348173 0.6490581 -0.1420713 -0.5302175 0.8358739 -0.07572413 -0.2826063 0.9562424 -4.705661e-17 -0.2925756 -0.9562424 -3.062422e-16 -0.5489215 -0.8358739 -3.032106e-16 -0.7607389 -0.6490581 -3.861779e-16 -0.9116313 -0.4110089 -4.097853e-16 -0.9900556 -0.1406768 -4.371043e-16 -0.9900556 0.1406768 -4.588702e-16 -0.9116313 0.4110089 -2.851085e-16 -0.7607389 0.6490581 -2.949833e-16 -0.5489215 0.8358739 -7.506649e-17 -0.2925756 0.9562424 0.07572413 -0.2826063 -0.9562424 0.1420713 -0.5302175 -0.8358739 0.1968937 -0.7348173 -0.6490581 0.2359475 -0.8805682 -0.4110089 0.2562452 -0.9563202 -0.1406768 0.2562452 -0.9563202 0.1406768 0.2359475 -0.8805682 0.4110089 0.1968937 -0.7348173 0.6490581 0.1420713 -0.5302175 0.8358739 0.07572413 -0.2826063 0.9562424 0.1462878 -0.2533779 -0.9562424 0.2744608 -0.47538 -0.8358739 0.3803694 -0.6588192 -0.6490581 0.4558157 -0.7894959 -0.4110089 0.4950278 -0.8574133 -0.1406768 0.4950278 -0.8574133 0.1406768 0.4558157 -0.7894959 0.4110089 0.3803694 -0.6588192 0.6490581 0.2744608 -0.47538 0.8358739 0.1462878 -0.2533779 0.9562424 0.2068822 -0.2068822 -0.9562424 0.3881461 -0.3881461 -0.8358739 0.5379236 -0.5379236 -0.6490581 0.6446207 -0.6446207 -0.4110089 0.700075 -0.700075 -0.1406768 0.700075 -0.700075 0.1406768 0.6446207 -0.6446207 0.4110089 0.5379236 -0.5379236 0.6490581 0.3881461 -0.3881461 0.8358739 0.2068822 -0.2068822 0.9562424 0.2533779 -0.1462878 -0.9562424 0.47538 -0.2744608 -0.8358739 0.6588192 -0.3803694 -0.6490581 0.7894959 -0.4558157 -0.4110089 0.8574133 -0.4950278 -0.1406768 0.8574133 -0.4950278 0.1406768 0.7894959 -0.4558157 0.4110089 0.6588192 -0.3803694 0.6490581 0.47538 -0.2744608 0.8358739 0.2533779 -0.1462878 0.9562424 0.2826063 -0.07572413 -0.9562424 0.5302175 -0.1420713 -0.8358739 0.7348173 -0.1968937 -0.6490581 0.8805682 -0.2359475 -0.4110089 0.9563202 -0.2562452 -0.1406768 0.9563202 -0.2562452 0.1406768 0.8805682 -0.2359475 0.4110089 0.7348173 -0.1968937 0.6490581 0.5302175 -0.1420713 0.8358739 0.2826063 -0.07572413 0.9562424</float_array>
          <technique_common>
            <accessor count="242" source="#normals-array-array" stride="3">
              <param type="float" name="X"/>
              <param type="float" name="Y"/>
              <param type="float" name="Z"/>
            </accessor>
          </technique_common>
        </source>
        <vertices id="verts-array-vertices">
          <input semantic="POSITION" source="#verts-array"/>
        </vertices>
        <triangles count="480" material="material0">
          <input offset="0" semantic="VERTEX" source="#verts-array-vertices"/>
          <input offset="1" semantic="NORMAL" source="#normals-array"/>
          <p>1 1 0 0 12 12 1 1 12 12 2 2 2 2 12 12 13 13 2 2 13 13 3 3 3 3 13 13 14 14 3 3 14 14 4 4 4 4 14 14 15 15 4 4 15 15 5 5 5 5 15 15 16 16 5 5 16 16 6 6 6 6 16 16 17 17 6 6 17 17 7 7 7 7 17 17 18 18 7 7 18 18 8 8 8 8 18 18 19 19 8 8 19 19 9 9 9 9 19 19 20 20 9 9 20 20 10 10 10 10 20 20 21 21 10 10 21 21 11 11 12 12 0 0 22 22 12 12 22 22 13 13 13 13 22 22 23 23 13 13 23 23 14 14 14 14 23 23 24 24 14 14 24 24 15 15 15 15 24 24 25 25 15 15 25 25 16 16 16 16 25 25 26 26 16 16 26 26 17 17 17 17 26 26 27 27 17 17 27 27 18 18 18 18 27 27 28 28 18 18 28 28 19 19 19 19 28 28 29 29 19 19 29 29 20 20 20 20 29 29 30 30 20 20 30 30 21 21 21 21 30 30 31 31 21 21 31 31 11 11 22 22 0 0 32 32 22 22 32 32 23 23 23 23 32 32 33 33 23 23 33 33 24 24 24 24 33 33 34 34 24 24 34 34 25 25 25 25 34 34 35 35 25 25 35 35 26 26 26 26 35 35 36 36 26 26 36 36 27 27 27 27 36 36 37 37 27 27 37 37 28 28 28 28 37 37 38 38 28 28 38 38 29 29 29 29 38 38 39 39 29 29 39 39 30 30 30 30 39 39 40 40 30 30 40 40 31 31 31 31 40 40 41 41 31 31 41 41 11 11 32 32 0 0 42 42 32 32 42 42 33 33 33 33 42 42 43 43 33 33 43 43 34 34 34 34 43 43 44 44 34 34 44 44 35 35 35 35 44 44 45 45 35 35 45 45 36 36 36 36 45 45 46 46 36 36 46 46 37 37 37 37 46 46 47 47 37 37 47 47 38 38 38 38 47 47 48 48 38 38 48 48 39 39 39 39 48 48 49 49 39 39 49 49 40 40 40 40 49 49 50 50 40 40 50 50 41 41 41 41 50 50 51 51 41 41 51 51 11 11 42 42 0 0 52 52 42 42 52 52 43 43 43 43 52 52 53 53 43 43 53 53 44 44 44 44 53 53 54 54 44 44 54 54 45 45 45 45 54 54 55 55 45 45 55 55 46 46 46 46 55 55 56 56 46 46 56 56 47 47 47 47 56 56 57 57 47 47 57 57 48 48 48 48 57 57 58 58 48 48 58 58 49 49 49 49 58 58 59 59 49 49 59 59 50 50 50 50 59 59 60 60 50 50 60 60 51 51 51 51 60 60 61 61 51 51 61 61 11 11 52 52 0 0 62 62 52 52 62 62 53 53 53 53 62 62 63 63 53 53 63 63 54 54 54 54 63 63 64 64 54 54 64 64 55 55 55 55 64 64 65 65 55 55 65 65 56 56 56 56 65 65 66 66 56 56 66 66 57 57 57 57 66 66 67 67 57 57 67 67 58 58 58 58 67 67 68 68 58 58 68 68 59 59 59 59 68 68 69 69 59 59 69 69 60 60 60 60 69 69 70 70 60 60 70 70 61 61 61 61 70 70 71 71 61 61 71 71 11 11 62 62 0 0 72 72 62 62 72 72 63 63 63 63 72 72 73 73 63 63 73 73 64 64 64 64 73 73 74 74 64 64 74 74 65 65 65 65 74 74 75 75 65 65 75 75 66 66 66 66 75 75 76 76 66 66 76 76 67 67 67 67 76 76 77 77 67 67 77 77 68 68 68 68 77 77 78 78 68 68 78 78 69 69 69 69 78 78 79 79 69 69 79 79 70 70 70 70 79 79 80 80 70 70 80 80 71 71 71 71 80 80 81 81 71 71 81 81 11 11 72 72 0 0 82 82 72 72 82 82 73 73 73 73 82 82 83 83 73 73 83 83 74 74 74 74 83 83 84 84 74 74 84 84 75 75 75 75 84 84 85 85 75 75 85 85 76 76 76 76 85 85 86 86 76 76 86 86 77 77 77 77 86 86 87 87 77 77 87 87 78 78 78 78 87 87 88 88 78 78 88 88 79 79 79 79 88 88 89 89 79 79 89 89 80 80 80 80 89 89 90 90 80 80 90 90 81 81 81 81 90 90 91 91 81 81 91 91 11 11 82 82 0 0 92 92 82 82 92 92 83 83 83 83 92 92 93 93 83 83 93 93 84 84 84 84 93 93 94 94 84 84 94 94 85 85 85 85 94 94 95 95 85 85 95 95 86 86 86 86 95 95 96 96 86 86 96 96 87 87 87 87 96 96 97 97 87 87 97 97 88 88 88 88 97 97 98 98 88 88 98 98 89 89 89 89 98 98 99 99 89 89 99 99 90 90 90 90 99 99 100 100 90 90 100 100 91 91 91 91 100 100 101 101 91 91 101 101 11 11 92 92 0 0 102 102 92 92 102 102 93 93 93 93 102 102 103 103 93 93 103 103 94 94 94 94 103 103 104 104 94 94 104 104 95 95 95 95 104 104 105 105 95 95 105 105 96 96 96 96 105 105 106 106 96 96 106 106 97 97 97 97 106 106 107 107 97 97 107 107 98 98 98 98 107 107 108 108 98 98 108 108 99 99 99 99 108 108 109 109 99 99 109 109 100 100 100 100 109 109 110 110 100 100 110 110 101 101 101 101 110 110 111 111 101 101 111 111 11 11 102 102 0 0 112 112 102 102 112 112 103 103 103 103 112 112 113 113 103 103 113 113 104 104 104 104 113 113 114 114 104 104 114 114 105 105 105 105 114 114 115 115 105 105 115 115 106 106 106 106 115 115 116 116 106 106 116 116 107 107 107 107 116 116 117 117 107 107 117 117 108 108 108 108 117 117 118 118 108 108 118 118 109 109 109 109 118 118 119 119 109 109 119 119 110 110 110 110 119 119 120 120 110 110 120 120 111 111 111 111 120 120 121 121 111 111 121 121 11 11 112 112 0 0 122 122 112 112 122 122 113 113 113 113 122 122 123 123 113 113 123 123 114 114 114 114 123 123 124 124 114 114 124 124 115 115 115 115 124 124 125 125 115 115 125 125 116 116 116 116 125 125 126 126 116 116 126 126 117 117 117 117 126 126 127 127 117 117 127 127 118 118 118 118 127 127 128 128 118 118 128 128 119 119 119 119 128 128 129 129 119 119 129 129 120 120 120 120 129 129 130 130 120 120 130 130 121 121 121 121 130 130 131 131 121 121 131 131 11 11 122 122 0 0 132 132 122 122 132 132 123 123 123 123 132 132 133 133 123 123 133 133 124 124 124 124 133 133 134 134 124 124 134 134 125 125 125 125 134 134 135 135 125 125 135 135 126 126 126 126 135 135 136 136 126 126 136 136 127 127 127 127 136 136 137 137 127 127 137 137 128 128 128 128 137 137 138 138 128 128 138 138 129 129 129 129 138 138 139 139 129 129 139 139 130 130 130 130 139 139 140 140 130 130 140 140 131 131 131 131 140 140 141 141 131 131 141 141 11 11 132 132 0 0 142 142 132 132 142 142 133 133 133 133 142 142 143 143 133 133 143 143 134 134 134 134 143 143 144 144 134 134 144 144 135 135 135 135 144 144 145 145 135 135 145 145 136 136 136 136 145 145 146 146 136 136 146 146 137 137 137 137 146 146 147 147 137 137 147 147 138 138 138 138 147 147 148 148 138 138 148 148 139 139 139 139 148 148 149 149 139 139 149 149 140 140 140 140 149 149 150 150 140 140 150 150 141 141 141 141 150 150 151 151 141 141 151 151 11 11 142 142 0 0 152 152 142 142 152 152 143 143 143 143 152 152 153 153 143 143 153 153 144 144 144 144 153 153 154 154 144 144 154 154 145 145 145 145 154 154 155 155 145 145 155 155 146 146 146 146 155 155 156 156 146 146 156 156 147 147 147 147 156 156 157 157 147 147 157 157 148 148 148 148 157 157 158 158 148 148 158 158 149 149 149 149 158 158 159 159 149 149 159 159 150 150 150 150 159 159 160 160 150 150 160 160 151 151 151 151 160 160 161 161 151 151 161 161 11 11 152 152 0 0 162 162 152 152 162 162 153 153 153 153 162 162 163 163 153 153 163 163 154 154 154 154 163 163 164 164 154 154 164 164 155 155 155 155 164 164 165 165 155 155 165 165 156 156 156 156 165 165 166 166 156 156 166 166 157 157 157 157 166 166 167 167 157 157 167 167 158 158 158 158 167 167 168 168 158 158 168 168 159 159 159 159 168 168 169 169 159 159 169 169 160 160 160 160 169 169 170 170 160 160 170 170 161 161 161 161 170 170 171 171 161 161 171 171 11 11 162 162 0 0 172 172 162 162 172 172 163 163 163 163 172 172 173 173 163 163 173 173 164 164 164 164 173 173 174 174 164 164 174 174 165 165 165 165 174 174 175 175 165 165 175 175 166 166 166 166 175 175 176 176 166 166 176 176 167 167 167 167 176 176 177 177 167 167 177 177 168 168 168 168 177 177 178 178 168 168 178 178 169 169 169 169 178 178 179 179 169 169 179 179 170 170 170 170 179 179 180 180 170 170 180 180 171 171 171 171 180 180 181 181 171 171 181 181 11 11 172 172 0 0 182 182 172 172 182 182 173 173 173 173 182 182 183 183 173 173 183 183 174 174 174 174 183 183 184 184 174 174 184 184 175 175 175 175 184 184 185 185 175 175 185 185 176 176 176 176 185 185 186 186 176 176 186 186 177 177 177 177 186 186 187 187 177 177 187 187 178 178 178 178 187 187 188 188 178 178 188 188 179 179 179 179 188 188 189 189 179 179 189 189 180 180 180 180 189 189 190 190 180 180 190 190 181 181 181 181 190 190 191 191 181 181 191 191 11 11 182 182 0 0 192 192 182 182 192 192 183 183 183 183 192 192 193 193 183 183 193 193 184 184 184 184 193 193 194 194 184 184 194 194 185 185 185 185 194 194 195 195 185 185 195 195 186 186 186 186 195 195 196 196 186 186 196 196 187 187 187 187 196 196 197 197 187 187 197 197 188 188 188 188 197 197 198 198 188 188 198 198 189 189 189 189 198 198 199 199 189 189 199 199 190 190 190 190 199 199 200 200 190 190 200 200 191 191 191 191 200 200 201 201 191 191 201 201 11 11 192 192 0 0 202 202 192 192 202 202 193 193 193 193 202 202 203 203 193 193 203 203 194 194 194 194 203 203 204 204 194 194 204 204 195 195 195 195 204 204 205 205 195 195 205 205 196 196 196 196 205 205 206 206 196 196 206 206 197 197 197 197 206 206 207 207 197 197 207 207 198 198 198 198 207 207 208 208 198 198 208 208 199 199 199 199 208 208 209 209 199 199 209 209 200 200 200 200 209 209 210 210 200 200 210 210 201 201 201 201 210 210 211 211 201 201 211 211 11 11 202 202 0 0 212 212 202 202 212 212 203 203 203 203 212 212 213 213 203 203 213 213 204 204 204 204 213 213 214 214 204 204 214 214 205 205 205 205 214 214 215 215 205 205 215 215 206 206 206 206 215 215 216 216 206 206 216 216 207 207 207 207 216 216 217 217 207 207 217 217 208 208 208 208 217 217 218 218 208 208 218 218 209 209 209 209 218 218 219 219 209 209 219 219 210 210 210 210 219 219 220 220 210 210 220 220 211 211 211 211 220 220 221 221 211 211 221 221 11 11 212 212 0 0 222 222 212 212 222 222 213 213 213 213 222 222 223 223 213 213 223 223 214 214 214 214 223 223 224 224 214 214 224 224 215 215 215 215 224 224 225 225 215 215 225 225 216 216 216 216 225 225 226 226 216 216 226 226 217 217 217 217 226 226 227 227 217 217 227 227 218 218 218 218 227 227 228 228 218 218 228 228 219 219 219 219 228 228 229 229 219 219 229 229 220 220 220 220 229 229 230 230 220 220 230 230 221 221 221 221 230 230 231 231 221 221 231 231 11 11 222 222 0 0 232 232 222 222 232 232 223 223 223 223 232 232 233 233 223 223 233 233 224 224 224 224 233 233 234 234 224 224 234 234 225 225 225 225 234 234 235 235 225 225 235 235 226 226 226 226 235 235 236 236 226 226 236 236 227 227 227 227 236 236 237 237 227 227 237 237 228 228 228 228 237 237 238 238 228 228 238 238 229 229 229 229 238 238 239 239 229 229 239 239 230 230 230 230 239 239 240 240 230 230 240 240 231 231 231 231 240 240 241 241 231 231 241 241 11 11 232 232 0 0 1 1 232 232 1 1 233 233 233 233 1 1 2 2 233 233 2 2 234 234 234 234 2 2 3 3 234 234 3 3 235 235 235 235 3 3 4 4 235 235 4 4 236 236 236 236 4 4 5 5 236 236 5 5 237 237 237 237 5 5 6 6 237 237 6 6 238 238 238 238 6 6 7 7 238 238 7 7 239 239 239 239 7 7 8 8 239 239 8 8 240 240 240 240 8 8 9 9 240 240 9 9 241 241 241 241 9 9 10 10 241 241 10 10 11 11</p>
        </triangles>
      </mesh>
    </geometry>
  </library_geometries>
  <library_materials>
    <material id="11b084b27ee04f36b5646cfc445251a3" name="defaultmaterial">
      <instance_effect url="#4a0c13ee69224c43a820bf2d05dc0139"/>
    </material>
  </library_materials>
  <library_visual_scenes>
    <visual_scene id="scene">
      <node id="node0" name="node0">
        <instance_geometry url="#882763ce70ff480ba95ed7b3fd2625ce">
          <bind_material>
            <technique_common>
              <instance_material symbol="material0" target="#11b084b27ee04f36b5646cfc445251a3"/>
            </technique_common>
          </bind_material>
        </instance_geometry>
      </node>
    </visual_scene>
  </library_visual_scenes>
  <scene>
    <instance_visual_scene url="#scene"/>
  </scene>
</COLLADA>
