<COLLADA xmlns="http://www.collada.org/2005/11/COLLADASchema" version="1.4.1">
  <asset>
    <created>2026-08-18T14:34:48.574470</created>
    <modified>2026-08-18T14:34:48.574475</modified>
    <up_axis>Y_UP</up_axis>
  </asset>
  <library_effects>
    <effect id="8a3e809e093144478ec7159a33034bf1" name="8a3e809e093144478ec7159a33034bf1">
      <profile_COMMON>
        <technique sid="common">
          <phong>
            <emission>
              <color>0.0 0.0 0.0 1.0</color>
            </emission>
            <ambient>
              <color>0.0 0.0 0.0 1.0</color>
            </ambient>
            <diffuse>
              <color>0.0 0.0 0.0 1.0</color>
            </diffuse>
            <specular>
              <color>0.0 0.0 0.0 1.0</color>
            </specular>
            <shininess>
              <float>0.0</float>
            </shininess>
            <reflective>
              <color>0.0 0.0 0.0 1.0</color>
            </reflective>
            <reflectivity>
              <float>0.0</float>
            </reflectivity>
            <transparent>
              <color>0.0 0.0 0.0 1.0</color>
            </transparent>
            <transparency>
              <float>1.0</float>
            </transparency>
          </phong>
        </technique>
        <extra>
          <technique profile="GOOGLEEARTH">
            <double_sided>0</double_sided>
          </technique>
        </extra>
      </profile_COMMON>
    </effect>
  </library_effects>
  <library_geometries>
    <geometry id="eee6f2627d294cb89d0587c3bbc6e5bf" name="86a89acaf4c64e579fbf240822fb5120">
      <mesh>
        <source id="verts-array">
          <float_array count="294" id="verts-array-array">0 0 -1 0.4338837 0 -0.9009689 0.7818315 0 -0.6234898 0.9749279 0 -0.2225209 0.9749279 0 0.2225209 0.7818315 0 0.6234898 0.4338837 0 0.9009689 1.224647e-16 0 1 0.4008563 0.1660401 -0.9009689 0.7223181 0.299194 -0.6234898 0.9007159 0.3730888 -0.2225209 0.9007159 0.3730888 0.2225209 0.7223181 0.299194 0.6234898 0.4008563 0.1660401 0.9009689 0.3068021 0.3068021 -0.9009689 0.5528383 0.5528383 -0.6234898 0.6893781 0.6893781 -0.2225209 0.6893781 0.6893781 0.2225209 0.5528383 0.5528383 0.6234898 0.3068021 0.3068021 0.9009689 0.1660401 0.4008563 -0.9009689 0.299194 0.7223181 -0.6234898 0.3730888 0.9007159 -0.2225209 0.3730888 0.9007159 0.2225209 0.299194 0.7223181 0.6234898 0.1660401 0.4008563 0.9009689 2.656772e-17 0.4338837 -0.9009689 4.787337e-17 0.7818315 -0.6234898 5.969712e-17 0.9749279 -0.2225209 5.969712e-17 0.9749279 0.2225209 4.787337e-17 0.7818315 0.6234898 2.656772e-17 0.4338837 0.9009689 -0.1660401 0.4008563 -0.9009689 -0.299194 0.7223181 -0.6234898 -0.3730888 0.9007159 -0.2225209 -0.3730888 0.9007159 0.2225209 -0.299194 0.7223181 0.6234898 -0.1660401 0.4008563 0.9009689 -0.3068021 0.3068021 -0.9009689 -0.5528383 0.5528383 -0.6234898 -0.6893781 0.6893781 -0.2225209 -0.6893781 0.6893781 0.2225209 -0.5528383 0.5528383 0.6234898 -0.3068021 0.3068021 0.9009689 -0.4008563 0.1660401 -0.9009689 -0.7223181 0.299194 -0.6234898 -0.9007159 0.3730888 -0.2225209 -0.9007159 0.3730888 0.2225209 -0.7223181 0.299194 0.6234898 -0.4008563 0.1660401 0.9009689 -0.4338837 5.313543e-17 -0.9009689 -0.7818315 9.574674e-17 -0.6234898 -0.9749279 1.193942e-16 -0.2225209 -0.9749279 1.193942e-16 0.2225209 -0.7818315 9.574674e-17 0.6234898 -0.4338837 5.313543e-17 0.9009689 -0.4008563 -0.1660401 -0.9009689 -0.7223181 -0.299194 -0.6234898 -0.9007159 -0.3730888 -0.2225209 -0.9007159 -0.3730888 0.2225209 -0.7223181 -0.299194 0.6234898 -0.4008563 -0.1660401 0.9009689 -0.3068021 -0.3068021 -0.9009689 -0.5528383 -0.5528383 -0.6234898 -0.6893781 -0.6893781 -0.2225209 -0.6893781 -0.6893781 0.2225209 -0.5528383 -0.5528383 0.6234898 -0.3068021 -0.3068021 0.9009689 -0.1660401 -0.4008563 -0.9009689 -0.299194 -0.7223181 -0.6234898 -0.3730888 -0.9007159 -0.2225209 -0.3730888 -0.9007159 0.2225209 -0.299194 -0.7223181 0.6234898 -0.1660401 -0.4008563 0.9009689 -7.970315e-17 -0.4338837 -0.9009689 -1.436201e-16 -0.7818315 -0.6234898 -1.790914e-16 -0.9749279 -0.2225209 -1.790914e-16 -0.9749279 0.2225209 -1.436201e-16 -0.7818315 0.6234898 -7.970315e-17 -0.4338837 0.9009689 0.1660401 -0.4008563 -0.9009689 0.299194 -0.7223181 -0.6234898 0.3730888 -0.9007159 -0.2225209 0.3730888 -0.9007159 0.2225209 0.299194 -0.7223181 0.6234898 0.1660401 -0.4008563 0.9009689 0.3068021 -0.3068021 -0.9009689 0.5528383 -0.5528383 -0.6234898 0.6893781 -0.6893781 -0.2225209 0.6893781 -0.6893781 0.2225209 0.5528383 -0.5528383 0.6234898 0.3068021 -0.3068021 0.9009689 0.4008563 -0.1660401 -0.9009689 0.7223181 -0.299194 -0.6234898 0.9007159 -0.3730888 -0.2225209 0.9007159 -0.3730888 0.2225209 0.7223181 -0.299194 0.6234898 0.4008563 -0.1660401 0.9009689</float_array>
          <technique_common>
            <accessor count="98" source="#verts-array-array" stride="3">
              <param type="float" name="X"/>
              <param type="float" name="Y"/>
              <param type="float" name="Z"/>
            </accessor>
          </technique_common>
        </source>
        <source id="normals-array">
          <float_array count="294" id="normals-array-array">-9.307233e-18 3.315702e-17 -1 0.4558973 -6.680071e-17 -0.8900324 0.7921571 -1.546789e-16 -0.6103173 0.9762277 -1.374457e-16 -0.2167477 0.9762277 -1.350759e-16 0.2167477 0.7921571 -1.687407e-16 0.6103173 0.4558973 -6.33455e-17 0.8900324 6.980425e-17 -2.210468e-17 1 0.4211942 0.1744644 -0.8900324 0.7318577 0.3031454 -0.6103173 0.9019167 0.3735861 -0.2167477 0.9019167 0.3735861 0.2167477 0.7318577 0.3031454 0.6103173 0.4211942 0.1744644 0.8900324 0.3223681 0.3223681 -0.8900324 0.5601396 0.5601396 -0.6103173 0.6902972 0.6902972 -0.2167477 0.6902972 0.6902972 0.2167477 0.5601396 0.5601396 0.6103173 0.3223681 0.3223681 0.8900324 0.1744644 0.4211942 -0.8900324 0.3031454 0.7318577 -0.6103173 0.3735861 0.9019167 -0.2167477 0.3735861 0.9019167 0.2167477 0.3031454 0.7318577 0.6103173 0.1744644 0.4211942 0.8900324 -4.606945e-18 0.4558973 -0.8900324 4.687241e-17 0.7921571 -0.6103173 2.843703e-17 0.9762277 -0.2167477 -9.479011e-18 0.9762277 0.2167477 2.812345e-17 0.7921571 0.6103173 1.26691e-17 0.4558973 0.8900324 -0.1744644 0.4211942 -0.8900324 -0.3031454 0.7318577 -0.6103173 -0.3735861 0.9019167 -0.2167477 -0.3735861 0.9019167 0.2167477 -0.3031454 0.7318577 0.6103173 -0.1744644 0.4211942 0.8900324 -0.3223681 0.3223681 -0.8900324 -0.5601396 0.5601396 -0.6103173 -0.6902972 0.6902972 -0.2167477 -0.6902972 0.6902972 0.2167477 -0.5601396 0.5601396 0.6103173 -0.3223681 0.3223681 0.8900324 -0.4211942 0.1744644 -0.8900324 -0.7318577 0.3031454 -0.6103173 -0.9019167 0.3735861 -0.2167477 -0.9019167 0.3735861 0.2167477 -0.7318577 0.3031454 0.6103173 -0.4211942 0.1744644 0.8900324 -0.4558973 7.831807e-17 -0.8900324 -0.7921571 1.874896e-16 -0.6103173 -0.9762277 1.801012e-16 -0.2167477 -0.9762277 1.327062e-16 0.2167477 -0.7921571 1.593662e-16 0.6103173 -0.4558973 1.359049e-16 0.8900324 -0.4211942 -0.1744644 -0.8900324 -0.7318577 -0.3031454 -0.6103173 -0.9019167 -0.3735861 -0.2167477 -0.9019167 -0.3735861 0.2167477 -0.7318577 -0.3031454 0.6103173 -0.4211942 -0.1744644 0.8900324 -0.3223681 -0.3223681 -0.8900324 -0.5601396 -0.5601396 -0.6103173 -0.6902972 -0.6902972 -0.2167477 -0.6902972 -0.6902972 0.2167477 -0.5601396 -0.5601396 0.6103173 -0.3223681 -0.3223681 0.8900324 -0.1744644 -0.4211942 -0.8900324 -0.3031454 -0.7318577 -0.6103173 -0.3735861 -0.9019167 -0.2167477 -0.3735861 -0.9019167 0.2167477 -0.3031454 -0.7318577 0.6103173 -0.1744644 -0.4211942 0.8900324 -7.371112e-17 -0.4558973 -0.8900324 -1.687407e-16 -0.7921571 -0.6103173 -1.706222e-16 -0.9762277 -0.2167477 -1.516642e-16 -0.9762277 0.2167477 -1.3593e-16 -0.7921571 0.6103173 -9.213891e-17 -0.4558973 0.8900324 0.1744644 -0.4211942 -0.8900324 0.3031454 -0.7318577 -0.6103173 0.3735861 -0.9019167 -0.2167477 0.3735861 -0.9019167 0.2167477 0.3031454 -0.7318577 0.6103173 0.1744644 -0.4211942 0.8900324 0.3223681 -0.3223681 -0.8900324 0.5601396 -0.5601396 -0.6103173 0.6902972 -0.6902972 -0.2167477 0.6902972 -0.6902972 0.2167477 0.5601396 -0.5601396 0.6103173 0.3223681 -0.3223681 0.8900324 0.4211942 -0.1744644 -0.8900324 0.7318577 -0.3031454 -0.6103173 0.9019167 -0.3735861 -0.2167477 0.9019167 -0.3735861 0.2167477 0.7318577 -0.3031454 0.6103173 0.4211942 -0.1744644 0.8900324</float_array>
          <technique_common>
            <accessor count="98" source="#normals-array-array" stride="3">
              <param type="float" name="X"/>
              <param type="float" name="Y"/>
              <param type="float" name="Z"/>
            </accessor>
          </technique_common>
        </source>
        <vertices id="verts-array-vertices">
          <input semantic="POSITION" source="#verts-array"/>
        </vertices>
        <triangles count="192" material="material0">
          <input offset="0" semantic="VERTEX" source="#verts-array-vertices"/>
          <input offset="1" semantic="NORMAL" source="#normals-array"/>
          <p>1 1 0 0 8 8 1 1 8 8 2 2 2 2 8 8 9 9 2 2 9 9 3 3 3 3 9 9 10 10 3 3 10 10 4 4 4 4 10 10 11 11 4 4 11 11 5 5 5 5 11 11 12 12 5 5 12 12 6 6 6 6 12 12 13 13 6 6 13 13 7 7 8 8 0 0 14 14 8 8 14 14 9 9 9 9 14 14 15 15 9 9 15 15 10 10 10 10 15 15 16 16 10 10 16 16 11 11 11 11 16 16 17 17 11 11 17 17 12 12 12 12 17 17 18 18 12 12 18 18 13 13 13 13 18 18 19 19 13 13 19 19 7 7 14 14 0 0 20 20 14 14 20 20 15 15 15 15 20 20 21 21 15 15 21 21 16 16 16 16 21 21 22 22 16 16 22 22 17 17 17 17 22 22 23 23 17 17 23 23 18 18 18 18 23 23 24 24 18 18 24 24 19 19 19 19 24 24 25 25 19 19 25 25 7 7 20 20 0 0 26 26 20 20 26 26 21 21 21 21 26 26 27 27 21 21 27 27 22 22 22 22 27 27 28 28 22 22 28 28 23 23 23 23 28 28 29 29 23 23 29 29 24 24 24 24 29 29 30 30 24 24 30 30 25 25 25 25 30 30 31 31 25 25 31 31 7 7 26 26 0 0 32 32 26 26 32 32 27 27 27 27 32 32 33 33 27 27 33 33 28 28 28 28 33 33 34 34 28 28 34 34 29 29 29 29 34 34 35 35 29 29 35 35 30 30 30 30 35 35 36 36 30 30 36 36 31 31 31 31 36 36 37 37 31 31 37 37 7 7 32 32 0 0 38 38 32 32 38 38 33 33 33 33 38 38 39 39 33 33 39 39 34 34 34 34 39 39 40 40 34 34 40 40 35 35 35 35 40 40 41 41 35 35 41 41 36 36 36 36 41 41 42 42 36 36 42 42 37 37 37 37 42 42 43 43 37 37 43 43 7 7 38 38 0 0 44 44 38 38 44 44 39 39 39 39 44 44 45 45 39 39 45 45 40 40 40 40 45 45 46 46 40 40 46 46 41 41 41 41 46 46 47 47 41 41 47 47 42 42 42 42 47 47 48 48 42 42 48 48 43 43 43 43 48 48 49 49 43 43 49 49 7 7 44 44 0 0 50 50 44 44 50 50 45 45 45 45 50 50 51 51 45 45 51 51 46 46 46 46 51 51 52 52 46 46 52 52 47 47 47 47 52 52 53 53 47 47 53 53 48 48 48 48 53 53 54 54 48 48 54 54 49 49 49 49 54 54 55 55 49 49 55 55 7 7 50 50 0 0 56 56 50 50 56 56 51 51 51 51 56 56 57 57 51 51 57 57 52 52 52 52 57 57 58 58 52 52 58 58 53 53 53 53 58 58 59 59 53 53 59 59 54 54 54 54 59 59 60 60 54 54 60 60 55 55 55 55 60 60 61 61 55 55 61 61 7 7 56 56 0 0 62 62 56 56 62 62 57 57 57 57 62 62 63 63 57 57 63 63 58 58 58 58 63 63 64 64 58 58 64 64 59 59 59 59 64 64 65 65 59 59 65 65 60 60 60 60 65 65 66 66 60 60 66 66 61 61 61 61 66 66 67 67 61 61 67 67 7 7 62 62 0 0 68 68 62 62 68 68 63 63 63 63 68 68 69 69 63 63 69 69 64 64 64 64 69 69 70 70 64 64 70 70 65 65 65 65 70 70 71 71 65 65 71 71 66 66 66 66 71 71 72 72 66 66 72 72 67 67 67 67 72 72 73 73 67 67 73 73 7 7 68 68 0 0 74 74 68 68 74 74 69 69 69 69 74 74 75 75 69 69 75 75 70 70 70 70 75 75 76 76 70 70 76 76 71 71 71 71 76 76 77 77 71 71 77 77 72 72 72 72 77 77 78 78 72 72 78 78 73 73 73 73 78 78 79 79 73 73 79 79 7 7 74 74 0 0 80 80 74 74 80 80 75 75 75 75 80 80 81 81 75 75 81 81 76 76 76 76 81 81 82 82 76 76 82 82 77 77 77 77 82 82 83 83 77 77 83 83 78 78 78 78 83 83 84 84 78 78 84 84 79 79 79 79 84 84 85 85 79 79 85 85 7 7 80 80 0 0 86 86 80 80 86 86 81 81 81 81 86 86 87 87 81 81 87 87 82 82 82 82 87 87 88 88 82 82 88 88 83 83 83 83 88 88 89 89 83 83 89 89 84 84 84 84 89 89 90 90 84 84 90 90 85 85 85 85 90 90 91 91 85 85 91 91 7 7 86 86 0 0 92 92 86 86 92 92 87 87 87 87 92 92 93 93 87 87 93 93 88 88 88 88 93 93 94 94 88 88 94 94 89 89 89 89 94 94 95 95 89 89 95 95 90 90 90 90 95 95 96 96 90 90 96 96 91 91 91 91 96 96 97 97 91 91 97 97 7 7 92 92 0 0 1 1 92 92 1 1 93 93 93 93 1 1 2 2 93 93 2 2 94 94 94 94 2 2 3 3 94 94 3 3 95 95 95 95 3 3 4 4 95 95 4 4 96 96 96 96 4 4 5 5 96 96 5 5 97 97 97 97 5 5 6 6 97 97 6 6 7 7</p>
        </triangles>
      </mesh>
    </geometry>
  </library_geometries>
  <library_materials>
    <material id="0aa7fa1858ee4e5dbed6b7b107f55053" name="defaultmaterial">
      <instance_effect url="#8a3e809e093144478ec7159a33034bf1"/>
    </material>
  </library_materials>
  <library_visual_scenes>
    <visual_scene id="scene">
      <node id="node0" name="node0">
        <instance_geometry url="#eee6f2627d294cb89d0587c3bbc6e5bf">
          <bind_material>
            <technique_common>
              <instance_material symbol="material0" target="#0aa7fa1858ee4e5dbed6b7b107f55053"/>
            </technique_common>
          </bind_material>
        </instance_geometry>
      </node>
    </visual_scene>
  </library_visual_scenes>
  <scene>
    <instance_visual_scene url="#scene"/>
  </scene>
</COLLADA>
