<COLLADA xmlns="http://www.collada.org/2005/11/COLLADASchema" version="1.4.1">
  <asset>
    <created>2026-08-18T14:34:48.598043</created>
    <modified>2026-08-18T14:34:48.598048</modified>
    <up_axis>Y_UP</up_axis>
  </asset>
  <library_effects>
    <effect id="6e52567f9c464335b56dc22d1b792b11" name="6e52567f9c464335b56dc22d1b792b11">
      <profile_COMMON>
        <technique sid="common">
          <phong>
            <emission>
              <color>0.0 0.0 0.0 1.0</color>
            </emission>
            <ambient>
              <color>0.0 0.0 0.0 1.0</color>
            </ambient>
            <diffuse>
              <color>0.0 0.0 0.0 1.0</color>
            </diffuse>
            <specular>
              <color>0.0 0.0 0.0 1.0</color>
            </specular>
            <shininess>
              <float>0.0</float>
            </shininess>
            <reflective>
              <color>0.0 0.0 0.0 1.0</color>
            </reflective>
            <reflectivity>
              <float>0.0</float>
            </reflectivity>
            <transparent>
              <color>0.0 0.0 0.0 1.0</color>
            </transparent>
            <transparency>
              <float>1.0</float>
            </transparency>
          </phong>
        </technique>
        <extra>
          <technique profile="GOOGLEEARTH">
            <double_sided>0</double_sided>
          </technique>
        </extra>
      </profile_COMMON>
    </effect>
  </library_effects>
  <library_geometries>
    <geometry id="91007278041647c89532289aff6dfa38" name="58951dcab5b743ff95e2190ff86a9400">
      <mesh>
        <source id="verts-array">
          <float_array count="1350" id="verts-array-array">0 0 -1 0.2079117 0 -0.9781476 0.4067366 0 -0.9135455 0.5877853 0 -0.809017 0.7431448 0 -0.6691306 0.8660254 0 -0.5 0.9510565 0 -0.309017 0.9945219 0 -0.1045285 0.9945219 0 0.1045285 0.9510565 0 0.309017 0.8660254 0 0.5 0.7431448 0 0.6691306 0.5877853 0 0.809017 0.4067366 0 0.9135455 0.2079117 0 0.9781476 1.224647e-16 0 1 0.2039167 0.04056156 -0.9781476 0.3989213 0.07935038 -0.9135455 0.5764911 0.1146712 -0.809017 0.7288655 0.1449804 -0.6691306 0.849385 0.1689532 -0.5 0.9327822 0.1855419 -0.309017 0.9754124 0.1940216 -0.1045285 0.9754124 0.1940216 0.1045285 0.9327822 0.1855419 0.309017 0.849385 0.1689532 0.5 0.7288655 0.1449804 0.6691306 0.5764911 0.1146712 0.809017 0.3989213 0.07935038 0.9135455 0.2039167 0.04056156 0.9781476 0.1920854 0.07956436 -0.9781476 0.3757757 0.1556514 -0.9135455 0.5430428 0.2249357 -0.809017 0.6865763 0.2843892 -0.6691306 0.8001031 0.3314136 -0.5 0.8786616 0.3639536 -0.309017 0.9188184 0.3805871 -0.1045285 0.9188184 0.3805871 0.1045285 0.8786616 0.3639536 0.309017 0.8001031 0.3314136 0.5 0.6865763 0.2843892 0.6691306 0.5430428 0.2249357 0.809017 0.3757757 0.1556514 0.9135455 0.1920854 0.07956436 0.9781476 0.1728723 0.1155095 -0.9781476 0.3381892 0.2259708 -0.9135455 0.4887256 0.326556 -0.809017 0.6179023 0.4128691 -0.6691306 0.7200738 0.4811379 -0.5 0.7907746 0.5283787 -0.309017 0.8269147 0.5525268 -0.1045285 0.8269147 0.5525268 0.1045285 0.7907746 0.5283787 0.309017 0.7200738 0.4811379 0.5 0.6179023 0.4128691 0.6691306 0.4887256 0.326556 0.809017 0.3381892 0.2259708 0.9135455 0.1728723 0.1155095 0.9781476 0.1470158 0.1470158 -0.9781476 0.2876062 0.2876062 -0.9135455 0.4156269 0.4156269 -0.809017 0.5254827 0.5254827 -0.6691306 0.6123724 0.6123724 -0.5 0.6724985 0.6724985 -0.309017 0.7032332 0.7032332 -0.1045285 0.7032332 0.7032332 0.1045285 0.6724985 0.6724985 0.309017 0.6123724 0.6123724 0.5 0.5254827 0.5254827 0.6691306 0.4156269 0.4156269 0.809017 0.2876062 0.2876062 0.9135455 0.1470158 0.1470158 0.9781476 0.1155095 0.1728723 -0.9781476 0.2259708 0.3381892 -0.9135455 0.326556 0.4887256 -0.809017 0.4128691 0.6179023 -0.6691306 0.4811379 0.7200738 -0.5 0.5283787 0.7907746 -0.309017 0.5525268 0.8269147 -0.1045285 0.5525268 0.8269147 0.1045285 0.5283787 0.7907746 0.309017 0.4811379 0.7200738 0.5 0.4128691 0.6179023 0.6691306 0.326556 0.4887256 0.809017 0.2259708 0.3381892 0.9135455 0.1155095 0.1728723 0.9781476 0.07956436 0.1920854 -0.9781476 0.1556514 0.3757757 -0.9135455 0.2249357 0.5430428 -0.809017 0.2843892 0.6865763 -0.6691306 0.3314136 0.8001031 -0.5 0.3639536 0.8786616 -0.309017 0.3805871 0.9188184 -0.1045285 0.3805871 0.9188184 0.1045285 0.3639536 0.8786616 0.309017 0.3314136 0.8001031 0.5 0.2843892 0.6865763 0.6691306 0.2249357 0.5430428 0.809017 0.1556514 0.3757757 0.9135455 0.07956436 0.1920854 0.9781476 0.04056156 0.2039167 -0.9781476 0.07935038 0.3989213 -0.9135455 0.1146712 0.5764911 -0.809017 0.1449804 0.7288655 -0.6691306 0.1689532 0.849385 -0.5 0.1855419 0.9327822 -0.309017 0.1940216 0.9754124 -0.1045285 0.1940216 0.9754124 0.1045285 0.1855419 0.9327822 0.309017 0.1689532 0.849385 0.5 0.1449804 0.7288655 0.6691306 0.1146712 0.5764911 0.809017 0.07935038 0.3989213 0.9135455 0.04056156 0.2039167 0.9781476 1.273092e-17 0.2079117 -0.9781476 2.490544e-17 0.4067366 -0.9135455 3.599147e-17 0.5877853 -0.809017 4.55045e-17 0.7431448 -0.6691306 5.302876e-17 0.8660254 -0.5 5.823542e-17 0.9510565 -0.309017 6.08969e-17 0.9945219 -0.1045285 6.08969e-17 0.9945219 0.1045285 5.823542e-17 0.9510565 0.309017 5.302876e-17 0.8660254 0.5 4.55045e-17 0.7431448 0.6691306 3.599147e-17 0.5877853 0.809017 2.490544e-17 0.4067366 0.9135455 1.273092e-17 0.2079117 0.9781476 -0.04056156 0.2039167 -0.9781476 -0.07935038 0.3989213 -0.9135455 -0.1146712 0.5764911 -0.809017 -0.1449804 0.7288655 -0.6691306 -0.1689532 0.849385 -0.5 -0.1855419 0.9327822 -0.309017 -0.1940216 0.9754124 -0.1045285 -0.1940216 0.9754124 0.1045285 -0.1855419 0.9327822 0.309017 -0.1689532 0.849385 0.5 -0.1449804 0.7288655 0.6691306 -0.1146712 0.5764911 0.809017 -0.07935038 0.3989213 0.9135455 -0.04056156 0.2039167 0.9781476 -0.07956436 0.1920854 -0.9781476 -0.1556514 0.3757757 -0.9135455 -0.2249357 0.5430428 -0.809017 -0.2843892 0.6865763 -0.6691306 -0.3314136 0.8001031 -0.5 -0.3639536 0.8786616 -0.309017 -0.3805871 0.9188184 -0.1045285 -0.3805871 0.9188184 0.1045285 -0.3639536 0.8786616 0.309017 -0.3314136 0.8001031 0.5 -0.2843892 0.6865763 0.6691306 -0.2249357 0.5430428 0.809017 -0.1556514 0.3757757 0.9135455 -0.07956436 0.1920854 0.9781476 -0.1155095 0.1728723 -0.9781476 -0.2259708 0.3381892 -0.9135455 -0.326556 0.4887256 -0.809017 -0.4128691 0.6179023 -0.6691306 -0.4811379 0.7200738 -0.5 -0.5283787 0.7907746 -0.309017 -0.5525268 0.8269147 -0.1045285 -0.5525268 0.8269147 0.1045285 -0.5283787 0.7907746 0.309017 -0.4811379 0.7200738 0.5 -0.4128691 0.6179023 0.6691306 -0.326556 0.4887256 0.809017 -0.2259708 0.3381892 0.9135455 -0.1155095 0.1728723 0.9781476 -0.1470158 0.1470158 -0.9781476 -0.2876062 0.2876062 -0.9135455 -0.4156269 0.4156269 -0.809017 -0.5254827 0.5254827 -0.6691306 -0.6123724 0.6123724 -0.5 -0.6724985 0.6724985 -0.309017 -0.7032332 0.7032332 -0.1045285 -0.7032332 0.7032332 0.1045285 -0.6724985 0.6724985 0.309017 -0.6123724 0.6123724 0.5 -0.5254827 0.5254827 0.6691306 -0.4156269 0.4156269 0.809017 -0.2876062 0.2876062 0.9135455 -0.1470158 0.1470158 0.9781476 -0.1728723 0.1155095 -0.9781476 -0.3381892 0.2259708 -0.9135455 -0.4887256 0.326556 -0.809017 -0.6179023 0.4128691 -0.6691306 -0.7200738 0.4811379 -0.5 -0.7907746 0.5283787 -0.309017 -0.8269147 0.5525268 -0.1045285 -0.8269147 0.5525268 0.1045285 -0.7907746 0.5283787 0.309017 -0.7200738 0.4811379 0.5 -0.6179023 0.4128691 0.6691306 -0.4887256 0.326556 0.809017 -0.3381892 0.2259708 0.9135455 -0.1728723 0.1155095 0.9781476 -0.1920854 0.07956436 -0.9781476 -0.3757757 0.1556514 -0.9135455 -0.5430428 0.2249357 -0.809017 -0.6865763 0.2843892 -0.6691306 -0.8001031 0.3314136 -0.5 -0.8786616 0.3639536 -0.309017 -0.9188184 0.3805871 -0.1045285 -0.9188184 0.3805871 0.1045285 -0.8786616 0.3639536 0.309017 -0.8001031 0.3314136 0.5 -0.6865763 0.2843892 0.6691306 -0.5430428 0.2249357 0.809017 -0.3757757 0.1556514 0.9135455 -0.1920854 0.07956436 0.9781476 -0.2039167 0.04056156 -0.9781476 -0.3989213 0.07935038 -0.9135455 -0.5764911 0.1146712 -0.809017 -0.7288655 0.1449804 -0.6691306 -0.849385 0.1689532 -0.5 -0.9327822 0.1855419 -0.309017 -0.9754124 0.1940216 -0.1045285 -0.9754124 0.1940216 0.1045285 -0.9327822 0.1855419 0.309017 -0.849385 0.1689532 0.5 -0.7288655 0.1449804 0.6691306 -0.5764911 0.1146712 0.809017 -0.3989213 0.07935038 0.9135455 -0.2039167 0.04056156 0.9781476 -0.2079117 2.546184e-17 -0.9781476 -0.4067366 4.981087e-17 -0.9135455 -0.5877853 7.198293e-17 -0.809017 -0.7431448 9.100899e-17 -0.6691306 -0.8660254 1.060575e-16 -0.5 -0.9510565 1.164708e-16 -0.309017 -0.9945219 1.217938e-16 -0.1045285 -0.9945219 1.217938e-16 0.1045285 -0.9510565 1.164708e-16 0.309017 -0.8660254 1.060575e-16 0.5 -0.7431448 9.100899e-17 0.6691306 -0.5877853 7.198293e-17 0.809017 -0.4067366 4.981087e-17 0.9135455 -0.2079117 2.546184e-17 0.9781476 -0.2039167 -0.04056156 -0.9781476 -0.3989213 -0.07935038 -0.9135455 -0.5764911 -0.1146712 -0.809017 -0.7288655 -0.1449804 -0.6691306 -0.849385 -0.1689532 -0.5 -0.9327822 -0.1855419 -0.309017 -0.9754124 -0.1940216 -0.1045285 -0.9754124 -0.1940216 0.1045285 -0.9327822 -0.1855419 0.309017 -0.849385 -0.1689532 0.5 -0.7288655 -0.1449804 0.6691306 -0.5764911 -0.1146712 0.809017 -0.3989213 -0.07935038 0.9135455 -0.2039167 -0.04056156 0.9781476 -0.1920854 -0.07956436 -0.9781476 -0.3757757 -0.1556514 -0.9135455 -0.5430428 -0.2249357 -0.809017 -0.6865763 -0.2843892 -0.6691306 -0.8001031 -0.3314136 -0.5 -0.8786616 -0.3639536 -0.309017 -0.9188184 -0.3805871 -0.1045285 -0.9188184 -0.3805871 0.1045285 -0.8786616 -0.3639536 0.309017 -0.8001031 -0.3314136 0.5 -0.6865763 -0.2843892 0.6691306 -0.5430428 -0.2249357 0.809017 -0.3757757 -0.1556514 0.9135455 -0.1920854 -0.07956436 0.9781476 -0.1728723 -0.1155095 -0.9781476 -0.3381892 -0.2259708 -0.9135455 -0.4887256 -0.326556 -0.809017 -0.6179023 -0.4128691 -0.6691306 -0.7200738 -0.4811379 -0.5 -0.7907746 -0.5283787 -0.309017 -0.8269147 -0.5525268 -0.1045285 -0.8269147 -0.5525268 0.1045285 -0.7907746 -0.5283787 0.309017 -0.7200738 -0.4811379 0.5 -0.6179023 -0.4128691 0.6691306 -0.4887256 -0.326556 0.809017 -0.3381892 -0.2259708 0.9135455 -0.1728723 -0.1155095 0.9781476 -0.1470158 -0.1470158 -0.9781476 -0.2876062 -0.2876062 -0.9135455 -0.4156269 -0.4156269 -0.809017 -0.5254827 -0.5254827 -0.6691306 -0.6123724 -0.6123724 -0.5 -0.6724985 -0.6724985 -0.309017 -0.7032332 -0.7032332 -0.1045285 -0.7032332 -0.7032332 0.1045285 -0.6724985 -0.6724985 0.309017 -0.6123724 -0.6123724 0.5 -0.5254827 -0.5254827 0.6691306 -0.4156269 -0.4156269 0.809017 -0.2876062 -0.2876062 0.9135455 -0.1470158 -0.1470158 0.9781476 -0.1155095 -0.1728723 -0.9781476 -0.2259708 -0.3381892 -0.9135455 -0.326556 -0.4887256 -0.809017 -0.4128691 -0.6179023 -0.6691306 -0.4811379 -0.7200738 -0.5 -0.5283787 -0.7907746 -0.309017 -0.5525268 -0.8269147 -0.1045285 -0.5525268 -0.8269147 0.1045285 -0.5283787 -0.7907746 0.309017 -0.4811379 -0.7200738 0.5 -0.4128691 -0.6179023 0.6691306 -0.326556 -0.4887256 0.809017 -0.2259708 -0.3381892 0.9135455 -0.1155095 -0.1728723 0.9781476 -0.07956436 -0.1920854 -0.9781476 -0.1556514 -0.3757757 -0.9135455 -0.2249357 -0.5430428 -0.809017 -0.2843892 -0.6865763 -0.6691306 -0.3314136 -0.8001031 -0.5 -0.3639536 -0.8786616 -0.309017 -0.3805871 -0.9188184 -0.1045285 -0.3805871 -0.9188184 0.1045285 -0.3639536 -0.8786616 0.309017 -0.3314136 -0.8001031 0.5 -0.2843892 -0.6865763 0.6691306 -0.2249357 -0.5430428 0.809017 -0.1556514 -0.3757757 0.9135455 -0.07956436 -0.1920854 0.9781476 -0.04056156 -0.2039167 -0.9781476 -0.07935038 -0.3989213 -0.9135455 -0.1146712 -0.5764911 -0.809017 -0.1449804 -0.7288655 -0.6691306 -0.1689532 -0.849385 -0.5 -0.1855419 -0.9327822 -0.309017 -0.1940216 -0.9754124 -0.1045285 -0.1940216 -0.9754124 0.1045285 -0.1855419 -0.9327822 0.309017 -0.1689532 -0.849385 0.5 -0.1449804 -0.7288655 0.6691306 -0.1146712 -0.5764911 0.809017 -0.07935038 -0.3989213 0.9135455 -0.04056156 -0.2039167 0.9781476 -3.819276e-17 -0.2079117 -0.9781476 -7.471631e-17 -0.4067366 -0.9135455 -1.079744e-16 -0.5877853 -0.809017 -1.365135e-16 -0.7431448 -0.6691306 -1.590863e-16 -0.8660254 -0.5 -1.747062e-16 -0.9510565 -0.309017 -1.826907e-16 -0.9945219 -0.1045285 -1.826907e-16 -0.9945219 0.1045285 -1.747062e-16 -0.9510565 0.309017 -1.590863e-16 -0.8660254 0.5 -1.365135e-16 -0.7431448 0.6691306 -1.079744e-16 -0.5877853 0.809017 -7.471631e-17 -0.4067366 0.9135455 -3.819276e-17 -0.2079117 0.9781476 0.04056156 -0.2039167 -0.9781476 0.07935038 -0.3989213 -0.9135455 0.1146712 -0.5764911 -0.809017 0.1449804 -0.7288655 -0.6691306 0.1689532 -0.849385 -0.5 0.1855419 -0.9327822 -0.309017 0.1940216 -0.9754124 -0.1045285 0.1940216 -0.9754124 0.1045285 0.1855419 -0.9327822 0.309017 0.1689532 -0.849385 0.5 0.1449804 -0.7288655 0.6691306 0.1146712 -0.5764911 0.809017 0.07935038 -0.3989213 0.9135455 0.04056156 -0.2039167 0.9781476 0.07956436 -0.1920854 -0.9781476 0.1556514 -0.3757757 -0.9135455 0.2249357 -0.5430428 -0.809017 0.2843892 -0.6865763 -0.6691306 0.3314136 -0.8001031 -0.5 0.3639536 -0.8786616 -0.309017 0.3805871 -0.9188184 -0.1045285 0.3805871 -0.9188184 0.1045285 0.3639536 -0.8786616 0.309017 0.3314136 -0.8001031 0.5 0.2843892 -0.6865763 0.6691306 0.2249357 -0.5430428 0.809017 0.1556514 -0.3757757 0.9135455 0.07956436 -0.1920854 0.9781476 0.1155095 -0.1728723 -0.9781476 0.2259708 -0.3381892 -0.9135455 0.326556 -0.4887256 -0.809017 0.4128691 -0.6179023 -0.6691306 0.4811379 -0.7200738 -0.5 0.5283787 -0.7907746 -0.309017 0.5525268 -0.8269147 -0.1045285 0.5525268 -0.8269147 0.1045285 0.5283787 -0.7907746 0.309017 0.4811379 -0.7200738 0.5 0.4128691 -0.6179023 0.6691306 0.326556 -0.4887256 0.809017 0.2259708 -0.3381892 0.9135455 0.1155095 -0.1728723 0.9781476 0.1470158 -0.1470158 -0.9781476 0.2876062 -0.2876062 -0.9135455 0.4156269 -0.4156269 -0.809017 0.5254827 -0.5254827 -0.6691306 0.6123724 -0.6123724 -0.5 0.6724985 -0.6724985 -0.309017 0.7032332 -0.7032332 -0.1045285 0.7032332 -0.7032332 0.1045285 0.6724985 -0.6724985 0.309017 0.6123724 -0.6123724 0.5 0.5254827 -0.5254827 0.6691306 0.4156269 -0.4156269 0.809017 0.2876062 -0.2876062 0.9135455 0.1470158 -0.1470158 0.9781476 0.1728723 -0.1155095 -0.9781476 0.3381892 -0.2259708 -0.9135455 0.4887256 -0.326556 -0.809017 0.6179023 -0.4128691 -0.6691306 0.7200738 -0.4811379 -0.5 0.7907746 -0.5283787 -0.309017 0.8269147 -0.5525268 -0.1045285 0.8269147 -0.5525268 0.1045285 0.7907746 -0.5283787 0.309017 0.7200738 -0.4811379 0.5 0.6179023 -0.4128691 0.6691306 0.4887256 -0.326556 0.809017 0.3381892 -0.2259708 0.9135455 0.1728723 -0.1155095 0.9781476 0.1920854 -0.07956436 -0.9781476 0.3757757 -0.1556514 -0.9135455 0.5430428 -0.2249357 -0.809017 0.6865763 -0.2843892 -0.6691306 0.8001031 -0.3314136 -0.5 0.8786616 -0.3639536 -0.309017 0.9188184 -0.3805871 -0.1045285 0.9188184 -0.3805871 0.1045285 0.8786616 -0.3639536 0.309017 0.8001031 -0.3314136 0.5 0.6865763 -0.2843892 0.6691306 0.5430428 -0.2249357 0.809017 0.3757757 -0.1556514 0.9135455 0.1920854 -0.07956436 0.9781476 0.2039167 -0.04056156 -0.9781476 0.3989213 -0.07935038 -0.9135455 0.5764911 -0.1146712 -0.809017 0.7288655 -0.1449804 -0.6691306 0.849385 -0.1689532 -0.5 0.9327822 -0.1855419 -0.309017 0.9754124 -0.1940216 -0.1045285 0.9754124 -0.1940216 0.1045285 0.9327822 -0.1855419 0.309017 0.849385 -0.1689532 0.5 0.7288655 -0.1449804 0.6691306 0.5764911 -0.1146712 0.809017 0.3989213 -0.07935038 0.9135455 0.2039167 -0.04056156 0.9781476</float_array>
          <technique_common>
            <accessor count="450" source="#verts-array-array" stride="3">
              <param type="float" name="X"/>
              <param type="float" name="Y"/>
              <param type="float" name="Z"/>
            </accessor>
          </technique_common>
        </source>
        <source id="normals-array">
          <float_array count="1350" id="normals-array-array">-1.272967e-16 8.011877e-17 -1 0.214145 -6.534383e-17 -0.9768019 0.4121589 -1.025197e-16 -0.911112 0.5920266 -1.976427e-16 -0.8059184 0.7460396 3.244677e-17 -0.6659016 0.8676387 -1.322535e-16 -0.4971952 0.9516719 -2.109782e-16 -0.3071165 0.9945923 -1.976454e-16 -0.1038568 0.9945923 -1.48234e-16 0.1038568 0.9516719 -1.694559e-16 0.3071165 0.8676387 -1.782061e-16 0.4971952 0.7460396 4.251645e-17 0.6659016 0.5920266 -1.853598e-16 0.8059184 0.4121589 -1.225779e-16 0.911112 0.214145 2.002024e-17 0.9768019 6.029844e-17 -1.116638e-18 1 0.2100302 0.04177761 -0.9768019 0.4042394 0.08040821 -0.911112 0.580651 0.1154987 -0.8059184 0.7317047 0.1455451 -0.6659016 0.8509673 0.1692679 -0.4971952 0.9333858 0.185662 -0.3071165 0.9754815 0.1940353 -0.1038568 0.9754815 0.1940353 0.1038568 0.9333858 0.185662 0.3071165 0.8509673 0.1692679 0.4971952 0.7317047 0.1455451 0.6659016 0.580651 0.1154987 0.8059184 0.4042394 0.08040821 0.911112 0.2100302 0.04177761 0.9768019 0.1978442 0.08194973 -0.9768019 0.3807851 0.1577264 -0.911112 0.5469613 0.2265588 -0.8059184 0.6892507 0.285497 -0.6659016 0.8015937 0.332031 -0.4971952 0.8792302 0.3641891 -0.3071165 0.9188834 0.380614 -0.1038568 0.9188834 0.380614 0.1038568 0.8792302 0.3641891 0.3071165 0.8015937 0.332031 0.4971952 0.6892507 0.285497 0.6659016 0.5469613 0.2265588 0.8059184 0.3807851 0.1577264 0.911112 0.1978442 0.08194973 0.9768019 0.178055 0.1189726 -0.9768019 0.3426976 0.2289832 -0.911112 0.4922521 0.3289124 -0.8059184 0.6203093 0.4144774 -0.6659016 0.7214152 0.4820342 -0.4971952 0.7912863 0.5287206 -0.3071165 0.8269732 0.5525659 -0.1038568 0.8269732 0.5525659 0.1038568 0.7912863 0.5287206 0.3071165 0.7214152 0.4820342 0.4971952 0.6203093 0.4144774 0.6659016 0.4922521 0.3289124 0.8059184 0.3426976 0.2289832 0.911112 0.178055 0.1189726 0.9768019 0.1514234 0.1514234 -0.9768019 0.2914403 0.2914403 -0.911112 0.418626 0.418626 -0.8059184 0.5275297 0.5275297 -0.6659016 0.6135132 0.6135132 -0.4971952 0.6729337 0.6729337 -0.3071165 0.7032829 0.7032829 -0.1038568 0.7032829 0.7032829 0.1038568 0.6729337 0.6729337 0.3071165 0.6135132 0.6135132 0.4971952 0.5275297 0.5275297 0.6659016 0.418626 0.418626 0.8059184 0.2914403 0.2914403 0.911112 0.1514234 0.1514234 0.9768019 0.1189726 0.178055 -0.9768019 0.2289832 0.3426976 -0.911112 0.3289124 0.4922521 -0.8059184 0.4144774 0.6203093 -0.6659016 0.4820342 0.7214152 -0.4971952 0.5287206 0.7912863 -0.3071165 0.5525659 0.8269732 -0.1038568 0.5525659 0.8269732 0.1038568 0.5287206 0.7912863 0.3071165 0.4820342 0.7214152 0.4971952 0.4144774 0.6203093 0.6659016 0.3289124 0.4922521 0.8059184 0.2289832 0.3426976 0.911112 0.1189726 0.178055 0.9768019 0.08194973 0.1978442 -0.9768019 0.1577264 0.3807851 -0.911112 0.2265588 0.5469613 -0.8059184 0.285497 0.6892507 -0.6659016 0.332031 0.8015937 -0.4971952 0.3641891 0.8792302 -0.3071165 0.380614 0.9188834 -0.1038568 0.380614 0.9188834 0.1038568 0.3641891 0.8792302 0.3071165 0.332031 0.8015937 0.4971952 0.285497 0.6892507 0.6659016 0.2265588 0.5469613 0.8059184 0.1577264 0.3807851 0.911112 0.08194973 0.1978442 0.9768019 0.04177761 0.2100302 -0.9768019 0.08040821 0.4042394 -0.911112 0.1154987 0.580651 -0.8059184 0.1455451 0.7317047 -0.6659016 0.1692679 0.8509673 -0.4971952 0.185662 0.9333858 -0.3071165 0.1940353 0.9754815 -0.1038568 0.1940353 0.9754815 0.1038568 0.185662 0.9333858 0.3071165 0.1692679 0.8509673 0.4971952 0.1455451 0.7317047 0.6659016 0.1154987 0.580651 0.8059184 0.08040821 0.4042394 0.911112 0.04177761 0.2100302 0.9768019 6.673412e-18 0.214145 -0.9768019 -1.337213e-17 0.4121589 -0.911112 3.349876e-17 0.5920266 -0.8059184 -2.68525e-17 0.7460396 -0.6659016 -6.27644e-17 0.8676387 -0.4971952 3.142229e-17 0.9516719 -0.3071165 1.796776e-17 0.9945923 -0.1038568 -2.695164e-17 0.9945923 0.1038568 -1.34667e-17 0.9516719 0.3071165 4.034854e-17 0.8676387 0.4971952 1.566396e-17 0.7460396 0.6659016 -5.136476e-17 0.5920266 0.8059184 1.00291e-17 0.4121589 0.911112 5.283118e-18 0.214145 0.9768019 -0.04177761 0.2100302 -0.9768019 -0.08040821 0.4042394 -0.911112 -0.1154987 0.580651 -0.8059184 -0.1455451 0.7317047 -0.6659016 -0.1692679 0.8509673 -0.4971952 -0.185662 0.9333858 -0.3071165 -0.1940353 0.9754815 -0.1038568 -0.1940353 0.9754815 0.1038568 -0.185662 0.9333858 0.3071165 -0.1692679 0.8509673 0.4971952 -0.1455451 0.7317047 0.6659016 -0.1154987 0.580651 0.8059184 -0.08040821 0.4042394 0.911112 -0.04177761 0.2100302 0.9768019 -0.08194973 0.1978442 -0.9768019 -0.1577264 0.3807851 -0.911112 -0.2265588 0.5469613 -0.8059184 -0.285497 0.6892507 -0.6659016 -0.332031 0.8015937 -0.4971952 -0.3641891 0.8792302 -0.3071165 -0.380614 0.9188834 -0.1038568 -0.380614 0.9188834 0.1038568 -0.3641891 0.8792302 0.3071165 -0.332031 0.8015937 0.4971952 -0.285497 0.6892507 0.6659016 -0.2265588 0.5469613 0.8059184 -0.1577264 0.3807851 0.911112 -0.08194973 0.1978442 0.9768019 -0.1189726 0.178055 -0.9768019 -0.2289832 0.3426976 -0.911112 -0.3289124 0.4922521 -0.8059184 -0.4144774 0.6203093 -0.6659016 -0.4820342 0.7214152 -0.4971952 -0.5287206 0.7912863 -0.3071165 -0.5525659 0.8269732 -0.1038568 -0.5525659 0.8269732 0.1038568 -0.5287206 0.7912863 0.3071165 -0.4820342 0.7214152 0.4971952 -0.4144774 0.6203093 0.6659016 -0.3289124 0.4922521 0.8059184 -0.2289832 0.3426976 0.911112 -0.1189726 0.178055 0.9768019 -0.1514234 0.1514234 -0.9768019 -0.2914403 0.2914403 -0.911112 -0.418626 0.418626 -0.8059184 -0.5275297 0.5275297 -0.6659016 -0.6135132 0.6135132 -0.4971952 -0.6729337 0.6729337 -0.3071165 -0.7032829 0.7032829 -0.1038568 -0.7032829 0.7032829 0.1038568 -0.6729337 0.6729337 0.3071165 -0.6135132 0.6135132 0.4971952 -0.5275297 0.5275297 0.6659016 -0.418626 0.418626 0.8059184 -0.2914403 0.2914403 0.911112 -0.1514234 0.1514234 0.9768019 -0.178055 0.1189726 -0.9768019 -0.3426976 0.2289832 -0.911112 -0.4922521 0.3289124 -0.8059184 -0.6203093 0.4144774 -0.6659016 -0.7214152 0.4820342 -0.4971952 -0.7912863 0.5287206 -0.3071165 -0.8269732 0.5525659 -0.1038568 -0.8269732 0.5525659 0.1038568 -0.7912863 0.5287206 0.3071165 -0.7214152 0.4820342 0.4971952 -0.6203093 0.4144774 0.6659016 -0.4922521 0.3289124 0.8059184 -0.3426976 0.2289832 0.911112 -0.178055 0.1189726 0.9768019 -0.1978442 0.08194973 -0.9768019 -0.3807851 0.1577264 -0.911112 -0.5469613 0.2265588 -0.8059184 -0.6892507 0.285497 -0.6659016 -0.8015937 0.332031 -0.4971952 -0.8792302 0.3641891 -0.3071165 -0.9188834 0.380614 -0.1038568 -0.9188834 0.380614 0.1038568 -0.8792302 0.3641891 0.3071165 -0.8015937 0.332031 0.4971952 -0.6892507 0.285497 0.6659016 -0.5469613 0.2265588 0.8059184 -0.3807851 0.1577264 0.911112 -0.1978442 0.08194973 0.9768019 -0.2100302 0.04177761 -0.9768019 -0.4042394 0.08040821 -0.911112 -0.580651 0.1154987 -0.8059184 -0.7317047 0.1455451 -0.6659016 -0.8509673 0.1692679 -0.4971952 -0.9333858 0.185662 -0.3071165 -0.9754815 0.1940353 -0.1038568 -0.9754815 0.1940353 0.1038568 -0.9333858 0.185662 0.3071165 -0.8509673 0.1692679 0.4971952 -0.7317047 0.1455451 0.6659016 -0.580651 0.1154987 0.8059184 -0.4042394 0.08040821 0.911112 -0.2100302 0.04177761 0.9768019 -0.214145 6.673412e-18 -0.9768019 -0.4121589 -2.00582e-17 -0.911112 -0.5920266 2.903226e-17 -0.8059184 -0.7460396 -8.950832e-18 -0.6659016 -0.8676387 -5.379805e-17 -0.4971952 -0.9516719 3.142229e-17 -0.3071165 -0.9945923 2.24597e-17 -0.1038568 -0.9945923 -4.49194e-17 0.1038568 -0.9516719 -2.244449e-17 0.3071165 -0.8676387 5.379805e-17 0.4971952 -0.7460396 -1.118854e-17 0.6659016 -0.5920266 -4.913151e-17 0.8059184 -0.4121589 1.00291e-17 0.911112 -0.214145 8.897883e-18 0.9768019 -0.2100302 -0.04177761 -0.9768019 -0.4042394 -0.08040821 -0.911112 -0.580651 -0.1154987 -0.8059184 -0.7317047 -0.1455451 -0.6659016 -0.8509673 -0.1692679 -0.4971952 -0.9333858 -0.185662 -0.3071165 -0.9754815 -0.1940353 -0.1038568 -0.9754815 -0.1940353 0.1038568 -0.9333858 -0.185662 0.3071165 -0.8509673 -0.1692679 0.4971952 -0.7317047 -0.1455451 0.6659016 -0.580651 -0.1154987 0.8059184 -0.4042394 -0.08040821 0.911112 -0.2100302 -0.04177761 0.9768019 -0.1978442 -0.08194973 -0.9768019 -0.3807851 -0.1577264 -0.911112 -0.5469613 -0.2265588 -0.8059184 -0.6892507 -0.285497 -0.6659016 -0.8015937 -0.332031 -0.4971952 -0.8792302 -0.3641891 -0.3071165 -0.9188834 -0.380614 -0.1038568 -0.9188834 -0.380614 0.1038568 -0.8792302 -0.3641891 0.3071165 -0.8015937 -0.332031 0.4971952 -0.6892507 -0.285497 0.6659016 -0.5469613 -0.2265588 0.8059184 -0.3807851 -0.1577264 0.911112 -0.1978442 -0.08194973 0.9768019 -0.178055 -0.1189726 -0.9768019 -0.3426976 -0.2289832 -0.911112 -0.4922521 -0.3289124 -0.8059184 -0.6203093 -0.4144774 -0.6659016 -0.7214152 -0.4820342 -0.4971952 -0.7912863 -0.5287206 -0.3071165 -0.8269732 -0.5525659 -0.1038568 -0.8269732 -0.5525659 0.1038568 -0.7912863 -0.5287206 0.3071165 -0.7214152 -0.4820342 0.4971952 -0.6203093 -0.4144774 0.6659016 -0.4922521 -0.3289124 0.8059184 -0.3426976 -0.2289832 0.911112 -0.178055 -0.1189726 0.9768019 -0.1514234 -0.1514234 -0.9768019 -0.2914403 -0.2914403 -0.911112 -0.418626 -0.418626 -0.8059184 -0.5275297 -0.5275297 -0.6659016 -0.6135132 -0.6135132 -0.4971952 -0.6729337 -0.6729337 -0.3071165 -0.7032829 -0.7032829 -0.1038568 -0.7032829 -0.7032829 0.1038568 -0.6729337 -0.6729337 0.3071165 -0.6135132 -0.6135132 0.4971952 -0.5275297 -0.5275297 0.6659016 -0.418626 -0.418626 0.8059184 -0.2914403 -0.2914403 0.911112 -0.1514234 -0.1514234 0.9768019 -0.1189726 -0.178055 -0.9768019 -0.2289832 -0.3426976 -0.911112 -0.3289124 -0.4922521 -0.8059184 -0.4144774 -0.6203093 -0.6659016 -0.4820342 -0.7214152 -0.4971952 -0.5287206 -0.7912863 -0.3071165 -0.5525659 -0.8269732 -0.1038568 -0.5525659 -0.8269732 0.1038568 -0.5287206 -0.7912863 0.3071165 -0.4820342 -0.7214152 0.4971952 -0.4144774 -0.6203093 0.6659016 -0.3289124 -0.4922521 0.8059184 -0.2289832 -0.3426976 0.911112 -0.1189726 -0.178055 0.9768019 -0.08194973 -0.1978442 -0.9768019 -0.1577264 -0.3807851 -0.911112 -0.2265588 -0.5469613 -0.8059184 -0.285497 -0.6892507 -0.6659016 -0.332031 -0.8015937 -0.4971952 -0.3641891 -0.8792302 -0.3071165 -0.380614 -0.9188834 -0.1038568 -0.380614 -0.9188834 0.1038568 -0.3641891 -0.8792302 0.3071165 -0.332031 -0.8015937 0.4971952 -0.285497 -0.6892507 0.6659016 -0.2265588 -0.5469613 0.8059184 -0.1577264 -0.3807851 0.911112 -0.08194973 -0.1978442 0.9768019 -0.04177761 -0.2100302 -0.9768019 -0.08040821 -0.4042394 -0.911112 -0.1154987 -0.580651 -0.8059184 -0.1455451 -0.7317047 -0.6659016 -0.1692679 -0.8509673 -0.4971952 -0.185662 -0.9333858 -0.3071165 -0.1940353 -0.9754815 -0.1038568 -0.1940353 -0.9754815 0.1038568 -0.185662 -0.9333858 0.3071165 -0.1692679 -0.8509673 0.4971952 -0.1455451 -0.7317047 0.6659016 -0.1154987 -0.580651 0.8059184 -0.08040821 -0.4042394 0.911112 -0.04177761 -0.2100302 0.9768019 -9.342777e-17 -0.214145 -0.9768019 -1.515508e-16 -0.4121589 -0.911112 -2.746898e-16 -0.5920266 -0.8059184 -5.370499e-17 -0.7460396 -0.6659016 -2.376081e-16 -0.8676387 -0.4971952 -3.276896e-16 -0.9516719 -0.3071165 -3.234197e-16 -0.9945923 -0.1038568 -2.650245e-16 -0.9945923 0.1038568 -2.558672e-16 -0.9516719 0.3071165 -2.869229e-16 -0.8676387 0.4971952 -5.818041e-17 -0.7460396 0.6659016 -2.590571e-16 -0.5920266 0.8059184 -1.660373e-16 -0.4121589 0.911112 -9.175942e-18 -0.214145 0.9768019 0.04177761 -0.2100302 -0.9768019 0.08040821 -0.4042394 -0.911112 0.1154987 -0.580651 -0.8059184 0.1455451 -0.7317047 -0.6659016 0.1692679 -0.8509673 -0.4971952 0.185662 -0.9333858 -0.3071165 0.1940353 -0.9754815 -0.1038568 0.1940353 -0.9754815 0.1038568 0.185662 -0.9333858 0.3071165 0.1692679 -0.8509673 0.4971952 0.1455451 -0.7317047 0.6659016 0.1154987 -0.580651 0.8059184 0.08040821 -0.4042394 0.911112 0.04177761 -0.2100302 0.9768019 0.08194973 -0.1978442 -0.9768019 0.1577264 -0.3807851 -0.911112 0.2265588 -0.5469613 -0.8059184 0.285497 -0.6892507 -0.6659016 0.332031 -0.8015937 -0.4971952 0.3641891 -0.8792302 -0.3071165 0.380614 -0.9188834 -0.1038568 0.380614 -0.9188834 0.1038568 0.3641891 -0.8792302 0.3071165 0.332031 -0.8015937 0.4971952 0.285497 -0.6892507 0.6659016 0.2265588 -0.5469613 0.8059184 0.1577264 -0.3807851 0.911112 0.08194973 -0.1978442 0.9768019 0.1189726 -0.178055 -0.9768019 0.2289832 -0.3426976 -0.911112 0.3289124 -0.4922521 -0.8059184 0.4144774 -0.6203093 -0.6659016 0.4820342 -0.7214152 -0.4971952 0.5287206 -0.7912863 -0.3071165 0.5525659 -0.8269732 -0.1038568 0.5525659 -0.8269732 0.1038568 0.5287206 -0.7912863 0.3071165 0.4820342 -0.7214152 0.4971952 0.4144774 -0.6203093 0.6659016 0.3289124 -0.4922521 0.8059184 0.2289832 -0.3426976 0.911112 0.1189726 -0.178055 0.9768019 0.1514234 -0.1514234 -0.9768019 0.2914403 -0.2914403 -0.911112 0.418626 -0.418626 -0.8059184 0.5275297 -0.5275297 -0.6659016 0.6135132 -0.6135132 -0.4971952 0.6729337 -0.6729337 -0.3071165 0.7032829 -0.7032829 -0.1038568 0.7032829 -0.7032829 0.1038568 0.6729337 -0.6729337 0.3071165 0.6135132 -0.6135132 0.4971952 0.5275297 -0.5275297 0.6659016 0.418626 -0.418626 0.8059184 0.2914403 -0.2914403 0.911112 0.1514234 -0.1514234 0.9768019 0.178055 -0.1189726 -0.9768019 0.3426976 -0.2289832 -0.911112 0.4922521 -0.3289124 -0.8059184 0.6203093 -0.4144774 -0.6659016 0.7214152 -0.4820342 -0.4971952 0.7912863 -0.5287206 -0.3071165 0.8269732 -0.5525659 -0.1038568 0.8269732 -0.5525659 0.1038568 0.7912863 -0.5287206 0.3071165 0.7214152 -0.4820342 0.4971952 0.6203093 -0.4144774 0.6659016 0.4922521 -0.3289124 0.8059184 0.3426976 -0.2289832 0.911112 0.178055 -0.1189726 0.9768019 0.1978442 -0.08194973 -0.9768019 0.3807851 -0.1577264 -0.911112 0.5469613 -0.2265588 -0.8059184 0.6892507 -0.285497 -0.6659016 0.8015937 -0.332031 -0.4971952 0.8792302 -0.3641891 -0.3071165 0.9188834 -0.380614 -0.1038568 0.9188834 -0.380614 0.1038568 0.8792302 -0.3641891 0.3071165 0.8015937 -0.332031 0.4971952 0.6892507 -0.285497 0.6659016 0.5469613 -0.2265588 0.8059184 0.3807851 -0.1577264 0.911112 0.1978442 -0.08194973 0.9768019 0.2100302 -0.04177761 -0.9768019 0.4042394 -0.08040821 -0.911112 0.580651 -0.1154987 -0.8059184 0.7317047 -0.1455451 -0.6659016 0.8509673 -0.1692679 -0.4971952 0.9333858 -0.185662 -0.3071165 0.9754815 -0.1940353 -0.1038568 0.9754815 -0.1940353 0.1038568 0.9333858 -0.185662 0.3071165 0.8509673 -0.1692679 0.4971952 0.7317047 -0.1455451 0.6659016 0.580651 -0.1154987 0.8059184 0.4042394 -0.08040821 0.911112 0.2100302 -0.04177761 0.9768019</float_array>
          <technique_common>
            <accessor count="450" source="#normals-array-array" stride="3">
              <param type="float" name="X"/>
              <param type="float" name="Y"/>
              <param type="float" name="Z"/>
            </accessor>
          </technique_common>
        </source>
        <vertices id="verts-array-vertices">
          <input semantic="POSITION" source="#verts-array"/>
        </vertices>
        <triangles count="896" material="material0">
          <input offset="0" semantic="VERTEX" source="#verts-array-vertices"/>
          <input offset="1" semantic="NORMAL" source="#normals-array"/>
          <p>1 1 0 0 16 16 1 1 16 16 2 2 2 2 16 16 17 17 2 2 17 17 3 3 3 3 17 17 18 18 3 3 18 18 4 4 4 4 18 18 19 19 4 4 19 19 5 5 5 5 19 19 20 20 5 5 20 20 6 6 6 6 20 20 21 21 6 6 21 21 7 7 7 7 21 21 22 22 7 7 22 22 8 8 8 8 22 22 23 23 8 8 23 23 9 9 9 9 23 23 24 24 9 9 24 24 10 10 10 10 24 24 25 25 10 10 25 25 11 11 11 11 25 25 26 26 11 11 26 26 12 12 12 12 26 26 27 27 12 12 27 27 13 13 13 13 27 27 28 28 13 13 28 28 14 14 14 14 28 28 29 29 14 14 29 29 15 15 16 16 0 0 30 30 16 16 30 30 17 17 17 17 30 30 31 31 17 17 31 31 18 18 18 18 31 31 32 32 18 18 32 32 19 19 19 19 32 32 33 33 19 19 33 33 20 20 20 20 33 33 34 34 20 20 34 34 21 21 21 21 34 34 35 35 21 21 35 35 22 22 22 22 35 35 36 36 22 22 36 36 23 23 23 23 36 36 37 37 23 23 37 37 24 24 24 24 37 37 38 38 24 24 38 38 25 25 25 25 38 38 39 39 25 25 39 39 26 26 26 26 39 39 40 40 26 26 40 40 27 27 27 27 40 40 41 41 27 27 41 41 28 28 28 28 41 41 42 42 28 28 42 42 29 29 29 29 42 42 43 43 29 29 43 43 15 15 30 30 0 0 44 44 30 30 44 44 31 31 31 31 44 44 45 45 31 31 45 45 32 32 32 32 45 45 46 46 32 32 46 46 33 33 33 33 46 46 47 47 33 33 47 47 34 34 34 34 47 47 48 48 34 34 48 48 35 35 35 35 48 48 49 49 35 35 49 49 36 36 36 36 49 49 50 50 36 36 50 50 37 37 37 37 50 50 51 51 37 37 51 51 38 38 38 38 51 51 52 52 38 38 52 52 39 39 39 39 52 52 53 53 39 39 53 53 40 40 40 40 53 53 54 54 40 40 54 54 41 41 41 41 54 54 55 55 41 41 55 55 42 42 42 42 55 55 56 56 42 42 56 56 43 43 43 43 56 56 57 57 43 43 57 57 15 15 44 44 0 0 58 58 44 44 58 58 45 45 45 45 58 58 59 59 45 45 59 59 46 46 46 46 59 59 60 60 46 46 60 60 47 47 47 47 60 60 61 61 47 47 61 61 48 48 48 48 61 61 62 62 48 48 62 62 49 49 49 49 62 62 63 63 49 49 63 63 50 50 50 50 63 63 64 64 50 50 64 64 51 51 51 51 64 64 65 65 51 51 65 65 52 52 52 52 65 65 66 66 52 52 66 66 53 53 53 53 66 66 67 67 53 53 67 67 54 54 54 54 67 67 68 68 54 54 68 68 55 55 55 55 68 68 69 69 55 55 69 69 56 56 56 56 69 69 70 70 56 56 70 70 57 57 57 57 70 70 71 71 57 57 71 71 15 15 58 58 0 0 72 72 58 58 72 72 59 59 59 59 72 72 73 73 59 59 73 73 60 60 60 60 73 73 74 74 60 60 74 74 61 61 61 61 74 74 75 75 61 61 75 75 62 62 62 62 75 75 76 76 62 62 76 76 63 63 63 63 76 76 77 77 63 63 77 77 64 64 64 64 77 77 78 78 64 64 78 78 65 65 65 65 78 78 79 79 65 65 79 79 66 66 66 66 79 79 80 80 66 66 80 80 67 67 67 67 80 80 81 81 67 67 81 81 68 68 68 68 81 81 82 82 68 68 82 82 69 69 69 69 82 82 83 83 69 69 83 83 70 70 70 70 83 83 84 84 70 70 84 84 71 71 71 71 84 84 85 85 71 71 85 85 15 15 72 72 0 0 86 86 72 72 86 86 73 73 73 73 86 86 87 87 73 73 87 87 74 74 74 74 87 87 88 88 74 74 88 88 75 75 75 75 88 88 89 89 75 75 89 89 76 76 76 76 89 89 90 90 76 76 90 90 77 77 77 77 90 90 91 91 77 77 91 91 78 78 78 78 91 91 92 92 78 78 92 92 79 79 79 79 92 92 93 93 79 79 93 93 80 80 80 80 93 93 94 94 80 80 94 94 81 81 81 81 94 94 95 95 81 81 95 95 82 82 82 82 95 95 96 96 82 82 96 96 83 83 83 83 96 96 97 97 83 83 97 97 84 84 84 84 97 97 98 98 84 84 98 98 85 85 85 85 98 98 99 99 85 85 99 99 15 15 86 86 0 0 100 100 86 86 100 100 87 87 87 87 100 100 101 101 87 87 101 101 88 88 88 88 101 101 102 102 88 88 102 102 89 89 89 89 102 102 103 103 89 89 103 103 90 90 90 90 103 103 104 104 90 90 104 104 91 91 91 91 104 104 105 105 91 91 105 105 92 92 92 92 105 105 106 106 92 92 106 106 93 93 93 93 106 106 107 107 93 93 107 107 94 94 94 94 107 107 108 108 94 94 108 108 95 95 95 95 108 108 109 109 95 95 109 109 96 96 96 96 109 109 110 110 96 96 110 110 97 97 97 97 110 110 111 111 97 97 111 111 98 98 98 98 111 111 112 112 98 98 112 112 99 99 99 99 112 112 113 113 99 99 113 113 15 15 100 100 0 0 114 114 100 100 114 114 101 101 101 101 114 114 115 115 101 101 115 115 102 102 102 102 115 115 116 116 102 102 116 116 103 103 103 103 116 116 117 117 103 103 117 117 104 104 104 104 117 117 118 118 104 104 118 118 105 105 105 105 118 118 119 119 105 105 119 119 106 106 106 106 119 119 120 120 106 106 120 120 107 107 107 107 120 120 121 121 107 107 121 121 108 108 108 108 121 121 122 122 108 108 122 122 109 109 109 109 122 122 123 123 109 109 123 123 110 110 110 110 123 123 124 124 110 110 124 124 111 111 111 111 124 124 125 125 111 111 125 125 112 112 112 112 125 125 126 126 112 112 126 126 113 113 113 113 126 126 127 127 113 113 127 127 15 15 114 114 0 0 128 128 114 114 128 128 115 115 115 115 128 128 129 129 115 115 129 129 116 116 116 116 129 129 130 130 116 116 130 130 117 117 117 117 130 130 131 131 117 117 131 131 118 118 118 118 131 131 132 132 118 118 132 132 119 119 119 119 132 132 133 133 119 119 133 133 120 120 120 120 133 133 134 134 120 120 134 134 121 121 121 121 134 134 135 135 121 121 135 135 122 122 122 122 135 135 136 136 122 122 136 136 123 123 123 123 136 136 137 137 123 123 137 137 124 124 124 124 137 137 138 138 124 124 138 138 125 125 125 125 138 138 139 139 125 125 139 139 126 126 126 126 139 139 140 140 126 126 140 140 127 127 127 127 140 140 141 141 127 127 141 141 15 15 128 128 0 0 142 142 128 128 142 142 129 129 129 129 142 142 143 143 129 129 143 143 130 130 130 130 143 143 144 144 130 130 144 144 131 131 131 131 144 144 145 145 131 131 145 145 132 132 132 132 145 145 146 146 132 132 146 146 133 133 133 133 146 146 147 147 133 133 147 147 134 134 134 134 147 147 148 148 134 134 148 148 135 135 135 135 148 148 149 149 135 135 149 149 136 136 136 136 149 149 150 150 136 136 150 150 137 137 137 137 150 150 151 151 137 137 151 151 138 138 138 138 151 151 152 152 138 138 152 152 139 139 139 139 152 152 153 153 139 139 153 153 140 140 140 140 153 153 154 154 140 140 154 154 141 141 141 141 154 154 155 155 141 141 155 155 15 15 142 142 0 0 156 156 142 142 156 156 143 143 143 143 156 156 157 157 143 143 157 157 144 144 144 144 157 157 158 158 144 144 158 158 145 145 145 145 158 158 159 159 145 145 159 159 146 146 146 146 159 159 160 160 146 146 160 160 147 147 147 147 160 160 161 161 147 147 161 161 148 148 148 148 161 161 162 162 148 148 162 162 149 149 149 149 162 162 163 163 149 149 163 163 150 150 150 150 163 163 164 164 150 150 164 164 151 151 151 151 164 164 165 165 151 151 165 165 152 152 152 152 165 165 166 166 152 152 166 166 153 153 153 153 166 166 167 167 153 153 167 167 154 154 154 154 167 167 168 168 154 154 168 168 155 155 155 155 168 168 169 169 155 155 169 169 15 15 156 156 0 0 170 170 156 156 170 170 157 157 157 157 170 170 171 171 157 157 171 171 158 158 158 158 171 171 172 172 158 158 172 172 159 159 159 159 172 172 173 173 159 159 173 173 160 160 160 160 173 173 174 174 160 160 174 174 161 161 161 161 174 174 175 175 161 161 175 175 162 162 162 162 175 175 176 176 162 162 176 176 163 163 163 163 176 176 177 177 163 163 177 177 164 164 164 164 177 177 178 178 164 164 178 178 165 165 165 165 178 178 179 179 165 165 179 179 166 166 166 166 179 179 180 180 166 166 180 180 167 167 167 167 180 180 181 181 167 167 181 181 168 168 168 168 181 181 182 182 168 168 182 182 169 169 169 169 182 182 183 183 169 169 183 183 15 15 170 170 0 0 184 184 170 170 184 184 171 171 171 171 184 184 185 185 171 171 185 185 172 172 172 172 185 185 186 186 172 172 186 186 173 173 173 173 186 186 187 187 173 173 187 187 174 174 174 174 187 187 188 188 174 174 188 188 175 175 175 175 188 188 189 189 175 175 189 189 176 176 176 176 189 189 190 190 176 176 190 190 177 177 177 177 190 190 191 191 177 177 191 191 178 178 178 178 191 191 192 192 178 178 192 192 179 179 179 179 192 192 193 193 179 179 193 193 180 180 180 180 193 193 194 194 180 180 194 194 181 181 181 181 194 194 195 195 181 181 195 195 182 182 182 182 195 195 196 196 182 182 196 196 183 183 183 183 196 196 197 197 183 183 197 197 15 15 184 184 0 0 198 198 184 184 198 198 185 185 185 185 198 198 199 199 185 185 199 199 186 186 186 186 199 199 200 200 186 186 200 200 187 187 187 187 200 200 201 201 187 187 201 201 188 188 188 188 201 201 202 202 188 188 202 202 189 189 189 189 202 202 203 203 189 189 203 203 190 190 190 190 203 203 204 204 190 190 204 204 191 191 191 191 204 204 205 205 191 191 205 205 192 192 192 192 205 205 206 206 192 192 206 206 193 193 193 193 206 206 207 207 193 193 207 207 194 194 194 194 207 207 208 208 194 194 208 208 195 195 195 195 208 208 209 209 195 195 209 209 196 196 196 196 209 209 210 210 196 196 210 210 197 197 197 197 210 210 211 211 197 197 211 211 15 15 198 198 0 0 212 212 198 198 212 212 199 199 199 199 212 212 213 213 199 199 213 213 200 200 200 200 213 213 214 214 200 200 214 214 201 201 201 201 214 214 215 215 201 201 215 215 202 202 202 202 215 215 216 216 202 202 216 216 203 203 203 203 216 216 217 217 203 203 217 217 204 204 204 204 217 217 218 218 204 204 218 218 205 205 205 205 218 218 219 219 205 205 219 219 206 206 206 206 219 219 220 220 206 206 220 220 207 207 207 207 220 220 221 221 207 207 221 221 208 208 208 208 221 221 222 222 208 208 222 222 209 209 209 209 222 222 223 223 209 209 223 223 210 210 210 210 223 223 224 224 210 210 224 224 211 211 211 211 224 224 225 225 211 211 225 225 15 15 212 212 0 0 226 226 212 212 226 226 213 213 213 213 226 226 227 227 213 213 227 227 214 214 214 214 227 227 228 228 214 214 228 228 215 215 215 215 228 228 229 229 215 215 229 229 216 216 216 216 229 229 230 230 216 216 230 230 217 217 217 217 230 230 231 231 217 217 231 231 218 218 218 218 231 231 232 232 218 218 232 232 219 219 219 219 232 232 233 233 219 219 233 233 220 220 220 220 233 233 234 234 220 220 234 234 221 221 221 221 234 234 235 235 221 221 235 235 222 222 222 222 235 235 236 236 222 222 236 236 223 223 223 223 236 236 237 237 223 223 237 237 224 224 224 224 237 237 238 238 224 224 238 238 225 225 225 225 238 238 239 239 225 225 239 239 15 15 226 226 0 0 240 240 226 226 240 240 227 227 227 227 240 240 241 241 227 227 241 241 228 228 228 228 241 241 242 242 228 228 242 242 229 229 229 229 242 242 243 243 229 229 243 243 230 230 230 230 243 243 244 244 230 230 244 244 231 231 231 231 244 244 245 245 231 231 245 245 232 232 232 232 245 245 246 246 232 232 246 246 233 233 233 233 246 246 247 247 233 233 247 247 234 234 234 234 247 247 248 248 234 234 248 248 235 235 235 235 248 248 249 249 235 235 249 249 236 236 236 236 249 249 250 250 236 236 250 250 237 237 237 237 250 250 251 251 237 237 251 251 238 238 238 238 251 251 252 252 238 238 252 252 239 239 239 239 252 252 253 253 239 239 253 253 15 15 240 240 0 0 254 254 240 240 254 254 241 241 241 241 254 254 255 255 241 241 255 255 242 242 242 242 255 255 256 256 242 242 256 256 243 243 243 243 256 256 257 257 243 243 257 257 244 244 244 244 257 257 258 258 244 244 258 258 245 245 245 245 258 258 259 259 245 245 259 259 246 246 246 246 259 259 260 260 246 246 260 260 247 247 247 247 260 260 261 261 247 247 261 261 248 248 248 248 261 261 262 262 248 248 262 262 249 249 249 249 262 262 263 263 249 249 263 263 250 250 250 250 263 263 264 264 250 250 264 264 251 251 251 251 264 264 265 265 251 251 265 265 252 252 252 252 265 265 266 266 252 252 266 266 253 253 253 253 266 266 267 267 253 253 267 267 15 15 254 254 0 0 268 268 254 254 268 268 255 255 255 255 268 268 269 269 255 255 269 269 256 256 256 256 269 269 270 270 256 256 270 270 257 257 257 257 270 270 271 271 257 257 271 271 258 258 258 258 271 271 272 272 258 258 272 272 259 259 259 259 272 272 273 273 259 259 273 273 260 260 260 260 273 273 274 274 260 260 274 274 261 261 261 261 274 274 275 275 261 261 275 275 262 262 262 262 275 275 276 276 262 262 276 276 263 263 263 263 276 276 277 277 263 263 277 277 264 264 264 264 277 277 278 278 264 264 278 278 265 265 265 265 278 278 279 279 265 265 279 279 266 266 266 266 279 279 280 280 266 266 280 280 267 267 267 267 280 280 281 281 267 267 281 281 15 15 268 268 0 0 282 282 268 268 282 282 269 269 269 269 282 282 283 283 269 269 283 283 270 270 270 270 283 283 284 284 270 270 284 284 271 271 271 271 284 284 285 285 271 271 285 285 272 272 272 272 285 285 286 286 272 272 286 286 273 273 273 273 286 286 287 287 273 273 287 287 274 274 274 274 287 287 288 288 274 274 288 288 275 275 275 275 288 288 289 289 275 275 289 289 276 276 276 276 289 289 290 290 276 276 290 290 277 277 277 277 290 290 291 291 277 277 291 291 278 278 278 278 291 291 292 292 278 278 292 292 279 279 279 279 292 292 293 293 279 279 293 293 280 280 280 280 293 293 294 294 280 280 294 294 281 281 281 281 294 294 295 295 281 281 295 295 15 15 282 282 0 0 296 296 282 282 296 296 283 283 283 283 296 296 297 297 283 283 297 297 284 284 284 284 297 297 298 298 284 284 298 298 285 285 285 285 298 298 299 299 285 285 299 299 286 286 286 286 299 299 300 300 286 286 300 300 287 287 287 287 300 300 301 301 287 287 301 301 288 288 288 288 301 301 302 302 288 288 302 302 289 289 289 289 302 302 303 303 289 289 303 303 290 290 290 290 303 303 304 304 290 290 304 304 291 291 291 291 304 304 305 305 291 291 305 305 292 292 292 292 305 305 306 306 292 292 306 306 293 293 293 293 306 306 307 307 293 293 307 307 294 294 294 294 307 307 308 308 294 294 308 308 295 295 295 295 308 308 309 309 295 295 309 309 15 15 296 296 0 0 310 310 296 296 310 310 297 297 297 297 310 310 311 311 297 297 311 311 298 298 298 298 311 311 312 312 298 298 312 312 299 299 299 299 312 312 313 313 299 299 313 313 300 300 300 300 313 313 314 314 300 300 314 314 301 301 301 301 314 314 315 315 301 301 315 315 302 302 302 302 315 315 316 316 302 302 316 316 303 303 303 303 316 316 317 317 303 303 317 317 304 304 304 304 317 317 318 318 304 304 318 318 305 305 305 305 318 318 319 319 305 305 319 319 306 306 306 306 319 319 320 320 306 306 320 320 307 307 307 307 320 320 321 321 307 307 321 321 308 308 308 308 321 321 322 322 308 308 322 322 309 309 309 309 322 322 323 323 309 309 323 323 15 15 310 310 0 0 324 324 310 310 324 324 311 311 311 311 324 324 325 325 311 311 325 325 312 312 312 312 325 325 326 326 312 312 326 326 313 313 313 313 326 326 327 327 313 313 327 327 314 314 314 314 327 327 328 328 314 314 328 328 315 315 315 315 328 328 329 329 315 315 329 329 316 316 316 316 329 329 330 330 316 316 330 330 317 317 317 317 330 330 331 331 317 317 331 331 318 318 318 318 331 331 332 332 318 318 332 332 319 319 319 319 332 332 333 333 319 319 333 333 320 320 320 320 333 333 334 334 320 320 334 334 321 321 321 321 334 334 335 335 321 321 335 335 322 322 322 322 335 335 336 336 322 322 336 336 323 323 323 323 336 336 337 337 323 323 337 337 15 15 324 324 0 0 338 338 324 324 338 338 325 325 325 325 338 338 339 339 325 325 339 339 326 326 326 326 339 339 340 340 326 326 340 340 327 327 327 327 340 340 341 341 327 327 341 341 328 328 328 328 341 341 342 342 328 328 342 342 329 329 329 329 342 342 343 343 329 329 343 343 330 330 330 330 343 343 344 344 330 330 344 344 331 331 331 331 344 344 345 345 331 331 345 345 332 332 332 332 345 345 346 346 332 332 346 346 333 333 333 333 346 346 347 347 333 333 347 347 334 334 334 334 347 347 348 348 334 334 348 348 335 335 335 335 348 348 349 349 335 335 349 349 336 336 336 336 349 349 350 350 336 336 350 350 337 337 337 337 350 350 351 351 337 337 351 351 15 15 338 338 0 0 352 352 338 338 352 352 339 339 339 339 352 352 353 353 339 339 353 353 340 340 340 340 353 353 354 354 340 340 354 354 341 341 341 341 354 354 355 355 341 341 355 355 342 342 342 342 355 355 356 356 342 342 356 356 343 343 343 343 356 356 357 357 343 343 357 357 344 344 344 344 357 357 358 358 344 344 358 358 345 345 345 345 358 358 359 359 345 345 359 359 346 346 346 346 359 359 360 360 346 346 360 360 347 347 347 347 360 360 361 361 347 347 361 361 348 348 348 348 361 361 362 362 348 348 362 362 349 349 349 349 362 362 363 363 349 349 363 363 350 350 350 350 363 363 364 364 350 350 364 364 351 351 351 351 364 364 365 365 351 351 365 365 15 15 352 352 0 0 366 366 352 352 366 366 353 353 353 353 366 366 367 367 353 353 367 367 354 354 354 354 367 367 368 368 354 354 368 368 355 355 355 355 368 368 369 369 355 355 369 369 356 356 356 356 369 369 370 370 356 356 370 370 357 357 357 357 370 370 371 371 357 357 371 371 358 358 358 358 371 371 372 372 358 358 372 372 359 359 359 359 372 372 373 373 359 359 373 373 360 360 360 360 373 373 374 374 360 360 374 374 361 361 361 361 374 374 375 375 361 361 375 375 362 362 362 362 375 375 376 376 362 362 376 376 363 363 363 363 376 376 377 377 363 363 377 377 364 364 364 364 377 377 378 378 364 364 378 378 365 365 365 365 378 378 379 379 365 365 379 379 15 15 366 366 0 0 380 380 366 366 380 380 367 367 367 367 380 380 381 381 367 367 381 381 368 368 368 368 381 381 382 382 368 368 382 382 369 369 369 369 382 382 383 383 369 369 383 383 370 370 370 370 383 383 384 384 370 370 384 384 371 371 371 371 384 384 385 385 371 371 385 385 372 372 372 372 385 385 386 386 372 372 386 386 373 373 373 373 386 386 387 387 373 373 387 387 374 374 374 374 387 387 388 388 374 374 388 388 375 375 375 375 388 388 389 389 375 375 389 389 376 376 376 376 389 389 390 390 376 376 390 390 377 377 377 377 390 390 391 391 377 377 391 391 378 378 378 378 391 391 392 392 378 378 392 392 379 379 379 379 392 392 393 393 379 379 393 393 15 15 380 380 0 0 394 394 380 380 394 394 381 381 381 381 394 394 395 395 381 381 395 395 382 382 382 382 395 395 396 396 382 382 396 396 383 383 383 383 396 396 397 397 383 383 397 397 384 384 384 384 397 397 398 398 384 384 398 398 385 385 385 385 398 398 399 399 385 385 399 399 386 386 386 386 399 399 400 400 386 386 400 400 387 387 387 387 400 400 401 401 387 387 401 401 388 388 388 388 401 401 402 402 388 388 402 402 389 389 389 389 402 402 403 403 389 389 403 403 390 390 390 390 403 403 404 404 390 390 404 404 391 391 391 391 404 404 405 405 391 391 405 405 392 392 392 392 405 405 406 406 392 392 406 406 393 393 393 393 406 406 407 407 393 393 407 407 15 15 394 394 0 0 408 408 394 394 408 408 395 395 395 395 408 408 409 409 395 395 409 409 396 396 396 396 409 409 410 410 396 396 410 410 397 397 397 397 410 410 411 411 397 397 411 411 398 398 398 398 411 411 412 412 398 398 412 412 399 399 399 399 412 412 413 413 399 399 413 413 400 400 400 400 413 413 414 414 400 400 414 414 401 401 401 401 414 414 415 415 401 401 415 415 402 402 402 402 415 415 416 416 402 402 416 416 403 403 403 403 416 416 417 417 403 403 417 417 404 404 404 404 417 417 418 418 404 404 418 418 405 405 405 405 418 418 419 419 405 405 419 419 406 406 406 406 419 419 420 420 406 406 420 420 407 407 407 407 420 420 421 421 407 407 421 421 15 15 408 408 0 0 422 422 408 408 422 422 409 409 409 409 422 422 423 423 409 409 423 423 410 410 410 410 423 423 424 424 410 410 424 424 411 411 411 411 424 424 425 425 411 411 425 425 412 412 412 412 425 425 426 426 412 412 426 426 413 413 413 413 426 426 427 427 413 413 427 427 414 414 414 414 427 427 428 428 414 414 428 428 415 415 415 415 428 428 429 429 415 415 429 429 416 416 416 416 429 429 430 430 416 416 430 430 417 417 417 417 430 430 431 431 417 417 431 431 418 418 418 418 431 431 432 432 418 418 432 432 419 419 419 419 432 432 433 433 419 419 433 433 420 420 420 420 433 433 434 434 420 420 434 434 421 421 421 421 434 434 435 435 421 421 435 435 15 15 422 422 0 0 436 436 422 422 436 436 423 423 423 423 436 436 437 437 423 423 437 437 424 424 424 424 437 437 438 438 424 424 438 438 425 425 425 425 438 438 439 439 425 425 439 439 426 426 426 426 439 439 440 440 426 426 440 440 427 427 427 427 440 440 441 441 427 427 441 441 428 428 428 428 441 441 442 442 428 428 442 442 429 429 429 429 442 442 443 443 429 429 443 443 430 430 430 430 443 443 444 444 430 430 444 444 431 431 431 431 444 444 445 445 431 431 445 445 432 432 432 432 445 445 446 446 432 432 446 446 433 433 433 433 446 446 447 447 433 433 447 447 434 434 434 434 447 447 448 448 434 434 448 448 435 435 435 435 448 448 449 449 435 435 449 449 15 15 436 436 0 0 1 1 436 436 1 1 437 437 437 437 1 1 2 2 437 437 2 2 438 438 438 438 2 2 3 3 438 438 3 3 439 439 439 439 3 3 4 4 439 439 4 4 440 440 440 440 4 4 5 5 440 440 5 5 441 441 441 441 5 5 6 6 441 441 6 6 442 442 442 442 6 6 7 7 442 442 7 7 443 443 443 443 7 7 8 8 443 443 8 8 444 444 444 444 8 8 9 9 444 444 9 9 445 445 445 445 9 9 10 10 445 445 10 10 446 446 446 446 10 10 11 11 446 446 11 11 447 447 447 447 11 11 12 12 447 447 12 12 448 448 448 448 12 12 13 13 448 448 13 13 449 449 449 449 13 13 14 14 449 449 14 14 15 15</p>
        </triangles>
      </mesh>
    </geometry>
  </library_geometries>
  <library_materials>
    <material id="5525049969754ae7afa2e3d286219ea0" name="defaultmaterial">
      <instance_effect url="#6e52567f9c464335b56dc22d1b792b11"/>
    </material>
  </library_materials>
  <library_visual_scenes>
    <visual_scene id="scene">
      <node id="node0" name="node0">
        <instance_geometry url="#91007278041647c89532289aff6dfa38">
          <bind_material>
            <technique_common>
              <instance_material symbol="material0" target="#5525049969754ae7afa2e3d286219ea0"/>
            </technique_common>
          </bind_material>
        </instance_geometry>
      </node>
    </visual_scene>
  </library_visual_scenes>
  <scene>
    <instance_visual_scene url="#scene"/>
  </scene>
</COLLADA>
