                                                                        S      1
1H,,1H;,4HSTEP,7Hstp.ige,7Hgetsam,7Hgetsam,32,38,6,38,15,4HSTEP,1.,2,2HMM G      1
,32767,0.5,13H260818.000000,1E-06,10.,7Hunknown,7Hunknown,10,0,15H26081  G      2
8.000000;                                                              G      3
     110       1       0       1       0       0       0       000000001D      1
     110       0       0       1       0                               D      2
     110       2       0       1       0       0       0       000000001D      3
     110       0       0       1       0                               D      4
     110       3       0       1       0       0       0       000000001D      5
     110       0       0       1       0                               D      6
     110       4       0       1       0       0       0       000000001D      7
     110       0       0       1       0                               D      8
     110       5       0       1       0       0       0       000000001D      9
     110       0       0       1       0                               D     10
     110       6       0       1       0       0       0       000000001D     11
     110       0       0       1       0                               D     12
     110       7       0       1       0       0       0       000000001D     13
     110       0       0       1       0                               D     14
     110       8       0       1       0       0       0       000000001D     15
     110       0       0       1       0                               D     16
     110       9       0       1       0       0       0       000000001D     17
     110       0       0       1       0                               D     18
     110       10       0       1       0       0       0       000000001D     19
     110       0       0       1       0                               D     20
     110       11       0       1       0       0       0       000000001D     21
     110       0       0       1       0                               D     22
     110       12       0       1       0       0       0       000000001D     23
     110       0       0       1       0                               D     24
     110       13       0       1       0       0       0       000000001D     25
     110       0       0       1       0                               D     26
     110       14       0       1       0       0       0       000000001D     27
     110       0       0       1       0                               D     28
     110       15       0       1       0       0       0       000000001D     29
     110       0       0       1       0                               D     30
     110       16       0       1       0       0       0       000000001D     31
     110       0       0       1       0                               D     32
     110       17       0       1       0       0       0       000000001D     33
     110       0       0       1       0                               D     34
     110       18       0       1       0       0       0       000000001D     35
     110       0       0       1       0                               D     36
     110       19       0       1       0       0       0       000000001D     37
     110       0       0       1       0                               D     38
     110       20       0       1       0       0       0       000000001D     39
     110       0       0       1       0                               D     40
     110       21       0       1       0       0       0       000000001D     41
     110       0       0       1       0                               D     42
     110       22       0       1       0       0       0       000000001D     43
     110       0       0       1       0                               D     44
     110       23       0       1       0       0       0       000000001D     45
     110       0       0       1       0                               D     46
     110       24       0       1       0       0       0       000000001D     47
     110       0       0       1       0                               D     48
     110       25       0       1       0       0       0       000000001D     49
     110       0       0       1       0                               D     50
     110       26       0       1       0       0       0       000000001D     51
     110       0       0       1       0                               D     52
     110       27       0       1       0       0       0       000000001D     53
     110       0       0       1       0                               D     54
     110       28       0       1       0       0       0       000000001D     55
     110       0       0       1       0                               D     56
     110       29       0       1       0       0       0       000000001D     57
     110       0       0       1       0                               D     58
     110       30       0       1       0       0       0       000000001D     59
     110       0       0       1       0                               D     60
     110       31       0       1       0       0       0       000000001D     61
     110       0       0       1       0                               D     62
     110       32       0       1       0       0       0       000000001D     63
     110       0       0       1       0                               D     64
     110       33       0       1       0       0       0       000000001D     65
     110       0       0       1       0                               D     66
     110       34       0       1       0       0       0       000000001D     67
     110       0       0       1       0                               D     68
     110       35       0       1       0       0       0       000000001D     69
     110       0       0       1       0                               D     70
     110       36       0       1       0       0       0       000000001D     71
     110       0       0       1       0                               D     72
     110       37       0       1       0       0       0       000000001D     73
     110       0       0       1       0                               D     74
     110       38       0       1       0       0       0       000000001D     75
     110       0       0       1       0                               D     76
     110       39       0       1       0       0       0       000000001D     77
     110       0       0       1       0                               D     78
     110       40       0       1       0       0       0       000000001D     79
     110       0       0       1       0                               D     80
     110       41       0       1       0       0       0       000000001D     81
     110       0       0       1       0                               D     82
     110       42       0       1       0       0       0       000000001D     83
     110       0       0       1       0                               D     84
     110       43       0       1       0       0       0       000000001D     85
     110       0       0       1       0                               D     86
     110       44       0       1       0       0       0       000000001D     87
     110       0       0       1       0                               D     88
     110       45       0       1       0       0       0       000000001D     89
     110       0       0       1       0                               D     90
     110       46       0       1       0       0       0       000000001D     91
     110       0       0       1       0                               D     92
     110       47       0       1       0       0       0       000000001D     93
     110       0       0       1       0                               D     94
     110       48       0       1       0       0       0       000000001D     95
     110       0       0       1       0                               D     96
     110       49       0       1       0       0       0       000000001D     97
     110       0       0       1       0                               D     98
     110       50       0       1       0       0       0       000000001D     99
     110       0       0       1       0                               D    100
     110       51       0       1       0       0       0       000000001D    101
     110       0       0       1       0                               D    102
     110       52       0       1       0       0       0       000000001D    103
     110       0       0       1       0                               D    104
     110       53       0       1       0       0       0       000000001D    105
     110       0       0       1       0                               D    106
     110       54       0       1       0       0       0       000000001D    107
     110       0       0       1       0                               D    108
     110       55       0       1       0       0       0       000000001D    109
     110       0       0       1       0                               D    110
     110       56       0       1       0       0       0       000000001D    111
     110       0       0       1       0                               D    112
     110       57       0       1       0       0       0       000000001D    113
     110       0       0       1       0                               D    114
     110       58       0       1       0       0       0       000000001D    115
     110       0       0       1       0                               D    116
     110       59       0       1       0       0       0       000000001D    117
     110       0       0       1       0                               D    118
     110       60       0       1       0       0       0       000000001D    119
     110       0       0       1       0                               D    120
     110       61       0       1       0       0       0       000000001D    121
     110       0       0       1       0                               D    122
     110       62       0       1       0       0       0       000000001D    123
     110       0       0       1       0                               D    124
     110       63       0       1       0       0       0       000000001D    125
     110       0       0       1       0                               D    126
     110       64       0       1       0       0       0       000000001D    127
     110       0       0       1       0                               D    128
     110       65       0       1       0       0       0       000000001D    129
     110       0       0       1       0                               D    130
     110       66       0       1       0       0       0       000000001D    131
     110       0       0       1       0                               D    132
     110       67       0       1       0       0       0       000000001D    133
     110       0       0       1       0                               D    134
     110       68       0       1       0       0       0       000000001D    135
     110       0       0       1       0                               D    136
     110       69       0       1       0       0       0       000000001D    137
     110       0       0       1       0                               D    138
     110       70       0       1       0       0       0       000000001D    139
     110       0       0       1       0                               D    140
     110       71       0       1       0       0       0       000000001D    141
     110       0       0       1       0                               D    142
     110       72       0       1       0       0       0       000000001D    143
     110       0       0       1       0                               D    144
     110       73       0       1       0       0       0       000000001D    145
     110       0       0       1       0                               D    146
     110       74       0       1       0       0       0       000000001D    147
     110       0       0       1       0                               D    148
     110       75       0       1       0       0       0       000000001D    149
     110       0       0       1       0                               D    150
     110       76       0       1       0       0       0       000000001D    151
     110       0       0       1       0                               D    152
     110       77       0       1       0       0       0       000000001D    153
     110       0       0       1       0                               D    154
     110       78       0       1       0       0       0       000000001D    155
     110       0       0       1       0                               D    156
     110       79       0       1       0       0       0       000000001D    157
     110       0       0       1       0                               D    158
     110       80       0       1       0       0       0       000000001D    159
     110       0       0       1       0                               D    160
     110       81       0       1       0       0       0       000000001D    161
     110       0       0       1       0                               D    162
     110       82       0       1       0       0       0       000000001D    163
     110       0       0       1       0                               D    164
     110       83       0       1       0       0       0       000000001D    165
     110       0       0       1       0                               D    166
     110       84       0       1       0       0       0       000000001D    167
     110       0       0       1       0                               D    168
     110       85       0       1       0       0       0       000000001D    169
     110       0       0       1       0                               D    170
     110       86       0       1       0       0       0       000000001D    171
     110       0       0       1       0                               D    172
     110       87       0       1       0       0       0       000000001D    173
     110       0       0       1       0                               D    174
     110       88       0       1       0       0       0       000000001D    175
     110       0       0       1       0                               D    176
     110       89       0       1       0       0       0       000000001D    177
     110       0       0       1       0                               D    178
     110       90       0       1       0       0       0       000000001D    179
     110       0       0       1       0                               D    180
     110       91       0       1       0       0       0       000000001D    181
     110       0       0       1       0                               D    182
     110       92       0       1       0       0       0       000000001D    183
     110       0       0       1       0                               D    184
     110       93       0       1       0       0       0       000000001D    185
     110       0       0       1       0                               D    186
     110       94       0       1       0       0       0       000000001D    187
     110       0       0       1       0                               D    188
     110       95       0       1       0       0       0       000000001D    189
     110       0       0       1       0                               D    190
     110       96       0       1       0       0       0       000000001D    191
     110       0       0       1       0                               D    192
     110       97       0       1       0       0       0       000000001D    193
     110       0       0       1       0                               D    194
     110       98       0       1       0       0       0       000000001D    195
     110       0       0       1       0                               D    196
     110       99       0       1       0       0       0       000000001D    197
     110       0       0       1       0                               D    198
     110       100       0       1       0       0       0       000000001D    199
     110       0       0       1       0                               D    200
     110       101       0       1       0       0       0       000000001D    201
     110       0       0       1       0                               D    202
     110       102       0       1       0       0       0       000000001D    203
     110       0       0       1       0                               D    204
     110       103       0       1       0       0       0       000000001D    205
     110       0       0       1       0                               D    206
     110       104       0       1       0       0       0       000000001D    207
     110       0       0       1       0                               D    208
     110       105       0       1       0       0       0       000000001D    209
     110       0       0       1       0                               D    210
     110       106       0       1       0       0       0       000000001D    211
     110       0       0       1       0                               D    212
     110       107       0       1       0       0       0       000000001D    213
     110       0       0       1       0                               D    214
     110       108       0       1       0       0       0       000000001D    215
     110       0       0       1       0                               D    216
     110       109       0       1       0       0       0       000000001D    217
     110       0       0       1       0                               D    218
     110       110       0       1       0       0       0       000000001D    219
     110       0       0       1       0                               D    220
     110       111       0       1       0       0       0       000000001D    221
     110       0       0       1       0                               D    222
     110       112       0       1       0       0       0       000000001D    223
     110       0       0       1       0                               D    224
     110       113       0       1       0       0       0       000000001D    225
     110       0       0       1       0                               D    226
     110       114       0       1       0       0       0       000000001D    227
     110       0       0       1       0                               D    228
     110       115       0       1       0       0       0       000000001D    229
     110       0       0       1       0                               D    230
     110       116       0       1       0       0       0       000000001D    231
     110       0       0       1       0                               D    232
     110       117       0       1       0       0       0       000000001D    233
     110       0       0       1       0                               D    234
     110       118       0       1       0       0       0       000000001D    235
     110       0       0       1       0                               D    236
     110       119       0       1       0       0       0       000000001D    237
     110       0       0       1       0                               D    238
     110       120       0       1       0       0       0       000000001D    239
     110       0       0       1       0                               D    240
110,0.0,0.0,0.0,8.0,0.0,0.0;                                       1P      1
110,10.0,0.0,0.0,18.0,0.0,0.0;                                       2P      2
110,20.0,0.0,0.0,28.0,0.0,0.0;                                       3P      3
110,30.0,0.0,0.0,38.0,0.0,0.0;                                       4P      4
110,40.0,0.0,0.0,48.0,0.0,0.0;                                       5P      5
110,50.0,0.0,0.0,58.0,0.0,0.0;                                       6P      6
110,60.0,0.0,0.0,68.0,0.0,0.0;                                       7P      7
110,70.0,0.0,0.0,78.0,0.0,0.0;                                       8P      8
110,80.0,0.0,0.0,88.0,0.0,0.0;                                       9P      9
110,90.0,0.0,0.0,98.0,0.0,0.0;                                       10P     10
110,100.0,0.0,0.0,108.0,0.0,0.0;                                       11P     11
110,110.0,0.0,0.0,118.0,0.0,0.0;                                       12P     12
110,120.0,0.0,0.0,128.0,0.0,0.0;                                       13P     13
110,130.0,0.0,0.0,138.0,0.0,0.0;                                       14P     14
110,140.0,0.0,0.0,148.0,0.0,0.0;                                       15P     15
110,150.0,0.0,0.0,158.0,0.0,0.0;                                       16P     16
110,160.0,0.0,0.0,168.0,0.0,0.0;                                       17P     17
110,170.0,0.0,0.0,178.0,0.0,0.0;                                       18P     18
110,180.0,0.0,0.0,188.0,0.0,0.0;                                       19P     19
110,190.0,0.0,0.0,198.0,0.0,0.0;                                       20P     20
110,200.0,0.0,0.0,208.0,0.0,0.0;                                       21P     21
110,210.0,0.0,0.0,218.0,0.0,0.0;                                       22P     22
110,220.0,0.0,0.0,228.0,0.0,0.0;                                       23P     23
110,230.0,0.0,0.0,238.0,0.0,0.0;                                       24P     24
110,240.0,0.0,0.0,248.0,0.0,0.0;                                       25P     25
110,250.0,0.0,0.0,258.0,0.0,0.0;                                       26P     26
110,260.0,0.0,0.0,268.0,0.0,0.0;                                       27P     27
110,270.0,0.0,0.0,278.0,0.0,0.0;                                       28P     28
110,280.0,0.0,0.0,288.0,0.0,0.0;                                       29P     29
110,290.0,0.0,0.0,298.0,0.0,0.0;                                       30P     30
110,300.0,0.0,0.0,308.0,0.0,0.0;                                       31P     31
110,310.0,0.0,0.0,318.0,0.0,0.0;                                       32P     32
110,320.0,0.0,0.0,328.0,0.0,0.0;                                       33P     33
110,330.0,0.0,0.0,338.0,0.0,0.0;                                       34P     34
110,340.0,0.0,0.0,348.0,0.0,0.0;                                       35P     35
110,350.0,0.0,0.0,358.0,0.0,0.0;                                       36P     36
110,360.0,0.0,0.0,368.0,0.0,0.0;                                       37P     37
110,370.0,0.0,0.0,378.0,0.0,0.0;                                       38P     38
110,380.0,0.0,0.0,388.0,0.0,0.0;                                       39P     39
110,390.0,0.0,0.0,398.0,0.0,0.0;                                       40P     40
110,400.0,0.0,0.0,408.0,0.0,0.0;                                       41P     41
110,410.0,0.0,0.0,418.0,0.0,0.0;                                       42P     42
110,420.0,0.0,0.0,428.0,0.0,0.0;                                       43P     43
110,430.0,0.0,0.0,438.0,0.0,0.0;                                       44P     44
110,440.0,0.0,0.0,448.0,0.0,0.0;                                       45P     45
110,450.0,0.0,0.0,458.0,0.0,0.0;                                       46P     46
110,460.0,0.0,0.0,468.0,0.0,0.0;                                       47P     47
110,470.0,0.0,0.0,478.0,0.0,0.0;                                       48P     48
110,480.0,0.0,0.0,488.0,0.0,0.0;                                       49P     49
110,490.0,0.0,0.0,498.0,0.0,0.0;                                       50P     50
110,500.0,0.0,0.0,508.0,0.0,0.0;                                       51P     51
110,510.0,0.0,0.0,518.0,0.0,0.0;                                       52P     52
110,520.0,0.0,0.0,528.0,0.0,0.0;                                       53P     53
110,530.0,0.0,0.0,538.0,0.0,0.0;                                       54P     54
110,540.0,0.0,0.0,548.0,0.0,0.0;                                       55P     55
110,550.0,0.0,0.0,558.0,0.0,0.0;                                       56P     56
110,560.0,0.0,0.0,568.0,0.0,0.0;                                       57P     57
110,570.0,0.0,0.0,578.0,0.0,0.0;                                       58P     58
110,580.0,0.0,0.0,588.0,0.0,0.0;                                       59P     59
110,590.0,0.0,0.0,598.0,0.0,0.0;                                       60P     60
110,600.0,0.0,0.0,608.0,0.0,0.0;                                       61P     61
110,610.0,0.0,0.0,618.0,0.0,0.0;                                       62P     62
110,620.0,0.0,0.0,628.0,0.0,0.0;                                       63P     63
110,630.0,0.0,0.0,638.0,0.0,0.0;                                       64P     64
110,640.0,0.0,0.0,648.0,0.0,0.0;                                       65P     65
110,650.0,0.0,0.0,658.0,0.0,0.0;                                       66P     66
110,660.0,0.0,0.0,668.0,0.0,0.0;                                       67P     67
110,670.0,0.0,0.0,678.0,0.0,0.0;                                       68P     68
110,680.0,0.0,0.0,688.0,0.0,0.0;                                       69P     69
110,690.0,0.0,0.0,698.0,0.0,0.0;                                       70P     70
110,700.0,0.0,0.0,708.0,0.0,0.0;                                       71P     71
110,710.0,0.0,0.0,718.0,0.0,0.0;                                       72P     72
110,720.0,0.0,0.0,728.0,0.0,0.0;                                       73P     73
110,730.0,0.0,0.0,738.0,0.0,0.0;                                       74P     74
110,740.0,0.0,0.0,748.0,0.0,0.0;                                       75P     75
110,750.0,0.0,0.0,758.0,0.0,0.0;                                       76P     76
110,760.0,0.0,0.0,768.0,0.0,0.0;                                       77P     77
110,770.0,0.0,0.0,778.0,0.0,0.0;                                       78P     78
110,780.0,0.0,0.0,788.0,0.0,0.0;                                       79P     79
110,790.0,0.0,0.0,798.0,0.0,0.0;                                       80P     80
110,800.0,0.0,0.0,808.0,0.0,0.0;                                       81P     81
110,810.0,0.0,0.0,818.0,0.0,0.0;                                       82P     82
110,820.0,0.0,0.0,828.0,0.0,0.0;                                       83P     83
110,830.0,0.0,0.0,838.0,0.0,0.0;                                       84P     84
110,840.0,0.0,0.0,848.0,0.0,0.0;                                       85P     85
110,850.0,0.0,0.0,858.0,0.0,0.0;                                       86P     86
110,860.0,0.0,0.0,868.0,0.0,0.0;                                       87P     87
110,870.0,0.0,0.0,878.0,0.0,0.0;                                       88P     88
110,880.0,0.0,0.0,888.0,0.0,0.0;                                       89P     89
110,890.0,0.0,0.0,898.0,0.0,0.0;                                       90P     90
110,900.0,0.0,0.0,908.0,0.0,0.0;                                       91P     91
110,910.0,0.0,0.0,918.0,0.0,0.0;                                       92P     92
110,920.0,0.0,0.0,928.0,0.0,0.0;                                       93P     93
110,930.0,0.0,0.0,938.0,0.0,0.0;                                       94P     94
110,940.0,0.0,0.0,948.0,0.0,0.0;                                       95P     95
110,950.0,0.0,0.0,958.0,0.0,0.0;                                       96P     96
110,960.0,0.0,0.0,968.0,0.0,0.0;                                       97P     97
110,970.0,0.0,0.0,978.0,0.0,0.0;                                       98P     98
110,980.0,0.0,0.0,988.0,0.0,0.0;                                       99P     99
110,990.0,0.0,0.0,998.0,0.0,0.0;                                       100P    100
110,1000.0,0.0,0.0,1008.0,0.0,0.0;                                       101P    101
110,1010.0,0.0,0.0,1018.0,0.0,0.0;                                       102P    102
110,1020.0,0.0,0.0,1028.0,0.0,0.0;                                       103P    103
110,1030.0,0.0,0.0,1038.0,0.0,0.0;                                       104P    104
110,1040.0,0.0,0.0,1048.0,0.0,0.0;                                       105P    105
110,1050.0,0.0,0.0,1058.0,0.0,0.0;                                       106P    106
110,1060.0,0.0,0.0,1068.0,0.0,0.0;                                       107P    107
110,1070.0,0.0,0.0,1078.0,0.0,0.0;                                       108P    108
110,1080.0,0.0,0.0,1088.0,0.0,0.0;                                       109P    109
110,1090.0,0.0,0.0,1098.0,0.0,0.0;                                       110P    110
110,1100.0,0.0,0.0,1108.0,0.0,0.0;                                       111P    111
110,1110.0,0.0,0.0,1118.0,0.0,0.0;                                       112P    112
110,1120.0,0.0,0.0,1128.0,0.0,0.0;                                       113P    113
110,1130.0,0.0,0.0,1138.0,0.0,0.0;                                       114P    114
110,1140.0,0.0,0.0,1148.0,0.0,0.0;                                       115P    115
110,1150.0,0.0,0.0,1158.0,0.0,0.0;                                       116P    116
110,1160.0,0.0,0.0,1168.0,0.0,0.0;                                       117P    117
110,1170.0,0.0,0.0,1178.0,0.0,0.0;                                       118P    118
110,1180.0,0.0,0.0,1188.0,0.0,0.0;                                       119P    119
110,1190.0,0.0,0.0,1198.0,0.0,0.0;                                       120P    120
S      1G      3D    240P    120                                        T      1
