                                                                        S      1
1H,,1H;,4HSTEP,7Hstp.ige,7Hgetsam,7Hgetsam,32,38,6,38,15,4HSTEP,1.,2,2HMM G      1
,32767,0.5,13H260818.000000,1E-06,10.,7Hunknown,7Hunknown,10,0,15H26081  G      2
8.000000;                                                              G      3
     110       1       0       1       0       0       0       000000001D      1
     110       0       0       1       0                               D      2
110,0.0,0.0,0.0,8.0,0.0,0.0;                                       1P      1
S      1G      3D      2P      1                                        T      1
