                                                                        S      1
1H,,1H;,4HSTEP,7Hstp.ige,7Hgetsam,7Hgetsam,32,38,6,38,15,4HSTEP,1.,2,2HMM G      1
,32767,0.5,13H260818.000000,1E-06,10.,7Hunknown,7Hunknown,10,0,15H26081  G      2
8.000000;                                                              G      3
     110       1       0       1       0       0       0       000000001D      1
     110       0       0       1       0                               D      2
     110       2       0       1       0       0       0       000000001D      3
     110       0       0       1       0                               D      4
     110       3       0       1       0       0       0       000000001D      5
     110       0       0       1       0                               D      6
     110       4       0       1       0       0       0       000000001D      7
     110       0       0       1       0                               D      8
     110       5       0       1       0       0       0       000000001D      9
     110       0       0       1       0                               D     10
     110       6       0       1       0       0       0       000000001D     11
     110       0       0       1       0                               D     12
     110       7       0       1       0       0       0       000000001D     13
     110       0       0       1       0                               D     14
     110       8       0       1       0       0       0       000000001D     15
     110       0       0       1       0                               D     16
     110       9       0       1       0       0       0       000000001D     17
     110       0       0       1       0                               D     18
     110       10       0       1       0       0       0       000000001D     19
     110       0       0       1       0                               D     20
     110       11       0       1       0       0       0       000000001D     21
     110       0       0       1       0                               D     22
     110       12       0       1       0       0       0       000000001D     23
     110       0       0       1       0                               D     24
     110       13       0       1       0       0       0       000000001D     25
     110       0       0       1       0                               D     26
     110       14       0       1       0       0       0       000000001D     27
     110       0       0       1       0                               D     28
     110       15       0       1       0       0       0       000000001D     29
     110       0       0       1       0                               D     30
     110       16       0       1       0       0       0       000000001D     31
     110       0       0       1       0                               D     32
     110       17       0       1       0       0       0       000000001D     33
     110       0       0       1       0                               D     34
     110       18       0       1       0       0       0       000000001D     35
     110       0       0       1       0                               D     36
     110       19       0       1       0       0       0       000000001D     37
     110       0       0       1       0                               D     38
     110       20       0       1       0       0       0       000000001D     39
     110       0       0       1       0                               D     40
     110       21       0       1       0       0       0       000000001D     41
     110       0       0       1       0                               D     42
     110       22       0       1       0       0       0       000000001D     43
     110       0       0       1       0                               D     44
     110       23       0       1       0       0       0       000000001D     45
     110       0       0       1       0                               D     46
     110       24       0       1       0       0       0       000000001D     47
     110       0       0       1       0                               D     48
     110       25       0       1       0       0       0       000000001D     49
     110       0       0       1       0                               D     50
     110       26       0       1       0       0       0       000000001D     51
     110       0       0       1       0                               D     52
     110       27       0       1       0       0       0       000000001D     53
     110       0       0       1       0                               D     54
     110       28       0       1       0       0       0       000000001D     55
     110       0       0       1       0                               D     56
     110       29       0       1       0       0       0       000000001D     57
     110       0       0       1       0                               D     58
     110       30       0       1       0       0       0       000000001D     59
     110       0       0       1       0                               D     60
     110       31       0       1       0       0       0       000000001D     61
     110       0       0       1       0                               D     62
     110       32       0       1       0       0       0       000000001D     63
     110       0       0       1       0                               D     64
     110       33       0       1       0       0       0       000000001D     65
     110       0       0       1       0                               D     66
     110       34       0       1       0       0       0       000000001D     67
     110       0       0       1       0                               D     68
     110       35       0       1       0       0       0       000000001D     69
     110       0       0       1       0                               D     70
     110       36       0       1       0       0       0       000000001D     71
     110       0       0       1       0                               D     72
     110       37       0       1       0       0       0       000000001D     73
     110       0       0       1       0                               D     74
     110       38       0       1       0       0       0       000000001D     75
     110       0       0       1       0                               D     76
     110       39       0       1       0       0       0       000000001D     77
     110       0       0       1       0                               D     78
     110       40       0       1       0       0       0       000000001D     79
     110       0       0       1       0                               D     80
     110       41       0       1       0       0       0       000000001D     81
     110       0       0       1       0                               D     82
     110       42       0       1       0       0       0       000000001D     83
     110       0       0       1       0                               D     84
     110       43       0       1       0       0       0       000000001D     85
     110       0       0       1       0                               D     86
     110       44       0       1       0       0       0       000000001D     87
     110       0       0       1       0                               D     88
     110       45       0       1       0       0       0       000000001D     89
     110       0       0       1       0                               D     90
     110       46       0       1       0       0       0       000000001D     91
     110       0       0       1       0                               D     92
     110       47       0       1       0       0       0       000000001D     93
     110       0       0       1       0                               D     94
     110       48       0       1       0       0       0       000000001D     95
     110       0       0       1       0                               D     96
     110       49       0       1       0       0       0       000000001D     97
     110       0       0       1       0                               D     98
     110       50       0       1       0       0       0       000000001D     99
     110       0       0       1       0                               D    100
110,0.0,0.0,0.0,8.0,0.0,0.0;                                       1P      1
110,10.0,0.0,0.0,18.0,0.0,0.0;                                       2P      2
110,20.0,0.0,0.0,28.0,0.0,0.0;                                       3P      3
110,30.0,0.0,0.0,38.0,0.0,0.0;                                       4P      4
110,40.0,0.0,0.0,48.0,0.0,0.0;                                       5P      5
110,50.0,0.0,0.0,58.0,0.0,0.0;                                       6P      6
110,60.0,0.0,0.0,68.0,0.0,0.0;                                       7P      7
110,70.0,0.0,0.0,78.0,0.0,0.0;                                       8P      8
110,80.0,0.0,0.0,88.0,0.0,0.0;                                       9P      9
110,90.0,0.0,0.0,98.0,0.0,0.0;                                       10P     10
110,100.0,0.0,0.0,108.0,0.0,0.0;                                       11P     11
110,110.0,0.0,0.0,118.0,0.0,0.0;                                       12P     12
110,120.0,0.0,0.0,128.0,0.0,0.0;                                       13P     13
110,130.0,0.0,0.0,138.0,0.0,0.0;                                       14P     14
110,140.0,0.0,0.0,148.0,0.0,0.0;                                       15P     15
110,150.0,0.0,0.0,158.0,0.0,0.0;                                       16P     16
110,160.0,0.0,0.0,168.0,0.0,0.0;                                       17P     17
110,170.0,0.0,0.0,178.0,0.0,0.0;                                       18P     18
110,180.0,0.0,0.0,188.0,0.0,0.0;                                       19P     19
110,190.0,0.0,0.0,198.0,0.0,0.0;                                       20P     20
110,200.0,0.0,0.0,208.0,0.0,0.0;                                       21P     21
110,210.0,0.0,0.0,218.0,0.0,0.0;                                       22P     22
110,220.0,0.0,0.0,228.0,0.0,0.0;                                       23P     23
110,230.0,0.0,0.0,238.0,0.0,0.0;                                       24P     24
110,240.0,0.0,0.0,248.0,0.0,0.0;                                       25P     25
110,250.0,0.0,0.0,258.0,0.0,0.0;                                       26P     26
110,260.0,0.0,0.0,268.0,0.0,0.0;                                       27P     27
110,270.0,0.0,0.0,278.0,0.0,0.0;                                       28P     28
110,280.0,0.0,0.0,288.0,0.0,0.0;                                       29P     29
110,290.0,0.0,0.0,298.0,0.0,0.0;                                       30P     30
110,300.0,0.0,0.0,308.0,0.0,0.0;                                       31P     31
110,310.0,0.0,0.0,318.0,0.0,0.0;                                       32P     32
110,320.0,0.0,0.0,328.0,0.0,0.0;                                       33P     33
110,330.0,0.0,0.0,338.0,0.0,0.0;                                       34P     34
110,340.0,0.0,0.0,348.0,0.0,0.0;                                       35P     35
110,350.0,0.0,0.0,358.0,0.0,0.0;                                       36P     36
110,360.0,0.0,0.0,368.0,0.0,0.0;                                       37P     37
110,370.0,0.0,0.0,378.0,0.0,0.0;                                       38P     38
110,380.0,0.0,0.0,388.0,0.0,0.0;                                       39P     39
110,390.0,0.0,0.0,398.0,0.0,0.0;                                       40P     40
110,400.0,0.0,0.0,408.0,0.0,0.0;                                       41P     41
110,410.0,0.0,0.0,418.0,0.0,0.0;                                       42P     42
110,420.0,0.0,0.0,428.0,0.0,0.0;                                       43P     43
110,430.0,0.0,0.0,438.0,0.0,0.0;                                       44P     44
110,440.0,0.0,0.0,448.0,0.0,0.0;                                       45P     45
110,450.0,0.0,0.0,458.0,0.0,0.0;                                       46P     46
110,460.0,0.0,0.0,468.0,0.0,0.0;                                       47P     47
110,470.0,0.0,0.0,478.0,0.0,0.0;                                       48P     48
110,480.0,0.0,0.0,488.0,0.0,0.0;                                       49P     49
110,490.0,0.0,0.0,498.0,0.0,0.0;                                       50P     50
S      1G      3D    100P     50                                        T      1
