                                                                        S      1
1H,,1H;,4HSTEP,7Hstp.ige,7Hgetsam,7Hgetsam,32,38,6,38,15,4HSTEP,1.,2,2HMM G      1
,32767,0.5,13H260818.000000,1E-06,10.,7Hunknown,7Hunknown,10,0,15H26081  G      2
8.000000;                                                              G      3
     110       1       0       1       0       0       0       000000001D      1
     110       0       0       1       0                               D      2
     110       2       0       1       0       0       0       000000001D      3
     110       0       0       1       0                               D      4
     110       3       0       1       0       0       0       000000001D      5
     110       0       0       1       0                               D      6
     110       4       0       1       0       0       0       000000001D      7
     110       0       0       1       0                               D      8
     110       5       0       1       0       0       0       000000001D      9
     110       0       0       1       0                               D     10
     110       6       0       1       0       0       0       000000001D     11
     110       0       0       1       0                               D     12
     110       7       0       1       0       0       0       000000001D     13
     110       0       0       1       0                               D     14
     110       8       0       1       0       0       0       000000001D     15
     110       0       0       1       0                               D     16
     110       9       0       1       0       0       0       000000001D     17
     110       0       0       1       0                               D     18
     110       10       0       1       0       0       0       000000001D     19
     110       0       0       1       0                               D     20
     110       11       0       1       0       0       0       000000001D     21
     110       0       0       1       0                               D     22
     110       12       0       1       0       0       0       000000001D     23
     110       0       0       1       0                               D     24
     110       13       0       1       0       0       0       000000001D     25
     110       0       0       1       0                               D     26
     110       14       0       1       0       0       0       000000001D     27
     110       0       0       1       0                               D     28
     110       15       0       1       0       0       0       000000001D     29
     110       0       0       1       0                               D     30
     110       16       0       1       0       0       0       000000001D     31
     110       0       0       1       0                               D     32
     110       17       0       1       0       0       0       000000001D     33
     110       0       0       1       0                               D     34
     110       18       0       1       0       0       0       000000001D     35
     110       0       0       1       0                               D     36
     110       19       0       1       0       0       0       000000001D     37
     110       0       0       1       0                               D     38
     110       20       0       1       0       0       0       000000001D     39
     110       0       0       1       0                               D     40
110,0.0,0.0,0.0,8.0,0.0,0.0;                                       1P      1
110,10.0,0.0,0.0,18.0,0.0,0.0;                                       2P      2
110,20.0,0.0,0.0,28.0,0.0,0.0;                                       3P      3
110,30.0,0.0,0.0,38.0,0.0,0.0;                                       4P      4
110,40.0,0.0,0.0,48.0,0.0,0.0;                                       5P      5
110,50.0,0.0,0.0,58.0,0.0,0.0;                                       6P      6
110,60.0,0.0,0.0,68.0,0.0,0.0;                                       7P      7
110,70.0,0.0,0.0,78.0,0.0,0.0;                                       8P      8
110,80.0,0.0,0.0,88.0,0.0,0.0;                                       9P      9
110,90.0,0.0,0.0,98.0,0.0,0.0;                                       10P     10
110,100.0,0.0,0.0,108.0,0.0,0.0;                                       11P     11
110,110.0,0.0,0.0,118.0,0.0,0.0;                                       12P     12
110,120.0,0.0,0.0,128.0,0.0,0.0;                                       13P     13
110,130.0,0.0,0.0,138.0,0.0,0.0;                                       14P     14
110,140.0,0.0,0.0,148.0,0.0,0.0;                                       15P     15
110,150.0,0.0,0.0,158.0,0.0,0.0;                                       16P     16
110,160.0,0.0,0.0,168.0,0.0,0.0;                                       17P     17
110,170.0,0.0,0.0,178.0,0.0,0.0;                                       18P     18
110,180.0,0.0,0.0,188.0,0.0,0.0;                                       19P     19
110,190.0,0.0,0.0,198.0,0.0,0.0;                                       20P     20
S      1G      3D     40P     20                                        T      1
