                                                                        S      1
1H,,1H;,4HSTEP,7Hstp.ige,7Hgetsam,7Hgetsam,32,38,6,38,15,4HSTEP,1.,2,2HMM G      1
,32767,0.5,13H260818.000000,1E-06,10.,7Hunknown,7Hunknown,10,0,15H26081  G      2
8.000000;                                                              G      3
     110       1       0       1       0       0       0       000000001D      1
     110       0       0       1       0                               D      2
     110       2       0       1       0       0       0       000000001D      3
     110       0       0       1       0                               D      4
     110       3       0       1       0       0       0       000000001D      5
     110       0       0       1       0                               D      6
     110       4       0       1       0       0       0       000000001D      7
     110       0       0       1       0                               D      8
     110       5       0       1       0       0       0       000000001D      9
     110       0       0       1       0                               D     10
     110       6       0       1       0       0       0       000000001D     11
     110       0       0       1       0                               D     12
     110       7       0       1       0       0       0       000000001D     13
     110       0       0       1       0                               D     14
     110       8       0       1       0       0       0       000000001D     15
     110       0       0       1       0                               D     16
     110       9       0       1       0       0       0       000000001D     17
     110       0       0       1       0                               D     18
     110       10       0       1       0       0       0       000000001D     19
     110       0       0       1       0                               D     20
     110       11       0       1       0       0       0       000000001D     21
     110       0       0       1       0                               D     22
     110       12       0       1       0       0       0       000000001D     23
     110       0       0       1       0                               D     24
     110       13       0       1       0       0       0       000000001D     25
     110       0       0       1       0                               D     26
     110       14       0       1       0       0       0       000000001D     27
     110       0       0       1       0                               D     28
     110       15       0       1       0       0       0       000000001D     29
     110       0       0       1       0                               D     30
     110       16       0       1       0       0       0       000000001D     31
     110       0       0       1       0                               D     32
     110       17       0       1       0       0       0       000000001D     33
     110       0       0       1       0                               D     34
     110       18       0       1       0       0       0       000000001D     35
     110       0       0       1       0                               D     36
     110       19       0       1       0       0       0       000000001D     37
     110       0       0       1       0                               D     38
     110       20       0       1       0       0       0       000000001D     39
     110       0       0       1       0                               D     40
     110       21       0       1       0       0       0       000000001D     41
     110       0       0       1       0                               D     42
     110       22       0       1       0       0       0       000000001D     43
     110       0       0       1       0                               D     44
     110       23       0       1       0       0       0       000000001D     45
     110       0       0       1       0                               D     46
     110       24       0       1       0       0       0       000000001D     47
     110       0       0       1       0                               D     48
     110       25       0       1       0       0       0       000000001D     49
     110       0       0       1       0                               D     50
     110       26       0       1       0       0       0       000000001D     51
     110       0       0       1       0                               D     52
     110       27       0       1       0       0       0       000000001D     53
     110       0       0       1       0                               D     54
     110       28       0       1       0       0       0       000000001D     55
     110       0       0       1       0                               D     56
     110       29       0       1       0       0       0       000000001D     57
     110       0       0       1       0                               D     58
     110       30       0       1       0       0       0       000000001D     59
     110       0       0       1       0                               D     60
     110       31       0       1       0       0       0       000000001D     61
     110       0       0       1       0                               D     62
     110       32       0       1       0       0       0       000000001D     63
     110       0       0       1       0                               D     64
     110       33       0       1       0       0       0       000000001D     65
     110       0       0       1       0                               D     66
     110       34       0       1       0       0       0       000000001D     67
     110       0       0       1       0                               D     68
     110       35       0       1       0       0       0       000000001D     69
     110       0       0       1       0                               D     70
     110       36       0       1       0       0       0       000000001D     71
     110       0       0       1       0                               D     72
     110       37       0       1       0       0       0       000000001D     73
     110       0       0       1       0                               D     74
     110       38       0       1       0       0       0       000000001D     75
     110       0       0       1       0                               D     76
     110       39       0       1       0       0       0       000000001D     77
     110       0       0       1       0                               D     78
     110       40       0       1       0       0       0       000000001D     79
     110       0       0       1       0                               D     80
     110       41       0       1       0       0       0       000000001D     81
     110       0       0       1       0                               D     82
     110       42       0       1       0       0       0       000000001D     83
     110       0       0       1       0                               D     84
     110       43       0       1       0       0       0       000000001D     85
     110       0       0       1       0                               D     86
     110       44       0       1       0       0       0       000000001D     87
     110       0       0       1       0                               D     88
     110       45       0       1       0       0       0       000000001D     89
     110       0       0       1       0                               D     90
     110       46       0       1       0       0       0       000000001D     91
     110       0       0       1       0                               D     92
     110       47       0       1       0       0       0       000000001D     93
     110       0       0       1       0                               D     94
     110       48       0       1       0       0       0       000000001D     95
     110       0       0       1       0                               D     96
     110       49       0       1       0       0       0       000000001D     97
     110       0       0       1       0                               D     98
     110       50       0       1       0       0       0       000000001D     99
     110       0       0       1       0                               D    100
     110       51       0       1       0       0       0       000000001D    101
     110       0       0       1       0                               D    102
     110       52       0       1       0       0       0       000000001D    103
     110       0       0       1       0                               D    104
     110       53       0       1       0       0       0       000000001D    105
     110       0       0       1       0                               D    106
     110       54       0       1       0       0       0       000000001D    107
     110       0       0       1       0                               D    108
     110       55       0       1       0       0       0       000000001D    109
     110       0       0       1       0                               D    110
     110       56       0       1       0       0       0       000000001D    111
     110       0       0       1       0                               D    112
     110       57       0       1       0       0       0       000000001D    113
     110       0       0       1       0                               D    114
     110       58       0       1       0       0       0       000000001D    115
     110       0       0       1       0                               D    116
     110       59       0       1       0       0       0       000000001D    117
     110       0       0       1       0                               D    118
     110       60       0       1       0       0       0       000000001D    119
     110       0       0       1       0                               D    120
     110       61       0       1       0       0       0       000000001D    121
     110       0       0       1       0                               D    122
     110       62       0       1       0       0       0       000000001D    123
     110       0       0       1       0                               D    124
     110       63       0       1       0       0       0       000000001D    125
     110       0       0       1       0                               D    126
     110       64       0       1       0       0       0       000000001D    127
     110       0       0       1       0                               D    128
     110       65       0       1       0       0       0       000000001D    129
     110       0       0       1       0                               D    130
     110       66       0       1       0       0       0       000000001D    131
     110       0       0       1       0                               D    132
     110       67       0       1       0       0       0       000000001D    133
     110       0       0       1       0                               D    134
     110       68       0       1       0       0       0       000000001D    135
     110       0       0       1       0                               D    136
     110       69       0       1       0       0       0       000000001D    137
     110       0       0       1       0                               D    138
     110       70       0       1       0       0       0       000000001D    139
     110       0       0       1       0                               D    140
     110       71       0       1       0       0       0       000000001D    141
     110       0       0       1       0                               D    142
     110       72       0       1       0       0       0       000000001D    143
     110       0       0       1       0                               D    144
     110       73       0       1       0       0       0       000000001D    145
     110       0       0       1       0                               D    146
     110       74       0       1       0       0       0       000000001D    147
     110       0       0       1       0                               D    148
     110       75       0       1       0       0       0       000000001D    149
     110       0       0       1       0                               D    150
     110       76       0       1       0       0       0       000000001D    151
     110       0       0       1       0                               D    152
     110       77       0       1       0       0       0       000000001D    153
     110       0       0       1       0                               D    154
     110       78       0       1       0       0       0       000000001D    155
     110       0       0       1       0                               D    156
     110       79       0       1       0       0       0       000000001D    157
     110       0       0       1       0                               D    158
     110       80       0       1       0       0       0       000000001D    159
     110       0       0       1       0                               D    160
     110       81       0       1       0       0       0       000000001D    161
     110       0       0       1       0                               D    162
     110       82       0       1       0       0       0       000000001D    163
     110       0       0       1       0                               D    164
     110       83       0       1       0       0       0       000000001D    165
     110       0       0       1       0                               D    166
     110       84       0       1       0       0       0       000000001D    167
     110       0       0       1       0                               D    168
     110       85       0       1       0       0       0       000000001D    169
     110       0       0       1       0                               D    170
     110       86       0       1       0       0       0       000000001D    171
     110       0       0       1       0                               D    172
     110       87       0       1       0       0       0       000000001D    173
     110       0       0       1       0                               D    174
     110       88       0       1       0       0       0       000000001D    175
     110       0       0       1       0                               D    176
     110       89       0       1       0       0       0       000000001D    177
     110       0       0       1       0                               D    178
     110       90       0       1       0       0       0       000000001D    179
     110       0       0       1       0                               D    180
     110       91       0       1       0       0       0       000000001D    181
     110       0       0       1       0                               D    182
     110       92       0       1       0       0       0       000000001D    183
     110       0       0       1       0                               D    184
     110       93       0       1       0       0       0       000000001D    185
     110       0       0       1       0                               D    186
     110       94       0       1       0       0       0       000000001D    187
     110       0       0       1       0                               D    188
     110       95       0       1       0       0       0       000000001D    189
     110       0       0       1       0                               D    190
     110       96       0       1       0       0       0       000000001D    191
     110       0       0       1       0                               D    192
     110       97       0       1       0       0       0       000000001D    193
     110       0       0       1       0                               D    194
     110       98       0       1       0       0       0       000000001D    195
     110       0       0       1       0                               D    196
     110       99       0       1       0       0       0       000000001D    197
     110       0       0       1       0                               D    198
     110       100       0       1       0       0       0       000000001D    199
     110       0       0       1       0                               D    200
     110       101       0       1       0       0       0       000000001D    201
     110       0       0       1       0                               D    202
     110       102       0       1       0       0       0       000000001D    203
     110       0       0       1       0                               D    204
     110       103       0       1       0       0       0       000000001D    205
     110       0       0       1       0                               D    206
     110       104       0       1       0       0       0       000000001D    207
     110       0       0       1       0                               D    208
     110       105       0       1       0       0       0       000000001D    209
     110       0       0       1       0                               D    210
     110       106       0       1       0       0       0       000000001D    211
     110       0       0       1       0                               D    212
     110       107       0       1       0       0       0       000000001D    213
     110       0       0       1       0                               D    214
     110       108       0       1       0       0       0       000000001D    215
     110       0       0       1       0                               D    216
     110       109       0       1       0       0       0       000000001D    217
     110       0       0       1       0                               D    218
     110       110       0       1       0       0       0       000000001D    219
     110       0       0       1       0                               D    220
     110       111       0       1       0       0       0       000000001D    221
     110       0       0       1       0                               D    222
     110       112       0       1       0       0       0       000000001D    223
     110       0       0       1       0                               D    224
     110       113       0       1       0       0       0       000000001D    225
     110       0       0       1       0                               D    226
     110       114       0       1       0       0       0       000000001D    227
     110       0       0       1       0                               D    228
     110       115       0       1       0       0       0       000000001D    229
     110       0       0       1       0                               D    230
     110       116       0       1       0       0       0       000000001D    231
     110       0       0       1       0                               D    232
     110       117       0       1       0       0       0       000000001D    233
     110       0       0       1       0                               D    234
     110       118       0       1       0       0       0       000000001D    235
     110       0       0       1       0                               D    236
     110       119       0       1       0       0       0       000000001D    237
     110       0       0       1       0                               D    238
     110       120       0       1       0       0       0       000000001D    239
     110       0       0       1       0                               D    240
     110       121       0       1       0       0       0       000000001D    241
     110       0       0       1       0                               D    242
     110       122       0       1       0       0       0       000000001D    243
     110       0       0       1       0                               D    244
     110       123       0       1       0       0       0       000000001D    245
     110       0       0       1       0                               D    246
     110       124       0       1       0       0       0       000000001D    247
     110       0       0       1       0                               D    248
     110       125       0       1       0       0       0       000000001D    249
     110       0       0       1       0                               D    250
     110       126       0       1       0       0       0       000000001D    251
     110       0       0       1       0                               D    252
     110       127       0       1       0       0       0       000000001D    253
     110       0       0       1       0                               D    254
     110       128       0       1       0       0       0       000000001D    255
     110       0       0       1       0                               D    256
     110       129       0       1       0       0       0       000000001D    257
     110       0       0       1       0                               D    258
     110       130       0       1       0       0       0       000000001D    259
     110       0       0       1       0                               D    260
     110       131       0       1       0       0       0       000000001D    261
     110       0       0       1       0                               D    262
     110       132       0       1       0       0       0       000000001D    263
     110       0       0       1       0                               D    264
     110       133       0       1       0       0       0       000000001D    265
     110       0       0       1       0                               D    266
     110       134       0       1       0       0       0       000000001D    267
     110       0       0       1       0                               D    268
     110       135       0       1       0       0       0       000000001D    269
     110       0       0       1       0                               D    270
     110       136       0       1       0       0       0       000000001D    271
     110       0       0       1       0                               D    272
     110       137       0       1       0       0       0       000000001D    273
     110       0       0       1       0                               D    274
     110       138       0       1       0       0       0       000000001D    275
     110       0       0       1       0                               D    276
     110       139       0       1       0       0       0       000000001D    277
     110       0       0       1       0                               D    278
     110       140       0       1       0       0       0       000000001D    279
     110       0       0       1       0                               D    280
     110       141       0       1       0       0       0       000000001D    281
     110       0       0       1       0                               D    282
     110       142       0       1       0       0       0       000000001D    283
     110       0       0       1       0                               D    284
     110       143       0       1       0       0       0       000000001D    285
     110       0       0       1       0                               D    286
     110       144       0       1       0       0       0       000000001D    287
     110       0       0       1       0                               D    288
     110       145       0       1       0       0       0       000000001D    289
     110       0       0       1       0                               D    290
     110       146       0       1       0       0       0       000000001D    291
     110       0       0       1       0                               D    292
     110       147       0       1       0       0       0       000000001D    293
     110       0       0       1       0                               D    294
     110       148       0       1       0       0       0       000000001D    295
     110       0       0       1       0                               D    296
     110       149       0       1       0       0       0       000000001D    297
     110       0       0       1       0                               D    298
     110       150       0       1       0       0       0       000000001D    299
     110       0       0       1       0                               D    300
     110       151       0       1       0       0       0       000000001D    301
     110       0       0       1       0                               D    302
     110       152       0       1       0       0       0       000000001D    303
     110       0       0       1       0                               D    304
     110       153       0       1       0       0       0       000000001D    305
     110       0       0       1       0                               D    306
     110       154       0       1       0       0       0       000000001D    307
     110       0       0       1       0                               D    308
     110       155       0       1       0       0       0       000000001D    309
     110       0       0       1       0                               D    310
     110       156       0       1       0       0       0       000000001D    311
     110       0       0       1       0                               D    312
     110       157       0       1       0       0       0       000000001D    313
     110       0       0       1       0                               D    314
     110       158       0       1       0       0       0       000000001D    315
     110       0       0       1       0                               D    316
     110       159       0       1       0       0       0       000000001D    317
     110       0       0       1       0                               D    318
     110       160       0       1       0       0       0       000000001D    319
     110       0       0       1       0                               D    320
     110       161       0       1       0       0       0       000000001D    321
     110       0       0       1       0                               D    322
     110       162       0       1       0       0       0       000000001D    323
     110       0       0       1       0                               D    324
     110       163       0       1       0       0       0       000000001D    325
     110       0       0       1       0                               D    326
     110       164       0       1       0       0       0       000000001D    327
     110       0       0       1       0                               D    328
     110       165       0       1       0       0       0       000000001D    329
     110       0       0       1       0                               D    330
     110       166       0       1       0       0       0       000000001D    331
     110       0       0       1       0                               D    332
     110       167       0       1       0       0       0       000000001D    333
     110       0       0       1       0                               D    334
     110       168       0       1       0       0       0       000000001D    335
     110       0       0       1       0                               D    336
     110       169       0       1       0       0       0       000000001D    337
     110       0       0       1       0                               D    338
     110       170       0       1       0       0       0       000000001D    339
     110       0       0       1       0                               D    340
     110       171       0       1       0       0       0       000000001D    341
     110       0       0       1       0                               D    342
     110       172       0       1       0       0       0       000000001D    343
     110       0       0       1       0                               D    344
     110       173       0       1       0       0       0       000000001D    345
     110       0       0       1       0                               D    346
     110       174       0       1       0       0       0       000000001D    347
     110       0       0       1       0                               D    348
     110       175       0       1       0       0       0       000000001D    349
     110       0       0       1       0                               D    350
     110       176       0       1       0       0       0       000000001D    351
     110       0       0       1       0                               D    352
     110       177       0       1       0       0       0       000000001D    353
     110       0       0       1       0                               D    354
     110       178       0       1       0       0       0       000000001D    355
     110       0       0       1       0                               D    356
     110       179       0       1       0       0       0       000000001D    357
     110       0       0       1       0                               D    358
     110       180       0       1       0       0       0       000000001D    359
     110       0       0       1       0                               D    360
     110       181       0       1       0       0       0       000000001D    361
     110       0       0       1       0                               D    362
     110       182       0       1       0       0       0       000000001D    363
     110       0       0       1       0                               D    364
     110       183       0       1       0       0       0       000000001D    365
     110       0       0       1       0                               D    366
     110       184       0       1       0       0       0       000000001D    367
     110       0       0       1       0                               D    368
     110       185       0       1       0       0       0       000000001D    369
     110       0       0       1       0                               D    370
     110       186       0       1       0       0       0       000000001D    371
     110       0       0       1       0                               D    372
     110       187       0       1       0       0       0       000000001D    373
     110       0       0       1       0                               D    374
     110       188       0       1       0       0       0       000000001D    375
     110       0       0       1       0                               D    376
     110       189       0       1       0       0       0       000000001D    377
     110       0       0       1       0                               D    378
     110       190       0       1       0       0       0       000000001D    379
     110       0       0       1       0                               D    380
     110       191       0       1       0       0       0       000000001D    381
     110       0       0       1       0                               D    382
     110       192       0       1       0       0       0       000000001D    383
     110       0       0       1       0                               D    384
     110       193       0       1       0       0       0       000000001D    385
     110       0       0       1       0                               D    386
     110       194       0       1       0       0       0       000000001D    387
     110       0       0       1       0                               D    388
     110       195       0       1       0       0       0       000000001D    389
     110       0       0       1       0                               D    390
     110       196       0       1       0       0       0       000000001D    391
     110       0       0       1       0                               D    392
     110       197       0       1       0       0       0       000000001D    393
     110       0       0       1       0                               D    394
     110       198       0       1       0       0       0       000000001D    395
     110       0       0       1       0                               D    396
     110       199       0       1       0       0       0       000000001D    397
     110       0       0       1       0                               D    398
     110       200       0       1       0       0       0       000000001D    399
     110       0       0       1       0                               D    400
     110       201       0       1       0       0       0       000000001D    401
     110       0       0       1       0                               D    402
     110       202       0       1       0       0       0       000000001D    403
     110       0       0       1       0                               D    404
     110       203       0       1       0       0       0       000000001D    405
     110       0       0       1       0                               D    406
     110       204       0       1       0       0       0       000000001D    407
     110       0       0       1       0                               D    408
     110       205       0       1       0       0       0       000000001D    409
     110       0       0       1       0                               D    410
     110       206       0       1       0       0       0       000000001D    411
     110       0       0       1       0                               D    412
     110       207       0       1       0       0       0       000000001D    413
     110       0       0       1       0                               D    414
     110       208       0       1       0       0       0       000000001D    415
     110       0       0       1       0                               D    416
     110       209       0       1       0       0       0       000000001D    417
     110       0       0       1       0                               D    418
     110       210       0       1       0       0       0       000000001D    419
     110       0       0       1       0                               D    420
     110       211       0       1       0       0       0       000000001D    421
     110       0       0       1       0                               D    422
     110       212       0       1       0       0       0       000000001D    423
     110       0       0       1       0                               D    424
     110       213       0       1       0       0       0       000000001D    425
     110       0       0       1       0                               D    426
     110       214       0       1       0       0       0       000000001D    427
     110       0       0       1       0                               D    428
     110       215       0       1       0       0       0       000000001D    429
     110       0       0       1       0                               D    430
     110       216       0       1       0       0       0       000000001D    431
     110       0       0       1       0                               D    432
     110       217       0       1       0       0       0       000000001D    433
     110       0       0       1       0                               D    434
     110       218       0       1       0       0       0       000000001D    435
     110       0       0       1       0                               D    436
     110       219       0       1       0       0       0       000000001D    437
     110       0       0       1       0                               D    438
     110       220       0       1       0       0       0       000000001D    439
     110       0       0       1       0                               D    440
     110       221       0       1       0       0       0       000000001D    441
     110       0       0       1       0                               D    442
     110       222       0       1       0       0       0       000000001D    443
     110       0       0       1       0                               D    444
     110       223       0       1       0       0       0       000000001D    445
     110       0       0       1       0                               D    446
     110       224       0       1       0       0       0       000000001D    447
     110       0       0       1       0                               D    448
     110       225       0       1       0       0       0       000000001D    449
     110       0       0       1       0                               D    450
     110       226       0       1       0       0       0       000000001D    451
     110       0       0       1       0                               D    452
     110       227       0       1       0       0       0       000000001D    453
     110       0       0       1       0                               D    454
     110       228       0       1       0       0       0       000000001D    455
     110       0       0       1       0                               D    456
     110       229       0       1       0       0       0       000000001D    457
     110       0       0       1       0                               D    458
     110       230       0       1       0       0       0       000000001D    459
     110       0       0       1       0                               D    460
     110       231       0       1       0       0       0       000000001D    461
     110       0       0       1       0                               D    462
     110       232       0       1       0       0       0       000000001D    463
     110       0       0       1       0                               D    464
     110       233       0       1       0       0       0       000000001D    465
     110       0       0       1       0                               D    466
     110       234       0       1       0       0       0       000000001D    467
     110       0       0       1       0                               D    468
     110       235       0       1       0       0       0       000000001D    469
     110       0       0       1       0                               D    470
     110       236       0       1       0       0       0       000000001D    471
     110       0       0       1       0                               D    472
     110       237       0       1       0       0       0       000000001D    473
     110       0       0       1       0                               D    474
     110       238       0       1       0       0       0       000000001D    475
     110       0       0       1       0                               D    476
     110       239       0       1       0       0       0       000000001D    477
     110       0       0       1       0                               D    478
     110       240       0       1       0       0       0       000000001D    479
     110       0       0       1       0                               D    480
     110       241       0       1       0       0       0       000000001D    481
     110       0       0       1       0                               D    482
     110       242       0       1       0       0       0       000000001D    483
     110       0       0       1       0                               D    484
     110       243       0       1       0       0       0       000000001D    485
     110       0       0       1       0                               D    486
     110       244       0       1       0       0       0       000000001D    487
     110       0       0       1       0                               D    488
     110       245       0       1       0       0       0       000000001D    489
     110       0       0       1       0                               D    490
     110       246       0       1       0       0       0       000000001D    491
     110       0       0       1       0                               D    492
     110       247       0       1       0       0       0       000000001D    493
     110       0       0       1       0                               D    494
     110       248       0       1       0       0       0       000000001D    495
     110       0       0       1       0                               D    496
     110       249       0       1       0       0       0       000000001D    497
     110       0       0       1       0                               D    498
     110       250       0       1       0       0       0       000000001D    499
     110       0       0       1       0                               D    500
     110       251       0       1       0       0       0       000000001D    501
     110       0       0       1       0                               D    502
     110       252       0       1       0       0       0       000000001D    503
     110       0       0       1       0                               D    504
     110       253       0       1       0       0       0       000000001D    505
     110       0       0       1       0                               D    506
     110       254       0       1       0       0       0       000000001D    507
     110       0       0       1       0                               D    508
     110       255       0       1       0       0       0       000000001D    509
     110       0       0       1       0                               D    510
     110       256       0       1       0       0       0       000000001D    511
     110       0       0       1       0                               D    512
     110       257       0       1       0       0       0       000000001D    513
     110       0       0       1       0                               D    514
     110       258       0       1       0       0       0       000000001D    515
     110       0       0       1       0                               D    516
     110       259       0       1       0       0       0       000000001D    517
     110       0       0       1       0                               D    518
     110       260       0       1       0       0       0       000000001D    519
     110       0       0       1       0                               D    520
     110       261       0       1       0       0       0       000000001D    521
     110       0       0       1       0                               D    522
     110       262       0       1       0       0       0       000000001D    523
     110       0       0       1       0                               D    524
     110       263       0       1       0       0       0       000000001D    525
     110       0       0       1       0                               D    526
     110       264       0       1       0       0       0       000000001D    527
     110       0       0       1       0                               D    528
     110       265       0       1       0       0       0       000000001D    529
     110       0       0       1       0                               D    530
     110       266       0       1       0       0       0       000000001D    531
     110       0       0       1       0                               D    532
     110       267       0       1       0       0       0       000000001D    533
     110       0       0       1       0                               D    534
     110       268       0       1       0       0       0       000000001D    535
     110       0       0       1       0                               D    536
     110       269       0       1       0       0       0       000000001D    537
     110       0       0       1       0                               D    538
     110       270       0       1       0       0       0       000000001D    539
     110       0       0       1       0                               D    540
     110       271       0       1       0       0       0       000000001D    541
     110       0       0       1       0                               D    542
     110       272       0       1       0       0       0       000000001D    543
     110       0       0       1       0                               D    544
     110       273       0       1       0       0       0       000000001D    545
     110       0       0       1       0                               D    546
     110       274       0       1       0       0       0       000000001D    547
     110       0       0       1       0                               D    548
     110       275       0       1       0       0       0       000000001D    549
     110       0       0       1       0                               D    550
     110       276       0       1       0       0       0       000000001D    551
     110       0       0       1       0                               D    552
     110       277       0       1       0       0       0       000000001D    553
     110       0       0       1       0                               D    554
     110       278       0       1       0       0       0       000000001D    555
     110       0       0       1       0                               D    556
     110       279       0       1       0       0       0       000000001D    557
     110       0       0       1       0                               D    558
     110       280       0       1       0       0       0       000000001D    559
     110       0       0       1       0                               D    560
     110       281       0       1       0       0       0       000000001D    561
     110       0       0       1       0                               D    562
     110       282       0       1       0       0       0       000000001D    563
     110       0       0       1       0                               D    564
     110       283       0       1       0       0       0       000000001D    565
     110       0       0       1       0                               D    566
     110       284       0       1       0       0       0       000000001D    567
     110       0       0       1       0                               D    568
     110       285       0       1       0       0       0       000000001D    569
     110       0       0       1       0                               D    570
     110       286       0       1       0       0       0       000000001D    571
     110       0       0       1       0                               D    572
     110       287       0       1       0       0       0       000000001D    573
     110       0       0       1       0                               D    574
     110       288       0       1       0       0       0       000000001D    575
     110       0       0       1       0                               D    576
     110       289       0       1       0       0       0       000000001D    577
     110       0       0       1       0                               D    578
     110       290       0       1       0       0       0       000000001D    579
     110       0       0       1       0                               D    580
     110       291       0       1       0       0       0       000000001D    581
     110       0       0       1       0                               D    582
     110       292       0       1       0       0       0       000000001D    583
     110       0       0       1       0                               D    584
     110       293       0       1       0       0       0       000000001D    585
     110       0       0       1       0                               D    586
     110       294       0       1       0       0       0       000000001D    587
     110       0       0       1       0                               D    588
     110       295       0       1       0       0       0       000000001D    589
     110       0       0       1       0                               D    590
     110       296       0       1       0       0       0       000000001D    591
     110       0       0       1       0                               D    592
     110       297       0       1       0       0       0       000000001D    593
     110       0       0       1       0                               D    594
     110       298       0       1       0       0       0       000000001D    595
     110       0       0       1       0                               D    596
     110       299       0       1       0       0       0       000000001D    597
     110       0       0       1       0                               D    598
     110       300       0       1       0       0       0       000000001D    599
     110       0       0       1       0                               D    600
     110       301       0       1       0       0       0       000000001D    601
     110       0       0       1       0                               D    602
     110       302       0       1       0       0       0       000000001D    603
     110       0       0       1       0                               D    604
     110       303       0       1       0       0       0       000000001D    605
     110       0       0       1       0                               D    606
     110       304       0       1       0       0       0       000000001D    607
     110       0       0       1       0                               D    608
     110       305       0       1       0       0       0       000000001D    609
     110       0       0       1       0                               D    610
     110       306       0       1       0       0       0       000000001D    611
     110       0       0       1       0                               D    612
     110       307       0       1       0       0       0       000000001D    613
     110       0       0       1       0                               D    614
     110       308       0       1       0       0       0       000000001D    615
     110       0       0       1       0                               D    616
     110       309       0       1       0       0       0       000000001D    617
     110       0       0       1       0                               D    618
     110       310       0       1       0       0       0       000000001D    619
     110       0       0       1       0                               D    620
     110       311       0       1       0       0       0       000000001D    621
     110       0       0       1       0                               D    622
     110       312       0       1       0       0       0       000000001D    623
     110       0       0       1       0                               D    624
     110       313       0       1       0       0       0       000000001D    625
     110       0       0       1       0                               D    626
     110       314       0       1       0       0       0       000000001D    627
     110       0       0       1       0                               D    628
     110       315       0       1       0       0       0       000000001D    629
     110       0       0       1       0                               D    630
     110       316       0       1       0       0       0       000000001D    631
     110       0       0       1       0                               D    632
     110       317       0       1       0       0       0       000000001D    633
     110       0       0       1       0                               D    634
     110       318       0       1       0       0       0       000000001D    635
     110       0       0       1       0                               D    636
     110       319       0       1       0       0       0       000000001D    637
     110       0       0       1       0                               D    638
     110       320       0       1       0       0       0       000000001D    639
     110       0       0       1       0                               D    640
     110       321       0       1       0       0       0       000000001D    641
     110       0       0       1       0                               D    642
     110       322       0       1       0       0       0       000000001D    643
     110       0       0       1       0                               D    644
     110       323       0       1       0       0       0       000000001D    645
     110       0       0       1       0                               D    646
     110       324       0       1       0       0       0       000000001D    647
     110       0       0       1       0                               D    648
     110       325       0       1       0       0       0       000000001D    649
     110       0       0       1       0                               D    650
     110       326       0       1       0       0       0       000000001D    651
     110       0       0       1       0                               D    652
     110       327       0       1       0       0       0       000000001D    653
     110       0       0       1       0                               D    654
     110       328       0       1       0       0       0       000000001D    655
     110       0       0       1       0                               D    656
     110       329       0       1       0       0       0       000000001D    657
     110       0       0       1       0                               D    658
     110       330       0       1       0       0       0       000000001D    659
     110       0       0       1       0                               D    660
     110       331       0       1       0       0       0       000000001D    661
     110       0       0       1       0                               D    662
     110       332       0       1       0       0       0       000000001D    663
     110       0       0       1       0                               D    664
     110       333       0       1       0       0       0       000000001D    665
     110       0       0       1       0                               D    666
     110       334       0       1       0       0       0       000000001D    667
     110       0       0       1       0                               D    668
     110       335       0       1       0       0       0       000000001D    669
     110       0       0       1       0                               D    670
     110       336       0       1       0       0       0       000000001D    671
     110       0       0       1       0                               D    672
     110       337       0       1       0       0       0       000000001D    673
     110       0       0       1       0                               D    674
     110       338       0       1       0       0       0       000000001D    675
     110       0       0       1       0                               D    676
     110       339       0       1       0       0       0       000000001D    677
     110       0       0       1       0                               D    678
     110       340       0       1       0       0       0       000000001D    679
     110       0       0       1       0                               D    680
     110       341       0       1       0       0       0       000000001D    681
     110       0       0       1       0                               D    682
     110       342       0       1       0       0       0       000000001D    683
     110       0       0       1       0                               D    684
     110       343       0       1       0       0       0       000000001D    685
     110       0       0       1       0                               D    686
     110       344       0       1       0       0       0       000000001D    687
     110       0       0       1       0                               D    688
     110       345       0       1       0       0       0       000000001D    689
     110       0       0       1       0                               D    690
     110       346       0       1       0       0       0       000000001D    691
     110       0       0       1       0                               D    692
     110       347       0       1       0       0       0       000000001D    693
     110       0       0       1       0                               D    694
     110       348       0       1       0       0       0       000000001D    695
     110       0       0       1       0                               D    696
     110       349       0       1       0       0       0       000000001D    697
     110       0       0       1       0                               D    698
     110       350       0       1       0       0       0       000000001D    699
     110       0       0       1       0                               D    700
110,0.0,0.0,0.0,8.0,0.0,0.0;                                       1P      1
110,10.0,0.0,0.0,18.0,0.0,0.0;                                       2P      2
110,20.0,0.0,0.0,28.0,0.0,0.0;                                       3P      3
110,30.0,0.0,0.0,38.0,0.0,0.0;                                       4P      4
110,40.0,0.0,0.0,48.0,0.0,0.0;                                       5P      5
110,50.0,0.0,0.0,58.0,0.0,0.0;                                       6P      6
110,60.0,0.0,0.0,68.0,0.0,0.0;                                       7P      7
110,70.0,0.0,0.0,78.0,0.0,0.0;                                       8P      8
110,80.0,0.0,0.0,88.0,0.0,0.0;                                       9P      9
110,90.0,0.0,0.0,98.0,0.0,0.0;                                       10P     10
110,100.0,0.0,0.0,108.0,0.0,0.0;                                       11P     11
110,110.0,0.0,0.0,118.0,0.0,0.0;                                       12P     12
110,120.0,0.0,0.0,128.0,0.0,0.0;                                       13P     13
110,130.0,0.0,0.0,138.0,0.0,0.0;                                       14P     14
110,140.0,0.0,0.0,148.0,0.0,0.0;                                       15P     15
110,150.0,0.0,0.0,158.0,0.0,0.0;                                       16P     16
110,160.0,0.0,0.0,168.0,0.0,0.0;                                       17P     17
110,170.0,0.0,0.0,178.0,0.0,0.0;                                       18P     18
110,180.0,0.0,0.0,188.0,0.0,0.0;                                       19P     19
110,190.0,0.0,0.0,198.0,0.0,0.0;                                       20P     20
110,200.0,0.0,0.0,208.0,0.0,0.0;                                       21P     21
110,210.0,0.0,0.0,218.0,0.0,0.0;                                       22P     22
110,220.0,0.0,0.0,228.0,0.0,0.0;                                       23P     23
110,230.0,0.0,0.0,238.0,0.0,0.0;                                       24P     24
110,240.0,0.0,0.0,248.0,0.0,0.0;                                       25P     25
110,250.0,0.0,0.0,258.0,0.0,0.0;                                       26P     26
110,260.0,0.0,0.0,268.0,0.0,0.0;                                       27P     27
110,270.0,0.0,0.0,278.0,0.0,0.0;                                       28P     28
110,280.0,0.0,0.0,288.0,0.0,0.0;                                       29P     29
110,290.0,0.0,0.0,298.0,0.0,0.0;                                       30P     30
110,300.0,0.0,0.0,308.0,0.0,0.0;                                       31P     31
110,310.0,0.0,0.0,318.0,0.0,0.0;                                       32P     32
110,320.0,0.0,0.0,328.0,0.0,0.0;                                       33P     33
110,330.0,0.0,0.0,338.0,0.0,0.0;                                       34P     34
110,340.0,0.0,0.0,348.0,0.0,0.0;                                       35P     35
110,350.0,0.0,0.0,358.0,0.0,0.0;                                       36P     36
110,360.0,0.0,0.0,368.0,0.0,0.0;                                       37P     37
110,370.0,0.0,0.0,378.0,0.0,0.0;                                       38P     38
110,380.0,0.0,0.0,388.0,0.0,0.0;                                       39P     39
110,390.0,0.0,0.0,398.0,0.0,0.0;                                       40P     40
110,400.0,0.0,0.0,408.0,0.0,0.0;                                       41P     41
110,410.0,0.0,0.0,418.0,0.0,0.0;                                       42P     42
110,420.0,0.0,0.0,428.0,0.0,0.0;                                       43P     43
110,430.0,0.0,0.0,438.0,0.0,0.0;                                       44P     44
110,440.0,0.0,0.0,448.0,0.0,0.0;                                       45P     45
110,450.0,0.0,0.0,458.0,0.0,0.0;                                       46P     46
110,460.0,0.0,0.0,468.0,0.0,0.0;                                       47P     47
110,470.0,0.0,0.0,478.0,0.0,0.0;                                       48P     48
110,480.0,0.0,0.0,488.0,0.0,0.0;                                       49P     49
110,490.0,0.0,0.0,498.0,0.0,0.0;                                       50P     50
110,500.0,0.0,0.0,508.0,0.0,0.0;                                       51P     51
110,510.0,0.0,0.0,518.0,0.0,0.0;                                       52P     52
110,520.0,0.0,0.0,528.0,0.0,0.0;                                       53P     53
110,530.0,0.0,0.0,538.0,0.0,0.0;                                       54P     54
110,540.0,0.0,0.0,548.0,0.0,0.0;                                       55P     55
110,550.0,0.0,0.0,558.0,0.0,0.0;                                       56P     56
110,560.0,0.0,0.0,568.0,0.0,0.0;                                       57P     57
110,570.0,0.0,0.0,578.0,0.0,0.0;                                       58P     58
110,580.0,0.0,0.0,588.0,0.0,0.0;                                       59P     59
110,590.0,0.0,0.0,598.0,0.0,0.0;                                       60P     60
110,600.0,0.0,0.0,608.0,0.0,0.0;                                       61P     61
110,610.0,0.0,0.0,618.0,0.0,0.0;                                       62P     62
110,620.0,0.0,0.0,628.0,0.0,0.0;                                       63P     63
110,630.0,0.0,0.0,638.0,0.0,0.0;                                       64P     64
110,640.0,0.0,0.0,648.0,0.0,0.0;                                       65P     65
110,650.0,0.0,0.0,658.0,0.0,0.0;                                       66P     66
110,660.0,0.0,0.0,668.0,0.0,0.0;                                       67P     67
110,670.0,0.0,0.0,678.0,0.0,0.0;                                       68P     68
110,680.0,0.0,0.0,688.0,0.0,0.0;                                       69P     69
110,690.0,0.0,0.0,698.0,0.0,0.0;                                       70P     70
110,700.0,0.0,0.0,708.0,0.0,0.0;                                       71P     71
110,710.0,0.0,0.0,718.0,0.0,0.0;                                       72P     72
110,720.0,0.0,0.0,728.0,0.0,0.0;                                       73P     73
110,730.0,0.0,0.0,738.0,0.0,0.0;                                       74P     74
110,740.0,0.0,0.0,748.0,0.0,0.0;                                       75P     75
110,750.0,0.0,0.0,758.0,0.0,0.0;                                       76P     76
110,760.0,0.0,0.0,768.0,0.0,0.0;                                       77P     77
110,770.0,0.0,0.0,778.0,0.0,0.0;                                       78P     78
110,780.0,0.0,0.0,788.0,0.0,0.0;                                       79P     79
110,790.0,0.0,0.0,798.0,0.0,0.0;                                       80P     80
110,800.0,0.0,0.0,808.0,0.0,0.0;                                       81P     81
110,810.0,0.0,0.0,818.0,0.0,0.0;                                       82P     82
110,820.0,0.0,0.0,828.0,0.0,0.0;                                       83P     83
110,830.0,0.0,0.0,838.0,0.0,0.0;                                       84P     84
110,840.0,0.0,0.0,848.0,0.0,0.0;                                       85P     85
110,850.0,0.0,0.0,858.0,0.0,0.0;                                       86P     86
110,860.0,0.0,0.0,868.0,0.0,0.0;                                       87P     87
110,870.0,0.0,0.0,878.0,0.0,0.0;                                       88P     88
110,880.0,0.0,0.0,888.0,0.0,0.0;                                       89P     89
110,890.0,0.0,0.0,898.0,0.0,0.0;                                       90P     90
110,900.0,0.0,0.0,908.0,0.0,0.0;                                       91P     91
110,910.0,0.0,0.0,918.0,0.0,0.0;                                       92P     92
110,920.0,0.0,0.0,928.0,0.0,0.0;                                       93P     93
110,930.0,0.0,0.0,938.0,0.0,0.0;                                       94P     94
110,940.0,0.0,0.0,948.0,0.0,0.0;                                       95P     95
110,950.0,0.0,0.0,958.0,0.0,0.0;                                       96P     96
110,960.0,0.0,0.0,968.0,0.0,0.0;                                       97P     97
110,970.0,0.0,0.0,978.0,0.0,0.0;                                       98P     98
110,980.0,0.0,0.0,988.0,0.0,0.0;                                       99P     99
110,990.0,0.0,0.0,998.0,0.0,0.0;                                       100P    100
110,1000.0,0.0,0.0,1008.0,0.0,0.0;                                       101P    101
110,1010.0,0.0,0.0,1018.0,0.0,0.0;                                       102P    102
110,1020.0,0.0,0.0,1028.0,0.0,0.0;                                       103P    103
110,1030.0,0.0,0.0,1038.0,0.0,0.0;                                       104P    104
110,1040.0,0.0,0.0,1048.0,0.0,0.0;                                       105P    105
110,1050.0,0.0,0.0,1058.0,0.0,0.0;                                       106P    106
110,1060.0,0.0,0.0,1068.0,0.0,0.0;                                       107P    107
110,1070.0,0.0,0.0,1078.0,0.0,0.0;                                       108P    108
110,1080.0,0.0,0.0,1088.0,0.0,0.0;                                       109P    109
110,1090.0,0.0,0.0,1098.0,0.0,0.0;                                       110P    110
110,1100.0,0.0,0.0,1108.0,0.0,0.0;                                       111P    111
110,1110.0,0.0,0.0,1118.0,0.0,0.0;                                       112P    112
110,1120.0,0.0,0.0,1128.0,0.0,0.0;                                       113P    113
110,1130.0,0.0,0.0,1138.0,0.0,0.0;                                       114P    114
110,1140.0,0.0,0.0,1148.0,0.0,0.0;                                       115P    115
110,1150.0,0.0,0.0,1158.0,0.0,0.0;                                       116P    116
110,1160.0,0.0,0.0,1168.0,0.0,0.0;                                       117P    117
110,1170.0,0.0,0.0,1178.0,0.0,0.0;                                       118P    118
110,1180.0,0.0,0.0,1188.0,0.0,0.0;                                       119P    119
110,1190.0,0.0,0.0,1198.0,0.0,0.0;                                       120P    120
110,1200.0,0.0,0.0,1208.0,0.0,0.0;                                       121P    121
110,1210.0,0.0,0.0,1218.0,0.0,0.0;                                       122P    122
110,1220.0,0.0,0.0,1228.0,0.0,0.0;                                       123P    123
110,1230.0,0.0,0.0,1238.0,0.0,0.0;                                       124P    124
110,1240.0,0.0,0.0,1248.0,0.0,0.0;                                       125P    125
110,1250.0,0.0,0.0,1258.0,0.0,0.0;                                       126P    126
110,1260.0,0.0,0.0,1268.0,0.0,0.0;                                       127P    127
110,1270.0,0.0,0.0,1278.0,0.0,0.0;                                       128P    128
110,1280.0,0.0,0.0,1288.0,0.0,0.0;                                       129P    129
110,1290.0,0.0,0.0,1298.0,0.0,0.0;                                       130P    130
110,1300.0,0.0,0.0,1308.0,0.0,0.0;                                       131P    131
110,1310.0,0.0,0.0,1318.0,0.0,0.0;                                       132P    132
110,1320.0,0.0,0.0,1328.0,0.0,0.0;                                       133P    133
110,1330.0,0.0,0.0,1338.0,0.0,0.0;                                       134P    134
110,1340.0,0.0,0.0,1348.0,0.0,0.0;                                       135P    135
110,1350.0,0.0,0.0,1358.0,0.0,0.0;                                       136P    136
110,1360.0,0.0,0.0,1368.0,0.0,0.0;                                       137P    137
110,1370.0,0.0,0.0,1378.0,0.0,0.0;                                       138P    138
110,1380.0,0.0,0.0,1388.0,0.0,0.0;                                       139P    139
110,1390.0,0.0,0.0,1398.0,0.0,0.0;                                       140P    140
110,1400.0,0.0,0.0,1408.0,0.0,0.0;                                       141P    141
110,1410.0,0.0,0.0,1418.0,0.0,0.0;                                       142P    142
110,1420.0,0.0,0.0,1428.0,0.0,0.0;                                       143P    143
110,1430.0,0.0,0.0,1438.0,0.0,0.0;                                       144P    144
110,1440.0,0.0,0.0,1448.0,0.0,0.0;                                       145P    145
110,1450.0,0.0,0.0,1458.0,0.0,0.0;                                       146P    146
110,1460.0,0.0,0.0,1468.0,0.0,0.0;                                       147P    147
110,1470.0,0.0,0.0,1478.0,0.0,0.0;                                       148P    148
110,1480.0,0.0,0.0,1488.0,0.0,0.0;                                       149P    149
110,1490.0,0.0,0.0,1498.0,0.0,0.0;                                       150P    150
110,1500.0,0.0,0.0,1508.0,0.0,0.0;                                       151P    151
110,1510.0,0.0,0.0,1518.0,0.0,0.0;                                       152P    152
110,1520.0,0.0,0.0,1528.0,0.0,0.0;                                       153P    153
110,1530.0,0.0,0.0,1538.0,0.0,0.0;                                       154P    154
110,1540.0,0.0,0.0,1548.0,0.0,0.0;                                       155P    155
110,1550.0,0.0,0.0,1558.0,0.0,0.0;                                       156P    156
110,1560.0,0.0,0.0,1568.0,0.0,0.0;                                       157P    157
110,1570.0,0.0,0.0,1578.0,0.0,0.0;                                       158P    158
110,1580.0,0.0,0.0,1588.0,0.0,0.0;                                       159P    159
110,1590.0,0.0,0.0,1598.0,0.0,0.0;                                       160P    160
110,1600.0,0.0,0.0,1608.0,0.0,0.0;                                       161P    161
110,1610.0,0.0,0.0,1618.0,0.0,0.0;                                       162P    162
110,1620.0,0.0,0.0,1628.0,0.0,0.0;                                       163P    163
110,1630.0,0.0,0.0,1638.0,0.0,0.0;                                       164P    164
110,1640.0,0.0,0.0,1648.0,0.0,0.0;                                       165P    165
110,1650.0,0.0,0.0,1658.0,0.0,0.0;                                       166P    166
110,1660.0,0.0,0.0,1668.0,0.0,0.0;                                       167P    167
110,1670.0,0.0,0.0,1678.0,0.0,0.0;                                       168P    168
110,1680.0,0.0,0.0,1688.0,0.0,0.0;                                       169P    169
110,1690.0,0.0,0.0,1698.0,0.0,0.0;                                       170P    170
110,1700.0,0.0,0.0,1708.0,0.0,0.0;                                       171P    171
110,1710.0,0.0,0.0,1718.0,0.0,0.0;                                       172P    172
110,1720.0,0.0,0.0,1728.0,0.0,0.0;                                       173P    173
110,1730.0,0.0,0.0,1738.0,0.0,0.0;                                       174P    174
110,1740.0,0.0,0.0,1748.0,0.0,0.0;                                       175P    175
110,1750.0,0.0,0.0,1758.0,0.0,0.0;                                       176P    176
110,1760.0,0.0,0.0,1768.0,0.0,0.0;                                       177P    177
110,1770.0,0.0,0.0,1778.0,0.0,0.0;                                       178P    178
110,1780.0,0.0,0.0,1788.0,0.0,0.0;                                       179P    179
110,1790.0,0.0,0.0,1798.0,0.0,0.0;                                       180P    180
110,1800.0,0.0,0.0,1808.0,0.0,0.0;                                       181P    181
110,1810.0,0.0,0.0,1818.0,0.0,0.0;                                       182P    182
110,1820.0,0.0,0.0,1828.0,0.0,0.0;                                       183P    183
110,1830.0,0.0,0.0,1838.0,0.0,0.0;                                       184P    184
110,1840.0,0.0,0.0,1848.0,0.0,0.0;                                       185P    185
110,1850.0,0.0,0.0,1858.0,0.0,0.0;                                       186P    186
110,1860.0,0.0,0.0,1868.0,0.0,0.0;                                       187P    187
110,1870.0,0.0,0.0,1878.0,0.0,0.0;                                       188P    188
110,1880.0,0.0,0.0,1888.0,0.0,0.0;                                       189P    189
110,1890.0,0.0,0.0,1898.0,0.0,0.0;                                       190P    190
110,1900.0,0.0,0.0,1908.0,0.0,0.0;                                       191P    191
110,1910.0,0.0,0.0,1918.0,0.0,0.0;                                       192P    192
110,1920.0,0.0,0.0,1928.0,0.0,0.0;                                       193P    193
110,1930.0,0.0,0.0,1938.0,0.0,0.0;                                       194P    194
110,1940.0,0.0,0.0,1948.0,0.0,0.0;                                       195P    195
110,1950.0,0.0,0.0,1958.0,0.0,0.0;                                       196P    196
110,1960.0,0.0,0.0,1968.0,0.0,0.0;                                       197P    197
110,1970.0,0.0,0.0,1978.0,0.0,0.0;                                       198P    198
110,1980.0,0.0,0.0,1988.0,0.0,0.0;                                       199P    199
110,1990.0,0.0,0.0,1998.0,0.0,0.0;                                       200P    200
110,2000.0,0.0,0.0,2008.0,0.0,0.0;                                       201P    201
110,2010.0,0.0,0.0,2018.0,0.0,0.0;                                       202P    202
110,2020.0,0.0,0.0,2028.0,0.0,0.0;                                       203P    203
110,2030.0,0.0,0.0,2038.0,0.0,0.0;                                       204P    204
110,2040.0,0.0,0.0,2048.0,0.0,0.0;                                       205P    205
110,2050.0,0.0,0.0,2058.0,0.0,0.0;                                       206P    206
110,2060.0,0.0,0.0,2068.0,0.0,0.0;                                       207P    207
110,2070.0,0.0,0.0,2078.0,0.0,0.0;                                       208P    208
110,2080.0,0.0,0.0,2088.0,0.0,0.0;                                       209P    209
110,2090.0,0.0,0.0,2098.0,0.0,0.0;                                       210P    210
110,2100.0,0.0,0.0,2108.0,0.0,0.0;                                       211P    211
110,2110.0,0.0,0.0,2118.0,0.0,0.0;                                       212P    212
110,2120.0,0.0,0.0,2128.0,0.0,0.0;                                       213P    213
110,2130.0,0.0,0.0,2138.0,0.0,0.0;                                       214P    214
110,2140.0,0.0,0.0,2148.0,0.0,0.0;                                       215P    215
110,2150.0,0.0,0.0,2158.0,0.0,0.0;                                       216P    216
110,2160.0,0.0,0.0,2168.0,0.0,0.0;                                       217P    217
110,2170.0,0.0,0.0,2178.0,0.0,0.0;                                       218P    218
110,2180.0,0.0,0.0,2188.0,0.0,0.0;                                       219P    219
110,2190.0,0.0,0.0,2198.0,0.0,0.0;                                       220P    220
110,2200.0,0.0,0.0,2208.0,0.0,0.0;                                       221P    221
110,2210.0,0.0,0.0,2218.0,0.0,0.0;                                       222P    222
110,2220.0,0.0,0.0,2228.0,0.0,0.0;                                       223P    223
110,2230.0,0.0,0.0,2238.0,0.0,0.0;                                       224P    224
110,2240.0,0.0,0.0,2248.0,0.0,0.0;                                       225P    225
110,2250.0,0.0,0.0,2258.0,0.0,0.0;                                       226P    226
110,2260.0,0.0,0.0,2268.0,0.0,0.0;                                       227P    227
110,2270.0,0.0,0.0,2278.0,0.0,0.0;                                       228P    228
110,2280.0,0.0,0.0,2288.0,0.0,0.0;                                       229P    229
110,2290.0,0.0,0.0,2298.0,0.0,0.0;                                       230P    230
110,2300.0,0.0,0.0,2308.0,0.0,0.0;                                       231P    231
110,2310.0,0.0,0.0,2318.0,0.0,0.0;                                       232P    232
110,2320.0,0.0,0.0,2328.0,0.0,0.0;                                       233P    233
110,2330.0,0.0,0.0,2338.0,0.0,0.0;                                       234P    234
110,2340.0,0.0,0.0,2348.0,0.0,0.0;                                       235P    235
110,2350.0,0.0,0.0,2358.0,0.0,0.0;                                       236P    236
110,2360.0,0.0,0.0,2368.0,0.0,0.0;                                       237P    237
110,2370.0,0.0,0.0,2378.0,0.0,0.0;                                       238P    238
110,2380.0,0.0,0.0,2388.0,0.0,0.0;                                       239P    239
110,2390.0,0.0,0.0,2398.0,0.0,0.0;                                       240P    240
110,2400.0,0.0,0.0,2408.0,0.0,0.0;                                       241P    241
110,2410.0,0.0,0.0,2418.0,0.0,0.0;                                       242P    242
110,2420.0,0.0,0.0,2428.0,0.0,0.0;                                       243P    243
110,2430.0,0.0,0.0,2438.0,0.0,0.0;                                       244P    244
110,2440.0,0.0,0.0,2448.0,0.0,0.0;                                       245P    245
110,2450.0,0.0,0.0,2458.0,0.0,0.0;                                       246P    246
110,2460.0,0.0,0.0,2468.0,0.0,0.0;                                       247P    247
110,2470.0,0.0,0.0,2478.0,0.0,0.0;                                       248P    248
110,2480.0,0.0,0.0,2488.0,0.0,0.0;                                       249P    249
110,2490.0,0.0,0.0,2498.0,0.0,0.0;                                       250P    250
110,2500.0,0.0,0.0,2508.0,0.0,0.0;                                       251P    251
110,2510.0,0.0,0.0,2518.0,0.0,0.0;                                       252P    252
110,2520.0,0.0,0.0,2528.0,0.0,0.0;                                       253P    253
110,2530.0,0.0,0.0,2538.0,0.0,0.0;                                       254P    254
110,2540.0,0.0,0.0,2548.0,0.0,0.0;                                       255P    255
110,2550.0,0.0,0.0,2558.0,0.0,0.0;                                       256P    256
110,2560.0,0.0,0.0,2568.0,0.0,0.0;                                       257P    257
110,2570.0,0.0,0.0,2578.0,0.0,0.0;                                       258P    258
110,2580.0,0.0,0.0,2588.0,0.0,0.0;                                       259P    259
110,2590.0,0.0,0.0,2598.0,0.0,0.0;                                       260P    260
110,2600.0,0.0,0.0,2608.0,0.0,0.0;                                       261P    261
110,2610.0,0.0,0.0,2618.0,0.0,0.0;                                       262P    262
110,2620.0,0.0,0.0,2628.0,0.0,0.0;                                       263P    263
110,2630.0,0.0,0.0,2638.0,0.0,0.0;                                       264P    264
110,2640.0,0.0,0.0,2648.0,0.0,0.0;                                       265P    265
110,2650.0,0.0,0.0,2658.0,0.0,0.0;                                       266P    266
110,2660.0,0.0,0.0,2668.0,0.0,0.0;                                       267P    267
110,2670.0,0.0,0.0,2678.0,0.0,0.0;                                       268P    268
110,2680.0,0.0,0.0,2688.0,0.0,0.0;                                       269P    269
110,2690.0,0.0,0.0,2698.0,0.0,0.0;                                       270P    270
110,2700.0,0.0,0.0,2708.0,0.0,0.0;                                       271P    271
110,2710.0,0.0,0.0,2718.0,0.0,0.0;                                       272P    272
110,2720.0,0.0,0.0,2728.0,0.0,0.0;                                       273P    273
110,2730.0,0.0,0.0,2738.0,0.0,0.0;                                       274P    274
110,2740.0,0.0,0.0,2748.0,0.0,0.0;                                       275P    275
110,2750.0,0.0,0.0,2758.0,0.0,0.0;                                       276P    276
110,2760.0,0.0,0.0,2768.0,0.0,0.0;                                       277P    277
110,2770.0,0.0,0.0,2778.0,0.0,0.0;                                       278P    278
110,2780.0,0.0,0.0,2788.0,0.0,0.0;                                       279P    279
110,2790.0,0.0,0.0,2798.0,0.0,0.0;                                       280P    280
110,2800.0,0.0,0.0,2808.0,0.0,0.0;                                       281P    281
110,2810.0,0.0,0.0,2818.0,0.0,0.0;                                       282P    282
110,2820.0,0.0,0.0,2828.0,0.0,0.0;                                       283P    283
110,2830.0,0.0,0.0,2838.0,0.0,0.0;                                       284P    284
110,2840.0,0.0,0.0,2848.0,0.0,0.0;                                       285P    285
110,2850.0,0.0,0.0,2858.0,0.0,0.0;                                       286P    286
110,2860.0,0.0,0.0,2868.0,0.0,0.0;                                       287P    287
110,2870.0,0.0,0.0,2878.0,0.0,0.0;                                       288P    288
110,2880.0,0.0,0.0,2888.0,0.0,0.0;                                       289P    289
110,2890.0,0.0,0.0,2898.0,0.0,0.0;                                       290P    290
110,2900.0,0.0,0.0,2908.0,0.0,0.0;                                       291P    291
110,2910.0,0.0,0.0,2918.0,0.0,0.0;                                       292P    292
110,2920.0,0.0,0.0,2928.0,0.0,0.0;                                       293P    293
110,2930.0,0.0,0.0,2938.0,0.0,0.0;                                       294P    294
110,2940.0,0.0,0.0,2948.0,0.0,0.0;                                       295P    295
110,2950.0,0.0,0.0,2958.0,0.0,0.0;                                       296P    296
110,2960.0,0.0,0.0,2968.0,0.0,0.0;                                       297P    297
110,2970.0,0.0,0.0,2978.0,0.0,0.0;                                       298P    298
110,2980.0,0.0,0.0,2988.0,0.0,0.0;                                       299P    299
110,2990.0,0.0,0.0,2998.0,0.0,0.0;                                       300P    300
110,3000.0,0.0,0.0,3008.0,0.0,0.0;                                       301P    301
110,3010.0,0.0,0.0,3018.0,0.0,0.0;                                       302P    302
110,3020.0,0.0,0.0,3028.0,0.0,0.0;                                       303P    303
110,3030.0,0.0,0.0,3038.0,0.0,0.0;                                       304P    304
110,3040.0,0.0,0.0,3048.0,0.0,0.0;                                       305P    305
110,3050.0,0.0,0.0,3058.0,0.0,0.0;                                       306P    306
110,3060.0,0.0,0.0,3068.0,0.0,0.0;                                       307P    307
110,3070.0,0.0,0.0,3078.0,0.0,0.0;                                       308P    308
110,3080.0,0.0,0.0,3088.0,0.0,0.0;                                       309P    309
110,3090.0,0.0,0.0,3098.0,0.0,0.0;                                       310P    310
110,3100.0,0.0,0.0,3108.0,0.0,0.0;                                       311P    311
110,3110.0,0.0,0.0,3118.0,0.0,0.0;                                       312P    312
110,3120.0,0.0,0.0,3128.0,0.0,0.0;                                       313P    313
110,3130.0,0.0,0.0,3138.0,0.0,0.0;                                       314P    314
110,3140.0,0.0,0.0,3148.0,0.0,0.0;                                       315P    315
110,3150.0,0.0,0.0,3158.0,0.0,0.0;                                       316P    316
110,3160.0,0.0,0.0,3168.0,0.0,0.0;                                       317P    317
110,3170.0,0.0,0.0,3178.0,0.0,0.0;                                       318P    318
110,3180.0,0.0,0.0,3188.0,0.0,0.0;                                       319P    319
110,3190.0,0.0,0.0,3198.0,0.0,0.0;                                       320P    320
110,3200.0,0.0,0.0,3208.0,0.0,0.0;                                       321P    321
110,3210.0,0.0,0.0,3218.0,0.0,0.0;                                       322P    322
110,3220.0,0.0,0.0,3228.0,0.0,0.0;                                       323P    323
110,3230.0,0.0,0.0,3238.0,0.0,0.0;                                       324P    324
110,3240.0,0.0,0.0,3248.0,0.0,0.0;                                       325P    325
110,3250.0,0.0,0.0,3258.0,0.0,0.0;                                       326P    326
110,3260.0,0.0,0.0,3268.0,0.0,0.0;                                       327P    327
110,3270.0,0.0,0.0,3278.0,0.0,0.0;                                       328P    328
110,3280.0,0.0,0.0,3288.0,0.0,0.0;                                       329P    329
110,3290.0,0.0,0.0,3298.0,0.0,0.0;                                       330P    330
110,3300.0,0.0,0.0,3308.0,0.0,0.0;                                       331P    331
110,3310.0,0.0,0.0,3318.0,0.0,0.0;                                       332P    332
110,3320.0,0.0,0.0,3328.0,0.0,0.0;                                       333P    333
110,3330.0,0.0,0.0,3338.0,0.0,0.0;                                       334P    334
110,3340.0,0.0,0.0,3348.0,0.0,0.0;                                       335P    335
110,3350.0,0.0,0.0,3358.0,0.0,0.0;                                       336P    336
110,3360.0,0.0,0.0,3368.0,0.0,0.0;                                       337P    337
110,3370.0,0.0,0.0,3378.0,0.0,0.0;                                       338P    338
110,3380.0,0.0,0.0,3388.0,0.0,0.0;                                       339P    339
110,3390.0,0.0,0.0,3398.0,0.0,0.0;                                       340P    340
110,3400.0,0.0,0.0,3408.0,0.0,0.0;                                       341P    341
110,3410.0,0.0,0.0,3418.0,0.0,0.0;                                       342P    342
110,3420.0,0.0,0.0,3428.0,0.0,0.0;                                       343P    343
110,3430.0,0.0,0.0,3438.0,0.0,0.0;                                       344P    344
110,3440.0,0.0,0.0,3448.0,0.0,0.0;                                       345P    345
110,3450.0,0.0,0.0,3458.0,0.0,0.0;                                       346P    346
110,3460.0,0.0,0.0,3468.0,0.0,0.0;                                       347P    347
110,3470.0,0.0,0.0,3478.0,0.0,0.0;                                       348P    348
110,3480.0,0.0,0.0,3488.0,0.0,0.0;                                       349P    349
110,3490.0,0.0,0.0,3498.0,0.0,0.0;                                       350P    350
S      1G      3D    700P    350                                        T      1
