                                                                        S      1
1H,,1H;,4HSTEP,7Hstp.ige,7Hgetsam,7Hgetsam,32,38,6,38,15,4HSTEP,1.,2,2HMM G      1
,32767,0.5,13H260818.000000,1E-06,10.,7Hunknown,7Hunknown,10,0,15H26081  G      2
8.000000;                                                              G      3
     110       1       0       1       0       0       0       000000001D      1
     110       0       0       1       0                               D      2
     110       2       0       1       0       0       0       000000001D      3
     110       0       0       1       0                               D      4
     110       3       0       1       0       0       0       000000001D      5
     110       0       0       1       0                               D      6
     110       4       0       1       0       0       0       000000001D      7
     110       0       0       1       0                               D      8
     110       5       0       1       0       0       0       000000001D      9
     110       0       0       1       0                               D     10
     110       6       0       1       0       0       0       000000001D     11
     110       0       0       1       0                               D     12
     110       7       0       1       0       0       0       000000001D     13
     110       0       0       1       0                               D     14
     110       8       0       1       0       0       0       000000001D     15
     110       0       0       1       0                               D     16
110,0.0,0.0,0.0,8.0,0.0,0.0;                                       1P      1
110,10.0,0.0,0.0,18.0,0.0,0.0;                                       2P      2
110,20.0,0.0,0.0,28.0,0.0,0.0;                                       3P      3
110,30.0,0.0,0.0,38.0,0.0,0.0;                                       4P      4
110,40.0,0.0,0.0,48.0,0.0,0.0;                                       5P      5
110,50.0,0.0,0.0,58.0,0.0,0.0;                                       6P      6
110,60.0,0.0,0.0,68.0,0.0,0.0;                                       7P      7
110,70.0,0.0,0.0,78.0,0.0,0.0;                                       8P      8
S      1G      3D     16P      8                                        T      1
