{"scene":0,"scenes":[{"nodes":[0]}],"asset":{"version":"2.0","generator":"https://github.com/mikedh/trimesh"},"accessors":[{"componentType":5125,"type":"SCALAR","bufferView":0,"count":11520,"max":[1921],"min":[0]},{"componentType":5126,"type":"VEC3","byteOffset":0,"bufferView":1,"count":1922,"max":[0.9987165331840515,0.9987165331840515,1.0],"min":[-0.9987165331840515,-0.9987165331840515,-1.0]},{"componentType":5126,"count":1922,"type":"VEC3","byteOffset":0,"bufferView":2,"max":[0.9987205266952515,0.9987205266952515,1.0],"min":[-0.9987205266952515,-0.9987205266952515,-1.0]}],"meshes":[{"name":"geometry_0","extras":{"shape":"sphere","radius":1.0,"processed":true},"primitives":[{"attributes":{"POSITION":1,"NORMAL":2},"indices":0,"mode":4}]}],"nodes":[{"name":"geometry_0","mesh":0}],"buffers":[{"uri":"sample-5-gltf_buffer_0.bin","byteLength":46080},{"uri":"sample-5-gltf_buffer_1.bin","byteLength":23064},{"uri":"sample-5-gltf_buffer_2.bin","byteLength":23064}],"bufferViews":[{"buffer":0,"byteOffset":0,"byteLength":46080},{"buffer":1,"byteOffset":0,"byteLength":23064},{"buffer":2,"byteOffset":0,"byteLength":23064}]}