{"scene":0,"scenes":[{"nodes":[0]}],"asset":{"version":"2.0","generator":"https://github.com/mikedh/trimesh"},"accessors":[{"componentType":5125,"type":"SCALAR","bufferView":0,"count":576,"max":[97],"min":[0]},{"componentType":5126,"type":"VEC3","byteOffset":0,"bufferView":1,"count":98,"max":[0.9749279022216797,0.9749279022216797,1.0],"min":[-0.9749279022216797,-0.9749279022216797,-1.0]},{"componentType":5126,"count":98,"type":"VEC3","byteOffset":0,"bufferView":2,"max":[0.9762276411056519,0.9762276411056519,1.0],"min":[-0.9762276411056519,-0.9762276411056519,-1.0]}],"meshes":[{"name":"geometry_0","extras":{"shape":"sphere","radius":1.0,"processed":true},"primitives":[{"attributes":{"POSITION":1,"NORMAL":2},"indices":0,"mode":4}]}],"nodes":[{"name":"geometry_0","mesh":0}],"buffers":[{"uri":"sample-1-gltf_buffer_0.bin","byteLength":2304},{"uri":"sample-1-gltf_buffer_1.bin","byteLength":1176},{"uri":"sample-1-gltf_buffer_2.bin","byteLength":1176}],"bufferViews":[{"buffer":0,"byteOffset":0,"byteLength":2304},{"buffer":1,"byteOffset":0,"byteLength":1176},{"buffer":2,"byteOffset":0,"byteLength":1176}]}