{"scene":0,"scenes":[{"nodes":[0]}],"asset":{"version":"2.0","generator":"https://github.com/mikedh/trimesh"},"accessors":[{"componentType":5125,"type":"SCALAR","bufferView":0,"count":95040,"max":[15841],"min":[0]},{"componentType":5126,"type":"VEC3","byteOffset":0,"bufferView":1,"count":15842,"max":[0.9998442530632019,0.9998442530632019,1.0],"min":[-0.9998442530632019,-0.9998442530632019,-1.0]},{"componentType":5126,"count":15842,"type":"VEC3","byteOffset":0,"bufferView":2,"max":[0.9998443126678467,0.9998443126678467,1.0],"min":[-0.9998443126678467,-0.9998443126678467,-1.0]}],"meshes":[{"name":"geometry_0","extras":{"shape":"sphere","radius":1.0,"processed":true},"primitives":[{"attributes":{"POSITION":1,"NORMAL":2},"indices":0,"mode":4}]}],"nodes":[{"name":"geometry_0","mesh":0}],"buffers":[{"uri":"sample-8-gltf_buffer_0.bin","byteLength":380160},{"uri":"sample-8-gltf_buffer_1.bin","byteLength":190104},{"uri":"sample-8-gltf_buffer_2.bin","byteLength":190104}],"bufferViews":[{"buffer":0,"byteOffset":0,"byteLength":380160},{"buffer":1,"byteOffset":0,"byteLength":190104},{"buffer":2,"byteOffset":0,"byteLength":190104}]}