{"scene":0,"scenes":[{"nodes":[0]}],"asset":{"version":"2.0","generator":"https://github.com/mikedh/trimesh"},"accessors":[{"componentType":5125,"type":"SCALAR","bufferView":0,"count":47616,"max":[7937],"min":[0]},{"componentType":5126,"type":"VEC3","byteOffset":0,"bufferView":1,"count":7938,"max":[0.9996891617774963,0.9996891617774963,1.0],"min":[-0.9996891617774963,-0.9996891617774963,-1.0]},{"componentType":5126,"count":7938,"type":"VEC3","byteOffset":0,"bufferView":2,"max":[0.9996894001960754,0.9996894001960754,1.0],"min":[-0.9996894001960754,-0.9996894001960754,-1.0]}],"meshes":[{"name":"geometry_0","extras":{"shape":"sphere","radius":1.0,"processed":true},"primitives":[{"attributes":{"POSITION":1,"NORMAL":2},"indices":0,"mode":4}]}],"nodes":[{"name":"geometry_0","mesh":0}],"buffers":[{"uri":"sample-7-gltf_buffer_0.bin","byteLength":190464},{"uri":"sample-7-gltf_buffer_1.bin","byteLength":95256},{"uri":"sample-7-gltf_buffer_2.bin","byteLength":95256}],"bufferViews":[{"buffer":0,"byteOffset":0,"byteLength":190464},{"buffer":1,"byteOffset":0,"byteLength":95256},{"buffer":2,"byteOffset":0,"byteLength":95256}]}