{"scene":0,"scenes":[{"nodes":[0]}],"asset":{"version":"2.0","generator":"https://github.com/mikedh/trimesh"},"accessors":[{"componentType":5125,"type":"SCALAR","bufferView":0,"count":1440,"max":[241],"min":[0]},{"componentType":5126,"type":"VEC3","byteOffset":0,"bufferView":1,"count":242,"max":[0.9898214340209961,0.9898214340209961,1.0],"min":[-0.9898214340209961,-0.9898214340209961,-1.0]},{"componentType":5126,"count":242,"type":"VEC3","byteOffset":0,"bufferView":2,"max":[0.9900555610656738,0.9900555610656738,1.0],"min":[-0.9900555610656738,-0.9900555610656738,-1.0]}],"meshes":[{"name":"geometry_0","extras":{"shape":"sphere","radius":1.0,"processed":true},"primitives":[{"attributes":{"POSITION":1,"NORMAL":2},"indices":0,"mode":4}]}],"nodes":[{"name":"geometry_0","mesh":0}],"buffers":[{"uri":"sample-2-gltf_buffer_0.bin","byteLength":5760},{"uri":"sample-2-gltf_buffer_1.bin","byteLength":2904},{"uri":"sample-2-gltf_buffer_2.bin","byteLength":2904}],"bufferViews":[{"buffer":0,"byteOffset":0,"byteLength":5760},{"buffer":1,"byteOffset":0,"byteLength":2904},{"buffer":2,"byteOffset":0,"byteLength":2904}]}