{"scene":0,"scenes":[{"nodes":[0]}],"asset":{"version":"2.0","generator":"https://github.com/mikedh/trimesh"},"accessors":[{"componentType":5125,"type":"SCALAR","bufferView":0,"count":26496,"max":[4417],"min":[0]},{"componentType":5126,"type":"VEC3","byteOffset":0,"bufferView":1,"count":4418,"max":[0.9994415640830994,0.9994415640830994,1.0],"min":[-0.9994415640830994,-0.9994415640830994,-1.0]},{"componentType":5126,"count":4418,"type":"VEC3","byteOffset":0,"bufferView":2,"max":[0.9994423389434814,0.9994423389434814,1.0],"min":[-0.9994423389434814,-0.9994423389434814,-1.0]}],"meshes":[{"name":"geometry_0","extras":{"shape":"sphere","radius":1.0,"processed":true},"primitives":[{"attributes":{"POSITION":1,"NORMAL":2},"indices":0,"mode":4}]}],"nodes":[{"name":"geometry_0","mesh":0}],"buffers":[{"uri":"sample-6-gltf_buffer_0.bin","byteLength":105984},{"uri":"sample-6-gltf_buffer_1.bin","byteLength":53016},{"uri":"sample-6-gltf_buffer_2.bin","byteLength":53016}],"bufferViews":[{"buffer":0,"byteOffset":0,"byteLength":105984},{"buffer":1,"byteOffset":0,"byteLength":53016},{"buffer":2,"byteOffset":0,"byteLength":53016}]}