{"scene":0,"scenes":[{"nodes":[0]}],"asset":{"version":"2.0","generator":"https://github.com/mikedh/trimesh"},"accessors":[{"componentType":5125,"type":"SCALAR","bufferView":0,"count":6336,"max":[1057],"min":[0]},{"componentType":5126,"type":"VEC3","byteOffset":0,"bufferView":1,"count":1058,"max":[0.9976687431335449,0.9976687431335449,1.0],"min":[-0.9976687431335449,-0.9976687431335449,-1.0]},{"componentType":5126,"count":1058,"type":"VEC3","byteOffset":0,"bufferView":2,"max":[0.9976819157600403,0.9976819157600403,1.0],"min":[-0.9976819157600403,-0.9976819157600403,-1.0]}],"meshes":[{"name":"geometry_0","extras":{"shape":"sphere","radius":1.0,"processed":true},"primitives":[{"attributes":{"POSITION":1,"NORMAL":2},"indices":0,"mode":4}]}],"nodes":[{"name":"geometry_0","mesh":0}],"buffers":[{"uri":"sample-4-gltf_buffer_0.bin","byteLength":25344},{"uri":"sample-4-gltf_buffer_1.bin","byteLength":12696},{"uri":"sample-4-gltf_buffer_2.bin","byteLength":12696}],"bufferViews":[{"buffer":0,"byteOffset":0,"byteLength":25344},{"buffer":1,"byteOffset":0,"byteLength":12696},{"buffer":2,"byteOffset":0,"byteLength":12696}]}